<svg width="751" height="719" viewBox="0 0 751 719" fill="none" xmlns="http://www.w3.org/2000/svg">
<g clip-path="url(#clip0_740_2230)">
<path d="M231.971 438.522C227.723 438.522 223.773 439.767 220.451 441.902C216.815 431.952 207.265 424.856 196.054 424.856C192.801 424.856 189.692 425.452 186.823 426.549C181.02 416.892 170.442 410.424 158.353 410.424C144.187 410.424 132.087 419.298 127.327 431.803C123.894 430.121 120.04 429.184 115.962 429.184C106.56 429.184 98.3197 434.183 93.7575 441.668C90.5101 439.671 86.6932 438.527 82.6101 438.527C71.4999 438.527 62.3808 447.023 61.3906 457.873H253.186C252.195 447.029 243.076 438.527 231.966 438.527L231.971 438.522Z" fill="#FFCF59"/>
<path d="M683.681 447.279C679.119 447.279 674.876 448.477 671.309 450.531C667.402 440.965 657.149 434.135 645.107 434.135C641.615 434.135 638.271 434.71 635.194 435.764C628.961 426.475 617.6 420.257 604.616 420.257C589.402 420.257 576.407 428.796 571.297 440.816C567.613 439.198 563.471 438.298 559.09 438.298C548.991 438.298 540.138 443.105 535.24 450.303C531.754 448.386 527.655 447.279 523.268 447.279C511.338 447.279 501.543 455.45 500.483 465.884H706.471C705.411 455.45 695.616 447.279 683.686 447.279H683.681Z" fill="#FFCF59"/>
<path d="M226.797 312.301C232.19 312.301 237.21 313.883 241.426 316.592C246.047 303.96 258.174 294.942 272.414 294.942C276.545 294.942 280.495 295.698 284.136 297.092C291.51 284.827 304.941 276.613 320.294 276.613C338.287 276.613 353.651 287.888 359.693 303.763C364.053 301.628 368.945 300.441 374.125 300.441C386.065 300.441 396.531 306.786 402.323 316.294C406.444 313.76 411.294 312.301 416.479 312.301C430.586 312.301 442.17 323.092 443.426 336.869H199.844C201.101 323.098 212.685 312.301 226.792 312.301H226.797Z" fill="#FFCF59"/>
<path d="M444.214 718.08L390.809 630.689L368.908 643.04L307.411 542.825C307.411 542.825 291.387 538.688 286.952 545.247C282.518 551.806 274.304 507.221 269.433 499.215C267.453 495.967 264.924 492.523 262.613 489.585C259.238 485.283 256.337 482.041 256.337 482.041C256.337 482.041 203.272 577.353 198.769 585.509C194.27 593.659 170.006 596.235 164.794 597.188C160.535 597.971 139.806 686.011 132.385 718.08H444.219H444.214Z" fill="#4577A8"/>
<path d="M271.445 718.08H444.214L390.809 630.689L368.908 643.04L307.411 542.825C307.411 542.825 291.387 538.688 286.953 545.247C282.518 551.806 274.304 507.221 269.433 499.215C267.453 495.967 264.924 492.523 262.614 489.585L255.496 561.537L284.067 598.36L243.534 654.65C243.534 654.65 261.235 695.859 271.445 718.085V718.08Z" fill="#2B4C65"/>
<path d="M626.56 718.08L504.21 586.909C504.21 586.909 477.198 580.153 472.066 580.153C466.935 580.153 449.117 547.297 449.117 547.297L326.288 554.494C326.288 554.494 324.946 555.575 322.716 557.347C313.245 564.848 287.725 584.721 280.33 586.909C271.195 589.608 253.005 589.608 248.948 592.333C244.897 595.048 214.329 654.32 214.329 654.32C214.329 654.32 191.002 654.666 174.148 651.28C163.857 649.21 144.528 682.796 127.317 718.085H626.56V718.08Z" fill="#5F8BB7"/>
<path d="M342.791 577.342C368.194 602.847 390.67 626.079 390.67 626.079L389.547 628.113L352.613 694.954L392.97 718.08H626.56L521.128 605.046L504.204 586.903C504.204 586.903 488.032 582.858 478.338 581.037C475.505 580.494 473.222 580.153 472.061 580.153C466.929 580.153 449.117 547.297 449.117 547.297L384.16 494.365C384.16 494.365 324.946 555.575 322.716 557.347C329.376 563.922 336.184 570.709 342.791 577.342Z" fill="#3C6996"/>
<path d="M389.547 628.113L389.408 627.782C389.408 627.782 368.194 602.853 342.791 577.348C368.801 575.282 440.956 579.014 478.343 581.042C488.037 582.868 504.21 586.909 504.21 586.909L498.455 612.089L389.547 628.107V628.113Z" fill="#2B4C65"/>
<path fill-rule="evenodd" clip-rule="evenodd" d="M340.145 188.088C323.2 197.33 321.39 198.98 292.595 212.603C272.031 222.334 274.4 241.488 287.32 240.748C298.962 240.083 326.714 232.832 357.425 222.414C351.223 205.629 340.145 188.088 340.145 188.088Z" fill="#3B3B7F"/>
<path fill-rule="evenodd" clip-rule="evenodd" d="M270.631 172.32C264.285 154.95 268.49 152.384 267.399 138.894C265.488 135.434 262.736 137.446 259.068 136.115C256.582 135.21 255.182 133.826 253.846 133.815C249.289 133.794 247.574 140.4 247.298 145.809C247.244 146.874 246.989 147.39 247.276 148.434C249.198 155.386 252.632 156.557 255.815 163.009C256.71 164.755 256.773 171.756 257.098 174.742C260.292 173.667 270.45 172.171 270.636 172.32H270.631Z" fill="#ED944A"/>
<path fill-rule="evenodd" clip-rule="evenodd" d="M260.452 163.568C261.043 165.144 262.4 172.022 262.752 173.497C266.191 172.565 269.587 172.4 272.217 171.692C269.747 165.048 267.048 157.127 267.538 154.779C268.421 150.297 269.72 147.587 269.188 143.206C268.97 141.96 268.315 140.305 266.244 136.983C265.823 136.546 262.209 134.656 259.808 133.059C257.503 135.109 259.015 137.371 261.416 139.006C263.172 140.384 263.146 142.647 261.48 144.382C254.724 151.425 260.016 162.924 260.452 163.568Z" fill="#FFAF66"/>
<path fill-rule="evenodd" clip-rule="evenodd" d="M273.931 168.248L270.45 159.48C270.45 159.48 257.301 164.425 253.697 165.511C255.869 171.053 256.449 174.599 257.492 176.526L273.926 168.248H273.931Z" fill="white"/>
<path fill-rule="evenodd" clip-rule="evenodd" d="M278.334 236.878C270.7 229.51 258.264 188.136 253.191 173.433L273.862 164.516L296.231 214.099C305.281 234.014 292.409 243.863 282.444 239.875L278.334 236.884V236.878Z" fill="#3B3B7F"/>
<path fill-rule="evenodd" clip-rule="evenodd" d="M259.611 136.243C258.876 134.837 255.954 131.212 254.767 131.766C253.963 132.138 252.909 133.203 252.302 133.853C251.839 133.853 250.577 133.89 249.566 134.151C249.198 134.821 248.842 135.524 248.373 136.839C247.468 137.345 247.111 137.324 246.286 137.691C246.036 138.569 245.797 139.4 245.829 140.975C245.376 140.965 243.838 141.002 243.806 141.162C243.46 142.722 243.342 144.633 244.109 145.825C245.951 148.801 246.84 149.333 248.155 150.121C248.687 150.441 249.592 150.185 250.577 150.105C250.902 149.232 251.179 148.242 251.051 147.774C250.966 147.465 250.433 146.688 249.944 145.953C250.226 146.251 250.481 146.517 250.694 146.741C250.992 147.05 251.711 147.646 252.632 147.667C253.207 147.678 254.011 147.518 254.602 147.438C255.049 146.23 255.006 145.628 255.033 144.984C255.134 145.021 255.235 145.048 255.336 145.053C255.895 145.096 255.885 144.888 256.976 144.633C257.615 142.903 257.593 142.817 257.583 141.534C258.413 141.508 259.702 140.805 260.314 140.48C261.054 140.086 260.356 137.638 259.622 136.232L259.611 136.243Z" fill="#FFAF66"/>
<path fill-rule="evenodd" clip-rule="evenodd" d="M428.238 159.203C421.238 182.541 394.951 189.164 377.569 172.32C380.279 170.207 386.156 166.752 385.714 161.886C385.464 159.107 384.868 156.477 384.745 155.913C384.16 153.337 383.244 149.19 382.36 146.491C386.38 151.053 391.687 154.758 397.964 154.827C399.385 154.843 400.854 154.673 402.366 154.289C408.116 152.815 411.256 144.106 413.072 136.967C413.418 140.427 414.754 146.405 415.409 149.605C415.441 149.749 415.712 150.765 416.005 151.857C416.974 155.461 420.77 157.574 424.741 158.586C425.907 158.884 427.099 159.086 428.233 159.208L428.238 159.203Z" fill="#FFAF66"/>
<path fill-rule="evenodd" clip-rule="evenodd" d="M424.746 158.586C422.569 161.46 419.279 162.28 415.127 163.446C404.549 166.422 392.885 156.121 386.79 151.777C388.211 151.793 400.854 154.678 402.366 154.289C408.115 152.815 411.256 144.106 413.072 136.967C413.418 140.427 414.754 146.405 415.409 149.605C415.441 149.749 415.712 150.765 416.005 151.857C416.974 155.461 420.769 157.574 424.741 158.586H424.746Z" fill="#ED944A"/>
<path fill-rule="evenodd" clip-rule="evenodd" d="M370.92 115.125C370.92 115.125 370.957 115.167 370.984 115.178C370.952 115.172 370.931 115.151 370.92 115.125Z" fill="#7F7F7E"/>
<path fill-rule="evenodd" clip-rule="evenodd" d="M373.151 116.716C373.081 116.769 373.017 116.817 372.948 116.876C372.954 116.844 373.028 116.791 373.151 116.716Z" fill="#7F7F7E"/>
<path fill-rule="evenodd" clip-rule="evenodd" d="M381.615 141.604C381.301 140.134 380.891 135.46 380.002 132.373C377.383 123.253 379.108 118.542 379.342 108.566C380.465 106.607 381.535 102.886 397.41 99.8141C399.821 98.2064 408.898 103.919 410.612 108.396C410.639 108.465 421.861 148.221 416.91 152.597C412.763 156.264 404.655 156.158 399.028 155.429C394.067 154.646 380.502 152.07 381.61 141.604H381.615Z" fill="#FFAF66"/>
<path fill-rule="evenodd" clip-rule="evenodd" d="M413.465 122.29C412.662 119.224 410.287 110.988 407.897 108.63C406.034 106.799 382.525 114.933 382.445 115.039C382.185 117.818 382.27 123.541 382.291 128.96C382.243 128.923 376.818 123.834 376.712 128.96C376.643 132.192 378.884 133.629 381.237 138.569C383.979 144.319 383.595 150.904 383.569 150.882C378.165 144.281 368.748 124.371 367.646 115.561C367.257 112.447 367.603 109.764 368.988 106.878C372.293 99.9738 395.041 99.5373 404.144 94.8952C412.874 102.556 416.51 118.973 413.46 122.29H413.465Z" fill="#272444"/>
<path fill-rule="evenodd" clip-rule="evenodd" d="M381.231 126.868C381.471 127.736 381.482 127.741 381.886 129.077C383.015 128.673 385.693 128.561 386.571 129.434C386.571 129.434 387.311 130.701 389.435 132.474C391.559 134.246 398.304 132.442 400.284 131.462C402.27 130.483 403.01 125.276 403.01 125.276C403.505 125.111 403.819 125.042 404.335 124.968C404.335 124.968 407.306 129.306 409.521 129.306C411.16 129.391 413.944 129.333 415.478 127.283C415.877 126.4 415.898 124.318 415.728 123.184C415.456 121.39 414.95 120.07 414.578 119.271C413.093 116.109 406.752 120.267 405.145 121.747C404.692 122.162 403.91 122.455 403.1 122.652C402.291 122.833 401.461 122.918 400.865 122.748C397.457 121.752 390.649 122.636 385.73 125.441C384.83 125.952 382.067 126.65 381.237 126.873L381.231 126.868ZM405.523 123.094C405.523 123.094 405.352 130.334 412.789 128.375C413.992 127.938 413.316 128.263 414.179 127.832C415.85 126.288 415.249 122.897 414.349 120.235C413.391 116.445 405.278 121.459 405.523 123.099V123.094ZM401.109 124.127C401.131 124.153 404.474 130.541 396.936 132.08C394.098 132.66 392.129 132.926 390.808 132.538C388.626 131.893 387.731 129.594 387.204 127.129C386.406 123.392 400.369 122.327 401.109 124.127Z" fill="#272444"/>
<path fill-rule="evenodd" clip-rule="evenodd" d="M382.525 133.017C382.935 135.742 383.574 137.739 383.638 139.016C383.686 140.012 383.377 140.576 382.344 140.709C379.975 141.023 378.671 137.398 376.696 133.437C372.224 125.122 379.124 126.245 380.236 126.804C381.823 127.592 381.876 129.008 382.27 130.169C382.589 131.1 382.398 132.144 382.525 133.017Z" fill="#FFAF66"/>
<path fill-rule="evenodd" clip-rule="evenodd" d="M378.139 127.555C379.161 127.416 381.36 130.227 380.252 131.92C379.96 132.367 379.433 133.363 380.055 134.561C380.684 135.758 381.402 135.817 381.578 136.866C382.275 140.959 380.343 137.866 379.337 136.775C378.091 135.428 377.186 132.431 377.111 131.244C377.037 130.057 377.074 127.699 378.139 127.55V127.555Z" fill="#ED944A"/>
<path fill-rule="evenodd" clip-rule="evenodd" d="M461.404 160.843C479.945 166.203 480.914 166.491 511.972 173.571C534.155 178.628 534.229 197.495 521.458 199.566C509.943 201.429 491.993 202.084 459.753 198.544C462.181 180.816 461.404 160.843 461.404 160.843Z" fill="#3B3B7F"/>
<path fill-rule="evenodd" clip-rule="evenodd" d="M426.604 241.281C428.616 262.58 426.817 299.248 411.128 257.597C410.606 256.218 383.93 169.557 382.828 165.586C382.828 165.57 382.818 165.554 382.812 165.538C384.351 162.163 383.547 164.372 385.006 159.118C385.006 159.118 385.006 159.107 385.011 159.102C385.011 159.102 385.016 159.113 385.022 159.118C385.453 159.938 385.921 160.726 386.422 161.487C390.265 167.364 396.004 171.559 401.189 173.869C403.436 173.3 408.424 171.649 410.67 171.08C414.716 165.538 417.059 153.166 417.144 152.815C417.958 153.576 420.194 156.126 421.11 156.973C421.147 157.004 421.184 157.042 421.216 157.068C424.889 183.457 423.766 193.721 422.185 217.953L426.604 241.291V241.281Z" fill="#FEFEFE"/>
<path fill-rule="evenodd" clip-rule="evenodd" d="M370.835 594.032L377.809 576.794L394.727 576.922C394.727 576.922 403.617 597.928 400.795 599.03C385.682 604.934 376.515 601.453 372.373 598.823C370.771 597.806 370.121 595.794 370.835 594.037V594.032Z" fill="#1D1D1B"/>
<path fill-rule="evenodd" clip-rule="evenodd" d="M465.279 568.926C466.317 572.402 478.987 582.671 482.053 585.636C487.744 591.13 487.063 590.71 491.306 594.452C492.227 597.14 492.216 597.604 493.424 600.872C489.07 601.681 486.738 602.208 481.968 602.432C472.982 600.851 469.346 600.052 467.43 599.568C462.042 596.15 458.603 592.844 458.603 592.844C456.107 592.706 449.857 592.275 446.056 592.014C444.39 580.627 447.541 568.388 447.541 568.388L465.279 568.926Z" fill="#1D1D1B"/>
<path fill-rule="evenodd" clip-rule="evenodd" d="M474.792 307.452L391.639 310.715L390.979 319.222L373.129 577.704C373.129 577.704 380.045 580.717 382.456 581.048C390.708 582.165 394.232 583.31 401.967 578.247C401.924 558.114 419.785 446.613 422.531 430.701C423.687 424.004 436.122 369.22 436.122 369.22L446.008 569.575C450.293 572.855 470.065 574.414 470.379 570.496C470.693 566.578 475.713 460.625 475.958 448.945C476.022 445.98 484.657 348.224 474.782 307.452H474.792Z" fill="#272444"/>
<path fill-rule="evenodd" clip-rule="evenodd" d="M383.068 164.596L340.145 188.088C390.851 283.906 386.172 346.936 386.172 346.936C386.172 346.936 417.463 347.309 426.78 335.123C434.967 324.412 436.804 301.963 426.982 273.861C407.067 216.857 403.713 221.594 383.063 164.596H383.068Z" fill="#3B3B7F"/>
<path fill-rule="evenodd" clip-rule="evenodd" d="M420.466 156.541L461.781 160.816C464.917 251.843 456.708 235.169 480.483 318.008C480.483 318.008 474.989 327.559 459.476 330.753C443.964 333.947 436.761 324.556 430.682 300.707C424.602 276.858 420.216 250.608 420.897 244.943C421.573 239.279 420.466 156.541 420.466 156.541Z" fill="#3B3B7F"/>
<path fill-rule="evenodd" clip-rule="evenodd" d="M431.741 157.856L440.008 171.08L429.825 182.094L437.512 189.845L421.818 256.873C421.019 251.135 420.668 246.86 420.897 244.943C421.573 239.279 420.466 156.541 420.466 156.541L431.746 157.856H431.741Z" fill="#312553"/>
<path fill-rule="evenodd" clip-rule="evenodd" d="M371.256 171.064L368.668 181.019L382.456 186.938L378.591 197.144L417.847 248.883C405.363 216.628 400.093 211.592 383.074 164.601L371.261 171.064H371.256Z" fill="#312553"/>
<path fill-rule="evenodd" clip-rule="evenodd" d="M523.374 128.439C524.498 111.643 521.154 108.513 519.307 95.1028C520.425 91.3125 523.55 92.6807 526.845 90.5885C529.076 89.1725 530.146 87.5115 531.45 87.2134C535.895 86.2073 538.999 92.2867 540.436 97.5091C540.718 98.5365 541.08 98.989 541.027 100.07C540.649 107.272 537.551 109.162 535.837 116.147C535.341 118.042 536.795 124.893 537.12 127.88C533.771 127.518 523.529 128.252 523.38 128.439H523.374Z" fill="#ED944A"/>
<path fill-rule="evenodd" clip-rule="evenodd" d="M531.424 117.696C531.189 119.362 531.349 126.373 531.322 127.89C527.766 127.725 524.413 128.3 521.687 128.172C522.661 121.151 523.587 112.835 522.603 110.647C520.771 106.463 518.919 104.1 518.493 99.7077C518.44 98.446 518.722 96.6893 520.021 92.9947C520.34 92.4784 523.454 89.8539 525.456 87.7724C528.144 89.2736 527.16 91.8129 525.169 93.921C523.752 95.6459 524.269 97.8498 526.271 99.186C534.384 104.605 531.706 116.972 531.424 117.696Z" fill="#FFAF66"/>
<path fill-rule="evenodd" clip-rule="evenodd" d="M521.234 123.376L521.788 115.423L539.632 117.68C539.632 117.68 539.073 126.144 538.466 128.252L521.229 123.376H521.234Z" fill="white"/>
<path fill-rule="evenodd" clip-rule="evenodd" d="M529.805 193.135C535.666 184.293 539.685 139.911 541.463 124.462L519.978 121.768L507.414 174.758C502.879 196.159 517.577 202.994 526.446 196.947L529.81 193.135H529.805Z" fill="#3B3B7F"/>
<path fill-rule="evenodd" clip-rule="evenodd" d="M397.399 142.482C403.414 142.402 410.143 140.762 415.93 137.733C415.93 137.733 414.402 144.627 410.585 146.464C405.831 148.748 397.399 142.487 397.399 142.487V142.482Z" fill="white"/>
<path fill-rule="evenodd" clip-rule="evenodd" d="M401.44 177.298L403.66 173.044L409.681 171.5L413.237 174.625L411.027 181.29C420.461 203.835 382.994 228.701 352.506 238.763L321.635 238.422C321.635 238.422 333.193 225.497 339.89 216.702C363.968 210.351 406.737 190.857 406.332 182.493L401.434 177.298H401.44Z" fill="#FFA21F"/>
<path d="M500.218 65.5461C512.925 79.1317 520.389 79.7545 522.193 84.4445C522.976 86.4674 523.737 89.8053 524.381 93.1378C524.967 92.994 525.552 92.845 526.143 92.6906C527.528 92.3286 528.901 91.9506 530.28 91.578C529.817 89.5071 528.826 87.1488 527.192 84.4498C514.134 63.9597 498.435 43.9487 493.308 18.2681L487.591 19.3062L488.506 24.0814C488.506 24.0814 478.062 23.3627 475.512 25.2206C472.797 27.201 473.212 32.4819 473.957 35.0584C474.969 38.556 484.663 53.2435 486.659 55.8627C489.646 59.7808 496.012 65.9613 500.218 65.5461ZM480.234 31.0285C480.899 28.9684 489.534 30.608 489.534 30.608C489.534 30.608 492.158 42.2132 497.184 56.1608C494.357 54.9843 488.906 48.4577 486.595 44.9708C484.428 41.7075 479.568 33.0941 480.234 31.0339V31.0285Z" fill="#ECAA20"/>
<path d="M530.28 91.578C530.945 91.397 531.611 91.216 532.271 91.035C531.754 87.8995 531.36 84.8012 531.376 82.7783C531.424 77.7582 538.185 74.5535 545.324 57.3745C549.407 56.2832 553.197 48.266 554.619 43.5494C555.572 40.3926 559.495 23.2349 559.213 19.6096C559.005 16.9372 557.547 11.8427 554.305 10.943C551.26 10.0966 541.736 14.4352 541.736 14.4352L540.916 9.64406L514.251 14.4725L493.303 18.2734C498.429 43.954 514.128 63.965 527.187 84.4552C528.816 87.1542 529.811 89.5125 530.274 91.5833L530.28 91.578ZM551.925 18.0339C553.272 19.7321 551.739 29.5007 550.86 33.3176C549.918 37.3954 547.107 45.418 544.871 47.5101C544.685 32.6841 543.072 20.8979 543.072 20.8979C543.072 20.8979 550.584 16.3304 551.93 18.0286L551.925 18.0339Z" fill="#ECAA20"/>
<path d="M539.077 9.425L486.625 19.0073C484.229 19.4438 481.908 17.8414 481.472 15.4459C481.035 13.0503 482.637 10.7293 485.033 10.2927L537.485 0.715762C539.881 0.279235 542.202 1.88161 542.639 4.27718C543.075 6.67275 541.473 8.9938 539.077 9.43032V9.425Z" fill="#ECAA20"/>
<path d="M536.736 98.3022C533.015 93.7826 530.364 82.8854 530.364 82.8854L527.644 84.525L523.22 80.4579C523.22 80.4579 525.802 95.3104 524.247 100.953C521.644 110.365 509.581 116.961 509.581 116.961L532.573 112.074L533.659 111.845L556.651 106.958C556.651 106.958 542.949 105.84 536.742 98.3022H536.736Z" fill="#ECAA20"/>
<path d="M558.427 106.56L507.798 117.322C507.076 117.475 506.615 118.185 506.769 118.907L510.425 136.111C510.579 136.833 511.288 137.294 512.01 137.14L562.64 126.379C563.361 126.225 563.822 125.516 563.669 124.794L560.012 107.589C559.858 106.868 559.149 106.407 558.427 106.56Z" fill="#45364C"/>
<path d="M535.927 87.8363L520.718 91.0676C518.934 91.4456 517.183 90.3064 516.805 88.5283C516.427 86.7449 517.566 84.9935 519.344 84.6155L534.553 81.3842C536.337 81.0062 538.088 82.1454 538.466 83.9235C538.844 85.7069 537.705 87.4583 535.927 87.8363Z" fill="#ECAA20"/>
<path d="M549.786 112.803L517.47 119.672C517.114 119.748 516.886 120.098 516.962 120.455L519.036 130.213C519.112 130.57 519.462 130.797 519.819 130.722L552.135 123.853C552.491 123.777 552.719 123.426 552.643 123.07L550.569 113.311C550.493 112.955 550.143 112.727 549.786 112.803Z" fill="#F6C009"/>
<g opacity="0.23">
<path d="M525.349 134.326L529.768 112.67L537.135 111.105L533.404 132.612L525.349 134.326Z" fill="white"/>
</g>
<g opacity="0.23">
<path d="M537.604 131.718L542.028 110.067L547.149 108.981L542.901 130.595L537.604 131.718Z" fill="white"/>
</g>
<path fill-rule="evenodd" clip-rule="evenodd" d="M541.458 95.2306C540.963 96.7531 540.095 98.4567 538.834 99.0955C535.735 100.724 534.703 100.73 533.169 100.74C532.547 100.746 531.897 100.07 531.093 99.5001C531.253 98.5844 531.524 97.5889 531.87 97.2535C532.099 97.03 532.956 96.6307 533.75 96.2421C533.356 96.3592 532.999 96.4604 532.701 96.5402C532.291 96.652 531.365 96.8064 530.561 96.3539C530.055 96.0717 529.448 95.5287 528.98 95.1614C529.209 93.8944 529.549 93.394 529.853 92.8297C529.746 92.8138 529.651 92.7818 529.555 92.7392C529.049 92.489 529.166 92.3187 528.357 91.5468C528.698 89.6676 528.746 89.6729 529.48 88.4538C532.77 86.6864 535.954 84.6954 537.689 84.5304C537.689 84.5304 539.132 85.3449 540.053 86.2712C540.031 87.0378 539.978 87.8203 539.717 89.1938C540.239 90.0881 540.558 90.2531 541.085 90.9878C540.856 91.8715 540.638 92.7126 539.808 94.0488C540.202 94.2724 541.506 95.0816 541.458 95.2359V95.2306Z" fill="#FFAF66"/>
<path fill-rule="evenodd" clip-rule="evenodd" d="M520.691 92.2761C520.691 92.2761 526.292 87.2134 526.217 86.9366C526.143 86.6598 528.336 87.9587 527.942 89.6196C527.548 91.2806 524.679 94.6929 524.679 94.6929L520.697 92.2761H520.691Z" fill="#FFAF66"/>
</g>
<defs>
<clipPath id="clip0_740_2230">
<rect width="750.4" height="717.639" fill="white" transform="translate(0 0.44043)"/>
</clipPath>
</defs>
</svg>
