<svg width="118" height="132" viewBox="0 0 118 132" fill="none" xmlns="http://www.w3.org/2000/svg">
<path d="M87.9609 65.6892C87.1001 66.2829 86.5182 66.5811 86.0687 67.0082C75.8655 76.7166 65.6749 86.4385 55.4843 96.159C52.5186 98.9877 52.5326 100.569 55.5392 103.435C58.2626 106.033 60.9734 108.642 63.7151 111.221C65.9693 113.342 67.9939 113.354 70.2341 111.221C85.1008 97.0656 99.9563 82.9006 114.805 68.7288C117.108 66.53 117.084 64.6308 114.741 62.3971C99.9309 48.267 85.1149 34.1422 70.2904 20.0255C67.9686 17.8146 65.9848 17.8294 63.6432 20.0376C60.8649 22.6608 58.1063 25.3028 55.3434 27.9408C52.6158 30.5439 52.6017 32.2967 55.2983 34.8689C65.5326 44.627 75.7697 54.3824 86.0138 64.1311C86.4675 64.5623 86.9958 64.9209 87.9609 65.6879V65.6892Z" stroke="white" stroke-miterlimit="10"/>
<path d="M1.00853 124.012C1.32835 122.916 1.77215 121.308 2.26668 119.714C14.131 81.4163 26.001 43.1199 37.8725 4.82343C38.0697 4.18542 38.2585 3.53802 38.5403 2.93359C39.3574 1.17807 40.8114 0.314412 42.7402 0.759C45.6228 1.42387 48.4899 2.19619 51.2852 3.13641C53.5606 3.90202 54.234 5.68574 53.4676 8.22165C52.2249 12.3317 50.9428 16.4298 49.672 20.5304C38.7305 55.845 27.7889 91.1596 16.8404 126.473C16.6093 127.217 16.3937 127.984 16.0176 128.662C15.23 130.078 13.8718 130.888 12.2586 130.519C9.20552 129.82 6.18765 128.95 3.21769 127.975C1.60027 127.444 0.914133 126.121 1.00853 124.011V124.012Z" stroke="white" stroke-miterlimit="10"/>
</svg>
