<svg width="369" height="368" viewBox="0 0 369 368" fill="none" xmlns="http://www.w3.org/2000/svg">
<g style="mix-blend-mode:luminosity" opacity="0.5">
<g filter="url(#filter0_d_539_480)">
<rect x="15.6504" y="11.2217" width="337.65" height="336.948" rx="25" fill="white"/>
<rect x="16.6504" y="12.2217" width="335.65" height="334.948" rx="24" stroke="#F5AF02" stroke-width="2"/>
</g>
<path d="M264.351 179.696C264.351 225.555 227.175 262.731 181.316 262.731C135.457 262.731 98.2812 225.555 98.2812 179.696C98.2812 133.837 135.457 96.6606 181.316 96.6606C227.175 96.6606 264.351 133.837 264.351 179.696Z" fill="#F5AF02" stroke="#F5AF02"/>
<g clip-path="url(#clip0_539_480)">
<path d="M154.117 222.042H151.559V190.396H149.395V186.924H146.555V184.954H216.415V186.9H213.585V190.385H211.463V222.032H208.883V217.283C208.699 217.274 208.551 217.261 208.403 217.261C190.454 217.26 172.506 217.261 154.557 217.253C154.208 217.253 154.105 217.348 154.11 217.699C154.128 219.128 154.117 220.557 154.117 222.042H154.117Z" fill="white"/>
<path d="M192.183 167.98H170.858C170.847 167.857 170.815 167.746 170.831 167.644C170.957 166.863 170.626 166.281 170.148 165.678C163.824 157.689 157.537 149.671 151.201 141.691C149.644 139.73 150.537 137.17 152.59 136.524C153.851 136.128 155.174 136.508 156.022 137.575C158.306 140.451 160.575 143.338 162.848 146.223C166.936 151.407 171.024 156.591 175.106 161.78C175.26 161.977 175.413 162.057 175.664 162.056C179.548 162.048 183.432 162.047 187.316 162.058C187.59 162.058 187.749 161.958 187.908 161.756C192.529 155.886 197.155 150.02 201.778 144.153C203.479 141.995 205.175 139.834 206.878 137.679C207.694 136.646 208.756 136.18 210.063 136.445C211.366 136.71 212.195 137.53 212.513 138.814C212.767 139.844 212.497 140.775 211.839 141.608C208.841 145.403 205.851 149.203 202.857 153C199.369 157.425 195.879 161.849 192.399 166.28C192.273 166.44 192.212 166.678 192.192 166.887C192.158 167.231 192.182 167.581 192.182 167.978L192.183 167.98Z" fill="white"/>
<path d="M193.044 182.543H169.938V169.184H193.044V182.543ZM182.459 176.674C182.467 176.113 182.041 175.67 181.497 175.671C180.985 175.672 180.53 176.118 180.515 176.631C180.499 177.17 180.94 177.615 181.494 177.617C182.038 177.618 182.452 177.213 182.459 176.673V176.674Z" fill="white"/>
<path d="M181.534 142.064C186.501 142.128 190.42 146.101 190.367 151.017C190.314 155.954 186.304 159.896 181.393 159.837C176.473 159.777 172.549 155.727 172.61 150.772C172.669 145.968 176.733 142.003 181.534 142.064ZM176.049 153.558C176.869 155.142 179.06 156.692 181.59 156.62C183.903 156.556 185.684 155.516 187.011 153.558H176.049Z" fill="white"/>
<path d="M162.116 218.438H171.549C171.411 220.362 169.318 222.252 167.222 222.358C164.704 222.485 162.536 220.841 162.117 218.438H162.116Z" fill="white"/>
<path d="M191.463 218.444H200.82C200.98 220.11 198.597 222.268 196.502 222.358C193.985 222.468 191.464 220.52 191.463 218.444Z" fill="white"/>
</g>
<rect x="147.055" y="136.871" width="68.8604" height="84.9931" stroke="#F5AF02"/>
</g>
<defs>
<filter id="filter0_d_539_480" x="0.650391" y="0.22168" width="367.65" height="366.948" filterUnits="userSpaceOnUse" color-interpolation-filters="sRGB">
<feFlood flood-opacity="0" result="BackgroundImageFix"/>
<feColorMatrix in="SourceAlpha" type="matrix" values="0 0 0 0 0 0 0 0 0 0 0 0 0 0 0 0 0 0 127 0" result="hardAlpha"/>
<feOffset dy="4"/>
<feGaussianBlur stdDeviation="7.5"/>
<feComposite in2="hardAlpha" operator="out"/>
<feColorMatrix type="matrix" values="0 0 0 0 0 0 0 0 0 0 0 0 0 0 0 0 0 0 0.25 0"/>
<feBlend mode="normal" in2="BackgroundImageFix" result="effect1_dropShadow_539_480"/>
<feBlend mode="normal" in="SourceGraphic" in2="effect1_dropShadow_539_480" result="shape"/>
</filter>
<clipPath id="clip0_539_480">
<rect x="146.555" y="136.371" width="69.8604" height="85.9931" fill="white"/>
</clipPath>
</defs>
</svg>
