<svg width="368" height="368" viewBox="0 0 368 368" fill="none" xmlns="http://www.w3.org/2000/svg">
<g style="mix-blend-mode:luminosity" opacity="0.5">
<g filter="url(#filter0_d_539_288)">
<rect x="15.3496" y="11.127" width="337.65" height="336.948" rx="25" fill="white"/>
<rect x="16.3496" y="12.127" width="335.65" height="334.948" rx="24" stroke="#F5AF02" stroke-width="2"/>
</g>
<circle cx="181.017" cy="179.601" r="83.5351" fill="#F5AF02"/>
<g clip-path="url(#clip0_539_288)">
<path d="M181.181 148.411C181.663 149.678 182.134 150.864 182.567 152.063C183.219 153.868 183.889 155.669 184.457 157.501C184.661 158.16 184.728 158.928 184.613 159.604C184.379 160.98 182.755 161.544 181.641 160.688C180.147 159.541 179.097 158.049 178.422 156.301C178.219 155.773 177.949 155.348 177.521 154.962C176.501 154.039 175.814 152.867 175.268 151.614C175.151 151.344 175.002 151.176 174.714 151.064C173.235 150.488 171.952 149.629 170.966 148.362C170.898 148.275 170.798 148.181 170.697 148.159C169.551 147.899 168.402 147.652 167.171 147.385C166.984 148.464 166.798 149.565 166.597 150.665C166.502 151.189 166.744 151.54 167.153 151.799C168.285 152.515 169.44 153.195 170.558 153.933C172.004 154.887 173.486 155.801 174.836 156.877C176.528 158.224 176.987 160.358 176.209 162.38C175.801 163.443 174.682 163.778 173.646 163.192C171.543 162.003 169.458 160.777 167.306 159.682C164.877 158.444 162.322 157.528 159.648 156.925C156.569 156.23 153.845 154.755 151.416 152.762C149.535 151.218 147.453 150.148 145.03 149.848C143.847 149.702 142.648 149.665 141.455 149.625C140.406 149.589 139.355 149.618 138.304 149.617C137.605 149.615 137.367 149.373 137.367 148.662C137.364 144.503 137.364 140.346 137.365 136.188C137.366 135.382 137.762 135.098 138.52 135.369C142.401 136.76 146.391 137.758 150.378 138.788C153.875 139.691 157.284 139.362 160.69 138.468C162.617 137.962 164.506 137.315 166.435 136.826C168.454 136.313 170.521 136.055 172.575 136.599C174.462 137.099 176.364 137.004 178.266 136.89C181.933 136.671 185.567 136.148 189.191 135.554C189.767 135.46 190.267 135.611 190.615 136.107C190.959 136.599 190.939 137.112 190.67 137.634C190.24 138.466 189.541 139.027 188.708 139.555C189.666 139.891 190.567 140.208 191.47 140.521C192.912 141.021 194.358 141.511 195.798 142.02C197.052 142.464 197.302 143.614 196.339 144.546C195.36 145.494 194.123 145.731 192.848 145.53C191.112 145.255 189.397 144.845 187.673 144.495C187.618 144.483 187.562 144.478 187.472 144.529C187.987 144.896 188.501 145.264 189.016 145.631C191.142 147.143 193.27 148.653 195.395 150.167C196.433 150.907 196.354 152.104 195.223 152.688C193.917 153.362 192.577 153.254 191.232 152.821C190.085 152.451 189.05 151.863 188.072 151.166C187.874 151.025 187.649 150.91 187.422 150.822C185.54 150.084 183.653 149.355 181.769 148.624C181.599 148.558 181.427 148.5 181.18 148.411H181.181Z" fill="white"/>
<path d="M178.811 205.938C178.597 206.613 178.379 207.259 178.195 207.916C178.165 208.022 178.257 208.215 178.352 208.294C178.933 208.781 179.532 209.248 180.124 209.721C180.592 210.094 180.651 210.362 180.37 210.892C180.003 211.588 179.634 212.283 179.259 212.974C179 213.452 178.732 213.562 178.212 213.399C177.476 213.171 176.747 212.918 176.006 212.709C175.872 212.671 175.641 212.746 175.544 212.851C175.168 213.257 174.84 213.706 174.47 214.118C174.304 214.302 174.29 214.436 174.414 214.649C174.802 215.316 175.171 215.995 175.538 216.674C175.792 217.143 175.742 217.418 175.346 217.748C174.718 218.27 174.087 218.788 173.451 219.3C173.038 219.634 172.769 219.635 172.359 219.299C171.763 218.807 171.164 218.317 170.588 217.802C170.383 217.619 170.239 217.63 170.02 217.761C169.57 218.029 169.113 218.289 168.636 218.506C168.366 218.628 168.319 218.782 168.354 219.046C168.452 219.797 168.539 220.55 168.61 221.304C168.662 221.85 168.527 222.046 168.005 222.207C167.214 222.452 166.418 222.687 165.623 222.919C165.177 223.048 164.91 222.935 164.687 222.514C164.326 221.832 163.966 221.148 163.628 220.455C163.514 220.222 163.384 220.14 163.123 220.175C162.489 220.261 161.851 220.318 161.177 220.39C160.944 221.191 160.707 222.012 160.466 222.833C160.297 223.407 160.12 223.55 159.523 223.503C158.681 223.436 157.84 223.339 157 223.249C156.588 223.205 156.387 222.956 156.353 222.554C156.292 221.799 156.217 221.044 156.174 220.288C156.155 219.962 156.034 219.807 155.705 219.734C155.238 219.632 154.775 219.489 154.331 219.311C154.025 219.188 153.866 219.267 153.682 219.514C153.245 220.098 152.78 220.659 152.322 221.228C151.962 221.675 151.693 221.732 151.183 221.464C150.474 221.091 149.767 220.715 149.064 220.333C148.612 220.088 148.502 219.814 148.654 219.321C148.882 218.584 149.105 217.846 149.363 217.12C149.457 216.857 149.383 216.731 149.183 216.58C148.776 216.272 148.375 215.954 148.001 215.607C147.789 215.409 147.639 215.363 147.37 215.524C146.72 215.913 146.048 216.262 145.38 216.618C144.911 216.868 144.656 216.822 144.31 216.412C143.773 215.777 143.251 215.13 142.722 214.49C142.434 214.141 142.456 213.801 142.741 213.464C143.249 212.862 143.748 212.252 144.269 211.663C144.433 211.477 144.446 211.347 144.317 211.133C144.046 210.686 143.794 210.223 143.574 209.749C143.449 209.477 143.31 209.398 143.008 209.441C142.273 209.547 141.532 209.617 140.792 209.682C140.213 209.734 140.023 209.603 139.856 209.065C139.617 208.302 139.387 207.535 139.161 206.769C139.005 206.241 139.112 205.991 139.604 205.735C140.275 205.384 140.944 205.029 141.626 204.701C141.869 204.583 141.924 204.443 141.888 204.188C141.817 203.699 141.744 203.204 141.744 202.712C141.744 202.371 141.634 202.226 141.312 202.143C140.594 201.958 139.884 201.741 139.173 201.53C138.654 201.377 138.505 201.138 138.558 200.589C138.63 199.835 138.698 199.08 138.765 198.326C138.824 197.669 139.036 197.471 139.699 197.423C140.425 197.371 141.152 197.314 141.876 197.235C142.008 197.221 142.205 197.121 142.24 197.017C142.462 196.358 142.646 195.687 142.848 195.002C142.189 194.479 141.527 193.956 140.867 193.429C140.36 193.025 140.31 192.795 140.612 192.23C140.969 191.563 141.331 190.897 141.695 190.233C142.002 189.67 142.232 189.578 142.831 189.767C143.552 189.996 144.269 190.234 144.995 190.445C145.115 190.48 145.324 190.445 145.398 190.361C145.845 189.845 146.264 189.305 146.705 188.758C146.295 188.013 145.878 187.263 145.467 186.509C145.189 185.998 145.237 185.744 145.684 185.37C146.266 184.884 146.851 184.402 147.439 183.922C147.971 183.489 148.178 183.489 148.696 183.919C149.28 184.403 149.852 184.901 150.448 185.37C150.548 185.449 150.771 185.466 150.889 185.41C151.401 185.167 151.89 184.877 152.398 184.622C152.593 184.524 152.667 184.427 152.633 184.188C152.519 183.395 152.439 182.597 152.351 181.802C152.308 181.405 152.467 181.107 152.852 180.983C153.696 180.712 154.545 180.452 155.398 180.208C155.799 180.093 156.105 180.244 156.3 180.627C156.655 181.329 157.032 182.019 157.375 182.726C157.485 182.954 157.618 183.01 157.851 182.982C158.414 182.914 158.983 182.881 159.544 182.797C159.667 182.779 159.824 182.623 159.865 182.497C160.1 181.763 160.301 181.018 160.523 180.28C160.682 179.749 160.866 179.609 161.408 179.65C162.207 179.711 163.006 179.781 163.802 179.873C164.44 179.947 164.606 180.158 164.653 180.814C164.713 181.627 164.783 182.44 164.851 183.265C165.535 183.481 166.208 183.703 166.89 183.893C166.978 183.918 167.143 183.801 167.22 183.708C167.705 183.124 168.171 182.526 168.65 181.938C169.047 181.452 169.268 181.407 169.818 181.697C170.513 182.065 171.206 182.435 171.897 182.811C172.38 183.074 172.483 183.331 172.318 183.857C172.092 184.58 171.867 185.302 171.618 186.016C171.531 186.264 171.571 186.405 171.783 186.564C172.294 186.95 172.783 187.366 173.303 187.788C174.04 187.382 174.789 186.967 175.542 186.555C176.075 186.263 176.327 186.308 176.717 186.777C177.23 187.394 177.737 188.015 178.24 188.64C178.555 189.031 178.552 189.298 178.225 189.693C177.761 190.255 177.296 190.818 176.81 191.361C176.579 191.62 176.502 191.818 176.726 192.145C177.012 192.563 177.226 193.032 177.447 193.491C177.545 193.696 177.652 193.758 177.881 193.727C178.661 193.624 179.443 193.545 180.225 193.46C180.711 193.407 180.963 193.566 181.11 194.036C181.349 194.8 181.581 195.565 181.809 196.332C181.984 196.92 181.887 197.148 181.347 197.429C180.688 197.772 180.032 198.12 179.365 198.446C179.137 198.557 179.048 198.674 179.089 198.944C179.174 199.505 179.195 200.077 179.28 200.637C179.299 200.76 179.455 200.92 179.58 200.96C180.313 201.196 181.058 201.395 181.796 201.618C182.321 201.777 182.469 201.972 182.423 202.507C182.352 203.363 182.261 204.219 182.163 205.073C182.115 205.491 181.835 205.69 181.321 205.729C180.493 205.793 179.666 205.863 178.808 205.933L178.811 205.938ZM147.498 201.592C147.489 208.739 153.327 214.575 160.495 214.587C167.622 214.598 173.477 208.749 173.507 201.586C173.537 194.466 167.667 188.59 160.514 188.581C153.327 188.571 147.509 194.388 147.499 201.592H147.498Z" fill="white"/>
<path d="M225.238 202.189C225.238 202.758 225.245 203.328 225.236 203.896C225.228 204.375 225.012 204.617 224.537 204.688C223.558 204.837 222.58 204.99 221.598 205.114C221.345 205.147 221.26 205.244 221.208 205.48C220.834 207.188 220.184 208.786 219.233 210.255C219.084 210.486 219.081 210.641 219.257 210.865C219.85 211.623 220.419 212.399 220.99 213.174C221.316 213.617 221.298 213.896 220.907 214.292C220.118 215.092 219.322 215.886 218.522 216.674C218.139 217.051 217.839 217.064 217.398 216.738C216.625 216.165 215.851 215.593 215.092 215.002C214.882 214.839 214.739 214.84 214.518 214.982C213.046 215.926 211.457 216.594 209.744 216.956C209.501 217.008 209.39 217.111 209.356 217.376C209.24 218.315 209.087 219.25 208.957 220.186C208.876 220.769 208.658 220.977 208.073 220.978C206.964 220.982 205.855 220.982 204.746 220.978C204.168 220.977 203.97 220.797 203.885 220.224C203.743 219.259 203.608 218.293 203.446 217.331C203.424 217.203 203.277 217.023 203.159 216.997C201.395 216.596 199.751 215.917 198.219 214.952C198.112 214.885 197.859 214.937 197.738 215.023C196.979 215.566 196.239 216.135 195.49 216.692C194.96 217.086 194.693 217.068 194.234 216.61C193.481 215.857 192.727 215.105 191.975 214.35C191.512 213.885 191.494 213.634 191.894 213.097C192.45 212.348 193.004 211.597 193.576 210.859C193.734 210.654 193.746 210.506 193.603 210.283C192.651 208.798 191.981 207.195 191.617 205.467C191.569 205.236 191.465 205.144 191.212 205.113C190.23 204.992 189.252 204.836 188.273 204.69C187.82 204.623 187.607 204.388 187.605 203.927C187.599 202.76 187.599 201.593 187.605 200.425C187.606 199.956 187.825 199.709 188.307 199.638C189.2 199.506 190.094 199.373 190.99 199.269C191.381 199.224 191.57 199.101 191.665 198.667C192.025 197.036 192.665 195.506 193.575 194.099C193.738 193.847 193.737 193.684 193.554 193.45C192.979 192.715 192.426 191.963 191.869 191.216C191.505 190.729 191.522 190.454 191.945 190.028C192.726 189.241 193.509 188.456 194.297 187.676C194.689 187.287 194.964 187.267 195.412 187.597C196.187 188.167 196.962 188.737 197.722 189.327C197.928 189.487 198.073 189.506 198.296 189.362C199.79 188.396 201.413 187.737 203.151 187.349C203.272 187.322 203.425 187.144 203.446 187.016C203.61 186.04 203.744 185.059 203.888 184.08C203.965 183.563 204.204 183.347 204.739 183.345C205.848 183.339 206.957 183.34 208.066 183.345C208.638 183.347 208.877 183.574 208.956 184.146C209.083 185.068 209.221 185.99 209.343 186.914C209.38 187.189 209.472 187.322 209.782 187.391C211.46 187.758 213.034 188.396 214.475 189.333C214.746 189.51 214.916 189.481 215.155 189.294C215.891 188.72 216.643 188.168 217.394 187.614C217.869 187.264 218.127 187.282 218.541 187.691C219.329 188.472 220.113 189.255 220.894 190.042C221.3 190.452 221.32 190.721 220.973 191.191C220.402 191.966 219.827 192.738 219.24 193.5C219.094 193.69 219.074 193.83 219.209 194.038C220.179 195.53 220.837 197.154 221.232 198.889C221.262 199.02 221.458 199.184 221.597 199.207C222.53 199.365 223.467 199.495 224.405 199.624C225.029 199.709 225.236 199.934 225.238 200.572C225.241 201.111 225.238 201.651 225.238 202.191V202.189ZM206.392 211.884C211.717 211.903 216.123 207.556 216.143 202.262C216.163 196.907 211.84 192.457 206.593 192.433C201.063 192.407 196.697 196.689 196.685 202.149C196.672 207.531 200.995 211.865 206.393 211.884H206.392Z" fill="white"/>
<path d="M178.395 167.278C177.949 166.701 177.504 166.144 177.08 165.57C176.575 164.885 176.593 164.582 177.194 163.974C177.758 163.403 178.34 162.851 178.924 162.301C179.263 161.981 179.555 161.968 179.943 162.252C180.601 162.734 181.251 163.227 181.881 163.698C182.659 163.323 183.403 162.931 184.175 162.602C184.681 162.387 185.221 162.244 185.754 162.106C185.996 162.043 186.118 161.975 186.15 161.697C186.231 160.974 186.364 160.258 186.464 159.537C186.525 159.106 186.776 158.874 187.192 158.867C188.14 158.85 189.088 158.85 190.036 158.87C190.455 158.878 190.695 159.127 190.754 159.552C190.856 160.287 190.962 161.023 191.086 161.754C191.105 161.867 191.21 162.032 191.305 162.055C192.717 162.397 194.037 162.951 195.274 163.743C195.927 163.254 196.568 162.773 197.211 162.298C197.675 161.954 197.955 161.97 198.362 162.373C198.964 162.967 199.562 163.566 200.157 164.168C200.588 164.603 200.603 164.89 200.228 165.393C199.766 166.012 199.301 166.629 198.826 167.263C199.056 167.681 199.326 168.081 199.504 168.519C199.849 169.366 200.166 170.226 200.442 171.097C200.529 171.372 200.642 171.478 200.904 171.511C201.568 171.594 202.231 171.691 202.895 171.783C203.488 171.866 203.697 172.105 203.699 172.716C203.702 173.547 203.702 174.379 203.699 175.21C203.696 175.783 203.518 176.009 202.958 176.102C202.254 176.22 201.544 176.298 200.841 176.422C200.707 176.446 200.514 176.583 200.487 176.7C200.159 178.09 199.599 179.377 198.815 180.612C199.278 181.236 199.746 181.865 200.214 182.495C200.608 183.025 200.596 183.29 200.14 183.75C199.544 184.351 198.948 184.95 198.343 185.544C197.95 185.929 197.668 185.944 197.224 185.616C196.661 185.201 196.097 184.786 195.546 184.354C195.361 184.211 195.222 184.176 195.008 184.311C193.891 185.015 192.687 185.519 191.395 185.801C191.178 185.848 191.096 185.958 191.068 186.178C190.978 186.885 190.863 187.59 190.757 188.295C190.678 188.82 190.469 189.02 189.96 189.024C189.055 189.031 188.151 189.031 187.247 189.024C186.76 189.021 186.544 188.825 186.466 188.327C186.341 187.522 186.224 186.716 186.116 185.996C185.068 185.586 184.069 185.202 183.076 184.803C182.848 184.711 182.612 184.602 182.427 184.446C182.084 184.156 181.816 184.202 181.486 184.484C181.01 184.89 180.493 185.249 179.988 185.619C179.541 185.946 179.265 185.927 178.87 185.538C178.246 184.924 177.628 184.304 177.014 183.681C176.646 183.306 176.632 182.994 176.954 182.558C177.37 181.995 177.783 181.43 178.215 180.88C178.364 180.69 178.378 180.554 178.245 180.344C177.546 179.24 177.05 178.047 176.763 176.773C176.703 176.509 176.583 176.426 176.327 176.397C175.633 176.317 174.94 176.215 174.252 176.098C173.705 176.006 173.525 175.784 173.522 175.245C173.517 174.384 173.517 173.524 173.522 172.663C173.526 172.091 173.753 171.856 174.329 171.781C175.007 171.692 175.686 171.603 176.361 171.49C176.494 171.467 176.694 171.353 176.718 171.248C177.046 169.829 177.618 168.516 178.399 167.277L178.395 167.278ZM188.602 181.519C192.779 181.516 196.18 178.133 196.185 173.974C196.19 169.776 192.76 166.343 188.571 166.355C184.407 166.366 181.022 169.769 181.025 173.939C181.029 178.153 184.396 181.521 188.602 181.519Z" fill="white"/>
<path d="M162.834 200.828C163.673 201.093 164.386 201.294 165.08 201.546C165.46 201.684 165.823 201.883 166.166 202.101C167.043 202.659 167.578 203.448 167.607 204.51C167.637 205.646 167.657 206.785 167.621 207.921C167.591 208.849 166.856 209.507 165.921 209.509C162.304 209.514 158.687 209.514 155.07 209.509C154.1 209.507 153.392 208.849 153.371 207.888C153.347 206.693 153.345 205.496 153.393 204.303C153.431 203.363 153.951 202.67 154.713 202.15C155.597 201.546 156.62 201.304 157.627 201.019C157.773 200.977 157.981 200.882 158.013 200.77C158.079 200.541 158.044 200.321 157.795 200.128C156.272 198.949 155.635 197.378 156.056 195.501C156.493 193.559 157.771 192.372 159.73 191.966C162.246 191.443 164.903 193.547 165.02 196.11C165.097 197.8 164.475 199.137 163.144 200.176C162.979 200.305 162.939 200.597 162.834 200.829V200.828Z" fill="white"/>
<path d="M208.278 201.833C208.848 202.001 209.273 202.1 209.677 202.251C210.631 202.605 211.599 203.07 211.759 204.166C211.922 205.277 211.877 206.43 211.82 207.559C211.789 208.155 211.138 208.612 210.49 208.616C207.777 208.628 205.063 208.631 202.35 208.616C201.589 208.612 200.978 208.038 200.945 207.266C200.908 206.365 200.932 205.459 200.976 204.556C201.018 203.676 201.504 203.045 202.279 202.677C202.854 202.404 203.471 202.219 204.069 201.997C204.186 201.954 204.306 201.918 204.535 201.841C203.233 200.793 202.601 199.539 202.954 197.934C203.132 197.125 203.57 196.459 204.221 195.945C205.565 194.882 207.375 194.903 208.689 196.011C209.606 196.785 210.028 197.791 209.96 198.99C209.895 200.168 209.277 201.054 208.279 201.832L208.278 201.833Z" fill="white"/>
<path d="M186.722 173.106C185.201 171.473 185.105 169.72 186.475 168.385C187.679 167.211 189.581 167.248 190.798 168.457C191.79 169.443 192.299 171.491 190.452 173.121C190.894 173.283 191.347 173.418 191.775 173.609C192.79 174.062 193.348 174.818 193.297 175.972C193.272 176.525 193.302 177.08 193.289 177.634C193.269 178.416 192.736 178.953 191.958 178.956C189.713 178.963 187.467 178.963 185.222 178.954C184.485 178.951 183.948 178.426 183.931 177.695C183.914 176.966 183.913 176.236 183.938 175.508C183.963 174.782 184.315 174.215 184.952 173.881C185.523 173.582 186.134 173.36 186.723 173.105L186.722 173.106Z" fill="white"/>
</g>
</g>
<defs>
<filter id="filter0_d_539_288" x="0.349609" y="0.126953" width="367.65" height="366.948" filterUnits="userSpaceOnUse" color-interpolation-filters="sRGB">
<feFlood flood-opacity="0" result="BackgroundImageFix"/>
<feColorMatrix in="SourceAlpha" type="matrix" values="0 0 0 0 0 0 0 0 0 0 0 0 0 0 0 0 0 0 127 0" result="hardAlpha"/>
<feOffset dy="4"/>
<feGaussianBlur stdDeviation="7.5"/>
<feComposite in2="hardAlpha" operator="out"/>
<feColorMatrix type="matrix" values="0 0 0 0 0 0 0 0 0 0 0 0 0 0 0 0 0 0 0.25 0"/>
<feBlend mode="normal" in2="BackgroundImageFix" result="effect1_dropShadow_539_288"/>
<feBlend mode="normal" in="SourceGraphic" in2="effect1_dropShadow_539_288" result="shape"/>
</filter>
<clipPath id="clip0_539_288">
<rect width="87.8769" height="88.244" fill="white" transform="translate(137.363 135.27)"/>
</clipPath>
</defs>
</svg>
