<svg width="66" height="56" viewBox="0 0 66 56" fill="none" xmlns="http://www.w3.org/2000/svg">
<g clip-path="url(#clip0_705_8500)">
<path d="M65.3807 9.48613V52.9063C65.3622 52.9305 65.3335 52.9523 65.3258 52.9791C64.8638 54.716 63.555 55.7283 61.7784 55.7283C55.5969 55.727 49.4148 55.7283 43.2332 55.7283C29.9545 55.7283 16.6763 55.7309 3.39754 55.7206C2.97002 55.7206 2.52076 55.6548 2.11944 55.5129C0.803003 55.0464 0.00227575 53.8124 0.00227575 52.3381C0.00227575 36.0686 0.00227575 19.7985 0.00227575 3.52892C0.00227575 3.40111 -0.00347569 3.27266 0.00611003 3.14613C0.098133 1.97348 0.594034 1.05005 1.66955 0.497917C2.23191 0.209067 2.84157 0.148357 3.46592 0.148996C7.24333 0.154109 11.0201 0.157943 14.7975 0.147718C15.8468 0.145162 16.7211 0.513893 17.456 1.25008C19.1923 2.98957 20.933 4.72458 22.6661 6.46791C22.8208 6.62319 22.9735 6.68582 23.1933 6.68582C30.343 6.68007 37.4933 6.68135 44.643 6.68135C50.4309 6.68135 56.2193 6.68071 62.0072 6.68263C63.4917 6.68263 64.7283 7.53703 65.2012 8.88031C65.2708 9.07906 65.3213 9.28419 65.3807 9.48677V9.48613ZM22.8943 29.4653C22.275 29.6519 21.7056 29.7401 21.2168 29.9868C20.0441 30.5786 19.6223 31.6458 19.6191 32.8945C19.6096 37.2144 19.614 41.535 19.6179 45.855C19.6179 46.4672 19.7169 47.0641 20.0198 47.6073C20.6672 48.7671 21.7229 49.1864 22.9824 49.1876C29.4624 49.1934 35.9423 49.1921 42.4217 49.1876C43.2249 49.1876 43.9848 49.0138 44.6277 48.493C45.4738 47.8073 45.7632 46.8749 45.7652 45.8333C45.7709 41.5344 45.7696 37.2355 45.7652 32.9366C45.7645 32.2139 45.6342 31.5167 45.2117 30.9083C44.5299 29.9261 43.5496 29.5842 42.3967 29.5855C38.2046 29.5919 34.0124 29.5874 29.8203 29.5874C29.6963 29.5874 29.573 29.5874 29.4496 29.5874C29.4368 29.503 29.4247 29.4615 29.4247 29.42C29.4285 27.1641 29.4202 24.9083 29.4451 22.6524C29.4528 21.9782 29.711 21.3635 30.1545 20.8459C30.9124 19.962 31.9151 19.7109 33.0276 19.7716C34.3351 19.8432 35.4234 20.6439 35.7781 21.8792C35.9315 22.4128 35.936 22.9892 36.0031 23.5471C36.0861 24.2437 36.3424 24.8623 36.837 25.3658C37.6045 26.1474 38.5701 26.3481 39.6188 26.2797C41.0279 26.1877 42.1635 25.2374 42.3852 23.8423C42.4932 23.1611 42.4728 22.4403 42.3923 21.7507C42.0702 18.9932 40.8106 16.7374 38.5548 15.1091C35.8995 13.1926 32.9356 12.7728 29.8177 13.6463C25.7668 14.7806 23.1384 18.282 22.9371 22.2818C22.822 24.5747 22.9013 26.8772 22.893 29.1758C22.893 29.3011 22.893 29.4264 22.893 29.4641L22.8943 29.4653Z" fill="#FE655B"/>
</g>
<defs>
<clipPath id="clip0_705_8500">
<rect width="65.3804" height="55.5806" fill="white" transform="translate(0 0.147705)"/>
</clipPath>
</defs>
</svg>
