<svg width="126" height="132" viewBox="0 0 126 132" fill="none" xmlns="http://www.w3.org/2000/svg">
<path d="M29.2784 66.2404C30.1392 66.834 30.7211 67.1322 31.1705 67.5593C41.3738 77.2678 51.5644 86.9896 61.755 96.7101C64.7207 99.5389 64.7066 101.12 61.7 103.986C58.9766 106.584 56.2659 109.194 53.5242 111.772C51.2699 113.893 49.2453 113.905 47.0052 111.772C32.1384 97.6168 17.283 83.4517 2.43455 69.2799C0.130991 67.0812 0.154943 65.1819 2.49795 62.9483C17.3083 48.8181 32.1243 34.6933 46.9488 20.5766C49.2707 18.3658 51.2544 18.3806 53.596 20.5887C56.3744 23.2119 59.133 25.854 61.8959 28.4919C64.6235 31.095 64.6376 32.8478 61.9409 35.42C51.7067 45.1781 41.4696 54.9336 31.2255 64.6823C30.7718 65.1134 30.2435 65.4721 29.2784 66.239V66.2404Z" stroke="#9B87FF" stroke-miterlimit="10"/>
<path d="M72.7322 124.117C73.052 123.021 73.4958 121.413 73.9903 119.819C85.8547 81.5208 97.7247 43.2244 109.596 4.92792C109.793 4.28992 109.982 3.64251 110.264 3.03808C111.081 1.28256 112.535 0.418904 114.464 0.863493C117.346 1.52836 120.214 2.30068 123.009 3.2409C125.284 4.00651 125.958 5.79024 125.191 8.32614C123.949 12.4362 122.666 16.5342 121.396 20.6349C110.454 55.9495 99.5126 91.2641 88.564 126.577C88.3329 127.322 88.1174 128.088 87.7412 128.767C86.9536 130.182 85.5954 130.992 83.9822 130.623C80.9292 129.925 77.9113 129.054 74.9413 128.079C73.3239 127.548 72.6378 126.225 72.7322 124.115V124.117Z" stroke="#9B87FF" stroke-miterlimit="10"/>
</svg>
