<svg width="213" height="213" viewBox="0 0 213 213" fill="none" xmlns="http://www.w3.org/2000/svg">
<circle cx="106.108" cy="106.46" r="106.108" fill="#F5AF02"/>
<g clip-path="url(#clip0_740_2106)">
<path d="M46.8711 106.41C46.9326 73.7817 73.2844 47.5318 105.906 47.6038C138.318 47.6757 164.624 74.0786 164.555 106.468C164.485 139.074 138.151 165.338 105.587 165.277C73.1275 165.215 46.8122 138.832 46.8724 106.41H46.8711ZM69.1606 97.5243C67.2353 97.5243 65.2774 97.5034 63.3194 97.5282C58.4684 97.5884 54.6571 101.398 54.5721 106.248C54.4871 111.087 58.2814 115.084 63.1272 115.219C64.9112 115.269 66.6978 115.257 68.4831 115.224C69.0363 115.214 69.26 115.377 69.4026 115.923C70.9184 121.726 73.6637 126.884 77.6581 131.357C82.7054 137.01 88.9153 140.793 96.2397 142.73C96.7066 142.853 96.8086 143.048 96.8034 143.484C96.7825 145.248 96.7772 147.012 96.7995 148.775C96.8596 153.609 100.513 157.368 105.332 157.573C110.202 157.781 114.349 153.954 114.489 149.084C114.543 147.212 114.516 145.339 114.499 143.466C114.496 143.049 114.617 142.876 115.036 142.753C116.472 142.331 117.928 141.94 119.307 141.371C130.94 136.575 138.5 128.122 141.929 116.005C142.089 115.443 142.277 115.193 142.923 115.218C144.511 115.277 146.103 115.264 147.69 115.227C148.49 115.209 149.31 115.169 150.081 114.981C154.556 113.885 157.385 109.718 156.796 105.16C156.234 100.816 152.487 97.5596 147.998 97.5256C146.235 97.5125 144.47 97.5034 142.707 97.5361C142.238 97.5452 142.085 97.3687 141.955 96.9554C141.462 95.3832 141.034 93.7771 140.388 92.2678C135.519 80.8863 127.093 73.5227 115.182 70.1653C114.62 70.0071 114.489 69.7729 114.498 69.2367C114.527 67.4959 114.535 65.7524 114.498 64.0116C114.399 59.1592 110.661 55.4238 105.81 55.2996C100.97 55.1766 96.9093 59.0363 96.806 63.8886C96.7681 65.6517 96.7655 67.4161 96.8099 69.1792C96.8256 69.8122 96.6347 70.0555 96.0134 70.232C83.8982 73.6771 75.4778 81.2735 70.7092 92.9126C70.1023 94.3932 69.6824 95.9509 69.1593 97.5243H69.1606Z" fill="white"/>
<path d="M162.428 50.7912C159.489 50.7912 156.66 50.7912 153.833 50.7912C153.135 50.7912 152.438 50.803 151.743 50.7808C149.777 50.7206 148.21 49.1014 148.205 47.1434C148.199 45.175 149.813 43.4852 151.791 43.4761C156.582 43.4538 161.373 43.4551 166.164 43.4734C168.119 43.4813 169.724 45.0429 169.736 46.9878C169.764 51.8219 169.764 56.6559 169.736 61.49C169.724 63.4858 168.048 65.0318 166.037 65.0122C164.087 64.9926 162.45 63.3969 162.437 61.4376C162.415 58.1496 162.431 54.8615 162.429 51.5734C162.429 51.3392 162.429 51.1038 162.429 50.7912H162.428Z" fill="white"/>
<path d="M48.999 50.8191C48.999 51.1722 48.999 51.4717 48.999 51.7726C48.999 54.9521 49.0055 58.1303 48.9964 61.3099C48.9898 63.2142 47.6231 64.768 45.7828 64.9982C43.9478 65.2271 42.2266 64.0369 41.7767 62.1993C41.6904 61.8461 41.6825 61.4668 41.6812 61.0993C41.6747 56.5268 41.6721 51.9544 41.6786 47.3806C41.6825 44.974 43.1932 43.4699 45.5906 43.4686C50.2284 43.466 54.8676 43.4608 59.5055 43.4712C61.4647 43.4751 62.9649 44.8498 63.2069 46.8182C63.4175 48.5276 62.1736 50.2619 60.3923 50.6922C59.9973 50.7877 59.5735 50.7864 59.1615 50.7877C55.9166 50.7956 52.6729 50.7916 49.428 50.7929C49.3207 50.7929 49.2135 50.8047 48.999 50.8178V50.8191Z" fill="white"/>
<path d="M48.9992 162.644C49.3419 162.644 49.5996 162.644 49.8572 162.644C53.0786 162.644 56.3 162.63 59.5227 162.651C61.4741 162.662 62.9795 164.066 63.2084 166.022C63.4033 167.686 62.2118 169.386 60.5036 169.853C60.1924 169.938 59.8601 169.985 59.5384 169.985C54.7933 169.992 50.0482 170.017 45.303 169.974C43.502 169.957 42.2203 168.878 41.7861 167.217C41.7207 166.968 41.688 166.703 41.688 166.445C41.6814 161.634 41.6697 156.824 41.6906 152.013C41.6984 150.248 43.005 148.774 44.7014 148.513C46.5338 148.232 48.2027 149.191 48.7756 150.902C48.9247 151.345 48.9874 151.837 48.9901 152.306C49.0084 155.485 48.9992 158.663 48.9992 161.841C48.9992 162.078 48.9992 162.315 48.9992 162.645V162.644Z" fill="white"/>
<path d="M162.428 162.644C162.428 162.343 162.428 162.11 162.428 161.876C162.428 158.633 162.42 155.389 162.431 152.145C162.437 150.185 163.812 148.69 165.782 148.464C167.534 148.264 169.214 149.464 169.652 151.267C169.743 151.641 169.746 152.042 169.746 152.432C169.753 156.96 169.698 161.489 169.773 166.016C169.807 168.105 168.324 170.025 165.833 170.006C161.262 169.972 156.689 170.006 152.118 169.991C150.18 169.984 148.719 168.889 148.324 167.222C147.933 165.57 148.627 163.887 150.13 163.133C150.709 162.843 151.412 162.674 152.062 162.665C155.261 162.618 158.461 162.644 161.662 162.644C161.896 162.644 162.13 162.644 162.427 162.644H162.428Z" fill="white"/>
<path d="M105.693 83.7219C112.786 83.7532 118.529 89.6663 118.287 96.7356C118.176 99.9884 116.966 102.764 114.762 105.14C114.408 105.522 114.073 106.009 113.95 106.502C113.693 107.544 114.2 108.328 115.293 108.801C118.341 110.122 120.941 112.04 123.066 114.597C125.102 117.044 126.457 119.845 127.347 122.878C127.76 124.286 127.426 125.57 126.434 126.629C122.891 130.414 118.608 133.008 113.645 134.496C113.308 134.597 113.118 134.527 112.899 134.22C109.234 129.122 102.119 129.113 98.4161 134.2C98.199 134.499 98.0198 134.574 97.668 134.469C92.745 132.999 88.4995 130.424 84.9799 126.679C83.9636 125.597 83.6628 124.3 84.0905 122.869C86.0158 116.417 89.8479 111.591 96.0893 108.822C97.736 108.092 98.0577 106.559 96.8165 105.257C94.2883 102.604 93.0563 99.4757 93.1661 95.7978C93.3309 90.2876 97.5136 85.2364 102.923 84.109C103.835 83.9194 104.77 83.8461 105.693 83.7192V83.7219Z" fill="white"/>
<path d="M109.337 68.8731C109.337 70.4178 109.358 71.9624 109.33 73.507C109.299 75.3172 108.166 76.7742 106.543 77.1601C104.873 77.5577 103.166 76.8278 102.425 75.2989C102.158 74.7509 101.994 74.0969 101.985 73.4874C101.942 70.4204 101.949 67.352 101.972 64.2849C101.987 62.4408 103.148 60.9576 104.788 60.5901C106.47 60.2121 108.173 60.9537 108.888 62.4892C109.163 63.079 109.29 63.7788 109.317 64.434C109.379 65.9107 109.337 67.3925 109.336 68.8718L109.337 68.8731Z" fill="white"/>
<path d="M68.1823 102.695C69.727 102.695 71.273 102.67 72.8163 102.701C74.7585 102.742 76.1541 103.953 76.502 105.84C76.7924 107.412 75.8598 109.115 74.306 109.734C73.8129 109.93 73.2544 110.046 72.7247 110.052C69.6786 110.08 66.6325 110.08 63.5863 110.061C61.8429 110.05 60.4983 109.099 59.9699 107.576C59.4572 106.095 59.9032 104.533 61.1288 103.524C61.8507 102.93 62.6956 102.698 63.6125 102.696C65.1349 102.691 66.6586 102.695 68.181 102.696L68.1823 102.695Z" fill="white"/>
<path d="M143.271 110.066C141.727 110.066 140.181 110.088 138.637 110.059C136.916 110.027 135.566 109.041 135.064 107.512C134.585 106.055 135.047 104.51 136.254 103.522C136.958 102.946 137.781 102.701 138.674 102.698C141.742 102.691 144.809 102.678 147.878 102.702C149.928 102.718 151.393 104.04 151.66 106.039C151.877 107.67 150.732 109.388 149.06 109.874C148.607 110.004 148.12 110.052 147.646 110.059C146.189 110.083 144.731 110.067 143.273 110.067L143.271 110.066Z" fill="white"/>
<path d="M109.337 144.004C109.337 145.548 109.358 147.094 109.331 148.638C109.298 150.439 108.149 151.91 106.534 152.285C104.864 152.675 103.156 151.936 102.421 150.409C102.157 149.859 101.994 149.205 101.985 148.596C101.942 145.529 101.947 142.46 101.972 139.393C101.987 137.549 103.145 136.084 104.8 135.712C106.479 135.334 108.183 136.079 108.894 137.617C109.167 138.208 109.29 138.907 109.317 139.565C109.379 141.041 109.337 142.523 109.336 144.002L109.337 144.004Z" fill="white"/>
</g>
<defs>
<clipPath id="clip0_740_2106">
<rect width="128.1" height="126.547" fill="white" transform="translate(41.6748 43.4603)"/>
</clipPath>
</defs>
</svg>
