<svg width="729" height="397" viewBox="0 0 729 397" fill="none" xmlns="http://www.w3.org/2000/svg">
<path d="M710.976 295.56H709.776C709.583 295.56 709.394 295.574 709.205 295.589C708.624 293.847 707.907 292.171 707.067 290.568C707.315 290.379 707.555 290.183 707.78 289.957L708.627 289.11C711.329 286.409 711.329 281.992 708.627 279.291L703.188 273.852C700.487 271.151 696.069 271.151 693.368 273.852L692.521 274.699C692.245 274.975 692.001 275.273 691.783 275.586C690.245 274.819 688.641 274.165 686.984 273.63C687.089 273.154 687.147 272.659 687.147 272.15V270.951C687.147 267.13 684.02 264.007 680.203 264.007H672.51C668.688 264.007 665.565 267.133 665.565 270.951V272.15C665.565 272.659 665.623 273.15 665.729 273.63C664.104 274.154 662.533 274.794 661.024 275.539C660.733 275.044 660.384 274.575 659.963 274.15L659.115 273.303C656.414 270.602 651.997 270.602 649.295 273.303L643.856 278.742C641.155 281.443 641.155 285.86 643.856 288.561L644.703 289.408C645.041 289.747 645.405 290.041 645.787 290.292C644.987 291.79 644.292 293.349 643.714 294.971C643.213 294.855 642.689 294.785 642.151 294.785H640.951C637.13 294.785 634.007 297.912 634.007 301.729V309.422C634.007 313.243 637.134 316.366 640.951 316.366H642.151C642.467 316.366 642.776 316.337 643.082 316.297C643.583 318.02 644.209 319.689 644.958 321.289C644.674 321.496 644.401 321.718 644.147 321.972L643.3 322.819C640.598 325.52 640.598 329.938 643.3 332.639L648.739 338.078C651.44 340.779 655.858 340.779 658.559 338.078L659.406 337.231C659.49 337.147 659.559 337.06 659.639 336.972C661.286 337.881 663.013 338.656 664.809 339.292C664.798 339.456 664.784 339.615 664.784 339.779V340.979C664.784 344.8 667.91 347.923 671.728 347.923H679.421C683.242 347.923 686.365 344.796 686.365 340.979V339.794C688.26 339.223 690.085 338.492 691.826 337.623C691.877 337.674 691.917 337.732 691.972 337.783L692.819 338.63C695.52 341.331 699.938 341.331 702.639 338.63L708.078 333.191C710.78 330.49 710.78 326.073 708.078 323.372L707.231 322.525C707.209 322.503 707.187 322.488 707.169 322.47C708.049 320.765 708.795 318.984 709.384 317.13C709.518 317.137 709.649 317.151 709.783 317.151H710.983C714.804 317.151 717.928 314.025 717.928 310.207V302.515C717.928 298.694 714.801 295.571 710.983 295.571L710.976 295.56ZM676.353 328.727C664.136 328.727 654.236 318.824 654.236 306.612C654.236 294.4 664.14 284.497 676.353 284.497C688.565 284.497 698.469 294.4 698.469 306.612C698.469 318.824 688.565 328.727 676.353 328.727Z" fill="#D5C7F4"/>
<path d="M485.552 117.635C485.552 117.635 485.664 117.341 485.883 116.792" stroke="#D4D9FF" stroke-linecap="round" stroke-linejoin="round"/>
<path d="M486.569 115.12C491.51 103.355 514.092 54.5005 547.341 57.4562C557.598 58.3687 572.264 55.7947 574.333 43.5938C576.522 30.6949 561.492 23.8964 550.704 25.2124C542.418 26.2231 534.889 32.3745 534.46 41.1071C533.972 50.9267 543.113 57.4016 550.686 61.8407C568.505 72.2892 594.839 74.5324 610.796 59.3903C617.737 52.8027 622.885 44.5681 630.12 38.2459C639.704 29.8696 651.513 25.9432 664.045 25.0743" stroke="#D4D9FF" stroke-linecap="round" stroke-linejoin="round"/>
<path d="M664.947 25.016C665.249 24.9978 665.551 24.9833 665.856 24.9688" stroke="#D4D9FF" stroke-linecap="round" stroke-linejoin="round"/>
<path d="M616.69 3.4356L694.936 0L651.474 41.7216L642.144 32.2692L628.987 40.5473L633.713 23.8747L616.69 3.4356Z" fill="#D5C7F4"/>
<path d="M627.747 16.709L694.936 0L633.713 23.8747L627.747 16.709Z" fill="#F3F0FB"/>
<path d="M627.747 16.709L628.987 40.5473L633.713 23.8747L627.747 16.709Z" fill="#F3F0FB"/>
<path d="M187.037 66.7126C197.478 66.7126 205.943 58.2486 205.943 47.8077C205.943 37.3668 197.478 28.9028 187.037 28.9028C176.595 28.9028 168.131 37.3668 168.131 47.8077C168.131 58.2486 176.595 66.7126 187.037 66.7126Z" fill="#FFBD35"/>
<path d="M194.643 59.8304L186.68 55.7767L178.831 60.0376L180.223 51.2141L173.744 45.0664L182.568 43.6631L186.415 35.603L190.472 43.5613L199.329 44.7283L193.014 51.0469L194.643 59.8304Z" fill="white"/>
<path d="M31.5979 0H75.4634C79.2591 0 82.3386 3.07931 82.3386 6.87483V33.378C82.3386 36.1919 80.6443 38.6096 78.2229 39.6712L82.3386 47.3604L67.312 40.2529H31.5979C27.8021 40.2529 24.7227 37.1735 24.7227 33.378V6.87483C24.7227 3.07931 27.8021 0 31.5979 0Z" fill="#D5C7F4"/>
<path d="M32.1504 10.9468H74.907" stroke="white" stroke-linecap="round" stroke-linejoin="round"/>
<path d="M32.1504 19.6577H74.907" stroke="white" stroke-linecap="round" stroke-linejoin="round"/>
<path d="M32.1504 28.3721H74.907" stroke="white" stroke-linecap="round" stroke-linejoin="round"/>
<path d="M131.312 30.3096H99.7244C96.9903 30.3096 94.7725 32.5273 94.7725 35.2612V54.3479C94.7725 56.3765 95.9904 58.1143 97.7356 58.8814L94.7725 64.4183L105.592 59.2995H131.312C134.046 59.2995 136.264 57.0818 136.264 54.3479V35.2612C136.264 32.5273 134.046 30.3096 131.312 30.3096Z" fill="#D5C7F4"/>
<path d="M130.912 38.1914H100.121" stroke="white" stroke-width="0.72" stroke-linecap="round" stroke-linejoin="round"/>
<path d="M130.912 44.4629H100.121" stroke="white" stroke-width="0.72" stroke-linecap="round" stroke-linejoin="round"/>
<path d="M130.912 50.7378H100.121" stroke="white" stroke-width="0.72" stroke-linecap="round" stroke-linejoin="round"/>
<path d="M58.7311 94.3828H57.8222C57.6768 94.3828 57.5313 94.3937 57.3895 94.4047C56.946 93.0849 56.4042 91.8089 55.7644 90.591C55.9534 90.4492 56.1352 90.2965 56.3061 90.1256L56.9496 89.4821C59.0002 87.4317 59.0002 84.076 56.9496 82.0256L52.8194 77.8956C50.7688 75.8451 47.413 75.8451 45.3624 77.8956L44.7189 78.5391C44.508 78.75 44.3262 78.9754 44.159 79.2117C42.9919 78.63 41.7739 78.1319 40.516 77.7247C40.5959 77.3612 40.6396 76.9867 40.6396 76.6013V75.6925C40.6396 72.7913 38.2654 70.4209 35.3677 70.4209H29.5287C26.6273 70.4209 24.2568 72.7949 24.2568 75.6925V76.6013C24.2568 76.9867 24.3005 77.3612 24.3804 77.7247C23.1479 78.121 21.9554 78.6082 20.8101 79.1717C20.5883 78.7972 20.3229 78.4409 20.003 78.1174L19.3595 77.4739C17.3089 75.4234 13.9531 75.4234 11.9025 77.4739L7.77227 81.6039C5.7217 83.6543 5.7217 87.0099 7.77227 89.0604L8.4158 89.7039C8.67031 89.9584 8.94663 90.1838 9.23749 90.3765C8.63031 91.5144 8.10313 92.6996 7.66684 93.9284C7.28508 93.8411 6.88878 93.7866 6.48158 93.7866H5.57264C2.6713 93.7866 0.300781 96.1606 0.300781 99.0582V104.897C0.300781 107.798 2.67493 110.168 5.57264 110.168H6.48158C6.72154 110.168 6.95786 110.147 7.18692 110.114C7.56504 111.423 8.04496 112.688 8.61214 113.902C8.39763 114.058 8.19039 114.229 7.99769 114.422L7.35416 115.066C5.30359 117.116 5.30359 120.472 7.35416 122.522L11.4844 126.652C13.535 128.702 16.8908 128.702 18.9413 126.652L19.5849 126.009C19.6467 125.947 19.7012 125.878 19.7594 125.812C21.0101 126.503 22.3226 127.092 23.6824 127.572C23.6751 127.695 23.6642 127.819 23.6642 127.943V128.852C23.6642 131.753 26.0383 134.123 28.9361 134.123H34.7751C37.6764 134.123 40.0469 131.749 40.0469 128.852V127.954C41.4867 127.521 42.8683 126.965 44.1917 126.303C44.2281 126.343 44.2608 126.387 44.3008 126.423L44.9443 127.066C46.9949 129.117 50.3507 129.117 52.4013 127.066L56.5315 122.936C58.5821 120.886 58.5821 117.53 56.5315 115.48L55.888 114.836C55.888 114.836 55.8552 114.807 55.8407 114.793C56.5061 113.499 57.0732 112.146 57.5204 110.739C57.6222 110.746 57.7204 110.754 57.8222 110.754H58.7311C61.6325 110.754 64.003 108.38 64.003 105.482V99.6435C64.003 96.7423 61.6288 94.3719 58.7311 94.3719V94.3828ZM32.4482 119.563C23.177 119.563 15.6582 112.044 15.6582 102.774C15.6582 93.503 23.177 85.9847 32.4482 85.9847C41.7194 85.9847 49.2382 93.503 49.2382 102.774C49.2382 112.044 41.7194 119.563 32.4482 119.563Z" fill="#D5C7F4"/>
<path d="M63.4938 281.425H63.0066C62.9266 281.425 62.8502 281.432 62.7739 281.436C62.5376 280.727 62.2431 280.043 61.9013 279.389C62.0031 279.312 62.1013 279.232 62.1922 279.138L62.5376 278.793C63.6356 277.695 63.6356 275.895 62.5376 274.793L60.3234 272.579C59.2254 271.478 57.4257 271.478 56.324 272.579L55.9786 272.925C55.8659 273.037 55.7678 273.161 55.6769 273.285C55.0515 272.972 54.3971 272.707 53.7208 272.488C53.7645 272.296 53.7863 272.092 53.7863 271.885V271.398C53.7863 269.842 52.5138 268.569 50.9577 268.569H47.8236C46.2675 268.569 44.995 269.842 44.995 271.398V271.885C44.995 272.092 45.0205 272.292 45.0604 272.488C44.3987 272.703 43.7588 272.961 43.1444 273.266C43.0244 273.067 42.8826 272.874 42.7117 272.703L42.3663 272.358C41.2683 271.26 39.4686 271.26 38.367 272.358L36.1528 274.572C35.0512 275.67 35.0512 277.469 36.1528 278.571L36.4982 278.916C36.6364 279.054 36.7818 279.174 36.9382 279.276C36.6109 279.887 36.331 280.523 36.0947 281.181C35.8911 281.134 35.6765 281.105 35.4584 281.105H34.9712C33.4151 281.105 32.1426 282.377 32.1426 283.933V287.067C32.1426 288.623 33.4151 289.896 34.9712 289.896H35.4584C35.5856 289.896 35.7129 289.885 35.8365 289.866C36.0401 290.568 36.2946 291.248 36.6 291.899C36.4837 291.982 36.3746 292.073 36.2692 292.179L35.9238 292.524C34.8258 293.622 34.8258 295.422 35.9238 296.523L38.138 298.737C39.236 299.839 41.0357 299.839 42.1373 298.737L42.4827 298.392C42.5154 298.359 42.5445 298.323 42.5772 298.286C43.2462 298.657 43.9515 298.973 44.6823 299.232C44.6787 299.297 44.6714 299.362 44.6714 299.432V299.919C44.6714 301.475 45.9439 302.747 47.5 302.747H50.6341C52.1902 302.747 53.4627 301.475 53.4627 299.919V299.435C54.2335 299.203 54.9752 298.904 55.6878 298.552C55.7096 298.574 55.7241 298.595 55.746 298.617L56.0914 298.963C57.1894 300.061 58.9891 300.061 60.0907 298.963L62.3049 296.749C63.4029 295.651 63.4029 293.851 62.3049 292.749L61.9595 292.404C61.9595 292.404 61.9413 292.389 61.934 292.382C62.2903 291.688 62.5957 290.961 62.8357 290.208C62.8902 290.208 62.9448 290.215 62.9993 290.215H63.4865C65.0426 290.215 66.3151 288.943 66.3151 287.387V284.253C66.3151 282.697 65.0426 281.425 63.4865 281.425H63.4938ZM49.3943 294.927C44.4205 294.927 40.3885 290.895 40.3885 285.922C40.3885 280.948 44.4205 276.917 49.3943 276.917C54.368 276.917 58.4001 280.948 58.4001 285.922C58.4001 290.895 54.368 294.927 49.3943 294.927Z" fill="#D5C7F4"/>
<path d="M690.219 72.889H689.732C689.652 72.889 689.576 72.8963 689.499 72.8999C689.263 72.191 688.969 71.5075 688.627 70.8531C688.729 70.7768 688.827 70.6968 688.918 70.6022L689.263 70.2569C690.365 69.1553 690.365 67.3593 689.263 66.2578L687.049 64.0437C685.947 62.9421 684.151 62.9421 683.05 64.0437L682.704 64.3891C682.592 64.5018 682.493 64.6254 682.402 64.749C681.777 64.4363 681.123 64.171 680.446 63.9528C680.49 63.7601 680.512 63.5565 680.512 63.3493V62.8622C680.512 61.3061 679.239 60.0337 677.683 60.0337H674.549C672.993 60.0337 671.721 61.3061 671.721 62.8622V63.3493C671.721 63.5565 671.746 63.7565 671.786 63.9528C671.124 64.1673 670.484 64.4254 669.87 64.7308C669.75 64.5309 669.608 64.3382 669.437 64.1673L669.092 63.8219C667.99 62.724 666.194 62.724 665.093 63.8219L662.878 66.036C661.777 67.1376 661.777 68.9372 662.878 70.0351L663.224 70.3805C663.362 70.5186 663.507 70.6386 663.664 70.7404C663.337 71.3512 663.057 71.9874 662.82 72.6454C662.617 72.5982 662.402 72.5691 662.184 72.5691H661.697C660.141 72.5691 658.868 73.8415 658.868 75.3975V78.5314C658.868 80.0874 660.141 81.3598 661.697 81.3598H662.184C662.311 81.3598 662.438 81.3489 662.562 81.3308C662.766 82.0324 663.02 82.7123 663.326 83.363C663.209 83.4467 663.1 83.5376 662.995 83.643L662.649 83.9884C661.551 85.0863 661.551 86.8859 662.649 87.9875L664.864 90.2015C665.965 91.2995 667.765 91.2995 668.863 90.2015L669.208 89.8561C669.241 89.8234 669.27 89.7871 669.303 89.7507C669.972 90.1215 670.677 90.4378 671.408 90.696C671.404 90.7614 671.397 90.8268 671.397 90.8959V91.3831C671.397 92.9391 672.67 94.2115 674.226 94.2115H677.36C678.916 94.2115 680.188 92.9391 680.188 91.3831V90.8995C680.959 90.6669 681.704 90.3688 682.413 90.0161C682.435 90.0379 682.45 90.0597 682.472 90.0815L682.817 90.4269C683.915 91.5285 685.715 91.5285 686.816 90.4269L689.03 88.2129C690.128 87.1113 690.128 85.3153 689.03 84.2138L688.685 83.8684C688.685 83.8684 688.667 83.8538 688.66 83.8466C689.016 83.1522 689.321 82.4251 689.561 81.6725C689.616 81.6725 689.67 81.6798 689.725 81.6798H690.212C691.768 81.6798 693.041 80.4073 693.041 78.8513V75.7175C693.041 74.1615 691.768 72.889 690.212 72.889H690.219ZM676.12 86.3951C671.146 86.3951 667.114 82.3633 667.114 77.3898C667.114 72.4164 671.146 68.3846 676.12 68.3846C681.094 68.3846 685.126 72.4164 685.126 77.3898C685.126 82.3633 681.094 86.3951 676.12 86.3951Z" fill="#D5C7F4"/>
<path d="M726.745 120.129H670.194C668.959 120.129 667.958 121.13 667.958 122.365V158.801C667.958 160.036 668.959 161.037 670.194 161.037H726.745C727.98 161.037 728.981 160.036 728.981 158.801V122.365C728.981 121.13 727.98 120.129 726.745 120.129Z" fill="#FFBD35"/>
<path d="M671.292 123.129L698.469 140.063L725.698 123.18" stroke="white" stroke-linecap="round" stroke-linejoin="round"/>
<path d="M124.826 390.502H46.3841C41.0141 390.502 36.6221 386.111 36.6221 380.741C36.6221 375.371 41.0141 370.979 46.3841 370.979H124.826C130.196 370.979 134.588 375.371 134.588 380.741C134.588 386.111 130.196 390.502 124.826 390.502Z" fill="#D5C7F4"/>
<path d="M55.8591 385.264C58.3571 385.264 60.3822 383.239 60.3822 380.741C60.3822 378.243 58.3571 376.218 55.8591 376.218C53.361 376.218 51.3359 378.243 51.3359 380.741C51.3359 383.239 53.361 385.264 55.8591 385.264Z" fill="white"/>
<path d="M75.6882 385.264C78.1862 385.264 80.2113 383.239 80.2113 380.741C80.2113 378.243 78.1862 376.218 75.6882 376.218C73.1901 376.218 71.165 378.243 71.165 380.741C71.165 383.239 73.1901 385.264 75.6882 385.264Z" fill="white"/>
<path d="M95.5182 385.264C98.0163 385.264 100.041 383.239 100.041 380.741C100.041 378.243 98.0163 376.218 95.5182 376.218C93.0202 376.218 90.9951 378.243 90.9951 380.741C90.9951 383.239 93.0202 385.264 95.5182 385.264Z" fill="white"/>
<path d="M115.351 385.264C117.849 385.264 119.874 383.239 119.874 380.741C119.874 378.243 117.849 376.218 115.351 376.218C112.853 376.218 110.828 378.243 110.828 380.741C110.828 383.239 112.853 385.264 115.351 385.264Z" fill="white"/>
<path d="M664.686 396.766H539.685C533.482 396.766 528.41 391.691 528.41 385.492C528.41 379.29 533.486 374.219 539.685 374.219H664.686C670.888 374.219 675.96 379.294 675.96 385.492C675.96 391.695 670.885 396.766 664.686 396.766Z" fill="#D5C7F4"/>
<path d="M662.956 380.69C665.108 382.842 665.108 386.329 662.956 388.481C660.804 390.634 657.317 390.634 655.164 388.481C653.012 386.329 653.012 382.842 655.164 380.69C657.317 378.538 660.804 378.538 662.956 380.69Z" stroke="white" stroke-width="1.18" stroke-linecap="round" stroke-linejoin="round"/>
<path d="M662.955 388.481L667.467 392.989" stroke="white" stroke-width="1.18" stroke-linecap="round" stroke-linejoin="round"/>
<path d="M548.877 387.794C548.877 389.063 547.848 390.095 546.575 390.095C545.302 390.095 544.273 389.066 544.273 387.794C544.273 386.521 545.302 385.492 546.575 385.492C547.848 385.492 548.877 386.521 548.877 387.794Z" fill="white"/>
<path d="M559.307 387.794C559.307 389.063 558.278 390.095 557.006 390.095C555.733 390.095 554.704 389.066 554.704 387.794C554.704 386.521 555.733 385.492 557.006 385.492C558.278 385.492 559.307 386.521 559.307 387.794Z" fill="white"/>
<path d="M569.742 387.794C569.742 389.063 568.713 390.095 567.44 390.095C566.168 390.095 565.139 389.066 565.139 387.794C565.139 386.521 566.168 385.492 567.44 385.492C568.713 385.492 569.742 386.521 569.742 387.794Z" fill="white"/>
</svg>
