<svg width="407" height="407" viewBox="0 0 407 407" fill="none" xmlns="http://www.w3.org/2000/svg">
<g style="mix-blend-mode:luminosity" opacity="0.5">
<g filter="url(#filter0_d_539_304)">
<rect x="15.7227" y="11.7505" width="376.277" height="375.495" rx="25" fill="white"/>
<rect x="16.7227" y="12.7505" width="374.277" height="373.495" rx="24" stroke="#F5AF02" stroke-width="2"/>
</g>
<circle cx="201.123" cy="199.498" r="92.5915" fill="#F5AF02" stroke="#F5AF02"/>
<g clip-path="url(#clip0_539_304)">
<path d="M254.319 223.274C254.231 223.575 254.147 223.875 254.052 224.176C253.724 225.211 253.147 226.08 252.351 226.807C247.819 230.945 242.889 234.519 237.56 237.514C233.05 240.049 228.336 242.075 223.311 243.315C219.432 244.269 215.503 244.558 211.53 244.38C208.393 244.239 205.252 244.157 202.126 243.886C196.301 243.378 190.524 242.521 185.123 240.079C183.494 239.34 181.953 238.375 180.437 237.414C179.411 236.764 178.396 236.416 177.162 236.423C167.374 236.46 157.584 236.445 147.797 236.445H147.146V213.602H147.767C154.1 213.602 160.436 213.61 166.768 213.588C167.177 213.588 167.634 213.469 167.992 213.268C171.764 211.149 175.712 209.494 179.955 208.663C188.34 207.022 196.177 208.373 203.291 213.309C204.047 213.833 204.752 214.044 205.635 214.037C210.485 214.007 215.335 214.014 220.188 214.029C222.562 214.037 224.589 215.607 225.389 218.004C226.166 220.342 225.491 222.818 223.643 224.276C222.54 225.148 221.277 225.616 219.867 225.616C212.556 225.62 205.245 225.62 197.934 225.623C197.733 225.623 197.532 225.623 197.276 225.746C197.623 226.024 197.955 226.321 198.321 226.573C200.249 227.924 202.422 228.659 204.686 229.127C208.787 229.973 212.928 230.051 217.081 229.691C219.283 229.501 221.507 229.364 223.672 228.952C228.365 228.054 232.725 226.191 236.903 223.875C239.748 222.298 242.385 220.435 244.744 218.164C246.354 216.616 248.275 216.223 250.368 216.917C252.438 217.603 253.713 219.077 254.213 221.233C254.239 221.348 254.286 221.463 254.323 221.578V223.281L254.319 223.274Z" fill="white"/>
<path d="M214.444 203.545C213.37 202.521 212.202 201.348 210.967 200.257C210.336 199.696 210.226 199.162 210.409 198.331C211.606 192.931 212.731 187.516 213.889 182.109C213.973 181.723 213.936 181.43 213.663 181.107C212.578 179.811 211.541 178.475 210.463 177.173C210.328 177.009 210.073 176.85 209.875 176.85C204.54 176.861 199.132 180.702 197.441 185.753C197.083 186.826 196.878 187.995 196.849 189.127C196.769 192.155 196.82 195.191 196.816 198.223C196.816 198.323 196.809 198.427 196.798 198.65C193.99 196.182 191.81 193.354 190.206 190.069C187.54 184.61 186.719 178.858 187.781 172.868C189.958 160.609 199.785 151.758 211.216 150.407C224.658 148.819 235.979 157.147 239.953 168.396C244.014 179.889 240.037 191.858 232.152 198.564C232.141 198.383 232.119 198.234 232.119 198.086C232.119 195.48 232.075 192.871 232.127 190.266C232.232 185.063 229.822 181.352 225.564 178.743C223.607 177.544 221.459 176.92 219.166 176.831C218.837 176.817 218.622 176.909 218.414 177.177C217.355 178.516 216.281 179.845 215.2 181.17C214.995 181.422 214.93 181.649 215.003 181.986C216.223 187.672 217.428 193.358 218.622 199.047C218.658 199.221 218.636 199.5 218.527 199.607C217.146 200.962 215.748 202.298 214.448 203.545H214.444ZM214.477 154.115C208.718 154.111 204.062 158.824 204.051 164.666C204.04 170.522 208.681 175.284 214.408 175.291C220.181 175.299 224.87 170.567 224.881 164.71C224.896 158.895 220.203 154.118 214.477 154.115Z" fill="white"/>
<path d="M222.989 188.511C224.158 188.533 225.089 189.464 225.104 190.667C225.129 192.934 225.118 195.202 225.122 197.473C225.122 199.192 225.111 200.91 225.129 202.632C225.133 202.996 225.023 203.17 224.687 203.281C224.132 203.463 223.592 203.69 222.993 203.92V188.514L222.989 188.511Z" fill="white"/>
<path d="M205.92 203.916C205.256 203.656 204.624 203.426 204.003 203.155C203.89 203.107 203.777 202.892 203.777 202.755C203.766 198.769 203.751 194.783 203.784 190.797C203.795 189.427 204.697 188.518 205.917 188.503V203.92L205.92 203.916Z" fill="white"/>
</g>
<rect x="147.646" y="150.714" width="106.173" height="93.2176" stroke="#F5AF02"/>
</g>
<defs>
<filter id="filter0_d_539_304" x="0.722656" y="0.750488" width="406.277" height="405.495" filterUnits="userSpaceOnUse" color-interpolation-filters="sRGB">
<feFlood flood-opacity="0" result="BackgroundImageFix"/>
<feColorMatrix in="SourceAlpha" type="matrix" values="0 0 0 0 0 0 0 0 0 0 0 0 0 0 0 0 0 0 127 0" result="hardAlpha"/>
<feOffset dy="4"/>
<feGaussianBlur stdDeviation="7.5"/>
<feComposite in2="hardAlpha" operator="out"/>
<feColorMatrix type="matrix" values="0 0 0 0 0 0 0 0 0 0 0 0 0 0 0 0 0 0 0.25 0"/>
<feBlend mode="normal" in2="BackgroundImageFix" result="effect1_dropShadow_539_304"/>
<feBlend mode="normal" in="SourceGraphic" in2="effect1_dropShadow_539_304" result="shape"/>
</filter>
<clipPath id="clip0_539_304">
<rect x="147.146" y="150.214" width="107.173" height="94.2176" fill="white"/>
</clipPath>
</defs>
</svg>
