<svg width="130" height="131" viewBox="0 0 130 131" fill="none" xmlns="http://www.w3.org/2000/svg">
<circle cx="65" cy="65.3521" r="65" fill="white"/>
<g clip-path="url(#clip0_740_2056)">
<path d="M36.0257 92.7906H37.709V79.9522C42.1616 81.1088 46.5953 81.9156 51.1595 82.3423V95.4462H52.8818V82.495C58.2466 82.8363 63.5335 82.5329 68.8509 81.9357V94.8036H70.55V81.7029C75.405 81.0224 80.142 80.0322 84.8485 78.667V91.3359H86.5339V78.1404C90.8727 76.7615 95.0598 75.1056 99.1385 72.9925C99.1501 73.2559 99.1648 73.4402 99.1648 73.6235C99.1648 79.8142 99.1617 86.0048 99.1743 92.1955C99.1743 92.5652 99.0521 92.7454 98.7351 92.9128C91.3467 96.7903 83.536 99.4406 75.3534 101.032C68.8088 102.305 62.2031 102.911 55.5416 102.79C50.3021 102.694 45.1448 101.907 40.0602 100.649C35.3674 99.488 30.8231 97.9269 26.5991 95.5389C23.6107 93.8493 20.9109 91.8047 18.9401 88.9322C17.4538 86.7654 16.6827 84.37 16.689 81.726C16.7006 77.008 16.6922 72.291 16.6922 67.5729C16.6922 67.4076 16.6922 67.2422 16.6922 67.0431C17.379 67.9743 17.9931 68.8854 18.6894 69.7302C19.9239 71.2292 21.4092 72.4616 23.0092 73.5519C23.3052 73.7541 23.4074 73.9658 23.4064 74.3187C23.3948 78.5807 23.399 82.8416 23.399 87.1035C23.399 87.3089 23.399 87.5154 23.399 87.7513H25.0949V74.9529C25.275 75.0319 25.4014 75.0751 25.5163 75.1393C28.6585 76.91 31.9829 78.2436 35.4348 79.2664C35.9046 79.4055 36.0437 79.6045 36.0415 80.0944C36.0184 84.093 36.0279 88.0916 36.0279 92.0902C36.0279 92.3124 36.0279 92.5357 36.0279 92.7906H36.0257ZM61.9039 91.8774C63.1195 90.9378 62.9531 88.9332 62.3432 88.2032C61.5184 87.2162 58.2298 86.9992 57.3797 88.5392C57.3039 88.6772 57.2164 88.811 57.1627 88.9574C56.9984 89.4104 56.8161 89.9687 57.1922 90.291C57.4671 90.5259 58.0117 90.528 58.4215 90.4901C58.6322 90.4701 58.9145 90.1656 58.9861 89.9339C59.1757 89.323 59.4222 89.1133 60.0816 89.1955C60.6567 89.2671 60.879 89.5389 60.8716 90.1614C60.8632 90.8704 60.7115 91.0547 59.9478 91.1537C59.4411 91.219 59.3137 91.5435 59.3242 91.9648C59.3337 92.3514 59.4253 92.6895 59.9215 92.7411C60.9938 92.8539 61.1697 93.0772 61.0949 94.1495C61.0496 94.8121 60.7979 95.0765 60.1669 95.1249C59.2979 95.1923 58.9429 94.9985 58.827 94.3338C58.7607 93.9536 58.5595 93.7819 58.1992 93.7576C57.9896 93.7439 57.7779 93.7324 57.5693 93.744C56.9794 93.7756 56.8056 93.9778 56.8288 94.5793C56.8646 95.5052 57.5577 96.4037 58.5258 96.7071C59.5065 97.0147 60.4956 96.9999 61.4657 96.6386C62.4253 96.2815 62.9857 95.5895 63.0963 94.5719C63.2154 93.4817 63.1869 92.4325 61.9039 91.8784V91.8774ZM76.2108 93.3331C76.1729 93.2836 76.136 93.2331 76.0981 93.1836C76.2888 92.9539 76.4478 92.6853 76.6754 92.502C77.2621 92.0322 77.8857 91.6077 78.484 91.1505C79.095 90.6839 79.5795 90.1056 79.8091 89.363C80.378 87.5227 78.8337 85.8753 76.7849 86.1196C75.3323 86.2935 74.3811 87.1551 74.3348 88.3433C74.3084 89.0238 74.5686 89.3893 75.1174 89.4409C75.7126 89.4957 76.0823 89.2071 76.1876 88.5698C76.2509 88.1864 76.4215 87.8472 76.8123 87.8366C77.1452 87.8282 77.5444 87.9251 77.8025 88.1221C78.1248 88.3686 78.0879 88.8068 77.8657 89.1312C77.6308 89.4725 77.3442 89.7928 77.0303 90.0624C76.5532 90.4732 76.0349 90.8366 75.5314 91.2148C74.6234 91.8963 74.064 92.7201 74.1852 93.9378C74.2673 94.7605 74.4127 94.9954 75.2438 95.0027C76.5047 95.0143 77.7666 95.0101 79.0286 95.0048C79.6353 95.0027 79.9229 94.7289 79.9313 94.1695C79.9398 93.6133 79.6501 93.3363 79.0444 93.3342C78.0995 93.331 77.1546 93.3342 76.2098 93.3342L76.2108 93.3331ZM42.5145 91.179C42.6262 90.942 42.6957 90.785 42.7726 90.6312C43.3888 89.3935 44.0103 88.1579 44.6234 86.9192C44.8899 86.3809 44.7456 86.0259 44.1894 85.8068C43.6374 85.5888 43.1897 85.7647 42.8885 86.3461C41.9541 88.1484 41.0229 89.9539 40.1002 91.7615C39.7104 92.5242 39.9696 92.9466 40.8144 92.9508C41.7034 92.955 42.5925 92.9508 43.5426 92.9508C43.5426 93.2194 43.5426 93.4258 43.5426 93.6312C43.5426 93.8419 43.531 94.0526 43.5468 94.2622C43.5826 94.7594 43.9313 95.0101 44.5581 95.0069C45.1848 95.0027 45.5229 94.7436 45.5366 94.238C45.5472 93.8219 45.5387 93.4058 45.5387 92.9992C46.3857 92.8939 46.6522 92.7148 46.6764 92.1913C46.6869 91.9585 46.6669 91.6235 46.5226 91.5055C46.2645 91.2949 45.9 91.2127 45.564 91.0705C45.4629 89.8265 45.3828 89.6642 44.7034 89.6527C44.4011 89.6474 43.9429 89.6632 43.827 89.8444C43.5921 90.2099 43.5416 90.6944 43.4004 91.18H42.5145V91.179ZM29.6613 82.9311C30.4271 82.9311 31.1444 82.9395 31.8607 82.9279C32.3537 82.9206 32.5749 82.6699 32.5781 82.1611C32.5812 81.6534 32.3579 81.389 31.8734 81.3837C30.8389 81.3732 29.8045 81.3847 28.7691 81.3784C28.4583 81.3763 28.2624 81.4848 28.2276 81.8124C28.116 82.8932 27.9959 83.9718 27.8979 85.0536C27.86 85.4771 28.0854 85.7173 28.5152 85.7299C28.9703 85.7436 29.4264 85.7436 29.8825 85.7446C30.9843 85.7489 31.2972 86.087 31.1992 87.1762C31.1486 87.7387 30.8516 88.0252 30.2849 88.0589C29.7118 88.0926 29.3895 87.8619 29.2568 87.3237C29.1388 86.8444 28.7954 86.6558 28.2076 86.7369C27.7283 86.8033 27.485 87.0698 27.5124 87.5543C27.5577 88.3496 27.9717 88.9522 28.6795 89.2281C29.2494 89.4504 29.8983 89.5673 30.5113 89.5642C32.0956 89.5568 32.9826 88.5677 32.9868 86.9286C32.991 85.3349 32.1462 84.4595 30.5366 84.3974C30.2122 84.3847 29.8856 84.3953 29.5275 84.3953C29.5738 83.8749 29.6118 83.442 29.6581 82.9311H29.6613ZM91.1803 83.4293C91.1803 83.6527 91.1803 83.8412 91.1803 84.0308C91.1803 85.9595 91.1771 87.8883 91.1803 89.8159C91.1813 90.4785 91.4837 90.7345 92.2326 90.7366C92.9773 90.7376 93.2955 90.4743 93.2965 89.8275C93.2997 87.1804 93.2712 84.5322 93.3144 81.8861C93.326 81.1888 92.6013 80.7833 92.0293 81.0624C91.3709 81.3837 90.7516 81.7913 90.1438 82.2043C89.7582 82.4655 89.7171 82.988 89.9879 83.3798C90.2586 83.7706 90.5851 83.7422 90.9422 83.501C90.9949 83.4652 91.0697 83.462 91.1803 83.4293Z" fill="#0F6696"/>
<path d="M89.912 62.7337V70.9184H91.6195V70.3106C91.6195 67.5045 91.6248 64.6993 91.6132 61.8931C91.6121 61.554 91.6964 61.3106 91.9566 61.0757C93.0426 60.094 93.9622 58.9711 94.708 57.7091C94.7575 57.6259 94.8165 57.549 94.9577 57.3436C94.9577 57.6554 94.9577 57.8208 94.9577 57.9872C94.9577 62.4936 94.9598 67.0009 94.9577 71.5073C94.9577 72.5901 94.4559 73.345 93.4524 73.772C87.1922 76.4476 80.6803 78.2625 73.985 79.4434C68.1546 80.4715 62.2789 80.9844 56.3558 80.9202C52.0138 80.8728 47.7234 80.3429 43.4689 79.5024C42.2849 79.2685 41.1061 79.0009 39.9327 78.7144C39.7705 78.6744 39.5724 78.4553 39.5377 78.2889C39.4534 77.8812 39.426 77.4546 39.425 77.0364C39.4186 71.6358 39.4207 66.2341 39.4207 60.8334C39.4207 60.746 39.4207 60.6586 39.4207 60.5722L39.5577 60.4511C39.6177 60.568 39.6588 60.7028 39.742 60.8008C41.5717 62.9297 43.9313 64.2801 46.4836 65.3282C46.8902 65.4946 47.0282 65.6927 47.025 66.1287C47.0061 69.0392 47.0156 71.9507 47.0156 74.8612C47.0156 75.0845 47.0156 75.3068 47.0156 75.5554H48.7241V66.1772C52.5837 67.3812 56.4548 68.0238 60.4408 68.2745V77.4409H62.1472V68.3914C67.2413 68.5736 72.248 68.305 77.2694 67.4202V75.9546H78.9696V67.0894C82.8376 66.232 86.518 64.9974 89.9099 62.7348L89.912 62.7337Z" fill="#0F6696"/>
<path d="M22.4605 48.4922V58.968H24.168C24.168 58.7468 24.168 58.5582 24.168 58.3697C24.168 54.7218 24.1638 51.074 24.1807 47.4262C24.1807 47.1997 24.286 46.8932 24.4514 46.7615C27.404 44.4093 30.6831 42.6102 34.134 41.107C34.1782 41.088 34.233 41.0912 34.3278 41.0786V51.9525H36.0543V51.3584C36.0543 47.8686 36.0648 44.3788 36.0416 40.889C36.0385 40.4181 36.1933 40.239 36.6199 40.0779C39.8675 38.8465 43.1867 37.8658 46.5806 37.1316C46.6986 37.1063 46.8187 37.0916 46.9893 37.0631C47.0009 37.259 47.0199 37.4297 47.0199 37.5993C47.0209 39.3879 47.0093 41.1765 47.0272 42.9652C47.0315 43.338 46.8956 43.5171 46.568 43.6783C44.2074 44.8423 42.0406 46.2801 40.3025 48.291C38.575 50.2903 37.6312 52.5793 37.7049 55.2591C37.7407 56.5737 37.6965 57.8893 37.7197 59.205C37.727 59.6042 37.5985 59.7706 37.214 59.9013C33.3576 61.2211 29.6603 62.8865 26.2084 65.068C24.3366 66.251 22.5743 67.5772 20.9795 69.1193C20.8942 69.2015 20.7993 69.2742 20.6824 69.3742C18.7895 67.4097 17.3991 65.1955 16.9103 62.5052C16.1803 58.4855 17.3169 54.9072 19.6533 51.6649C20.3475 50.7022 21.1859 49.8437 21.9644 48.942C22.0834 48.804 22.2361 48.6934 22.4605 48.4922Z" fill="#0F6696"/>
<path d="M60.4532 47.7991V52.7562H62.1344V47.5442C63.0645 47.4694 63.9493 47.3788 64.8363 47.3324C67.3117 47.2008 69.7798 47.2461 72.2078 47.8107C72.8166 47.9518 73.4097 48.1846 73.9838 48.4385C74.3282 48.5912 74.6558 48.8261 74.9307 49.0873C76.0041 50.1133 75.7945 51.1509 74.403 51.6355C72.8092 52.1906 71.1386 52.258 69.4743 52.2864C67.5108 52.3201 65.5473 52.2991 63.5828 52.3012C63.3942 52.3012 63.2057 52.3012 62.976 52.3012V59.897C62.1354 59.7812 61.3454 59.6937 60.5628 59.5621C58.1895 59.1628 55.8689 58.5835 53.7106 57.4764C52.6867 56.9508 51.766 56.2861 51.0329 55.3918C50.2007 54.3774 50.0859 53.3219 50.8665 52.2559C51.3721 51.5649 52.0325 50.9381 52.7425 50.4567C54.5807 49.2106 56.6916 48.606 58.8363 48.1235C59.3619 48.0055 59.8928 47.9118 60.4543 47.8001L60.4532 47.7991Z" fill="#0F6696"/>
<path d="M43.5933 57.8872H45.3156V57.2678C45.3156 53.779 45.3209 50.2892 45.3082 46.8005C45.3072 46.4465 45.4009 46.2369 45.7201 46.0515C48.699 44.3177 51.9118 43.2211 55.2858 42.4406C55.3016 42.6186 55.3237 42.7555 55.3237 42.8924C55.3268 44.225 55.3153 45.5575 55.3321 46.89C55.3363 47.225 55.2236 47.3777 54.9076 47.4946C53.3391 48.0761 51.8539 48.8124 50.5951 49.9437C49.3016 51.1066 48.6169 52.5139 48.6411 54.2941C48.6832 57.4321 48.6527 60.5712 48.6527 63.7092V64.4413C47.2822 63.8029 45.9761 63.291 44.7689 62.6042C43.7271 62.0111 42.7412 61.2854 41.8279 60.5038C39.1197 58.1864 38.988 54.4785 39.9445 52.0747C40.6028 50.4188 42.2366 48.3816 43.5912 47.5789V57.8882L43.5933 57.8872Z" fill="#0F6696"/>
<path d="M107.585 67.9585V73.258C107.585 77.8159 107.58 82.3728 107.595 86.9308C107.596 87.3089 107.484 87.5344 107.166 87.7355C105.228 88.9617 103.301 90.2057 101.369 91.4424C101.241 91.5245 101.101 91.5867 100.906 91.6899C100.895 91.454 100.879 91.2707 100.879 91.0874C100.879 84.9167 100.883 78.7471 100.869 72.5765C100.869 72.1899 100.994 71.9992 101.321 71.8033C103.242 70.6509 105.147 69.468 107.056 68.2956C107.202 68.205 107.346 68.1112 107.584 67.9585H107.585Z" fill="#0F6696"/>
<path d="M81.5396 51.9673H83.184V45.3184C84.7956 45.8799 86.4684 48.2563 86.5316 50.0449C86.6011 52.0126 85.8995 53.6811 84.5123 55.0579C82.7331 56.8233 80.5147 57.7925 78.1594 58.5014C77.9255 58.5719 77.6885 58.6341 77.4515 58.6973C77.4199 58.7057 77.383 58.691 77.3061 58.6826C77.3061 57.7619 77.3061 56.836 77.3061 55.909C77.3061 54.191 77.2914 52.4729 77.3114 50.7549C77.3293 49.2306 76.6604 48.1004 75.4122 47.283C74.3535 46.5898 73.1601 46.2496 71.9382 45.9947C71.7707 45.9599 71.6032 45.922 71.4336 45.8862V41.5927C74.9666 42.0108 78.3785 42.7503 81.5396 44.2661V51.9673Z" fill="#0F6696"/>
<path d="M88.2285 61.7805V41.0006C88.9869 41.5157 89.66 41.936 90.2931 42.41C92.2819 43.9016 93.9599 45.667 94.6193 48.1319C95.4262 51.1477 94.8131 54.0119 93.3331 56.6948C92.1555 58.83 90.3942 60.4164 88.2285 61.7805Z" fill="#0F6696"/>
<path d="M57.1299 60.5522C60.9705 61.6193 64.8532 61.8542 68.816 61.672V66.6313C64.9175 66.8356 61.0316 66.7355 57.1299 66.2299V60.5522Z" fill="#0F6696"/>
<path d="M48.7769 42.6702C48.7569 42.449 48.7316 42.2984 48.7316 42.1477C48.7295 40.4992 48.7411 38.8517 48.7242 37.2032C48.72 36.8166 48.8327 36.6744 49.2351 36.6017C52.6723 35.9844 56.1347 35.6094 59.6256 35.4978C59.87 35.4904 60.1143 35.4978 60.3998 35.4978V39.844C56.4275 40.2717 52.5575 41.1681 48.7769 42.6702Z" fill="#0F6696"/>
<path d="M57.0721 46.7752C57.0553 46.5487 57.0353 46.397 57.0353 46.2443C57.0332 44.9992 57.0332 43.7541 57.0353 42.509C57.0353 42.2815 57.0079 42.0698 57.3439 42.0087C61.4026 41.2671 65.4854 41.0733 69.5957 41.4156C69.6104 41.4167 69.6231 41.4346 69.6705 41.4683V45.6744C65.4159 45.3616 61.234 45.7208 57.0732 46.7752H57.0721Z" fill="#0F6696"/>
<path d="M81.4606 59.1187V64.632C79.8542 65.3546 72.5586 66.5965 70.6035 66.4743V61.5856C74.3082 61.2665 77.9634 60.6345 81.4606 59.1197V59.1187Z" fill="#0F6696"/>
<path d="M74.7309 36.5891V40.3675C70.5701 39.5628 66.403 39.3858 62.1821 39.6744V35.4894C66.3872 35.5463 70.5491 35.8728 74.7309 36.5891Z" fill="#0F6696"/>
<path d="M86.539 45.8145C83.7317 42.8598 80.1587 41.6779 76.4824 40.7109V36.9398C76.7574 36.9851 77.007 37.0146 77.2514 37.0673C80.3019 37.7246 83.2746 38.621 86.1145 39.9324C86.421 40.0736 86.5537 40.2253 86.5484 40.5887C86.5242 42.2846 86.5379 43.9816 86.5379 45.8134L86.539 45.8145Z" fill="#0F6696"/>
<path d="M64.7036 54.0066H70.513V59.9044H64.7036V54.0066Z" fill="#0F6696"/>
<path d="M50.3989 57.213C51.8052 58.5255 53.3989 59.3124 55.0906 59.9286C55.2097 59.9718 55.3751 60.1214 55.3761 60.2225C55.393 62.1312 55.3887 64.0399 55.3887 66.0361C53.6907 65.66 52.0548 65.2976 50.4 64.9311V57.213H50.3989Z" fill="#0F6696"/>
<path d="M86.5389 55.5593V55.8068C86.5389 57.9768 86.5326 60.1467 86.5463 62.3156C86.5484 62.62 86.4642 62.7949 86.1766 62.9139C85.2127 63.3131 84.2584 63.7324 83.2008 64.1864C83.2008 63.8146 83.2008 63.5607 83.2008 63.3068C83.2008 61.7499 83.2092 60.192 83.1934 58.6351C83.1903 58.3244 83.2872 58.1485 83.5421 57.9536C84.5607 57.1762 85.5477 56.3567 86.5389 55.5582V55.5593Z" fill="#0F6696"/>
<path d="M72.2954 53.9128C73.4078 53.64 74.4864 53.3756 75.5746 53.108V59.1733C74.5022 59.3472 73.4236 59.521 72.2954 59.7032V53.9128Z" fill="#0F6696"/>
</g>
<defs>
<clipPath id="clip0_740_2056">
<rect width="90.906" height="67.3178" fill="white" transform="translate(16.689 35.4894)"/>
</clipPath>
</defs>
</svg>
