<svg width="68" height="74" viewBox="0 0 68 74" fill="none" xmlns="http://www.w3.org/2000/svg">
<g clip-path="url(#clip0_705_8485)">
<path d="M34.0146 73.2393C24.6635 73.2393 15.3132 73.2426 5.96205 73.2302C5.34562 73.2302 4.72005 73.1504 4.11442 73.0308C2.12557 72.637 1.04474 71.3468 0.67837 69.4078C0.368494 67.7679 0.390094 66.1113 0.462371 64.4523C0.494771 63.7062 0.507232 62.9594 0.507232 62.2125C0.510555 47.8128 0.507232 33.4131 0.520525 19.0135C0.520525 18.3704 0.600278 17.7133 0.748985 17.0877C1.07132 15.7261 1.96357 14.9601 3.35676 14.8879C4.73501 14.8164 6.11823 14.858 7.49814 14.8197C8.54657 14.7907 9.59416 14.7259 10.6393 14.6478C10.9018 14.6278 10.9741 14.6835 10.9923 14.9402C11.2524 18.6554 13.9648 21.5839 17.7324 22.1554C21.3894 22.7095 25.1287 20.729 26.4421 17.052C26.6938 16.3475 26.7736 15.5774 26.8841 14.8297C26.9248 14.5531 26.9863 14.4484 27.2754 14.4492C31.7707 14.4559 36.2668 14.455 40.7621 14.4509C40.9914 14.4509 41.1118 14.4974 41.1234 14.7674C41.2805 18.5723 44.0868 21.5764 47.8668 22.1529C51.8844 22.766 55.828 20.3144 56.815 16.3093C56.9263 15.8565 56.9703 15.3855 57.0218 14.9203C57.0443 14.7209 57.0816 14.6278 57.3151 14.6353C59.0107 14.6951 60.7071 14.7375 62.4035 14.7923C63.2169 14.8189 64.0426 14.7824 64.841 14.9128C66.4967 15.1836 67.3715 16.1872 67.4131 17.9185C67.4837 20.8486 67.497 23.7804 67.4995 26.7122C67.5103 38.8572 67.5053 51.0013 67.5136 63.1463C67.5144 64.4456 67.6291 65.7483 67.5643 67.0426C67.5111 68.1085 67.3674 69.1918 67.0891 70.2203C66.6338 71.9018 65.3918 72.8139 63.7128 73.0565C62.6794 73.2061 61.6218 73.2301 60.575 73.231C51.7224 73.2434 42.8697 73.2385 34.0171 73.2376L34.0146 73.2393ZM47.9133 48.1501C47.9648 48.1244 48.0163 48.0978 48.0678 48.072C48.4899 45.7808 48.9119 43.4895 49.3514 41.1052C48.6951 41.327 48.1517 41.5098 47.5918 41.6992C47.5287 41.5754 47.4747 41.4816 47.4315 41.3827C45.0771 36.0409 41.0395 32.9122 35.2291 32.1587C32.8465 31.8496 30.5137 32.1504 28.2731 33.0252C21.2897 35.7526 17.43 42.9113 19.0408 50.2353C20.7015 57.787 27.9234 62.8705 35.7625 61.7423C38.887 61.2929 41.6036 59.9495 43.8957 57.7687C45.4517 56.2883 46.6273 54.5487 47.4323 52.5598C47.4913 52.4128 47.5395 52.1561 47.4622 52.0763C46.7236 51.3145 45.9568 50.5809 45.1502 49.7917C45.0713 49.9969 45.0098 50.1298 44.9691 50.2694C43.158 56.4412 36.8209 60.0509 30.6184 58.4425C24.3021 56.8042 20.4855 50.3085 22.1321 44.0004C23.6748 38.0904 29.3955 34.3129 35.4302 35.2898C39.5118 35.9503 42.4485 38.2225 44.2945 41.9094C44.7057 42.7302 44.6849 42.7385 43.8334 43.0376C43.4662 43.1663 43.1007 43.3001 42.6446 43.4638C44.4606 45.0804 46.1861 46.6165 47.9125 48.1526L47.9133 48.1501ZM40.232 50.8352C40.0592 50.6831 39.9288 50.5627 39.7917 50.4497C38.7333 49.5832 37.6683 48.7234 36.6199 47.8452C36.4977 47.743 36.3798 47.5254 36.4005 47.3825C36.5575 46.3324 36.1031 45.3272 35.1511 44.8578C34.7938 44.6817 34.6966 44.4748 34.6991 44.0993C34.7157 41.7358 34.7016 39.3714 34.7149 37.0079C34.7166 36.6623 34.6094 36.536 34.2663 36.5618C33.9639 36.5842 33.6565 36.5875 33.3549 36.5584C32.9354 36.5186 32.8083 36.6772 32.8108 37.0976C32.8291 39.5301 32.8166 41.9634 32.8266 44.3959C32.8274 44.695 32.7535 44.8943 32.5026 45.0912C31.5447 45.8398 31.2971 47.1108 31.8712 48.141C32.4527 49.1844 33.6474 49.6546 34.778 49.2509C35.0863 49.1404 35.2856 49.2077 35.5183 49.4004C36.5924 50.291 37.6749 51.1725 38.7657 52.0439C38.8629 52.122 39.1146 52.1727 39.1645 52.1179C39.5342 51.7141 39.8706 51.2796 40.232 50.8368V50.8352Z" fill="#F5AF02"/>
<path d="M15.446 8.82669C15.446 6.29617 15.4527 3.76565 15.4386 1.23514C15.4369 0.878739 15.525 0.757447 15.8996 0.76077C17.8636 0.778216 19.8267 0.777386 21.7906 0.759109C22.1719 0.755786 22.2808 0.861293 22.2791 1.24677C22.2666 6.23885 22.2633 11.2309 22.2783 16.223C22.2808 17.0513 21.9401 17.6577 21.2971 18.123C19.9455 19.1 17.6675 19.0759 16.3433 18.0656C15.7509 17.6137 15.4336 17.0305 15.4394 16.2521C15.4585 13.7772 15.446 11.3015 15.446 8.82586V8.82669Z" fill="#F5AF02"/>
<path d="M45.4667 0.788927C45.6112 0.78145 45.7333 0.76982 45.8546 0.76982C47.8186 0.768158 49.7825 0.777297 51.7464 0.75985C52.1311 0.756527 52.2764 0.849573 52.2756 1.26246C52.2632 6.26867 52.2598 11.2749 52.274 16.2811C52.2765 17.1908 51.8544 17.8271 51.1117 18.2409C49.6072 19.0791 48.0719 19.0741 46.5757 18.2109C45.833 17.7823 45.4575 17.1318 45.4608 16.2271C45.4799 11.4286 45.4683 6.62922 45.4667 1.83071C45.4667 1.50089 45.4667 1.17025 45.4667 0.788097V0.788927Z" fill="#F5AF02"/>
</g>
<defs>
<clipPath id="clip0_705_8485">
<rect width="67.165" height="72.4819" fill="white" transform="translate(0.41748 0.759033)"/>
</clipPath>
</defs>
</svg>
