<svg width="739" height="558" viewBox="0 0 739 558" fill="none" xmlns="http://www.w3.org/2000/svg">
<g clip-path="url(#clip0_425_4395)">
<path d="M486.638 36.5482L492.876 31.9972C492.876 31.9972 493.887 26.2146 495.483 23.0674C495.483 23.0674 497.986 18.4123 498.077 13.336C498.077 13.336 497.932 11.4477 498.403 10.4877C498.503 10.2839 498.684 10.1299 498.897 10.0665C499.115 10.0031 499.351 10.0303 499.546 10.1435C500.344 10.6099 502.053 11.9322 501.831 14.6039L501.346 17.9368C501.346 17.9368 501.377 19.4402 502.225 18.8424L514.213 9.92617C514.213 9.92617 515.822 8.80767 516.675 10.1164C516.675 10.1164 517.84 10.9994 516.108 12.7564L507.172 20.8847C507.172 20.8847 509.203 20.1557 510.368 21.727C510.368 21.727 511.288 22.5919 510.79 24.1044C510.79 24.1044 512.807 25.6032 511.325 27.2968C511.325 27.2968 513.768 28.4968 511.166 31.2591C511.166 31.2591 506.183 35.1308 502.633 36.1316L497.737 38.1286L491.398 42.8788L486.642 36.5482H486.638Z" fill="#F79556"/>
<path d="M496.549 40.4154L400.544 122.605L391.676 130.19L379.108 140.962C375.708 144.178 371.056 145.83 366.382 145.486C361.707 145.147 357.45 142.878 354.702 139.228L354.308 138.703C349.121 131.802 350.722 122.03 357.894 116.795L490.705 32.2056L496.549 40.42V40.4154Z" fill="#483193"/>
<path d="M400.544 122.604L391.676 130.189C390.062 124.76 385.687 111.913 385.687 111.913L400.544 122.604Z" fill="#2A1968"/>
<path d="M693.917 64.0805L677.223 80.7583L658.571 99.3833L319.819 437.713L201.195 556.188H89.0498L207.669 437.713L637.842 8.07861L693.917 64.0805Z" fill="#F5AF02"/>
<path d="M592.095 416.235L583.149 424.816L569.711 437.713L446.268 556.187H359.276L482.729 437.713L550.324 372.84L561.881 384.84L592.095 416.235Z" fill="#AE9AE3"/>
<path d="M117.576 303.534C117.599 303.099 117.613 302.664 117.613 302.225C117.576 288.636 106.518 277.646 92.9122 277.682C83.7584 277.704 75.7878 282.717 71.5623 290.126C67.9851 296.397 60.3591 299.132 53.6037 296.556C51.704 295.831 49.6456 295.433 47.4875 295.437C41.3713 295.451 36.0214 298.689 33.0381 303.534H117.581H117.576Z" fill="#E5E5E5"/>
<path d="M130.544 27.6997C136.238 27.6861 141.407 29.9367 145.202 33.582C151.218 39.3692 160.368 37.9926 165.21 31.4446C167.658 28.1389 167.88 23.914 170.437 20.6717C173.167 17.2076 177.41 15.1426 181.822 15.1336C186.061 15.1245 190.155 17.0038 192.907 20.2234C197.096 25.1231 195.591 31.8295 201.707 35.5609C206.803 38.6718 213.473 37.9654 217.771 33.8356C221.507 30.2356 226.594 28.0212 232.193 28.0348C236.242 28.0438 240.014 29.2212 243.201 31.2363C246.116 32.9163 248.547 35.348 250.215 38.2688C252.963 43.0915 258.82 45.1881 264.007 43.2092C265.467 42.6522 267.049 42.3443 268.704 42.3488C273.401 42.3624 277.509 44.8485 279.803 48.5662H109.557C109.634 37.0507 118.992 27.7223 130.548 27.6906L130.544 27.6997Z" fill="#E5E5E5"/>
<path d="M630.12 190.072C631.517 186.354 634.74 183.529 638.698 182.686C643.055 181.753 646.297 178.09 646.691 173.657C647.222 167.621 652.3 162.888 658.479 162.907C664.183 162.92 668.93 166.968 670.018 172.339C671.804 180.676 682.074 183.818 688.231 177.895V177.904C691.314 174.929 695.512 173.104 700.141 173.113C709.531 173.136 717.134 180.716 717.197 190.072H630.12Z" fill="#E5E5E5"/>
<path d="M609.106 239.485L603.601 244.983L594.942 253.627L321.183 527.052H277.576L587.298 217.704L609.106 239.485Z" fill="#AE9AE3"/>
<path d="M734.371 449.269L656.493 527.052H600.224L706.234 421.166L734.371 449.269Z" fill="#AE9AE3"/>
<path d="M300.404 286.87L293.309 293.952L285.207 302.049L59.9281 527.052H10.5635L275.722 262.204L300.404 286.87Z" fill="#AE9AE3"/>
<path d="M461.773 552.601C461.356 552.234 460.839 551.985 460.304 551.868C458.686 551.532 453.789 550.532 452.824 548.449C452.039 546.764 448.929 535.851 448.929 535.851L441.788 537.359V555.988H443.357L444.658 544.011L449.151 555.988H463.111C463.478 554.385 462.544 553.235 461.773 552.601Z" fill="#2A1968"/>
<path d="M407.272 246.735L451.427 535.511L440.151 538.328L355.586 256.077L407.272 246.735Z" fill="#2A1968"/>
<path d="M339.854 87.356C342.556 83.9145 344.066 79.6262 344.147 75.1658C344.224 65.3891 349.515 56.0924 358.574 51.623C360.383 50.7309 362.247 50.0788 364.128 49.6532C367.089 48.9377 369.841 47.5158 372.158 45.4961C373.123 44.6403 374.207 43.9022 375.408 43.309C382.867 39.6274 391.875 42.9286 395.539 50.6856C397.37 54.5664 397.515 58.8275 396.269 62.577C395.289 65.5295 394.99 68.6902 395.398 71.7967C396.269 77.3575 395.389 82.9726 393.041 87.8541C390.61 92.9168 386.602 97.1644 381.298 99.7863C378.818 101.013 376.233 101.783 373.636 102.136C369.396 102.779 365.497 104.853 362.546 108.041C361.335 109.359 359.88 110.482 358.193 111.311C350.735 114.992 341.726 111.691 338.063 103.934C335.402 98.301 336.304 91.8662 339.849 87.356H339.854Z" fill="#483193"/>
<path d="M373.414 105.152C373.935 112.524 368.581 118.896 361.48 119.389C358.533 119.593 355.745 118.764 353.451 117.18C350.218 114.952 347.97 111.261 347.666 106.945C347.593 105.899 347.634 104.885 347.784 103.893C347.874 103.413 347.97 102.956 348.06 102.503C348.083 102.431 348.092 102.372 348.115 102.299C348.672 100.316 349.643 98.5183 350.957 97.0285C353.12 94.5696 356.149 92.9484 359.599 92.7084C366.699 92.2148 372.892 97.7802 373.414 105.152Z" fill="#483193"/>
<path d="M366.861 107.561L386.416 119.702L390.496 100.017L392.074 90.1318L392.473 87.7091L379.783 73.7981L366.861 107.561Z" fill="#D66730"/>
<path d="M384.557 84.0232C383.923 90.5983 384.789 95.824 390.497 100.022L392.07 90.1364L384.557 84.0277V84.0232Z" fill="#D66730"/>
<path d="M380.644 83.697C381.424 83.9189 382.127 84.562 382.603 85.3137C385.192 89.1763 389.395 90.9967 393.253 90.9741C394.876 90.9741 396.418 90.6571 397.773 90.0186C401.205 88.4518 403.354 84.9333 401.949 79.7483C401.79 79.1551 398.585 72.8834 398.535 72.974L398.512 72.9242C398.911 72.5981 399.537 72.1 399.972 71.7875C400.335 71.5113 400.435 71.0132 400.253 70.6283L400.203 70.5241C400.045 70.189 399.736 69.9264 399.437 69.8177L393.765 66.8381L391.748 64.2569C391.208 63.5641 390.664 62.8758 390.111 62.2237C389.485 61.4811 388.882 60.7882 388.279 60.0954C388.171 59.9912 388.093 59.9007 387.985 59.7965C385.092 56.9165 381.66 54.7791 377.933 53.5203C380.123 64.7958 381.959 73.694 381.959 73.694L380.164 75.0298C379.252 73.8162 377.974 72.4713 377.171 72.0049C375.961 71.3256 374.632 71.2441 373.612 71.8147C372.592 72.3808 372.112 73.5128 372.08 74.8713C371.88 80.0472 376.999 82.6918 380.635 83.7061L380.644 83.697Z" fill="#F79556"/>
<path d="M380.205 75.3469L390.982 70.1213C391.821 71.7696 393.145 73.676 394.419 74.1152C394.673 74.2013 394.908 74.2285 395.131 74.1877C395.235 74.1696 395.33 74.1379 395.425 74.0881C396.794 73.4134 396.232 70.3431 394.963 67.6578C394.147 65.928 392.705 63.7408 391.331 63.2608C390.959 63.1295 390.619 63.1386 390.325 63.288C389.023 63.931 389.468 66.7341 390.601 69.3152L379.824 74.5409L380.205 75.3469ZM390.71 64.094C390.71 64.094 390.755 64.0759 390.783 64.0714C390.878 64.0533 390.987 64.0805 391.068 64.1076C391.794 64.3612 393.077 65.6971 394.183 68.0428C395.507 70.8503 395.579 73.0239 395.044 73.2866C394.936 73.3409 394.791 73.3092 394.686 73.273C393.961 73.0194 392.678 71.6835 391.571 69.3379C390.248 66.5303 390.175 64.3567 390.71 64.094Z" fill="white"/>
<path d="M336.848 147.891L349.261 208.027L352.839 225.37L351.288 240.4L406.61 236.053L403.373 203.675L400.539 175.387C405.663 172.706 406.583 165.931 406.579 161.394C406.574 158.944 406.071 156.503 405.128 154.253L389.935 120.671L362.732 104.826L345.716 123.451L342.483 126.988C337.401 132.553 335.297 140.364 336.848 147.886V147.891Z" fill="#CBC5DD"/>
<path d="M392.338 112.76L388.375 126.902L362.813 105.859L366.889 98.7222L392.338 112.76Z" fill="white"/>
<path d="M520.9 246.726L438.451 411.421L427.393 407.002L469.44 274.353L385.65 286.122C375.326 287.581 364.935 283.917 357.789 276.337C356.57 275.037 355.464 273.647 354.507 272.189C351.737 268.068 349.987 263.386 349.356 258.518C348.898 255.04 349.016 251.485 349.737 247.971L351.288 240.4L507.978 227.635C512.748 227.241 517.359 229.446 520.038 233.408C522.718 237.357 523.044 242.46 520.904 246.726H520.9Z" fill="#483193"/>
<path d="M314.717 309.185C311.204 309.185 308.343 312.043 308.343 315.552V326.502H312.446V315.552C312.446 314.298 313.466 313.279 314.722 313.279H328.845V309.181H314.722L314.717 309.185Z" fill="#2A1968"/>
<path d="M371.454 321.679H276.085C274.983 321.679 274.09 322.571 274.09 323.671V397.429C274.09 398.529 274.983 399.421 276.085 399.421H371.454C372.556 399.421 373.449 398.529 373.449 397.429V323.671C373.449 322.571 372.556 321.679 371.454 321.679Z" fill="#2A1968"/>
<path d="M322.058 342.097H325.481C326.283 342.097 326.936 342.749 326.936 343.551V350.488C326.936 351.29 326.283 351.942 325.481 351.942H322.058C321.255 351.942 320.603 351.29 320.603 350.488V343.551C320.603 342.749 321.255 342.097 322.058 342.097Z" fill="#8C92E5"/>
<path d="M325.599 295.559L325.069 299.404L328.741 303.181C330.052 304.381 330.836 305.422 331.249 306.681C331.249 306.681 332.096 313.17 332.214 314.474C332.214 314.474 332.563 317.726 329.657 317.377C328.356 319.388 325.826 319.41 323.985 317.812C323.985 317.812 320.594 320.203 318.554 316.431C318.554 316.431 318.391 316.467 318.132 316.489C317.284 316.553 316.944 316.363 316.377 315.733C315.806 315.104 315.561 314.243 315.711 313.406L318.445 300.024L319.338 294.663L325.599 295.555V295.559Z" fill="#F79556"/>
<path d="M332.821 309.185H329.738V313.283H332.821C334.073 313.283 335.097 314.302 335.097 315.557V326.103H339.2V315.557C339.2 312.043 336.34 309.19 332.826 309.19L332.821 309.185Z" fill="#2A1968"/>
<path d="M440.723 430.612C440.569 430.078 440.27 429.589 439.884 429.199C438.701 428.045 435.128 424.558 435.441 422.28C435.695 420.442 438.986 409.578 438.986 409.578L432.163 406.988L422.075 422.656L423.395 423.503L430.975 414.134L428.268 426.632L440.011 434.176C441.185 433.026 441.022 431.554 440.723 430.608V430.612Z" fill="#483193"/>
<path d="M592.094 416.235L583.149 424.816L561.881 384.84L592.094 416.235Z" fill="#8776C4"/>
<path d="M612.969 438.881V353.341H527.324L612.969 438.881Z" fill="#AE9AE3"/>
<path d="M293.309 293.952L285.207 302.049L274.67 279.443L293.309 293.952Z" fill="#8776C4"/>
<path d="M303.968 309.797V258.658H252.768L303.968 309.797Z" fill="#AE9AE3"/>
<path d="M603.602 244.983L594.942 253.627L584.355 229.301L603.602 244.983Z" fill="#8776C4"/>
<path d="M612.243 259.74V214.57H567.018L612.243 259.74Z" fill="#AE9AE3"/>
<path d="M726.9 456.732L716.98 466.64L703.256 439.207L726.9 456.732Z" fill="#8776C4"/>
<path d="M738.43 475.393V417.118H680.079L738.43 475.393Z" fill="#AE9AE3"/>
<path d="M677.223 80.7582L658.571 99.3832L633.983 43.8931L677.223 80.7582Z" fill="#CA9000"/>
<path d="M701.996 116.165V0H585.688L701.996 116.165Z" fill="#F5AF02"/>
<path d="M391.127 255.344L354.507 272.189C351.737 268.068 349.987 263.386 349.356 258.518L391.127 255.344Z" fill="#2A1968"/>
<path d="M398.667 255.855L345.603 261.167C342.293 245.816 348.559 233.327 349.307 230.954C350.504 227.109 351.619 225.497 351.619 225.497L348.296 208.104L346.6 199.328L346.26 197.571L340.285 166.529L336.658 147.728C335.819 143.358 336.2 138.884 337.696 134.845C338.721 132.023 340.298 129.388 342.361 127.133L342.493 126.988L345.725 123.46L362.736 104.831L384.463 118.28C388.824 122.401 388.52 128.695 388.52 128.695L394.469 204.391L398.672 255.855H398.667Z" fill="#483193"/>
<path d="M362.532 147.678L351.619 225.497L348.295 208.104L346.6 199.328L362.532 147.678Z" fill="#2A1968"/>
<path d="M326.529 298.879L367.587 144.739C369.152 136.167 363.67 128.129 355.305 126.721L354.67 126.617C350.25 125.874 345.671 127.128 342.112 130.049C338.553 132.97 336.367 137.281 336.118 141.868L316.98 297.511L326.529 298.883V298.879Z" fill="#483193"/>
<path d="M333.429 273.62C333.375 273.62 333.321 273.611 333.262 273.597C332.917 273.506 332.713 273.153 332.804 272.809L334.205 267.547C334.295 267.203 334.649 266.999 334.994 267.09C335.338 267.18 335.542 267.534 335.452 267.878L334.051 273.14C333.973 273.425 333.715 273.615 333.429 273.615V273.62Z" fill="#2A1968"/>
<path d="M335.882 264.4C335.827 264.4 335.773 264.391 335.714 264.377C335.369 264.287 335.165 263.934 335.256 263.59L366.952 144.599C368.222 137.58 364.481 130.665 358.057 128.147C357.726 128.016 357.562 127.645 357.694 127.314C357.825 126.983 358.197 126.82 358.528 126.952C365.533 129.696 369.604 137.226 368.217 144.857L368.208 144.907L336.503 263.925C336.426 264.21 336.167 264.4 335.882 264.4Z" fill="#2A1968"/>
<path d="M394.899 210.671C394.568 210.671 394.287 210.413 394.26 210.078L387.872 128.704V128.663C387.876 128.604 388.103 122.645 384.059 118.783L381.801 117.383C381.497 117.198 381.406 116.799 381.592 116.5C381.778 116.197 382.177 116.106 382.476 116.292L384.893 117.804C389.282 121.943 389.178 128.057 389.155 128.681L395.538 209.979C395.566 210.332 395.303 210.64 394.949 210.671C394.931 210.671 394.913 210.671 394.899 210.671Z" fill="#2A1968"/>
<path d="M395.525 218.664C395.194 218.664 394.913 218.406 394.886 218.071L394.555 213.841C394.527 213.488 394.79 213.18 395.144 213.148C395.498 213.121 395.806 213.384 395.838 213.737L396.169 217.967C396.196 218.32 395.933 218.628 395.579 218.659C395.561 218.659 395.543 218.659 395.529 218.659L395.525 218.664Z" fill="#2A1968"/>
<path d="M379.566 115.93C379.452 115.93 379.339 115.898 379.235 115.839L377.022 114.508C376.719 114.327 376.619 113.928 376.805 113.625C376.986 113.321 377.385 113.222 377.689 113.407L379.901 114.739C380.205 114.92 380.305 115.318 380.119 115.622C379.997 115.821 379.788 115.934 379.566 115.934V115.93Z" fill="#2A1968"/>
<path d="M375.118 113.145C375.004 113.145 374.891 113.113 374.787 113.054L362.296 105.528C361.992 105.347 361.892 104.949 362.078 104.645C362.259 104.342 362.658 104.242 362.962 104.428L375.458 111.954C375.761 112.135 375.861 112.534 375.675 112.837C375.553 113.036 375.34 113.149 375.122 113.149L375.118 113.145Z" fill="#2A1968"/>
<path d="M346.377 224.501C346.323 224.501 346.269 224.492 346.21 224.478L340.37 222.925C340.025 222.834 339.821 222.481 339.912 222.137C340.003 221.793 340.356 221.589 340.701 221.68L346.541 223.233C346.885 223.323 347.089 223.677 346.999 224.021C346.921 224.306 346.663 224.496 346.377 224.496V224.501Z" fill="#2A1968"/>
<path d="M486.873 555.902H481.813V557.188H486.873V555.902Z" fill="#2A1968"/>
<path d="M223.783 555.902H71.998V557.188H223.783V555.902Z" fill="#2A1968"/>
<path d="M87.1772 526.364H81.7275V527.65H87.1772V526.364Z" fill="#2A1968"/>
<path d="M77.4474 526.364H0V527.65H77.4474V526.364Z" fill="#2A1968"/>
<path d="M339.763 526.364H265.815V527.65H339.763V526.364Z" fill="#2A1968"/>
<path d="M673.682 526.364H584.17V527.65H673.682V526.364Z" fill="#3B3B7F"/>
<path d="M579.885 526.364H573.66V527.65H579.885V526.364Z" fill="#2A1968"/>
<path d="M476.753 555.902H345.888V557.188H476.753V555.902Z" fill="#2A1968"/>
</g>
<defs>
<clipPath id="clip0_425_4395">
<rect width="738.43" height="557.188" fill="white"/>
</clipPath>
</defs>
</svg>
