<svg width="68" height="77" viewBox="0 0 68 77" fill="none" xmlns="http://www.w3.org/2000/svg">
<g clip-path="url(#clip0_705_8511)">
<path d="M35.335 69.2444C35.335 68.5224 35.335 67.8482 35.335 67.174C35.335 65.7809 35.335 64.3878 35.3367 62.9948C35.3375 62.0934 35.8612 61.6025 36.8221 61.6025C41.4265 61.6017 46.0317 61.6025 50.6361 61.6025H51.4608C51.4608 61.4511 51.4608 61.3124 51.4608 61.1745C51.4608 59.2244 51.4608 57.2735 51.4617 55.3233C51.4617 54.473 51.9997 53.9606 52.8933 53.9598C57.3161 53.9582 61.7389 53.9574 66.1617 53.9598C67.0301 53.9598 67.5824 54.4778 67.5824 55.2954C67.585 62.3939 67.5833 69.4923 67.5833 76.5899C67.5833 76.6688 67.5833 76.7469 67.5833 76.8561H19.2302C19.2243 76.7334 19.2117 76.6051 19.2117 76.4776C19.2108 74.5274 19.21 72.5765 19.2117 70.6264C19.2117 69.7489 19.743 69.246 20.6677 69.246C25.3839 69.2444 30.1009 69.2452 34.8171 69.2444C34.9693 69.2444 35.1223 69.2444 35.335 69.2444Z" fill="#4599E4"/>
<path d="M48.7707 38.6696V39.1773C48.7707 44.9488 48.7723 50.7211 48.769 56.4926C48.769 57.7111 47.9518 58.6898 46.7144 58.9799C45.5172 59.2604 44.252 58.748 43.7165 57.6848C43.5139 57.2832 43.4105 56.797 43.4097 56.3492C43.3929 46.6893 43.3971 37.0303 43.3971 27.3705C43.3971 25.8061 43.3971 24.2417 43.3971 22.5912C43.0726 22.8319 42.8027 23.0279 42.5362 23.2295C42.0335 23.6105 41.5467 24.0122 41.0247 24.3676C40.7607 24.5477 40.6993 24.7469 40.701 25.0338C40.7119 27.0238 40.7094 29.0146 40.7052 31.0046C40.7019 32.3355 39.667 33.4472 38.3328 33.566C36.8869 33.6943 35.6385 32.8184 35.3669 31.4756C35.3358 31.321 35.3358 31.1592 35.3358 30.9998C35.3341 28.479 35.3383 25.9575 35.3325 23.4368C35.3308 22.5824 35.6771 21.8923 36.3749 21.3615C38.58 19.6855 40.7884 18.0135 42.9961 16.3399C43.5282 15.9367 44.1251 15.7342 44.8153 15.7366C47.5307 15.747 50.246 15.7454 52.9614 15.7326C53.1817 15.7319 53.4322 15.6609 53.6155 15.547C55.6356 14.2862 57.649 13.0135 59.654 11.7304C59.8213 11.6228 59.9718 11.4315 60.0374 11.249C60.8049 9.10681 61.5489 6.95665 62.3114 4.81285C62.7427 3.5999 63.8145 2.92647 65.1403 3.00697C66.3038 3.0771 67.3168 3.91389 67.5278 5.07425C67.6035 5.48867 67.5699 5.96205 67.4345 6.36212C66.572 8.90678 65.6682 11.4387 64.7763 13.9738C64.5543 14.6034 64.1189 15.0624 63.5363 15.4274C61.4363 16.7424 59.3514 18.0797 57.2464 19.3875C56.9235 19.5883 56.8235 19.8003 56.8243 20.1533C56.8361 24.9964 56.8344 29.8394 56.8277 34.6825C56.8277 34.9375 56.895 35.1232 57.0925 35.3081C58.467 36.5944 59.8171 37.9046 61.1992 39.1829C61.8911 39.8236 62.229 40.5552 62.2181 41.4829C62.1895 43.9239 62.2097 46.3658 62.2063 48.8068C62.2047 50.1521 61.2059 51.2527 59.8659 51.3977C58.4334 51.5523 57.1707 50.6876 56.8765 49.3392C56.8369 49.1599 56.8369 48.9702 56.8369 48.7853C56.8344 46.7284 56.8411 44.6723 56.8252 42.6153C56.8235 42.4304 56.7277 42.2017 56.5923 42.0702C55.4877 40.9975 54.367 39.9392 53.2405 38.8872C53.1254 38.7796 52.9396 38.68 52.7849 38.6776C51.4701 38.6609 50.1544 38.668 48.7698 38.668L48.7707 38.6696Z" fill="#4599E4"/>
<path d="M10.6485 34.2267C8.77129 34.8165 7.5044 35.8995 6.94955 37.648C6.49979 39.0666 6.1114 40.5027 5.67004 41.9236C5.29846 43.1199 4.21063 43.8172 2.86891 43.7614C1.72307 43.7136 0.686519 42.872 0.460377 41.7204C0.381354 41.3188 0.410777 40.8661 0.519224 40.4684C0.909298 39.0347 1.29769 37.5962 1.78864 36.1912C3.25142 32.0088 6.29803 29.5741 10.9133 28.9597C14.2054 28.5213 17.5034 28.1189 20.7997 27.7085C23.9026 27.3219 27.0064 26.9474 30.1102 26.5656C30.9391 26.4636 31.7671 26.3513 32.6229 26.2405V31.3936C31.7158 31.5091 30.8071 31.6271 29.8975 31.7394C27.8891 31.9881 25.8807 32.2351 23.8715 32.4782C23.6134 32.5093 23.5142 32.6097 23.4688 32.8719C22.6029 37.8616 21.7211 42.8481 20.8434 47.8354C20.8367 47.8729 20.8384 47.9119 20.8341 47.9812C22.0935 48.5957 23.3587 49.2117 24.6231 49.8294C25.0325 50.0294 25.4478 50.2207 25.8488 50.4351C26.7786 50.9324 27.267 51.6903 27.2687 52.7072C27.2729 56.5014 27.272 60.2957 27.2687 64.09C27.2678 65.5707 26.1153 66.692 24.6012 66.696C23.0603 66.7 21.9001 65.5859 21.8984 64.0836C21.8942 60.9396 21.8909 57.7949 21.9068 54.6509C21.9085 54.3345 21.795 54.1839 21.5134 54.0476C18.3785 52.5302 15.2495 51.0009 12.1189 49.4771C9.86081 48.3781 8.75868 46.208 9.17062 43.8451C9.56489 41.5857 9.87846 39.3136 10.2282 37.0471C10.356 36.2215 10.4854 35.3966 10.6132 34.5718C10.6267 34.4833 10.6317 34.3933 10.6485 34.2275V34.2267Z" fill="#4599E4"/>
<path d="M25.9266 19.5303C25.9316 23.0736 22.9581 25.926 19.2531 25.9308C15.4934 25.9364 12.493 23.1159 12.4913 19.5749C12.4896 16.0371 15.4691 13.1975 19.185 13.1951C22.9211 13.1927 25.9207 16.0116 25.9266 19.5303Z" fill="#4599E4"/>
<path d="M43.3979 6.78948C43.4079 3.25489 46.4168 0.446332 50.1832 0.455099C53.8798 0.463865 56.85 3.33219 56.834 6.87795C56.8189 10.4078 53.8008 13.2076 50.0268 13.1932C46.3555 13.1789 43.3878 10.3121 43.3979 6.78948Z" fill="#4599E4"/>
<path d="M13.1067 54.2413C14.73 55.035 16.3265 55.8144 17.9591 56.613C17.6632 57.5558 17.3714 58.4898 17.0764 59.4222C15.991 62.8539 14.8746 66.2768 13.8297 69.7196C13.2538 71.6156 11.3799 72.1471 10.0567 71.5773C8.85119 71.0585 8.18202 69.8384 8.54855 68.6238C9.31609 66.0831 10.1332 63.5552 10.9344 61.0233C11.6153 58.8715 12.3013 56.7206 12.9865 54.5696C13.0176 54.4708 13.0579 54.3744 13.1075 54.2405L13.1067 54.2413Z" fill="#4599E4"/>
</g>
<defs>
<clipPath id="clip0_705_8511">
<rect width="67.1683" height="76.4011" fill="white" transform="translate(0.415833 0.455078)"/>
</clipPath>
</defs>
</svg>
