<svg width="1324" height="607" viewBox="0 0 1324 607" fill="none" xmlns="http://www.w3.org/2000/svg">
<g filter="url(#filter0_d_740_2292)">
<rect x="15" y="11.5701" width="1294" height="575.782" rx="25" fill="white"/>
</g>
<g clip-path="url(#clip0_740_2292)">
<path d="M1102.64 512.452C1199.75 512.452 1278.48 433.726 1278.48 336.613C1278.48 239.499 1199.75 160.773 1102.64 160.773C1005.52 160.773 926.796 239.499 926.796 336.613C926.796 433.726 1005.52 512.452 1102.64 512.452Z" fill="white"/>
<path d="M1102.64 480.853C1182.3 480.853 1246.88 416.275 1246.88 336.613C1246.88 256.951 1182.3 192.372 1102.64 192.372C1022.97 192.372 958.396 256.951 958.396 336.613C958.396 416.275 1022.97 480.853 1102.64 480.853Z" fill="#FF6160"/>
<path d="M1102.64 449.25C1164.84 449.25 1215.27 398.821 1215.27 336.613C1215.27 274.404 1164.84 223.975 1102.64 223.975C1040.43 223.975 989.998 274.404 989.998 336.613C989.998 398.821 1040.43 449.25 1102.64 449.25Z" fill="white"/>
<path d="M1102.64 417.648C1147.39 417.648 1183.67 381.367 1183.67 336.613C1183.67 291.858 1147.39 255.578 1102.64 255.578C1057.88 255.578 1021.6 291.858 1021.6 336.613C1021.6 381.367 1057.88 417.648 1102.64 417.648Z" fill="#FF6160"/>
<path d="M1137.59 371.567C1156.9 352.261 1156.9 320.96 1137.59 301.654C1118.29 282.348 1086.99 282.348 1067.68 301.654C1048.37 320.96 1048.37 352.261 1067.68 371.567C1086.99 390.873 1118.29 390.873 1137.59 371.567Z" fill="white"/>
<path d="M1120.25 339.479C1121.83 329.757 1115.23 320.597 1105.51 319.019C1095.79 317.441 1086.63 324.043 1085.05 333.764C1083.47 343.486 1090.07 352.646 1099.79 354.225C1109.52 355.803 1118.68 349.201 1120.25 339.479Z" fill="#FF6160"/>
<path d="M1102.64 338.393C1102.18 338.393 1101.73 338.221 1101.38 337.872L942.429 178.925C941.732 178.228 941.732 177.099 942.429 176.406C943.126 175.712 944.255 175.709 944.948 176.406L1103.9 335.349C1104.59 336.047 1104.59 337.175 1103.9 337.869C1103.55 338.217 1103.09 338.39 1102.64 338.39V338.393Z" fill="#483193"/>
<path d="M957.556 191.532H946.186V189.156H955.179V180.162H957.556V191.532Z" fill="#483193"/>
<path d="M963.636 197.613H952.266V195.236H961.26V186.243H963.636V197.613Z" fill="#483193"/>
<path d="M951.336 185.309H939.966V182.936H948.959V173.943H951.336V185.309Z" fill="#483193"/>
<path d="M980.387 361.385L979.056 473.55L979.948 473.56L981.28 361.395L980.387 361.385Z" fill="#483193"/>
<path d="M979.392 444.579C977.091 406.289 963.524 384.223 963.389 384.006L964.142 383.533C964.281 383.754 977.964 405.993 980.281 444.527L979.392 444.579Z" fill="#483193"/>
<path d="M980.716 408.302L979.831 408.189C979.854 408.013 982.208 390.337 996.615 375.93L997.244 376.56C983.063 390.742 980.735 408.125 980.716 408.302Z" fill="#483193"/>
<path d="M986.156 361.141C986.633 358.181 984.62 355.395 981.661 354.918C978.701 354.441 975.915 356.453 975.437 359.413C974.96 362.373 976.973 365.159 979.932 365.636C982.892 366.113 985.678 364.101 986.156 361.141Z" fill="#483193"/>
<path d="M963.389 385.974C965.175 385.974 966.624 384.525 966.624 382.738C966.624 380.952 965.175 379.503 963.389 379.503C961.602 379.503 960.153 380.952 960.153 382.738C960.153 384.525 961.602 385.974 963.389 385.974Z" fill="#483193"/>
<path d="M995.632 381.884C997.887 381.884 999.715 380.056 999.715 377.801C999.715 375.547 997.887 373.719 995.632 373.719C993.378 373.719 991.55 375.547 991.55 377.801C991.55 380.056 993.378 381.884 995.632 381.884Z" fill="#483193"/>
<path d="M945.48 409.19C945.48 409.19 955.839 411.717 960.386 420.305C964.933 428.894 971.501 429.906 972.765 429.651C972.765 429.651 977.818 428.639 975.542 421.569C975.542 421.569 970.744 405.655 945.484 409.19H945.48Z" fill="#483193"/>
<path d="M986.654 412.602C986.654 412.602 979.58 414.622 979.329 423.968C979.329 423.968 979.078 432.051 983.37 436.598L988.169 425.989L993.724 409.318C993.724 409.318 1001.81 404.77 1004.58 394.412C1004.58 394.412 990.44 395.676 986.65 412.598L986.654 412.602Z" fill="#483193"/>
<path d="M954.992 445.498C958.283 444.066 964.071 444.924 967.396 445.966C969.841 446.731 972.157 448.055 973.597 450.236C974.411 451.474 974.875 452.887 975.082 454.345C975.28 455.751 974.343 458.694 974.819 459.792C974.819 459.792 972.322 454.038 965.612 450.971C963.441 449.978 961.301 450.48 959.198 449.674C957.53 449.037 955.798 447.001 954.988 445.498H954.992Z" fill="#483193"/>
<path d="M985.391 454.281C985.391 454.281 982.864 445.442 989.683 436.347C989.683 436.347 996.21 425.861 1013.96 427.046C1015.91 427.177 1017.84 427.672 1019.62 428.501C1021.02 429.157 1022.54 430.083 1023.53 431.293C1023.53 431.293 1014.35 430.42 1002.85 436.973C997.11 440.246 992.109 444.759 988.3 450.158L985.391 454.278V454.281Z" fill="#483193"/>
<path d="M979.194 475.507L978.455 475.489C979.453 439.796 970.842 423.631 970.755 423.473L971.404 423.117C971.494 423.282 973.638 427.256 975.693 435.732C977.578 443.533 979.719 456.767 979.198 475.507H979.194Z" fill="#483193"/>
<path d="M979.632 475.672C979.299 450.99 983.141 434.154 983.179 433.989L983.899 434.157C983.861 434.322 980.041 451.08 980.371 475.665L979.632 475.676V475.672Z" fill="#483193"/>
<path d="M982.56 475.863L981.822 475.803C983.156 459.11 986.688 448.538 986.725 448.433L987.426 448.669C987.393 448.774 983.887 459.267 982.56 475.86V475.863Z" fill="#483193"/>
<path d="M972.648 454.154C974.403 459.762 976.3 467.781 976.435 476.512L977.173 476.501C977.042 467.8 975.175 459.807 973.421 454.154H972.648Z" fill="#483193"/>
<path d="M965.855 474.488H995.831V494.446C995.831 502.39 989.379 508.842 981.436 508.842H980.251C972.307 508.842 965.855 502.39 965.855 494.446V474.488Z" fill="white"/>
<path d="M988.379 474.488V497.592C988.379 503.807 983.34 508.842 977.128 508.842H984.581C990.797 508.842 995.831 503.804 995.831 497.592V474.488H988.379Z" fill="#D9CDFF"/>
<path d="M997.181 473.142H964.51V475.837H997.181V473.142Z" fill="white"/>
<path d="M997.181 507.83H964.51V510.525H997.181V507.83Z" fill="white"/>
<path d="M973.391 507.83H970.695V510.525H973.391V507.83Z" fill="#D9CDFF"/>
<path d="M973.391 473.142H970.695V475.837H973.391V473.142Z" fill="#D9CDFF"/>
<path d="M859.917 370.675L921.102 309.145L907.621 305.685L878.234 298.835L821.81 373.73C820.573 375.372 820.149 377.486 820.663 379.477C821.173 381.467 822.564 383.117 824.438 383.96L946.512 438.855L949.882 432.89L859.921 370.667L859.917 370.675Z" fill="#2A1968"/>
<path d="M928.828 320.523C927.16 327.019 922.95 335.316 912.577 340.249L824.146 508.598L815.85 504.969L885.848 300.151L902.242 304.2L929.916 311.049C929.916 311.049 930.231 315.169 928.832 320.523H928.828Z" fill="#483193"/>
<path d="M928.828 320.523L902.241 304.2L929.915 311.049C929.915 311.049 930.23 315.169 928.832 320.523H928.828Z" fill="#2A1968"/>
<path d="M810.458 153.572L819.947 146.186C819.947 146.186 823.831 151.172 823.831 151.176L824.329 147.87C824.55 146.959 825.57 145.44 826.687 146.111C827.017 146.31 827.201 146.685 827.156 147.067L826.361 153.695L823.325 160.203L824.146 161.369L818.875 164.567L816.524 161.111L810.462 153.575L810.458 153.572Z" fill="#F8A17A"/>
<path d="M955.674 433.813C952.776 432.159 949.818 432.699 949.282 432.778L947.168 436.909C947.168 436.909 947.381 443.631 947.43 445.85C946.969 446.491 946.497 447.125 946.013 447.747L946.032 447.758C945.987 447.815 945.934 447.86 945.901 447.923C945.616 448.482 945.837 449.168 946.396 449.453C946.954 449.738 947.64 449.517 947.925 448.958C947.925 448.95 947.925 448.943 947.933 448.939C948.289 448.212 948.66 447.485 949.046 446.769C949.046 446.769 949.053 446.757 949.057 446.754C949.068 446.735 949.065 446.712 949.076 446.694L949.087 446.701L955.681 433.813H955.674Z" fill="#2A1968"/>
<path d="M824.614 512.452C824.768 509.119 822.942 506.731 822.624 506.289H817.983C817.983 506.289 812.097 509.539 810.144 510.593C809.364 510.473 808.584 510.342 807.808 510.195V510.218C807.737 510.203 807.673 510.177 807.598 510.177C806.972 510.177 806.462 510.686 806.462 511.313C806.462 511.939 806.972 512.448 807.598 512.448C807.606 512.448 807.613 512.445 807.617 512.445C808.431 512.433 809.244 512.433 810.058 512.448C810.058 512.448 810.069 512.448 810.073 512.448C810.095 512.448 810.114 512.437 810.133 512.437V512.448H824.611L824.614 512.452Z" fill="#483193"/>
<path d="M931.175 220.852L851.501 224.485C850.796 224.519 850.136 224.14 849.81 223.514L818.871 164.56L824.142 161.362L859.921 204.743L920.214 191.026L931.179 220.848L931.175 220.852Z" fill="#D9CDFF"/>
<path d="M851.415 224.994C850.56 224.994 849.762 224.518 849.361 223.757L843.137 211.986C843.006 211.739 843.1 211.435 843.347 211.304C843.595 211.172 843.898 211.266 844.03 211.514L850.253 223.285C850.489 223.731 850.969 224.005 851.471 223.982L870.272 223.124C870.549 223.113 870.785 223.326 870.8 223.604C870.811 223.881 870.598 224.117 870.32 224.132L851.52 224.991C851.486 224.991 851.449 224.991 851.415 224.991V224.994Z" fill="#2A1968"/>
<path d="M870.298 224.136C870.028 224.136 869.807 223.926 869.795 223.652C869.784 223.375 869.998 223.139 870.275 223.124L893.458 222.067C893.735 222.059 893.972 222.269 893.987 222.546C893.998 222.824 893.784 223.06 893.507 223.075L870.324 224.132C870.324 224.132 870.309 224.132 870.301 224.132L870.298 224.136Z" fill="#2A1968"/>
<path d="M903.718 174.565L902.969 182.007L902.256 189.283L901.998 192.132L921.072 189.073L920.588 178.314L920.408 162.884L909.713 154.16L903.718 174.565Z" fill="#F8A17A"/>
<path d="M901.983 192.155L878.23 298.836L930.436 311.046L932.899 296.234L933.657 292.174L938.736 265.032L947.572 217.692L923.437 194.183L921.079 189.096L901.983 192.155Z" fill="white"/>
<path d="M901.986 192.155L896.183 200.204L898.987 204.946L901.986 192.155Z" fill="#9A466E"/>
<path d="M897.953 200.616L867.786 287.724L883.253 291.341L899.658 201.677L897.953 200.616Z" fill="#9A466E"/>
<path d="M902.969 182.007L902.256 189.283C907.598 188.323 907.801 179.997 907.801 179.997L902.969 182.007Z" fill="#E5785C"/>
<path d="M925.038 234.007L933.657 292.174L938.736 265.032L925.038 234.007Z" fill="#D9CDFF"/>
<path d="M941.244 281.88L922.211 227.904L947.572 217.692L958.32 278.723L940.686 346.974L934.744 345.711L941.244 281.88Z" fill="white"/>
<path d="M931.033 157.684C930.418 153.245 927.753 148.882 924.277 146.456C921.559 144.559 918.129 143.187 914.812 142.839C911.749 142.074 908.082 142.078 903.906 143.712C902.935 142.737 901.657 142.055 900.191 141.853C896.618 141.354 893.319 143.843 892.821 147.416C892.322 150.989 894.815 154.288 898.384 154.786C898.931 154.861 899.471 154.861 900 154.805L909.162 155.622L913.762 156.042C913.683 156.199 913.582 156.319 913.503 156.473C912.21 159.067 912.116 161.92 913.012 164.349C914.137 164.11 915.336 164.432 916.191 165.305C916.952 166.1 917.672 167.386 917.08 169.155C917.192 169.227 917.301 169.294 917.432 169.35C919.745 170.49 922.347 170.52 924.652 169.613C926.902 168.758 928.877 167.019 930.051 164.634C931.104 162.49 931.366 160.076 931.033 157.684Z" fill="#483193"/>
<path d="M909.252 180.709L908.907 172.736C908.926 172.646 908.922 172.582 908.941 172.492L909.766 167.96C909.777 167.903 909.803 167.855 909.818 167.798L908.738 167.547L909.492 166.25L914.549 154.336L908.206 151.311L897.469 154.573C897.469 154.573 896.791 156.151 895.872 158.284C895.707 158.666 895.535 159.067 895.359 159.48C893.484 163.843 891.044 169.557 891.051 169.65C891.081 170.168 891.539 170.64 892.03 170.756L893.927 171.199L893.147 178.231C892.982 179.716 893.552 181.186 894.669 182.172C895.786 183.161 897.316 183.544 898.766 183.199L909.256 180.709H909.252Z" fill="#F8A17A"/>
<path d="M926.609 159.345C922.047 154.595 915.1 153.2 909.162 155.615C908.364 155.937 907.595 156.327 906.849 156.784C906.527 156.983 906.249 157.208 906.006 157.485C904.071 159.637 905.661 161.879 905.661 161.879C906.834 163.963 907.003 165.86 906.939 167.124L909.814 167.795C909.964 167.105 910.253 166.445 910.699 165.898C910.932 165.602 911.209 165.298 911.546 165.039C911.981 164.676 912.495 164.436 913.016 164.338C914.141 164.098 915.34 164.421 916.195 165.294C916.956 166.089 917.676 167.375 917.083 169.144C916.915 169.673 916.63 170.224 916.21 170.824C916.21 170.824 915.76 171.499 915.04 172.29L920.592 178.306L926.928 167.255C929.462 163.15 927.659 160.424 926.613 159.337L926.609 159.345Z" fill="#483193"/>
<path d="M893.961 162.363C894.62 159.54 896.127 156.728 897.619 157.077C899.111 157.425 899.216 160.616 898.557 163.435C897.897 166.254 896.39 169.069 894.898 168.721C893.406 168.372 893.301 165.182 893.961 162.359V162.363ZM894.703 162.535C893.968 165.684 894.422 167.825 895.07 167.978C895.719 168.132 897.076 166.411 897.814 163.262C898.549 160.117 898.096 157.973 897.447 157.819C896.798 157.665 895.441 159.386 894.703 162.535Z" fill="#483193"/>
<path d="M898.268 162.977L898.094 163.722L907.888 166.012L908.062 165.267L898.268 162.977Z" fill="#483193"/>
<path d="M941.151 282.341C940.911 282.341 940.701 282.172 940.656 281.928C940.603 281.655 940.787 281.392 941.061 281.34L945.728 280.474C946.002 280.421 946.264 280.605 946.317 280.879C946.369 281.152 946.185 281.415 945.912 281.467L941.244 282.333C941.215 282.341 941.181 282.341 941.151 282.341Z" fill="#2A1968"/>
<path d="M802.89 175.292L793.12 163.574L824.014 143.435L830.729 139.056L847.868 127.881L834.181 142.306L821.379 155.806L802.89 175.292Z" fill="#EFB126"/>
<path d="M828.46 148.402L830.729 139.056C831.876 140.173 833.087 141.305 834.181 142.306L828.46 148.402Z" fill="#2A1968"/>
<path d="M786.35 149.339L777.247 156.926L806.565 192.102L815.668 184.515L786.35 149.339Z" fill="#EFB126"/>
<path d="M777.208 150.377L753.107 170.464L788.901 213.41L813.001 193.323L777.208 150.377Z" fill="#EFB126"/>
<path d="M852.247 151.596C866.837 151.596 878.665 139.768 878.665 125.178C878.665 110.588 866.837 98.7598 852.247 98.7598C837.656 98.7598 825.829 110.588 825.829 125.178C825.829 139.768 837.656 151.596 852.247 151.596Z" fill="#EFB126"/>
<path d="M862.856 116.334L857.06 125.86L864.048 134.246L853.405 131.806L847.385 140.916L846.417 130.036L835.891 127.127L845.938 122.846L845.454 111.937L852.446 120.323L862.856 116.334Z" fill="#FF6160"/>
<path d="M788.243 207.63C788.074 207.63 787.906 207.559 787.786 207.416C787.576 207.165 787.61 206.79 787.861 206.58L804.738 192.515L793.503 179.038C793.293 178.786 793.327 178.411 793.578 178.202C793.829 177.992 794.204 178.025 794.414 178.277L806.406 192.668L788.614 207.495C788.502 207.589 788.367 207.634 788.236 207.634L788.243 207.63Z" fill="#FF6160"/>
<path d="M791.085 175.795C790.916 175.795 790.747 175.724 790.627 175.581L788.502 173.032C788.292 172.781 788.325 172.406 788.577 172.196C788.828 171.986 789.203 172.02 789.413 172.271L791.538 174.82C791.748 175.071 791.714 175.446 791.463 175.656C791.351 175.75 791.216 175.795 791.085 175.795Z" fill="#FF6160"/>
<path d="M786.2 169.935C786.031 169.935 785.863 169.864 785.743 169.722L775.969 157.995C775.759 157.744 775.793 157.369 776.044 157.159C776.296 156.949 776.67 156.983 776.88 157.234L786.654 168.961C786.864 169.212 786.83 169.587 786.579 169.797C786.466 169.89 786.331 169.935 786.2 169.935Z" fill="#FF6160"/>
<path d="M784.805 160.091C784.637 160.091 784.468 160.02 784.348 159.877L776.749 150.76C776.539 150.509 776.573 150.134 776.824 149.924C777.075 149.714 777.45 149.748 777.66 149.999L785.259 159.116C785.469 159.367 785.435 159.742 785.184 159.952C785.072 160.046 784.937 160.091 784.805 160.091Z" fill="#2A1968"/>
<path d="M810.35 178.644C810.181 178.644 810.012 178.573 809.893 178.43L802.282 169.298C802.072 169.047 802.106 168.672 802.357 168.462C802.609 168.252 802.983 168.286 803.193 168.537L810.803 177.669C811.013 177.92 810.98 178.295 810.729 178.505C810.616 178.599 810.481 178.644 810.35 178.644Z" fill="#2A1968"/>
<path d="M940.686 346.974L940.547 348.313V355.188C940.341 357.093 938.414 356.819 938.414 356.819C937.942 359.477 935.036 358.896 935.036 358.896C933.312 360.08 932.577 359.559 931.366 358.937C928.821 359.589 928.641 357.381 928.641 357.381C928.641 356.534 929.383 352.208 929.383 352.208C929.597 351.293 930.073 350.446 930.796 349.812L934.324 346.888L934.744 345.715L940.686 346.978V346.974Z" fill="#F8A17A"/>
<path d="M955.205 291.297C955.164 291.297 955.123 291.293 955.078 291.282C954.808 291.21 954.646 290.937 954.714 290.667L957.803 278.708L949.121 229.212C949.072 228.938 949.256 228.676 949.529 228.627C949.807 228.578 950.065 228.762 950.114 229.036L958.834 278.749L955.689 290.922C955.629 291.15 955.426 291.3 955.201 291.3L955.205 291.297Z" fill="#2A1968"/>
<path d="M952.513 301.707C952.472 301.707 952.431 301.703 952.386 301.692C952.116 301.621 951.955 301.347 952.022 301.077L953.046 297.118C953.117 296.849 953.391 296.687 953.66 296.755C953.93 296.826 954.092 297.1 954.024 297.37L953.001 301.328C952.941 301.557 952.738 301.707 952.513 301.707Z" fill="#2A1968"/>
<path d="M941.053 347.571L934.193 346.112L940.727 281.943L934.778 265.074C934.684 264.811 934.823 264.522 935.085 264.429C935.348 264.335 935.636 264.474 935.73 264.736L941.754 281.82L935.288 345.314L940.315 346.382L945.713 325.494C945.784 325.224 946.058 325.063 946.328 325.13C946.598 325.201 946.759 325.475 946.692 325.745L941.053 347.571Z" fill="#2A1968"/>
<path d="M819.017 154.355C820.712 153.249 819.778 152.102 819.778 152.102L819.538 151.731C820.288 152.882 821.668 151.806 821.668 151.806C823.212 150.678 821.81 148.841 821.81 148.841L819.823 145.8C819.823 145.8 818.856 144.32 817.297 145.339C817.297 145.339 816.329 145.853 816.247 146.786C816.247 146.786 815.295 145.65 813.84 146.599C813.84 146.599 813.015 147.195 813.203 148.188C813.203 148.188 811.194 148.095 810.65 149.857C810.65 149.857 810.519 149.924 810.346 150.059C809.555 150.67 809.319 151.697 809.795 152.428L811.531 155.086C811.531 155.086 811.767 155.574 812.179 155.72C813.165 156.428 813.908 155.645 813.908 155.645C813.971 155.592 814.02 155.536 814.069 155.48L814.125 155.562C814.125 155.562 814.388 155.847 814.89 155.814C815.591 155.978 816.071 155.461 816.071 155.461C816.866 154.828 816.772 153.654 816.772 153.654L817.162 154.22C818.196 154.869 819.021 154.351 819.021 154.351L819.017 154.355Z" fill="#F8A17A"/>
<path d="M823.321 160.2L826.357 153.692L827.152 147.064C827.197 146.681 827.013 146.306 826.683 146.108C825.57 145.44 824.547 146.959 824.325 147.866L823.827 151.172L823.711 152.237C823.711 152.237 818.893 154.288 819.733 159.03C819.733 159.03 823.557 160.117 823.321 160.196V160.2Z" fill="#F8A17A"/>
<path d="M881.435 409.546C881.36 409.546 881.285 409.528 881.21 409.494L871.444 404.654C871.193 404.53 871.092 404.227 871.216 403.979C871.34 403.728 871.643 403.627 871.894 403.751L881.66 408.59C881.911 408.714 882.012 409.018 881.889 409.265C881.799 409.441 881.623 409.546 881.435 409.546Z" fill="#2A1968"/>
</g>
<defs>
<filter id="filter0_d_740_2292" x="0" y="0.570068" width="1324" height="605.782" filterUnits="userSpaceOnUse" color-interpolation-filters="sRGB">
<feFlood flood-opacity="0" result="BackgroundImageFix"/>
<feColorMatrix in="SourceAlpha" type="matrix" values="0 0 0 0 0 0 0 0 0 0 0 0 0 0 0 0 0 0 127 0" result="hardAlpha"/>
<feOffset dy="4"/>
<feGaussianBlur stdDeviation="7.5"/>
<feComposite in2="hardAlpha" operator="out"/>
<feColorMatrix type="matrix" values="0 0 0 0 0 0 0 0 0 0 0 0 0 0 0 0 0 0 0.25 0"/>
<feBlend mode="normal" in2="BackgroundImageFix" result="effect1_dropShadow_740_2292"/>
<feBlend mode="normal" in="SourceGraphic" in2="effect1_dropShadow_740_2292" result="shape"/>
</filter>
<clipPath id="clip0_740_2292">
<rect width="525.37" height="413.692" fill="white" transform="translate(753.105 98.7598)"/>
</clipPath>
</defs>
</svg>
