<svg width="377" height="376" viewBox="0 0 377 376" fill="none" xmlns="http://www.w3.org/2000/svg">
<g style="mix-blend-mode:luminosity" opacity="0.5">
<g filter="url(#filter0_d_740_77)">
<rect x="15" y="11.4106" width="346.142" height="345.422" rx="25" fill="white"/>
<rect x="16" y="12.4106" width="344.142" height="343.422" rx="24" stroke="#F5AF02" stroke-width="2"/>
</g>
<circle cx="184.833" cy="184.122" r="85.6359" fill="#F5AF02"/>
<g clip-path="url(#clip0_740_77)">
<path d="M185.002 152.147C185.497 153.446 185.979 154.662 186.423 155.891C187.091 157.742 187.778 159.588 188.36 161.466C188.57 162.141 188.638 162.929 188.52 163.621C188.281 165.033 186.616 165.61 185.473 164.733C183.943 163.558 182.865 162.028 182.174 160.236C181.965 159.695 181.689 159.259 181.25 158.863C180.205 157.917 179.5 156.715 178.941 155.431C178.82 155.154 178.668 154.982 178.372 154.867C176.857 154.276 175.541 153.396 174.53 152.097C174.461 152.008 174.358 151.912 174.254 151.888C173.079 151.623 171.902 151.369 170.64 151.095C170.448 152.201 170.258 153.33 170.052 154.458C169.954 154.995 170.202 155.355 170.621 155.62C171.782 156.354 172.966 157.052 174.112 157.808C175.594 158.786 177.114 159.723 178.498 160.826C180.233 162.207 180.702 164.395 179.906 166.467C179.487 167.557 178.34 167.901 177.278 167.3C175.122 166.081 172.984 164.824 170.779 163.701C168.288 162.433 165.669 161.493 162.927 160.875C159.772 160.163 156.979 158.651 154.489 156.607C152.561 155.025 150.426 153.928 147.942 153.62C146.729 153.47 145.5 153.433 144.277 153.391C143.202 153.355 142.124 153.385 141.047 153.383C140.33 153.381 140.087 153.134 140.086 152.405C140.083 148.141 140.083 143.879 140.084 139.617C140.085 138.79 140.491 138.499 141.268 138.778C145.247 140.203 149.338 141.226 153.425 142.282C157.009 143.208 160.504 142.87 163.996 141.954C165.971 141.436 167.908 140.773 169.886 140.271C171.955 139.745 174.075 139.48 176.179 140.038C178.114 140.551 180.064 140.453 182.014 140.336C185.773 140.112 189.499 139.576 193.213 138.967C193.804 138.87 194.316 139.025 194.673 139.534C195.026 140.038 195.005 140.564 194.73 141.099C194.289 141.952 193.573 142.527 192.718 143.069C193.701 143.413 194.624 143.738 195.55 144.059C197.028 144.572 198.511 145.074 199.986 145.596C201.272 146.05 201.529 147.23 200.542 148.185C199.537 149.157 198.27 149.4 196.963 149.194C195.183 148.912 193.425 148.492 191.657 148.133C191.601 148.121 191.543 148.116 191.452 148.168C191.979 148.544 192.506 148.921 193.034 149.297C195.214 150.847 197.395 152.395 199.573 153.947C200.638 154.706 200.557 155.934 199.397 156.532C198.059 157.223 196.684 157.112 195.306 156.668C194.13 156.289 193.069 155.686 192.066 154.972C191.863 154.827 191.633 154.709 191.4 154.618C189.471 153.862 187.537 153.115 185.604 152.365C185.431 152.298 185.254 152.239 185.001 152.147H185.002Z" fill="white"/>
<path d="M182.574 211.121C182.353 211.813 182.13 212.476 181.941 213.148C181.911 213.257 182.005 213.455 182.103 213.536C182.698 214.036 183.312 214.514 183.919 214.999C184.399 215.382 184.459 215.656 184.172 216.2C183.795 216.913 183.417 217.626 183.033 218.334C182.767 218.824 182.492 218.936 181.959 218.77C181.204 218.536 180.457 218.277 179.697 218.062C179.56 218.024 179.323 218.1 179.224 218.208C178.838 218.624 178.502 219.084 178.122 219.507C177.953 219.695 177.938 219.833 178.066 220.051C178.464 220.735 178.841 221.431 179.217 222.127C179.478 222.608 179.427 222.89 179.021 223.228C178.377 223.763 177.73 224.294 177.079 224.819C176.655 225.162 176.379 225.162 175.959 224.818C175.347 224.314 174.734 223.811 174.144 223.283C173.934 223.095 173.785 223.107 173.561 223.241C173.1 223.516 172.631 223.783 172.142 224.005C171.866 224.13 171.817 224.288 171.853 224.559C171.954 225.329 172.043 226.1 172.115 226.874C172.168 227.433 172.03 227.634 171.495 227.799C170.684 228.051 169.869 228.291 169.053 228.528C168.596 228.661 168.323 228.546 168.094 228.113C167.723 227.415 167.355 226.714 167.008 226.003C166.892 225.764 166.758 225.68 166.491 225.716C165.841 225.804 165.187 225.862 164.496 225.937C164.257 226.758 164.013 227.6 163.766 228.44C163.593 229.029 163.412 229.176 162.8 229.128C161.937 229.059 161.075 228.96 160.214 228.867C159.791 228.822 159.585 228.567 159.551 228.155C159.488 227.38 159.411 226.607 159.366 225.832C159.348 225.498 159.224 225.339 158.886 225.264C158.407 225.159 157.933 225.012 157.477 224.83C157.164 224.704 157.001 224.785 156.812 225.039C156.364 225.637 155.887 226.213 155.418 226.796C155.049 227.254 154.773 227.312 154.251 227.037C153.524 226.655 152.799 226.269 152.077 225.878C151.615 225.627 151.502 225.346 151.658 224.84C151.892 224.085 152.12 223.328 152.385 222.584C152.481 222.315 152.405 222.185 152.2 222.03C151.783 221.715 151.371 221.389 150.989 221.033C150.77 220.83 150.617 220.783 150.341 220.948C149.675 221.346 148.986 221.705 148.301 222.07C147.82 222.326 147.559 222.279 147.204 221.858C146.654 221.207 146.119 220.544 145.576 219.888C145.281 219.53 145.304 219.181 145.596 218.837C146.117 218.219 146.628 217.594 147.163 216.99C147.331 216.799 147.343 216.666 147.211 216.447C146.934 215.988 146.676 215.514 146.45 215.028C146.322 214.749 146.179 214.667 145.869 214.712C145.116 214.821 144.356 214.892 143.598 214.959C143.004 215.012 142.81 214.879 142.638 214.327C142.394 213.545 142.157 212.759 141.926 211.972C141.766 211.432 141.876 211.176 142.38 210.912C143.068 210.553 143.754 210.189 144.453 209.852C144.702 209.732 144.759 209.588 144.721 209.327C144.648 208.826 144.574 208.318 144.574 207.813C144.574 207.464 144.461 207.316 144.131 207.23C143.395 207.041 142.668 206.818 141.938 206.602C141.406 206.445 141.254 206.2 141.308 205.638C141.381 204.864 141.451 204.091 141.52 203.317C141.581 202.644 141.798 202.441 142.477 202.392C143.222 202.338 143.967 202.28 144.709 202.199C144.844 202.184 145.046 202.082 145.082 201.975C145.31 201.3 145.498 200.612 145.706 199.91C145.03 199.374 144.351 198.837 143.675 198.297C143.155 197.883 143.104 197.647 143.413 197.069C143.78 196.384 144.151 195.702 144.524 195.021C144.839 194.444 145.074 194.349 145.688 194.543C146.427 194.778 147.163 195.022 147.907 195.239C148.03 195.275 148.244 195.239 148.32 195.152C148.778 194.623 149.207 194.07 149.66 193.508C149.24 192.745 148.812 191.976 148.391 191.203C148.106 190.68 148.155 190.419 148.613 190.036C149.209 189.537 149.809 189.043 150.412 188.552C150.957 188.107 151.17 188.107 151.701 188.548C152.299 189.044 152.886 189.555 153.497 190.036C153.599 190.116 153.827 190.134 153.949 190.077C154.473 189.827 154.975 189.531 155.496 189.269C155.696 189.169 155.771 189.069 155.736 188.824C155.62 188.011 155.538 187.193 155.448 186.378C155.403 185.971 155.567 185.665 155.961 185.539C156.827 185.261 157.696 184.994 158.571 184.744C158.983 184.626 159.296 184.78 159.496 185.173C159.86 185.893 160.247 186.6 160.598 187.325C160.711 187.559 160.847 187.616 161.086 187.588C161.663 187.518 162.246 187.484 162.821 187.398C162.947 187.379 163.109 187.219 163.15 187.09C163.392 186.338 163.597 185.575 163.825 184.818C163.988 184.273 164.177 184.13 164.732 184.172C165.551 184.234 166.371 184.306 167.186 184.4C167.84 184.476 168.011 184.692 168.059 185.365C168.121 186.199 168.192 187.032 168.262 187.878C168.963 188.099 169.653 188.327 170.352 188.522C170.443 188.547 170.612 188.428 170.691 188.331C171.187 187.733 171.665 187.121 172.157 186.518C172.564 186.019 172.79 185.973 173.354 186.271C174.066 186.647 174.777 187.027 175.485 187.413C175.98 187.682 176.086 187.945 175.917 188.485C175.685 189.225 175.454 189.966 175.199 190.698C175.11 190.952 175.151 191.097 175.368 191.26C175.892 191.655 176.393 192.082 176.927 192.515C177.682 192.098 178.45 191.672 179.222 191.25C179.768 190.951 180.027 190.998 180.427 191.478C180.952 192.111 181.472 192.748 181.988 193.388C182.31 193.789 182.308 194.063 181.973 194.468C181.496 195.044 181.02 195.62 180.522 196.177C180.285 196.442 180.206 196.645 180.436 196.981C180.729 197.41 180.948 197.89 181.175 198.361C181.275 198.571 181.385 198.634 181.62 198.603C182.419 198.497 183.221 198.416 184.023 198.329C184.521 198.275 184.779 198.438 184.93 198.92C185.175 199.702 185.412 200.488 185.647 201.274C185.826 201.876 185.727 202.11 185.173 202.398C184.498 202.749 183.825 203.106 183.141 203.44C182.908 203.554 182.816 203.674 182.858 203.951C182.945 204.526 182.967 205.112 183.054 205.687C183.073 205.813 183.233 205.976 183.361 206.018C184.113 206.259 184.877 206.464 185.633 206.692C186.171 206.855 186.323 207.055 186.276 207.604C186.203 208.482 186.109 209.358 186.01 210.234C185.96 210.663 185.673 210.867 185.146 210.907C184.297 210.972 183.449 211.044 182.57 211.115L182.574 211.121ZM150.473 206.666C150.463 213.992 156.448 219.976 163.797 219.987C171.103 219.999 177.105 214.003 177.136 206.66C177.167 199.36 171.149 193.337 163.816 193.327C156.449 193.317 150.484 199.28 150.474 206.666H150.473Z" fill="white"/>
<path d="M230.168 207.278C230.168 207.861 230.175 208.445 230.165 209.028C230.157 209.518 229.936 209.766 229.449 209.84C228.446 209.993 227.443 210.149 226.436 210.276C226.177 210.31 226.09 210.409 226.037 210.651C225.653 212.402 224.987 214.04 224.012 215.547C223.859 215.783 223.856 215.942 224.036 216.172C224.644 216.949 225.227 217.744 225.813 218.539C226.147 218.993 226.128 219.279 225.728 219.685C224.919 220.505 224.104 221.319 223.283 222.127C222.891 222.513 222.583 222.527 222.131 222.193C221.338 221.605 220.544 221.019 219.766 220.413C219.552 220.246 219.405 220.247 219.178 220.392C217.67 221.36 216.04 222.044 214.284 222.416C214.035 222.469 213.921 222.575 213.887 222.847C213.767 223.81 213.611 224.767 213.477 225.728C213.395 226.325 213.171 226.538 212.571 226.54C211.435 226.543 210.297 226.543 209.161 226.54C208.568 226.538 208.365 226.354 208.278 225.766C208.132 224.777 207.994 223.786 207.828 222.8C207.805 222.669 207.654 222.485 207.533 222.458C205.725 222.047 204.04 221.351 202.469 220.362C202.36 220.293 202.1 220.346 201.976 220.435C201.198 220.991 200.44 221.575 199.672 222.145C199.129 222.549 198.855 222.53 198.385 222.061C197.612 221.29 196.84 220.518 196.069 219.745C195.594 219.268 195.576 219.011 195.985 218.46C196.556 217.692 197.123 216.922 197.709 216.166C197.872 215.956 197.884 215.804 197.737 215.575C196.761 214.053 196.074 212.409 195.701 210.638C195.652 210.401 195.545 210.307 195.286 210.276C194.279 210.152 193.277 209.991 192.273 209.842C191.809 209.773 191.591 209.532 191.588 209.059C191.583 207.863 191.583 206.666 191.588 205.47C191.59 204.988 191.814 204.736 192.308 204.662C193.224 204.527 194.14 204.391 195.059 204.285C195.46 204.238 195.653 204.112 195.751 203.668C196.12 201.995 196.776 200.426 197.708 198.985C197.875 198.726 197.874 198.559 197.687 198.319C197.097 197.565 196.531 196.795 195.959 196.028C195.586 195.53 195.604 195.248 196.037 194.811C196.838 194.004 197.641 193.199 198.448 192.4C198.851 192.001 199.132 191.98 199.592 192.318C200.386 192.903 201.181 193.488 201.96 194.092C202.171 194.256 202.32 194.276 202.548 194.128C204.08 193.137 205.744 192.462 207.525 192.065C207.649 192.037 207.806 191.855 207.828 191.724C207.996 190.723 208.133 189.717 208.281 188.713C208.36 188.183 208.605 187.962 209.154 187.96C210.29 187.953 211.427 187.954 212.564 187.96C213.15 187.962 213.396 188.195 213.476 188.781C213.607 189.727 213.749 190.672 213.873 191.618C213.911 191.9 214.006 192.037 214.324 192.107C216.043 192.484 217.657 193.137 219.134 194.099C219.412 194.28 219.586 194.25 219.831 194.058C220.586 193.47 221.356 192.904 222.126 192.336C222.613 191.977 222.878 191.996 223.302 192.415C224.11 193.216 224.914 194.019 225.714 194.825C226.131 195.246 226.152 195.521 225.796 196.003C225.21 196.797 224.621 197.589 224.019 198.37C223.869 198.565 223.849 198.708 223.988 198.922C224.982 200.452 225.656 202.116 226.061 203.895C226.091 204.029 226.293 204.197 226.436 204.221C227.391 204.383 228.353 204.516 229.314 204.648C229.953 204.736 230.165 204.966 230.168 205.62C230.171 206.173 230.168 206.726 230.168 207.28V207.278ZM210.848 217.217C216.307 217.236 220.824 212.779 220.844 207.352C220.865 201.863 216.433 197.301 211.054 197.276C205.385 197.25 200.909 201.639 200.896 207.237C200.884 212.754 205.315 217.197 210.849 217.217H210.848Z" fill="white"/>
<path d="M182.146 171.489C181.689 170.897 181.233 170.326 180.798 169.737C180.28 169.036 180.299 168.725 180.915 168.101C181.493 167.517 182.09 166.951 182.688 166.387C183.036 166.059 183.335 166.045 183.733 166.336C184.408 166.83 185.074 167.336 185.72 167.818C186.517 167.434 187.28 167.032 188.072 166.696C188.59 166.475 189.144 166.328 189.691 166.186C189.939 166.122 190.063 166.052 190.096 165.768C190.179 165.026 190.315 164.292 190.418 163.553C190.48 163.111 190.738 162.873 191.164 162.866C192.136 162.849 193.108 162.849 194.08 162.869C194.509 162.878 194.755 163.133 194.816 163.568C194.921 164.322 195.029 165.076 195.156 165.826C195.176 165.942 195.284 166.111 195.381 166.134C196.828 166.485 198.182 167.053 199.449 167.864C200.119 167.364 200.776 166.871 201.435 166.383C201.911 166.031 202.198 166.047 202.616 166.46C203.233 167.069 203.845 167.684 204.455 168.3C204.897 168.746 204.913 169.04 204.528 169.556C204.055 170.191 203.578 170.823 203.091 171.473C203.326 171.901 203.604 172.312 203.786 172.761C204.139 173.629 204.464 174.511 204.747 175.404C204.836 175.686 204.953 175.795 205.221 175.828C205.902 175.913 206.582 176.013 207.262 176.107C207.87 176.192 208.085 176.437 208.086 177.063C208.089 177.915 208.09 178.768 208.086 179.621C208.084 180.207 207.901 180.439 207.326 180.535C206.605 180.655 205.877 180.735 205.157 180.863C205.02 180.887 204.821 181.027 204.793 181.148C204.457 182.572 203.883 183.892 203.079 185.158C203.554 185.797 204.034 186.442 204.514 187.088C204.918 187.632 204.905 187.903 204.437 188.375C203.827 188.991 203.216 189.605 202.596 190.213C202.192 190.609 201.904 190.624 201.449 190.288C200.871 189.862 200.293 189.436 199.728 188.994C199.539 188.847 199.396 188.811 199.177 188.95C198.031 189.672 196.797 190.188 195.473 190.478C195.25 190.526 195.167 190.638 195.138 190.864C195.045 191.589 194.928 192.311 194.819 193.034C194.738 193.572 194.524 193.777 194.002 193.782C193.075 193.789 192.148 193.789 191.22 193.782C190.721 193.778 190.5 193.578 190.42 193.067C190.292 192.242 190.172 191.415 190.062 190.677C188.987 190.257 187.963 189.863 186.944 189.454C186.711 189.36 186.469 189.249 186.28 189.089C185.928 188.791 185.654 188.838 185.315 189.127C184.827 189.543 184.297 189.912 183.779 190.291C183.321 190.626 183.038 190.607 182.633 190.208C181.993 189.578 181.36 188.943 180.73 188.304C180.353 187.92 180.339 187.599 180.669 187.153C181.096 186.576 181.519 185.997 181.962 185.433C182.114 185.238 182.129 185.098 181.992 184.883C181.276 183.752 180.768 182.528 180.473 181.222C180.412 180.952 180.289 180.866 180.026 180.837C179.314 180.755 178.604 180.65 177.898 180.53C177.338 180.436 177.154 180.209 177.151 179.656C177.146 178.773 177.146 177.891 177.151 177.009C177.155 176.422 177.387 176.182 177.977 176.104C178.673 176.014 179.369 175.922 180.061 175.806C180.197 175.783 180.402 175.666 180.427 175.558C180.763 174.104 181.35 172.757 182.15 171.488L182.146 171.489ZM192.609 186.087C196.892 186.085 200.378 182.616 200.383 178.353C200.389 174.049 196.873 170.53 192.578 170.542C188.309 170.554 184.839 174.042 184.842 178.317C184.846 182.637 188.298 186.09 192.609 186.087Z" fill="white"/>
<path d="M166.194 205.883C167.054 206.154 167.785 206.36 168.497 206.619C168.886 206.76 169.258 206.964 169.61 207.187C170.509 207.759 171.058 208.569 171.087 209.657C171.118 210.822 171.139 211.99 171.101 213.154C171.07 214.105 170.317 214.78 169.358 214.782C165.651 214.787 161.943 214.787 158.235 214.782C157.241 214.78 156.514 214.105 156.493 213.12C156.468 211.895 156.466 210.668 156.516 209.445C156.554 208.482 157.087 207.771 157.869 207.237C158.775 206.619 159.823 206.371 160.856 206.078C161.006 206.036 161.219 205.938 161.252 205.823C161.319 205.588 161.283 205.363 161.028 205.165C159.467 203.956 158.814 202.345 159.246 200.422C159.693 198.43 161.004 197.214 163.012 196.797C165.592 196.262 168.315 198.418 168.435 201.045C168.514 202.778 167.876 204.149 166.512 205.214C166.342 205.347 166.302 205.646 166.194 205.884V205.883Z" fill="white"/>
<path d="M212.781 206.912C213.365 207.085 213.801 207.186 214.216 207.341C215.193 207.705 216.186 208.181 216.35 209.304C216.517 210.444 216.471 211.626 216.412 212.783C216.381 213.394 215.713 213.863 215.049 213.866C212.267 213.879 209.485 213.881 206.704 213.866C205.924 213.862 205.297 213.274 205.264 212.483C205.226 211.558 205.251 210.629 205.296 209.704C205.339 208.802 205.837 208.156 206.631 207.778C207.221 207.498 207.853 207.308 208.467 207.081C208.586 207.036 208.709 206.999 208.945 206.921C207.61 205.847 206.961 204.561 207.323 202.916C207.505 202.086 207.955 201.404 208.622 200.876C210 199.787 211.856 199.808 213.203 200.945C214.142 201.738 214.575 202.769 214.506 203.998C214.439 205.205 213.805 206.114 212.782 206.911L212.781 206.912Z" fill="white"/>
<path d="M190.684 177.463C189.124 175.789 189.026 173.992 190.43 172.623C191.664 171.42 193.615 171.458 194.862 172.697C195.879 173.708 196.401 175.808 194.508 177.479C194.96 177.644 195.425 177.783 195.864 177.979C196.904 178.443 197.477 179.218 197.424 180.401C197.398 180.968 197.429 181.537 197.416 182.105C197.396 182.907 196.849 183.457 196.051 183.46C193.749 183.467 191.447 183.467 189.146 183.458C188.39 183.455 187.839 182.917 187.822 182.167C187.805 181.421 187.804 180.672 187.83 179.926C187.855 179.181 188.216 178.6 188.869 178.258C189.455 177.951 190.081 177.723 190.684 177.462L190.684 177.463Z" fill="white"/>
</g>
</g>
<defs>
<filter id="filter0_d_740_77" x="0" y="0.410645" width="376.142" height="375.422" filterUnits="userSpaceOnUse" color-interpolation-filters="sRGB">
<feFlood flood-opacity="0" result="BackgroundImageFix"/>
<feColorMatrix in="SourceAlpha" type="matrix" values="0 0 0 0 0 0 0 0 0 0 0 0 0 0 0 0 0 0 127 0" result="hardAlpha"/>
<feOffset dy="4"/>
<feGaussianBlur stdDeviation="7.5"/>
<feComposite in2="hardAlpha" operator="out"/>
<feColorMatrix type="matrix" values="0 0 0 0 0 0 0 0 0 0 0 0 0 0 0 0 0 0 0.25 0"/>
<feBlend mode="normal" in2="BackgroundImageFix" result="effect1_dropShadow_740_77"/>
<feBlend mode="normal" in="SourceGraphic" in2="effect1_dropShadow_740_77" result="shape"/>
</filter>
<clipPath id="clip0_740_77">
<rect width="90.0868" height="90.4632" fill="white" transform="translate(140.083 138.675)"/>
</clipPath>
</defs>
</svg>
