<svg width="123" height="106" viewBox="0 0 123 106" fill="none" xmlns="http://www.w3.org/2000/svg">
<g clip-path="url(#clip0_701_17)">
<path fill-rule="evenodd" clip-rule="evenodd" d="M96.6302 33.1357C98.9172 24.1235 101.793 7.40912 91.6566 1.74332C81.5672 -3.89821 68.4387 6.91257 61.5064 13.4016C54.5936 6.97727 41.0963 -3.78661 30.9681 1.89698C20.8835 7.55792 23.9938 23.9941 26.331 33.0629C16.9241 35.654 0.796875 41.2341 0.796875 52.6352C0.796875 64.0363 16.9063 70.0741 26.2582 72.6636C23.9113 81.7826 20.9563 97.9842 31.0554 103.632C41.2209 109.316 54.6761 98.8075 61.673 92.2473C68.6506 98.7751 81.6529 109.351 91.744 103.687C101.866 98.0052 99.2294 81.5173 96.8922 72.3951C105.958 69.8008 122.103 63.8633 122.103 52.6368C122.103 41.4104 105.89 35.7203 96.6302 33.1389V33.1357ZM95.4818 67.5591C93.9469 62.8475 91.8734 57.8352 89.3389 52.6595C91.7585 47.605 93.7496 42.659 95.2424 37.9766C102.031 39.8851 116.921 44.2457 116.921 52.6336C116.921 61.0215 102.631 65.5033 95.4802 67.5591H95.4818ZM89.148 99.338C81.619 103.564 70.4346 93.449 65.2815 88.642C68.6991 85.0174 72.1167 80.8024 75.4502 76.1233C81.3149 75.6186 86.8545 74.7938 91.8798 73.668C93.5247 80.1199 96.7094 95.0923 89.148 99.338ZM33.6449 99.2781C26.1158 95.068 29.5561 80.6116 31.2835 73.8929C36.2522 74.9587 41.753 75.7254 47.6307 76.188C50.9868 80.7669 54.5014 84.9754 58.0436 88.6615C53.6668 92.7664 41.2095 103.506 33.6449 99.2781ZM5.97906 52.6352C5.97906 44.1357 20.78 39.8075 27.7236 37.9038C29.2423 42.6914 31.2333 47.6972 33.6352 52.7581C31.201 57.895 29.1808 62.9802 27.6492 67.8227C21.0291 65.9853 5.97906 61.1396 5.97906 52.6352ZM33.564 6.2462C41.1254 2.00373 52.8549 12.3374 57.8754 16.9874C54.351 20.6573 50.8687 24.8335 47.5417 29.3865C41.8371 29.8992 36.3751 30.7225 31.3546 31.8256C29.4704 24.5116 26.0123 10.4838 33.5656 6.2462H33.564ZM79.1573 34.8485C83.0277 35.3224 86.7365 35.9516 90.2188 36.7231C89.1739 39.9725 87.8703 43.369 86.3353 46.8513C84.1114 42.7593 81.7241 38.7497 79.1573 34.8501V34.8485ZM61.5081 20.5781C63.8986 23.0883 66.2924 25.8913 68.6473 28.9336C63.8711 28.7137 59.0868 28.7137 54.309 28.9304C56.6655 25.9172 59.0803 23.1174 61.5081 20.5781ZM36.608 46.8465C35.099 43.3755 33.8083 39.9644 32.7537 36.6697C36.215 35.9192 39.9059 35.3046 43.7505 34.8388C41.1772 38.7303 38.7931 42.7383 36.608 46.8465ZM43.8621 70.789C39.8897 70.3588 36.1422 69.7765 32.6825 69.0471C33.7533 65.6942 35.0731 62.2087 36.6145 58.6633C38.8303 62.8136 41.25 66.8603 43.8621 70.789ZM61.652 85.0465C59.1952 82.4765 56.7464 79.6347 54.3526 76.5778C59.1563 76.7605 63.9698 76.7605 68.7735 76.5535C66.4121 79.667 64.0264 82.512 61.652 85.0465ZM86.3855 58.4821C88.0061 62.0647 89.3745 65.5324 90.4597 68.8287C86.9419 69.6067 83.1442 70.2343 79.1443 70.7001C81.729 66.7261 84.1551 62.6535 86.3871 58.4838L86.3855 58.4821ZM72.5582 71.3082C65.2103 71.8177 57.8171 71.8112 50.466 71.3503C46.2898 65.4354 42.5714 59.2148 39.3625 52.7549C42.5568 46.3095 46.2478 40.1003 50.4045 34.1951C57.7605 33.6565 65.1618 33.6549 72.5162 34.1983C76.6373 40.1035 80.3218 46.2966 83.5906 52.6837C80.3606 59.1259 76.6519 65.3465 72.5582 71.3082ZM89.0688 6.09578C96.6318 10.3253 93.2643 25.3462 91.613 31.8773C86.5796 30.7516 81.116 29.9138 75.3935 29.393C72.0601 24.7914 68.6069 20.6072 65.1392 16.9842C70.2227 12.2322 81.5785 1.90668 89.0688 6.09578Z" fill="#53C1DE"/>
</g>
<defs>
<clipPath id="clip0_701_17">
<rect width="121.306" height="105.132" fill="white" transform="translate(0.796875 0.16626)"/>
</clipPath>
</defs>
</svg>
