<svg width="18" height="99" viewBox="0 0 18 99" fill="none" xmlns="http://www.w3.org/2000/svg">
<g clip-path="url(#clip0_481_3722)">
<path d="M15.0939 15.8622C18.5469 12.4091 18.5469 6.81061 15.0939 3.35755C11.6408 -0.0955055 6.04228 -0.0955058 2.58923 3.35755C-0.86383 6.81061 -0.86383 12.4091 2.58923 15.8622C6.04228 19.3152 11.6408 19.3152 15.0939 15.8622Z" fill="white"/>
<path d="M11.107 10.2622L11.4121 8.26903H9.49535V6.97519C9.49535 6.42987 9.76222 5.89902 10.6173 5.89902H11.4926V4.20227C10.982 4.12006 10.4667 4.07491 9.94978 4.06738C8.37865 4.06738 7.34532 5.02141 7.34532 6.74942V8.26903H5.59473V10.2622H7.34532V15.151H9.49535V10.2622H11.1064H11.107Z" fill="black"/>
</g>
<g clip-path="url(#clip1_481_3722)">
<path d="M15.0939 42.8622C18.5469 39.4091 18.5469 33.8106 15.0939 30.3576C11.6408 26.9045 6.04228 26.9045 2.58923 30.3576C-0.86383 33.8106 -0.86383 39.4091 2.58923 42.8622C6.04228 46.3152 11.6408 46.3152 15.0939 42.8622Z" fill="white"/>
<path d="M8.54494 31.5195C7.16253 31.5195 6.98886 31.5253 6.44585 31.5502C5.904 31.5751 5.53409 31.6608 5.21048 31.7864C4.87588 31.9167 4.59164 32.0903 4.30856 32.3734C4.02548 32.6565 3.85123 32.9401 3.72097 33.2748C3.59477 33.5984 3.5091 33.9683 3.48478 34.5101C3.46047 35.0531 3.4541 35.2268 3.4541 36.6092C3.4541 37.9916 3.46047 38.1647 3.48478 38.7077C3.50968 39.2496 3.59535 39.6195 3.72155 39.9431C3.85181 40.2777 4.02548 40.5619 4.30856 40.845C4.59164 41.1281 4.8753 41.3023 5.2099 41.4326C5.53351 41.5582 5.904 41.6445 6.44527 41.6694C6.98828 41.6943 7.16137 41.7001 8.54378 41.7001C9.92619 41.7001 10.0993 41.6943 10.6423 41.6694C11.1841 41.6445 11.5546 41.5588 11.8782 41.4326C12.2128 41.3023 12.4965 41.1281 12.7796 40.845C13.0627 40.5619 13.2369 40.2783 13.3672 39.9437C13.4922 39.6201 13.5785 39.2502 13.6034 38.7083C13.6277 38.1653 13.634 37.9922 13.634 36.6098C13.634 35.2274 13.6277 35.0537 13.6034 34.5107C13.5779 33.9689 13.4922 33.5989 13.3672 33.2753C13.2369 32.9407 13.0627 32.6565 12.7796 32.3734C12.4965 32.0903 12.2134 31.9161 11.8782 31.7864C11.5535 31.6608 11.1836 31.5745 10.6417 31.5502C10.0987 31.5253 9.92561 31.5195 8.5432 31.5195H8.54494ZM8.08819 32.4371C8.22365 32.4371 8.37474 32.4371 8.54494 32.4371C9.9042 32.4371 10.0651 32.4417 10.6018 32.4666C11.0979 32.4892 11.3677 32.572 11.5471 32.642C11.7845 32.7341 11.9541 32.8446 12.1318 33.0229C12.3101 33.2012 12.4201 33.3709 12.5127 33.6082C12.5822 33.7877 12.6655 34.0568 12.6881 34.553C12.7124 35.0896 12.7176 35.2505 12.7176 36.6092C12.7176 37.9679 12.7124 38.1288 12.6881 38.6655C12.6655 39.1616 12.5828 39.4313 12.5127 39.6102C12.4207 39.8476 12.3101 40.0172 12.1318 40.1949C11.9535 40.3732 11.7845 40.4832 11.5471 40.5758C11.3677 40.6459 11.0985 40.7287 10.6018 40.7512C10.0651 40.7755 9.9042 40.7808 8.54494 40.7808C7.18569 40.7808 7.02475 40.7755 6.48811 40.7512C5.992 40.7281 5.72223 40.6453 5.54277 40.5758C5.30542 40.4838 5.1358 40.3732 4.9575 40.1949C4.7792 40.0166 4.66921 39.8476 4.57659 39.6096C4.50712 39.4302 4.42376 39.161 4.40118 38.6649C4.37687 38.1282 4.37166 37.9673 4.37166 36.6081C4.37166 35.2488 4.37629 35.0884 4.40118 34.5518C4.42376 34.0557 4.50654 33.7859 4.57659 33.6065C4.66863 33.3691 4.7792 33.1995 4.9575 33.0212C5.1358 32.8429 5.30542 32.7329 5.54277 32.6403C5.72223 32.5702 5.99142 32.4875 6.48811 32.4649C6.9576 32.4435 7.13937 32.4371 8.08819 32.4365V32.4377V32.4371ZM11.2623 33.2823C10.9248 33.2823 10.6516 33.5555 10.6516 33.893C10.6516 34.2305 10.9254 34.5038 11.2623 34.5038C11.5992 34.5038 11.873 34.2299 11.873 33.893C11.873 33.5561 11.5992 33.2823 11.2623 33.2823ZM8.54494 33.9955C7.10117 33.9955 5.93063 35.166 5.93063 36.6098C5.93063 38.0536 7.10117 39.2235 8.54494 39.2235C9.98872 39.2235 11.1587 38.0536 11.1587 36.6098C11.1587 35.166 9.98872 33.9955 8.54494 33.9955ZM8.54494 34.913C9.48218 34.913 10.2417 35.6726 10.2417 36.6098C10.2417 37.547 9.48218 38.3065 8.54494 38.3065C7.6077 38.3065 6.84819 37.547 6.84819 36.6098C6.84819 35.6726 7.6077 34.913 8.54494 34.913Z" fill="black"/>
</g>
<g clip-path="url(#clip2_481_3722)">
<path d="M15.0939 56.673C18.5469 60.126 18.5469 65.7246 15.0939 69.1776C11.6408 72.6307 6.0423 72.6307 2.58923 69.1776C-0.863827 65.7246 -0.863827 60.126 2.58923 56.673C6.0423 53.2199 11.6408 53.2199 15.0939 56.673Z" fill="white"/>
<path fill-rule="evenodd" clip-rule="evenodd" d="M13.3085 64.8729C13.3085 64.8729 13.2142 65.5398 12.9218 65.8385C12.5519 66.2252 12.1363 66.2275 11.947 66.2507C10.5865 66.3462 8.53955 66.3462 8.53955 66.3462C8.53955 66.3462 6.49835 66.3462 5.13678 66.2472C4.9469 66.224 4.53241 66.2217 4.16191 65.835C3.86957 65.5404 3.77636 64.8694 3.77636 64.8694C3.71616 64.3467 3.68374 63.821 3.67969 63.2948V62.5567C3.68374 62.0305 3.71616 61.5049 3.77636 60.9821C3.77636 60.9821 3.87188 60.3152 4.16191 60.0165C4.53183 59.6298 5.01868 59.642 5.23635 59.6009C6.01439 59.5262 8.5436 59.5042 8.5436 59.5042C8.5436 59.5042 10.5883 59.5042 11.9487 59.6055C12.1386 59.6275 12.5531 59.6298 12.923 60.0165C13.2153 60.3112 13.3108 60.9821 13.3108 60.9821C13.371 61.5054 13.4035 62.0311 13.4075 62.5579V63.2977C13.4017 63.8245 13.3687 64.3501 13.3085 64.8735L13.3074 64.8723L13.3085 64.8729Z" fill="black"/>
<path fill-rule="evenodd" clip-rule="evenodd" d="M7.23145 61.5589V64.2925L9.85849 62.9199L7.23145 61.5589Z" fill="white"/>
</g>
<g clip-path="url(#clip3_481_3722)">
<path d="M15.0939 95.8622C18.5469 92.4091 18.5469 86.8106 15.0939 83.3576C11.6408 79.9045 6.04228 79.9045 2.58923 83.3576C-0.86383 86.8106 -0.86383 92.4091 2.58923 95.8622C6.04228 99.3152 11.6408 99.3152 15.0939 95.8622Z" fill="white"/>
<path fill-rule="evenodd" clip-rule="evenodd" d="M7.17694 88.0708H8.9119V88.9646H8.93622C9.17878 88.531 9.76867 88.0708 10.6503 88.0708C12.4814 88.0708 12.8201 89.2106 12.8201 90.6932V93.8279H11.011V91.0417C11.011 90.4037 10.9977 89.5829 10.0703 89.5829C9.14288 89.5829 8.98427 90.2764 8.98427 90.9959V93.8337H7.17636V88.0708H7.17694ZM6.14998 86.326C6.14998 86.8452 5.72854 87.2667 5.20927 87.2667C4.68999 87.2667 4.26855 86.8452 4.26855 86.326C4.26855 85.8067 4.68999 85.3853 5.20927 85.3853C5.72854 85.3858 6.1494 85.8067 6.14998 86.326ZM4.27087 88.0708H6.14998V93.8279H4.27087V88.0708Z" fill="black"/>
</g>
<defs>
<clipPath id="clip0_481_3722">
<rect width="17.6842" height="17.6842" fill="white" transform="translate(0 0.767578)"/>
</clipPath>
<clipPath id="clip1_481_3722">
<rect width="17.6842" height="17.6842" fill="white" transform="translate(0 27.7676)"/>
</clipPath>
<clipPath id="clip2_481_3722">
<rect width="17.6842" height="17.6842" fill="white" transform="matrix(1 0 0 -1 0 71.7676)"/>
</clipPath>
<clipPath id="clip3_481_3722">
<rect width="17.6842" height="17.6842" fill="white" transform="translate(0 80.7676)"/>
</clipPath>
</defs>
</svg>
