<svg width="118" height="132" viewBox="0 0 118 132" fill="none" xmlns="http://www.w3.org/2000/svg">
<path d="M87.9609 66.5262C87.1001 67.1199 86.5182 67.4181 86.0687 67.8452C75.8655 77.5537 65.6749 87.2755 55.4843 96.996C52.5186 99.8247 52.5326 101.406 55.5392 104.272C58.2626 106.87 60.9734 109.479 63.7151 112.058C65.9693 114.179 67.9939 114.191 70.2341 112.058C85.1008 97.9027 99.9563 83.7376 114.805 69.5658C117.108 67.3671 117.084 65.4678 114.741 63.2341C99.9309 49.104 85.1149 34.9792 70.2904 20.8625C67.9686 18.6517 65.9848 18.6664 63.6432 20.8746C60.8649 23.4978 58.1063 26.1398 55.3434 28.7778C52.6158 31.3809 52.6017 33.1337 55.2983 35.7059C65.5326 45.464 75.7697 55.2195 86.0138 64.9682C86.4675 65.3993 86.9958 65.758 87.9609 66.5249V66.5262Z" stroke="#515151" stroke-miterlimit="10"/>
<path d="M1.00853 124.849C1.32835 123.753 1.77215 122.145 2.26668 120.551C14.131 82.2532 26.001 43.9568 37.8725 5.66034C38.0697 5.02234 38.2585 4.37493 38.5403 3.7705C39.3574 2.01498 40.8114 1.15133 42.7402 1.59591C45.6228 2.26078 48.4899 3.03311 51.2852 3.97332C53.5606 4.73893 54.234 6.52266 53.4676 9.05856C52.2249 13.1687 50.9428 17.2667 49.672 21.3674C38.7305 56.682 27.7889 91.9966 16.8404 127.31C16.6093 128.054 16.3937 128.821 16.0176 129.499C15.23 130.915 13.8718 131.725 12.2586 131.355C9.20552 130.657 6.18765 129.787 3.21769 128.811C1.60027 128.281 0.914133 126.958 1.00853 124.848V124.849Z" stroke="#515151" stroke-miterlimit="10"/>
</svg>
