<svg width="588" height="466" viewBox="0 0 588 466" fill="none" xmlns="http://www.w3.org/2000/svg">
<g clip-path="url(#clip0_614_269)">
<path fill-rule="evenodd" clip-rule="evenodd" d="M294.094 454.368C456.301 454.368 587.989 456.901 587.989 460.021C587.989 463.141 456.297 465.674 294.094 465.674C131.89 465.674 0.198242 463.137 0.198242 460.021C0.198242 456.904 131.89 454.368 294.094 454.368Z" fill="#F0EFFF"/>
<path d="M469.201 301.323C469.201 294.756 463.371 289.437 456.172 289.437H172.405C165.206 289.437 159.376 294.76 159.376 301.323V448.132C159.376 454.698 165.206 460.017 172.405 460.017H456.172C463.371 460.017 469.201 454.695 469.201 448.132V301.323Z" fill="#C77523"/>
<path d="M322.91 263.261C322.91 252.852 313.664 244.417 302.255 244.417H180.034C168.624 244.417 159.379 252.849 159.379 263.261V315.602C159.379 326.012 168.624 334.454 180.034 334.454H302.255C313.664 334.454 322.91 326.015 322.91 315.602V263.261Z" fill="#C77523"/>
<path d="M186.955 139.741H430.26V319.758H186.955V139.741Z" fill="white"/>
<path fill-rule="evenodd" clip-rule="evenodd" d="M412.725 167.686V185.068H204.49V167.686H412.725Z" fill="#AEC3D4"/>
<path fill-rule="evenodd" clip-rule="evenodd" d="M412.725 203.266V220.652H204.49V203.266H412.725Z" fill="#AEC3D4"/>
<path fill-rule="evenodd" clip-rule="evenodd" d="M412.725 238.847V256.233H204.49V238.847H412.725Z" fill="#AEC3D4"/>
<path fill-rule="evenodd" clip-rule="evenodd" d="M412.725 274.428V291.814H204.49V274.428H412.725Z" fill="#D0D0D0"/>
<path d="M159.379 286.116C159.379 278.924 165.209 273.094 172.408 273.094H456.176C463.375 273.094 469.205 278.924 469.205 286.116V446.992C469.205 454.191 463.375 460.021 456.176 460.021H172.405C165.206 460.021 159.376 454.191 159.376 446.992V286.116H159.379Z" fill="#FF8D40"/>
<path d="M305.67 244.42C305.67 233.01 314.915 223.765 326.325 223.765H448.546C459.955 223.765 469.201 233.01 469.201 244.42V301.771C469.201 313.181 459.955 322.426 448.546 322.426H326.325C314.915 322.426 305.67 313.181 305.67 301.771V244.42Z" fill="#FF8D40"/>
<path d="M140.458 342.404C140.458 342.404 186.666 354.206 189.133 364.713C190.665 371.237 203.851 436.277 203.851 436.277L189.866 437.306L168.593 373.607C168.593 373.607 138.032 375.681 121.72 375.917C106.506 376.14 92.376 364.9 92.376 364.9L117.384 345.923L140.458 342.404Z" fill="#0D283F"/>
<path d="M143.05 341.671C143.05 341.671 205.283 350.204 205.995 362.055C206.62 372.492 150.405 426.726 150.405 426.726C150.405 426.726 144.346 427.852 141.674 425.604C139.002 423.36 138.919 416.668 138.919 416.668L174.58 372.349C174.58 372.349 138.029 375.674 121.717 375.91C106.503 376.133 92.373 364.893 92.373 364.893L123.375 344.665L143.05 341.667V341.671Z" fill="#0E3356"/>
<path d="M121.026 241.415L139.051 256.167L138.214 263.946C138.214 263.946 145.208 268.918 147.268 288.218C148.154 296.497 146.073 312.702 145.19 321.016C144.016 332.085 143.05 341.674 143.05 341.674C143.05 341.674 130.066 355.092 124.306 360.39C115.446 368.541 92.373 364.9 92.373 364.9C92.373 364.9 98.5852 352.928 101.406 325.577C104.224 298.224 98.4636 291.4 102.195 272.243C105.923 253.085 117.253 247.467 117.253 247.467L121.026 241.415Z" fill="#765091"/>
<path d="M118.351 256.441C105.551 256.744 101.806 274.887 101.806 274.887C99.1167 292.005 104.092 299.575 101.413 325.571C98.599 352.924 92.3799 364.9 92.3799 364.9C92.3799 364.9 105.61 366.978 115.884 364.442L101.955 358.646L108.428 325.709V288.325L145.187 321.012L147.115 287.919C147.115 287.919 137.533 265.746 127.745 259.311C125.299 257.703 120.758 256.382 118.351 256.441Z" fill="#62407F"/>
<path d="M126.894 260.687C137.463 265.558 154.105 301.879 154.105 301.879L190.346 295.194L195.134 308.133C195.134 308.133 150.753 323.093 145.194 321.016C140.805 319.379 117.468 293.353 112.705 279.483C107.5 264.332 116.325 255.816 126.898 260.687H126.894Z" fill="#765091"/>
<path d="M191.003 296.966L194.567 296.911C194.567 296.911 200.248 290.938 206.825 292.241C213.402 293.547 222.06 300.295 220.878 302.133C218.78 305.402 197.097 304.37 197.097 304.37L193.865 304.711L190.999 296.97L191.003 296.966Z" fill="#FFE1C2"/>
<path d="M135.139 245.796L137.227 248.447L134.77 255.924L121.331 243.506L123.451 240.136C123.451 240.136 115.032 234.973 115.109 225.089C115.182 215.204 119.99 208.999 130.257 208.485C140.524 207.974 147.344 214.301 147.344 214.301L135.142 245.796H135.139Z" fill="#FFE1C2"/>
<path d="M137.772 247.828L136.375 251.025C136.375 251.025 131.195 246.314 129.288 243.211C127.38 240.108 128.409 234.598 128.409 234.598L129.378 233.469L137.772 247.832V247.828Z" fill="#ECC7A3"/>
<path d="M125.32 222.938C125.557 219.63 129.365 222.212 130.654 220.423C133.36 216.667 135.08 210.799 140.361 211.202C148.161 211.789 154.891 221.858 150.259 232.899C146.288 242.367 140.983 248.273 133.739 245.33C129.761 243.715 129.153 231.523 128.277 228.928C127.398 226.329 125.161 225.221 125.324 222.942L125.32 222.938Z" fill="#FFE1C2"/>
<path d="M135.535 220.84L131.696 227.83L130.108 222.584C130.108 222.584 125.265 220.346 125.796 223.963C125.998 225.339 127.905 226.141 128.628 228.104C129.802 231.294 129.163 233.75 129.163 233.75L123.003 240.654C123.003 240.654 104.891 225.95 119.66 207.884C120.025 207.436 120.31 206.935 120.734 206.602C128.548 200.404 133.853 203.475 145.058 206.299C158.177 209.604 160.779 208.561 160.779 208.561C160.779 208.561 160.595 222.622 151.489 222.521C143.133 222.427 135.538 220.836 135.538 220.836L135.535 220.84Z" fill="black"/>
<path d="M132.141 227.024C132.141 227.024 131.526 232.315 132.71 235.967C133.895 239.619 136.438 242.443 136.438 242.443L143.165 243.819L140.931 251.765L133.732 245.334C133.732 245.334 131.088 241.988 130.442 237.312C129.795 232.639 131.147 226.635 131.147 226.635" fill="black"/>
<path d="M121.026 241.415L139.051 256.167L134.951 263.206L117.253 247.464L121.026 241.415Z" fill="#DDDDDD"/>
<path d="M152.173 425.031L153.236 438.535C153.236 438.535 159.98 441.197 158.191 444.803C156.402 448.41 155.596 447.02 155.596 447.02L130.935 425.625L138.915 416.671C138.915 416.671 140.096 416.935 139.714 417.748C138.755 419.805 142.052 422.904 143.96 423.888C146.729 425.316 152.17 425.031 152.17 425.031H152.173Z" fill="#303030"/>
<path d="M131.303 425.34L129.649 427.181L154.349 449.563L156.506 447.141L135.538 429.182L131.303 425.34Z" fill="black"/>
<path d="M202.475 429.787L214.204 436.566C214.204 436.566 220.215 432.518 222.178 436.034C224.137 439.554 222.536 439.428 222.536 439.428L190.933 447.621L188.077 435.971C188.077 435.971 188.963 435.148 189.418 435.923C190.572 437.879 194.995 436.917 196.881 435.902C199.626 434.429 202.475 429.787 202.475 429.787Z" fill="#303030"/>
<path d="M190.905 447.159L191.485 449.563L223.922 441.895L223.147 438.748L196.468 445.846L190.905 447.159Z" fill="black"/>
<path d="M181.417 304.808H229.2V309.036H181.417V304.808Z" fill="#44637F"/>
<path d="M246.759 264.926L228.372 309.036L224.471 307.41L242.857 263.303L246.759 264.926Z" fill="#44637F"/>
<path d="M156.683 309.036H255.163V315.061H156.683V309.036Z" fill="#6685A3"/>
<path d="M161.561 315.061H250.285V319.466H161.561V315.061Z" fill="#547390"/>
<path d="M228.053 319.466H232.132V460.021H228.053V319.466Z" fill="#44637F"/>
<path d="M169.777 319.466H173.853V460.021H169.777V319.466Z" fill="#44637F"/>
<path d="M235.617 319.466H239.693V460.021H235.617V319.466Z" fill="#44637F"/>
<path d="M177.338 319.466H181.417V460.021H177.338V319.466Z" fill="#44637F"/>
<path d="M81.5366 325.814C80.7097 325.814 80.0322 326.474 80.0322 327.301V371.349C80.0322 373.69 80.5152 375.921 81.3386 377.964H83.0375V327.301C83.0375 326.474 82.3635 325.814 81.5366 325.814Z" fill="#6685A3"/>
<path d="M121.818 332.943L83.0231 356.794L80.0352 358.622V362.152L83.0231 360.321L123.402 335.511L121.818 332.943Z" fill="#6685A3"/>
<path d="M63.6367 268.584C63.4143 267.438 64.1648 266.326 65.3148 266.1L73.5177 264.509C74.6677 264.286 75.7795 265.037 76.0019 266.187L90.1112 338.884C90.3336 340.031 89.5831 341.143 88.4366 341.365L80.2267 342.96C79.0802 343.182 77.9684 342.431 77.746 341.281L63.6332 268.584H63.6367Z" fill="#7C9AB7"/>
<path d="M80.0322 371.355H166.749C166.749 381.101 158.848 388.998 149.102 388.998H97.675C87.9294 388.998 80.0322 381.101 80.0322 371.355Z" fill="#7C9AB7"/>
<path d="M81.3379 377.967C83.9576 384.437 90.267 388.995 97.6743 388.995H145.384C145.384 388.995 129.517 387.292 107.229 384.666C91.0939 382.762 81.3379 377.967 81.3379 377.967Z" fill="#7795B1"/>
<path d="M80.0357 371.345C80.0357 373.687 80.5152 375.917 81.3421 377.964H165.442C166.269 375.917 166.749 373.687 166.749 371.345H80.0322H80.0357Z" fill="#547390"/>
<path d="M109.769 388.995H125.775V402.791H109.769V388.995Z" fill="#6685A3"/>
<path d="M109.762 388.995V402.795H116.377V388.995H109.762Z" fill="#547390"/>
<path d="M113.948 402.792H121.595V437.712H113.948V402.792Z" fill="#547390"/>
<path d="M113.941 402.795V437.716H117.193V402.795H113.941Z" fill="#46637F"/>
<path d="M79.4688 446.572C79.4688 441.68 83.433 437.712 88.3249 437.712H147.219C152.11 437.712 156.078 441.68 156.078 446.572H79.4688Z" fill="#6685A3"/>
<path d="M144.294 453.295C144.294 449.581 147.306 446.572 151.017 446.572C154.727 446.572 157.74 449.581 157.74 453.295C157.74 457.009 154.731 460.017 151.017 460.017C147.303 460.017 144.294 457.005 144.294 453.295Z" fill="#547390"/>
<path d="M76.3076 453.295C76.3076 449.581 79.3199 446.572 83.0305 446.572C86.7411 446.572 89.7534 449.581 89.7534 453.295C89.7534 457.009 86.7411 460.017 83.0305 460.017C79.3199 460.017 76.3076 457.005 76.3076 453.295Z" fill="#547390"/>
<path d="M104.933 331.088C104.933 328.089 106.444 325.657 108.313 325.657H148.574C150.44 325.657 151.954 328.089 151.954 331.088C151.954 334.086 150.44 336.518 148.574 336.518H108.313C106.444 336.518 104.933 334.086 104.933 331.088Z" fill="#6685A3"/>
<path d="M105.305 333.426C105.854 335.233 106.972 336.525 108.31 336.525H148.571C149.908 336.525 151.045 335.233 151.593 333.426H105.305Z" fill="#5D7994"/>
<path d="M67.9513 265.575L65.3212 266.093C64.1747 266.315 63.4068 267.438 63.6292 268.584L77.742 341.278C77.9644 342.428 79.09 343.172 80.2366 342.949L88.4465 341.358C88.9155 341.268 89.2421 340.965 89.5409 340.639C86.619 339.093 83.6936 336.918 81.5186 333.669C75.3308 324.452 68.5767 270.645 67.9548 265.575H67.9513Z" fill="#7393B1"/>
<path d="M186.955 9.43225C186.955 5.88494 189.828 3.00818 193.376 3.00818H423.843C427.391 3.00818 430.264 5.88494 430.264 9.43225V117.068C430.264 120.615 427.391 123.488 423.843 123.488H193.376C189.828 123.488 186.955 120.615 186.955 117.068V9.43225Z" fill="white"/>
<path d="M423.844 125.948H193.376C188.477 125.948 184.492 121.963 184.492 117.064V9.43231C184.492 4.53348 188.477 0.544922 193.376 0.544922H423.844C428.743 0.544922 432.728 4.53 432.728 9.43231V117.068C432.728 121.967 428.743 125.952 423.844 125.952V125.948ZM193.376 5.47503C191.194 5.47503 189.419 7.25042 189.419 9.43231V117.068C189.419 119.25 191.194 121.022 193.376 121.022H423.844C426.026 121.022 427.798 119.246 427.798 117.068V9.43231C427.798 7.25042 426.022 5.47503 423.844 5.47503H193.376Z" fill="#AE9AE3"/>
<path d="M205.807 13.6467H208.954V98.1291H205.807V13.6467Z" fill="#D53512"/>
<path d="M299.611 25.5603H302.759V98.1291H299.611V25.5603Z" fill="#D53512"/>
<path d="M394.388 24.7959H397.535V97.3647H394.388V24.7959Z" fill="#D53512"/>
<path d="M254.257 23.3436H257.405V98.129H254.257V23.3436Z" fill="#D53512"/>
<path d="M348.058 33.0127H351.209V98.129H348.058V33.0127Z" fill="#D53512"/>
<path d="M228.877 29.719H232.025V98.129H228.877V29.719Z" fill="#D53512"/>
<path d="M322.681 55.127H325.828V98.129H322.681V55.127Z" fill="#D53512"/>
<path d="M277.323 13.6467H280.471V98.1291H277.323V13.6467Z" fill="#D53512"/>
<path d="M371.131 13.6467H374.275V98.1291H371.131V13.6467Z" fill="#D53512"/>
<path d="M212.575 36.6434H215.723V98.129H212.575V36.6434Z" fill="#9AB8DD"/>
<path d="M306.379 56.5931H309.53V98.129H306.379V56.5931Z" fill="#9AB8DD"/>
<path d="M401.159 55.8287H404.303V97.3646H401.159V55.8287Z" fill="#9AB8DD"/>
<path d="M261.024 41.8411H264.172V98.129H261.024V41.8411Z" fill="#9AB8DD"/>
<path d="M354.829 48.9287H357.977V98.129H354.829V48.9287Z" fill="#9AB8DD"/>
<path d="M235.645 55.8878H238.792V98.129H235.645V55.8878Z" fill="#9AB8DD"/>
<path d="M329.448 65.9009H332.596V98.129H329.448V65.9009Z" fill="#9AB8DD"/>
<path d="M284.091 31.953H287.239V98.129H284.091V31.953Z" fill="#9AB8DD"/>
<path d="M377.895 31.953H381.042V98.129H377.895V31.953Z" fill="#9AB8DD"/>
<path d="M205.474 104.049C205.474 103.219 206.144 102.552 206.975 102.552H215.709C216.539 102.552 217.21 103.222 217.21 104.049V104.056C217.21 104.887 216.539 105.557 215.709 105.557H206.975C206.148 105.557 205.474 104.883 205.474 104.056V104.049Z" fill="#9AB8DD"/>
<path d="M228.877 104.049C228.877 103.219 229.548 102.552 230.378 102.552H239.112C239.943 102.552 240.613 103.222 240.613 104.049V104.056C240.613 104.887 239.943 105.557 239.112 105.557H230.378C229.548 105.557 228.877 104.883 228.877 104.056V104.049Z" fill="#9AB8DD"/>
<path d="M254.257 104.049C254.257 103.219 254.927 102.552 255.758 102.552H264.492C265.323 102.552 265.993 103.222 265.993 104.049V104.056C265.993 104.887 265.323 105.557 264.492 105.557H255.758C254.931 105.557 254.257 104.883 254.257 104.056V104.049Z" fill="#9AB8DD"/>
<path d="M277.323 104.049C277.323 103.219 277.994 102.552 278.824 102.552H287.559C288.389 102.552 289.06 103.222 289.06 104.049V104.056C289.06 104.887 288.389 105.557 287.559 105.557H278.824C277.994 105.557 277.323 104.883 277.323 104.056V104.049Z" fill="#9AB8DD"/>
<path d="M299.611 104.049C299.611 103.219 300.285 102.552 301.112 102.552H309.85C310.677 102.552 311.348 103.222 311.348 104.049V104.056C311.348 104.887 310.674 105.557 309.85 105.557H301.112C300.282 105.557 299.611 104.883 299.611 104.056V104.049Z" fill="#9AB8DD"/>
<path d="M322.681 104.049C322.681 103.219 323.351 102.552 324.178 102.552H332.916C333.746 102.552 334.414 103.222 334.414 104.049V104.056C334.414 104.887 333.743 105.557 332.916 105.557H324.178C323.348 105.557 322.681 104.883 322.681 104.056V104.049Z" fill="#9AB8DD"/>
<path d="M348.058 104.049C348.058 103.219 348.732 102.552 349.559 102.552H358.293C359.123 102.552 359.794 103.222 359.794 104.049V104.056C359.794 104.887 359.12 105.557 358.293 105.557H349.559C348.728 105.557 348.058 104.883 348.058 104.056V104.049Z" fill="#9AB8DD"/>
<path d="M371.131 104.049C371.131 103.219 371.801 102.552 372.628 102.552H381.366C382.197 102.552 382.864 103.222 382.864 104.049V104.056C382.864 104.887 382.193 105.557 381.366 105.557H372.628C371.798 105.557 371.131 104.883 371.131 104.056V104.049Z" fill="#9AB8DD"/>
<path d="M394.388 104.049C394.388 103.219 395.062 102.552 395.885 102.552H404.623C405.454 102.552 406.124 103.222 406.124 104.049V104.056C406.124 104.887 405.45 105.557 404.623 105.557H395.885C395.058 105.557 394.388 104.883 394.388 104.056V104.049Z" fill="#9AB8DD"/>
<path d="M205.474 108.778C205.474 108.02 206.085 107.412 206.839 107.412H212.447C213.201 107.412 213.812 108.02 213.812 108.778V109.052C213.812 109.81 213.201 110.421 212.447 110.421H206.839C206.085 110.421 205.474 109.81 205.474 109.052V108.778Z" fill="#9AB8DD"/>
<path d="M228.877 108.778C228.877 108.02 229.488 107.412 230.242 107.412H235.85C236.604 107.412 237.215 108.02 237.215 108.778V109.052C237.215 109.81 236.604 110.421 235.85 110.421H230.242C229.488 110.421 228.877 109.81 228.877 109.052V108.778Z" fill="#9AB8DD"/>
<path d="M254.257 108.778C254.257 108.02 254.868 107.412 255.622 107.412H261.23C261.984 107.412 262.595 108.02 262.595 108.778V109.052C262.595 109.81 261.984 110.421 261.23 110.421H255.622C254.868 110.421 254.257 109.81 254.257 109.052V108.778Z" fill="#9AB8DD"/>
<path d="M277.323 108.778C277.323 108.02 277.935 107.412 278.689 107.412H284.296C285.05 107.412 285.662 108.02 285.662 108.778V109.052C285.662 109.81 285.05 110.421 284.296 110.421H278.689C277.935 110.421 277.323 109.81 277.323 109.052V108.778Z" fill="#9AB8DD"/>
<path d="M299.611 108.778C299.611 108.02 300.223 107.412 300.98 107.412H306.591C307.345 107.412 307.957 108.02 307.957 108.778V109.052C307.957 109.81 307.345 110.421 306.591 110.421H300.98C300.223 110.421 299.611 109.81 299.611 109.052V108.778Z" fill="#9AB8DD"/>
<path d="M322.681 108.778C322.681 108.02 323.289 107.412 324.046 107.412H329.657C330.415 107.412 331.023 108.02 331.023 108.778V109.052C331.023 109.81 330.415 110.421 329.657 110.421H324.046C323.289 110.421 322.681 109.81 322.681 109.052V108.778Z" fill="#9AB8DD"/>
<path d="M348.058 108.778C348.058 108.02 348.669 107.412 349.427 107.412H355.034C355.792 107.412 356.403 108.02 356.403 108.778V109.052C356.403 109.81 355.792 110.421 355.034 110.421H349.427C348.669 110.421 348.058 109.81 348.058 109.052V108.778Z" fill="#9AB8DD"/>
<path d="M371.131 108.778C371.131 108.02 371.739 107.412 372.496 107.412H378.107C378.861 107.412 379.473 108.02 379.473 108.778V109.052C379.473 109.81 378.861 110.421 378.107 110.421H372.496C371.739 110.421 371.131 109.81 371.131 109.052V108.778Z" fill="#9AB8DD"/>
<path d="M394.388 108.778C394.388 108.02 394.999 107.412 395.753 107.412H401.364C402.122 107.412 402.73 108.02 402.73 108.778V109.052C402.73 109.81 402.122 110.421 401.364 110.421H395.753C394.999 110.421 394.388 109.81 394.388 109.052V108.778Z" fill="#9AB8DD"/>
<path d="M214.485 108.778C214.485 108.02 215.097 107.412 215.851 107.412H221.458C222.212 107.412 222.824 108.02 222.824 108.778V109.052C222.824 109.81 222.212 110.421 221.458 110.421H215.851C215.097 110.421 214.485 109.81 214.485 109.052V108.778Z" fill="#9AB8DD"/>
<path d="M237.889 108.778C237.889 108.02 238.5 107.412 239.254 107.412H244.862C245.616 107.412 246.227 108.02 246.227 108.778V109.052C246.227 109.81 245.616 110.421 244.862 110.421H239.254C238.5 110.421 237.889 109.81 237.889 109.052V108.778Z" fill="#9AB8DD"/>
<path d="M263.27 108.778C263.27 108.02 263.881 107.412 264.635 107.412H270.243C270.996 107.412 271.608 108.02 271.608 108.778V109.052C271.608 109.81 270.996 110.421 270.243 110.421H264.635C263.881 110.421 263.27 109.81 263.27 109.052V108.778Z" fill="#9AB8DD"/>
<path d="M286.339 108.778C286.339 108.02 286.95 107.412 287.704 107.412H293.312C294.069 107.412 294.677 108.02 294.677 108.778V109.052C294.677 109.81 294.069 110.421 293.312 110.421H287.704C286.95 110.421 286.339 109.81 286.339 109.052V108.778Z" fill="#9AB8DD"/>
<path d="M308.627 108.778C308.627 108.02 309.238 107.412 309.992 107.412H315.603C316.361 107.412 316.969 108.02 316.969 108.778V109.052C316.969 109.81 316.361 110.421 315.603 110.421H309.992C309.238 110.421 308.627 109.81 308.627 109.052V108.778Z" fill="#9AB8DD"/>
<path d="M331.693 108.778C331.693 108.02 332.305 107.412 333.062 107.412H338.67C339.427 107.412 340.039 108.02 340.039 108.778V109.052C340.039 109.81 339.427 110.421 338.67 110.421H333.062C332.305 110.421 331.693 109.81 331.693 109.052V108.778Z" fill="#9AB8DD"/>
<path d="M357.073 108.778C357.073 108.02 357.685 107.412 358.439 107.412H364.05C364.807 107.412 365.415 108.02 365.415 108.778V109.052C365.415 109.81 364.807 110.421 364.05 110.421H358.439C357.685 110.421 357.073 109.81 357.073 109.052V108.778Z" fill="#9AB8DD"/>
<path d="M380.143 108.778C380.143 108.02 380.754 107.412 381.508 107.412H387.119C387.877 107.412 388.488 108.02 388.488 108.778V109.052C388.488 109.81 387.877 110.421 387.119 110.421H381.508C380.754 110.421 380.143 109.81 380.143 109.052V108.778Z" fill="#9AB8DD"/>
<path d="M403.403 108.778C403.403 108.02 404.015 107.412 404.772 107.412H410.38C411.137 107.412 411.749 108.02 411.749 108.778V109.052C411.749 109.81 411.137 110.421 410.38 110.421H404.772C404.015 110.421 403.403 109.81 403.403 109.052V108.778Z" fill="#9AB8DD"/>
<path d="M496.054 420.424L494.939 431.045C494.939 431.045 496.679 440.672 496.363 445.137C496.099 448.865 486.214 448.705 485.45 445.119C484.404 440.182 484.634 426.969 484.634 426.969L486.069 418.627C489.341 418.968 492.652 419.475 496.05 420.42L496.054 420.424Z" fill="#FFD9B3"/>
<path d="M495.519 421.921L494.939 431.045C494.939 431.045 496.388 443.087 496.364 445.137C496.315 449.382 485.614 447.868 485.451 445.119C485.284 442.295 484.634 426.969 484.634 426.969L486.069 418.627L481.41 427.636L483.919 454.531C483.919 454.531 484.61 460.466 492.4 459.99C499.265 459.573 499.849 453.315 499.849 453.315L497.392 431.399L495.516 421.921H495.519Z" fill="black"/>
<path d="M438.074 406.2L434.353 424.402C434.353 424.402 435.937 427.418 434.85 428.905C433.759 430.385 428.502 427.72 426.765 435.627C424.309 446.804 410.922 449.844 410.922 449.844L422.408 420.848L427.654 404.532L438.074 406.2Z" fill="#FFD9B3"/>
<path d="M435.861 416.435L434.353 424.402C434.353 424.402 434.11 426.042 428.127 431.274C426.112 433.035 426.671 438.709 424.201 441.364C417.447 448.618 410.922 449.844 410.922 449.844C410.922 449.844 401.385 459.538 404.911 459.785C406.437 459.892 415.494 460.875 420.956 457.828C426.421 454.778 423.947 450.39 426.765 445.571C429.583 440.756 431.935 439.936 431.935 439.936L432.175 459.785L434.27 459.715L435.35 438.942C435.35 438.942 439.106 436.301 439.234 430.673C439.283 428.47 437.331 427.748 436.695 425.326C435.711 421.56 435.864 416.435 435.864 416.435H435.861Z" fill="black"/>
<path d="M492.843 257.237C495.137 296.48 456.269 341.914 456.269 341.914C456.269 341.914 455.949 357.712 451.46 373.787C446.968 389.867 436.868 414.17 436.868 414.17L426.122 409.684L437.695 338.266L463.565 255.389C463.565 255.389 491.402 257.157 492.843 257.237Z" fill="#282444"/>
<path d="M516.983 258.634C516.983 258.634 517.324 288.277 515.006 306.666C512.689 325.049 508.899 348.623 508.899 348.623C508.899 348.623 510 353.8 507.085 375.862C504.166 397.924 496.054 420.427 496.054 420.427L486.607 417.137C486.607 417.137 487.67 390.746 487.952 368.715C488.23 346.684 487.952 345.826 487.952 345.826L473.266 256.111L516.98 258.637L516.983 258.634Z" fill="#282444"/>
<path fill-rule="evenodd" clip-rule="evenodd" d="M516.984 258.634C515.712 319.209 509.816 374.399 496.055 420.427C471.463 414.476 443.484 425.944 425.626 409.917C427.919 385.395 437.696 338.266 437.696 338.266C437.696 338.266 450.638 282.787 459.928 256.108L516.987 258.634H516.984Z" fill="#282444"/>
<path d="M500.495 159.451L503.611 164.632L521.17 173.738L506.488 233.5L520.851 267.893L479.926 272.458L474.159 258.307C474.159 258.307 471.626 258.602 468.982 257.807C466.342 257.008 463.59 255.121 463.59 255.121C463.59 255.121 461.756 261.663 461.644 265.996C461.537 270.328 463.156 272.458 463.156 272.458L454.73 269.647L461.648 215.625L464.702 175.538L481.184 168.759L485.089 161.647L500.491 159.451H500.495Z" fill="#DDDDDD"/>
<path d="M503.608 164.632L521.167 173.738L506.485 233.5L520.848 267.893L479.923 272.458L473.263 256.111C473.263 256.111 464.688 230.818 474.232 208.874C482.984 188.737 503.608 164.632 503.608 164.632Z" fill="#5757AA"/>
<path d="M506.067 193.375L494.129 216.966L470.886 219.801C470.886 219.801 469.948 225.975 469.739 230.915C469.531 235.859 470.059 239.57 470.059 239.57L492.937 242.714L503.968 243.239C503.968 243.239 510.427 259.579 507.068 262.466C503.704 265.356 491.176 271.193 491.176 271.193L520.854 267.893L504.038 227.896L506.07 193.375H506.067Z" fill="#474791"/>
<path d="M481.187 168.759C481.187 168.759 474.419 169.607 470.875 193.976C467.328 218.345 462.624 264.384 462.624 264.384L463.159 272.458L454.733 269.647L464.705 175.538L481.187 168.759Z" fill="#5757AA"/>
<path d="M432.627 190.755L407.236 202.777L436.063 235.679L469.816 236.078L432.627 190.755Z" fill="#9BBFE2"/>
<path d="M407.236 202.776L385.354 189.47L419.282 216.521L407.236 202.776Z" fill="#81A7CC"/>
<path d="M407.104 198.048L407.236 202.776L385.354 189.47L385.935 188.09L407.104 198.048Z" fill="#B5CCE3"/>
<path d="M407.104 198.048L407.236 202.776L432.626 190.755L469.816 236.078L471.831 231.117L433.839 187.809L407.104 198.048Z" fill="#B5CCE3"/>
<path d="M521.171 173.738C533.3 191.815 509.646 236.294 505.929 238.243C501.756 240.428 444.763 235.342 444.763 235.342L445.214 222.91L495.45 220.607C495.45 220.607 516.432 166.678 521.171 173.738Z" fill="#5757AA"/>
<path d="M445.172 224.005L442.615 221.086L439.481 219.648L435.753 214.131L430.993 210.142C430.993 210.142 429.604 210.493 430.107 212.001C430.608 213.509 433.005 216.177 433.005 216.177L434.35 219.426L419.893 216.611C419.893 216.611 418.767 217.344 418.83 218.015C418.889 218.682 420.133 219.28 420.133 219.28L421.807 220.388C421.807 220.388 421.15 221.892 421.703 222.751C422.252 223.609 424.013 223.81 424.013 223.81C424.013 223.81 423.277 224.606 424.854 225.502C426.713 226.558 431.23 228.751 431.23 228.751L437.358 230.477L444.915 231.12L445.172 224.008V224.005Z" fill="#FFD9B3"/>
<path d="M421.001 219.853L421.807 220.388L421.699 220.673C421.699 220.673 423.68 221.086 425.41 221.587C427.14 222.087 428.547 222.91 428.547 222.91C428.547 222.91 429.002 222.191 427.116 221.423C425.229 220.659 421.001 219.849 421.001 219.849V219.853Z" fill="#D9B896"/>
<path d="M424.014 223.81L428.725 225.586H430.063L431.133 226.02L430.021 226.03L428.61 226.152L423.857 224.14L424.014 223.81Z" fill="#D9B896"/>
<path d="M464.705 175.538C460.241 181.993 453.64 210.385 453.64 210.385L460.505 218.206C460.505 218.206 466.012 173.651 464.705 175.538Z" fill="#474791"/>
<path d="M473.197 162.821C471.984 150.206 467.214 144.769 468.176 138.306C469.194 131.448 470.803 127.383 478.724 122.866C483.099 120.372 487.782 122.067 487.782 122.067C487.782 122.067 495.69 119.302 500.269 124.148C507.263 131.538 505.581 142.434 509.688 155.491C513.794 168.544 518.172 172.185 518.172 172.185L503.608 164.632L483.943 165.789L480.406 171.306L471.115 186.788C471.115 186.788 474.409 175.44 473.197 162.825V162.821Z" fill="#232222"/>
<path d="M470.806 139.821C470.806 131.167 477.824 124.148 486.478 124.148C495.133 124.148 502.151 131.167 502.151 139.821C502.151 148.476 490.352 162.512 481.729 163.228C476.837 163.634 470.806 148.476 470.806 139.821Z" fill="#FFD9B3"/>
<path d="M483.828 162.797L498.125 151.304L499.47 163.235L483.404 173.38L483.585 169.593L483.828 162.797Z" fill="#FFD9B3"/>
<path d="M483.828 162.797C483.828 162.797 486.83 161.585 489.054 159.437C491.27 157.297 492.709 154.226 492.709 154.226C492.709 154.226 492.806 157.342 490.586 159.952C488.369 162.557 483.842 164.659 483.842 164.659L483.828 162.794V162.797Z" fill="#E8C5A2"/>
<path d="M476.838 130.166C476.838 130.166 485.955 139.929 490.999 151.304C495.992 162.554 513.11 164.256 513.11 164.256C513.11 164.256 508.288 159.84 505.943 152.635C503.177 144.129 502.52 132.282 497.802 127.171C489.088 117.721 476.838 130.162 476.838 130.162V130.166Z" fill="#232222"/>
<path d="M476.838 130.166C476.838 130.166 476.841 130.006 473.794 133.453C470.622 137.031 471.637 146.179 471.637 146.179C471.637 146.179 468.538 136.149 470.285 131.862C470.647 130.972 476.035 125.326 480.093 123.634C484.551 121.769 487.702 123.891 487.702 123.891L476.834 130.17L476.838 130.166Z" fill="#232222"/>
<path d="M501.86 161.727L483.404 173.38L485.239 180.336L503.608 164.632L501.86 161.727Z" fill="#ADADAD"/>
<path d="M483.838 164.26L483.404 173.38L478.23 177.028L480.805 169.173L483.838 164.26Z" fill="#ADADAD"/>
<path d="M516.764 268.351L516.313 290.931C516.306 291.091 516.306 291.237 516.295 291.4C515.997 296.768 515.576 302.077 514.996 306.67C512.679 325.06 511.563 341.994 511.563 341.994C511.563 341.994 510.003 353.793 507.092 375.851C504.173 397.913 496.054 420.42 496.054 420.42L493.299 419.468C493.299 419.468 501.842 394.276 503.617 376.195C505.389 358.115 503.617 347.275 503.617 347.275C503.617 347.275 506.442 302.987 507.238 288.642C507.901 276.655 491.176 271.193 491.176 271.193L516.764 268.351Z" fill="#1A173D"/>
</g>
<defs>
<clipPath id="clip0_614_269">
<rect width="587.794" height="465.125" fill="white" transform="translate(0.198242 0.544922)"/>
</clipPath>
</defs>
</svg>
