<svg width="122" height="40" viewBox="0 0 122 40" fill="none" xmlns="http://www.w3.org/2000/svg">
<g clip-path="url(#clip0_481_4734)">
<path d="M120.492 27.2727C120.286 27.2727 120.099 27.4077 120 27.6855C118.756 31.2302 117.076 33.342 115.693 33.342C114.899 33.342 114.577 32.4568 114.577 31.0675C114.577 27.5942 116.659 20.2309 117.708 16.8728C117.831 16.4679 117.906 16.1027 117.906 15.7931C117.906 14.8166 117.374 14.3363 116.051 14.3363C114.625 14.3363 113.091 14.892 111.598 17.5079C111.081 15.2056 109.524 14.1973 107.343 14.1973C104.824 14.1973 102.393 15.8169 100.39 18.4407C98.3882 21.0645 96.0364 21.9259 94.2646 21.5011C95.5398 18.3851 96.0126 16.059 96.0126 14.3283C96.0126 11.6172 94.6738 9.9818 92.5047 9.9818C89.2113 9.9818 87.3123 13.1216 87.3123 16.4242C87.3123 18.9766 88.4724 21.6004 91.0189 22.8746C88.8815 27.7014 85.7669 32.0638 84.5831 32.0638C83.0536 32.0638 82.6047 24.5894 82.692 19.2425C82.7477 16.1741 83.0019 16.0193 83.0019 15.0905C83.0019 14.5586 82.6563 14.1934 81.2658 14.1934C78.0281 14.1934 77.027 16.9323 76.872 20.0801C76.8244 21.2749 76.6337 22.4617 76.3158 23.6129C74.9612 28.4397 72.1723 32.0995 70.3528 32.0995C69.5106 32.0995 69.2802 31.258 69.2802 30.1545C69.2802 26.6813 71.2268 22.3426 71.2268 18.6352C71.2268 15.9121 70.031 14.1934 67.7825 14.1934C65.1327 14.1934 61.6247 17.3451 58.3075 23.2517C59.4 18.7305 59.8489 14.3522 56.6152 14.3522C55.912 14.3641 55.2247 14.5387 54.6089 14.8722C54.1839 15.0706 53.9217 15.5073 53.9534 15.9757C54.2633 20.7906 50.0721 33.1197 46.0954 33.1197C45.3724 33.1197 45.0228 32.3377 45.0228 31.0754C45.0228 27.5942 47.0965 20.2508 48.1414 16.8847C48.2764 16.448 48.3479 16.0709 48.3479 15.7454C48.3479 14.8245 47.7759 14.3522 46.4847 14.3522C45.0665 14.3522 43.5251 14.892 42.0393 17.5039C41.5188 15.2016 39.9576 14.1934 37.7805 14.1934C34.209 14.1934 30.2165 17.9683 28.4605 22.8904C26.1127 29.4599 21.3811 35.807 15.0089 35.807C9.22862 35.807 6.17757 31 6.17757 23.4065C6.16963 12.4468 14.2263 3.48382 20.2013 3.48382C23.0576 3.48382 24.4242 5.30182 24.4242 8.09234C24.4242 11.4703 22.5372 13.0383 22.5372 14.3244C22.5372 14.7173 22.863 15.1064 23.5145 15.1064C26.1127 15.1064 29.1677 12.0578 29.1677 7.89784C29.1677 3.73786 25.7909 0.697266 19.8159 0.697266C9.93576 0.697266 0 10.6248 0 23.3509C0 33.473 4.99767 39.578 13.6423 39.578C19.5378 39.578 24.6904 34.9972 27.4673 29.6504C27.7812 34.0803 29.7954 36.3985 32.8663 36.3985C35.5955 36.3985 37.8044 34.775 39.4928 31.917C40.1403 34.9059 41.8645 36.3667 44.1051 36.3667C46.6714 36.3667 48.8207 34.7432 50.8627 31.7225C50.8309 34.0922 51.3712 36.323 53.429 36.323C54.3984 36.323 55.5584 36.0968 55.765 35.2513C57.9301 26.3042 63.2814 19.0004 64.9181 19.0004C65.4028 19.0004 65.5379 19.4688 65.5379 20.0205C65.5379 22.4498 63.8217 27.4354 63.8217 30.615C63.8217 34.0525 65.2836 36.327 68.3069 36.327C71.6559 36.327 75.0605 32.2305 77.3289 26.2406C78.04 31.8376 79.5735 36.3508 81.977 36.3508C84.9247 36.3508 90.1608 30.1505 93.335 23.5851C94.5784 23.7439 96.4456 23.7002 98.2413 22.4339C97.4785 24.3671 97.0296 26.4828 97.0296 28.5985C97.0296 34.6916 99.9416 36.3985 102.448 36.3985C105.174 36.3985 107.382 34.775 109.075 31.917C109.631 34.4931 111.057 36.3588 113.679 36.3588C117.779 36.3588 121.343 32.171 121.343 28.7335C121.343 27.8245 120.953 27.2727 120.5 27.2727H120.492ZM35.3691 33.0205C33.7125 33.0205 33.0649 31.3533 33.0649 28.8684C33.0649 24.5536 36.0206 17.3451 39.1432 17.3451C40.5098 17.3451 41.0223 18.9527 41.0223 20.9137C41.0223 25.2959 38.2135 33.0205 35.3691 33.0205ZM92.0994 20.1356C91.1102 18.9607 90.7527 17.361 90.7527 15.936C90.7527 14.1775 91.3963 12.6929 92.167 12.6929C92.9377 12.6929 93.176 13.4511 93.176 14.507C93.176 16.2694 92.5444 18.8456 92.1034 20.1396L92.0994 20.1356ZM104.943 33.0205C103.287 33.0205 102.639 31.1032 102.639 28.8684C102.639 24.7045 105.595 17.3451 108.741 17.3451C110.108 17.3451 110.592 18.9408 110.592 20.9137C110.592 25.2959 107.831 33.0205 104.943 33.0205Z" fill="url(#paint0_linear_481_4734)"/>
<path d="M120.492 27.2727C120.286 27.2727 120.099 27.4077 120 27.6855C118.756 31.2302 117.076 33.342 115.693 33.342C114.899 33.342 114.577 32.4568 114.577 31.0675C114.577 27.5942 116.659 20.2309 117.708 16.8728C117.831 16.4679 117.906 16.1027 117.906 15.7931C117.906 14.8166 117.374 14.3363 116.051 14.3363C114.625 14.3363 113.091 14.892 111.598 17.5079C111.081 15.2056 109.524 14.1973 107.343 14.1973C104.824 14.1973 102.393 15.8169 100.39 18.4407C98.3882 21.0645 96.0364 21.9259 94.2646 21.5011C95.5398 18.3851 96.0126 16.059 96.0126 14.3283C96.0126 11.6172 94.6738 9.9818 92.5047 9.9818C89.2113 9.9818 87.3123 13.1216 87.3123 16.4242C87.3123 18.9766 88.4724 21.6004 91.0189 22.8746C88.8815 27.7014 85.7669 32.0638 84.5831 32.0638C83.0536 32.0638 82.6047 24.5894 82.692 19.2425C82.7477 16.1741 83.0019 16.0193 83.0019 15.0905C83.0019 14.5586 82.6563 14.1934 81.2658 14.1934C78.0281 14.1934 77.027 16.9323 76.872 20.0801C76.8244 21.2749 76.6337 22.4617 76.3158 23.6129C74.9612 28.4397 72.1723 32.0995 70.3528 32.0995C69.5106 32.0995 69.2802 31.258 69.2802 30.1545C69.2802 26.6813 71.2268 22.3426 71.2268 18.6352C71.2268 15.9121 70.031 14.1934 67.7825 14.1934C65.1327 14.1934 61.6247 17.3451 58.3075 23.2517C59.4 18.7305 59.8489 14.3522 56.6152 14.3522C55.912 14.3641 55.2247 14.5387 54.6089 14.8722C54.1839 15.0706 53.9217 15.5073 53.9534 15.9757C54.2633 20.7906 50.0721 33.1197 46.0954 33.1197C45.3724 33.1197 45.0228 32.3377 45.0228 31.0754C45.0228 27.5942 47.0965 20.2508 48.1414 16.8847C48.2764 16.448 48.3479 16.0709 48.3479 15.7454C48.3479 14.8245 47.7759 14.3522 46.4847 14.3522C45.0665 14.3522 43.5251 14.892 42.0393 17.5039C41.5188 15.2016 39.9576 14.1934 37.7805 14.1934C34.209 14.1934 30.2165 17.9683 28.4605 22.8904C26.1127 29.4599 21.3811 35.807 15.0089 35.807C9.22862 35.807 6.17757 31 6.17757 23.4065C6.16963 12.4468 14.2263 3.48382 20.2013 3.48382C23.0576 3.48382 24.4242 5.30182 24.4242 8.09234C24.4242 11.4703 22.5372 13.0383 22.5372 14.3244C22.5372 14.7173 22.863 15.1064 23.5145 15.1064C26.1127 15.1064 29.1677 12.0578 29.1677 7.89784C29.1677 3.73786 25.7909 0.697266 19.8159 0.697266C9.93576 0.697266 0 10.6248 0 23.3509C0 33.473 4.99767 39.578 13.6423 39.578C19.5378 39.578 24.6904 34.9972 27.4673 29.6504C27.7812 34.0803 29.7954 36.3985 32.8663 36.3985C35.5955 36.3985 37.8044 34.775 39.4928 31.917C40.1403 34.9059 41.8645 36.3667 44.1051 36.3667C46.6714 36.3667 48.8207 34.7432 50.8627 31.7225C50.8309 34.0922 51.3712 36.323 53.429 36.323C54.3984 36.323 55.5584 36.0968 55.765 35.2513C57.9301 26.3042 63.2814 19.0004 64.9181 19.0004C65.4028 19.0004 65.5379 19.4688 65.5379 20.0205C65.5379 22.4498 63.8217 27.4354 63.8217 30.615C63.8217 34.0525 65.2836 36.327 68.3069 36.327C71.6559 36.327 75.0605 32.2305 77.3289 26.2406C78.04 31.8376 79.5735 36.3508 81.977 36.3508C84.9247 36.3508 90.1608 30.1505 93.335 23.5851C94.5784 23.7439 96.4456 23.7002 98.2413 22.4339C97.4785 24.3671 97.0296 26.4828 97.0296 28.5985C97.0296 34.6916 99.9416 36.3985 102.448 36.3985C105.174 36.3985 107.382 34.775 109.075 31.917C109.631 34.4931 111.057 36.3588 113.679 36.3588C117.779 36.3588 121.343 32.171 121.343 28.7335C121.343 27.8245 120.953 27.2727 120.5 27.2727H120.492ZM35.3691 33.0205C33.7125 33.0205 33.0649 31.3533 33.0649 28.8684C33.0649 24.5536 36.0206 17.3451 39.1432 17.3451C40.5098 17.3451 41.0223 18.9527 41.0223 20.9137C41.0223 25.2959 38.2135 33.0205 35.3691 33.0205ZM92.0994 20.1356C91.1102 18.9607 90.7527 17.361 90.7527 15.936C90.7527 14.1775 91.3963 12.6929 92.167 12.6929C92.9377 12.6929 93.176 13.4511 93.176 14.507C93.176 16.2694 92.5444 18.8456 92.1034 20.1396L92.0994 20.1356ZM104.943 33.0205C103.287 33.0205 102.639 31.1032 102.639 28.8684C102.639 24.7045 105.595 17.3451 108.741 17.3451C110.108 17.3451 110.592 18.9408 110.592 20.9137C110.592 25.2959 107.831 33.0205 104.943 33.0205Z" fill="url(#paint1_radial_481_4734)"/>
<path d="M120.492 27.2727C120.286 27.2727 120.099 27.4077 120 27.6855C118.756 31.2302 117.076 33.342 115.693 33.342C114.899 33.342 114.577 32.4568 114.577 31.0675C114.577 27.5942 116.659 20.2309 117.708 16.8728C117.831 16.4679 117.906 16.1027 117.906 15.7931C117.906 14.8166 117.374 14.3363 116.051 14.3363C114.625 14.3363 113.091 14.892 111.598 17.5079C111.081 15.2056 109.524 14.1973 107.343 14.1973C104.824 14.1973 102.393 15.8169 100.39 18.4407C98.3882 21.0645 96.0364 21.9259 94.2646 21.5011C95.5398 18.3851 96.0126 16.059 96.0126 14.3283C96.0126 11.6172 94.6738 9.9818 92.5047 9.9818C89.2113 9.9818 87.3123 13.1216 87.3123 16.4242C87.3123 18.9766 88.4724 21.6004 91.0189 22.8746C88.8815 27.7014 85.7669 32.0638 84.5831 32.0638C83.0536 32.0638 82.6047 24.5894 82.692 19.2425C82.7477 16.1741 83.0019 16.0193 83.0019 15.0905C83.0019 14.5586 82.6563 14.1934 81.2658 14.1934C78.0281 14.1934 77.027 16.9323 76.872 20.0801C76.8244 21.2749 76.6337 22.4617 76.3158 23.6129C74.9612 28.4397 72.1723 32.0995 70.3528 32.0995C69.5106 32.0995 69.2802 31.258 69.2802 30.1545C69.2802 26.6813 71.2268 22.3426 71.2268 18.6352C71.2268 15.9121 70.031 14.1934 67.7825 14.1934C65.1327 14.1934 61.6247 17.3451 58.3075 23.2517C59.4 18.7305 59.8489 14.3522 56.6152 14.3522C55.912 14.3641 55.2247 14.5387 54.6089 14.8722C54.1839 15.0706 53.9217 15.5073 53.9534 15.9757C54.2633 20.7906 50.0721 33.1197 46.0954 33.1197C45.3724 33.1197 45.0228 32.3377 45.0228 31.0754C45.0228 27.5942 47.0965 20.2508 48.1414 16.8847C48.2764 16.448 48.3479 16.0709 48.3479 15.7454C48.3479 14.8245 47.7759 14.3522 46.4847 14.3522C45.0665 14.3522 43.5251 14.892 42.0393 17.5039C41.5188 15.2016 39.9576 14.1934 37.7805 14.1934C34.209 14.1934 30.2165 17.9683 28.4605 22.8904C26.1127 29.4599 21.3811 35.807 15.0089 35.807C9.22862 35.807 6.17757 31 6.17757 23.4065C6.16963 12.4468 14.2263 3.48382 20.2013 3.48382C23.0576 3.48382 24.4242 5.30182 24.4242 8.09234C24.4242 11.4703 22.5372 13.0383 22.5372 14.3244C22.5372 14.7173 22.863 15.1064 23.5145 15.1064C26.1127 15.1064 29.1677 12.0578 29.1677 7.89784C29.1677 3.73786 25.7909 0.697266 19.8159 0.697266C9.93576 0.697266 0 10.6248 0 23.3509C0 33.473 4.99767 39.578 13.6423 39.578C19.5378 39.578 24.6904 34.9972 27.4673 29.6504C27.7812 34.0803 29.7954 36.3985 32.8663 36.3985C35.5955 36.3985 37.8044 34.775 39.4928 31.917C40.1403 34.9059 41.8645 36.3667 44.1051 36.3667C46.6714 36.3667 48.8207 34.7432 50.8627 31.7225C50.8309 34.0922 51.3712 36.323 53.429 36.323C54.3984 36.323 55.5584 36.0968 55.765 35.2513C57.9301 26.3042 63.2814 19.0004 64.9181 19.0004C65.4028 19.0004 65.5379 19.4688 65.5379 20.0205C65.5379 22.4498 63.8217 27.4354 63.8217 30.615C63.8217 34.0525 65.2836 36.327 68.3069 36.327C71.6559 36.327 75.0605 32.2305 77.3289 26.2406C78.04 31.8376 79.5735 36.3508 81.977 36.3508C84.9247 36.3508 90.1608 30.1505 93.335 23.5851C94.5784 23.7439 96.4456 23.7002 98.2413 22.4339C97.4785 24.3671 97.0296 26.4828 97.0296 28.5985C97.0296 34.6916 99.9416 36.3985 102.448 36.3985C105.174 36.3985 107.382 34.775 109.075 31.917C109.631 34.4931 111.057 36.3588 113.679 36.3588C117.779 36.3588 121.343 32.171 121.343 28.7335C121.343 27.8245 120.953 27.2727 120.5 27.2727H120.492ZM35.3691 33.0205C33.7125 33.0205 33.0649 31.3533 33.0649 28.8684C33.0649 24.5536 36.0206 17.3451 39.1432 17.3451C40.5098 17.3451 41.0223 18.9527 41.0223 20.9137C41.0223 25.2959 38.2135 33.0205 35.3691 33.0205ZM92.0994 20.1356C91.1102 18.9607 90.7527 17.361 90.7527 15.936C90.7527 14.1775 91.3963 12.6929 92.167 12.6929C92.9377 12.6929 93.176 13.4511 93.176 14.507C93.176 16.2694 92.5444 18.8456 92.1034 20.1396L92.0994 20.1356ZM104.943 33.0205C103.287 33.0205 102.639 31.1032 102.639 28.8684C102.639 24.7045 105.595 17.3451 108.741 17.3451C110.108 17.3451 110.592 18.9408 110.592 20.9137C110.592 25.2959 107.831 33.0205 104.943 33.0205Z" fill="url(#paint2_radial_481_4734)"/>
<path d="M120.492 27.2727C120.286 27.2727 120.099 27.4077 120 27.6855C118.756 31.2302 117.076 33.342 115.693 33.342C114.899 33.342 114.577 32.4568 114.577 31.0675C114.577 27.5942 116.659 20.2309 117.708 16.8728C117.831 16.4679 117.906 16.1027 117.906 15.7931C117.906 14.8166 117.374 14.3363 116.051 14.3363C114.625 14.3363 113.091 14.892 111.598 17.5079C111.081 15.2056 109.524 14.1973 107.343 14.1973C104.824 14.1973 102.393 15.8169 100.39 18.4407C98.3882 21.0645 96.0364 21.9259 94.2646 21.5011C95.5398 18.3851 96.0126 16.059 96.0126 14.3283C96.0126 11.6172 94.6738 9.9818 92.5047 9.9818C89.2113 9.9818 87.3123 13.1216 87.3123 16.4242C87.3123 18.9766 88.4724 21.6004 91.0189 22.8746C88.8815 27.7014 85.7669 32.0638 84.5831 32.0638C83.0536 32.0638 82.6047 24.5894 82.692 19.2425C82.7477 16.1741 83.0019 16.0193 83.0019 15.0905C83.0019 14.5586 82.6563 14.1934 81.2658 14.1934C78.0281 14.1934 77.027 16.9323 76.872 20.0801C76.8244 21.2749 76.6337 22.4617 76.3158 23.6129C74.9612 28.4397 72.1723 32.0995 70.3528 32.0995C69.5106 32.0995 69.2802 31.258 69.2802 30.1545C69.2802 26.6813 71.2268 22.3426 71.2268 18.6352C71.2268 15.9121 70.031 14.1934 67.7825 14.1934C65.1327 14.1934 61.6247 17.3451 58.3075 23.2517C59.4 18.7305 59.8489 14.3522 56.6152 14.3522C55.912 14.3641 55.2247 14.5387 54.6089 14.8722C54.1839 15.0706 53.9217 15.5073 53.9534 15.9757C54.2633 20.7906 50.0721 33.1197 46.0954 33.1197C45.3724 33.1197 45.0228 32.3377 45.0228 31.0754C45.0228 27.5942 47.0965 20.2508 48.1414 16.8847C48.2764 16.448 48.3479 16.0709 48.3479 15.7454C48.3479 14.8245 47.7759 14.3522 46.4847 14.3522C45.0665 14.3522 43.5251 14.892 42.0393 17.5039C41.5188 15.2016 39.9576 14.1934 37.7805 14.1934C34.209 14.1934 30.2165 17.9683 28.4605 22.8904C26.1127 29.4599 21.3811 35.807 15.0089 35.807C9.22862 35.807 6.17757 31 6.17757 23.4065C6.16963 12.4468 14.2263 3.48382 20.2013 3.48382C23.0576 3.48382 24.4242 5.30182 24.4242 8.09234C24.4242 11.4703 22.5372 13.0383 22.5372 14.3244C22.5372 14.7173 22.863 15.1064 23.5145 15.1064C26.1127 15.1064 29.1677 12.0578 29.1677 7.89784C29.1677 3.73786 25.7909 0.697266 19.8159 0.697266C9.93576 0.697266 0 10.6248 0 23.3509C0 33.473 4.99767 39.578 13.6423 39.578C19.5378 39.578 24.6904 34.9972 27.4673 29.6504C27.7812 34.0803 29.7954 36.3985 32.8663 36.3985C35.5955 36.3985 37.8044 34.775 39.4928 31.917C40.1403 34.9059 41.8645 36.3667 44.1051 36.3667C46.6714 36.3667 48.8207 34.7432 50.8627 31.7225C50.8309 34.0922 51.3712 36.323 53.429 36.323C54.3984 36.323 55.5584 36.0968 55.765 35.2513C57.9301 26.3042 63.2814 19.0004 64.9181 19.0004C65.4028 19.0004 65.5379 19.4688 65.5379 20.0205C65.5379 22.4498 63.8217 27.4354 63.8217 30.615C63.8217 34.0525 65.2836 36.327 68.3069 36.327C71.6559 36.327 75.0605 32.2305 77.3289 26.2406C78.04 31.8376 79.5735 36.3508 81.977 36.3508C84.9247 36.3508 90.1608 30.1505 93.335 23.5851C94.5784 23.7439 96.4456 23.7002 98.2413 22.4339C97.4785 24.3671 97.0296 26.4828 97.0296 28.5985C97.0296 34.6916 99.9416 36.3985 102.448 36.3985C105.174 36.3985 107.382 34.775 109.075 31.917C109.631 34.4931 111.057 36.3588 113.679 36.3588C117.779 36.3588 121.343 32.171 121.343 28.7335C121.343 27.8245 120.953 27.2727 120.5 27.2727H120.492ZM35.3691 33.0205C33.7125 33.0205 33.0649 31.3533 33.0649 28.8684C33.0649 24.5536 36.0206 17.3451 39.1432 17.3451C40.5098 17.3451 41.0223 18.9527 41.0223 20.9137C41.0223 25.2959 38.2135 33.0205 35.3691 33.0205ZM92.0994 20.1356C91.1102 18.9607 90.7527 17.361 90.7527 15.936C90.7527 14.1775 91.3963 12.6929 92.167 12.6929C92.9377 12.6929 93.176 13.4511 93.176 14.507C93.176 16.2694 92.5444 18.8456 92.1034 20.1396L92.0994 20.1356ZM104.943 33.0205C103.287 33.0205 102.639 31.1032 102.639 28.8684C102.639 24.7045 105.595 17.3451 108.741 17.3451C110.108 17.3451 110.592 18.9408 110.592 20.9137C110.592 25.2959 107.831 33.0205 104.943 33.0205Z" fill="url(#paint3_radial_481_4734)"/>
<path d="M120.492 27.2727C120.286 27.2727 120.099 27.4077 120 27.6855C118.756 31.2302 117.076 33.342 115.693 33.342C114.899 33.342 114.577 32.4568 114.577 31.0675C114.577 27.5942 116.659 20.2309 117.708 16.8728C117.831 16.4679 117.906 16.1027 117.906 15.7931C117.906 14.8166 117.374 14.3363 116.051 14.3363C114.625 14.3363 113.091 14.892 111.598 17.5079C111.081 15.2056 109.524 14.1973 107.343 14.1973C104.824 14.1973 102.393 15.8169 100.39 18.4407C98.3882 21.0645 96.0364 21.9259 94.2646 21.5011C95.5398 18.3851 96.0126 16.059 96.0126 14.3283C96.0126 11.6172 94.6738 9.9818 92.5047 9.9818C89.2113 9.9818 87.3123 13.1216 87.3123 16.4242C87.3123 18.9766 88.4724 21.6004 91.0189 22.8746C88.8815 27.7014 85.7669 32.0638 84.5831 32.0638C83.0536 32.0638 82.6047 24.5894 82.692 19.2425C82.7477 16.1741 83.0019 16.0193 83.0019 15.0905C83.0019 14.5586 82.6563 14.1934 81.2658 14.1934C78.0281 14.1934 77.027 16.9323 76.872 20.0801C76.8244 21.2749 76.6337 22.4617 76.3158 23.6129C74.9612 28.4397 72.1723 32.0995 70.3528 32.0995C69.5106 32.0995 69.2802 31.258 69.2802 30.1545C69.2802 26.6813 71.2268 22.3426 71.2268 18.6352C71.2268 15.9121 70.031 14.1934 67.7825 14.1934C65.1327 14.1934 61.6247 17.3451 58.3075 23.2517C59.4 18.7305 59.8489 14.3522 56.6152 14.3522C55.912 14.3641 55.2247 14.5387 54.6089 14.8722C54.1839 15.0706 53.9217 15.5073 53.9534 15.9757C54.2633 20.7906 50.0721 33.1197 46.0954 33.1197C45.3724 33.1197 45.0228 32.3377 45.0228 31.0754C45.0228 27.5942 47.0965 20.2508 48.1414 16.8847C48.2764 16.448 48.3479 16.0709 48.3479 15.7454C48.3479 14.8245 47.7759 14.3522 46.4847 14.3522C45.0665 14.3522 43.5251 14.892 42.0393 17.5039C41.5188 15.2016 39.9576 14.1934 37.7805 14.1934C34.209 14.1934 30.2165 17.9683 28.4605 22.8904C26.1127 29.4599 21.3811 35.807 15.0089 35.807C9.22862 35.807 6.17757 31 6.17757 23.4065C6.16963 12.4468 14.2263 3.48382 20.2013 3.48382C23.0576 3.48382 24.4242 5.30182 24.4242 8.09234C24.4242 11.4703 22.5372 13.0383 22.5372 14.3244C22.5372 14.7173 22.863 15.1064 23.5145 15.1064C26.1127 15.1064 29.1677 12.0578 29.1677 7.89784C29.1677 3.73786 25.7909 0.697266 19.8159 0.697266C9.93576 0.697266 0 10.6248 0 23.3509C0 33.473 4.99767 39.578 13.6423 39.578C19.5378 39.578 24.6904 34.9972 27.4673 29.6504C27.7812 34.0803 29.7954 36.3985 32.8663 36.3985C35.5955 36.3985 37.8044 34.775 39.4928 31.917C40.1403 34.9059 41.8645 36.3667 44.1051 36.3667C46.6714 36.3667 48.8207 34.7432 50.8627 31.7225C50.8309 34.0922 51.3712 36.323 53.429 36.323C54.3984 36.323 55.5584 36.0968 55.765 35.2513C57.9301 26.3042 63.2814 19.0004 64.9181 19.0004C65.4028 19.0004 65.5379 19.4688 65.5379 20.0205C65.5379 22.4498 63.8217 27.4354 63.8217 30.615C63.8217 34.0525 65.2836 36.327 68.3069 36.327C71.6559 36.327 75.0605 32.2305 77.3289 26.2406C78.04 31.8376 79.5735 36.3508 81.977 36.3508C84.9247 36.3508 90.1608 30.1505 93.335 23.5851C94.5784 23.7439 96.4456 23.7002 98.2413 22.4339C97.4785 24.3671 97.0296 26.4828 97.0296 28.5985C97.0296 34.6916 99.9416 36.3985 102.448 36.3985C105.174 36.3985 107.382 34.775 109.075 31.917C109.631 34.4931 111.057 36.3588 113.679 36.3588C117.779 36.3588 121.343 32.171 121.343 28.7335C121.343 27.8245 120.953 27.2727 120.5 27.2727H120.492ZM35.3691 33.0205C33.7125 33.0205 33.0649 31.3533 33.0649 28.8684C33.0649 24.5536 36.0206 17.3451 39.1432 17.3451C40.5098 17.3451 41.0223 18.9527 41.0223 20.9137C41.0223 25.2959 38.2135 33.0205 35.3691 33.0205ZM92.0994 20.1356C91.1102 18.9607 90.7527 17.361 90.7527 15.936C90.7527 14.1775 91.3963 12.6929 92.167 12.6929C92.9377 12.6929 93.176 13.4511 93.176 14.507C93.176 16.2694 92.5444 18.8456 92.1034 20.1396L92.0994 20.1356ZM104.943 33.0205C103.287 33.0205 102.639 31.1032 102.639 28.8684C102.639 24.7045 105.595 17.3451 108.741 17.3451C110.108 17.3451 110.592 18.9408 110.592 20.9137C110.592 25.2959 107.831 33.0205 104.943 33.0205Z" fill="url(#paint4_radial_481_4734)"/>
<path d="M120.492 27.2727C120.286 27.2727 120.099 27.4077 120 27.6855C118.756 31.2302 117.076 33.342 115.693 33.342C114.899 33.342 114.577 32.4568 114.577 31.0675C114.577 27.5942 116.659 20.2309 117.708 16.8728C117.831 16.4679 117.906 16.1027 117.906 15.7931C117.906 14.8166 117.374 14.3363 116.051 14.3363C114.625 14.3363 113.091 14.892 111.598 17.5079C111.081 15.2056 109.524 14.1973 107.343 14.1973C104.824 14.1973 102.393 15.8169 100.39 18.4407C98.3882 21.0645 96.0364 21.9259 94.2646 21.5011C95.5398 18.3851 96.0126 16.059 96.0126 14.3283C96.0126 11.6172 94.6738 9.9818 92.5047 9.9818C89.2113 9.9818 87.3123 13.1216 87.3123 16.4242C87.3123 18.9766 88.4724 21.6004 91.0189 22.8746C88.8815 27.7014 85.7669 32.0638 84.5831 32.0638C83.0536 32.0638 82.6047 24.5894 82.692 19.2425C82.7477 16.1741 83.0019 16.0193 83.0019 15.0905C83.0019 14.5586 82.6563 14.1934 81.2658 14.1934C78.0281 14.1934 77.027 16.9323 76.872 20.0801C76.8244 21.2749 76.6337 22.4617 76.3158 23.6129C74.9612 28.4397 72.1723 32.0995 70.3528 32.0995C69.5106 32.0995 69.2802 31.258 69.2802 30.1545C69.2802 26.6813 71.2268 22.3426 71.2268 18.6352C71.2268 15.9121 70.031 14.1934 67.7825 14.1934C65.1327 14.1934 61.6247 17.3451 58.3075 23.2517C59.4 18.7305 59.8489 14.3522 56.6152 14.3522C55.912 14.3641 55.2247 14.5387 54.6089 14.8722C54.1839 15.0706 53.9217 15.5073 53.9534 15.9757C54.2633 20.7906 50.0721 33.1197 46.0954 33.1197C45.3724 33.1197 45.0228 32.3377 45.0228 31.0754C45.0228 27.5942 47.0965 20.2508 48.1414 16.8847C48.2764 16.448 48.3479 16.0709 48.3479 15.7454C48.3479 14.8245 47.7759 14.3522 46.4847 14.3522C45.0665 14.3522 43.5251 14.892 42.0393 17.5039C41.5188 15.2016 39.9576 14.1934 37.7805 14.1934C34.209 14.1934 30.2165 17.9683 28.4605 22.8904C26.1127 29.4599 21.3811 35.807 15.0089 35.807C9.22862 35.807 6.17757 31 6.17757 23.4065C6.16963 12.4468 14.2263 3.48382 20.2013 3.48382C23.0576 3.48382 24.4242 5.30182 24.4242 8.09234C24.4242 11.4703 22.5372 13.0383 22.5372 14.3244C22.5372 14.7173 22.863 15.1064 23.5145 15.1064C26.1127 15.1064 29.1677 12.0578 29.1677 7.89784C29.1677 3.73786 25.7909 0.697266 19.8159 0.697266C9.93576 0.697266 0 10.6248 0 23.3509C0 33.473 4.99767 39.578 13.6423 39.578C19.5378 39.578 24.6904 34.9972 27.4673 29.6504C27.7812 34.0803 29.7954 36.3985 32.8663 36.3985C35.5955 36.3985 37.8044 34.775 39.4928 31.917C40.1403 34.9059 41.8645 36.3667 44.1051 36.3667C46.6714 36.3667 48.8207 34.7432 50.8627 31.7225C50.8309 34.0922 51.3712 36.323 53.429 36.323C54.3984 36.323 55.5584 36.0968 55.765 35.2513C57.9301 26.3042 63.2814 19.0004 64.9181 19.0004C65.4028 19.0004 65.5379 19.4688 65.5379 20.0205C65.5379 22.4498 63.8217 27.4354 63.8217 30.615C63.8217 34.0525 65.2836 36.327 68.3069 36.327C71.6559 36.327 75.0605 32.2305 77.3289 26.2406C78.04 31.8376 79.5735 36.3508 81.977 36.3508C84.9247 36.3508 90.1608 30.1505 93.335 23.5851C94.5784 23.7439 96.4456 23.7002 98.2413 22.4339C97.4785 24.3671 97.0296 26.4828 97.0296 28.5985C97.0296 34.6916 99.9416 36.3985 102.448 36.3985C105.174 36.3985 107.382 34.775 109.075 31.917C109.631 34.4931 111.057 36.3588 113.679 36.3588C117.779 36.3588 121.343 32.171 121.343 28.7335C121.343 27.8245 120.953 27.2727 120.5 27.2727H120.492ZM35.3691 33.0205C33.7125 33.0205 33.0649 31.3533 33.0649 28.8684C33.0649 24.5536 36.0206 17.3451 39.1432 17.3451C40.5098 17.3451 41.0223 18.9527 41.0223 20.9137C41.0223 25.2959 38.2135 33.0205 35.3691 33.0205ZM92.0994 20.1356C91.1102 18.9607 90.7527 17.361 90.7527 15.936C90.7527 14.1775 91.3963 12.6929 92.167 12.6929C92.9377 12.6929 93.176 13.4511 93.176 14.507C93.176 16.2694 92.5444 18.8456 92.1034 20.1396L92.0994 20.1356ZM104.943 33.0205C103.287 33.0205 102.639 31.1032 102.639 28.8684C102.639 24.7045 105.595 17.3451 108.741 17.3451C110.108 17.3451 110.592 18.9408 110.592 20.9137C110.592 25.2959 107.831 33.0205 104.943 33.0205Z" fill="url(#paint5_radial_481_4734)"/>
</g>
<defs>
<linearGradient id="paint0_linear_481_4734" x1="120.016" y1="40.2488" x2="19.074" y2="16.2081" gradientUnits="userSpaceOnUse">
<stop stop-color="#7D2AE7"/>
<stop offset="0.77" stop-color="#7D2AE7"/>
<stop offset="1" stop-color="#7D2AE7" stop-opacity="0"/>
</linearGradient>
<radialGradient id="paint1_radial_481_4734" cx="0" cy="0" r="1" gradientUnits="userSpaceOnUse" gradientTransform="translate(62.2105 51.1974) rotate(-45.7864) scale(35.8894 23.8518)">
<stop stop-color="#6420FF"/>
<stop offset="1" stop-color="#6420FF" stop-opacity="0"/>
</radialGradient>
<radialGradient id="paint2_radial_481_4734" cx="0" cy="0" r="1" gradientUnits="userSpaceOnUse" gradientTransform="translate(10.4588 22.214) rotate(5.08583) scale(69.8768 55.648)">
<stop offset="0.25" stop-color="#00C4CC"/>
<stop offset="1" stop-color="#00C4CC" stop-opacity="0"/>
</radialGradient>
<radialGradient id="paint3_radial_481_4734" cx="0" cy="0" r="1" gradientUnits="userSpaceOnUse" gradientTransform="translate(51.1902 41.8874) rotate(-38.827) scale(45.0151 30.7746)">
<stop stop-color="#6420FF"/>
<stop offset="1" stop-color="#6420FF" stop-opacity="0"/>
</radialGradient>
<radialGradient id="paint4_radial_481_4734" cx="0" cy="0" r="1" gradientUnits="userSpaceOnUse" gradientTransform="translate(4.32126 54.5166) rotate(-34.2481) scale(52.4804 35.8737)">
<stop stop-color="#6420FF"/>
<stop offset="1" stop-color="#6420FF" stop-opacity="0"/>
</radialGradient>
<radialGradient id="paint5_radial_481_4734" cx="0" cy="0" r="1" gradientUnits="userSpaceOnUse" gradientTransform="translate(-4.14746 4.67856) rotate(12.4601) scale(103.748 127.148)">
<stop stop-color="#00C4CC"/>
<stop offset="1" stop-color="#00C4CC" stop-opacity="0"/>
</radialGradient>
<clipPath id="clip0_481_4734">
<rect width="121.335" height="38.8807" fill="white" transform="translate(0 0.697266)"/>
</clipPath>
</defs>
</svg>
