<svg width="118" height="132" viewBox="0 0 118 132" fill="none" xmlns="http://www.w3.org/2000/svg">
<path d="M87.9609 66.3976C87.1001 66.9913 86.5182 67.2894 86.0687 67.7166C75.8655 77.425 65.6749 87.1469 55.4843 96.8674C52.5186 99.6961 52.5326 101.277 55.5392 104.143C58.2626 106.741 60.9734 109.351 63.7151 111.93C65.9693 114.051 67.9939 114.063 70.2341 111.93C85.1008 97.774 99.9563 83.6089 114.805 69.4372C117.108 67.2384 117.084 65.3392 114.741 63.1055C99.9309 48.9753 85.1149 34.8506 70.2904 20.7339C67.9686 18.523 65.9848 18.5378 63.6432 20.746C60.8649 23.3692 58.1063 26.0112 55.3434 28.6492C52.6158 31.2522 52.6017 33.0051 55.2983 35.5772C65.5326 45.3354 75.7697 55.0908 86.0138 64.8395C86.4675 65.2707 86.9958 65.6293 87.9609 66.3962V66.3976Z" stroke="#515151" stroke-miterlimit="10"/>
<path d="M1.00853 124.721C1.32835 123.625 1.77215 122.017 2.26668 120.423C14.131 82.1248 26.001 43.8284 37.8725 5.53193C38.0697 4.89392 38.2585 4.24651 38.5403 3.64209C39.3574 1.88657 40.8114 1.02291 42.7402 1.4675C45.6228 2.13237 48.4899 2.90469 51.2852 3.84491C53.5606 4.61051 54.234 6.39424 53.4676 8.93014C52.2249 13.0402 50.9428 17.1382 49.672 21.2389C38.7305 56.5535 27.7889 91.8681 16.8404 127.181C16.6093 127.926 16.3937 128.692 16.0176 129.371C15.23 130.786 13.8718 131.596 12.2586 131.227C9.20552 130.529 6.18765 129.658 3.21769 128.683C1.60027 128.153 0.914133 126.829 1.00853 124.719V124.721Z" stroke="#515151" stroke-miterlimit="10"/>
</svg>
