<svg width="63" height="93" viewBox="0 0 63 93" fill="none" xmlns="http://www.w3.org/2000/svg">
<g clip-path="url(#clip0_481_4743)">
<path d="M16.4723 93.0053C25.0335 93.0053 31.9818 86.0731 31.9818 77.5319V62.0586H16.4723C7.91119 62.059 0.962891 68.9907 0.962891 77.5319C0.962891 86.0731 7.91119 93.0053 16.4723 93.0053Z" fill="#0ACF83"/>
<path d="M0.962891 46.5856C0.962891 38.0444 7.91119 31.1123 16.4723 31.1123H31.9818V62.0586H16.4723C7.91119 62.059 0.962891 55.1268 0.962891 46.5856Z" fill="#A259FF"/>
<path d="M0.962891 15.6393C0.962891 7.09814 7.91119 0.166016 16.4723 0.166016H31.9818V31.1123H16.4723C7.91119 31.1123 0.962891 24.1806 0.962891 15.6393Z" fill="#F24E1E"/>
<path d="M31.9814 0.166016H47.4909C56.052 0.166016 63.0003 7.09814 63.0003 15.6393C63.0003 24.1806 56.052 31.1127 47.4909 31.1127H31.9814V0.166016Z" fill="#FF7262"/>
<path d="M63.0003 46.5856C63.0003 55.1268 56.052 62.059 47.4909 62.059C38.9297 62.059 31.9814 55.1268 31.9814 46.5856C31.9814 38.0444 38.9297 31.1123 47.4909 31.1123C56.052 31.1123 63.0003 38.0444 63.0003 46.5856Z" fill="#1ABCFE"/>
</g>
<defs>
<clipPath id="clip0_481_4743">
<rect width="62.0374" height="92.8392" fill="white" transform="translate(0.962891 0.166016)"/>
</clipPath>
</defs>
</svg>
