<svg width="407" height="408" viewBox="0 0 407 408" fill="none" xmlns="http://www.w3.org/2000/svg">
<g style="mix-blend-mode:luminosity" opacity="0.5">
<g filter="url(#filter0_d_740_93)">
<rect x="15" y="11.9775" width="376.866" height="376.082" rx="25" fill="white"/>
<rect x="16" y="12.9775" width="374.866" height="374.082" rx="24" stroke="#F5AF02" stroke-width="2"/>
</g>
<circle cx="200.691" cy="200.019" r="92.7371" fill="#F5AF02" stroke="#F5AF02"/>
<g clip-path="url(#clip0_740_93)">
<path d="M253.969 223.832C253.881 224.133 253.797 224.434 253.702 224.735C253.373 225.772 252.795 226.642 251.998 227.371C247.458 231.515 242.521 235.095 237.184 238.094C232.667 240.633 227.945 242.663 222.912 243.904C219.028 244.859 215.092 245.149 211.113 244.971C207.971 244.83 204.825 244.748 201.694 244.476C195.86 243.967 190.074 243.109 184.664 240.663C183.033 239.923 181.49 238.957 179.972 237.994C178.944 237.343 177.927 236.994 176.691 237.001C166.888 237.039 157.082 237.024 147.28 237.024H146.629V214.145H147.251C153.593 214.145 159.939 214.153 166.281 214.13C166.691 214.13 167.148 214.011 167.507 213.811C171.285 211.688 175.239 210.03 179.489 209.198C187.887 207.555 195.736 208.908 202.861 213.852C203.618 214.376 204.324 214.588 205.209 214.58C210.067 214.55 214.924 214.558 219.785 214.573C222.162 214.58 224.192 216.152 224.993 218.554C225.772 220.895 225.096 223.375 223.245 224.836C222.14 225.709 220.875 226.177 219.463 226.177C212.141 226.181 204.818 226.181 197.495 226.185C197.294 226.185 197.093 226.185 196.837 226.307C197.185 226.586 197.517 226.884 197.883 227.136C199.814 228.489 201.991 229.225 204.258 229.694C208.366 230.541 212.514 230.619 216.672 230.259C218.878 230.069 221.105 229.932 223.274 229.519C227.974 228.62 232.342 226.754 236.526 224.434C239.375 222.854 242.016 220.988 244.379 218.714C245.992 217.164 247.916 216.77 250.011 217.465C252.085 218.152 253.362 219.628 253.863 221.788C253.889 221.903 253.936 222.018 253.973 222.133V223.839L253.969 223.832Z" fill="white"/>
<path d="M214.031 204.072C212.956 203.046 211.786 201.872 210.549 200.779C209.917 200.217 209.807 199.682 209.99 198.85C211.189 193.441 212.316 188.018 213.475 182.602C213.56 182.216 213.523 181.922 213.249 181.599C212.162 180.301 211.124 178.963 210.045 177.659C209.909 177.495 209.653 177.335 209.456 177.335C204.112 177.346 198.695 181.194 197.001 186.252C196.643 187.327 196.438 188.498 196.409 189.631C196.328 192.664 196.38 195.705 196.376 198.742C196.376 198.842 196.369 198.946 196.358 199.169C193.545 196.697 191.361 193.865 189.756 190.575C187.086 185.108 186.263 179.346 187.327 173.347C189.507 161.069 199.35 152.204 210.798 150.851C224.262 149.26 235.6 157.601 239.58 168.868C243.647 180.38 239.664 192.367 231.767 199.084C231.756 198.902 231.734 198.753 231.734 198.604C231.734 195.995 231.69 193.382 231.742 190.772C231.848 185.561 229.434 181.844 225.169 179.231C223.208 178.03 221.058 177.406 218.761 177.317C218.431 177.302 218.216 177.395 218.007 177.662C216.946 179.004 215.871 180.335 214.788 181.662C214.584 181.915 214.518 182.141 214.591 182.48C215.813 188.174 217.02 193.869 218.216 199.567C218.252 199.742 218.23 200.02 218.121 200.128C216.738 201.485 215.337 202.823 214.035 204.072H214.031ZM214.064 154.565C208.296 154.561 203.633 159.281 203.622 165.132C203.611 170.998 208.26 175.767 213.995 175.774C219.777 175.782 224.474 171.042 224.485 165.177C224.499 159.352 219.799 154.568 214.064 154.565Z" fill="white"/>
<path d="M222.59 189.014C223.761 189.037 224.693 189.97 224.708 191.174C224.734 193.445 224.723 195.716 224.726 197.991C224.726 199.712 224.715 201.433 224.734 203.158C224.737 203.522 224.628 203.697 224.291 203.808C223.735 203.99 223.194 204.217 222.594 204.447V189.018L222.59 189.014Z" fill="white"/>
<path d="M205.494 204.444C204.829 204.184 204.196 203.953 203.574 203.682C203.461 203.633 203.347 203.418 203.347 203.28C203.336 199.288 203.322 195.296 203.355 191.304C203.366 189.932 204.269 189.022 205.491 189.007V204.447L205.494 204.444Z" fill="white"/>
</g>
<rect x="147.129" y="151.158" width="106.34" height="93.3649" stroke="#F5AF02"/>
</g>
<defs>
<filter id="filter0_d_740_93" x="0" y="0.977539" width="406.866" height="406.082" filterUnits="userSpaceOnUse" color-interpolation-filters="sRGB">
<feFlood flood-opacity="0" result="BackgroundImageFix"/>
<feColorMatrix in="SourceAlpha" type="matrix" values="0 0 0 0 0 0 0 0 0 0 0 0 0 0 0 0 0 0 127 0" result="hardAlpha"/>
<feOffset dy="4"/>
<feGaussianBlur stdDeviation="7.5"/>
<feComposite in2="hardAlpha" operator="out"/>
<feColorMatrix type="matrix" values="0 0 0 0 0 0 0 0 0 0 0 0 0 0 0 0 0 0 0.25 0"/>
<feBlend mode="normal" in2="BackgroundImageFix" result="effect1_dropShadow_740_93"/>
<feBlend mode="normal" in="SourceGraphic" in2="effect1_dropShadow_740_93" result="shape"/>
</filter>
<clipPath id="clip0_740_93">
<rect x="146.629" y="150.658" width="107.34" height="94.3649" fill="white"/>
</clipPath>
</defs>
</svg>
