<svg width="126" height="132" viewBox="0 0 126 132" fill="none" xmlns="http://www.w3.org/2000/svg">
<path d="M29.2784 66.0627C30.1392 66.6564 30.7211 66.9545 31.1705 67.3817C41.3738 77.0901 51.5644 86.812 61.755 96.5325C64.7207 99.3612 64.7066 100.942 61.7 103.808C58.9766 106.406 56.2659 109.016 53.5242 111.595C51.2699 113.716 49.2453 113.728 47.0052 111.595C32.1384 97.4391 17.283 83.274 2.43455 69.1023C0.130991 66.9035 0.154943 65.0043 2.49795 62.7706C17.3083 48.6404 32.1243 34.5157 46.9488 20.399C49.2707 18.1881 51.2544 18.2029 53.596 20.4111C56.3744 23.0343 59.133 25.6763 61.8959 28.3143C64.6235 30.9173 64.6376 32.6702 61.9409 35.2423C51.7067 45.0005 41.4696 54.7559 31.2255 64.5046C30.7718 64.9358 30.2435 65.2944 29.2784 66.0613V66.0627Z" stroke="#515151" stroke-miterlimit="10"/>
<path d="M72.7322 123.939C73.052 122.843 73.4958 121.235 73.9903 119.641C85.8547 81.3431 97.7247 43.0466 109.596 4.75019C109.793 4.11218 109.982 3.46477 110.264 2.86035C111.081 1.10483 112.535 0.241169 114.464 0.685758C117.346 1.35063 120.214 2.12295 123.009 3.06317C125.284 3.82877 125.958 5.6125 125.191 8.1484C123.949 12.2585 122.666 16.3565 121.396 20.4572C110.454 55.7718 99.5126 91.0864 88.564 126.4C88.3329 127.144 88.1174 127.911 87.7412 128.589C86.9536 130.005 85.5954 130.815 83.9822 130.445C80.9292 129.747 77.9113 128.876 74.9413 127.901C73.3239 127.371 72.6378 126.048 72.7322 123.938V123.939Z" stroke="#515151" stroke-miterlimit="10"/>
</svg>
