<svg width="67" height="74" viewBox="0 0 67 74" fill="none" xmlns="http://www.w3.org/2000/svg">
<path d="M62.3413 26.1698C64.9924 26.573 66.9902 29.1394 66.7471 32.0428C66.6389 33.3333 66.0939 34.6299 64.7 35.6204C60.5201 38.5901 48.6225 37.9056 44.1199 33.7944C39.6172 29.6833 37.0725 22.5591 38.3448 14.4443C38.3448 14.4443 43.252 25.3302 53.2486 25.5287C57.6108 25.6156 60.486 25.8906 62.3394 26.1718L62.3413 26.1698Z" fill="#067BE5"/>
<path d="M49.6136 17.3461C52.0898 17.3461 54.0972 15.1601 54.0972 12.4636C54.0972 9.76702 52.0898 7.58105 49.6136 7.58105C47.1373 7.58105 45.1299 9.76702 45.1299 12.4636C45.1299 15.1601 47.1373 17.3461 49.6136 17.3461Z" fill="#067BE5"/>
<path d="M60.0869 11.748C59.2114 12.7013 57.7928 12.7013 56.9173 11.748C56.0419 10.7947 56.0419 9.24988 56.9173 8.29655C57.7928 7.34321 59.2114 7.34321 60.0869 8.29655C60.9623 9.24988 60.9623 10.7947 60.0869 11.748Z" fill="#067BE5"/>
<path d="M23.4376 5.46748C23.8079 2.58058 26.1646 0.405067 28.8309 0.669768C30.0159 0.787643 31.2066 1.38115 32.1163 2.89905C34.8433 7.45067 34.2147 20.4066 30.4394 25.3097C26.6641 30.2129 20.1218 32.984 12.6699 31.5985C12.6699 31.5985 22.6666 26.2548 22.8489 15.369C22.9286 10.6188 23.1812 7.4879 23.4395 5.46955L23.4376 5.46748Z" fill="#EF3D31"/>
<path d="M10.8499 24.2074C13.3261 24.2074 15.3336 22.0214 15.3336 19.3249C15.3336 16.6284 13.3261 14.4424 10.8499 14.4424C8.37362 14.4424 6.36621 16.6284 6.36621 19.3249C6.36621 22.0214 8.37362 24.2074 10.8499 24.2074Z" fill="#EF3D31"/>
<path d="M10.1923 10.7905C9.31687 11.7438 7.89827 11.7438 7.02281 10.7905C6.14734 9.83715 6.14734 8.29237 7.02281 7.33903C7.89827 6.38569 9.31687 6.38569 10.1923 7.33903C11.0678 8.29237 11.0678 9.83715 10.1923 10.7905Z" fill="#EF3D31"/>
<path d="M43.3288 68.5323C42.9584 71.4192 40.6017 73.5947 37.9354 73.33C36.7504 73.2121 35.5597 72.6186 34.6501 71.1007C31.923 66.5491 32.5516 53.5932 36.3269 48.69C40.1023 43.7869 46.6445 41.0158 54.0964 42.4013C54.0964 42.4013 44.0998 47.745 43.9175 58.6308C43.8377 63.381 43.5851 66.5119 43.3269 68.5302L43.3288 68.5323Z" fill="#F5AF02"/>
<path d="M55.9553 59.557C58.4316 59.557 60.439 57.371 60.439 54.6745C60.439 51.978 58.4316 49.792 55.9553 49.792C53.4791 49.792 51.4717 51.978 51.4717 54.6745C51.4717 57.371 53.4791 59.557 55.9553 59.557Z" fill="#F5AF02"/>
<path d="M58.1979 67.2252C59.4355 67.2252 60.4388 66.1326 60.4388 64.7849C60.4388 63.4372 59.4355 62.3447 58.1979 62.3447C56.9603 62.3447 55.957 63.4372 55.957 64.7849C55.957 66.1326 56.9603 67.2252 58.1979 67.2252Z" fill="#F5AF02"/>
<path d="M17.1516 66.4188C19.6279 66.4188 21.6353 64.2328 21.6353 61.5363C21.6353 58.8398 19.6279 56.6538 17.1516 56.6538C14.6754 56.6538 12.668 58.8398 12.668 61.5363C12.668 64.2328 14.6754 66.4188 17.1516 66.4188Z" fill="#86B817"/>
<path d="M9.22456 65.7031C8.3491 66.6564 6.9305 66.6564 6.05504 65.7031C5.17957 64.7497 5.17957 63.205 6.05504 62.2516C6.9305 61.2983 8.3491 61.2983 9.22456 62.2516C10.1 63.205 10.1 64.7497 9.22456 65.7031Z" fill="#86B817"/>
<path d="M4.42584 47.8299C1.77476 47.4267 -0.223042 44.8603 0.0200369 41.9569C0.128283 40.6665 0.673312 39.3698 2.06722 38.3793C6.24704 35.4097 18.1446 36.0942 22.6473 40.2053C27.15 44.3164 29.6947 51.4406 28.4223 59.5554C28.4223 59.5554 23.5152 48.6695 13.5185 48.471C9.15639 48.3842 6.28122 48.1091 4.42774 47.8279L4.42584 47.8299Z" fill="#86B817"/>
<path d="M35.2363 21.8462C34.6381 24.4084 33.7266 26.6915 32.5283 28.2445C29.3721 32.3433 24.6985 34.709 19.4932 34.9903C21.8366 35.6417 23.9218 36.6322 25.3461 37.9309C29.1157 41.3741 31.2825 46.4738 31.5351 52.1524C32.1333 49.5902 33.0448 47.3071 34.2431 45.752C37.407 41.645 42.0938 39.2855 47.3124 39.0125C44.9557 38.3611 42.8535 37.3705 41.4254 36.0656C37.6557 32.6224 35.4889 27.5228 35.2363 21.8462Z" fill="#9761DB"/>
</svg>
