<svg width="18" height="98" viewBox="0 0 18 98" fill="none" xmlns="http://www.w3.org/2000/svg">
<g clip-path="url(#clip0_740_183)">
<path d="M15.0943 15.3863C18.5474 11.9333 18.5474 6.33478 15.0943 2.88172C11.6413 -0.571336 6.04277 -0.571336 2.58971 2.88172C-0.863342 6.33478 -0.863342 11.9333 2.58971 15.3863C6.04277 18.8394 11.6413 18.8394 15.0943 15.3863Z" fill="white"/>
<path d="M11.1075 9.7866L11.4126 7.79345H9.49584V6.49961C9.49584 5.95428 9.76271 5.42343 10.6177 5.42343H11.493V3.72668C10.9824 3.64448 10.4672 3.59932 9.95027 3.5918C8.37914 3.5918 7.34581 4.54582 7.34581 6.27384V7.79345H5.59521V9.7866H7.34581V14.6754H9.49584V9.7866H11.1069H11.1075Z" fill="black"/>
</g>
<g clip-path="url(#clip1_740_183)">
<path d="M15.0943 42.3863C18.5474 38.9333 18.5474 33.3348 15.0943 29.8817C11.6413 26.4287 6.04277 26.4287 2.58971 29.8817C-0.863342 33.3348 -0.863342 38.9333 2.58971 42.3863C6.04277 45.8394 11.6413 45.8394 15.0943 42.3863Z" fill="white"/>
<path d="M8.54494 31.0439C7.16253 31.0439 6.98886 31.0497 6.44585 31.0746C5.904 31.0995 5.53409 31.1852 5.21048 31.3108C4.87588 31.4411 4.59164 31.6147 4.30856 31.8978C4.02548 32.1809 3.85123 32.4646 3.72097 32.7992C3.59477 33.1228 3.5091 33.4927 3.48478 34.0345C3.46047 34.5775 3.4541 34.7512 3.4541 36.1336C3.4541 37.516 3.46047 37.6891 3.48478 38.2321C3.50968 38.774 3.59535 39.1439 3.72155 39.4675C3.85181 39.8021 4.02548 40.0863 4.30856 40.3694C4.59164 40.6525 4.8753 40.8268 5.2099 40.957C5.53351 41.0826 5.904 41.1689 6.44527 41.1938C6.98828 41.2187 7.16137 41.2245 8.54378 41.2245C9.92619 41.2245 10.0993 41.2187 10.6423 41.1938C11.1841 41.1689 11.5546 41.0832 11.8782 40.957C12.2128 40.8268 12.4965 40.6525 12.7796 40.3694C13.0627 40.0863 13.2369 39.8027 13.3672 39.4681C13.4922 39.1445 13.5785 38.7746 13.6034 38.2327C13.6277 37.6897 13.634 37.5166 13.634 36.1342C13.634 34.7518 13.6277 34.5781 13.6034 34.0351C13.5779 33.4933 13.4922 33.1234 13.3672 32.7997C13.2369 32.4651 13.0627 32.1809 12.7796 31.8978C12.4965 31.6147 12.2134 31.4405 11.8782 31.3108C11.5535 31.1852 11.1836 31.0989 10.6417 31.0746C10.0987 31.0497 9.92561 31.0439 8.5432 31.0439H8.54494ZM8.08819 31.9615C8.22365 31.9615 8.37474 31.9615 8.54494 31.9615C9.9042 31.9615 10.0651 31.9661 10.6018 31.991C11.0979 32.0136 11.3677 32.0964 11.5471 32.1664C11.7845 32.2585 11.9541 32.369 12.1318 32.5473C12.3101 32.7256 12.4201 32.8953 12.5127 33.1326C12.5822 33.3121 12.6655 33.5813 12.6881 34.0774C12.7124 34.614 12.7176 34.775 12.7176 36.1336C12.7176 37.4923 12.7124 37.6532 12.6881 38.1899C12.6655 38.686 12.5828 38.9558 12.5127 39.1346C12.4207 39.372 12.3101 39.5416 12.1318 39.7193C11.9535 39.8976 11.7845 40.0076 11.5471 40.1002C11.3677 40.1703 11.0985 40.2531 10.6018 40.2757C10.0651 40.3 9.9042 40.3052 8.54494 40.3052C7.18569 40.3052 7.02475 40.3 6.48811 40.2757C5.992 40.2525 5.72223 40.1697 5.54277 40.1002C5.30542 40.0082 5.1358 39.8976 4.9575 39.7193C4.7792 39.541 4.66921 39.372 4.57659 39.1341C4.50712 38.9546 4.42376 38.6854 4.40118 38.1893C4.37687 37.6527 4.37166 37.4917 4.37166 36.1325C4.37166 34.7732 4.37629 34.6129 4.40118 34.0762C4.42376 33.5801 4.50654 33.3103 4.57659 33.1309C4.66863 32.8935 4.7792 32.7239 4.9575 32.5456C5.1358 32.3673 5.30542 32.2573 5.54277 32.1647C5.72223 32.0946 5.99142 32.0119 6.48811 31.9893C6.9576 31.9679 7.13937 31.9615 8.08819 31.9609V31.9621V31.9615ZM11.2623 32.8067C10.9248 32.8067 10.6516 33.0799 10.6516 33.4174C10.6516 33.7549 10.9254 34.0282 11.2623 34.0282C11.5992 34.0282 11.873 33.7544 11.873 33.4174C11.873 33.0805 11.5992 32.8067 11.2623 32.8067ZM8.54494 33.5199C7.10117 33.5199 5.93063 34.6904 5.93063 36.1342C5.93063 37.578 7.10117 38.7479 8.54494 38.7479C9.98872 38.7479 11.1587 37.578 11.1587 36.1342C11.1587 34.6904 9.98872 33.5199 8.54494 33.5199ZM8.54494 34.4375C9.48218 34.4375 10.2417 35.197 10.2417 36.1342C10.2417 37.0714 9.48218 37.831 8.54494 37.831C7.6077 37.831 6.84819 37.0714 6.84819 36.1342C6.84819 35.197 7.6077 34.4375 8.54494 34.4375Z" fill="black"/>
</g>
<g clip-path="url(#clip2_740_183)">
<path d="M15.0944 56.1976C18.5474 59.6507 18.5474 65.2492 15.0944 68.7023C11.6413 72.1553 6.04278 72.1553 2.58972 68.7023C-0.863338 65.2492 -0.863338 59.6507 2.58972 56.1976C6.04278 52.7446 11.6413 52.7446 15.0944 56.1976Z" fill="white"/>
<path fill-rule="evenodd" clip-rule="evenodd" d="M13.309 64.3973C13.309 64.3973 13.2147 65.0642 12.9223 65.3629C12.5524 65.7496 12.1367 65.7519 11.9474 65.7751C10.587 65.8706 8.54004 65.8706 8.54004 65.8706C8.54004 65.8706 6.49884 65.8706 5.13727 65.7716C4.94739 65.7485 4.5329 65.7461 4.1624 65.3594C3.87006 65.0648 3.77685 64.3938 3.77685 64.3938C3.71665 63.8711 3.68423 63.3454 3.68018 62.8192V62.0811C3.68423 61.5549 3.71665 61.0293 3.77685 60.5065C3.77685 60.5065 3.87237 59.8396 4.1624 59.5409C4.53232 59.1542 5.01917 59.1664 5.23684 59.1253C6.01488 59.0506 8.54409 59.0286 8.54409 59.0286C8.54409 59.0286 10.5888 59.0286 11.9492 59.1299C12.1391 59.1519 12.5536 59.1542 12.9235 59.5409C13.2158 59.8356 13.3113 60.5065 13.3113 60.5065C13.3715 61.0298 13.404 61.5555 13.408 62.0823V62.8221C13.4022 63.3489 13.3692 63.8746 13.309 64.3979L13.3079 64.3967L13.309 64.3973Z" fill="black"/>
<path fill-rule="evenodd" clip-rule="evenodd" d="M7.23096 61.0831V63.8167L9.858 62.4441L7.23096 61.0831Z" fill="white"/>
</g>
<g clip-path="url(#clip3_740_183)">
<path d="M15.0943 95.3863C18.5474 91.9333 18.5474 86.3348 15.0943 82.8817C11.6413 79.4287 6.04277 79.4287 2.58971 82.8817C-0.863342 86.3348 -0.863342 91.9333 2.58971 95.3863C6.04277 98.8394 11.6413 98.8394 15.0943 95.3863Z" fill="white"/>
<path fill-rule="evenodd" clip-rule="evenodd" d="M7.17743 87.5954H8.91239V88.4892H8.93671C9.17926 88.0556 9.76916 87.5954 10.6508 87.5954C12.4819 87.5954 12.8205 88.7353 12.8205 90.2178V93.3526H11.0115V90.5663C11.0115 89.9284 10.9982 89.1075 10.0708 89.1075C9.14337 89.1075 8.98475 89.801 8.98475 90.5206V93.3584H7.17685V87.5954H7.17743ZM6.15046 85.8506C6.15046 86.3699 5.72903 86.7913 5.20975 86.7913C4.69048 86.7913 4.26904 86.3699 4.26904 85.8506C4.26904 85.3314 4.69048 84.9099 5.20975 84.9099C5.72903 84.9105 6.14989 85.3314 6.15046 85.8506ZM4.27136 87.5954H6.15046V93.3526H4.27136V87.5954Z" fill="black"/>
</g>
<defs>
<clipPath id="clip0_740_183">
<rect width="17.6842" height="17.6842" fill="white" transform="translate(0 0.291992)"/>
</clipPath>
<clipPath id="clip1_740_183">
<rect width="17.6842" height="17.6842" fill="white" transform="translate(0 27.292)"/>
</clipPath>
<clipPath id="clip2_740_183">
<rect width="17.6842" height="17.6842" fill="white" transform="matrix(1 0 0 -1 0 71.292)"/>
</clipPath>
<clipPath id="clip3_740_183">
<rect width="17.6842" height="17.6842" fill="white" transform="translate(0 80.292)"/>
</clipPath>
</defs>
</svg>
