<svg width="38" height="9" viewBox="0 0 38 9" fill="none" xmlns="http://www.w3.org/2000/svg">
<path d="M7.9458 4.564C7.9458 6.49458 6.3787 8.06159 4.44801 8.06159C2.51731 8.06159 0.950195 6.49458 0.950195 4.564C0.950195 2.63342 2.51731 1.06641 4.44801 1.06641C6.3787 1.06641 7.9458 2.63342 7.9458 4.564Z" stroke="#122045" stroke-miterlimit="10"/>
<path d="M22.2602 4.564C22.2602 6.49458 20.6931 8.06159 18.7624 8.06159C16.8317 8.06159 15.2646 6.49458 15.2646 4.564C15.2646 2.63342 16.8317 1.06641 18.7624 1.06641C20.6931 1.06641 22.2602 2.63342 22.2602 4.564Z" stroke="#122045" stroke-miterlimit="10"/>
<path d="M36.5776 4.564C36.5776 6.49458 35.0105 8.06159 33.0798 8.06159C31.1492 8.06159 29.582 6.49458 29.582 4.564C29.582 2.63342 31.1492 1.06641 33.0798 1.06641C35.0105 1.06641 36.5776 2.63342 36.5776 4.564Z" stroke="#122045" stroke-miterlimit="10"/>
</svg>
