<svg width="118" height="132" viewBox="0 0 118 132" fill="none" xmlns="http://www.w3.org/2000/svg">
<path d="M87.9609 66.0455C87.1001 66.6392 86.5182 66.9374 86.0687 67.3645C75.8655 77.0729 65.6749 86.7948 55.4843 96.5153C52.5186 99.344 52.5326 100.925 55.5392 103.791C58.2626 106.389 60.9734 108.999 63.7151 111.578C65.9693 113.698 67.9939 113.711 70.2341 111.578C85.1008 97.422 99.9563 83.2569 114.805 69.0851C117.108 66.8864 117.084 64.9871 114.741 62.7534C99.9309 48.6233 85.1149 34.4985 70.2904 20.3818C67.9686 18.171 65.9848 18.1857 63.6432 20.3939C60.8649 23.0171 58.1063 25.6591 55.3434 28.2971C52.6158 30.9002 52.6017 32.653 55.2983 35.2252C65.5326 44.9833 75.7697 54.7387 86.0138 64.4875C86.4675 64.9186 86.9958 65.2772 87.9609 66.0442V66.0455Z" stroke="#A6A6A6" stroke-miterlimit="10"/>
<path d="M1.00853 124.369C1.32835 123.273 1.77215 121.665 2.26668 120.071C14.131 81.7727 26.001 43.4763 37.8725 5.17987C38.0697 4.54187 38.2585 3.89446 38.5403 3.29004C39.3574 1.53451 40.8114 0.670857 42.7402 1.11545C45.6228 1.78031 48.4899 2.55264 51.2852 3.49285C53.5606 4.25846 54.234 6.04219 53.4676 8.57809C52.2249 12.6882 50.9428 16.7862 49.672 20.8869C38.7305 56.2015 27.7889 91.5161 16.8404 126.829C16.6093 127.573 16.3937 128.34 16.0176 129.019C15.23 130.434 13.8718 131.244 12.2586 130.875C9.20552 130.177 6.18765 129.306 3.21769 128.331C1.60027 127.8 0.914133 126.477 1.00853 124.367V124.369Z" stroke="#A6A6A6" stroke-miterlimit="10"/>
</svg>
