<svg width="118" height="132" viewBox="0 0 118 132" fill="none" xmlns="http://www.w3.org/2000/svg">
<path d="M87.9609 66.1254C87.1001 66.719 86.5182 67.0172 86.0687 67.4444C75.8655 77.1528 65.6749 86.8746 55.4843 96.5952C52.5186 99.4239 52.5326 101.005 55.5392 103.871C58.2626 106.469 60.9734 109.079 63.7151 111.657C65.9693 113.778 67.9939 113.79 70.2341 111.657C85.1008 97.5018 99.9563 83.3367 114.805 69.165C117.108 66.9662 117.084 65.067 114.741 62.8333C99.9309 48.7031 85.1149 34.5784 70.2904 20.4617C67.9686 18.2508 65.9848 18.2656 63.6432 20.4737C60.8649 23.0969 58.1063 25.739 55.3434 28.3769C52.6158 30.98 52.6017 32.7328 55.2983 35.305C65.5326 45.0631 75.7697 54.8186 86.0138 64.5673C86.4675 64.9984 86.9958 65.3571 87.9609 66.124V66.1254Z" stroke="#515151" stroke-miterlimit="10"/>
<path d="M1.00853 124.448C1.32835 123.352 1.77215 121.744 2.26668 120.15C14.131 81.8523 26.001 43.5559 37.8725 5.25946C38.0697 4.62146 38.2585 3.97405 38.5403 3.36963C39.3574 1.6141 40.8114 0.750447 42.7402 1.19504C45.6228 1.8599 48.4899 2.63223 51.2852 3.57244C53.5606 4.33805 54.234 6.12178 53.4676 8.65768C52.2249 12.7678 50.9428 16.8658 49.672 20.9665C38.7305 56.2811 27.7889 91.5957 16.8404 126.909C16.6093 127.653 16.3937 128.42 16.0176 129.098C15.23 130.514 13.8718 131.324 12.2586 130.955C9.20552 130.256 6.18765 129.386 3.21769 128.411C1.60027 127.88 0.914133 126.557 1.00853 124.447V124.448Z" stroke="#515151" stroke-miterlimit="10"/>
</svg>
