<svg width="126" height="132" viewBox="0 0 126 132" fill="none" xmlns="http://www.w3.org/2000/svg">
<path d="M29.2784 66.5275C30.1392 67.1211 30.7211 67.4193 31.1705 67.8465C41.3738 77.5549 51.5644 87.2767 61.755 96.9973C64.7207 99.826 64.7066 101.407 61.7 104.273C58.9766 106.871 56.2659 109.481 53.5242 112.06C51.2699 114.18 49.2453 114.193 47.0052 112.06C32.1384 97.9039 17.283 83.7388 2.43455 69.5671C0.130991 67.3683 0.154943 65.469 2.49795 63.2354C17.3083 49.1052 32.1243 34.9805 46.9488 20.8638C49.2707 18.6529 51.2544 18.6677 53.596 20.8758C56.3744 23.499 59.133 26.1411 61.8959 28.779C64.6235 31.3821 64.6376 33.1349 61.9409 35.7071C51.7067 45.4652 41.4696 55.2207 31.2255 64.9694C30.7718 65.4005 30.2435 65.7592 29.2784 66.5261V66.5275Z" stroke="#515151" stroke-miterlimit="10"/>
<path d="M72.7322 124.404C73.052 123.308 73.4958 121.7 73.9903 120.106C85.8547 81.8079 97.7247 43.5115 109.596 5.21503C109.793 4.57703 109.982 3.92962 110.264 3.32519C111.081 1.56967 112.535 0.706013 114.464 1.1506C117.346 1.81547 120.214 2.58779 123.009 3.52801C125.284 4.29362 125.958 6.07735 125.191 8.61325C123.949 12.7233 122.666 16.8214 121.396 20.922C110.454 56.2366 99.5126 91.5512 88.564 126.864C88.3329 127.609 88.1174 128.376 87.7412 129.054C86.9536 130.47 85.5954 131.279 83.9822 130.91C80.9292 130.212 77.9113 129.341 74.9413 128.366C73.3239 127.836 72.6378 126.513 72.7322 124.402V124.404Z" stroke="#515151" stroke-miterlimit="10"/>
</svg>
