<svg width="126" height="132" viewBox="0 0 126 132" fill="none" xmlns="http://www.w3.org/2000/svg">
<path d="M29.2774 66.1359C30.1382 66.7296 30.7201 67.0278 31.1695 67.4549C41.3728 77.1633 51.5634 86.8852 61.754 96.6057C64.7197 99.4344 64.7056 101.015 61.699 103.882C58.9756 106.479 56.2649 109.089 53.5232 111.668C51.2689 113.789 49.2443 113.801 47.0042 111.668C32.1375 97.5124 17.282 83.3473 2.43357 69.1755C0.130015 66.9767 0.153966 65.0775 2.49697 62.8438C17.3074 48.7137 32.1234 34.5889 46.9478 20.4722C49.2697 18.2614 51.2534 18.2761 53.595 20.4843C56.3734 23.1075 59.132 25.7495 61.8949 28.3875C64.6225 30.9906 64.6366 32.7434 61.94 35.3156C51.7057 45.0737 41.4686 54.8291 31.2245 64.5779C30.7708 65.009 30.2425 65.3676 29.2774 66.1346V66.1359Z" stroke="#1B70BC" stroke-miterlimit="10"/>
<path d="M72.7312 124.012C73.051 122.916 73.4948 121.308 73.9893 119.714C85.8537 81.4163 97.7237 43.1199 109.595 4.82343C109.792 4.18542 109.981 3.53802 110.263 2.93359C111.08 1.17807 112.534 0.314412 114.463 0.759C117.345 1.42387 120.213 2.19619 123.008 3.13641C125.283 3.90202 125.957 5.68574 125.19 8.22165C123.948 12.3317 122.665 16.4298 121.395 20.5304C110.453 55.845 99.5116 91.1596 88.563 126.473C88.332 127.217 88.1164 127.984 87.7402 128.662C86.9526 130.078 85.5945 130.888 83.9813 130.519C80.9282 129.82 77.9103 128.95 74.9403 127.975C73.3229 127.444 72.6368 126.121 72.7312 124.011V124.012Z" stroke="#1B70BC" stroke-miterlimit="10"/>
</svg>
