<svg width="201" height="40" viewBox="0 0 201 40" fill="none" xmlns="http://www.w3.org/2000/svg">
<path fill-rule="evenodd" clip-rule="evenodd" d="M0.865234 39.7094V4.96094H5.33289L26.5681 32.9252V4.96094H30.8151V39.7094H26.3475L5.11227 11.4694V39.7094H0.865234Z" fill="#B52E31"/>
<path fill-rule="evenodd" clip-rule="evenodd" d="M65.3981 38.3307C62.5852 39.3786 59.5515 39.9302 56.3525 39.9302C43.7768 39.9302 37.489 33.9182 37.489 21.8389C37.489 10.4216 43.5562 4.6853 55.6906 4.6853C59.1655 4.6853 62.4197 5.18171 65.3981 6.11937V9.98031C62.4197 8.82203 59.3309 8.27046 56.187 8.27046C46.7001 8.27046 41.9567 12.7933 41.9567 21.7286C41.9567 31.381 46.645 36.1796 55.9664 36.1796C57.4556 36.1796 59.1103 35.9589 60.9305 35.5729V23.9349H65.3981V38.3307Z" fill="#B52E31"/>
<path fill-rule="evenodd" clip-rule="evenodd" d="M72.5685 26.3064V4.96094H77.0361V26.3064C77.0361 32.9804 80.3455 36.3449 87.0194 36.3449C93.6933 36.3449 97.0027 32.9804 97.0027 26.3064V4.96094H101.47V26.3064C101.47 35.4072 96.6718 39.9852 87.0194 39.9852C77.3671 39.9852 72.5685 35.4072 72.5685 26.3064Z" fill="#B52E31"/>
<path fill-rule="evenodd" clip-rule="evenodd" d="M113.936 4.96094V36.0691H132.137V39.7094H109.468V4.96094H113.936Z" fill="#B52E31"/>
<path fill-rule="evenodd" clip-rule="evenodd" d="M138.591 39.7095H133.902L151.166 0.383057L168.43 39.7095H163.466L158.998 28.7886H147.526L148.739 25.1483H157.509L151.001 9.4287L138.591 39.7095Z" fill="#B52E31"/>
<path fill-rule="evenodd" clip-rule="evenodd" d="M173.229 39.7094V4.96094H188.066C194.685 4.96094 197.994 7.71876 197.994 13.2895C197.994 17.8124 194.74 21.1769 188.286 23.328L200.2 39.7094H194.298L183.267 24.1002V21.1769C189.886 20.1289 193.251 17.5917 193.251 13.5102C193.251 10.3111 191.43 8.71157 187.735 8.71157H177.807V39.7094H173.229Z" fill="#B52E31"/>
</svg>
