<svg width="458" height="459" viewBox="0 0 458 459" fill="none" xmlns="http://www.w3.org/2000/svg">
<g filter="url(#filter0_d_539_315)">
<rect x="15" y="11.8315" width="428" height="428" rx="25" fill="white"/>
<rect x="16" y="12.8315" width="426" height="426" rx="24" stroke="#F5AF02" stroke-width="2"/>
</g>
<circle cx="227.217" cy="225.832" r="106.108" fill="#F5AF02"/>
<g clip-path="url(#clip0_539_315)">
<path d="M226.744 276.926C217.959 276.926 209.174 276.899 200.389 276.949C198.73 276.958 197.362 275.944 197.397 273.938C197.483 269.226 197.416 264.511 197.427 259.799C197.442 252.254 202.551 246.168 210.022 245.034C212.222 244.7 214.501 244.865 216.744 244.857C217.553 244.854 218.156 245.338 218.66 245.969C220.521 248.306 222.938 249.636 225.927 249.873C229.389 250.147 232.292 248.96 234.52 246.321C235.416 245.259 236.385 244.759 237.767 244.814C240.102 244.906 242.447 244.712 244.764 245.24C250.53 246.55 255.227 251.606 255.905 257.475C256.137 259.498 256.066 261.561 256.081 263.605C256.105 267.109 256.09 270.614 256.084 274.118C256.081 275.974 255.12 276.924 253.249 276.926C244.415 276.927 235.58 276.926 226.747 276.926H226.744Z" fill="white"/>
<path d="M241.952 221.221C241.354 228.075 239.072 234.351 234.338 239.607C232.798 241.318 230.935 242.623 228.643 243.14C225.561 243.836 222.907 242.848 220.549 240.895C217.932 238.725 216.128 235.943 214.703 232.904C212.868 228.988 211.609 224.918 211.647 220.537C211.708 213.693 217.133 207.312 223.875 206.145C232.332 204.681 239.883 209.813 241.614 218.227C241.806 219.163 241.833 220.131 241.952 221.222V221.221Z" fill="white"/>
<path d="M193.473 253.075C193.183 254.698 192.871 256.285 192.624 257.882C192.521 258.536 192.53 259.209 192.529 259.875C192.521 264.513 192.511 269.152 192.538 273.79C192.544 274.791 192.696 275.79 192.788 276.881C192.717 276.889 192.52 276.924 192.323 276.924C184.207 276.927 176.089 276.929 167.973 276.924C166.265 276.924 165.271 275.922 165.271 274.208C165.269 270.211 165.233 266.213 165.285 262.218C165.369 255.638 170.627 250.322 177.21 250.116C178.516 250.075 179.825 250.106 181.132 250.095C181.98 250.088 182.687 250.398 183.181 251.081C185.459 254.245 190.082 255.111 193.375 253.098C193.414 253.074 193.469 253.075 193.476 253.074L193.473 253.075Z" fill="white"/>
<path d="M260.783 276.906C260.851 275.477 260.965 274.132 260.973 272.786C260.996 268.467 260.967 264.15 260.987 259.831C260.998 257.716 260.688 255.66 260.075 253.642C260.021 253.461 259.976 253.276 259.889 252.947C261.4 253.878 262.922 254.251 264.558 254.156C266.796 254.027 268.66 253.113 270.067 251.384C270.801 250.481 271.634 250.036 272.8 250.085C274.96 250.176 277.132 249.934 279.266 250.555C284.501 252.079 288.151 256.757 288.212 262.201C288.258 266.273 288.234 270.344 288.221 274.417C288.216 275.867 287.202 276.912 285.76 276.915C277.469 276.93 269.176 276.923 260.885 276.923C260.814 276.923 260.741 276.899 260.784 276.906H260.783Z" fill="white"/>
<path d="M189.541 249.839C187.059 249.803 185.125 248.801 183.467 247.221C180.429 244.323 178.716 240.667 177.585 236.704C176.736 233.73 176.358 230.732 177.266 227.675C178.983 221.908 184.631 218.095 190.631 218.703C197.616 219.41 202.648 225.403 202.009 232.425C201.52 237.795 199.572 242.608 195.93 246.648C194.479 248.258 192.71 249.397 190.515 249.746C190.152 249.803 189.782 249.817 189.541 249.839Z" fill="white"/>
<path d="M251.444 232.142C251.373 223.888 257.855 217.966 265.325 218.703C272.424 219.404 277.521 225.704 276.68 232.794C276.071 237.935 274.243 242.577 270.773 246.484C270.109 247.231 269.316 247.903 268.477 248.448C265.642 250.294 262.742 250.319 259.855 248.534C258.187 247.502 256.896 246.08 255.821 244.464C253.185 240.506 251.678 236.16 251.444 232.143V232.142Z" fill="white"/>
<path d="M226.972 188.941C232.19 183.761 237.299 178.69 242.499 173.527C242.168 173.51 241.916 173.484 241.664 173.484C240.035 173.482 238.405 173.507 236.777 173.474C235.551 173.45 234.57 172.659 234.327 171.59C234.082 170.509 234.543 169.37 235.513 168.873C235.914 168.669 236.402 168.54 236.851 168.537C240.727 168.512 244.603 168.513 248.477 168.526C250.019 168.531 251.051 169.524 251.06 171.062C251.084 174.986 251.081 178.911 251.061 182.836C251.054 184.306 249.998 185.362 248.621 185.367C247.226 185.371 246.161 184.263 246.155 182.779C246.148 180.913 246.154 179.047 246.154 177.028C245.836 177.325 245.623 177.513 245.423 177.712C240.063 183.068 234.705 188.427 229.346 193.785C227.764 195.366 226.492 195.357 224.904 193.767C221.171 190.031 217.434 186.296 213.698 182.561C213.526 182.389 213.345 182.228 213.127 182.023C212.911 182.226 212.714 182.404 212.525 182.591C205.45 189.653 198.372 196.713 191.305 203.784C190.579 204.511 189.752 204.827 188.758 204.564C187.79 204.308 187.107 203.649 187.019 202.669C186.963 202.036 187.243 201.357 187.453 200.726C187.538 200.47 187.83 200.279 188.039 200.07C195.682 192.424 203.327 184.779 210.973 177.135C212.49 175.618 213.722 175.611 215.237 177.121C218.996 180.868 222.75 184.619 226.502 188.372C226.694 188.563 226.849 188.79 226.971 188.937L226.972 188.941Z" fill="white"/>
</g>
<defs>
<filter id="filter0_d_539_315" x="0" y="0.831543" width="458" height="458" filterUnits="userSpaceOnUse" color-interpolation-filters="sRGB">
<feFlood flood-opacity="0" result="BackgroundImageFix"/>
<feColorMatrix in="SourceAlpha" type="matrix" values="0 0 0 0 0 0 0 0 0 0 0 0 0 0 0 0 0 0 127 0" result="hardAlpha"/>
<feOffset dy="4"/>
<feGaussianBlur stdDeviation="7.5"/>
<feComposite in2="hardAlpha" operator="out"/>
<feColorMatrix type="matrix" values="0 0 0 0 0 0 0 0 0 0 0 0 0 0 0 0 0 0 0.25 0"/>
<feBlend mode="normal" in2="BackgroundImageFix" result="effect1_dropShadow_539_315"/>
<feBlend mode="normal" in="SourceGraphic" in2="effect1_dropShadow_539_315" result="shape"/>
</filter>
<clipPath id="clip0_539_315">
<rect width="122.983" height="108.432" fill="white" transform="translate(165.255 168.518)"/>
</clipPath>
</defs>
</svg>
