<svg width="451" height="451" viewBox="0 0 451 451" fill="none" xmlns="http://www.w3.org/2000/svg">
<g filter="url(#filter0_d_575_2)">
<rect x="15.0361" y="11.3496" width="420.875" height="420" rx="25" fill="white"/>
<rect x="16.0361" y="12.3496" width="418.875" height="418" rx="24" stroke="#F5AF02" stroke-width="2"/>
</g>
<circle cx="221.536" cy="221.35" r="103.625" fill="#F5AF02" stroke="#F5AF02"/>
<g clip-path="url(#clip0_575_2)">
<path d="M253.016 256.973C253.031 257.138 253.05 257.252 253.05 257.366C253.052 259.765 253.075 262.162 253.043 264.56C253.01 267.005 251.41 268.969 249.037 269.512C248.559 269.622 248.055 269.642 247.562 269.642C225.861 269.648 204.162 269.647 182.462 269.645C179.626 269.645 177.61 268.162 177.04 265.629C176.933 265.152 176.917 264.646 176.916 264.153C176.911 235.716 176.911 207.278 176.911 178.839C176.911 176.133 178.119 174.25 180.414 173.506C181.022 173.31 181.696 173.236 182.339 173.235C198.946 173.222 215.553 173.224 232.161 173.224C232.318 173.224 232.475 173.224 232.732 173.224C232.732 173.484 232.732 173.71 232.732 173.937C232.732 179.487 232.762 185.036 232.714 190.584C232.7 192.243 233.77 193.551 235.648 193.53C241.235 193.467 246.825 193.507 252.414 193.506C252.591 193.506 252.768 193.506 252.999 193.506V206.213C251.508 206.213 250.026 206.176 248.548 206.22C245.492 206.311 243.24 207.714 241.845 210.452C241.756 210.627 241.691 210.817 241.618 211C241.545 211.179 241.474 211.358 241.389 211.567C239.698 211.183 238.073 211.3 236.504 212.02C235.171 212.633 234.09 213.54 233.341 214.802C231.745 217.491 230.149 220.18 228.605 222.9C227.123 225.51 227.437 228.746 229.319 231.084C229.455 231.252 229.589 231.421 229.731 231.596C228.18 233.275 227.449 235.244 227.761 237.489C227.897 238.465 228.202 239.476 228.674 240.338C230.119 242.974 231.668 245.556 233.206 248.141C234.86 250.922 237.739 252.22 240.947 251.672C241.253 251.619 241.426 251.634 241.563 251.998C242.748 255.141 245.267 256.882 248.672 256.936C249.901 256.955 251.129 256.94 252.359 256.944C252.571 256.944 252.783 256.963 253.018 256.973H253.016ZM187.068 198.576C187.068 202.618 187.068 206.661 187.068 210.704C187.068 212.887 187.999 213.827 190.163 213.827C198.288 213.827 206.413 213.827 214.539 213.827C216.508 213.827 217.515 212.831 217.515 210.88C217.515 202.734 217.515 194.589 217.515 186.444C217.515 184.342 216.563 183.381 214.48 183.381C206.314 183.381 198.15 183.381 189.984 183.381C188.074 183.381 187.069 184.398 187.069 186.327C187.069 190.41 187.069 194.493 187.069 198.574L187.068 198.576ZM202.299 218.922C198.158 218.922 194.016 218.92 189.875 218.922C188.088 218.922 187.069 219.934 187.069 221.715C187.067 229.978 187.067 238.241 187.069 246.505C187.069 248.292 188.071 249.323 189.858 249.324C198.161 249.334 206.463 249.335 214.767 249.324C216.501 249.322 217.514 248.267 217.514 246.519C217.516 238.276 217.516 230.033 217.514 221.789C217.514 219.913 216.526 218.923 214.665 218.92C210.543 218.918 206.422 218.92 202.3 218.92L202.299 218.922ZM202.259 259.491C202.715 259.491 203.171 259.491 203.625 259.491C207.35 259.491 211.073 259.499 214.797 259.487C216.645 259.481 217.851 257.989 217.407 256.3C217.088 255.084 216.109 254.427 214.595 254.427C206.394 254.425 198.194 254.426 189.993 254.428C189.696 254.428 189.396 254.443 189.105 254.49C187.789 254.706 186.845 256.107 187.128 257.407C187.413 258.727 188.394 259.488 189.838 259.49C193.978 259.494 198.118 259.491 202.258 259.49L202.259 259.491Z" fill="white"/>
<path d="M266.489 246.837C266.119 246.714 265.731 246.631 265.381 246.464C262.654 245.169 259.993 246.725 259.839 249.72C259.776 250.94 258.822 251.871 257.594 251.874C254.582 251.884 251.57 251.881 248.558 251.877C247.215 251.874 246.207 250.998 246.216 249.641C246.232 246.984 243.277 245.053 240.65 246.473C239.442 247.126 238.227 246.743 237.536 245.566C236.042 243.024 234.559 240.476 233.086 237.921C232.388 236.709 232.696 235.516 233.871 234.729C236.323 233.085 236.329 230.1 233.883 228.453C232.667 227.634 232.385 226.44 233.129 225.157C234.568 222.675 236.017 220.198 237.467 217.722C238.237 216.407 239.369 216.069 240.747 216.733C243.052 217.842 245.566 216.711 246.114 214.311C246.167 214.081 246.173 213.84 246.189 213.605C246.286 212.173 247.161 211.309 248.601 211.286C250.127 211.262 251.653 211.28 253.179 211.28C254.586 211.28 255.993 211.267 257.4 211.284C258.917 211.301 259.77 212.148 259.842 213.67C259.965 216.266 262.654 217.912 265.044 216.858C265.386 216.707 265.727 216.52 266.088 216.454C267.079 216.275 267.911 216.597 268.43 217.473C269.984 220.095 271.525 222.724 273.034 225.371C273.686 226.512 273.3 227.688 272.11 228.489C270.587 229.514 269.991 231.149 270.556 232.772C270.834 233.567 271.347 234.177 272.046 234.641C273.413 235.549 273.687 236.693 272.871 238.098C271.439 240.562 269.998 243.02 268.568 245.485C268.105 246.283 267.452 246.749 266.485 246.836L266.489 246.837ZM252.941 241.716C258.429 241.823 263.075 237.297 263.175 231.745C263.274 226.196 258.77 221.539 253.206 221.44C247.607 221.34 243.009 225.807 242.901 231.45C242.793 237.024 247.274 241.605 252.941 241.716Z" fill="white"/>
<path d="M251.371 188.449H237.84V174.92C242.349 179.427 246.86 183.937 251.371 188.449Z" fill="white"/>
<path d="M192.171 208.728V188.484H212.415C212.428 188.712 212.448 188.905 212.448 189.096C212.449 195.416 212.442 201.735 212.462 208.054C212.465 208.629 212.314 208.778 211.74 208.776C205.42 208.754 199.101 208.762 192.782 208.761C192.589 208.761 192.397 208.741 192.17 208.728H192.171ZM201.045 197.563C200.712 197.247 200.425 196.949 200.109 196.683C199.094 195.83 197.645 195.893 196.716 196.815C195.765 197.759 195.68 199.254 196.594 200.247C197.479 201.208 198.405 202.134 199.363 203.02C200.321 203.907 201.776 203.905 202.708 203C204.484 201.277 206.226 199.519 207.961 197.751C208.588 197.112 208.762 196.3 208.534 195.438C208.028 193.522 205.742 192.908 204.293 194.307C203.198 195.366 202.141 196.462 201.047 197.562L201.045 197.563Z" fill="white"/>
<path d="M192.184 223.983H212.396V244.221H192.184V223.983ZM201.007 233.142C200.725 232.833 200.504 232.551 200.243 232.31C199.209 231.356 197.667 231.37 196.704 232.328C195.718 233.31 195.709 234.873 196.708 235.904C197.535 236.757 198.377 237.597 199.229 238.425C200.253 239.42 201.729 239.47 202.755 238.476C204.504 236.781 206.217 235.048 207.925 233.31C208.568 232.657 208.767 231.833 208.529 230.947C208.018 229.05 205.754 228.42 204.333 229.792C203.224 230.862 202.158 231.978 201.007 233.142Z" fill="white"/>
<path d="M258.102 231.566C258.117 234.365 255.864 236.647 253.076 236.655C250.229 236.663 247.962 234.427 247.955 231.601C247.949 228.772 250.224 226.492 253.039 226.505C255.847 226.52 258.087 228.759 258.101 231.565L258.102 231.566Z" fill="white"/>
</g>
<defs>
<filter id="filter0_d_575_2" x="0.0361328" y="0.349609" width="450.875" height="450" filterUnits="userSpaceOnUse" color-interpolation-filters="sRGB">
<feFlood flood-opacity="0" result="BackgroundImageFix"/>
<feColorMatrix in="SourceAlpha" type="matrix" values="0 0 0 0 0 0 0 0 0 0 0 0 0 0 0 0 0 0 127 0" result="hardAlpha"/>
<feOffset dy="4"/>
<feGaussianBlur stdDeviation="7.5"/>
<feComposite in2="hardAlpha" operator="out"/>
<feColorMatrix type="matrix" values="0 0 0 0 0 0 0 0 0 0 0 0 0 0 0 0 0 0 0.25 0"/>
<feBlend mode="normal" in2="BackgroundImageFix" result="effect1_dropShadow_575_2"/>
<feBlend mode="normal" in="SourceGraphic" in2="effect1_dropShadow_575_2" result="shape"/>
</filter>
<clipPath id="clip0_575_2">
<rect width="96.4412" height="96.4222" fill="white" transform="translate(176.911 173.225)"/>
</clipPath>
</defs>
</svg>
