<svg width="21" height="22" viewBox="0 0 21 22" fill="none" xmlns="http://www.w3.org/2000/svg">
<g clip-path="url(#clip0_595_1735)">
<path d="M10.5 2.03639C15.4502 2.03639 19.4783 6.06443 19.4783 11.0146C19.4783 15.9649 15.4502 19.9929 10.5 19.9929C5.54978 19.9929 1.52174 15.9649 1.52174 11.0146C1.52174 6.06443 5.54978 2.03639 10.5 2.03639ZM10.5 0.514648C4.70065 0.514648 0 5.2153 0 11.0146C0 16.814 4.70065 21.5146 10.5 21.5146C16.2993 21.5146 21 16.814 21 11.0146C21 5.2153 16.2993 0.514648 10.5 0.514648Z" fill="#9B87FF"/>
<path d="M16.283 10.2004H4.71777V11.8287H16.283V10.2004Z" fill="#9B87FF"/>
<path d="M11.3138 5.23193H9.68555V16.7972H11.3138V5.23193Z" fill="#9B87FF"/>
</g>
<defs>
<clipPath id="clip0_595_1735">
<rect width="21" height="21" fill="white" transform="translate(0 0.514648)"/>
</clipPath>
</defs>
</svg>
