<svg width="126" height="127" viewBox="0 0 126 127" fill="none" xmlns="http://www.w3.org/2000/svg">
<circle cx="63" cy="63.3521" r="63" fill="white"/>
<g clip-path="url(#clip0_740_2042)">
<path d="M26.5897 85.9479C26.5434 83.8 26.507 81.6521 26.4468 79.5049C26.412 78.2726 26.8424 77.2628 27.7208 76.4005C30.0071 74.1576 32.2546 71.8744 34.5563 69.6469C35.5322 68.7028 36.7375 68.0646 37.9536 67.4751C40.5388 66.2211 43.277 65.6068 46.1481 65.63C48.8036 65.6517 51.3332 66.2504 53.7524 67.353C58.6439 69.5836 63.5455 71.7918 68.4378 74.02C69.9591 74.7131 70.8553 75.8767 71.0214 77.5718C71.1721 79.1001 70.1345 80.8285 68.7221 81.4365C67.5121 81.9573 66.3432 81.9202 65.1502 81.3701C61.4439 79.661 57.7275 77.9744 54.0158 76.2769C53.3174 75.957 52.6344 75.8975 51.9683 76.3557C51.0396 76.9947 50.8596 78.8343 52.1043 79.3914C53.6612 80.0883 55.1902 80.847 56.7424 81.5563C59.0642 82.6179 61.3921 83.6663 63.7239 84.7063C65.9321 85.6914 68.1264 85.6705 70.3632 84.7156C76.4175 82.1311 82.4919 79.593 88.5586 77.0372C90.3558 76.28 92.1514 75.5166 93.9516 74.7664C96.5283 73.6924 99.2179 75.1365 99.7487 77.8724C100.087 79.6154 99.0973 81.4682 97.3867 82.2076C94.8432 83.3071 92.2881 84.3795 89.7377 85.4635C80.8478 89.2409 71.9556 93.0136 63.0687 96.7995C61.192 97.5992 59.2489 97.9886 57.213 97.8658C55.5008 97.7622 53.8775 97.3072 52.3438 96.5376C47.1216 93.9176 41.8971 91.303 36.6811 88.6714C35.8327 88.2434 35.0763 88.2913 34.3044 88.8453C32.2376 90.3303 30.1554 91.7937 28.0801 93.2655C27.9959 93.325 27.9125 93.3845 27.829 93.4448C27.6088 93.6016 27.3832 93.6959 27.1128 93.5576C26.8362 93.4162 26.7589 93.1867 26.7527 92.8916C26.7025 90.5768 26.643 88.262 26.5866 85.9479C26.5874 85.9479 26.5889 85.9479 26.5897 85.9479Z" fill="#F5AF02"/>
<path d="M75.6263 35.7277C71.7037 37.9011 67.6018 36.3334 65.681 33.477C63.6729 30.4892 64.0948 26.5025 66.7001 23.9945C69.2884 21.5028 73.2636 21.2161 76.1826 23.3293C79.0421 25.3991 80.283 29.4369 78.1783 33.185C78.2672 33.2383 78.4117 33.2893 78.5098 33.3874C81.8066 36.6765 85.0949 39.9741 88.3956 43.2593C88.8893 43.7507 89.1342 44.2962 89.1319 45.0054C89.1157 49.8684 89.125 54.7306 89.1227 59.5935C89.1227 60.4589 88.5919 61.1442 87.7559 61.3822C86.9825 61.6024 86.1256 61.3026 85.7215 60.5863C85.5415 60.2672 85.4349 59.8616 85.4333 59.4946C85.414 54.9794 85.4187 50.4641 85.4264 45.9481C85.4264 45.6707 85.3538 45.4737 85.1536 45.2736C81.9774 42.1011 78.8088 38.9202 75.6248 35.7269L75.6263 35.7277Z" fill="#F5AF02"/>
<path d="M73.6861 51.786C73.9318 51.8703 74.1628 51.9452 74.3908 52.0287C77.5238 53.1721 79.5133 56.2936 79.2305 59.619C78.9385 63.058 76.2744 65.8425 72.8223 66.3177C68.7776 66.8748 65.0612 64.0462 64.4934 59.9775C64.0012 56.4496 66.129 53.0377 69.5232 51.9568C69.9026 51.8363 69.996 51.6725 69.993 51.2916C69.9729 48.9126 69.9806 46.5329 69.9852 44.154C69.9868 43.1967 70.7061 42.3924 71.6147 42.3105C72.6091 42.2216 73.4667 42.8382 73.6575 43.7939C73.6946 43.9809 73.6846 44.1779 73.6854 44.3703C73.6869 46.6983 73.6854 49.0262 73.6854 51.3534C73.6854 51.494 73.6854 51.6346 73.6854 51.7853L73.6861 51.786Z" fill="#F5AF02"/>
<path d="M54.5464 51.3557C54.1895 51.2244 53.8487 51.1123 53.5188 50.9748C50.5535 49.7401 48.6891 46.6388 49.0043 43.4741C49.3258 40.2538 51.6823 37.5859 54.8029 36.9114C58.9381 36.0167 62.9743 38.7247 63.7098 42.8861C64.3449 46.482 62.2086 50.0422 58.7086 51.1749C58.3308 51.297 58.235 51.46 58.2388 51.8417C58.2597 54.0151 58.2527 56.1885 58.2481 58.3619C58.2458 59.3208 57.5311 60.1189 56.6171 60.2054C55.6443 60.2982 54.7968 59.6994 54.5843 58.7575C54.548 58.5968 54.5487 58.4261 54.5487 58.26C54.5464 56.0997 54.5472 53.9386 54.5472 51.7783C54.5472 51.6377 54.5472 51.4971 54.5472 51.3557H54.5464Z" fill="#F5AF02"/>
</g>
<defs>
<clipPath id="clip0_740_2042">
<rect width="73.37" height="75.9714" fill="white" transform="translate(26.4443 21.9169)"/>
</clipPath>
</defs>
</svg>
