<svg width="84" height="46" viewBox="0 0 84 46" fill="none" xmlns="http://www.w3.org/2000/svg">
<g clip-path="url(#clip0_425_3178)">
<path d="M54.1282 9.02581C55.2619 9.16596 56.1162 10.0579 56.0122 11.067C55.9659 11.5154 55.7329 11.9661 55.1368 12.3103C53.3494 13.3424 48.2616 13.1045 46.3361 11.6757C44.4106 10.2469 43.3224 7.77093 43.8665 4.95068C43.8665 4.95068 45.965 8.73401 50.2398 8.80301C52.1052 8.83319 53.3347 8.92878 54.1274 9.02653L54.1282 9.02581Z" fill="white"/>
<path d="M48.6859 5.95903C49.7448 5.95903 50.6033 5.19931 50.6033 4.26214C50.6033 3.32497 49.7448 2.56525 48.6859 2.56525C47.627 2.56525 46.7686 3.32497 46.7686 4.26214C46.7686 5.19931 47.627 5.95903 48.6859 5.95903Z" fill="white"/>
<path d="M53.1645 4.0135C52.7901 4.34482 52.1835 4.34482 51.8091 4.0135C51.4347 3.68217 51.4347 3.14529 51.8091 2.81396C52.1835 2.48263 52.7901 2.48263 53.1645 2.81396C53.5389 3.14529 53.5389 3.68217 53.1645 4.0135Z" fill="white"/>
<path d="M37.4913 1.83077C37.6497 0.827439 38.6575 0.0713491 39.7977 0.163345C40.3044 0.204312 40.8136 0.410584 41.2026 0.938122C42.3688 2.52002 42.1 7.02278 40.4855 8.72686C38.8711 10.4309 36.0734 11.394 32.8867 10.9125C32.8867 10.9125 37.1616 9.05531 37.2396 5.27199C37.2737 3.62109 37.3817 2.53296 37.4921 1.83149L37.4913 1.83077Z" fill="white"/>
<path d="M32.1088 8.34373C33.1677 8.34373 34.0261 7.58401 34.0261 6.64684C34.0261 5.70968 33.1677 4.94995 32.1088 4.94995C31.0498 4.94995 30.1914 5.70968 30.1914 6.64684C30.1914 7.58401 31.0498 8.34373 32.1088 8.34373Z" fill="white"/>
<path d="M31.8276 3.6807C31.4532 4.01203 30.8466 4.01203 30.4722 3.6807C30.0978 3.34937 30.0978 2.81249 30.4722 2.48116C30.8466 2.14983 31.4532 2.14983 31.8276 2.48116C32.202 2.81249 32.202 3.34937 31.8276 3.6807Z" fill="white"/>
<path d="M45.9975 23.7487C45.8392 24.752 44.8313 25.5081 43.6912 25.4161C43.1844 25.3752 42.6752 25.1689 42.2862 24.6414C41.1201 23.0595 41.3889 18.5567 43.0033 16.8526C44.6178 15.1486 47.4154 14.1855 50.6021 14.667C50.6021 14.667 46.3272 16.5242 46.2493 20.3075C46.2152 21.9584 46.1071 23.0465 45.9967 23.748L45.9975 23.7487Z" fill="white"/>
<path d="M51.3969 20.6295C52.4558 20.6295 53.3142 19.8698 53.3142 18.9326C53.3142 17.9954 52.4558 17.2357 51.3969 17.2357C50.3379 17.2357 49.4795 17.9954 49.4795 18.9326C49.4795 19.8698 50.3379 20.6295 51.3969 20.6295Z" fill="white"/>
<path d="M52.3567 23.2945C52.886 23.2945 53.315 22.9148 53.315 22.4464C53.315 21.978 52.886 21.5983 52.3567 21.5983C51.8275 21.5983 51.3984 21.978 51.3984 22.4464C51.3984 22.9148 51.8275 23.2945 52.3567 23.2945Z" fill="white"/>
<path d="M34.8031 23.0142C35.862 23.0142 36.7205 22.2545 36.7205 21.3173C36.7205 20.3801 35.862 19.6204 34.8031 19.6204C33.7442 19.6204 32.8857 20.3801 32.8857 21.3173C32.8857 22.2545 33.7442 23.0142 34.8031 23.0142Z" fill="white"/>
<path d="M31.4135 22.7655C31.0391 23.0968 30.4325 23.0968 30.0581 22.7655C29.6837 22.4342 29.6837 21.8973 30.0581 21.566C30.4325 21.2346 31.0391 21.2346 31.4135 21.566C31.7879 21.8973 31.7879 22.4342 31.4135 22.7655Z" fill="white"/>
<path d="M29.3614 16.5536C28.2277 16.4135 27.3734 15.5216 27.4773 14.5125C27.5236 14.064 27.7567 13.6134 28.3528 13.2691C30.1402 12.237 35.228 12.4749 37.1534 13.9037C39.0789 15.3325 40.1671 17.8085 39.623 20.6288C39.623 20.6288 37.5246 16.8454 33.2497 16.7764C31.3843 16.7463 30.1548 16.6507 29.3622 16.5529L29.3614 16.5536Z" fill="white"/>
<path d="M42.537 7.52298C42.2812 8.41347 41.8913 9.20693 41.3789 9.74669C40.0292 11.1712 38.0306 11.9934 35.8047 12.0911C36.8068 12.3175 37.6985 12.6618 38.3076 13.1132C39.9196 14.3098 40.8462 16.0822 40.9542 18.0558C41.21 17.1653 41.5998 16.3718 42.1122 15.8313C43.4652 14.404 45.4694 13.5839 47.7011 13.4891C46.6933 13.2627 45.7943 12.9184 45.1836 12.4649C43.5716 11.2682 42.645 9.49586 42.537 7.52298Z" fill="white"/>
<path d="M10.1748 37.5424V39.3306H0L6.46185 29.8263H0.855137V28.0381H10.1739L3.7129 37.5424H10.1739H10.1748Z" fill="white"/>
<path d="M18.0743 39.3306H15.7988V28.0546H18.0743V39.3306Z" fill="white"/>
<path d="M34.6729 28.0546V39.7172L26.3546 32.2914V39.3306H24.0791V27.6679L32.3974 35.0937V28.0546H34.6729Z" fill="white"/>
<path d="M53.3841 39.3306H51.1086V32.1463L47.0319 35.7384L42.9552 32.1463V39.3306H40.6797V27.6521L47.0319 33.1129L53.3841 27.6521V39.3306Z" fill="white"/>
<path d="M64.4679 27.6679L70.3654 39.3306H67.8357L64.4687 32.3719L61.1196 39.3306H58.5713L64.4687 27.6679H64.4679Z" fill="white"/>
<path d="M79.3384 34.7236V39.3306H77.0629V34.7236L72.9131 28.0546H75.4614L78.2096 32.5653L80.9577 28.0546H83.4874L79.3376 34.7236H79.3384Z" fill="white"/>
<path d="M11.2012 42.1562C11.3482 42.2331 11.4651 42.3366 11.552 42.4667C11.6389 42.5968 11.682 42.7398 11.682 42.8965C11.682 43.0531 11.6381 43.1969 11.552 43.3284C11.4651 43.4599 11.3482 43.5634 11.2012 43.6411C11.0542 43.718 10.8926 43.7568 10.7156 43.7568H9.83931V44.8269H9.27734V42.0426H10.7156C10.8926 42.0426 11.0542 42.0807 11.2012 42.1576V42.1562ZM10.6522 43.314C10.7813 43.314 10.8918 43.2738 10.9852 43.1926C11.0778 43.1121 11.1249 43.0129 11.1249 42.8965C11.1249 42.78 11.0786 42.6844 10.9852 42.6018C10.8926 42.5199 10.7813 42.4782 10.6522 42.4782H9.8385V43.3133H10.6522V43.314Z" fill="white"/>
<path d="M15.0063 42.1447C15.2621 42.2769 15.4651 42.4573 15.6153 42.6859C15.7648 42.9137 15.8403 43.1631 15.8403 43.4341C15.8403 43.705 15.7656 43.9501 15.6153 44.178C15.4651 44.4058 15.2629 44.5869 15.0063 44.7206C14.7505 44.8543 14.4703 44.9218 14.1682 44.9218C13.8661 44.9218 13.5851 44.855 13.3277 44.7206C13.0702 44.5869 12.8664 44.4058 12.7162 44.178C12.5667 43.9501 12.4912 43.7022 12.4912 43.4341C12.4912 43.166 12.5659 42.9144 12.7162 42.6859C12.8656 42.4581 13.0694 42.2777 13.3277 42.1447C13.5851 42.0125 13.8653 41.9456 14.1682 41.9456C14.4711 41.9456 14.7505 42.0117 15.0063 42.1447ZM14.7253 44.2908C14.8958 44.2017 15.0314 44.0816 15.1321 43.9286C15.2328 43.7762 15.2824 43.6109 15.2824 43.4334C15.2824 43.2558 15.232 43.0869 15.1321 42.936C15.0314 42.7851 14.8958 42.6651 14.7253 42.5759C14.5547 42.4868 14.3688 42.443 14.1682 42.443C13.9676 42.443 13.7768 42.4875 13.6062 42.5759C13.4357 42.6651 13.3001 42.7851 13.1994 42.936C13.0987 43.0869 13.0491 43.253 13.0491 43.4334C13.0491 43.6138 13.0995 43.7762 13.1994 43.9286C13.3001 44.0809 13.4357 44.2017 13.6062 44.2908C13.7768 44.3799 13.9644 44.4238 14.1682 44.4238C14.372 44.4238 14.5547 44.3792 14.7253 44.2908Z" fill="white"/>
<path d="M20.3881 42.0413L19.2333 44.9212L18.3977 43.1072L17.5571 44.9212L16.4023 42.0413H16.9822L17.6067 43.6685L18.3977 41.9464L19.1846 43.6685L19.814 42.0413H20.3889H20.3881Z" fill="white"/>
<path d="M21.7856 42.4825V43.1789H23.1921V43.5929H21.7856V44.3842H23.2595V44.8255H21.2188V42.0412H23.2595V42.4825H21.7856Z" fill="white"/>
<path d="M26.1707 42.1562C26.3193 42.2331 26.4363 42.3373 26.5232 42.4681C26.61 42.5997 26.6539 42.742 26.6539 42.8958C26.6539 43.0496 26.6076 43.2005 26.5142 43.3335C26.4216 43.4657 26.2982 43.5678 26.1455 43.6396L26.757 44.8248H26.1277L25.5706 43.7589H24.8559V44.8248H24.2939V42.0405H25.6826C25.8597 42.0405 26.0221 42.0786 26.1699 42.1555L26.1707 42.1562ZM25.6152 43.3141C25.7468 43.3141 25.8589 43.2738 25.9498 43.1926C26.0416 43.1121 26.0871 43.0129 26.0871 42.8965C26.0871 42.7801 26.0416 42.6845 25.9498 42.6018C25.858 42.5199 25.7468 42.4782 25.6152 42.4782H24.8559V43.3133H25.6152V43.3141Z" fill="white"/>
<path d="M28.2182 44.8255H27.6562V42.0412H28.2182V44.8255Z" fill="white"/>
<path d="M31.8677 42.0412V44.9211L29.8139 43.0869V44.8255H29.252V41.9456L31.3057 43.7791V42.0405H31.8677V42.0412Z" fill="white"/>
<path d="M34.4836 43.3177H35.7375V44.5747C35.5694 44.6861 35.3786 44.7709 35.1642 44.8291C34.9498 44.8873 34.7232 44.9168 34.4836 44.9168C34.1807 44.9168 33.9014 44.85 33.6455 44.7163C33.3897 44.5826 33.1867 44.4022 33.0365 44.1751C32.887 43.9487 32.8115 43.7007 32.8115 43.4334C32.8115 43.166 32.8862 42.9173 33.0365 42.6895C33.1859 42.4617 33.3897 42.2813 33.648 42.1483C33.9054 42.0161 34.1856 41.9492 34.4885 41.9492C34.6745 41.9492 34.8483 41.9693 35.0099 42.0089V42.5019C34.9262 42.4724 34.845 42.4516 34.7671 42.4379C34.6891 42.425 34.5973 42.4178 34.4926 42.4178C34.2887 42.4178 34.1011 42.4631 33.9306 42.5529C33.7601 42.6435 33.6244 42.7657 33.5237 42.9209C33.423 43.0762 33.3735 43.2465 33.3735 43.4319C33.3735 43.6174 33.4238 43.7841 33.5237 43.9393C33.6244 44.0946 33.7601 44.2175 33.9306 44.3073C34.1011 44.3979 34.2887 44.4424 34.4926 44.4424C34.7922 44.4424 35.0383 44.3878 35.2299 44.2793V43.7302H34.4836V43.3162V43.3177Z" fill="white"/>
<path d="M42.9155 42.0413L41.7607 44.9212L40.925 43.1072L40.0845 44.9212L38.9297 42.0413H39.5095L40.134 43.6685L40.925 41.9464L41.7119 43.6685L42.3413 42.0413H42.9163H42.9155Z" fill="white"/>
<path d="M46.0365 42.1447C46.2924 42.2769 46.4954 42.4573 46.6456 42.6859C46.795 42.9137 46.8706 43.1631 46.8706 43.4341C46.8706 43.705 46.7959 43.9501 46.6456 44.178C46.4954 44.4058 46.2932 44.5869 46.0365 44.7206C45.7807 44.8543 45.5006 44.9218 45.1985 44.9218C44.8964 44.9218 44.6154 44.855 44.3579 44.7206C44.1005 44.5869 43.8967 44.4058 43.7464 44.178C43.597 43.9501 43.5215 43.7022 43.5215 43.4341C43.5215 43.166 43.5962 42.9144 43.7464 42.6859C43.8959 42.4581 44.0997 42.2777 44.3579 42.1447C44.6154 42.0125 44.8956 41.9456 45.1985 41.9456C45.5014 41.9456 45.7807 42.0117 46.0365 42.1447ZM45.7556 44.2908C45.9261 44.2017 46.0617 44.0816 46.1624 43.9286C46.2631 43.7762 46.3127 43.6109 46.3127 43.4334C46.3127 43.2558 46.2623 43.0869 46.1624 42.936C46.0617 42.7851 45.9261 42.6651 45.7556 42.5759C45.585 42.4868 45.3991 42.443 45.1985 42.443C44.9979 42.443 44.807 42.4875 44.6365 42.5759C44.466 42.6651 44.3303 42.7851 44.2296 42.936C44.1289 43.0869 44.0794 43.253 44.0794 43.4334C44.0794 43.6138 44.1297 43.7762 44.2296 43.9286C44.3303 44.0809 44.466 44.2017 44.6365 44.2908C44.807 44.3799 44.9946 44.4238 45.1985 44.4238C45.4023 44.4238 45.585 44.3792 45.7556 44.2908Z" fill="white"/>
<path d="M49.6902 42.1562C49.8388 42.2331 49.9558 42.3373 50.0427 42.4681C50.1296 42.5997 50.1734 42.742 50.1734 42.8958C50.1734 43.0496 50.1271 43.2005 50.0337 43.3335C49.9412 43.4657 49.8177 43.5678 49.6651 43.6396L50.2766 44.8248H49.6472L49.0901 43.7589H48.3754V44.8248H47.8135V42.0405H49.2022C49.3792 42.0405 49.5416 42.0786 49.6894 42.1555L49.6902 42.1562ZM49.1356 43.3141C49.2671 43.3141 49.3792 43.2738 49.4701 43.1926C49.5619 43.1121 49.6074 43.0129 49.6074 42.8965C49.6074 42.7801 49.5619 42.6845 49.4701 42.6018C49.3784 42.5199 49.2671 42.4782 49.1356 42.4782H48.3763V43.3133H49.1356V43.3141Z" fill="white"/>
<path d="M51.7378 42.0412V44.8255H51.1758V42.0412H51.7378ZM52.8755 42.0412H53.5276L52.4037 43.3421L53.5276 44.8255H52.8755L51.7386 43.3421L52.8755 42.0412Z" fill="white"/>
<path d="M54.9469 42.4825V43.179H56.4208V43.5929H54.9469V44.8298H54.3809V42.0376H56.4217V42.4832H54.9477L54.9469 42.4825Z" fill="white"/>
<path d="M59.8578 42.1447C60.1136 42.2769 60.3167 42.4573 60.4669 42.6859C60.6171 42.9137 60.6919 43.1631 60.6919 43.4341C60.6919 43.705 60.6171 43.9501 60.4669 44.178C60.3167 44.4058 60.1145 44.5869 59.8578 44.7206C59.602 44.8543 59.3219 44.9218 59.0198 44.9218C58.7177 44.9218 58.4367 44.855 58.1792 44.7206C57.9218 44.5869 57.718 44.4058 57.5677 44.178C57.4175 43.9501 57.3428 43.7022 57.3428 43.4341C57.3428 43.166 57.4175 42.9144 57.5677 42.6859C57.718 42.4581 57.921 42.2777 58.1792 42.1447C58.4375 42.0117 58.7168 41.9456 59.0198 41.9456C59.3227 41.9456 59.602 42.0117 59.8578 42.1447ZM59.5769 44.2908C59.7474 44.2017 59.883 44.0816 59.9837 43.9286C60.0844 43.7762 60.1339 43.6109 60.1339 43.4334C60.1339 43.2558 60.0836 43.0869 59.9837 42.936C59.883 42.7851 59.7474 42.6651 59.5769 42.5759C59.4063 42.4868 59.2203 42.443 59.0198 42.443C58.8192 42.443 58.6283 42.4875 58.4578 42.5759C58.2872 42.6651 58.1516 42.7851 58.0509 42.936C57.9502 43.0869 57.9007 43.253 57.9007 43.4334C57.9007 43.6138 57.951 43.7762 58.0509 43.9286C58.1508 44.0809 58.2872 44.2017 58.4578 44.2908C58.6283 44.3799 58.8159 44.4238 59.0198 44.4238C59.2236 44.4238 59.4063 44.3792 59.5769 44.2908Z" fill="white"/>
<path d="M63.5114 42.1562C63.66 42.2331 63.7769 42.3373 63.8638 42.4681C63.9507 42.5997 63.9937 42.742 63.9937 42.8958C63.9937 43.0496 63.9474 43.2005 63.8541 43.3335C63.7615 43.4657 63.638 43.5678 63.4854 43.6396L64.0969 44.8248H63.4675L62.9104 43.7589H62.1958V44.8248H61.6338V42.0405H63.0225C63.1995 42.0405 63.3619 42.0786 63.5105 42.1555L63.5114 42.1562ZM62.9567 43.3141C63.0883 43.3141 63.2003 43.2738 63.2913 43.1926C63.3822 43.1121 63.4285 43.0129 63.4285 42.8965C63.4285 42.7801 63.383 42.6845 63.2913 42.6018C63.1995 42.5199 63.0883 42.4782 62.9567 42.4782H62.1974V43.3133H62.9567V43.3141Z" fill="white"/>
<path d="M67.3644 44.7285C67.1143 44.8543 66.8406 44.9175 66.5442 44.9175C66.2478 44.9175 65.9619 44.8514 65.7061 44.7184C65.4503 44.5862 65.2473 44.4058 65.097 44.1772C64.9468 43.9494 64.8721 43.7014 64.8721 43.4334C64.8721 43.1653 64.9468 42.9173 65.097 42.6895C65.2473 42.4617 65.4503 42.2813 65.7061 42.1483C65.9619 42.0161 66.2413 41.9492 66.5442 41.9492C66.8471 41.9492 67.1143 42.0125 67.3644 42.1382C67.6145 42.264 67.8143 42.4336 67.9645 42.6457L67.4968 42.9044C67.3944 42.7614 67.2604 42.6478 67.0948 42.5644C66.9283 42.4811 66.7464 42.4394 66.549 42.4394C66.3517 42.4394 66.1625 42.4839 65.9919 42.5723C65.8214 42.6615 65.6858 42.7822 65.5851 42.9346C65.4844 43.0869 65.4349 43.2537 65.4349 43.4341C65.4349 43.6145 65.4852 43.7769 65.5851 43.9293C65.6858 44.0817 65.8214 44.2024 65.9919 44.2915C66.1625 44.3806 66.3485 44.4245 66.549 44.4245C66.7496 44.4245 66.9291 44.3828 67.0948 44.2994C67.2613 44.2161 67.3953 44.1025 67.4968 43.9595L67.9645 44.2182C67.8143 44.4331 67.6145 44.6034 67.3644 44.7292V44.7285Z" fill="white"/>
<path d="M69.4741 42.4825V43.1789H70.8806V43.5929H69.4741V44.3842H70.948V44.8255H68.9072V42.0412H70.948V42.4825H69.4741Z" fill="white"/>
<path d="M73.9077 43.5191C74.1099 43.6528 74.2114 43.8382 74.2114 44.0739C74.2114 44.2435 74.1578 44.393 74.0498 44.5217C73.9418 44.6503 73.794 44.7488 73.6072 44.8178C73.4196 44.8868 73.2109 44.9213 72.9803 44.9213C72.7253 44.9213 72.4938 44.8631 72.2859 44.7459C72.0772 44.6295 71.9164 44.4778 71.8027 44.2924L72.3062 44.0854C72.372 44.1889 72.4687 44.278 72.5962 44.3542C72.7237 44.4297 72.856 44.4678 72.9941 44.4678C73.1711 44.4678 73.3238 44.4311 73.4521 44.3585C73.5812 44.2859 73.6454 44.1839 73.6454 44.0545C73.6454 43.9481 73.5861 43.8619 73.4675 43.7943C73.349 43.7268 73.1955 43.6693 73.0071 43.6211C72.2762 43.4328 71.9099 43.1647 71.9099 42.8176C71.9099 42.6559 71.9603 42.5086 72.0602 42.3763C72.1601 42.2441 72.2989 42.1391 72.476 42.0622C72.653 41.9853 72.8471 41.9472 73.0599 41.9472C73.3084 41.9472 73.5276 41.9968 73.716 42.0967C73.9053 42.1959 74.0425 42.3238 74.1294 42.4805L73.6438 42.6796C73.5057 42.4913 73.3108 42.3972 73.059 42.3972C72.8999 42.4 72.7643 42.4374 72.6498 42.5107C72.5361 42.584 72.4792 42.6782 72.4792 42.7953C72.4792 42.8852 72.5312 42.9585 72.6343 43.0138C72.7375 43.0699 72.882 43.1223 73.068 43.1727C73.4245 43.2711 73.7039 43.3868 73.9061 43.5205L73.9077 43.5191Z" fill="white"/>
</g>
<defs>
<clipPath id="clip0_425_3178">
<rect width="83.4884" height="44.9859" fill="white" transform="translate(0 0.155396)"/>
</clipPath>
</defs>
</svg>
