<svg width="118" height="132" viewBox="0 0 118 132" fill="none" xmlns="http://www.w3.org/2000/svg">
<path d="M87.9609 65.7258C87.1001 66.3195 86.5182 66.6177 86.0687 67.0448C75.8655 76.7532 65.6749 86.4751 55.4843 96.1956C52.5186 99.0243 52.5326 100.605 55.5392 103.472C58.2626 106.069 60.9734 108.679 63.7151 111.258C65.9693 113.379 67.9939 113.391 70.2341 111.258C85.1008 97.1022 99.9563 82.9372 114.805 68.7654C117.108 66.5666 117.084 64.6674 114.741 62.4337C99.9309 48.3036 85.1149 34.1788 70.2904 20.0621C67.9686 17.8512 65.9848 17.866 63.6432 20.0742C60.8649 22.6974 58.1063 25.3394 55.3434 27.9774C52.6158 30.5805 52.6017 32.3333 55.2983 34.9055C65.5326 44.6636 75.7697 54.419 86.0138 64.1677C86.4675 64.5989 86.9958 64.9575 87.9609 65.7245V65.7258Z" stroke="#515151" stroke-miterlimit="10"/>
<path d="M1.00853 124.049C1.32835 122.953 1.77215 121.345 2.26668 119.751C14.131 81.4529 26.001 43.1565 37.8725 4.86005C38.0697 4.22205 38.2585 3.57464 38.5403 2.97021C39.3574 1.21469 40.8114 0.351033 42.7402 0.795622C45.6228 1.46049 48.4899 2.23281 51.2852 3.17303C53.5606 3.93864 54.234 5.72237 53.4676 8.25827C52.2249 12.3684 50.9428 16.4664 49.672 20.5671C38.7305 55.8817 27.7889 91.1963 16.8404 126.51C16.6093 127.254 16.3937 128.021 16.0176 128.699C15.23 130.115 13.8718 130.925 12.2586 130.555C9.20552 129.857 6.18765 128.986 3.21769 128.011C1.60027 127.481 0.914133 126.158 1.00853 124.047V124.049Z" stroke="#515151" stroke-miterlimit="10"/>
</svg>
