<svg width="18" height="88" viewBox="0 0 18 88" fill="none" xmlns="http://www.w3.org/2000/svg">
<g clip-path="url(#clip0_425_3227)">
<path d="M15.0939 13.5703C18.5469 10.4982 18.5469 5.51721 15.0939 2.44505C11.6408 -0.627118 6.04228 -0.627118 2.58923 2.44505C-0.86383 5.51721 -0.86383 10.4982 2.58923 13.5703C6.04228 16.6425 11.6408 16.6425 15.0939 13.5703Z" fill="white"/>
<path d="M11.107 8.58817L11.4121 6.81487H9.49535V5.66375C9.49535 5.17858 9.76222 4.70629 10.6173 4.70629H11.4926V3.1967C10.982 3.12356 10.4667 3.08339 9.94978 3.07669C8.37865 3.07669 7.34532 3.92548 7.34532 5.46289V6.81487H5.59473V8.58817H7.34532V12.9377H9.49535V8.58817H11.1064H11.107Z" fill="black"/>
</g>
<g clip-path="url(#clip1_425_3227)">
<path d="M15.0939 37.592C18.5469 34.5199 18.5469 29.5389 15.0939 26.4667C11.6408 23.3946 6.04228 23.3946 2.58923 26.4667C-0.86383 29.5389 -0.86383 34.5199 2.58923 37.592C6.04228 40.6642 11.6408 40.6642 15.0939 37.592Z" fill="white"/>
<path d="M8.54494 27.5006C7.16253 27.5006 6.98886 27.5058 6.44585 27.5279C5.904 27.5501 5.53409 27.6263 5.21048 27.738C4.87588 27.8539 4.59164 28.0084 4.30856 28.2603C4.02548 28.5122 3.85123 28.7645 3.72097 29.0622C3.59477 29.3501 3.5091 29.6792 3.48478 30.1613C3.46047 30.6444 3.4541 30.7989 3.4541 32.0289C3.4541 33.2588 3.46047 33.4128 3.48478 33.8959C3.50968 34.378 3.59535 34.7071 3.72155 34.995C3.85181 35.2927 4.02548 35.5456 4.30856 35.7974C4.59164 36.0493 4.8753 36.2043 5.2099 36.3202C5.53351 36.432 5.904 36.5087 6.44527 36.5309C6.98828 36.553 7.16137 36.5582 8.54378 36.5582C9.92619 36.5582 10.0993 36.553 10.6423 36.5309C11.1841 36.5087 11.5546 36.4325 11.8782 36.3202C12.2128 36.2043 12.4965 36.0493 12.7796 35.7974C13.0627 35.5456 13.2369 35.2932 13.3672 34.9955C13.4922 34.7076 13.5785 34.3785 13.6034 33.8964C13.6277 33.4133 13.634 33.2593 13.634 32.0294C13.634 30.7995 13.6277 30.6449 13.6034 30.1618C13.5779 29.6798 13.4922 29.3506 13.3672 29.0627C13.2369 28.765 13.0627 28.5122 12.7796 28.2603C12.4965 28.0084 12.2134 27.8534 11.8782 27.738C11.5535 27.6263 11.1836 27.5495 10.6417 27.5279C10.0987 27.5058 9.92561 27.5006 8.5432 27.5006H8.54494ZM8.08819 28.317C8.22365 28.317 8.37474 28.317 8.54494 28.317C9.9042 28.317 10.0651 28.3211 10.6018 28.3432C11.0979 28.3633 11.3677 28.437 11.5471 28.4993C11.7845 28.5812 11.9541 28.6795 12.1318 28.8382C12.3101 28.9968 12.4201 29.1477 12.5127 29.3589C12.5822 29.5185 12.6655 29.758 12.6881 30.1994C12.7124 30.6769 12.7176 30.8201 12.7176 32.0289C12.7176 33.2377 12.7124 33.3809 12.6881 33.8583C12.6655 34.2997 12.5828 34.5397 12.5127 34.6989C12.4207 34.91 12.3101 35.0609 12.1318 35.219C11.9535 35.3777 11.7845 35.4755 11.5471 35.5579C11.3677 35.6203 11.0985 35.6939 10.6018 35.714C10.0651 35.7356 9.9042 35.7403 8.54494 35.7403C7.18569 35.7403 7.02475 35.7356 6.48811 35.714C5.992 35.6934 5.72223 35.6197 5.54277 35.5579C5.30542 35.4761 5.1358 35.3777 4.9575 35.219C4.7792 35.0604 4.66921 34.91 4.57659 34.6983C4.50712 34.5387 4.42376 34.2992 4.40118 33.8578C4.37687 33.3803 4.37166 33.2372 4.37166 32.0278C4.37166 30.8185 4.37629 30.6759 4.40118 30.1984C4.42376 29.757 4.50654 29.517 4.57659 29.3573C4.66863 29.1462 4.7792 28.9953 4.9575 28.8366C5.1358 28.678 5.30542 28.5801 5.54277 28.4977C5.72223 28.4354 5.99142 28.3618 6.48811 28.3417C6.9576 28.3226 7.13937 28.317 8.08819 28.3164V28.3175V28.317ZM11.2623 29.0689C10.9248 29.0689 10.6516 29.312 10.6516 29.6123C10.6516 29.9126 10.9254 30.1557 11.2623 30.1557C11.5992 30.1557 11.873 29.912 11.873 29.6123C11.873 29.3125 11.5992 29.0689 11.2623 29.0689ZM8.54494 29.7034C7.10117 29.7034 5.93063 30.7449 5.93063 32.0294C5.93063 33.3139 7.10117 34.3548 8.54494 34.3548C9.98872 34.3548 11.1587 33.3139 11.1587 32.0294C11.1587 30.7449 9.98872 29.7034 8.54494 29.7034ZM8.54494 30.5198C9.48218 30.5198 10.2417 31.1955 10.2417 32.0294C10.2417 32.8632 9.48218 33.539 8.54494 33.539C7.6077 33.539 6.84819 32.8632 6.84819 32.0294C6.84819 31.1955 7.6077 30.5198 8.54494 30.5198Z" fill="black"/>
</g>
<g clip-path="url(#clip2_425_3227)">
<path d="M15.0939 49.8797C18.5469 52.9519 18.5469 57.9329 15.0939 61.005C11.6408 64.0772 6.0423 64.0772 2.58923 61.005C-0.863827 57.9329 -0.863827 52.9519 2.58923 49.8797C6.0423 46.8076 11.6408 46.8076 15.0939 49.8797Z" fill="white"/>
<path fill-rule="evenodd" clip-rule="evenodd" d="M13.3085 57.175C13.3085 57.175 13.2142 57.7683 12.9218 58.0341C12.5519 58.3781 12.1363 58.3802 11.947 58.4008C10.5865 58.4858 8.53955 58.4858 8.53955 58.4858C8.53955 58.4858 6.49835 58.4858 5.13678 58.3977C4.9469 58.3771 4.53241 58.375 4.16191 58.031C3.86957 57.7688 3.77636 57.1719 3.77636 57.1719C3.71616 56.7068 3.68374 56.2392 3.67969 55.771V55.1143C3.68374 54.6461 3.71616 54.1785 3.77636 53.7134C3.77636 53.7134 3.87188 53.1201 4.16191 52.8543C4.53183 52.5102 5.01868 52.5211 5.23635 52.4845C6.01439 52.418 8.5436 52.3985 8.5436 52.3985C8.5436 52.3985 10.5883 52.3985 11.9487 52.4886C12.1386 52.5082 12.5531 52.5102 12.923 52.8543C13.2153 53.1164 13.3108 53.7134 13.3108 53.7134C13.371 54.179 13.4035 54.6466 13.4075 55.1153V55.7736C13.4017 56.2422 13.3687 56.7099 13.3085 57.1755L13.3074 57.1745L13.3085 57.175Z" fill="black"/>
<path fill-rule="evenodd" clip-rule="evenodd" d="M7.23145 54.2264V56.6584L9.85849 55.4372L7.23145 54.2264Z" fill="white"/>
</g>
<g clip-path="url(#clip3_425_3227)">
<path d="M15.0939 84.7458C18.5469 81.6736 18.5469 76.6927 15.0939 73.6205C11.6408 70.5484 6.04228 70.5484 2.58923 73.6205C-0.86383 76.6927 -0.86383 81.6736 2.58923 84.7458C6.04228 87.818 11.6408 87.818 15.0939 84.7458Z" fill="white"/>
<path fill-rule="evenodd" clip-rule="evenodd" d="M7.17694 77.8142H8.9119V78.6094H8.93622C9.17878 78.2236 9.76867 77.8142 10.6503 77.8142C12.4814 77.8142 12.8201 78.8283 12.8201 80.1473V82.9363H11.011V80.4574C11.011 79.8898 10.9977 79.1595 10.0703 79.1595C9.14288 79.1595 8.98427 79.7765 8.98427 80.4167V82.9414H7.17636V77.8142H7.17694ZM6.14998 76.2618C6.14998 76.7238 5.72854 77.0988 5.20927 77.0988C4.68999 77.0988 4.26855 76.7238 4.26855 76.2618C4.26855 75.7998 4.68999 75.4249 5.20927 75.4249C5.72854 75.4254 6.1494 75.7998 6.14998 76.2618ZM4.27087 77.8142H6.14998V82.9363H4.27087V77.8142Z" fill="black"/>
</g>
<defs>
<clipPath id="clip0_425_3227">
<rect width="17.6842" height="15.7335" fill="white" transform="translate(0 0.14093)"/>
</clipPath>
<clipPath id="clip1_425_3227">
<rect width="17.6842" height="15.7335" fill="white" transform="translate(0 24.1626)"/>
</clipPath>
<clipPath id="clip2_425_3227">
<rect width="17.6842" height="15.7336" fill="white" transform="matrix(1 0 0 -1 0 63.3092)"/>
</clipPath>
<clipPath id="clip3_425_3227">
<rect width="17.6842" height="15.7335" fill="white" transform="translate(0 71.3164)"/>
</clipPath>
</defs>
</svg>
