<svg width="118" height="132" viewBox="0 0 118 132" fill="none" xmlns="http://www.w3.org/2000/svg">
<path d="M87.9609 65.9843C87.1001 66.5779 86.5182 66.8761 86.0687 67.3032C75.8655 77.0117 65.6749 86.7335 55.4843 96.454C52.5186 99.2828 52.5326 100.864 55.5392 103.73C58.2626 106.328 60.9734 108.937 63.7151 111.516C65.9693 113.637 67.9939 113.649 70.2341 111.516C85.1008 97.3607 99.9563 83.1956 114.805 69.0238C117.108 66.8251 117.084 64.9258 114.741 62.6921C99.9309 48.562 85.1149 34.4372 70.2904 20.3205C67.9686 18.1097 65.9848 18.1245 63.6432 20.3326C60.8649 22.9558 58.1063 25.5978 55.3434 28.2358C52.6158 30.8389 52.6017 32.5917 55.2983 35.1639C65.5326 44.922 75.7697 54.6775 86.0138 64.4262C86.4675 64.8573 86.9958 65.216 87.9609 65.9829V65.9843Z" stroke="#515151" stroke-miterlimit="10"/>
<path d="M1.00853 124.307C1.32835 123.211 1.77215 121.603 2.26668 120.009C14.131 81.7112 26.001 43.4148 37.8725 5.11835C38.0697 4.48035 38.2585 3.83294 38.5403 3.22851C39.3574 1.47299 40.8114 0.609333 42.7402 1.05392C45.6228 1.71879 48.4899 2.49111 51.2852 3.43133C53.5606 4.19694 54.234 5.98067 53.4676 8.51657C52.2249 12.6267 50.9428 16.7247 49.672 20.8254C38.7305 56.14 27.7889 91.4546 16.8404 126.768C16.6093 127.512 16.3937 128.279 16.0176 128.957C15.23 130.373 13.8718 131.183 12.2586 130.813C9.20552 130.115 6.18765 129.245 3.21769 128.269C1.60027 127.739 0.914133 126.416 1.00853 124.306V124.307Z" stroke="#515151" stroke-miterlimit="10"/>
</svg>
