<svg width="99" height="138" viewBox="0 0 99 138" fill="none" xmlns="http://www.w3.org/2000/svg">
<g clip-path="url(#clip0_816_2)">
<path d="M9.5709 126.828L0.672607 27.1772H98.4456L89.5382 126.815L49.4982 137.897L9.5709 126.828Z" fill="#E44D26"/>
<path d="M49.5591 129.427L81.9118 120.47L89.5247 35.3259H49.5591V129.427Z" fill="#F16529"/>
<path d="M49.5591 72.2844H33.3613L32.2428 59.7698H49.5591V47.5479H49.5163H18.8661L19.1592 50.8262L22.1674 84.5064H49.5591V72.2844Z" fill="#EBEBEB"/>
<path d="M49.559 104.026L49.5049 104.042L35.8733 100.365L35.0029 90.6174H28.3777H22.7153L24.4291 109.808L49.5027 116.759L49.559 116.743V104.026Z" fill="#EBEBEB"/>
<path d="M9.76929 0.0966797H15.9886V6.23242H21.678V0.0966797H27.8996V18.6795H21.6803V12.456H15.9909V18.6795H9.77154V0.0966797H9.76929Z" fill="black"/>
<path d="M36.0809 6.25944H30.6057V0.0966797H47.7799V6.25944H42.3025V18.6795H36.0831V6.25944H36.0809Z" fill="black"/>
<path d="M50.5062 0.0966797H56.9916L60.9808 6.62646L64.9676 0.0966797H71.4553V18.6795H65.2608V9.46803L60.9808 16.0744H60.8748L56.5925 9.46803V18.6795H50.5062V0.0966797Z" fill="black"/>
<path d="M74.5514 0.0966797H80.773V12.537H89.5202V18.6795H74.5514V0.0966797Z" fill="black"/>
<path d="M49.5162 72.2844V84.5064H64.5888L63.1681 100.358L49.5162 104.037V116.752L74.61 109.808L74.7927 107.743L77.6701 75.5673L77.9678 72.2844H74.6709H49.5162Z" fill="white"/>
<path d="M49.5162 47.5479V55.1382V59.7405V59.7698H79.0434H79.0817L79.3275 57.0228L79.8868 50.8262L80.1777 47.5479H49.5162Z" fill="white"/>
</g>
<defs>
<clipPath id="clip0_816_2">
<rect width="97.7729" height="137.801" fill="white" transform="translate(0.672607 0.0966797)"/>
</clipPath>
</defs>
</svg>
