<svg width="407" height="407" viewBox="0 0 407 407" fill="none" xmlns="http://www.w3.org/2000/svg">
<g style="mix-blend-mode:luminosity" opacity="0.5">
<g filter="url(#filter0_d_539_481)">
<rect x="15.0674" y="11.7539" width="376.28" height="375.498" rx="25" fill="white"/>
<rect x="16.0674" y="12.7539" width="374.28" height="373.498" rx="24" stroke="#F5AF02" stroke-width="2"/>
</g>
<circle cx="199.687" cy="199.503" r="92.5921" fill="#F5AF02" stroke="#F5AF02"/>
<g clip-path="url(#clip0_539_481)">
<path d="M190.505 223.532C189.708 223.837 188.845 224.135 188.011 224.497C187.582 224.685 187.165 224.944 186.811 225.25C186.105 225.862 185.637 226.656 185.398 227.553C185.257 228.083 185.169 228.642 185.164 229.189C185.141 232.067 185.148 234.945 185.153 237.823C185.155 238.828 185.699 239.412 186.638 239.413C195.376 239.416 204.114 239.415 212.852 239.413C213.758 239.413 214.336 238.828 214.337 237.919C214.34 234.967 214.361 232.013 214.329 229.062C214.31 227.18 213.355 225.776 211.883 224.685C211.825 224.641 211.751 224.618 211.68 224.596C210.843 224.319 209.997 224.065 209.172 223.759C208.828 223.632 208.675 223.725 208.49 224.008C207.534 225.479 206.368 226.759 204.917 227.76C202.873 229.169 200.637 229.813 198.158 229.343C196.087 228.95 194.368 227.876 192.925 226.386C192.075 225.509 191.337 224.521 190.507 223.533L190.505 223.532ZM159.763 223.494C158.969 223.799 158.199 224.082 157.439 224.388C157.067 224.538 156.665 224.669 156.356 224.911C155.141 225.862 154.387 227.127 154.355 228.674C154.292 231.79 154.316 234.909 154.328 238.027C154.331 238.956 154.861 239.415 155.831 239.415C164.526 239.416 173.221 239.416 181.915 239.415C183.003 239.415 183.484 238.939 183.485 237.86C183.487 234.922 183.491 231.984 183.481 229.046C183.476 227.452 182.825 226.149 181.621 225.12C181.385 224.918 181.125 224.712 180.84 224.606C180.014 224.301 179.162 224.065 178.334 223.763C178 223.641 177.837 223.706 177.656 224.005C176.833 225.365 175.783 226.528 174.509 227.484C170.93 230.174 166.816 230.159 163.27 227.445C161.86 226.367 160.748 225.022 159.762 223.493L159.763 223.494ZM221.227 223.525C220.383 223.848 219.475 224.188 218.575 224.546C218.328 224.644 218.076 224.762 217.872 224.928C216.617 225.946 215.902 227.271 215.882 228.886C215.842 231.898 215.866 234.911 215.87 237.923C215.871 238.838 216.438 239.413 217.352 239.413C226.09 239.415 234.828 239.415 243.566 239.413C244.435 239.413 245.027 238.855 245.03 237.996C245.041 234.954 245.036 231.911 245.024 228.869C245.019 227.801 244.678 226.815 243.996 226.009C243.541 225.472 242.997 224.944 242.381 224.627C241.607 224.228 240.716 224.064 239.887 223.766C239.56 223.649 239.395 223.701 239.208 224.006C238.297 225.492 237.139 226.758 235.694 227.744C233.478 229.258 231.063 229.895 228.409 229.244C226.417 228.755 224.775 227.638 223.396 226.153C222.635 225.334 221.967 224.428 221.227 223.526V223.525ZM222.151 217.181C222.294 219.868 223.523 222.715 226.021 224.938C228.676 227.301 231.902 227.338 234.617 225.039C236.911 223.097 238.167 220.564 238.546 217.597C239.14 212.949 235.794 208.753 231.16 208.31C226.338 207.849 222.14 211.684 222.151 217.181ZM199.904 208.292C198.222 208.273 196.848 208.641 195.579 209.378C192.519 211.155 190.967 214.501 191.575 218.056C192.079 220.999 193.413 223.492 195.804 225.328C198.214 227.178 201.062 227.225 203.448 225.399C206.379 223.156 207.877 220.093 207.9 216.436C207.929 211.909 204.196 208.299 199.903 208.293L199.904 208.292ZM168.835 208.261C168.418 208.302 168 208.329 167.586 208.385C163.596 208.918 160.418 212.674 160.595 216.687C160.733 219.806 161.967 222.464 164.192 224.63C166.853 227.219 170.151 227.437 172.899 225.18C175.567 222.987 176.962 220.082 177.063 216.651C177.199 212.053 173.434 208.297 168.835 208.262V208.261ZM207.214 173.843H191.722C194.321 182.708 196.908 191.531 199.495 200.354C199.524 200.354 199.553 200.353 199.581 200.352C202.122 191.529 204.663 182.706 207.215 173.842L207.214 173.843ZM222.275 173.846C222.092 173.831 221.992 173.817 221.893 173.817C218.102 173.816 214.311 173.82 210.521 173.808C210.192 173.807 210.097 173.94 210.015 174.221C208.046 181.021 206.068 187.819 204.092 194.617C203.702 195.96 203.313 197.303 202.924 198.647C202.945 198.657 202.967 198.669 202.989 198.68C209.398 190.426 215.808 182.172 222.274 173.846H222.275ZM176.778 173.816C183.239 182.135 189.625 190.358 196.011 198.582C196.062 198.373 196.028 198.215 195.983 198.06C193.677 190.123 191.367 182.186 189.072 174.245C188.973 173.903 188.833 173.808 188.492 173.809C184.88 173.82 181.266 173.816 177.653 173.816C177.4 173.816 177.147 173.816 176.778 173.816H176.778ZM175.801 188.077C175.791 188.109 175.781 188.141 175.771 188.173C175.613 188.173 175.455 188.173 175.297 188.173C173.273 188.173 171.25 188.17 169.226 188.176C168.034 188.178 167.57 188.649 167.57 189.845C167.57 194.253 167.57 198.66 167.57 203.068C167.57 203.203 167.565 203.339 167.582 203.472C167.669 204.19 168.163 204.725 168.79 204.786C169.541 204.859 170.129 204.524 170.302 203.879C170.37 203.624 170.367 203.345 170.367 203.077C170.37 199.315 170.369 195.552 170.369 191.789C170.369 191.584 170.369 191.378 170.369 191.152H175.898C175.301 191.663 174.782 192.106 174.264 192.549C173.855 192.898 173.6 193.329 173.65 193.879C173.701 194.449 174.072 194.786 174.572 194.994C175.071 195.202 175.532 195.137 175.947 194.77C177.465 193.431 178.986 192.098 180.505 190.762C181.287 190.074 181.299 189.26 180.52 188.569C179.005 187.227 177.484 185.893 175.96 184.561C175.368 184.045 174.675 184.082 174.062 184.643C173.555 185.107 173.489 185.782 173.918 186.386C174.054 186.579 174.238 186.742 174.417 186.899C174.873 187.298 175.339 187.687 175.801 188.079V188.077ZM228.964 191.149C228.973 191.319 228.986 191.465 228.986 191.611C228.987 193.544 228.985 195.477 228.986 197.41C228.988 199.448 228.982 201.486 229.004 203.524C229.012 204.284 229.541 204.768 230.295 204.793C231.244 204.823 231.785 204.287 231.785 203.297C231.787 198.831 231.787 194.366 231.785 189.9C231.785 188.824 231.295 188.33 230.225 188.329C228.143 188.326 226.059 188.328 223.976 188.326C223.835 188.326 223.694 188.314 223.456 188.303C223.875 187.917 224.226 187.599 224.57 187.273C224.808 187.047 225.067 186.833 225.264 186.574C225.73 185.96 225.678 185.269 225.166 184.792C224.563 184.23 223.827 184.198 223.23 184.721C221.708 186.053 220.187 187.387 218.674 188.728C217.933 189.386 217.931 190.209 218.662 190.854C220.166 192.184 221.674 193.51 223.187 194.831C223.858 195.418 224.605 195.382 225.22 194.754C225.73 194.234 225.709 193.485 225.133 192.86C224.677 192.365 224.185 191.902 223.713 191.421C223.638 191.345 223.58 191.253 223.499 191.148H228.964V191.149ZM189.91 170.341C192.144 167.685 194.35 165.064 196.609 162.378H183.345C185.562 165.066 187.727 167.692 189.91 170.341ZM199.679 163.059C197.429 165.73 195.228 168.344 192.99 171.001H206.227C204.026 168.331 201.875 165.723 199.679 163.059ZM209.169 170.34C211.363 167.678 213.523 165.058 215.732 162.38H202.607C204.816 165.06 206.976 167.679 209.17 170.34H209.169ZM186.986 171.024C184.809 168.421 182.701 165.9 180.556 163.335C179.146 165.922 177.768 168.449 176.364 171.024H186.986ZM222.712 171.02C221.302 168.436 219.925 165.912 218.52 163.336C216.362 165.916 214.256 168.437 212.096 171.02H222.712ZM218.534 153.251H218.538C218.538 152.981 218.538 152.712 218.538 152.442C218.538 152.172 218.547 151.902 218.532 151.632C218.489 150.883 218.131 150.411 217.515 150.274C216.526 150.053 215.731 150.681 215.711 151.722C215.694 152.636 215.702 153.55 215.711 154.464C215.715 154.762 215.729 155.066 215.792 155.356C215.892 155.825 216.178 156.153 216.652 156.303C217.612 156.606 218.474 155.981 218.529 154.913C218.558 154.36 218.534 153.804 218.534 153.249V153.251ZM183.485 153.308C183.485 152.739 183.49 152.169 183.484 151.6C183.474 150.767 182.91 150.211 182.096 150.219C181.321 150.226 180.706 150.835 180.701 151.623C180.693 152.747 180.693 153.872 180.701 154.995C180.707 155.835 181.256 156.378 182.08 156.383C182.907 156.387 183.468 155.847 183.483 155.017C183.493 154.448 183.485 153.878 183.484 153.309L183.485 153.308ZM225.338 162.952C226.323 162.771 227.52 162.588 228.699 162.319C229.419 162.155 229.85 161.35 229.686 160.677C229.504 159.928 228.785 159.44 228.021 159.565C227.004 159.732 225.987 159.91 224.972 160.094C224.24 160.228 223.591 161.035 223.663 161.702C223.74 162.413 224.376 162.957 225.338 162.951V162.952ZM173.754 162.951C174.63 162.962 175.334 162.389 175.401 161.73C175.476 160.987 174.961 160.264 174.205 160.118C173.15 159.914 172.091 159.721 171.028 159.569C170.335 159.47 169.869 159.873 169.525 160.427C169.257 160.857 169.311 161.369 169.711 161.829C169.889 162.036 170.131 162.267 170.379 162.32C171.545 162.571 172.724 162.764 173.754 162.951ZM178.288 156.691C178.214 156.531 178.142 156.245 177.974 156.035C177.274 155.16 176.554 154.299 175.824 153.449C175.305 152.846 174.447 152.771 173.906 153.25C173.265 153.818 173.191 154.628 173.726 155.275C174.211 155.863 174.7 156.449 175.192 157.031C175.432 157.317 175.657 157.623 175.936 157.867C176.364 158.244 176.875 158.421 177.425 158.148C177.963 157.879 178.214 157.399 178.289 156.69L178.288 156.691ZM225.873 154.349C225.796 153.712 225.549 153.324 225.028 153.116C224.402 152.866 223.783 152.982 223.389 153.448C222.713 154.247 222.05 155.057 221.379 155.862C220.777 156.583 220.804 157.356 221.453 157.919C222.072 158.456 222.882 158.376 223.473 157.689C224.137 156.919 224.798 156.143 225.417 155.338C225.633 155.057 225.724 154.681 225.872 154.348L225.873 154.349Z" fill="white"/>
<path d="M190.505 223.532C191.336 224.52 192.073 225.508 192.923 226.385C194.367 227.875 196.085 228.949 198.156 229.342C200.635 229.812 202.872 229.168 204.916 227.759C206.366 226.758 207.532 225.479 208.489 224.007C208.672 223.724 208.826 223.63 209.17 223.758C209.996 224.064 210.841 224.318 211.679 224.595C211.749 224.618 211.824 224.642 211.881 224.684C213.353 225.776 214.308 227.179 214.328 229.061C214.359 232.013 214.339 234.966 214.335 237.918C214.334 238.827 213.757 239.412 212.85 239.412C204.112 239.415 195.374 239.416 186.636 239.412C185.697 239.412 185.153 238.828 185.152 237.822C185.147 234.944 185.139 232.066 185.162 229.189C185.167 228.642 185.255 228.082 185.396 227.553C185.636 226.655 186.103 225.861 186.809 225.249C187.163 224.943 187.58 224.684 188.009 224.497C188.843 224.133 189.707 223.836 190.504 223.531L190.505 223.532Z" fill="white"/>
<path d="M159.764 223.494C160.748 225.024 161.862 226.369 163.272 227.447C166.817 230.161 170.932 230.175 174.511 227.486C175.784 226.53 176.834 225.366 177.658 224.007C177.839 223.708 178.003 223.644 178.335 223.765C179.163 224.066 180.015 224.303 180.842 224.608C181.127 224.714 181.386 224.92 181.622 225.121C182.826 226.151 183.477 227.454 183.482 229.048C183.491 231.986 183.489 234.924 183.486 237.862C183.485 238.941 183.004 239.416 181.917 239.416C173.222 239.417 164.527 239.416 155.833 239.416C154.861 239.416 154.332 238.958 154.329 238.029C154.317 234.911 154.293 231.793 154.357 228.675C154.388 227.128 155.142 225.865 156.358 224.913C156.665 224.671 157.068 224.54 157.44 224.39C158.201 224.084 158.971 223.8 159.765 223.496L159.764 223.494Z" fill="white"/>
<path d="M221.228 223.525C221.967 224.428 222.635 225.334 223.396 226.152C224.775 227.637 226.417 228.754 228.409 229.243C231.063 229.894 233.478 229.256 235.694 227.743C237.139 226.757 238.297 225.492 239.208 224.005C239.394 223.701 239.56 223.648 239.887 223.765C240.716 224.063 241.607 224.227 242.381 224.626C242.996 224.944 243.542 225.472 243.996 226.008C244.679 226.814 245.019 227.8 245.024 228.868C245.036 231.911 245.041 234.953 245.03 237.996C245.027 238.855 244.434 239.412 243.566 239.412C234.828 239.415 226.09 239.416 217.352 239.412C216.438 239.412 215.871 238.837 215.87 237.923C215.866 234.91 215.842 231.897 215.882 228.885C215.903 227.27 216.618 225.945 217.873 224.927C218.076 224.761 218.328 224.643 218.575 224.545C219.475 224.188 220.383 223.847 221.228 223.524V223.525Z" fill="white"/>
<path d="M222.151 217.181C222.141 211.684 226.339 207.849 231.16 208.31C235.794 208.753 239.14 212.95 238.546 217.597C238.167 220.564 236.91 223.098 234.617 225.039C231.902 227.338 228.676 227.301 226.021 224.938C223.524 222.715 222.295 219.868 222.151 217.181Z" fill="white"/>
<path d="M199.905 208.292C204.198 208.298 207.932 211.908 207.902 216.435C207.879 220.094 206.38 223.155 203.45 225.398C201.064 227.225 198.215 227.178 195.806 225.328C193.415 223.492 192.08 220.999 191.577 218.055C190.968 214.5 192.52 211.154 195.581 209.377C196.85 208.639 198.223 208.272 199.906 208.291L199.905 208.292Z" fill="white"/>
<path d="M168.836 208.261C173.435 208.296 177.2 212.052 177.064 216.65C176.963 220.081 175.568 222.986 172.899 225.179C170.151 227.436 166.854 227.219 164.192 224.629C161.967 222.463 160.734 219.805 160.596 216.686C160.419 212.673 163.597 208.917 167.587 208.384C168.001 208.329 168.42 208.301 168.836 208.26V208.261Z" fill="white"/>
<path d="M207.215 173.843C204.663 182.706 202.122 191.529 199.581 200.353C199.553 200.353 199.524 200.354 199.495 200.355C196.908 191.531 194.321 182.709 191.722 173.844H207.214L207.215 173.843Z" fill="white"/>
<path d="M222.275 173.846C215.809 182.173 209.399 190.426 202.99 198.68C202.968 198.669 202.946 198.657 202.925 198.647C203.314 197.303 203.703 195.96 204.093 194.617C206.069 187.819 208.047 181.021 210.016 174.221C210.098 173.94 210.192 173.806 210.522 173.808C214.312 173.82 218.103 173.816 221.894 173.817C221.994 173.817 222.093 173.831 222.276 173.846H222.275Z" fill="white"/>
<path d="M176.779 173.816C177.148 173.816 177.401 173.816 177.654 173.816C181.268 173.816 184.88 173.82 188.494 173.809C188.835 173.808 188.975 173.904 189.074 174.245C191.368 182.186 193.678 190.122 195.984 198.06C196.029 198.215 196.063 198.374 196.013 198.582C189.626 190.358 183.241 182.135 176.78 173.816H176.779Z" fill="white"/>
<path d="M175.801 188.077C175.339 187.685 174.872 187.297 174.417 186.897C174.237 186.74 174.054 186.577 173.918 186.385C173.49 185.78 173.555 185.105 174.062 184.642C174.676 184.08 175.368 184.042 175.96 184.56C177.483 185.891 179.005 187.225 180.52 188.567C181.299 189.258 181.287 190.072 180.505 190.76C178.986 192.097 177.465 193.43 175.947 194.768C175.532 195.135 175.071 195.2 174.572 194.993C174.071 194.786 173.7 194.447 173.65 193.877C173.6 193.327 173.855 192.897 174.264 192.547C174.782 192.104 175.301 191.661 175.898 191.151H170.369C170.369 191.377 170.369 191.582 170.369 191.787C170.369 195.55 170.37 199.313 170.367 203.076C170.367 203.344 170.37 203.622 170.302 203.877C170.129 204.522 169.541 204.858 168.79 204.785C168.164 204.723 167.669 204.189 167.582 203.47C167.565 203.337 167.57 203.201 167.57 203.066C167.57 198.658 167.57 194.251 167.57 189.843C167.57 188.647 168.034 188.177 169.226 188.174C171.25 188.169 173.273 188.172 175.297 188.171C175.455 188.171 175.613 188.171 175.771 188.171C175.781 188.14 175.791 188.107 175.801 188.076V188.077Z" fill="white"/>
<path d="M228.964 191.149H223.499C223.581 191.254 223.638 191.346 223.713 191.422C224.185 191.902 224.677 192.365 225.133 192.861C225.709 193.486 225.729 194.235 225.22 194.755C224.605 195.383 223.858 195.418 223.187 194.832C221.674 193.511 220.167 192.185 218.662 190.855C217.931 190.209 217.934 189.386 218.674 188.729C220.187 187.387 221.709 186.054 223.23 184.722C223.826 184.199 224.563 184.231 225.166 184.793C225.678 185.27 225.73 185.961 225.264 186.575C225.067 186.834 224.808 187.048 224.57 187.274C224.226 187.6 223.875 187.918 223.456 188.304C223.694 188.315 223.835 188.326 223.976 188.327C226.059 188.329 228.143 188.327 230.225 188.33C231.295 188.331 231.785 188.825 231.785 189.901C231.786 194.367 231.787 198.832 231.785 203.298C231.785 204.288 231.244 204.825 230.295 204.794C229.541 204.769 229.013 204.285 229.004 203.525C228.982 201.487 228.989 199.449 228.986 197.411C228.984 195.478 228.986 193.545 228.986 191.612C228.986 191.466 228.972 191.32 228.964 191.15V191.149Z" fill="white"/>
<path d="M189.911 170.341C187.726 167.692 185.562 165.067 183.346 162.378H196.61C194.351 165.064 192.145 167.685 189.911 170.341Z" fill="white"/>
<path d="M199.679 163.059C201.876 165.723 204.028 168.331 206.228 171.001H192.991C195.229 168.344 197.429 165.73 199.679 163.059Z" fill="white"/>
<path d="M209.17 170.34C206.975 167.679 204.816 165.059 202.606 162.38H215.732C213.523 165.059 211.364 167.679 209.169 170.34H209.17Z" fill="white"/>
<path d="M186.986 171.024H176.364C177.767 168.449 179.146 165.922 180.556 163.335C182.701 165.9 184.81 168.421 186.986 171.024Z" fill="white"/>
<path d="M222.713 171.02H212.097C214.257 168.437 216.364 165.917 218.52 163.336C219.926 165.912 221.303 168.435 222.713 171.02Z" fill="white"/>
<path d="M218.534 153.251C218.534 153.806 218.558 154.361 218.529 154.914C218.474 155.983 217.612 156.608 216.652 156.305C216.178 156.155 215.892 155.826 215.792 155.357C215.729 155.067 215.715 154.764 215.711 154.466C215.702 153.552 215.694 152.637 215.711 151.724C215.731 150.681 216.526 150.055 217.515 150.275C218.13 150.412 218.489 150.885 218.532 151.634C218.547 151.903 218.537 152.173 218.538 152.444C218.538 152.714 218.538 152.983 218.538 153.253H218.534V153.251Z" fill="white"/>
<path d="M183.486 153.308C183.486 153.877 183.495 154.447 183.484 155.016C183.469 155.847 182.909 156.387 182.081 156.382C181.257 156.378 180.708 155.835 180.702 154.994C180.693 153.871 180.694 152.746 180.702 151.622C180.707 150.835 181.321 150.225 182.097 150.218C182.911 150.21 183.474 150.766 183.485 151.599C183.492 152.168 183.486 152.738 183.487 153.307L183.486 153.308Z" fill="white"/>
<path d="M225.338 162.952C224.377 162.958 223.74 162.413 223.664 161.703C223.592 161.036 224.241 160.228 224.973 160.095C225.988 159.911 227.004 159.734 228.022 159.566C228.785 159.44 229.505 159.929 229.687 160.678C229.85 161.351 229.42 162.156 228.7 162.32C227.521 162.589 226.324 162.771 225.338 162.953V162.952Z" fill="white"/>
<path d="M173.754 162.951C172.724 162.764 171.547 162.571 170.38 162.32C170.131 162.267 169.89 162.036 169.712 161.83C169.313 161.369 169.258 160.856 169.525 160.427C169.869 159.873 170.337 159.47 171.028 159.569C172.091 159.721 173.15 159.914 174.206 160.118C174.961 160.264 175.477 160.987 175.401 161.73C175.334 162.389 174.631 162.963 173.754 162.951Z" fill="white"/>
<path d="M178.288 156.691C178.212 157.4 177.962 157.881 177.423 158.149C176.873 158.422 176.362 158.245 175.934 157.868C175.656 157.623 175.431 157.317 175.19 157.032C174.698 156.45 174.21 155.864 173.724 155.276C173.189 154.629 173.263 153.819 173.904 153.251C174.445 152.772 175.304 152.847 175.822 153.45C176.553 154.3 177.273 155.161 177.972 156.036C178.14 156.245 178.212 156.531 178.286 156.692L178.288 156.691Z" fill="white"/>
<path d="M225.873 154.349C225.725 154.682 225.633 155.058 225.418 155.339C224.798 156.144 224.138 156.92 223.474 157.69C222.883 158.376 222.073 158.456 221.454 157.92C220.805 157.357 220.778 156.584 221.38 155.863C222.05 155.058 222.714 154.248 223.39 153.448C223.784 152.983 224.404 152.867 225.029 153.117C225.549 153.325 225.797 153.713 225.874 154.35L225.873 154.349Z" fill="white"/>
</g>
<rect x="154.814" y="150.719" width="89.7221" height="88.1968" stroke="#F5AF02"/>
</g>
<defs>
<filter id="filter0_d_539_481" x="0.0673828" y="0.753906" width="406.28" height="405.498" filterUnits="userSpaceOnUse" color-interpolation-filters="sRGB">
<feFlood flood-opacity="0" result="BackgroundImageFix"/>
<feColorMatrix in="SourceAlpha" type="matrix" values="0 0 0 0 0 0 0 0 0 0 0 0 0 0 0 0 0 0 127 0" result="hardAlpha"/>
<feOffset dy="4"/>
<feGaussianBlur stdDeviation="7.5"/>
<feComposite in2="hardAlpha" operator="out"/>
<feColorMatrix type="matrix" values="0 0 0 0 0 0 0 0 0 0 0 0 0 0 0 0 0 0 0.25 0"/>
<feBlend mode="normal" in2="BackgroundImageFix" result="effect1_dropShadow_539_481"/>
<feBlend mode="normal" in="SourceGraphic" in2="effect1_dropShadow_539_481" result="shape"/>
</filter>
<clipPath id="clip0_539_481">
<rect x="154.314" y="150.219" width="90.7221" height="89.1968" fill="white"/>
</clipPath>
</defs>
</svg>
