<svg width="168" height="144" viewBox="0 0 168 144" fill="none" xmlns="http://www.w3.org/2000/svg">
<path d="M148.974 85.0134C158.878 77.1897 165.139 65.974 166.608 53.4386C168.077 40.9032 164.576 28.546 156.748 18.6427C148.924 8.73947 137.707 2.47904 125.171 1.01028C112.635 -0.458484 100.277 3.04255 90.3732 10.8699C80.4694 18.6936 74.2086 29.9093 72.7398 42.4447C71.2709 54.9801 74.7722 67.3373 82.6 77.2406C90.4241 87.1438 101.64 93.4043 114.177 94.873C116.049 95.0912 117.914 95.2002 119.768 95.2002C130.345 95.2002 140.55 91.6737 148.974 85.0134ZM148.974 85.0134L148.451 84.3517M119.583 2.36634C109.381 2.36634 99.5426 5.76922 91.4167 12.1896C71.7036 27.768 68.3405 56.4816 83.9198 76.1972C91.4676 85.7478 102.284 91.7865 114.373 93.2007C126.462 94.6185 138.38 91.2411 147.931 83.6937C157.482 76.1463 163.521 65.3341 164.935 53.2423C166.35 41.1541 162.976 29.2367 155.428 19.6861C147.88 10.1355 137.067 4.09686 124.975 2.68263C123.171 2.47176 121.372 2.36634 119.583 2.36634Z" stroke="white" stroke-width="0.58" stroke-linecap="round" stroke-linejoin="round"/>
<path d="M83.2629 76.7168L65.4395 90.8017" stroke="#FF718B" stroke-width="4.63" stroke-miterlimit="10"/>
<path d="M1.82438 141.077C-0.684295 137.904 -0.138924 133.25 3.0351 130.742L62.338 83.8756C65.5121 81.367 70.1658 81.9124 72.6745 85.0862C75.1832 88.26 74.6378 92.9136 71.4638 95.4221L12.1609 142.288C8.98684 144.797 4.33306 144.251 1.82438 141.077Z" fill="#FF8D40"/>
<path d="M63.3016 88.1001L29.3945 114.898" stroke="white" stroke-width="0.58" stroke-linecap="round" stroke-linejoin="round"/>
</svg>
