<svg width="78" height="115" viewBox="0 0 78 115" fill="none" xmlns="http://www.w3.org/2000/svg">
<g clip-path="url(#clip0_816_14)">
<path d="M20.0417 114.691C30.5638 114.691 39.1036 106.151 39.1036 95.6291V76.5671H20.0417C9.51957 76.5676 0.979736 85.107 0.979736 95.6291C0.979736 106.151 9.51957 114.691 20.0417 114.691Z" fill="#0ACF83"/>
<path d="M0.979736 57.5058C0.979736 46.9837 9.51957 38.4438 20.0417 38.4438H39.1036V76.5673H20.0417C9.51957 76.5677 0.979736 68.0279 0.979736 57.5058Z" fill="#A259FF"/>
<path d="M0.979736 19.3822C0.979736 8.86014 9.51957 0.320312 20.0417 0.320312H39.1036V38.4437H20.0417C9.51957 38.4437 0.979736 29.9044 0.979736 19.3822Z" fill="#F24E1E"/>
<path d="M39.1031 0.320312H58.1651C68.6872 0.320312 77.227 8.86014 77.227 19.3822C77.227 29.9044 68.6872 38.4442 58.1651 38.4442H39.1031V0.320312Z" fill="#FF7262"/>
<path d="M77.227 57.5058C77.227 68.0279 68.6872 76.5677 58.1651 76.5677C47.643 76.5677 39.1031 68.0279 39.1031 57.5058C39.1031 46.9837 47.643 38.4438 58.1651 38.4438C68.6872 38.4438 77.227 46.9837 77.227 57.5058Z" fill="#1ABCFE"/>
</g>
<defs>
<clipPath id="clip0_816_14">
<rect width="76.2473" height="114.371" fill="white" transform="translate(0.979736 0.320312)"/>
</clipPath>
</defs>
</svg>
