<svg width="181" height="274" viewBox="0 0 181 274" fill="none" xmlns="http://www.w3.org/2000/svg">
<path d="M178.597 4.08643H5.74168C4.47665 4.08643 3.45117 5.11187 3.45117 6.37683V270.9C3.45117 272.165 4.47665 273.19 5.74168 273.19H178.597C179.862 273.19 180.887 272.165 180.887 270.9V6.37683C180.887 5.11187 179.862 4.08643 178.597 4.08643Z" fill="#D5C7F4"/>
<path d="M175.753 0.297852H2.89797C1.63295 0.297852 0.607422 1.3233 0.607422 2.58825V267.111C0.607422 268.376 1.63295 269.402 2.89797 269.402H175.753C177.018 269.402 178.044 268.376 178.044 267.111V2.58825C178.044 1.3233 177.018 0.297852 175.753 0.297852Z" fill="#F3F0FB"/>
<path d="M155.116 9.65576H23.5381C21.8133 9.65576 20.415 11.054 20.415 12.7787V144.349C20.415 146.074 21.8133 147.472 23.5381 147.472H155.116C156.841 147.472 158.24 146.074 158.24 144.349V12.7787C158.24 11.054 156.841 9.65576 155.116 9.65576Z" fill="#D5C7F4"/>
<path d="M59.7727 175.179L52.7483 171.602L45.8186 175.364L47.0475 167.577L41.332 162.149L49.1162 160.913L52.512 153.798L56.0933 160.819L63.9102 161.851L58.3401 167.428L59.7727 175.179Z" fill="#FFBD35"/>
<path d="M84.245 175.179L77.2171 171.602L70.2909 175.364L71.5198 167.577L65.8008 162.149L73.5886 160.913L76.9844 153.798L80.5656 160.819L88.3825 161.851L82.8089 167.428L84.245 175.179Z" fill="#FFBD35"/>
<path d="M108.714 175.179L101.69 171.602L94.76 175.364L95.9889 167.577L90.2734 162.149L98.0576 160.913L101.453 153.798L105.035 160.819L112.852 161.851L107.282 167.428L108.714 175.179Z" fill="#D5C7F4"/>
<path d="M133.186 175.179L126.158 171.602L119.229 175.364L120.461 167.577L114.742 162.149L122.53 160.913L125.926 153.798L129.507 160.819L137.324 161.851L131.75 167.428L133.186 175.179Z" fill="#D5C7F4"/>
<path d="M156.102 203.656H24.1966C21.3934 203.656 19.1211 201.384 19.1211 198.581C19.1211 195.778 21.3934 193.506 24.1966 193.506H156.102C158.905 193.506 161.178 195.778 161.178 198.581C161.178 201.384 158.905 203.656 156.102 203.656Z" fill="#D5C7F4"/>
<path d="M156.102 223.961H24.1966C21.3934 223.961 19.1211 221.689 19.1211 218.886C19.1211 216.083 21.3934 213.811 24.1966 213.811H156.102C158.905 213.811 161.178 216.083 161.178 218.886C161.178 221.689 158.905 223.961 156.102 223.961Z" fill="#D5C7F4"/>
<path d="M156.102 244.266H24.1966C21.3934 244.266 19.1211 241.993 19.1211 239.19C19.1211 236.387 21.3934 234.115 24.1966 234.115H156.102C158.905 234.115 161.178 236.387 161.178 239.19C161.178 241.993 158.905 244.266 156.102 244.266Z" fill="#D5C7F4"/>
<path d="M90.0438 121.529C101.787 121.115 110.139 114.254 114.956 108.808C112.207 109.012 109.71 109.052 107.594 108.597C97.8933 106.518 98.5878 86.8931 98.5878 86.8931C88.4258 91.9719 76.6496 87.8165 76.6496 87.8165C76.6496 87.8165 76.8823 100.515 67.6438 107.132C65.4478 108.703 62.7901 109.786 59.8633 110.648C65.6042 115.109 76.7005 121.998 90.0438 121.529Z" fill="#F79556"/>
<path d="M144.846 147.472C143.333 133.708 140.766 121.176 136.502 115.756C128.259 105.282 116.632 108.059 108.732 108.786C104.874 114.232 99.3079 121.115 89.9058 121.529C79.2203 122.002 71.0361 112.386 66.4369 107.925C58.9145 110.695 48.4217 113.862 41.0884 120.376C36.4746 124.474 34.7585 135.38 33.8096 147.476H144.846V147.472Z" fill="#5B8EEA"/>
<path d="M87.2409 98.632C83.6124 98.7847 73.4104 98.3921 66.5534 75.3572C58.1729 47.2144 70.4437 31.3052 81.7472 27.6405C93.0508 23.9795 103.998 27.1716 111.095 41.6629C111.095 41.6629 116.342 52.9876 111.001 74.3174C105.663 95.6509 91.1275 98.4648 87.2372 98.6284L87.2409 98.632Z" fill="#F79556"/>
<path d="M59.3688 67.1524C59.9797 70.4609 62.4521 72.7805 64.8955 72.3297C67.3352 71.8789 68.8187 68.8321 68.2079 65.5199C67.597 62.2114 65.1246 59.8918 62.6812 60.3426C60.2415 60.7935 58.758 63.8402 59.3688 67.1488V67.1524Z" fill="#F79556"/>
<path d="M117.821 67.1524C117.21 70.4609 114.738 72.7805 112.294 72.3297C109.855 71.8789 108.371 68.8321 108.982 65.5199C109.593 62.2114 112.065 59.8918 114.509 60.3426C116.948 60.7935 118.432 63.8402 117.821 67.1488V67.1524Z" fill="#F79556"/>
<path d="M84.7767 57.3545C83.9477 56.431 82.8278 55.8529 81.6789 55.5402C80.5263 55.1985 79.3264 55.1367 78.152 55.1876C76.9739 55.2785 75.8249 55.5293 74.7378 55.9583C74.1924 56.1583 73.6761 56.4492 73.1634 56.7255C72.6798 57.089 72.1817 57.3799 71.7454 57.8126L71.7236 57.8344C71.6981 57.8598 71.6945 57.9035 71.7236 57.9325C71.7418 57.9507 71.7708 57.958 71.7927 57.9507C72.8435 57.6126 73.9015 57.3036 74.9814 57.0818C76.0613 56.8673 77.1484 56.6964 78.2465 56.6419C79.3409 56.5619 80.4426 56.5546 81.5334 56.6782C82.6169 56.8091 83.715 57.0345 84.704 57.489C84.7403 57.5072 84.7803 57.489 84.7985 57.4526C84.8094 57.4272 84.8058 57.3945 84.7876 57.3763L84.7731 57.3617L84.7767 57.3545Z" fill="#1E1735"/>
<path d="M76.5522 62.5898C76.7885 63.8332 77.763 64.6949 78.7229 64.5131C79.6864 64.3313 80.2754 63.1715 80.0391 61.9281C79.8027 60.681 78.8283 59.823 77.8684 60.0048C76.9048 60.1865 76.3158 61.3463 76.5522 62.5898Z" fill="#021927"/>
<path d="M78.8857 61.7134C78.9366 61.9897 79.3766 62.1351 79.8638 62.0442C80.3511 61.9533 80.7037 61.6516 80.6528 61.3789C80.6019 61.1026 80.162 60.9571 79.6748 61.048C79.1875 61.1389 78.8348 61.437 78.8857 61.7134Z" fill="white"/>
<path d="M74.1596 61.2374C75.5667 60.7466 77.0429 60.4266 78.5227 60.3066C79.9953 60.1576 81.5224 60.2339 82.9004 60.8156L82.955 60.6993C82.435 59.9831 81.6569 59.565 80.8607 59.2923C80.0571 59.0305 79.2245 59.0523 78.41 59.0269C77.6101 59.1832 76.8211 59.3141 76.0903 59.6558C75.3631 60.0049 74.6686 60.423 74.1123 61.1174L74.1596 61.2374Z" fill="#021927"/>
<path d="M107.744 57.8815C106.995 56.8925 105.926 56.2236 104.806 55.8164C103.686 55.3801 102.497 55.2165 101.319 55.1692C100.137 55.1619 98.9701 55.3183 97.8539 55.6527C97.294 55.8091 96.7558 56.0527 96.2213 56.2854C95.7087 56.6089 95.1887 56.8562 94.7197 57.2488L94.6942 57.2707C94.6651 57.2961 94.6615 57.3397 94.6869 57.3688C94.7051 57.3906 94.7306 57.3979 94.756 57.3906C95.8323 57.1398 96.9121 56.9216 98.0066 56.7871C99.101 56.6635 100.199 56.5799 101.297 56.6199C102.395 56.6308 103.493 56.7144 104.569 56.9289C105.638 57.1507 106.715 57.4633 107.66 57.9978C107.693 58.016 107.736 58.0051 107.758 57.9724C107.773 57.9469 107.769 57.9178 107.755 57.8924L107.744 57.8778V57.8815Z" fill="#1E1735"/>
<path d="M99.1118 62.4147C99.2427 63.6763 100.141 64.6143 101.115 64.5125C102.09 64.4107 102.773 63.3055 102.642 62.0439C102.511 60.7823 101.613 59.8442 100.639 59.946C99.6644 60.0478 98.9809 61.1531 99.1118 62.4147Z" fill="#021927"/>
<path d="M101.512 61.7383C101.541 62.0183 101.966 62.2001 102.461 62.1492C102.955 62.0983 103.33 61.8292 103.301 61.5493C103.272 61.2693 102.846 61.0875 102.355 61.1384C101.864 61.1893 101.486 61.4584 101.515 61.7383H101.512Z" fill="white"/>
<path d="M96.8398 60.8699C98.2833 60.4954 99.7813 60.3027 101.265 60.3064C102.745 60.2809 104.261 60.4845 105.584 61.1789L105.646 61.0662C105.188 60.31 104.446 59.8264 103.675 59.4883C102.894 59.1575 102.065 59.1138 101.257 59.0229C100.45 59.1138 99.6504 59.1757 98.8905 59.4592C98.1378 59.7465 97.4106 60.1064 96.7998 60.7499L96.8362 60.8735L96.8398 60.8699Z" fill="#021927"/>
<path d="M90.1241 60.9971C89.9677 63.6948 90.1459 66.7125 91.8984 68.8976C92.142 69.1412 92.3929 69.4211 92.6474 69.6683C94.4617 71.5844 92.8147 73.624 90.6949 74.1694C90.0113 74.3294 89.0915 74.4057 88.5352 74.0131C89.2005 74.3112 89.9713 74.2385 90.6549 74.0349C92.5638 73.4822 94.1781 71.588 92.462 69.8429C92.2038 69.5993 91.942 69.3229 91.6984 69.0684C89.9459 66.8543 89.7168 63.6548 90.1241 61.0007V60.9971Z" fill="#122045"/>
<path d="M93.3892 81.5308C91.6367 82.9996 88.9825 83.116 87.0445 81.9198C86.7391 81.7235 86.4227 81.4763 86.1246 81.2654C85.4701 80.6946 84.9102 80.0183 84.4048 79.3203C84.1866 78.8949 83.823 78.444 83.6885 78.0332C84.1757 78.7785 84.852 79.7093 85.4628 80.3455C87.768 82.6724 90.5641 83.2323 93.3856 81.5308H93.3892Z" fill="#122045"/>
<path d="M99.0966 94.0369C99.0966 94.0369 86.7896 101.824 75.6932 93.4771L74.3262 98.6504C74.3262 98.6504 92.9231 100.519 99.093 94.0406L99.0966 94.0369Z" fill="#1E1735"/>
<path d="M87.9572 20.3333C87.63 20.3333 87.3028 20.3333 86.9719 20.3297C84.6741 20.3006 82.5218 20.1552 80.2131 20.5369C71.6618 21.9548 64.4266 27.299 59.2311 34.0721C46.186 51.0719 58.0531 64.4071 52.9885 78.0405C47.9202 91.6738 48.7201 98.4796 56.7224 107.877C64.7247 117.275 49.5236 128.473 55.3881 140.474C61.2562 152.475 74.5013 143.03 78.2461 131.672C81.9873 120.318 75.7084 103.642 75.8647 95.7274C76.0174 87.8128 68.5896 83.9155 66.5899 74.194C64.5902 64.4726 65.3464 47.6727 71.0691 42.6702C71.0691 42.6702 81.0929 52.4716 90.2405 50.872C90.2405 50.872 84.3906 43.2737 85.3904 41.2705C86.3902 39.2709 92.6365 52.4716 105.016 53.0715C105.016 53.0715 106.721 44.8697 98.3555 36.4715C98.3555 36.4715 105.627 41.4704 108.208 48.8724C110.793 56.2708 113.851 70.6603 108.583 79.9964C103.315 89.3325 97.7883 89.2816 97.1884 96.3782C96.5885 103.475 108.99 110.968 105.991 121.522C102.991 132.076 111.79 142.677 116.393 143.277C120.992 143.877 131.594 130.883 125.595 107.881C119.596 84.8753 116.992 87.2457 120.595 64.2617C122.333 53.1551 118.749 41.3904 112.219 32.3852C109.314 28.3752 105.689 24.7141 101.326 22.3038C96.8794 19.8461 92.7019 20.3224 87.9609 20.3406L87.9572 20.3333Z" fill="#312553"/>
</svg>
