<svg width="870" height="635" viewBox="0 0 870 635" fill="none" xmlns="http://www.w3.org/2000/svg">
<g clip-path="url(#clip0_705_6368)">
<path d="M600.115 533.92L597.388 533.044C597.423 532.945 600.688 522.696 604.215 505.381L607.024 505.953C603.456 523.444 600.15 533.821 600.115 533.926V533.92ZM611.836 477.619L608.998 477.227C610.294 467.866 611.31 458.312 612.034 448.834L614.884 449.05C614.166 458.581 613.132 468.193 611.836 477.613V477.619ZM616.198 420.365L613.337 420.318C613.372 418.128 613.389 415.915 613.383 413.684C613.383 406.373 613.202 399.003 612.846 391.779L615.708 391.639C616.064 398.91 616.245 406.326 616.245 413.678C616.245 415.927 616.233 418.152 616.198 420.359V420.365ZM610.499 363.333C609.383 353.791 607.941 344.301 606.195 335.127L609.015 334.596C610.767 343.834 612.221 353.394 613.337 363.001L610.499 363.333ZM599.888 307.312C597.435 298.12 594.602 288.952 591.478 280.063L594.176 279.112C597.33 288.064 600.185 297.303 602.656 306.57L599.893 307.306L599.888 307.312ZM580.937 253.574C577.071 244.896 572.814 236.306 568.288 228.037L570.794 226.658C575.366 234.998 579.658 243.658 583.554 252.406L580.937 253.568V253.574ZM553.56 203.638C548.363 195.777 542.751 188.005 536.876 180.541L539.124 178.766C545.046 186.294 550.705 194.131 555.955 202.061L553.56 203.638ZM518.37 158.864C511.992 151.979 505.212 145.193 498.216 138.705L500.161 136.603C507.215 143.137 514.048 149.976 520.472 156.913L518.37 158.858V158.864ZM476.603 120.111C469.315 114.283 461.624 108.554 453.734 103.076L455.37 100.723C463.312 106.235 471.055 112.005 478.396 117.874L476.609 120.111H476.603Z" fill="#3B3B7F"/>
<path d="M644.025 536.064L642.057 533.991L643.038 535.03L641.666 534.68C641.683 534.557 641.683 534.341 641.683 534.032C641.683 532.56 641.531 529.5 641.321 525.05C641.093 520.331 640.79 514.065 640.504 506.479L643.365 506.374C643.645 513.948 643.955 520.203 644.177 524.91C644.393 529.436 644.545 532.542 644.545 534.032C644.545 534.925 644.545 535.573 644.019 536.07L644.025 536.064ZM639.768 477.812C639.704 472.994 639.668 467.936 639.668 462.663C639.668 458.295 639.698 453.781 639.75 449.126L642.612 449.161C642.553 453.798 642.53 458.307 642.53 462.663C642.53 467.925 642.571 472.97 642.629 477.777L639.768 477.817V477.812ZM643.342 420.558L640.48 420.447C640.854 410.881 641.362 401.24 642.004 391.797L644.854 391.995C644.218 401.409 643.71 411.022 643.342 420.564V420.558ZM647.231 363.485L644.375 363.205C645.327 353.599 646.437 344.004 647.675 334.701L650.513 335.081C649.275 344.354 648.171 353.914 647.225 363.485H647.231ZM654.834 306.816L652.014 306.331C653.661 296.754 655.5 287.276 657.486 278.16L660.283 278.767C658.315 287.842 656.481 297.274 654.834 306.816ZM666.993 250.993L664.231 250.251C666.759 240.849 669.522 231.581 672.442 222.717L675.163 223.61C672.261 232.428 669.516 241.638 666.999 250.993H666.993ZM684.968 196.782L682.317 195.707C685.99 186.609 689.943 177.785 694.066 169.481L696.63 170.748C692.548 178.994 688.624 187.748 684.968 196.776V196.782ZM710.406 145.8L707.965 144.3L709.735 141.444L712.164 142.951L710.4 145.795L710.406 145.8Z" fill="#3B3B7F"/>
<path d="M692.04 534.265C691.771 533.856 685.394 524.081 679.14 508.371L681.803 507.314C687.946 522.755 694.37 532.601 694.434 532.694L692.04 534.265ZM670.713 480.772C668.634 471.008 667.565 461.349 667.524 452.064L670.386 452.052C670.421 461.139 671.472 470.6 673.504 480.171L670.707 480.767L670.713 480.772ZM673.697 424.044L670.923 423.35C673.265 413.965 676.868 404.925 681.616 396.48L684.11 397.882C679.49 406.105 675.986 414.905 673.697 424.044ZM700.841 375.177L698.75 373.221C705.028 366.511 712.328 360.116 720.462 354.212L722.138 356.53C714.155 362.329 706.99 368.601 700.841 375.177Z" fill="#3B3B7F"/>
<path d="M346.678 155.039C362.458 151.36 366.674 137.683 366.674 137.683C366.674 137.683 359.835 140.696 321.953 131.896C269.534 119.714 265.931 149.777 265.931 149.777C233.316 126.371 202.014 214.745 237.001 266.562C273.097 320.037 327.74 287.34 352.203 269.196C376.666 251.046 353.254 237.106 353.517 224.217C353.785 211.329 370.879 207.387 372.455 179.502C374.038 151.623 346.684 155.039 346.684 155.039H346.678Z" fill="black"/>
<path d="M354.031 153.836C364.688 148.417 367.836 138.577 367.982 138.086C368.14 137.584 367.982 137.041 367.597 136.684C367.217 136.328 366.645 136.217 366.148 136.398C366.125 136.41 357.704 138.775 322.268 130.547C313.87 128.596 306.173 127.609 299.399 127.609C273.476 127.609 266.684 142.057 265.043 147.541C261.762 145.543 258.386 144.527 254.993 144.527C246.181 144.527 237.701 151.342 231.12 163.729C216.999 190.3 214.914 236.312 235.856 267.333C249.235 287.153 266.445 297.204 287.025 297.204C307.604 297.204 328.96 288.152 353.015 270.3C370.733 257.16 364.385 245.515 359.286 236.16C356.986 231.938 354.813 227.943 354.889 224.241C354.983 219.411 357.727 215.89 361.196 211.434C366.394 204.753 372.864 196.437 373.822 179.578C374.283 171.396 372.374 164.978 368.14 160.493C364.017 156.137 358.486 154.443 354.019 153.836H354.031ZM359.024 209.741C355.391 214.407 352.255 218.442 352.133 224.188C352.045 228.615 354.393 232.925 356.869 237.48C361.932 246.771 367.159 256.372 351.379 268.08C328.137 285.325 305.881 294.441 287.025 294.441C268.168 294.441 250.975 284.8 238.139 265.785C217.776 235.629 219.82 190.872 233.561 165.019C239.64 153.585 247.25 147.284 254.999 147.284C258.38 147.284 261.797 148.498 265.125 150.893C265.517 151.173 266.03 151.231 266.486 151.033C266.941 150.834 267.239 150.42 267.298 149.935C267.333 149.736 269.996 130.36 299.405 130.36C305.969 130.36 313.45 131.329 321.643 133.227C348.459 139.453 359.835 139.815 364.431 139.447C362.545 143.289 357.453 151.103 346.369 153.684C345.651 153.854 345.201 154.543 345.329 155.267C345.452 155.991 346.135 156.47 346.854 156.394C346.894 156.394 347.881 156.271 349.435 156.271C353.523 156.271 361.132 157.065 366.142 162.374C369.839 166.286 371.498 172.015 371.083 179.409C370.184 195.41 363.999 203.346 359.03 209.723L359.024 209.741Z" fill="black"/>
<path d="M235.956 251.139C232.744 247.822 226.986 239.822 229.409 226.863C230.542 220.796 235.436 219.522 239.349 219.522C239.687 219.522 240.003 219.534 240.289 219.546L235.962 251.139H235.956Z" fill="#F8A17A"/>
<path d="M238.595 221.012L234.951 247.594C232.113 243.647 229.041 236.849 230.852 227.132C231.576 223.272 234.175 221.216 238.589 221.012H238.595ZM239.343 218.045C235.699 218.045 229.345 219.149 227.955 226.594C224.51 245.013 237.036 254.094 237.036 254.094L241.947 218.243C241.947 218.243 240.884 218.045 239.343 218.045Z" fill="black"/>
<path d="M175.618 628.041C174.304 612.42 163.343 464.561 208.111 372.707C217.531 353.383 230.262 336.979 239.08 332.809C245.305 329.866 256.792 328.178 270.603 328.178C291.463 328.178 312.696 331.997 326.023 338.147C349.697 349.073 345.791 370.943 337.469 405.708C334.859 416.622 329.13 429.207 322.496 443.783C309.426 472.498 293.168 508.226 292.245 550.932C291.124 603.199 293.191 622.546 294.027 628.047H175.618V628.041Z" fill="white"/>
<path d="M270.603 329.65C291.264 329.65 312.264 333.416 325.404 339.484C348.027 349.931 344.185 371.323 336.032 405.363C333.451 416.138 327.752 428.67 321.147 443.176C308.025 472.013 291.697 507.893 290.774 550.897C289.746 598.725 291.393 619.141 292.333 626.57H176.967C175.28 605.318 165.907 462.669 209.425 373.361C218.565 354.615 231.289 338.123 239.705 334.146C245.731 331.291 256.996 329.656 270.597 329.656L270.603 329.65ZM270.603 326.701C257.037 326.701 245.06 328.348 238.443 331.478C229.292 335.805 216.316 352.501 206.78 372.064C158.975 470.15 174.258 629.519 174.258 629.519H295.779C295.779 629.519 292.351 614.808 293.717 550.961C295.095 487.109 331.022 438.942 338.9 406.052C346.597 373.898 352.174 348.594 326.636 336.804C311.733 329.924 289.6 326.701 270.597 326.701H270.603Z" fill="black"/>
<path d="M339.933 233.538C342.841 234.005 349.207 235.862 348.932 243.074C348.448 256.109 341.06 262.714 337.212 265.283L339.933 233.532V233.538Z" fill="#F8A17A"/>
<path d="M341.259 235.296C343.986 236.026 347.648 237.941 347.455 243.022C347.087 252.955 342.596 258.9 338.964 262.112L341.259 235.296ZM338.59 231.909L335.501 267.964C335.501 267.964 349.709 261.855 350.41 243.133C350.813 232.37 338.584 231.909 338.584 231.909H338.59Z" fill="black"/>
<path d="M276.986 336.64C275.771 336.64 274.609 336.587 273.499 336.47C266.725 335.758 260.617 332.873 254.824 327.658C255.291 324.014 257.165 308.708 256.85 300.357L306.751 306.717C306.646 310.139 306.64 319.395 308.971 330.21C304.468 331.699 288.625 336.64 276.986 336.64Z" fill="#F8A17A"/>
<path d="M258.357 302.039L305.245 308.013C305.192 312.043 305.403 320.002 307.254 329.212C301.636 331.01 287.527 335.162 276.98 335.162C275.789 335.162 274.673 335.11 273.651 334.999C267.426 334.339 261.762 331.746 256.383 327.068C256.932 322.694 258.392 310.191 258.357 302.039ZM255.268 298.669C256.062 307.114 253.259 328.225 253.259 328.225C260.745 335.198 267.794 337.352 273.342 337.936C274.492 338.059 275.713 338.117 276.974 338.117C291.037 338.117 310.693 331.186 310.693 331.186C307.476 317.252 308.282 305.426 308.282 305.426L255.262 298.669H255.268Z" fill="black"/>
<path d="M287.322 319.979C266.468 318.817 251.834 312.539 241.322 300.264C233.754 291.411 235.255 274.101 236.458 260.191C236.644 258.071 236.82 256.021 236.954 254.094C238.046 238.765 242.461 209.916 245.392 196.257C249.696 176.15 262.929 171.928 273.266 171.928C278.16 171.928 281.751 172.921 281.78 172.932L282.166 173.037L282.551 172.938C287.34 171.706 292.117 171.081 296.759 171.081C320.942 171.081 336.301 187.859 337.41 196.478C338.812 207.305 338.555 239.67 335.81 253.709C335.226 256.675 334.742 260.051 334.216 263.666C332.044 278.633 329.352 297.262 317.14 308.323C314.186 311.003 309.741 311.167 305.035 311.342C298.395 311.587 290.902 311.867 287.317 319.985L287.322 319.979Z" fill="#F8A17A"/>
<path d="M296.765 172.553C320.101 172.553 334.894 188.478 335.951 196.665C337.34 207.416 337.083 239.512 334.356 253.417C333.766 256.436 333.276 259.835 332.75 263.444C330.619 278.177 327.968 296.514 316.148 307.225C313.59 309.543 309.409 309.695 304.982 309.858C298.488 310.104 290.523 310.396 286.423 318.443C266.515 317.17 252.511 311.056 242.449 299.3C235.284 290.92 236.75 273.955 237.929 260.325C238.116 258.194 238.291 256.132 238.426 254.187C239.523 238.864 243.921 210.132 246.835 196.554C250.94 177.411 263.473 173.394 273.266 173.394C277.932 173.394 281.354 174.334 281.383 174.34L282.148 174.556L282.919 174.357C287.591 173.154 292.245 172.541 296.765 172.541V172.553ZM296.765 169.604C292.187 169.604 287.317 170.187 282.183 171.513C282.183 171.513 278.44 170.456 273.266 170.456C263.502 170.456 248.604 174.217 243.95 195.947C240.872 210.284 236.545 239.115 235.482 253.989C234.419 268.857 231.05 290.517 240.201 301.227C252.546 315.652 269.324 320.615 288.298 321.509C293.513 307.499 310.074 316.726 318.127 309.415C333.761 295.253 334.269 269.231 337.253 253.989C340.009 239.915 340.342 207.586 338.876 196.286C337.644 186.755 321.55 169.604 296.765 169.604Z" fill="black"/>
<path d="M295.557 251.933C289.95 247.898 281.588 245.667 272.939 247.022C266.463 248.038 261.674 251.624 253.253 251.624C246.444 251.624 240.761 249.866 236.171 246.963C235.856 249.673 235.611 252.067 235.476 253.989C234.414 268.857 231.044 290.517 240.195 301.227C252.54 315.651 269.318 320.615 288.292 321.509C293.507 307.499 310.068 316.726 318.122 309.42C332.406 296.473 334.07 273.651 336.523 258.176C332.143 260.67 326.835 262.159 320.563 262.159C309.122 262.159 302.664 257.055 295.551 251.939L295.557 251.933ZM290.815 276.875C285.804 277.004 280.659 276.431 275.865 274.907C271.029 273.371 266.48 271.018 262.194 268.326C259.25 266.474 257.82 262.311 259.811 259.227C261.715 256.278 265.762 254.859 268.909 256.839C270.807 258.03 272.74 259.169 274.738 260.173C275.211 260.413 275.684 260.64 276.162 260.862C276.308 260.932 276.454 260.997 276.6 261.061C277.535 261.394 278.452 261.785 279.404 262.083C280.373 262.386 281.342 262.655 282.341 262.883C282.832 262.994 283.34 263.099 283.842 263.192C284 263.222 284.449 263.292 284.776 263.344C285.086 263.379 285.442 263.42 285.576 263.432C286.125 263.479 286.668 263.514 287.2 263.543C288.409 263.601 289.617 263.601 290.826 263.572C294.307 263.484 297.636 266.69 297.478 270.223C297.314 273.903 294.558 276.782 290.826 276.875H290.815Z" fill="black"/>
<path d="M288.969 267.858C288.847 267.858 276.601 267.263 267.888 257.212C267.385 256.64 266.509 256.576 265.937 257.078C265.365 257.574 265.306 258.445 265.809 259.023C275.287 269.966 288.315 270.591 288.858 270.615C288.882 270.615 288.899 270.615 288.899 270.615C289.653 270.615 290.272 270.031 290.295 269.289C290.324 268.53 289.728 267.887 288.969 267.858Z" fill="black"/>
<path d="M332.359 215.394L300.654 211.662C298.862 211.446 297.18 212.065 295.942 213.309C294.861 214.389 294.272 215.832 294.277 217.362L294.301 225.175C294.324 231.173 298.832 236.23 304.795 236.931L322.49 239.01C322.951 239.068 323.418 239.092 323.885 239.092C329.381 239.092 334.128 235.354 335.425 230.005L337.258 222.407C337.638 220.819 337.334 219.137 336.4 217.794C335.466 216.457 333.994 215.575 332.371 215.382L332.359 215.394ZM334.566 221.765L332.727 229.363C331.652 233.818 327.424 236.826 322.799 236.277L305.11 234.198C300.538 233.661 297.069 229.777 297.057 225.17L297.028 217.362C297.028 216.567 297.337 215.82 297.892 215.259C298.453 214.699 299.189 214.389 299.977 214.389C300.088 214.389 300.211 214.389 300.327 214.413L332.032 218.138C332.879 218.238 333.62 218.681 334.111 219.388C334.596 220.089 334.759 220.941 334.56 221.771L334.566 221.765Z" fill="black"/>
<path d="M282.137 209.489L250.438 205.764C248.669 205.553 246.963 206.161 245.72 207.405C244.645 208.491 244.055 209.927 244.055 211.457L244.09 219.265C244.108 225.274 248.616 230.326 254.584 231.027L272.267 233.106C272.735 233.164 273.202 233.187 273.663 233.187C279.152 233.187 283.9 229.45 285.197 224.101L287.03 216.503C287.41 214.915 287.106 213.233 286.172 211.895C285.238 210.558 283.772 209.676 282.142 209.484L282.137 209.489ZM284.35 215.861L282.505 223.458C281.436 227.908 277.225 230.933 272.583 230.373L254.894 228.294C250.315 227.756 246.847 223.879 246.835 219.265L246.806 211.452C246.806 210.663 247.115 209.916 247.676 209.355C248.242 208.794 248.978 208.479 249.761 208.479C249.877 208.479 249.994 208.491 250.111 208.502L281.815 212.228C282.674 212.328 283.404 212.771 283.894 213.478C284.379 214.185 284.543 215.031 284.35 215.861Z" fill="black"/>
<path d="M284.887 215.061C284.268 215.499 284.128 216.363 284.56 216.982C284.998 217.601 285.857 217.741 286.487 217.315C290.75 214.278 294.482 218.138 294.651 218.302C294.92 218.588 295.276 218.734 295.65 218.734C295.989 218.734 296.327 218.605 296.596 218.36C297.151 217.84 297.174 216.97 296.654 216.415C294.774 214.401 289.898 211.516 284.881 215.061H284.887Z" fill="black"/>
<path d="M280.7 195.427C280.367 195.305 272.513 192.455 258.83 197.016C258.1 197.261 257.715 198.038 257.966 198.762C258.159 199.34 258.69 199.702 259.268 199.702C259.414 199.702 259.56 199.679 259.706 199.632C272.39 195.41 279.661 197.979 279.737 198.003C280.455 198.271 281.243 197.904 281.506 197.191C281.775 196.479 281.419 195.69 280.706 195.422L280.7 195.427Z" fill="black"/>
<path d="M325.988 198.867C313.677 191.328 305.402 192.326 305.046 192.379C304.299 192.478 303.767 193.167 303.861 193.92C303.966 194.674 304.69 195.199 305.402 195.118C305.467 195.106 313.158 194.253 324.545 201.226C324.773 201.366 325.013 201.43 325.27 201.43C325.731 201.43 326.181 201.197 326.437 200.771C326.835 200.122 326.636 199.27 325.982 198.873L325.988 198.867Z" fill="black"/>
<path d="M313.631 221.853C311.85 221.853 310.407 223.295 310.407 225.076C310.407 226.857 311.85 228.306 313.631 228.306C315.412 228.306 316.86 226.857 316.86 225.076C316.86 223.295 315.418 221.853 313.631 221.853Z" fill="black"/>
<path d="M265.896 216.275C264.115 216.275 262.667 217.718 262.667 219.499C262.667 221.28 264.115 222.723 265.896 222.723C267.678 222.723 269.12 221.28 269.12 219.499C269.12 217.718 267.672 216.275 265.896 216.275Z" fill="black"/>
<path d="M380.485 354.043C354.93 342.246 325.346 335.285 325.346 335.285C325.346 335.285 317.976 355.83 308.439 375.399C260.634 473.479 257.639 629.519 257.639 629.519H379.159C379.159 629.519 375.72 614.808 377.098 550.961C378.476 487.109 414.409 438.942 422.281 406.052C429.983 373.898 406.028 365.833 380.485 354.043Z" fill="#3B3B7F"/>
<path d="M126.716 611.438C116.52 611.438 108.578 607.094 106.785 602.901C106.148 601.4 106.359 600.121 107.445 598.994C107.912 598.509 109.623 597.376 115.469 597.376C119.726 597.376 123.878 597.989 123.919 597.989L124.409 595.081C124.334 595.069 116.666 593.586 102.604 587.956C90.6378 583.174 91.9167 572.423 92.3138 570.238L121.017 540.128C121.297 540.123 121.571 540.117 121.846 540.117C138.939 540.117 158.532 556.065 162.579 569.123C164.167 574.262 161.364 582.911 155.255 591.706C148.721 601.119 138.028 610.854 128.859 611.38C128.129 611.421 127.423 611.444 126.722 611.444H126.716V611.438Z" fill="#F8A17A"/>
<path d="M121.846 541.588C138.361 541.588 157.27 556.97 161.159 569.555C162.596 574.198 159.804 582.56 154.046 590.859C146.437 601.82 136.282 609.476 128.772 609.902C128.071 609.943 127.388 609.961 126.716 609.961C116.269 609.961 109.465 605.406 108.145 602.322C107.649 601.149 108.029 600.518 108.513 600.01C108.525 599.998 109.687 598.848 115.474 598.848C119.609 598.848 123.668 599.438 123.709 599.443L124.69 593.627C124.614 593.615 117.051 592.138 103.158 586.584C92.9327 582.496 93.3532 573.538 93.7152 570.922L121.67 541.588H121.851H121.846ZM121.846 538.633C121.355 538.633 120.859 538.645 120.362 538.674L90.9588 569.526C90.9588 569.526 87.6535 583.565 102.06 589.323C116.461 595.087 124.141 596.529 124.141 596.529C124.141 596.529 119.895 595.899 115.48 595.899C111.772 595.899 107.941 596.342 106.382 597.966C101.091 603.49 111.165 612.91 126.722 612.91C127.452 612.91 128.194 612.887 128.947 612.846C145.754 611.882 168.155 582.146 163.986 568.679C159.945 555.604 140.171 538.633 121.851 538.633H121.846Z" fill="black"/>
<path d="M0.832675 501.066C-1.19374 543.002 87.151 608.653 87.151 608.653C87.151 608.653 102.229 557.461 128.117 538.814C128.117 538.814 105.552 515.385 88.2898 501.959C88.2898 501.959 138.687 477.981 147.552 469.934L210.406 330.006C210.406 330.006 154.963 338.006 110.131 371.264C73.1004 398.735 2.75982 461.011 0.832675 501.066Z" fill="#3B3B7F"/>
<path d="M150.203 372.158C131.738 425.44 121.542 629.507 121.542 629.507H201.074C201.074 629.507 203.264 606.58 203.264 541.396C203.264 405.994 242.42 329.124 242.42 329.124C242.42 329.124 168.418 319.605 150.203 372.164V372.158Z" fill="#3B3B7F"/>
<path d="M291.772 238.624C291.977 239.097 292.596 241.059 291.924 241.994C291.41 242.7 290.091 242.747 289.069 242.66L288.835 245.41C289.162 245.439 289.471 245.451 289.781 245.451C291.802 245.451 293.279 244.832 294.161 243.606C295.837 241.281 294.47 237.906 294.307 237.526L291.772 238.618V238.624Z" fill="black"/>
<path d="M441.365 264.139L396.241 348.29C395.067 350.656 397.333 353.248 399.832 352.402C413.492 347.753 425.639 339.496 434.988 328.499L467.942 289.717L441.371 264.139H441.365Z" fill="black"/>
<path d="M468.596 289.022L442.025 263.456C441.815 263.315 441.517 263.152 441.219 263.199C440.922 263.245 440.67 263.426 440.53 263.689L395.394 347.87C394.6 349.453 394.956 351.31 396.265 352.507C397.327 353.47 398.776 353.774 400.136 353.307C413.953 348.606 426.252 340.237 435.707 329.118L468.667 290.325C468.988 289.939 468.964 289.373 468.596 289.022ZM399.517 351.502C398.811 351.748 398.092 351.596 397.543 351.094C397.024 350.621 396.597 349.715 397.076 348.746L441.611 265.686L466.64 289.77L434.264 327.875C425.031 338.742 413.025 346.907 399.523 351.497L399.517 351.502Z" fill="#000100"/>
<path d="M436.448 228.878C431.706 227.763 426.112 233.865 423.881 242.485C421.65 251.099 423.583 259.152 428.261 260.495L542.867 335.607L573.462 217.549L436.454 228.878H436.448Z" fill="#888BA0"/>
<path d="M436.448 228.878C431.718 227.768 426.112 233.865 423.887 242.479C421.644 251.098 423.577 259.146 428.255 260.483L529.196 339.414L560.609 209.612L436.448 228.872V228.878Z" fill="#19998C"/>
<path d="M561.531 209.846C561.602 209.531 561.526 209.209 561.309 208.976C561.111 208.76 560.778 208.631 560.463 208.678L436.483 227.909C431.239 226.857 425.335 233.1 422.97 242.234C421.031 249.703 422.059 256.845 425.528 260.004C426.217 260.629 426.982 261.079 427.817 261.342L528.607 340.162C528.869 340.36 529.208 340.418 529.506 340.313C529.815 340.202 530.043 339.951 530.119 339.636L561.531 209.834V209.846ZM428.845 259.741C428.746 259.665 428.635 259.607 428.518 259.578C427.899 259.397 427.327 259.07 426.807 258.597C423.887 255.946 423.063 249.417 424.81 242.718C426.859 234.747 432.098 228.837 436.232 229.801C436.349 229.83 436.472 229.836 436.6 229.818L559.347 210.78L528.618 337.761L428.845 259.741Z" fill="#000100"/>
<path d="M585.597 214.471C559.75 207.773 531.199 231.675 521.821 267.859C512.442 304.048 525.792 338.807 551.639 345.511C577.474 352.209 606.031 328.307 615.415 292.123C624.794 255.934 611.444 221.175 585.603 214.477L585.597 214.471Z" fill="#19998C"/>
<path d="M601.61 222.197C596.956 217.963 591.648 215.061 585.837 213.554C573.03 210.231 559.213 214.068 546.92 224.358C534.727 234.566 525.482 249.931 520.898 267.625C513.774 295.113 519.689 323.302 535.626 337.785C540.28 342.013 545.583 344.921 551.4 346.434C577.714 353.243 606.837 328.99 616.332 292.357C623.457 264.869 617.535 236.668 601.61 222.197ZM551.873 344.582C546.366 343.157 541.326 340.395 536.905 336.377C521.482 322.362 515.788 294.92 522.738 268.104C527.223 250.789 536.245 235.775 548.135 225.818C559.937 215.937 573.159 212.234 585.352 215.4C590.865 216.825 595.899 219.587 600.326 223.61C615.748 237.626 621.442 265.061 614.487 291.884C605.26 327.501 577.171 351.146 551.873 344.588V344.582Z" fill="#000100"/>
<path d="M524.542 243.01L512.559 293.834L559.137 293.046L566.676 263.975L524.542 243.01Z" fill="black"/>
<path d="M567.599 264.215C567.71 263.777 567.505 263.321 567.102 263.129L524.968 242.158C524.705 242.029 524.402 242.023 524.139 242.146C523.876 242.269 523.683 242.508 523.619 242.794L511.63 293.624C511.566 293.916 511.63 294.214 511.823 294.442C511.852 294.477 511.881 294.512 511.922 294.547C512.097 294.71 512.337 294.798 512.576 294.798L559.16 294.004C559.587 293.992 559.96 293.7 560.071 293.291L567.605 264.221L567.599 264.215ZM513.762 292.865L525.184 244.394L565.561 264.483L558.395 292.106L513.762 292.859V292.865Z" fill="#000100"/>
<path d="M566.676 263.975C560.947 262.486 554.605 267.789 552.526 275.818C550.447 283.842 553.408 291.557 559.143 293.046C564.878 294.529 571.214 289.227 573.299 281.197C575.378 273.173 572.417 265.458 566.682 263.975H566.676Z" fill="#19998C"/>
<path d="M570.723 265.137C569.608 264.121 568.317 263.42 566.916 263.058C563.838 262.258 560.533 263.163 557.619 265.604C554.798 267.969 552.661 271.514 551.61 275.59C549.934 282.043 551.306 288.438 555.096 291.884C556.217 292.905 557.502 293.606 558.904 293.968C565.135 295.586 572.002 289.962 574.216 281.448C575.88 274.989 574.519 268.588 570.723 265.143V265.137ZM559.377 292.129C558.273 291.837 557.263 291.282 556.369 290.47C553.145 287.545 551.972 281.751 553.449 276.058C554.407 272.367 556.322 269.172 558.845 267.058C561.28 265.026 563.972 264.255 566.443 264.892C567.546 265.184 568.563 265.733 569.45 266.545C572.674 269.476 573.853 275.269 572.37 280.963C570.431 288.467 564.603 293.478 559.382 292.123L559.377 292.129Z" fill="#000100"/>
<path d="M587.425 207.405C556.626 199.422 524.244 225.058 513.692 265.756C503.145 306.442 519 344.576 549.805 352.565C580.604 360.548 612.986 334.911 623.539 294.219C634.085 253.527 618.23 215.388 587.425 207.405ZM551.639 345.51C525.792 338.806 512.442 304.054 521.821 267.858C531.199 231.687 559.75 207.767 585.597 214.471C611.444 221.169 624.788 255.939 615.415 292.117C606.031 328.306 577.48 352.203 551.639 345.51Z" fill="white"/>
<path d="M607.508 217.286C601.733 212.036 595.058 208.403 587.665 206.482C556.351 198.371 523.45 224.299 512.775 265.505C504.903 295.878 511.554 326.169 529.728 342.684C535.503 347.934 542.178 351.567 549.571 353.482C580.879 361.594 613.786 335.671 624.461 294.459C632.327 264.086 625.676 233.795 607.508 217.286ZM550.05 351.648C542.961 349.809 536.549 346.328 531.007 341.289C513.359 325.241 506.923 295.685 514.62 265.996C525.032 225.818 556.912 200.485 587.192 208.339C594.281 210.173 600.687 213.659 606.235 218.699C623.883 234.741 630.313 264.296 622.622 293.992C612.209 334.17 580.336 359.503 550.05 351.654V351.648Z" fill="#000100"/>
<path d="M601.61 222.191C596.956 217.963 591.647 215.055 585.831 213.548C573.036 210.225 559.213 214.068 546.92 224.358C534.721 234.571 525.482 249.936 520.898 267.625C513.767 295.113 519.689 323.308 535.62 337.784C540.274 342.018 545.583 344.927 551.399 346.433C577.708 353.248 606.837 328.99 616.332 292.356C623.457 264.868 617.535 236.668 601.604 222.191H601.61ZM551.878 344.582C546.371 343.157 541.331 340.395 536.905 336.377C521.482 322.361 515.788 294.926 522.743 268.104C527.228 250.794 536.245 235.78 548.141 225.818C559.949 215.937 573.164 212.234 585.352 215.393C590.865 216.824 595.905 219.581 600.325 223.598C615.748 237.614 621.442 265.055 614.487 291.878C605.254 327.5 577.17 351.14 551.872 344.582H551.878Z" fill="#000100"/>
<path d="M453.635 294.728C449.039 292.853 443.199 288.871 435.707 286.482C428.209 284.1 425.37 287.855 419.069 288.876C412.762 289.904 410.158 294.693 412.33 297.052C414.497 299.412 421.738 299.26 421.738 299.26C421.738 299.26 412.535 303.178 407.425 305.905C402.321 308.633 399.249 312.551 398.741 313.573C398.227 314.595 397.03 319.536 397.03 319.536C397.03 319.536 384.825 337.651 390.285 342.492C396.119 347.66 401.544 334.147 401.544 334.147C405.252 334.678 408.698 330.433 408.698 330.433C413.025 340.658 408.231 343.006 390.53 357.559C372.83 372.111 388.177 373.688 386.594 385.496C385.023 397.293 381.881 424.436 381.881 424.436C403.933 459.849 433.622 451.434 433.622 451.434C433.622 451.434 416.313 395.406 431.339 372.176C446.376 348.945 466.016 352.069 461.758 331.805C457.501 311.529 458.231 296.608 453.629 294.74L453.635 294.728Z" fill="#F8A17A"/>
<path d="M459.603 311.307C458.289 301.21 457.507 295.113 454.055 293.706C452.397 293.028 450.499 292.03 448.49 290.979C444.91 289.092 440.846 286.955 436.04 285.425C434.282 284.87 432.67 284.596 431.111 284.596C428.436 284.596 426.386 285.378 424.202 286.202C422.585 286.815 420.915 287.451 418.888 287.778C414.917 288.421 411.728 290.652 410.753 293.461C410.193 295.078 410.473 296.655 411.512 297.788C412.71 299.078 414.946 299.727 417.148 300.048C414.041 301.432 409.842 303.353 406.911 304.918C401.713 307.692 398.449 311.675 397.76 313.065C397.252 314.081 396.3 317.906 396.014 319.068C394.291 321.655 383.692 338.106 389.555 343.303C390.653 344.273 391.826 344.763 393.041 344.763C397.654 344.763 401.176 337.738 402.262 335.279C404.75 335.256 406.981 333.639 408.306 332.424C410.841 339.618 407.541 342.299 394.822 352.635C393.292 353.879 391.628 355.228 389.835 356.706C377.793 366.604 380.369 371.259 383.096 376.176C384.532 378.769 386.027 381.455 385.508 385.338C383.954 397.006 380.812 424.027 380.783 424.302C380.754 424.547 380.812 424.792 380.941 425.008C396.323 449.711 415.542 453.407 425.627 453.407C430.644 453.407 433.791 452.52 433.926 452.49C434.206 452.409 434.451 452.216 434.591 451.953C434.732 451.69 434.761 451.387 434.679 451.106C434.504 450.546 417.697 395.301 432.273 372.765C438.516 363.112 445.652 358.037 451.387 353.961C459.551 348.162 465.449 343.963 462.844 331.565C461.238 323.921 460.333 316.925 459.597 311.313L459.603 311.307ZM450.114 352.157C444.227 356.344 436.898 361.553 430.422 371.562C416.301 393.386 429.779 442.271 432.226 450.604C430.953 450.85 428.641 451.194 425.627 451.194C416.044 451.194 397.806 447.673 383.026 424.167C383.411 420.821 386.238 396.522 387.698 385.63C388.311 381.023 386.565 377.875 385.029 375.107C382.465 370.482 380.614 367.142 391.237 358.405C393.029 356.939 394.682 355.585 396.218 354.341C409.825 343.286 413.936 339.945 409.725 329.989C409.568 329.632 409.247 329.375 408.855 329.329C408.493 329.27 408.09 329.428 407.851 329.72C407.039 330.719 404.347 333.405 401.707 333.031C401.217 332.949 400.715 333.241 400.522 333.709C399.605 335.998 396.247 342.544 393.041 342.544C392.369 342.544 391.704 342.246 391.02 341.639C387.569 338.585 393.444 326.823 397.952 320.125C398.028 320.02 398.081 319.892 398.11 319.763C398.595 317.76 399.412 314.659 399.728 314.034C400.025 313.444 402.794 309.602 407.944 306.851C412.949 304.177 422.077 300.287 422.17 300.246C422.649 300.042 422.795 299.528 422.696 299.008C422.585 298.494 422.012 298.127 421.487 298.127C418.187 298.127 414.321 297.554 413.136 296.275C412.488 295.563 412.669 294.646 412.838 294.161C413.375 292.602 415.378 290.564 419.244 289.933C421.481 289.571 423.268 288.894 424.979 288.246C427.046 287.463 428.839 286.78 431.111 286.78C432.436 286.78 433.832 287.019 435.374 287.51C439.987 288.981 443.964 291.066 447.468 292.906C449.524 293.986 451.463 295.014 453.226 295.726C455.486 296.649 456.333 303.231 457.419 311.57C458.155 317.223 459.066 324.26 460.69 331.992C462.996 342.971 458.155 346.422 450.119 352.133L450.114 352.157Z" fill="black"/>
<path d="M444.916 304.971L445.138 303.949L444.128 303.674C444.075 303.663 438.831 302.179 432.343 296.316L431.911 295.931L431.344 296.059C431.274 296.077 423.823 297.811 420.716 298.325C420.114 298.424 419.712 298.997 419.805 299.598C419.904 300.2 420.459 300.614 421.078 300.509C423.782 300.054 429.476 298.763 431.292 298.343C436.408 302.863 440.712 304.79 442.574 305.485C441.599 311.319 443.52 314.566 443.614 314.706C443.824 315.044 444.18 315.231 444.554 315.231C444.747 315.231 444.945 315.185 445.126 315.068C445.64 314.758 445.804 314.081 445.5 313.561C445.483 313.532 443.737 310.483 444.916 304.971Z" fill="black"/>
<path d="M421.563 321.439C418.397 318.169 411.933 313.158 407.827 313.421C404.347 313.701 397.251 318.087 396.451 318.583C395.937 318.911 395.78 319.594 396.107 320.108C396.422 320.622 397.111 320.779 397.631 320.458C399.669 319.173 405.509 315.821 408.003 315.617C410.706 315.348 416.371 319.243 419.974 322.969C423.805 326.934 427.332 332.903 427.367 332.961C427.572 333.312 427.94 333.51 428.319 333.51C428.506 333.51 428.705 333.463 428.88 333.358C429.405 333.049 429.587 332.365 429.271 331.84C429.125 331.589 425.586 325.585 421.568 321.427L421.563 321.439Z" fill="black"/>
<path d="M426.235 297.461C425.697 297.198 425.032 297.414 424.757 297.963C424.483 298.512 424.711 299.172 425.254 299.441C436.466 305 446.814 319.559 446.919 319.705C447.135 320.009 447.48 320.172 447.825 320.172C448.046 320.172 448.268 320.108 448.461 319.974C448.957 319.617 449.08 318.928 448.73 318.432C448.298 317.813 437.955 303.272 426.235 297.461Z" fill="black"/>
<path d="M421.387 306.886C412.534 303.785 398.209 316.09 397.59 316.615C397.135 317.012 397.088 317.707 397.485 318.169C397.888 318.63 398.583 318.677 399.038 318.28C399.173 318.157 413.019 306.279 420.652 308.965C428.635 311.768 439.281 323.489 439.386 323.6C439.602 323.845 439.9 323.962 440.203 323.962C440.466 323.962 440.729 323.874 440.945 323.681C441.395 323.273 441.436 322.572 441.021 322.122C440.571 321.62 429.89 309.87 421.376 306.88L421.387 306.886Z" fill="black"/>
<path d="M438.749 413.551C438.749 413.551 401.695 405.416 377.285 389.146C377.285 389.146 341.078 540.654 381.104 586.106C430.369 642.063 454.627 573.258 451.965 534.885C449.237 495.734 438.743 413.551 438.743 413.551H438.749Z" fill="#3B3B7F"/>
<path d="M439.841 413.41C439.777 412.949 439.438 412.575 438.983 412.47C438.615 412.394 401.842 404.184 377.892 388.229C377.595 388.031 377.215 387.99 376.876 388.118C376.543 388.252 376.286 388.539 376.205 388.889C374.721 395.097 340.325 541.478 380.269 586.836C392.807 601.079 404.639 608.297 415.425 608.303H415.437C422.509 608.303 428.979 605.219 434.655 599.128C448.484 584.313 454.458 554.927 453.057 534.797C450.365 496.061 439.94 414.222 439.835 413.399L439.841 413.41ZM433.05 597.628C427.805 603.251 421.878 606.101 415.442 606.101H415.431C405.305 606.101 394.034 599.123 381.928 585.376C344.88 543.3 374.365 406.981 378.003 390.933C400.335 405.293 432.419 413.206 437.751 414.45C438.819 422.871 448.315 498.298 450.855 534.96C452.227 554.623 446.446 583.262 433.044 597.628H433.05Z" fill="black"/>
<path d="M294.681 360.186C290.564 350.497 283.112 342.684 279.305 339.104C295.031 336.277 307.038 330.005 310.121 328.289L323.413 335.88C319.488 342.228 299.545 358.504 294.681 360.192V360.186Z" fill="white"/>
<path d="M310.104 329.976L321.287 336.365C316.557 342.433 300.964 355.31 295.446 358.265C291.831 350.468 286.248 343.975 282.347 340.015C295.884 337.171 306.314 332.015 310.104 329.976ZM310.121 326.589C310.121 326.589 295.422 335.326 276.017 338.146C276.017 338.146 288.438 348.354 293.735 361.757C293.816 361.792 293.927 361.803 294.044 361.803C298.383 361.803 323.284 341.154 325.351 335.285L310.121 326.589Z" fill="black"/>
<path d="M243.968 354.265C242.992 349.569 241.439 339.391 243.728 329.971C244.686 329.294 247.705 327.466 252.593 327.302C254.164 329.177 259.402 335.058 265.744 337.972C260.833 341.038 250.205 347.964 243.968 354.265Z" fill="white"/>
<path d="M251.945 328.815C253.732 330.876 257.79 335.174 262.801 338.094C257.954 341.201 250.432 346.299 244.919 351.316C244.084 346.293 243.343 338.363 245.03 330.864C246.099 330.199 248.406 329.054 251.945 328.809V328.815ZM253.282 325.819C246.128 325.819 242.414 329.118 242.414 329.118C238.969 342.515 243.162 357.319 243.162 357.319C250.315 348.787 269.102 337.65 269.102 337.65C260.716 335.314 253.282 325.819 253.282 325.819Z" fill="black"/>
<path d="M301.379 451.136C298.558 450.925 296.106 453.039 295.896 455.854C295.691 458.669 297.799 461.122 300.608 461.332C303.429 461.548 305.882 459.434 306.092 456.619C306.302 453.804 304.188 451.346 301.379 451.13V451.136Z" fill="#FBE55F"/>
<path d="M287.883 526.481C285.063 526.271 282.616 528.379 282.406 531.193C282.195 534.014 284.309 536.461 287.118 536.677C289.933 536.887 292.386 534.773 292.602 531.959C292.812 529.144 290.698 526.691 287.883 526.475V526.481Z" fill="#FBE55F"/>
<path d="M278.341 602.282C275.52 602.071 273.068 604.185 272.857 607C272.653 609.821 274.761 612.273 277.576 612.484C280.391 612.694 282.844 610.586 283.054 607.765C283.27 604.95 281.15 602.492 278.341 602.282Z" fill="#FBE55F"/>
<path d="M128.847 505.458C126.009 486.087 139.33 414.45 139.896 411.413L142.793 411.956C142.659 412.698 128.993 486.145 131.761 505.031L128.842 505.463L128.847 505.458Z" fill="black"/>
<path d="M504.004 459.802C505.166 455.982 508.693 453.372 512.681 453.372H745.498C751.594 453.372 755.957 459.253 754.181 465.087L706.698 621.103C705.536 624.923 702.014 627.533 698.02 627.533H465.204C459.101 627.533 454.745 621.646 456.526 615.812L504.004 459.796V459.802Z" fill="#7CC0EA"/>
<path d="M655.144 595.309C658.227 584.774 658.379 574.385 655.564 565.211C655.191 564.008 654.782 562.84 654.326 561.707C647.365 544.456 630.056 534.155 608.022 534.155C596.617 534.155 584.476 537.004 572.908 542.4C549.577 553.274 530.919 573.515 524.087 595.309H495.004C499.069 582.374 505.937 569.853 515.432 558.074C533.337 535.871 558.115 519.327 585.218 511.502L609.278 507.105C611.783 506.924 614.347 506.824 616.881 506.824C630.85 506.824 643.505 509.686 654.49 515.339C667.886 522.218 677.808 532.905 683.169 546.237C689.038 560.848 689.348 577.796 684.08 595.309H655.138H655.144Z" fill="white"/>
<path d="M616.887 507.543C630.74 507.543 643.278 510.381 654.169 515.975C667.414 522.779 677.219 533.337 682.521 546.547C688.268 560.819 688.612 577.416 683.549 594.597H656.09C658.958 584.237 659.016 574.041 656.242 565.001C655.868 563.786 655.448 562.6 654.981 561.444C647.909 543.913 630.354 533.442 608.023 533.442C596.518 533.442 584.272 536.315 572.604 541.752C549.28 552.626 530.575 572.803 523.555 594.597H495.98C500.05 582.082 506.772 569.959 515.987 558.53C533.793 536.444 558.448 519.987 585.271 512.226L609.249 507.835C611.813 507.642 614.376 507.548 616.882 507.548L616.887 507.543ZM616.887 506.112C614.324 506.112 611.743 506.211 609.15 506.404L585.02 510.819C558.98 518.34 533.436 534.604 514.877 557.631C504.862 570.058 497.942 583.145 494.041 596.027H524.618C531.054 574.905 548.947 554.36 573.217 543.049C585.107 537.507 597.05 534.873 608.028 534.873C629.087 534.873 646.635 544.549 653.667 561.976C654.116 563.091 654.519 564.241 654.887 565.421C657.854 575.08 657.398 585.627 654.186 596.027H684.624C690.095 578.199 689.786 560.755 683.859 546.015C683.859 546.004 683.847 545.992 683.847 545.974C678.579 532.876 668.856 521.909 654.835 514.708C643.494 508.88 630.512 506.118 616.899 506.118L616.887 506.112Z" fill="black"/>
<path d="M487.39 566.326L504.88 571.442L532.158 579.413C532.958 578.105 533.805 576.797 534.698 575.494C546.045 558.95 562.893 546.576 580.71 539.936L573.328 496.254C537.18 509.68 506.013 535.789 487.401 566.326H487.39Z" fill="#FBE55F"/>
<path d="M532.479 580.26L486.297 566.752L486.782 565.958C505.966 534.482 537.419 508.833 573.071 495.588L573.883 495.285L581.51 540.403L580.955 540.613C562.355 547.551 546.138 560.083 535.288 575.909C534.429 577.147 533.588 578.455 532.765 579.793L532.479 580.26ZM488.493 565.9L531.83 578.578C532.572 577.381 533.337 576.207 534.108 575.097C545.011 559.19 561.263 546.564 579.898 539.48L572.762 497.235C538.038 510.34 507.408 535.305 488.493 565.906V565.9Z" fill="black"/>
<path d="M575.897 511.414L580.698 539.942C592.815 535.416 605.155 534.038 616.811 535.462L630.401 504.511C626.283 503.968 622.003 503.694 617.559 503.694C603.59 503.694 589.458 506.444 575.903 511.414H575.897Z" fill="black"/>
<path d="M655.126 566.238C655.868 568.971 658.695 581.422 654.233 596.021H704.619C709.513 579.594 713.822 560.866 705.594 537.833L655.126 566.233V566.238Z" fill="#FBE55F"/>
<path d="M705.145 596.74H653.264L653.55 595.817C658.017 581.182 655.068 568.767 654.432 566.431L654.286 565.894L705.974 536.8L706.266 537.6C714.564 560.836 710.12 580.05 705.296 596.232L705.139 596.74H705.145ZM655.185 595.309H704.076C708.923 578.946 712.894 561.105 705.203 538.879L655.962 566.589C656.791 569.917 659.127 581.591 655.191 595.303L655.185 595.309Z" fill="black"/>
<path d="M320.376 619.982H709.115C709.115 625.25 704.84 629.519 699.573 629.519H333.422C327.033 629.519 321.696 625.425 320.376 619.982Z" fill="black"/>
<path d="M698.02 629.519H465.204C461.659 629.519 458.418 627.889 456.31 625.045C454.207 622.201 453.594 618.627 454.622 615.235L502.1 459.218C503.53 454.529 507.782 451.381 512.681 451.381H745.497C749.036 451.381 752.283 453.01 754.386 455.854C756.494 458.698 757.113 462.272 756.085 465.659L708.601 621.676C707.171 626.365 702.919 629.513 698.02 629.513V629.519ZM505.907 460.38L458.429 616.397C457.764 618.569 458.161 620.858 459.51 622.68C460.859 624.502 462.938 625.548 465.209 625.548H698.026C701.162 625.548 703.895 623.527 704.806 620.525L752.289 464.509C752.949 462.336 752.552 460.047 751.203 458.225C749.848 456.403 747.775 455.358 745.503 455.358H512.687C509.551 455.358 506.818 457.378 505.907 460.38Z" fill="black"/>
<path d="M743.167 628.099H82.4854V634.686H743.167V628.099Z" fill="black"/>
<path d="M752.379 166.445C790.819 160.274 816.978 124.11 810.807 85.6704C804.636 47.2306 768.472 21.0715 730.032 27.2423C691.593 33.4131 665.434 69.5771 671.604 108.017C677.775 146.457 713.939 172.616 752.379 166.445Z" fill="#3B3B7F"/>
<path d="M739.5 77.2875C739.342 81.7725 739.447 86.3101 739.447 91.1688H756.961C756.213 96.9327 755.571 102.276 754.719 107.561C754.666 108.093 753.329 108.735 752.581 108.788C748.365 108.893 744.148 108.84 739.553 108.84V167.25C733.094 167.145 726.898 166.129 720.976 164.365V108.945H705.652V91.3265H720.655C720.707 89.9891 720.812 88.9204 720.812 87.9102C720.918 83.2675 720.76 78.619 721.186 74.0289C722.15 63.9377 728.34 56.8365 738.326 55.4466C744.522 54.594 750.981 55.2889 757.492 55.2889V71.3076C755.197 71.3076 752.85 71.255 750.555 71.3076C748.528 71.3601 746.391 71.255 744.417 71.7339C741.585 72.3762 739.611 74.2975 739.506 77.2875H739.5Z" fill="white"/>
<path d="M865.873 347.658C877.095 314.713 859.485 278.909 826.54 267.687C793.595 256.465 757.791 274.075 746.569 307.02C735.348 339.965 752.958 375.769 785.902 386.991C818.847 398.212 854.651 380.602 865.873 347.658Z" fill="#FFBE37"/>
<path d="M843.764 306.541C843.723 296.31 837.335 289.699 827.197 289.6C813.169 289.46 799.136 289.448 785.109 289.6C775.187 289.705 768.758 296.275 768.606 306.179C768.507 313.181 768.588 320.189 768.588 327.191C768.588 334.193 768.547 340.903 768.6 347.753C768.688 358.206 775.065 364.893 785.419 364.998C799.3 365.149 813.181 365.155 827.057 364.998C837.206 364.881 843.706 358.206 843.758 348.103C843.834 334.251 843.829 320.393 843.77 306.541H843.764ZM837.054 348.226C836.984 354.69 833.498 358.27 827.027 358.317C813.152 358.405 799.271 358.405 785.395 358.317C778.896 358.282 775.38 354.708 775.345 348.272C775.281 334.274 775.281 320.27 775.345 306.272C775.368 299.86 778.96 296.175 785.36 296.129C799.236 296.035 813.117 296.035 826.992 296.129C833.416 296.17 836.984 299.837 837.054 306.232C837.13 313.234 837.072 320.23 837.072 327.232C837.072 334.234 837.136 341.224 837.054 348.22V348.226Z" fill="white"/>
<path d="M806.226 307.581C795.521 307.557 786.744 316.247 786.639 327.004C786.534 337.883 794.955 346.655 805.718 346.865C816.743 347.075 825.637 338.485 825.743 327.512C825.854 316.527 817.129 307.61 806.226 307.581ZM805.981 340.295C798.99 340.155 793.174 334.304 793.104 327.366C793.034 320.206 798.938 314.32 806.191 314.32C813.444 314.32 819.348 320.206 819.284 327.354C819.225 334.45 813.076 340.435 805.975 340.295H805.981Z" fill="white"/>
<path d="M831.711 307.114C831.501 309.87 829.737 311.307 827.027 311.178C824.055 311.038 822.537 309.21 822.753 306.284C822.957 303.54 824.744 302.267 827.489 302.109C830.28 302.582 831.927 304.17 831.705 307.114H831.711Z" fill="white"/>
<path d="M390.799 109.932C421.122 109.932 445.705 85.3498 445.705 55.0261C445.705 24.7024 421.122 0.120117 390.799 0.120117C360.475 0.120117 335.893 24.7024 335.893 55.0261C335.893 85.3498 360.475 109.932 390.799 109.932Z" fill="#FD6B56"/>
<path d="M370.324 76.1078V33.9443L420.593 55.0261L370.324 76.1078Z" fill="white"/>
</g>
<defs>
<clipPath id="clip0_705_6368">
<rect width="868.405" height="634.566" fill="white" transform="translate(0.797852 0.120117)"/>
</clipPath>
</defs>
</svg>
