<svg width="115" height="132" viewBox="0 0 115 132" fill="none" xmlns="http://www.w3.org/2000/svg">
<g clip-path="url(#clip0_816_21)">
<path d="M9.63689 118.223L0.019165 0.682617L114.88 0.918864L104.711 118.223L57.8834 131.782L9.63689 118.223Z" fill="#1B73BA"/>
<path d="M57.8834 120.43V11.8767L105.184 12.034L96.7489 109.157L57.8834 120.43V120.43Z" fill="#1C88C7"/>
<path d="M93.4378 25.7522H20.6737L22.6447 39.9412H57.1736L23.1967 54.5259L25.1671 68.2425H75.2273L73.4136 87.3985L56.4643 90.7101L41.0925 86.7686L39.9097 75.8892H25.7985L27.6901 98.5152L57.9623 106.95L86.9739 97.727L90.6791 53.501H60.0112L93.4367 39.6266L93.4378 25.7522Z" fill="white"/>
</g>
<defs>
<clipPath id="clip0_816_21">
<rect width="114.861" height="131.099" fill="white" transform="translate(0.019165 0.682617)"/>
</clipPath>
</defs>
</svg>
