<svg width="126" height="127" viewBox="0 0 126 127" fill="none" xmlns="http://www.w3.org/2000/svg">
<circle cx="63" cy="63.3521" r="63" fill="white"/>
<g clip-path="url(#clip0_740_2084)">
<path d="M49.569 63.9288C47.5103 63.7649 45.5336 63.3149 43.5676 62.6434C46.6089 61.5082 48.5734 59.4154 49.44 56.2291C49.0393 56.2291 48.6865 56.1988 48.3412 56.2352C47.6105 56.3134 47.1932 55.9203 46.9435 55.3155C46.64 54.5825 46.3721 53.8336 46.1118 53.0839C46.039 52.8752 45.9616 52.7879 45.7241 52.7766C43.8392 52.6878 42.597 51.3758 42.5948 49.4863C42.5925 47.2501 42.5917 45.0139 42.5948 42.7777C42.5978 40.8018 43.8749 39.4981 45.8501 39.4769C46.1483 39.4739 46.2355 39.3517 46.3008 39.1028C47.2296 35.5569 48.9293 32.4017 51.3628 29.6852C53.1498 27.6903 55.2548 26.0513 57.9425 25.4351C59.0397 25.1832 60.1908 25.1248 61.3214 25.0739C63.4067 24.9798 65.4896 25.0838 67.5551 25.3964C69.0188 25.618 70.2602 26.3275 71.4022 27.2396C75.257 30.318 77.6943 34.3139 79.0343 39.0178C79.1284 39.3479 79.24 39.4807 79.611 39.4792C81.3973 39.4716 82.7464 40.8169 82.7578 42.6146C82.773 44.9388 82.7692 47.2638 82.7586 49.5888C82.751 51.3568 81.4906 52.6756 79.7158 52.7682C79.4229 52.7834 79.3136 52.8782 79.2271 53.1506C78.9987 53.8708 78.7339 54.5802 78.4683 55.2882C78.2088 55.9787 77.7254 56.3475 76.9575 56.2921C76.6699 56.2716 76.3793 56.2891 76.0272 56.2891C76.8057 59.4708 78.7414 61.5158 81.8981 62.5834C79.885 63.3339 77.9204 63.7239 75.8921 63.8309C75.8921 63.8643 75.8921 63.8969 75.8921 63.9303C76.8459 64.3203 77.8096 64.6876 78.7513 65.1049C80.791 66.0094 82.8352 66.9056 84.8476 67.8693C87.3448 69.0659 89.0453 71.0624 90.3869 73.4458C91.4067 75.2571 91.8362 77.1973 92.0001 79.2249C92.2589 82.421 92.507 85.6186 92.7385 88.817C92.8492 90.3407 92.9206 91.8682 92.9927 93.3941C93.0427 94.4466 92.9297 94.6135 91.9364 94.9914C89.7252 95.8337 87.4404 96.4104 85.117 96.8391C81.8989 97.4325 78.6542 97.8097 75.3928 98.0646C70.352 98.4592 65.3006 98.5927 60.2477 98.5776C58.0654 98.5715 55.883 98.3719 53.7022 98.2437C51.9501 98.1405 50.1988 98.0191 48.4482 97.8962C43.5744 97.5532 38.765 96.8551 34.1264 95.2441C33.7334 95.1075 33.3494 94.9474 32.9617 94.7957C32.5352 94.6287 32.3258 94.3191 32.3523 93.8563C32.4199 92.6589 32.4631 91.4592 32.5565 90.2633C32.7302 88.0354 32.8736 85.803 33.1377 83.585C33.4572 80.9056 33.8495 78.2331 34.2865 75.5704C34.6371 73.4336 35.8664 71.7438 37.3112 70.2064C38.5215 68.918 39.9776 67.974 41.603 67.2888C44.1253 66.2265 46.6491 65.1687 49.1721 64.1079C49.3057 64.0517 49.4354 63.9872 49.5667 63.9265L49.569 63.9288ZM73.0428 41.8467C72.7666 41.5317 72.5329 41.2707 72.3045 41.0051C71.1936 39.7114 70.113 38.3796 68.7259 37.3659C67.1567 36.2193 65.5488 35.1266 63.9507 34.0203C63.8688 33.9634 63.7087 33.9664 63.6062 34.0021C60.53 35.0599 57.3567 35.3634 54.1272 35.2389C53.2052 35.2033 52.5762 35.6563 52.3614 36.5585C51.6322 39.6188 51.2695 42.7208 51.3856 45.8683C51.4804 48.4301 51.8864 50.9387 52.8212 53.3403C54.2448 56.9993 56.7003 59.6726 60.3486 61.21C62.3549 62.0553 64.2702 61.987 66.108 60.7478C68.3791 59.2158 70.2625 57.3051 71.7672 55.0188C71.8052 54.9612 71.831 54.8944 71.8917 54.7745C71.7756 54.8177 71.7194 54.8337 71.6671 54.8587C70.2382 55.5394 68.7585 56.0683 67.1992 56.3665C67.0808 56.3892 66.9518 56.522 66.8888 56.6366C66.498 57.3552 65.9084 57.7399 65.0874 57.7513C64.6329 57.7581 64.1776 57.7627 63.7231 57.7475C62.6274 57.7103 61.7828 56.8385 61.7911 55.7678C61.7995 54.6933 62.6562 53.829 63.7458 53.8055C64.2004 53.7956 64.6557 53.7994 65.1102 53.8055C65.7423 53.8138 66.2742 54.0612 66.6468 54.5673C66.8183 54.8003 66.9837 54.8094 67.2235 54.7578C69.0423 54.367 70.7094 53.6067 72.3439 52.7401C73.08 52.3501 73.5474 51.8364 73.8054 51.0396C74.3578 49.3346 74.9557 47.6462 74.9535 45.8213C74.9519 44.7476 74.9686 43.6739 74.9451 42.6001C74.9368 42.2283 74.8776 41.8451 74.766 41.4915C74.307 40.0346 73.4518 38.8236 72.328 37.8098C71.746 37.2854 71.1048 36.8271 70.4894 36.3392C70.4575 36.3711 70.4264 36.4029 70.3945 36.4356C70.4681 36.5448 70.5342 36.6594 70.6153 36.7626C71.0213 37.2786 71.4629 37.7703 71.8302 38.3121C72.2316 38.9025 72.6103 39.5179 72.9145 40.1621C73.149 40.6576 73.1938 41.2191 73.0413 41.8474L73.0428 41.8467ZM78.4485 71.3978C78.4243 71.3074 78.4197 71.2574 78.3992 71.2156C77.1108 68.6182 75.6288 66.1437 73.7432 63.9288C73.6438 63.8119 73.4472 63.7421 73.2856 63.7201C71.5282 63.4818 69.9036 62.912 68.4899 61.817C68.3055 61.6744 68.1796 61.6888 67.9914 61.7935C67.143 62.267 66.2924 62.7367 65.4319 63.1867C63.5956 64.1481 61.7524 64.1466 59.926 63.1624C58.9706 62.6479 58.0244 62.116 57.0911 61.5628C56.8133 61.3981 56.6419 61.4285 56.4036 61.6235C55.3655 62.4719 54.203 63.1062 52.9047 63.4431C52.4107 63.5714 52.0541 63.8089 51.7248 64.1807C50.1745 65.9328 48.6652 67.7145 47.565 69.7967C47.3024 70.2929 47.096 70.818 46.8312 71.4015C47.0672 71.4015 47.203 71.4015 47.3381 71.4015C48.5636 71.4015 49.7883 71.4144 51.0138 71.3932C51.356 71.3871 51.6026 71.4903 51.8553 71.7127C55.0878 74.5582 58.3287 77.3939 61.5673 80.2326C61.9361 80.5558 62.3071 80.8753 62.6972 81.2145C62.8315 81.0999 62.9453 81.0043 63.0568 80.9064C66.5876 77.8067 70.1161 74.7054 73.6536 71.614C73.7894 71.4956 74.005 71.416 74.1856 71.4107C74.9929 71.3879 75.8018 71.3993 76.6099 71.3985C77.2124 71.3985 77.8157 71.3985 78.447 71.3985L78.4485 71.3978Z" fill="#909090"/>
</g>
<defs>
<clipPath id="clip0_740_2084">
<rect width="60.6525" height="73.5393" fill="white" transform="translate(32.3516 25.0413)"/>
</clipPath>
</defs>
</svg>
