<svg width="68" height="68" viewBox="0 0 68 68" fill="none" xmlns="http://www.w3.org/2000/svg">
<g clip-path="url(#clip0_705_8524)">
<path d="M67.6525 22.0493V37.9884C67.5008 37.9812 67.3498 37.9682 67.1981 37.9675C57.2374 37.9662 47.2767 37.9668 37.3166 37.9668H36.8687V22.0754H31.5291V37.9453H0.792358V22.029H20.4065C20.2522 21.9139 20.1659 21.8492 20.0783 21.7851C17.9914 20.2539 16.2496 18.405 14.9191 16.1781C13.8547 14.3971 13.1297 12.4978 13.0676 10.4063C12.9786 7.40926 14.1084 4.90649 16.332 2.91826C18.1803 1.26544 20.349 0.393919 22.857 0.501797C24.5242 0.573716 26.0502 1.12422 27.45 2.00817C30.111 3.68779 32.1358 5.97285 33.7082 8.6783C33.8697 8.95616 34.0273 9.23599 34.2077 9.55113C34.4804 9.08169 34.721 8.64757 34.9805 8.22521C36.5549 5.66752 38.532 3.49361 41.1145 1.92317C42.9923 0.781626 45.0315 0.225891 47.2276 0.58483C50.1416 1.06146 52.3829 2.61882 53.9324 5.11178C55.7807 8.08529 55.7676 11.2079 54.4228 14.3546C53.1949 17.2301 51.2387 19.5498 48.7765 21.455C48.5431 21.6361 48.3077 21.8146 48.0017 22.0486H67.6512L67.6525 22.0493ZM30.7105 19.8407C30.6837 19.6237 30.6824 19.5053 30.653 19.3942C30.3392 18.2101 30.0796 17.0071 29.6912 15.8473C28.8171 13.2379 27.5062 10.8764 25.5069 8.94113C24.855 8.3102 24.1698 7.72178 23.3114 7.38572C22.6295 7.11831 21.9554 7.10655 21.3094 7.50864C19.8796 8.39847 19.4036 9.67339 19.958 11.2634C20.5425 12.9385 21.6252 14.2821 22.9113 15.4648C24.3895 16.8241 26.1005 17.8388 27.9148 18.6763C28.8073 19.0875 29.7292 19.4347 30.7099 19.8407H30.7105ZM37.6664 19.7904C37.8625 19.7342 37.9566 19.7119 38.0482 19.6805C39.7585 19.0895 41.3878 18.3252 42.9315 17.3811C44.8112 16.2324 46.4516 14.828 47.6382 12.9437C48.1691 12.1003 48.583 11.2209 48.6836 10.2023C48.8425 8.59592 47.0472 6.98951 45.786 7.20789C45.1675 7.31511 44.6281 7.5714 44.1273 7.92511C42.9668 8.74433 42.0292 9.78846 41.2028 10.93C39.7566 12.9267 38.8445 15.1745 38.1959 17.5361C37.9985 18.2546 37.8533 18.9869 37.6664 19.791V19.7904Z" fill="#F5AF02"/>
<path d="M4.0993 67.3845C4.10061 61.8997 4.10257 56.4143 4.10388 50.9295C4.10388 48.5026 4.10388 46.0757 4.10388 43.6487C4.10388 43.5428 4.10388 43.4369 4.10388 43.3101H31.5324V67.3845H4.0993Z" fill="#F5AF02"/>
<path d="M36.8883 67.3844V43.3093H64.3168V43.714C64.3168 51.4629 64.3168 59.2112 64.3168 66.9601C64.3168 67.1013 64.32 67.2432 64.3213 67.3844H36.8883Z" fill="#F5AF02"/>
</g>
<defs>
<clipPath id="clip0_705_8524">
<rect width="66.8602" height="66.9072" fill="white" transform="translate(0.792358 0.477295)"/>
</clipPath>
</defs>
</svg>
