<svg width="1184" height="497" viewBox="0 0 1184 497" fill="none" xmlns="http://www.w3.org/2000/svg">
<g clip-path="url(#clip0_494_25906)">
<path d="M1101.51 387.484L1092.64 387.726C1090.02 366.801 1088.35 345.88 1087.64 324.96C1086.48 290.634 1091.33 256.809 1094.33 222.725C1096.82 194.457 1097.47 165.828 1096.28 136.844C1096.27 136.629 1096.44 136.451 1096.65 136.451C1096.82 136.451 1096.98 136.548 1097.04 136.704C1112.31 180.573 1118.4 227.47 1118.74 273.232C1118.94 298.902 1115.76 324.137 1109.22 348.93C1105.5 363.024 1103.51 374.353 1101.51 387.484Z" fill="#1D8693"/>
<path d="M1085.08 371.615C1084.55 372.266 1084.06 372.664 1083.6 372.81C1083.2 372.933 1082.92 372.799 1082.77 372.401C1079.52 364.052 1075.75 356.15 1071.47 348.694C1064.12 320.91 1057.22 293.184 1050.78 265.518C1043.42 233.942 1032.47 205.721 1014.62 178.572C1004.05 162.482 993.333 149.469 978.305 138.453C978.251 138.426 978.235 138.361 978.262 138.307C978.289 138.253 978.353 138.237 978.407 138.264C999.893 147.215 1018.31 164.268 1032.02 182.757C1062.17 223.425 1079.34 268.875 1083.53 319.108C1084.88 335.16 1084.68 354.154 1085.08 371.599L1085.08 371.615Z" fill="#1D8693"/>
<path d="M1168.79 267.363C1159.5 283.405 1151.46 301.42 1144.67 321.41C1137.04 343.885 1126.7 367.635 1111.46 384.596C1109.03 387.372 1107.1 388.367 1105.68 387.581C1106.73 355.736 1115.92 327.44 1133.22 302.7C1143.37 288.214 1155.23 274.158 1168.82 260.537L1183.63 246.18C1183.73 246.088 1183.8 246.104 1183.85 246.239C1183.9 246.357 1183.88 246.454 1183.8 246.54C1177.83 253.302 1172.83 260.247 1168.78 267.363H1168.79Z" fill="#095E81"/>
<path d="M1071.47 348.705C1075.75 356.155 1079.52 364.057 1082.77 372.411C1082.92 372.804 1083.2 372.944 1083.6 372.82C1084.06 372.675 1084.55 372.277 1085.08 371.626L1088.21 387.866C1084.9 388.447 1082.34 388.345 1080.53 387.565C1079.12 385.311 1077.34 383.235 1076.29 381.341C1059.73 351.045 1048.67 315.546 1020.99 292.711C1019.52 291.495 1019.57 291.431 1021.14 292.512C1041.74 306.665 1058.52 325.401 1071.47 348.71V348.705Z" fill="#095E81"/>
<path d="M1133.51 387.84L1124.92 479.676L1087.21 479.213H1087.11L1069.36 479.224C1067.18 475.927 1065.95 472.505 1065.66 468.928C1063.46 442.112 1061.2 415.307 1058.87 388.507C1058.82 388.065 1059.03 387.834 1059.48 387.834L1080.53 387.565C1082.34 388.345 1084.9 388.447 1088.21 387.866C1087.69 388.308 1087.61 388.91 1087.97 389.69L1089.26 387.845H1133.52L1133.51 387.84Z" fill="#605093"/>
<path d="M285.978 27.4226C275.99 29.4291 266.184 30.2414 256.55 29.8595C241.259 29.2462 252.526 49.9514 246.326 51.9041C245.681 52.1031 244.999 51.7427 244.794 51.1025L242.903 45.0561C242.575 44.0072 241.463 43.4154 240.41 43.7328C236.482 44.9163 235.36 47.7458 237.036 52.2161C237.648 54.1688 238.487 56.1215 239.55 58.0796C239.798 58.5261 239.9 58.8004 239.851 58.8919C239.432 59.7149 238.428 60.0377 237.605 59.6181C237.256 59.4405 236.977 59.1393 236.826 58.7735C229.455 41.1991 230.067 19.3052 243.365 4.68945C250.162 -2.78786 260.758 0.859346 268.366 4.23758C273.862 6.67443 279.643 8.06769 285.71 8.41734C290.094 8.65941 293.398 10.9456 293.71 15.3137C294.091 20.7253 291.512 24.7598 285.978 27.4226Z" fill="#312553"/>
<path d="M631.905 44.1736C630.938 43.3398 629.729 43.1892 628.278 43.7325C627.924 43.867 627.655 44.1521 627.537 44.5125C625.823 49.7574 623.142 54.4267 622.202 59.9513C619.8 74.0076 604.487 87.429 590.028 79.3492C581.045 73.4642 581.689 62.3451 580.926 52.3234C585.16 51.5595 585.622 60.7958 586.122 63.5393C586.197 63.9589 586.445 64.1257 586.864 64.0396C596.949 61.9255 603.724 60.9303 612.106 67.6169C612.482 67.9181 612.831 67.8858 613.137 67.5147C616.146 63.8459 618.489 59.7738 620.165 55.3035C620.208 55.1959 620.283 55.0991 620.375 55.0238L623.658 52.3072C624.007 52.0221 624.093 51.6725 623.91 51.2636C621.535 45.9058 621.003 40.3059 622.309 34.4531C622.459 33.7969 622.051 33.1406 621.396 32.9953C621.127 32.9362 620.842 32.9631 620.595 33.0868C607.942 39.0794 597.018 37.0298 587.831 26.9436C587.218 26.2658 586.165 26.212 585.488 26.8252C585.262 27.0296 585.101 27.2878 585.01 27.5783C583.898 31.3062 582.818 34.7167 581.775 37.8045C581.604 38.3101 581.362 38.6813 581.045 38.918C580.518 39.3107 580.045 39.4183 579.621 39.23C579.567 28.24 580.174 19.5685 581.442 13.2154C582.345 8.65374 586.95 5.67895 591.495 4.30184C603.192 0.751462 625.017 -0.0500622 631.438 13.1455C635.215 20.9133 633.119 35.1794 631.91 44.1736H631.905ZM602.381 72.0279C602.504 69.6341 600.194 67.5685 597.228 67.4178C594.262 67.2672 591.758 69.0854 591.635 71.4792C591.511 73.8731 593.822 75.9387 596.787 76.0894C599.753 76.24 602.257 74.4218 602.381 72.0279Z" fill="#312553"/>
<path d="M1005.22 124.434C1000.97 121.238 996.761 118.872 992.602 117.328L968.263 107.274C958.522 99.2853 953.622 89.3819 953.562 77.5581C953.562 77.1654 953.713 76.8426 954.014 76.5951C958.618 72.7435 961.412 69.7096 957.678 63.3243C956.969 62.1193 955.454 61.6728 954.213 62.3022C951.881 63.4964 949.398 65.3684 947.034 66.1C937.422 69.0587 924.968 64.2549 916.844 58.9132L911.336 55.5726C903.229 47.0141 902.213 38.3748 908.301 29.6603C911.186 25.5181 916.844 22.0915 921.588 21.4514C932.35 19.9989 943.15 19.1275 953.992 18.8531C961.326 18.6648 967.623 20.9296 972.878 25.6419C984.521 36.0993 993.484 51.2369 1002.6 64.6368C1005.71 69.2362 1009.87 73.4375 1013.65 77.5796C1022.48 87.2624 1025.26 98.9786 1022 112.728C1020.12 120.652 1014.53 124.552 1005.22 124.428V124.434Z" fill="#312553"/>
<path d="M789.397 22.2531C813.479 27.939 813.21 61.7806 821.71 79.484C824.004 83.4701 826.755 87.1012 829.963 90.3826C840.988 101.69 849.51 112.277 853.201 127.984C858.176 149.136 852.271 173.246 849.214 194.489C848.451 199.723 849.365 204.823 849.386 210.17C846.834 210.052 844.701 209.552 842.987 208.659C842.632 208.481 842.471 208.191 842.498 207.787C844.121 189.874 845.244 167.426 841.816 149.023C840.053 130.195 831.731 113.202 815.332 103.799C809.895 100.689 802.486 98.8067 796.086 96.7034C785.991 91.9426 782.992 84.7182 787.087 75.0192C789.612 69.0266 797.43 67.6495 793.824 58.9403C793.384 57.8859 792.336 57.2135 791.192 57.2565C773.348 57.8967 762.285 57.5255 749.739 43.6037C749.492 43.324 749.078 43.2541 748.756 43.4424C747.88 43.948 747.166 44.6366 746.612 45.508C746.016 44.9432 745.715 44.5128 745.71 44.217C745.591 36.0188 747.724 23.6678 755.993 20.4886C764.235 17.3202 780.435 20.3004 789.397 22.2423V22.2531Z" fill="#312553"/>
<path d="M148.608 51.8446C141.628 55.1852 133.456 57.9771 124.086 60.2149C121.104 60.9196 118.68 62.8669 116.816 66.0677C116.596 66.455 116.107 66.6002 115.704 66.4066L112.862 64.9918C112.566 64.8519 112.26 64.8196 111.932 64.9003C105.082 66.5733 106.924 74.5832 110.879 78.2519C111.164 78.5209 111.314 78.8544 111.33 79.2525C111.722 90.6298 110.368 102.588 103.308 112.153C97.5862 116.402 93.6855 118.85 91.5954 119.501C53.2164 131.572 61.8991 176.694 58.6431 206.485C56.5584 225.592 54.3662 248.993 52.0827 276.68C51.7603 280.564 51.7388 283.636 52.0236 285.884L51.4541 309.693C44.7594 310.027 38.3118 310.07 32.1007 309.833C26.3731 309.602 21.0646 306.224 19.7859 300.791C13.3329 273.447 6.91764 246.093 0.550684 218.728C0.335766 217.782 0.190696 215.474 0.120848 211.8C0.346512 207.566 1.2223 203.65 2.7536 200.051C5.20904 193.456 9.50203 189.927 16.7018 189.965C29.6775 190.03 42.68 190.03 55.6933 189.965C56.1285 189.96 56.2736 189.75 56.1339 189.336C52.0773 177.442 50.3741 165.763 51.0296 154.3C51.1693 151.879 51.7872 146.446 52.8833 138.011L54.0868 129.802L56.0802 118.484L57.4127 111.927L61.8883 92.448L64.4297 82.905C68.6636 66.966 72.2098 47.8585 82.0047 34.6737C89.242 24.9317 99.225 22.7531 110.75 23.1942C125.058 23.759 135.976 24.4045 143.504 25.1307C153.417 26.0829 159.343 35.7066 154.728 44.7977C153.438 47.3367 151.391 49.6875 148.592 51.8554L148.608 51.8446Z" fill="#312553"/>
<path d="M580.927 52.3181C579.035 47.7618 578.595 43.3937 579.616 39.2247C580.04 39.413 580.518 39.3054 581.039 38.9127C581.356 38.6707 581.598 38.2995 581.77 37.7992C582.812 34.7114 583.892 31.3009 585.005 27.573C585.268 26.6962 586.192 26.1959 587.068 26.4595C587.358 26.5456 587.616 26.7123 587.82 26.9383C597.013 37.0246 607.931 39.0687 620.584 33.0815C621.191 32.791 621.917 33.0438 622.212 33.6517C622.331 33.8992 622.363 34.1843 622.304 34.4532C620.998 40.306 621.53 45.9059 623.905 51.2637C624.082 51.6726 623.996 52.0222 623.652 52.3073L620.369 55.0239C620.278 55.0992 620.208 55.196 620.16 55.3036C618.483 59.7793 616.141 63.846 613.132 67.5148C612.82 67.8859 612.477 67.9236 612.1 67.617C603.719 60.9304 596.949 61.931 586.858 64.0397C586.439 64.1258 586.192 63.959 586.117 63.5394C585.617 60.8013 585.155 51.5596 580.921 52.3235L580.927 52.3181Z" fill="#FFAD94"/>
<path d="M285.978 27.4224C287.939 41.7853 287.595 54.927 284.947 66.8423C283.571 73.0124 279.514 77.515 272.771 80.3553V84.9277C272.406 85.9283 272.245 86.6975 272.282 87.2355C273.115 101.001 260.199 107.075 249.802 98.2416C249.517 97.9995 249.19 97.8973 248.819 97.9296C247.916 97.9942 247.266 97.4778 246.868 96.3857C246.68 95.8693 246.122 95.751 245.187 96.0361L238.637 75.8474C240.227 69.9516 239.771 64.1472 240.759 58.784C240.829 58.4075 240.786 58.0417 240.63 57.692L238.288 52.2105C238.143 51.8716 237.89 51.7424 237.536 51.8285C237.305 51.8823 237.138 52.0114 237.036 52.2105C235.36 47.7348 236.482 44.9107 240.41 43.7272C241.463 43.4098 242.575 44.0016 242.903 45.0505L244.794 51.0969C244.999 51.7371 245.681 52.0975 246.326 51.8985C252.532 49.9457 241.259 29.2406 256.55 29.8538C266.184 30.2304 275.99 29.4181 285.978 27.417V27.4224Z" fill="#FFAD94"/>
<path d="M631.905 44.1739C632.974 48.1654 632.184 54.5507 627.73 56.385C627.569 56.4442 627.403 56.4765 627.231 56.4765H625.909C625.393 56.4765 625.108 56.7347 625.06 57.2565C624.619 62.3238 623.539 67.2298 621.815 71.9636C620.681 75.0837 618.43 76.9557 618.51 81.5281C614.937 92.7871 598.904 101.55 589.985 89.7801C589.066 88.5751 588.137 85.2076 587.202 79.6938L588.432 80.2747C588.782 80.4469 589.088 80.3877 589.346 80.1026L590.018 79.3495C604.476 87.4293 619.794 74.0078 622.191 59.9515C623.131 54.4269 625.807 49.7577 627.526 44.5128C627.644 44.1524 627.918 43.8673 628.268 43.7328C629.718 43.1895 630.933 43.3401 631.894 44.1739H631.905Z" fill="#FFAD94"/>
<path d="M796.087 96.7087C791.509 103.557 784.54 109.001 776.432 110.555C768.593 112.051 762.484 108.732 762.624 99.9202L762.355 90.2481C762.339 89.8393 762.129 89.608 761.716 89.5542C758.782 89.2045 755.596 89.1938 753.135 87.6983C742.733 81.3238 743.861 58.908 746.016 49.1229C746.419 47.3047 746.612 46.0997 746.607 45.5134C747.166 44.6366 747.88 43.948 748.751 43.4477C749.078 43.2594 749.487 43.3294 749.734 43.6091C762.28 57.5255 773.343 57.8967 791.186 57.2619C792.331 57.2189 793.379 57.8913 793.819 58.9457C797.424 67.6495 789.612 69.0319 787.081 75.0246C782.987 84.7235 785.985 91.948 796.081 96.7087H796.087Z" fill="#FFAD94"/>
<path d="M148.608 51.8447C152.449 63.0607 153.062 74.4596 150.44 86.0575C148.377 95.1916 142.757 99.6995 133.58 99.5812C132.784 99.565 132.075 100.103 131.866 100.883L128.943 111.658C128.534 114.165 128.422 117.053 127.449 119.248C121.963 131.717 107.644 118.958 103.308 112.142C110.369 102.577 111.728 90.6192 111.33 79.2418C111.314 78.8491 111.164 78.5156 110.879 78.2413C106.924 74.5725 105.082 66.5627 111.932 64.8897C112.254 64.8144 112.566 64.8413 112.862 64.9811L115.704 66.3959C116.112 66.5949 116.596 66.4443 116.816 66.057C118.68 62.8617 121.104 60.909 124.086 60.2043C133.456 57.9665 141.628 55.1799 148.608 51.834V51.8447Z" fill="#FFAD94"/>
<path d="M916.844 58.9131C924.973 64.2548 937.422 69.0586 947.034 66.0999C949.398 65.3683 951.881 63.5017 954.213 62.3021C955.454 61.6727 956.969 62.1192 957.678 63.3242C961.412 69.7095 958.618 72.738 954.014 76.595C953.713 76.8425 953.562 77.1652 953.562 77.5579C953.627 89.3818 958.527 99.2905 968.263 107.274C964.018 113.61 961.101 117.564 959.51 119.135C955.18 123.422 950.28 124.337 944.81 121.884C944.455 121.722 944.187 121.464 944.009 121.12L941.135 115.364C939.244 110.517 937.782 105.057 936.761 98.9839C936.691 98.5912 936.46 98.3545 936.068 98.29C932.323 97.6606 928.207 97.5584 925.263 95.2022C915.662 87.5044 914.861 69.6879 916.844 58.9131Z" fill="#FFAD94"/>
<path d="M602.381 72.0217C602.502 69.6273 600.196 67.5642 597.229 67.4138C594.263 67.2633 591.759 69.0824 591.638 71.4769C591.517 73.8714 593.824 75.9345 596.79 76.0849C599.757 76.2354 602.26 74.4162 602.381 72.0217Z" fill="#FFAD94"/>
<path d="M238.637 75.853L245.187 96.0418C253.101 126.139 258.753 156.172 262.138 186.135C263.036 194.07 263.487 202.989 263.492 212.903L259.866 226.809L239.088 226.959C242.839 225.862 246.374 224.399 249.7 222.57C256.217 218.982 254.697 209.939 250.108 205.84C246.482 202.601 241.125 203.005 236.509 203.355L216.662 182.262C216.377 181.966 215.931 181.896 215.571 182.09C214.846 182.461 214.625 183.123 214.921 184.075C215.039 184.43 215.27 184.801 215.63 185.188C221.272 191.219 227.134 197.566 233.205 204.237L182.791 208.207C182.366 208.239 182.049 208.067 181.84 207.696L175.102 195.555C173.291 176.963 173.194 158.27 174.812 139.475C176.193 123.326 180.308 107.785 192.252 96.5582C194.063 94.8529 198.609 92.6151 205.9 89.8394C217.145 86.133 228.063 81.4691 238.642 75.853H238.637ZM236.531 119.915L239.427 120.087C239.755 120.077 240.007 119.802 239.996 119.474C239.986 119.2 239.787 118.969 239.518 118.915C236.993 118.635 235.558 117.279 235.214 114.843C233.877 105.138 232.066 95.52 229.777 85.9824C229.686 85.5789 229.433 85.4121 229.025 85.4713L228.643 85.5197C228.267 85.5735 228.111 85.7887 228.181 86.1706L234.419 118.07C234.618 119.098 235.488 119.856 236.531 119.915ZM256.4 206.749C261.085 204.161 255.427 189.557 254.568 186.028C250.183 168.055 245.165 148.033 237.084 131.373C236.934 131.061 236.558 130.932 236.246 131.083C236.112 131.147 236.004 131.26 235.945 131.395C235.838 131.648 235.865 131.927 236.026 132.229C236.251 132.632 236.375 132.869 236.396 132.939C243.005 150.631 247.551 168.405 252.569 186.544C253.869 191.267 255.073 196.238 255.385 201.138C255.465 202.273 255.105 204.958 255.465 206.351C255.605 206.883 255.911 207.018 256.395 206.744L256.4 206.749Z" fill="#312553"/>
<path d="M587.207 79.6937C588.142 85.2129 589.072 88.575 589.991 89.78C598.904 101.55 614.943 92.787 618.516 81.528L620.036 77.2676C620.16 76.934 620.396 76.7619 620.745 76.7565C634.124 76.31 645.821 78.096 655.831 82.1197C667.877 86.9719 673.943 97.58 678.521 109.178C684.496 124.321 689.67 139.733 694.049 155.413C698.213 170.341 700.217 185.199 692.007 199.282C689.374 199.675 686.881 200.094 684.179 200.164C673.938 200.428 663.423 201.509 652.629 203.413L626.865 192.117C626.575 191.988 626.253 191.982 625.963 192.095C624.324 192.752 623.819 193.881 624.453 195.474C624.845 196.479 626.602 197.728 629.718 199.223C613.997 197.991 604.336 205.318 601.854 219.874H567.328C558.881 180.616 553.541 155.462 551.316 144.418C550.236 139.055 547.759 137.129 542.155 136.968C537.26 136.828 532.441 136.796 527.686 136.876C527.557 134.886 527.734 133.052 528.218 131.373C535.976 104.525 547.362 72.4046 582.769 76.5091C584.919 76.7565 586.396 77.8163 587.207 79.6883V79.6937ZM654.052 148.958C651.957 160.518 649.947 171.858 648.024 182.972C647.551 185.694 646.417 187.916 644.628 189.626C644.376 189.879 644.376 190.293 644.628 190.546C644.806 190.724 645.074 190.783 645.305 190.697C652.645 187.797 658.904 185.285 663.777 178.486C662.585 180.411 663.219 180.96 665.679 180.121C668.533 179.147 669.446 175.107 668.194 172.864C654.455 148.141 646.256 121.174 658.453 94.1372C658.786 93.3949 658.641 93.2819 658.012 93.7983C654.579 96.6171 652.575 109.178 652.113 113.299C651.672 117.145 651.78 122.987 652.435 130.83C652.951 137.038 653.488 143.079 654.047 148.964L654.052 148.958ZM558.07 99.0916C555.136 117.145 554.465 135.123 558.532 152.944C558.94 154.73 558.742 156.764 559.241 158.69C560.735 164.483 561.423 170.438 562.325 176.345C562.766 179.244 562.358 181.686 561.745 184.435C561.616 185.021 561.793 185.387 562.277 185.527C562.599 185.613 562.803 185.495 562.879 185.167C564.093 179.535 564.389 175.059 563.76 171.745C560.966 156.93 557.291 140.706 557.13 126.704C557.038 119.13 557.565 111.572 558.704 104.046C558.967 102.276 558.989 100.619 558.774 99.0916C558.736 98.898 558.553 98.7689 558.355 98.8011C558.21 98.828 558.091 98.941 558.065 99.0916H558.07ZM595.186 202.209C595.476 171.041 595.826 149.319 596.368 123.595C596.497 117.188 596.417 110.125 596.127 102.411C596.11 101.953 596.024 101.561 595.858 101.238C595.664 100.861 595.562 100.883 595.557 101.308C594.821 136.365 594.257 171.422 593.854 206.48C593.832 208.777 593.311 211.832 593.333 213.537C593.419 218.686 593.698 218.691 594.182 213.559C594.504 210.079 595.154 205.979 595.192 202.209H595.186Z" fill="#605093"/>
<path d="M272.771 80.3555C275.044 81.7971 277.736 83.2442 280.842 84.6966C292.678 90.2481 301.366 94.2288 306.917 96.6549L314.245 104.073C317.942 109.63 320.849 115.015 322.976 120.233L326.012 129.033L332.422 147.549L335.334 156.672C340.272 171.95 360.496 223.226 326.152 219.751C316.969 220.956 308.389 221.397 299.239 220.434L285.253 208.927C284.055 167.237 279.891 125.902 272.766 84.9279V80.3555H272.771ZM301.055 158.63L298.39 200.213C298.363 200.584 298.642 200.907 299.013 200.934C299.142 200.945 299.276 200.912 299.389 200.853L307.019 196.593C307.438 196.361 307.669 196.006 307.712 195.538C307.884 193.903 307.803 192.268 307.481 190.627C305.283 179.454 303.338 168.781 301.635 158.609C301.356 156.92 301.162 156.931 301.055 158.63Z" fill="#312553"/>
<path d="M272.771 84.9277C279.896 125.908 284.06 167.237 285.258 208.927C278.268 206.921 269.247 206.603 263.492 212.897C263.487 202.983 263.03 194.059 262.138 186.13C258.753 156.167 253.101 126.134 245.187 96.0361C246.122 95.751 246.68 95.864 246.868 96.3858C247.261 97.4778 247.911 97.9942 248.819 97.9296C249.189 97.8974 249.517 98.005 249.802 98.2416C260.204 107.075 273.121 101.007 272.282 87.2355C272.245 86.6922 272.406 85.9229 272.771 84.9277Z" fill="#AE9AE3"/>
<path d="M236.531 119.915C235.488 119.856 234.618 119.098 234.419 118.07L228.181 86.1705C228.111 85.794 228.267 85.5734 228.643 85.5196L229.025 85.4712C229.433 85.4067 229.686 85.5788 229.777 85.9823C232.066 95.5145 233.877 105.138 235.214 114.843C235.553 117.279 236.988 118.64 239.518 118.915C239.841 118.979 240.045 119.291 239.986 119.609C239.932 119.878 239.701 120.077 239.427 120.087L236.531 119.915Z" fill="#282444"/>
<path d="M663.777 178.48C661.446 169.023 658.2 159.184 654.047 148.958C653.488 143.079 652.951 137.032 652.435 130.825C651.78 122.987 651.672 117.139 652.113 113.293C652.575 109.173 654.584 96.6118 658.012 93.793C658.641 93.2766 658.786 93.3842 658.453 94.1319C646.256 121.169 654.455 148.135 668.194 172.859C669.446 175.097 668.532 179.137 665.679 180.116C663.224 180.949 662.59 180.406 663.777 178.48Z" fill="#4C417C"/>
<path d="M796.086 96.7085C802.486 98.8118 809.895 100.689 815.332 103.804C831.725 113.207 840.053 130.2 841.816 149.028C840.107 144.687 837.56 142.616 834.175 142.815C816.993 143.816 813.817 164.58 809.782 180.126C804.887 172.385 803.426 166.011 804.936 156.548C806.558 146.371 807.483 139.813 807.708 136.871C807.993 133.256 806.489 131.346 803.2 131.136C798.069 130.814 790.44 130.91 780.311 131.427C780.016 131.443 779.833 131.309 779.753 131.034C779.715 130.894 779.753 130.765 779.882 130.652C787.14 125.908 794.098 120.738 800.75 115.144C801.599 114.423 803.152 113.53 803.533 112.266C803.764 111.475 803.555 111.33 802.905 111.824L777.27 131.174L765.573 130.851C765.197 130.835 764.843 130.932 764.52 131.142C762.119 132.68 760.996 134.59 761.157 136.865C762.113 150.922 762.425 162.245 762.086 170.841C755.757 164.784 749.385 160.11 742.98 156.828C737.672 147.888 730.51 144.251 721.494 145.919C722.112 143.272 723.385 139.291 725.308 133.971C731.815 116.058 741.508 100.436 762.629 99.9253C762.489 108.737 768.598 112.056 776.438 110.56C784.54 109.006 791.509 103.562 796.092 96.7139L796.086 96.7085Z" fill="white"/>
<path d="M558.07 99.0918C558.108 98.8982 558.29 98.7691 558.489 98.8013C558.634 98.8282 558.752 98.9412 558.779 99.0918C558.994 100.625 558.973 102.276 558.709 104.046C557.565 111.577 557.038 119.13 557.135 126.704C557.296 140.707 560.971 156.931 563.765 171.745C564.394 175.059 564.098 179.529 562.884 185.167C562.809 185.49 562.605 185.613 562.282 185.527C561.793 185.387 561.616 185.022 561.75 184.435C562.363 181.686 562.771 179.244 562.331 176.345C561.428 170.438 560.74 164.483 559.247 158.69C558.747 156.764 558.946 154.731 558.537 152.945C554.47 135.128 555.142 117.145 558.075 99.0918H558.07Z" fill="#4C417C"/>
<path d="M596.368 123.595C595.826 149.319 595.476 171.041 595.186 202.209C595.154 205.98 594.504 210.079 594.176 213.559C593.698 218.691 593.413 218.68 593.327 213.538C593.306 211.832 593.827 208.777 593.848 206.48C594.251 171.423 594.821 136.365 595.552 101.308C595.557 100.883 595.659 100.862 595.853 101.238C596.014 101.561 596.105 101.954 596.121 102.411C596.417 110.125 596.497 117.188 596.363 123.595H596.368Z" fill="#4C417C"/>
<path d="M925.962 170.336C925.984 170.369 926.022 170.407 926.033 170.456C926 170.385 925.951 170.326 925.892 170.266C925.924 170.288 925.94 170.315 925.962 170.336Z" fill="#605093"/>
<path d="M128.943 111.652L135.874 112.513C136.336 112.578 136.578 112.836 136.594 113.304L136.895 121.975C142.413 136.462 150.644 151.621 154.018 165.322C156.259 174.403 155.114 183.644 150.585 193.053C150.322 194.973 149.312 196.684 147.56 198.195C147.77 197.098 147.324 196.383 146.228 196.06C145.862 195.952 145.583 195.737 145.379 195.42C135.471 179.626 125.859 163.649 116.542 147.5C112.958 141.276 107.65 131.529 100.069 131.448C86.7812 131.287 86.5126 152.552 88.4146 160.76C89.3495 164.806 91.9285 170.223 96.1463 177.001C109.031 197.674 122.302 216.437 138.931 234.845L139.221 252.22L139.189 270.225C139.189 270.65 139.017 270.994 138.679 271.258C138.426 271.452 138.297 271.699 138.297 272C138.292 272.339 138.448 272.554 138.77 272.64L139.452 272.829C136.121 273.098 133.8 273.42 132.484 273.792C105.501 281.339 80.5379 289.752 52.0182 285.874C51.7334 283.62 51.7496 280.553 52.0773 276.67C54.3662 248.982 56.553 225.582 58.6377 206.474C61.8937 176.689 53.211 131.567 91.59 119.49C93.6747 118.839 97.5809 116.392 103.303 112.142C107.639 118.958 121.958 131.712 127.444 119.248C128.416 117.053 128.534 114.165 128.937 111.658L128.943 111.652ZM99.8751 201.638C92.6646 219.552 82.6817 236.895 66.1007 248.094C63.5593 249.8 60.255 251.274 57.3213 252.796C57.0957 252.925 57.0097 253.21 57.1279 253.436C57.1816 253.538 57.2783 253.619 57.3912 253.651C57.8318 253.807 58.3314 253.759 58.8849 253.511C79.3934 244.367 94.2926 222.473 100.917 201.724C100.993 201.509 100.917 201.369 100.697 201.305C100.557 201.267 100.412 201.262 100.257 201.294C100.069 201.342 99.945 201.45 99.8751 201.633V201.638Z" fill="#AE9AE3"/>
<path d="M779.876 130.652C779.291 130.475 778.42 130.652 777.265 131.174L802.899 111.825C803.549 111.33 803.759 111.475 803.528 112.266C803.147 113.53 801.594 114.423 800.745 115.144C794.088 120.738 787.135 125.908 779.876 130.652Z" fill="#B9C9E4"/>
<path d="M1005.22 124.439C1000.97 121.233 996.761 118.866 992.608 117.333L968.268 107.279C964.024 113.616 961.101 117.565 959.516 119.141C955.191 123.423 950.285 124.343 944.815 121.89C944.455 121.728 944.187 121.47 944.015 121.126L941.14 115.37C934.784 118.737 930.475 123.88 928.202 130.776C924.049 143.289 923.087 157.743 922.335 170.885L921.846 200.708C921.824 201.843 921.126 202.854 920.073 203.285C913.362 205.931 906.216 206.765 898.995 208.626L909.891 219.815C911.514 221.628 912.465 223.065 912.755 224.157C912.965 224.91 912.776 225.722 912.255 226.33C911.406 227.304 909.913 227.411 908.94 226.561L899.817 218.691C899.747 218.713 899.677 218.74 899.618 218.761C899.097 219.805 897.576 219.993 895.062 219.331L879.561 219.971C878.782 219.993 878.169 220.633 878.159 221.413L877.927 237.304C877.616 237.454 877.707 237.664 878.207 237.933C883.553 240.833 889.082 243.576 894.788 246.174C902.208 250.026 909.886 253.533 917.827 256.669C918.026 256.739 918.106 256.96 918.058 257.331L917.897 270.451L1000.18 281.689C1001.96 273.179 1003.21 264.475 1003.95 255.572C1005.33 241.908 1007.32 229.138 1009.94 217.276C1010.3 215.63 1011.23 214.71 1012.72 214.528C1023.22 209.164 1030.2 200.923 1033.66 189.815C1035.98 164.715 1024.04 141.234 1005.23 124.461L1005.22 124.439ZM984.688 201.52C984.629 201.52 984.586 201.51 984.538 201.488C984.538 201.488 984.527 201.488 984.527 201.477C984.575 201.509 984.629 201.526 984.688 201.526V201.52ZM990.007 199.519C990.066 199.358 990.109 199.196 990.168 199.03C990.168 199.761 990.109 199.923 990.007 199.519ZM925.962 170.336C925.983 170.368 926.021 170.406 926.032 170.454C925.999 170.385 925.951 170.325 925.892 170.266C925.924 170.288 925.94 170.315 925.962 170.336ZM924.629 169.642C924.731 169.642 924.839 169.664 924.941 169.691C924.812 169.658 924.688 169.642 924.549 169.642H924.629ZM981.867 250.725C981.867 250.725 981.878 250.693 981.889 250.666C981.889 250.655 981.899 250.655 981.91 250.645C981.889 250.677 981.878 250.704 981.862 250.725H981.867Z" fill="#605093"/>
<path d="M925.962 170.336C925.984 170.369 926.022 170.407 926.033 170.456C926 170.385 925.951 170.326 925.892 170.266C925.924 170.288 925.94 170.315 925.962 170.336Z" fill="#4C417C"/>
<path d="M990.174 199.035C990.174 199.766 990.115 199.928 990.013 199.524C990.072 199.363 990.115 199.201 990.174 199.035Z" fill="#4C417C"/>
<path d="M136.895 121.97C139.286 124.902 141.016 127.834 142.09 130.771L144.052 135.402C146.867 142.605 150.037 149.609 153.562 156.403C160.273 169.33 167.451 182.38 175.102 195.56L181.84 207.701C182.049 208.072 182.366 208.244 182.791 208.212L233.205 204.242C235.36 204.42 236.461 204.124 236.509 203.36C241.125 203.01 246.482 202.607 250.108 205.845C254.702 209.944 256.217 218.987 249.7 222.575C246.374 224.404 242.839 225.862 239.088 226.964C211.933 231.838 184.746 238.665 157.462 242.694C149.392 243.888 145.008 240.488 138.937 234.845C122.307 216.432 109.036 197.674 96.1517 177.001C91.9339 170.223 89.3549 164.806 88.42 160.761C86.518 152.552 86.7866 131.287 100.074 131.449C107.655 131.529 112.969 141.282 116.547 147.501C125.864 163.649 135.476 179.626 145.384 195.42C145.583 195.737 145.868 195.953 146.233 196.06C147.329 196.383 147.775 197.098 147.565 198.196C148.452 200.751 150.042 203.268 152.331 205.754C152.595 206.039 152.75 205.99 152.804 205.603C152.836 205.35 152.761 205.151 152.584 205.011C152.315 204.802 152.154 204.533 152.111 204.199L150.59 193.053C155.12 183.645 156.264 174.397 154.024 165.322C150.65 151.627 142.418 136.462 136.9 121.976L136.895 121.97Z" fill="#FFAD94"/>
<path d="M779.876 130.652C779.753 130.771 779.71 130.895 779.747 131.034C779.823 131.314 780.011 131.443 780.306 131.427C790.434 130.911 798.064 130.814 803.195 131.137C806.489 131.346 807.993 133.256 807.703 136.871C807.477 139.814 806.553 146.371 804.93 156.549C803.421 166.011 804.882 172.38 809.777 180.126C809.336 180.836 809.202 182.149 809.368 184.064C809.406 184.478 809.17 184.866 808.788 185.016C807.832 185.409 807.117 186.081 806.655 187.023C806.483 187.372 806.231 187.647 805.892 187.846C801.728 190.25 805.64 195.506 805.032 198.922C804.393 202.521 803.141 205.877 803.361 209.498C803.63 213.957 803.904 218.336 804.184 222.639C804.216 223.167 804.667 223.565 805.188 223.532C817.234 222.822 830.629 221.515 841.493 223.522C841.515 223.801 841.628 223.995 841.832 224.103L840.139 224.485C839.446 224.571 838.759 224.824 838.087 225.248C837.786 225.442 837.453 225.534 837.088 225.528L814.086 225.109C804.764 224.302 795.334 224.302 785.797 225.109L784.416 225.087C784.298 224.818 784.121 224.598 783.885 224.425C783.707 224.286 783.449 224.216 783.122 224.216C777.389 224.232 771.452 224.216 765.326 224.183C765.944 222.876 765.154 221.833 762.962 221.063L762.973 209.546L762.43 176.216C762.425 175.828 762.312 175.473 762.092 175.145L761.221 173.833C761.984 173.386 762.275 172.386 762.081 170.836C762.42 162.24 762.113 150.911 761.152 136.86C760.99 134.585 762.108 132.675 764.515 131.137C764.837 130.927 765.192 130.83 765.568 130.846L777.265 131.169C778.415 130.642 779.285 130.47 779.876 130.647V130.652Z" fill="#E4EAF7"/>
<path d="M255.476 206.351C255.116 204.957 255.476 202.278 255.395 201.138C255.084 196.237 253.875 191.272 252.58 186.544C247.562 168.399 243.016 150.626 236.407 132.938C236.386 132.869 236.262 132.632 236.037 132.228C235.875 131.927 235.848 131.647 235.956 131.395C236.096 131.077 236.466 130.932 236.778 131.072C236.912 131.131 237.025 131.239 237.09 131.373C245.171 148.033 250.189 168.055 254.573 186.027C255.433 189.556 261.091 204.161 256.405 206.749C255.927 207.018 255.616 206.888 255.476 206.356V206.351Z" fill="#282444"/>
<path d="M527.68 136.876C532.436 136.801 537.255 136.828 542.15 136.968C547.748 137.129 550.231 139.055 551.311 144.418C553.535 155.462 558.876 180.616 567.322 219.875C567.623 222.236 568.155 223.543 568.912 223.796C569.02 223.527 569.079 223.683 569.084 224.269C568.907 224.415 568.8 224.592 568.762 224.791C568.724 224.969 568.778 225.146 568.923 225.324C569.471 225.975 570.17 226.131 571.024 225.786L584.892 224.732C594.198 224.786 603.638 225.082 613.218 225.625C613.836 225.657 614.325 225.754 614.679 225.916C615.813 226.421 616.001 227.207 615.238 228.272C615.012 228.594 614.647 228.799 614.255 228.831L600.366 229.934C601.285 229.794 601.317 229.278 600.457 228.379C600.194 228.1 599.871 227.997 599.495 228.067C592.768 229.342 587.32 228.39 580.663 227.949C580.319 227.922 579.975 228.046 579.734 228.288L576.059 231.887C572.711 232.156 569.154 232.43 565.393 232.699C561.917 232.946 558.349 233.043 554.701 232.989C519.068 232.446 483.434 231.946 447.801 231.478C441.842 231.397 441.912 225.281 440.913 221.063C435.395 195.694 429.737 170.406 423.95 145.193C423.117 141.573 422.36 136.312 427.948 136.333C461.115 136.473 494.363 136.65 527.686 136.866L527.68 136.876ZM497.388 191.773C500.74 190.326 501.901 185.533 499.978 181.062C498.054 176.592 493.777 174.145 490.424 175.586C487.072 177.033 485.911 181.826 487.835 186.297C489.758 190.767 494.035 193.214 497.388 191.773Z" fill="#312553"/>
<path d="M841.816 149.028C845.249 167.425 844.121 189.879 842.498 207.792C842.466 208.196 842.627 208.486 842.987 208.664C844.701 209.551 846.834 210.057 849.386 210.175L865.467 213.241C865.86 213.317 866.15 213.177 866.327 212.811C868.041 209.207 870.067 206.2 872.393 203.79C876.638 199.4 886.803 205.366 890.677 208.04L899.811 218.685C899.741 218.707 899.677 218.734 899.613 218.755L895.056 219.325L879.555 219.966C878.782 219.998 878.164 220.627 878.153 221.407L877.922 237.298C872.022 237.346 860.449 231.343 854.813 228.836C850.799 227.061 847.221 224.032 841.504 223.532C830.64 221.526 817.251 222.838 805.199 223.543C804.672 223.575 804.221 223.177 804.189 222.65C803.909 218.346 803.635 213.968 803.367 209.508C803.147 205.888 804.398 202.531 805.038 198.932C805.64 195.522 801.733 190.261 805.898 187.856C806.236 187.657 806.494 187.383 806.66 187.033C807.122 186.086 807.837 185.419 808.793 185.027C809.175 184.876 809.411 184.489 809.374 184.075C809.202 182.165 809.342 180.852 809.782 180.137C813.817 164.591 816.993 143.826 834.175 142.826C837.56 142.627 840.107 144.692 841.816 149.039V149.028ZM809.685 219.272C811.389 218.476 812.13 217.066 811.921 215.043C811.845 214.28 811.158 213.72 810.389 213.801C810.239 213.817 810.088 213.855 809.949 213.919C807.816 214.909 807.203 216.491 808.117 218.669C808.369 219.266 809.057 219.541 809.642 219.288C809.653 219.282 809.669 219.277 809.68 219.272H809.685Z" fill="#FFAD94"/>
<path d="M742.969 156.834L744.743 162.299C746.263 171.966 747.488 181.595 748.407 191.181C748.976 196.996 746.913 202.709 745.532 208.185C743.931 212.467 741.916 216.238 739.493 219.503L601.854 219.874C604.336 205.318 613.992 197.991 629.718 199.223C637.627 202.122 645.864 205.899 654.439 210.541C656.234 211.515 657.502 211.375 658.684 209.75C659.232 209.008 659.071 207.959 658.329 207.416C658.319 207.41 658.313 207.405 658.302 207.394L652.634 203.413C663.423 201.509 673.943 200.428 684.184 200.164C686.887 200.094 689.38 199.675 692.012 199.282L715.922 196.878C716.303 196.84 716.594 196.501 716.572 196.114C715.68 181.579 716.32 165.199 720.339 151.18C720.801 149.545 721.187 147.796 721.499 145.919C730.51 144.257 737.672 147.893 742.986 156.828L742.969 156.834Z" fill="#FFAD94"/>
<path d="M654.052 148.958C658.206 159.179 661.446 169.024 663.783 178.48C658.915 185.285 652.65 187.792 645.311 190.692C644.972 190.815 644.601 190.643 644.478 190.304C644.392 190.068 644.451 189.804 644.628 189.626C646.423 187.916 647.556 185.7 648.024 182.972C649.947 171.858 651.957 160.524 654.052 148.958Z" fill="#EAF4FC"/>
<path d="M301.055 158.63C301.162 156.925 301.356 156.92 301.635 158.609C303.338 168.776 305.283 179.448 307.481 190.627C307.803 192.267 307.884 193.903 307.712 195.538C307.663 196.012 307.432 196.361 307.019 196.592L299.389 200.853C299.067 201.036 298.653 200.917 298.476 200.589C298.411 200.476 298.384 200.342 298.395 200.213L301.06 158.63H301.055Z" fill="#282444"/>
<path d="M742.97 156.833C749.379 160.115 755.746 164.784 762.076 170.847C762.269 172.396 761.984 173.391 761.216 173.843C755.779 170.002 750.604 165.36 744.743 162.304L742.97 156.839V156.833Z" fill="#ACD9FA"/>
<path d="M744.748 162.299C750.615 165.355 755.784 169.997 761.221 173.838L762.092 175.151C762.307 175.473 762.42 175.834 762.43 176.221L762.973 209.552L745.532 208.196C746.913 202.714 748.976 197.007 748.407 191.192C747.488 181.606 746.263 171.977 744.742 162.31L744.748 162.299Z" fill="white"/>
<path d="M497.39 191.775C500.742 190.329 501.901 185.534 499.979 181.065C498.056 176.595 493.78 174.144 490.428 175.589C487.075 177.035 485.916 181.83 487.839 186.299C489.762 190.769 494.038 193.22 497.39 191.775Z" fill="white"/>
<path d="M236.504 203.36C236.456 204.124 235.354 204.42 233.2 204.242C227.123 197.572 221.266 191.219 215.625 185.194C215.27 184.806 215.034 184.435 214.915 184.08C214.62 183.128 214.84 182.466 215.566 182.095C215.926 181.902 216.372 181.972 216.656 182.267L236.504 203.36Z" fill="#EAF4FC"/>
<path d="M416.245 189.938L414.832 190.288C414.494 190.363 414.3 190.584 414.252 190.939C413.339 198.685 412.167 206.388 410.738 214.054C410.453 215.587 410.405 217.029 410.598 218.384C410.722 218.669 410.84 218.955 410.958 219.234C403.452 220.246 396.027 220.278 388.688 219.326C386.485 208.798 385.002 198.653 384.233 188.879C384.201 188.491 384.378 188.298 384.765 188.298C394.893 188.142 405.032 188.19 415.187 188.437C415.633 188.454 415.939 188.572 416.1 188.798C416.315 189.094 416.364 189.476 416.24 189.949L416.245 189.938Z" fill="#312553"/>
<path d="M1033.65 189.788C1050.92 187.571 1055.9 208.406 1052.95 221.117C1047.56 244.41 1042.16 267.708 1036.73 291C1035.33 297.014 1033.93 304.965 1028.21 308.295C1022.82 311.442 1006.46 309.817 999.722 309.839L1000.17 281.667C1001.95 273.162 1003.21 264.453 1003.94 255.55C1005.31 241.892 1007.31 229.127 1009.92 217.255C1010.29 215.614 1011.21 214.7 1012.71 214.506C1023.21 209.143 1030.19 200.907 1033.65 189.793V189.788Z" fill="#312553"/>
<path d="M416.245 189.938C416.278 191.418 416.842 192.015 417.938 191.735C416.031 197.695 414.51 203.683 413.382 209.707C413.21 210.606 413.473 211.015 414.161 210.939C413.962 210.907 413.887 211.041 413.94 211.332C413.994 211.596 414.155 211.735 414.429 211.752C414.553 211.757 414.682 211.746 414.811 211.703C412.554 213.026 411.657 214.291 412.119 215.485L410.598 218.374C410.405 217.018 410.453 215.576 410.738 214.043C412.167 206.383 413.339 198.68 414.252 190.928C414.3 190.573 414.494 190.358 414.832 190.277L416.245 189.927V189.938Z" fill="#4C417C"/>
<path d="M412.119 215.49C411.657 214.291 412.554 213.032 414.811 211.708C419.947 209.234 428.678 203.817 427.738 197.996C426.916 192.865 421.28 192.563 417.847 195.361C417.567 195.587 417.379 195.899 417.304 196.243L414.161 210.939C413.473 211.015 413.215 210.606 413.382 209.707C414.51 203.688 416.031 197.695 417.938 191.735C426.669 188.717 433.949 195.893 428.501 204.226C424.977 209.6 417.868 212.526 412.119 215.485V215.49Z" fill="#095E81"/>
<path d="M652.629 203.414L658.297 207.394C659.049 207.927 659.232 208.971 658.7 209.724C658.695 209.734 658.689 209.74 658.679 209.751C657.496 211.375 656.234 211.515 654.434 210.541C645.864 205.899 637.622 202.123 629.713 199.223C626.597 197.728 624.845 196.48 624.447 195.474C623.813 193.881 624.318 192.752 625.957 192.096C626.247 191.983 626.57 191.993 626.86 192.117L652.623 203.414H652.629Z" fill="#312553"/>
<path d="M150.59 193.048L152.111 204.194C152.159 204.527 152.315 204.796 152.584 205.006C152.761 205.146 152.836 205.345 152.804 205.598C152.75 205.985 152.589 206.033 152.331 205.748C150.042 203.263 148.457 200.745 147.565 198.19C149.322 196.679 150.327 194.968 150.59 193.048Z" fill="#EAF4FC"/>
<path d="M414.811 211.703C414.682 211.741 414.553 211.757 414.429 211.752C414.161 211.735 413.994 211.596 413.94 211.332C413.887 211.036 413.962 210.907 414.161 210.939L417.304 196.243C417.379 195.899 417.573 195.587 417.847 195.361C421.28 192.563 426.916 192.865 427.738 197.997C428.678 203.812 419.947 209.234 414.811 211.709V211.703Z" fill="#EAF4FC"/>
<path d="M990.174 199.035C990.174 199.766 990.115 199.928 990.013 199.524C990.072 199.363 990.115 199.201 990.174 199.035Z" fill="#605093"/>
<path d="M990.174 199.035C990.174 199.766 990.115 199.928 990.013 199.524C990.072 199.363 990.115 199.201 990.174 199.035Z" fill="#312553"/>
<path d="M99.8751 201.638C99.945 201.461 100.074 201.348 100.257 201.3C100.412 201.267 100.557 201.273 100.697 201.31C100.923 201.375 100.993 201.509 100.917 201.73C94.298 222.473 79.3988 244.367 58.8848 253.517C58.3261 253.764 57.8317 253.813 57.3912 253.657C57.144 253.576 57.0151 253.313 57.101 253.065C57.1386 252.952 57.2192 252.855 57.3213 252.796C60.2549 251.274 63.5593 249.8 66.1007 248.095C82.6817 236.895 92.6646 219.552 99.8751 201.638Z" fill="#605093"/>
<path d="M898.989 208.615L909.886 219.804C911.508 221.617 912.465 223.064 912.75 224.146C913.093 225.399 912.357 226.695 911.105 227.045C910.342 227.255 909.531 227.067 908.935 226.55L899.811 218.68L890.677 208.034C892.209 202.833 896.743 205.888 898.989 208.615Z" fill="#312553"/>
<path d="M285.264 208.933L299.249 220.439C297.949 222.424 294.113 220.638 292.431 223.715C292.345 225.071 291.792 225.819 290.771 225.969C281.255 227.346 270.955 227.631 259.871 226.819L263.498 212.914C269.247 206.62 278.268 206.937 285.264 208.944V208.933Z" fill="#FFAD94"/>
<path d="M762.973 209.546L762.962 221.063C755.633 221.252 748.315 221.02 741.003 220.38C740.541 220.342 740.036 220.052 739.493 219.509C741.922 216.243 743.936 212.472 745.532 208.19L762.973 209.546Z" fill="#605093"/>
<path d="M809.685 219.272C809.105 219.546 808.412 219.293 808.138 218.707C808.133 218.696 808.127 218.68 808.122 218.669C807.208 216.496 807.821 214.915 809.954 213.919C810.658 213.602 811.491 213.909 811.808 214.608C811.872 214.748 811.91 214.893 811.926 215.044C812.135 217.061 811.389 218.47 809.691 219.272H809.685Z" fill="white"/>
<path d="M377.775 220.525C377.034 221.623 376.69 222.397 376.743 222.849C376.846 223.71 377.238 224.14 377.926 224.151C394.931 224.312 411.146 224.269 426.578 224.011C426.857 224.006 427.126 223.93 427.389 223.791C427.684 223.635 427.932 223.505 428.141 223.409C429.055 223.28 429.629 222.914 429.871 222.317C429.989 222.037 430.194 221.897 430.5 221.897H431.091C431.338 221.897 431.574 221.811 431.762 221.655C435.271 218.745 438.323 218.551 440.913 221.074C441.912 225.286 441.842 231.408 447.801 231.488C483.434 231.951 519.068 232.457 554.701 233C558.349 233.054 561.912 232.957 565.393 232.71C569.16 232.441 572.711 232.166 576.059 231.897L600.36 229.945L614.25 228.842C614.647 228.81 615.007 228.605 615.233 228.282C615.996 227.212 615.813 226.426 614.674 225.926C614.319 225.765 613.83 225.668 613.213 225.636C603.638 225.092 594.192 224.797 584.886 224.743C579.777 223.592 574.452 223.274 568.907 223.801C568.15 223.549 567.618 222.236 567.317 219.88H601.843L739.482 219.509C740.025 220.052 740.525 220.342 740.992 220.38C748.305 221.02 755.623 221.252 762.951 221.063C765.149 221.838 765.933 222.876 765.316 224.183C764.483 228.272 766.836 229.487 770.522 229.466C774.605 229.444 778.699 229.434 782.81 229.434C783.127 229.434 783.428 229.358 783.712 229.202L784.282 228.879C784.911 228.772 785.142 228.826 784.975 229.041L840.327 229.1L850.649 229.132C851.052 229.143 851.39 228.826 851.401 228.422C851.412 228.11 851.218 227.825 850.928 227.712L841.826 224.103C841.628 223.995 841.515 223.801 841.488 223.522C847.205 224.022 850.788 227.05 854.797 228.826C860.433 231.332 872.001 237.336 877.906 237.287C877.594 237.443 877.691 237.653 878.185 237.917C883.537 240.816 889.06 243.565 894.766 246.158L892.101 249.375C891.859 249.671 891.714 250.004 891.66 250.375C891.397 252.091 890.333 252.941 888.458 252.92C868.122 252.651 847.785 252.586 827.448 252.732C826.406 252.742 825.434 253.323 824.386 253.544C824.37 253.425 824.327 253.318 824.246 253.221C824.139 253.092 823.999 253.022 823.827 253.022L801.32 253.232C795.033 252.36 787.973 252.952 783.068 252.952C612.132 252.947 441.197 252.952 270.262 252.963C261.88 252.963 250.909 253.404 241.184 253.275L226.736 253.264L225.414 253.232L185.783 252.909L182.21 253C168.214 251.365 153.395 252.979 139.205 252.22L138.915 234.845C144.992 240.488 149.371 243.888 157.441 242.694C184.725 238.664 211.912 231.838 239.067 226.964L259.844 226.814C270.928 227.626 281.228 227.346 290.744 225.964C291.765 225.819 292.318 225.065 292.404 223.71C294.827 228.411 303.247 227.701 307.846 227.701C323.653 227.701 339.455 227.545 355.257 227.228C358.814 227.158 361.264 225.625 361.495 221.967C361.522 221.607 361.285 221.268 360.925 221.165L360.533 221.063L361.602 219.498C361.834 219.164 362.15 218.998 362.553 218.998L376.212 219.046C376.298 219.046 376.383 219.035 376.464 219.014L377.324 218.691C377.888 218.481 378.114 218.675 377.995 219.272L377.754 220.536L377.775 220.525Z" fill="white"/>
<path d="M388.688 219.32C396.032 220.273 403.458 220.24 410.958 219.229C417.148 219.03 422.209 219.143 426.137 219.579C427.808 219.767 428.474 221.042 428.141 223.409C427.932 223.511 427.679 223.635 427.389 223.791C427.126 223.93 426.857 224.006 426.578 224.011C411.147 224.264 394.931 224.312 377.926 224.151C377.238 224.146 376.846 223.71 376.744 222.849C376.69 222.403 377.034 221.628 377.775 220.525C381.004 219.342 384.642 218.938 388.688 219.32Z" fill="#4C417C"/>
<path d="M899.612 218.75C899.097 219.794 897.576 219.982 895.056 219.32L899.612 218.75Z" fill="#78708E"/>
<path d="M326.157 219.751C326.039 220.541 326.2 221.112 326.63 221.467C326.345 222.86 326.56 224.135 327.28 225.286C327.49 225.62 327.785 225.808 328.172 225.856C331.245 226.195 338.886 227.562 336.962 221.225L360.555 221.063L360.947 221.166C361.307 221.268 361.543 221.607 361.516 221.967C361.285 225.625 358.841 227.158 355.279 227.228C339.477 227.545 323.675 227.701 307.868 227.701C303.263 227.701 294.849 228.412 292.426 223.71C294.107 220.633 297.944 222.419 299.244 220.434C308.394 221.397 316.975 220.956 326.157 219.751Z" fill="#312553"/>
<path d="M336.962 221.225C338.886 227.561 331.245 226.195 328.172 225.856C327.785 225.808 327.49 225.62 327.28 225.286C326.56 224.135 326.345 222.86 326.63 221.467L336.962 221.225Z" fill="#282444"/>
<path d="M568.913 223.801C574.452 223.274 579.782 223.586 584.892 224.743L571.024 225.797C570.884 224.969 570.24 224.463 569.09 224.275C569.084 223.688 569.025 223.527 568.918 223.801H568.913Z" fill="#78708E"/>
<path d="M569.085 224.275C570.234 224.463 570.879 224.969 571.019 225.797C570.17 226.136 569.471 225.985 568.918 225.334C568.773 225.157 568.719 224.979 568.757 224.802C568.794 224.603 568.902 224.425 569.079 224.28L569.085 224.275Z" fill="#ACD9FA"/>
<path d="M765.326 224.183C771.457 224.221 777.389 224.232 783.122 224.215C783.455 224.215 783.707 224.285 783.884 224.425C784.126 224.597 784.304 224.818 784.416 225.087L784.287 228.869L783.718 229.191C783.433 229.347 783.132 229.423 782.815 229.423C778.705 229.423 774.605 229.433 770.527 229.455C766.841 229.476 764.488 228.261 765.321 224.172L765.326 224.183Z" fill="#312553"/>
<path d="M841.837 224.103L850.939 227.712C851.315 227.852 851.509 228.277 851.369 228.653C851.261 228.949 850.977 229.138 850.66 229.127L840.338 229.095C840.413 228.148 840.295 227.814 839.978 228.083L840.139 224.484L841.832 224.103H841.837Z" fill="#4C417C"/>
<path d="M814.091 225.114L813.522 227.04C813.403 227.432 813.554 227.632 813.962 227.632C821.173 227.701 828.351 227.68 835.492 227.562C837.012 227.529 838.511 227.707 839.978 228.083C840.295 227.814 840.413 228.148 840.338 229.095L784.986 229.036L785.797 225.114C795.334 224.307 804.764 224.307 814.086 225.114H814.091Z" fill="#312553"/>
<path d="M840.145 224.484L839.983 228.083C838.517 227.707 837.018 227.529 835.497 227.561C828.356 227.68 821.178 227.701 813.968 227.631C813.559 227.631 813.409 227.432 813.527 227.04L814.097 225.114L837.098 225.533C837.464 225.539 837.791 225.447 838.098 225.254C838.769 224.829 839.452 224.57 840.15 224.49L840.145 224.484Z" fill="#095E81"/>
<path d="M784.422 225.087L785.803 225.108L784.991 229.03C785.153 228.815 784.921 228.761 784.298 228.869L784.427 225.087H784.422Z" fill="#D0E3F7"/>
<path d="M600.355 229.939L576.053 231.892L579.728 228.293C579.97 228.051 580.309 227.927 580.658 227.954C587.315 228.395 592.763 229.347 599.49 228.072C599.866 228.002 600.189 228.105 600.452 228.384C601.312 229.283 601.279 229.799 600.36 229.939H600.355Z" fill="#282444"/>
<path d="M139.227 252.22C153.417 252.974 168.235 251.36 182.232 253L181.549 270.505C181.533 270.914 181.324 271.129 180.921 271.145L139.458 272.829L138.775 272.64C138.453 272.554 138.292 272.345 138.302 272C138.302 271.699 138.431 271.452 138.684 271.258C139.022 270.994 139.194 270.65 139.194 270.225L139.227 252.22Z" fill="#EAF4FC"/>
<path d="M801.341 253.226L801.019 267.934C801.013 268.369 800.793 268.585 800.358 268.585L670.198 268.595L663.541 268.617H488.753C488.173 268.617 487.631 268.837 487.12 269.278C487.082 269.122 487.05 268.977 487.029 268.837C486.97 268.542 486.787 268.396 486.486 268.396L403.56 268.628L357.551 268.687H345.537L267.468 268.859C259.909 263.845 251.978 265.179 241.146 266.121L241.205 253.27C250.936 253.399 261.902 252.958 270.284 252.958C441.219 252.941 612.154 252.936 783.089 252.947C787.995 252.947 795.055 252.355 801.341 253.226Z" fill="#B9C9E4"/>
<path d="M182.232 252.995L185.805 252.904L188.771 253.355C188.857 253.372 188.862 253.393 188.781 253.425C188.658 253.479 188.55 253.528 188.459 253.576C188.373 253.624 188.368 253.667 188.448 253.716C188.921 254.017 189.125 254.41 189.061 254.889C189.012 255.292 189.125 255.636 189.399 255.921C197.201 264.071 213.981 266.879 224.657 267.18L227.52 267.008L241.146 266.126C251.978 265.185 259.909 263.851 267.468 268.864C273.696 274.76 276.522 283.512 277.731 291.549C284.527 336.913 291.319 382.282 298.116 427.647C299.212 434.973 300.216 442.381 301.13 449.863C301.184 450.299 300.996 450.536 300.56 450.584L290.346 451.746L268.817 453.763L260.064 454.054L236.284 454.366C235.274 454.027 234.446 453.93 233.812 454.086C233.484 454.178 233.259 454.479 233.269 454.818L233.431 461.967C233.436 462.263 233.586 462.435 233.871 462.489L234.22 462.548L234.951 462.849C235.36 463.021 235.521 463.322 235.424 463.753L233.85 471.343C233.554 472.742 234.274 474.151 235.58 474.732C242.081 477.632 248.921 478.578 256.105 477.567C256.706 477.481 257.233 477.121 257.544 476.593L262.23 468.514L263.251 467.47L269.386 467.599C273.062 479.972 289.583 483.57 300.936 482.645C310.79 483.527 319.172 486.62 326.071 491.919C327.194 494.356 327.017 495.69 325.55 495.911M322.563 496.357C304.273 495.599 285.656 495.034 266.711 494.663C262.445 494.577 259.414 494.243 257.62 493.651C257.931 491.865 257.673 490.978 256.857 490.994C246.637 491.155 236.665 491.236 226.94 491.236C225.817 491.236 224.909 490.327 224.909 489.197C224.909 489.16 224.909 489.116 224.909 489.079L225.962 472.688L227.424 434.182L229.938 326.934C229.954 326.477 229.734 326.267 229.277 326.294L208.683 327.585L198.308 328.155L183.801 328.215L55.4247 328.112C55.1453 328.112 54.8766 328.021 54.6617 327.843L53.1304 326.612C51.6851 321.017 51.1263 315.374 51.4487 309.688L52.0182 285.879C80.5432 289.758 105.506 281.339 132.484 273.797C133.8 273.426 136.121 273.103 139.452 272.834L180.915 271.15C181.318 271.134 181.528 270.924 181.544 270.51L182.226 253.006L322.557 496.368L322.563 496.357Z" fill="#282444"/>
<path d="M185.805 252.904L225.436 253.226L224.657 267.18C213.981 266.879 197.201 264.071 189.399 255.921C189.131 255.636 189.018 255.292 189.061 254.889C189.125 254.41 188.916 254.017 188.448 253.716C188.373 253.667 188.373 253.624 188.459 253.576C188.55 253.528 188.658 253.479 188.781 253.425C188.857 253.393 188.857 253.372 188.771 253.355L185.805 252.904Z" fill="#312553"/>
<path d="M824.402 253.544L826.777 279.838L803.808 283.76C802.287 284.023 801.556 284.927 801.626 286.465C803.92 338.339 806.225 389.857 808.536 441.02C808.627 442.946 809.057 444.941 809.256 446.942C809.293 447.351 809.503 447.642 809.884 447.814C811.013 448.309 811.588 449.196 811.598 450.471C811.598 450.864 811.695 451.235 811.888 451.574L812.968 453.511C813.13 453.806 813.318 453.823 813.538 453.57C814 453.021 814.274 452.381 814.36 451.655C817.068 452.311 818.674 454.474 819.196 458.132C820.625 468.186 821.404 474.608 821.527 477.4L821.055 480.198C820.996 480.574 820.77 480.768 820.383 480.768H811.029C810.679 480.768 810.384 481.031 810.357 481.381L809.814 486.954C809.761 487.481 809.476 487.75 808.955 487.766L797.301 488.116C796.173 488.148 795.571 487.6 795.506 486.481C795.291 483.124 794.625 481.36 793.513 481.198L792.089 483.135C791.912 483.388 791.751 483.377 791.6 483.102C790.617 481.139 788.194 478.552 788.296 476.045C788.564 469.509 783.799 466.179 788.736 460.186C789.859 452.047 786.372 446.431 791.288 436.878L794.405 436.184C794.824 436.092 795.023 435.834 795.007 435.404C793.282 386.672 790.993 337.967 788.129 289.29C788.113 288.951 787.823 288.687 787.484 288.709C787.318 288.719 787.162 288.795 787.049 288.918C780.199 296.708 779.93 308.456 778.506 318.112L759.841 318.01C759.438 318.01 759.207 318.209 759.148 318.613L742.314 432.547L738.15 457.712L737 463.005C736.887 463.505 736.398 463.823 735.904 463.715C735.904 463.715 735.904 463.715 735.899 463.715L732.895 463.021C732.557 462.946 732.31 462.639 732.304 462.279L732.234 458.868L735.84 436.652L753.672 318.618C753.742 318.182 753.554 317.967 753.114 317.967H713.982C713.596 317.967 713.284 318.279 713.284 318.672C713.284 318.693 713.284 318.715 713.284 318.731C716.449 353.008 714.015 385.865 709.738 420.766C709.303 424.279 708.755 427.06 708.078 429.099C698.019 429.158 688.235 430.057 678.72 431.794C677.715 426.275 676.931 420.471 676.366 414.381C675.679 406.866 675.028 401.046 674.416 396.92C670.241 369.076 666.486 339.974 663.144 309.613C663.09 309.15 662.746 308.887 662.112 308.822C662.692 308.628 662.966 308.386 662.934 308.09C661.741 294.158 660.532 281.274 669.193 270.586C669.435 270.29 669.742 270.128 670.123 270.096L670.875 270.037C671.101 270.026 671.273 269.832 671.257 269.607C671.251 269.488 671.192 269.375 671.096 269.305L670.193 268.595L800.353 268.584C800.788 268.584 801.008 268.369 801.014 267.934L801.336 253.226L823.843 253.017C824.015 253.017 824.155 253.081 824.262 253.216C824.338 253.318 824.386 253.425 824.402 253.538V253.544ZM803.996 442.876L799.461 442.967C798.456 442.989 797.655 443.817 797.677 444.823L797.989 461.235C798.048 464.205 799.708 466.577 801.696 466.539L802.668 466.518C804.662 466.48 806.225 464.043 806.172 461.074L805.849 444.662C805.828 443.656 805 442.854 803.996 442.876Z" fill="#312553"/>
<path d="M225.436 253.226L226.757 253.259L227.52 267.003L224.657 267.175L225.436 253.221V253.226Z" fill="#D0E3F7"/>
<path d="M226.757 253.264L241.205 253.275L241.146 266.126L227.52 267.008L226.757 253.264Z" fill="#312553"/>
<path d="M345.532 268.692L348.869 309.683C334.7 313.841 320.387 316.563 305.933 317.854C305.455 317.892 305.229 318.15 305.262 318.618L313.31 436.663L313.369 464.512L294.226 465.544L290.341 451.741L300.555 450.579C300.99 450.531 301.178 450.294 301.125 449.858C300.211 442.375 299.206 434.968 298.11 427.641C291.313 382.277 284.522 336.908 277.725 291.544C276.522 283.512 273.69 274.76 267.463 268.859L345.532 268.687V268.692Z" fill="#78708E"/>
<path d="M357.541 268.692L367.964 415.979L369.006 434.887L370.527 456.491C370.554 456.873 370.785 457.206 371.129 457.373C379.408 461.203 385.179 464.248 389.472 470.988C389.703 471.354 389.655 471.645 389.322 471.87C369.732 471.343 350.142 471.09 330.547 471.117C328.553 471.117 326.232 470.875 323.589 470.386C318.764 466.798 318.511 458.115 317.861 451.488L353.779 451.639L360.947 453.242C361.388 453.344 361.586 453.166 361.538 452.72L359.878 437.534L350.174 324.584L348.863 309.677L345.527 268.687H357.541V268.692Z" fill="#312553"/>
<path d="M403.549 268.633C410.77 279.445 412.463 290.64 408.637 302.216C399.584 329.635 386.028 367.554 367.964 415.979L357.541 268.692L403.549 268.633Z" fill="#78708E"/>
<path d="M708.964 459.31L706.552 443.984C698.793 443.795 691.11 444.285 683.48 445.468C683.851 448.056 683.158 449.761 681.406 450.59C680.955 450.799 680.675 450.66 680.573 450.181L651.076 322.636C650.974 322.195 651.146 321.975 651.597 321.996C658.786 322.238 663.111 315.17 658.786 309.215L616.893 309.575C616.791 309.575 616.694 309.516 616.651 309.414C616.592 309.274 616.651 309.112 616.791 309.053C630.299 302.926 643.075 297.676 655.283 287.891C660.661 283.571 664.046 277.998 665.405 271.199C665.497 270.725 665.303 270.467 664.825 270.419L663.262 270.257C662.891 270.209 662.8 270.037 662.972 269.725L663.541 268.622H488.753C488.173 268.622 487.631 268.843 487.12 269.284C478.378 280.43 475.665 292.861 478.959 306.568C487.378 341.604 498.753 377.242 513.104 413.483C513.904 415.489 514.764 417.394 515.688 419.185L523.049 434.01C523.699 435.264 524.43 436.044 525.22 436.318C524.387 443.258 520.314 448.658 513.012 452.526C506.275 456.077 500.466 459.993 495.572 464.237C496.813 468.266 503.674 466.921 508.096 466.663C522.845 465.802 537.604 464.909 552.364 464.006C552.783 463.973 553.014 463.753 553.046 463.333L553.197 461.569C552.874 452.376 551.596 443.365 549.393 434.57L549.36 433.338L549.43 416.909C549.092 411.035 548.329 405.182 547.109 399.378C546.427 396.118 547.351 392.923 547.679 389.432C550.741 356.289 552.756 333.992 553.745 322.534C553.766 322.184 553.965 322.012 554.314 322.012L564.437 322.044C564.867 322.044 565.259 322.244 565.528 322.566C568.112 325.676 571.105 328.29 574.538 330.404C574.807 330.565 574.957 330.797 574.979 331.125L582.85 432.816L585.171 461.467C586.283 464.522 589.405 464.054 590.646 461.327L588.535 434.602L580.416 332.717C580.335 331.743 580.685 330.974 581.458 330.393C584.521 328.085 587.627 325.864 590.802 323.728C594.268 321.404 596.411 322.566 600.076 322.577C613.315 322.599 628.273 322.566 644.945 322.475C645.074 322.464 645.187 322.545 645.225 322.685L670.929 433.58L675.356 452.86C675.447 453.252 675.324 453.581 674.996 453.833C670.639 457.013 666.367 459.466 662.198 461.182C659.807 462.214 634.404 471.817 647.508 476.029L684.404 475.388L706.852 474.598C708.905 474.528 709.867 473.463 709.738 471.408L708.975 459.299L708.964 459.31ZM543.488 375.262C543.488 375.262 543.488 375.284 543.466 375.284C543.456 375.284 543.434 375.273 543.434 375.262L528.395 310.242C528.277 309.78 528.465 309.548 528.954 309.548H537.685C538.136 309.548 538.297 309.758 538.185 310.199C536.25 317.004 538.743 320.936 545.675 322.018C546.346 322.109 547.029 322.26 547.727 322.448C548.108 322.539 548.27 322.787 548.237 323.18C546.523 340.523 544.944 357.887 543.493 375.268L543.488 375.262Z" fill="#312553"/>
<path d="M663.536 268.622L670.193 268.601L671.095 269.311C671.273 269.445 671.31 269.698 671.176 269.881C671.106 269.978 670.993 270.037 670.875 270.042L670.123 270.101C669.747 270.134 669.435 270.295 669.193 270.591C660.532 281.28 661.736 294.169 662.934 308.096C662.966 308.392 662.692 308.634 662.112 308.827C659.259 308.241 658.152 308.37 658.786 309.22L616.893 309.581C616.743 309.581 616.624 309.462 616.63 309.312C616.63 309.204 616.694 309.107 616.791 309.059C630.299 302.932 643.075 297.681 655.283 287.896C660.672 283.577 664.046 278.014 665.405 271.204C665.497 270.731 665.303 270.473 664.825 270.424L663.262 270.263C662.896 270.225 662.8 270.048 662.972 269.73L663.541 268.627L663.536 268.622Z" fill="#282444"/>
<path d="M917.886 270.43L1000.17 281.667L999.721 309.839C999.533 315.772 999.351 321.345 996.396 326.66C995.547 327.252 994.241 327.973 993.07 327.983C948.823 328.145 904.577 328.177 860.336 328.075C859.364 328.075 857.924 328.457 857.021 328.688C856.011 328.312 855.167 328.139 854.496 328.177C854.12 328.199 853.894 328.403 853.824 328.78C851.6 341.604 847.318 355.719 840.988 371.126C834.111 387.872 827.131 404.58 820.05 421.251C818.164 425.678 816.724 430.223 815.725 434.893L814.371 451.644C814.285 452.37 814.011 453.01 813.549 453.559C813.334 453.812 813.14 453.796 812.979 453.5L811.899 451.563C811.706 451.225 811.609 450.853 811.609 450.461C811.593 449.186 811.023 448.298 809.895 447.803C809.519 447.631 809.309 447.341 809.266 446.932C809.067 444.936 808.638 442.94 808.546 441.009C806.236 389.846 803.931 338.328 801.637 286.455C801.567 284.916 802.292 284.013 803.818 283.749L826.788 279.827C856.919 275.739 887.287 272.608 917.897 270.424L917.886 270.43Z" fill="#282444"/>
<path d="M791.272 436.872C782.622 436.781 774.476 435.474 766.831 432.951C759.19 430.724 750.341 429.4 752.845 418.206C754.237 411.982 756.321 405.339 759.104 398.265C761.888 391.186 766.412 378.528 772.682 360.303C773.703 357.306 774.165 354.8 774.476 351.803C775.653 340.722 776.991 329.49 778.49 318.102C779.914 308.446 780.183 296.697 787.033 288.908C787.253 288.65 787.646 288.623 787.898 288.843C788.027 288.951 788.102 289.112 788.108 289.279C790.966 337.957 793.26 386.661 794.985 435.393C795.001 435.818 794.797 436.076 794.383 436.173L791.267 436.867L791.272 436.872Z" fill="#282444"/>
<path d="M662.112 308.822C662.746 308.887 663.09 309.145 663.143 309.613C666.48 339.974 670.241 369.076 674.416 396.92C675.028 401.046 675.673 406.866 676.366 414.381C676.93 420.471 677.715 426.275 678.72 431.794C681.03 436.593 682.62 441.149 683.485 445.468C683.856 448.061 683.163 449.767 681.412 450.59C680.966 450.799 680.686 450.665 680.579 450.181L651.081 322.636C650.979 322.195 651.156 321.98 651.602 321.996C658.791 322.238 663.117 315.17 658.791 309.215C658.157 308.365 659.264 308.23 662.117 308.822H662.112Z" fill="#EAF4FC"/>
<path d="M53.1358 326.606L54.6671 327.838C54.8874 328.01 55.156 328.107 55.43 328.107L183.806 328.209C187.723 336.488 183.575 342.002 175.156 342.664C174.79 342.691 174.516 343.003 174.543 343.368C174.543 343.395 174.548 343.422 174.554 343.454L186.552 405.027C186.595 405.231 186.799 405.365 187.003 405.328C187.159 405.296 187.277 405.172 187.293 405.016L198.308 328.156L208.683 327.585L191.36 432.666L199.049 472.737L199.468 477.928C199.543 478.826 198.942 479.638 198.066 479.832C195.304 480.424 194.53 479.299 194.079 476.755C192.446 467.664 189.684 457.739 189.131 448.594C189.141 448.406 189.002 448.244 188.819 448.234C188.631 448.223 188.47 448.363 188.459 448.546L184.435 469.165C184.263 470.015 183.747 470.488 182.882 470.579C180.991 470.773 179.368 470.526 178.025 469.837L182.93 434.57C184.15 428.109 184.515 423.601 184.021 421.057C178.96 395.392 173.855 369.722 168.713 344.046C168.627 343.621 168.364 343.406 167.924 343.406L132.478 343.535C132.016 343.54 131.796 343.777 131.817 344.229L136.191 434.866L138.174 471.349C138.302 473.925 139.716 481.171 134.498 479.106C133.752 478.804 133.225 478.116 133.144 477.32L132.484 471.445L130.662 433.091L126.498 343.879C126.493 343.664 126.315 343.497 126.106 343.497H93.6855C93.3094 343.497 93.1052 343.686 93.0837 344.068L88.7692 434.973L86.2869 478.39C85.4111 479.993 83.7885 480.149 81.419 478.853C81.0268 477.691 80.8441 476.879 80.8763 476.416C81.9294 461.978 82.7408 447.911 83.3103 434.22L87.6248 343.896C87.6355 343.589 87.3991 343.331 87.0929 343.315C87.0875 343.315 87.0767 343.315 87.0714 343.315L46.0704 343.535C45.7587 343.54 45.5707 343.691 45.5008 343.976L23.8048 428.615L9.97485 479.24C8.72832 480.321 7.24001 480.338 5.50992 479.272C5.4347 477.75 5.73559 475.733 6.41258 473.226C8.62086 465.071 13.3222 446.899 20.5112 418.722L39.5959 343.277C39.698 342.9 39.5583 342.658 39.1768 342.556C33.0624 340.894 31.0315 336.87 33.0785 330.485C34.7925 325.143 48.6709 326.596 53.1358 326.606Z" fill="#312553"/>
<path d="M996.395 326.665C1001.63 326.719 1006.77 326.703 1011.83 326.617C1021.82 326.445 1021.84 340.571 1013.6 342.067C1013.16 342.142 1013.01 342.4 1013.13 342.83L1037.58 433.274C1041.44 447.523 1045.35 461.515 1049.32 475.259C1049.78 476.836 1049.69 478.073 1049.05 478.96C1047.08 479.907 1045.65 479.826 1044.76 478.729C1044.02 477.707 1043.54 476.814 1043.33 476.05C1037.52 454.581 1031.59 433.112 1025.56 411.649L1007.6 344.53C1007.43 343.901 1006.85 343.465 1006.2 343.46L966.516 343.519C966.409 343.519 966.318 343.605 966.318 343.718C966.318 343.718 966.318 343.723 966.318 343.729L973.018 433.763C974.114 447.981 975.21 462.198 976.301 476.411C976.338 476.884 976.15 477.605 975.731 478.584C974.474 479.993 972.942 479.87 971.137 478.213L967.564 434.102L960.864 343.987C960.848 343.713 960.617 343.497 960.343 343.497H916.295C915.785 343.497 915.522 343.75 915.506 344.261L912.271 435.818L910.718 477.874C908.881 480.391 907.049 480.364 905.233 477.793L906.844 437.534L910.16 344.03C910.17 343.659 909.88 343.347 909.509 343.336C909.504 343.336 909.493 343.336 909.488 343.336L874.994 343.315C874.612 343.315 874.29 343.578 874.214 343.944L856.129 434.731L847.978 476.884C847.35 479.439 845.894 480.321 843.605 479.541C842.498 479.165 842.073 478.18 842.331 476.594L850.332 434.882L868.406 343.234C868.492 342.793 868.315 342.583 867.874 342.604C859.734 342.986 852.196 337.855 857.01 328.699C857.913 328.468 859.353 328.086 860.325 328.086C904.572 328.188 948.818 328.156 993.059 327.994C994.23 327.983 995.541 327.263 996.385 326.671L996.395 326.665Z" fill="#312553"/>
<path d="M359.889 437.539C359.357 437.9 359.088 438.481 359.088 439.282L353.79 451.644L317.872 451.493C317.27 446.91 317.77 442.58 319.393 438.502C318.973 434.22 319.393 429.632 320.634 424.758C323.326 414.101 326.13 403.445 329.026 392.778C335.404 369.749 342.453 347.015 350.185 324.589L359.889 437.539Z" fill="#78708E"/>
<path d="M708.072 429.094L707.331 434.317L706.552 443.973C698.798 443.785 691.11 444.285 683.48 445.458C682.615 441.138 681.025 436.582 678.714 431.783C688.23 430.051 698.014 429.153 708.072 429.088V429.094Z" fill="#312553"/>
<path d="M766.831 432.951C774.476 435.474 782.622 436.781 791.272 436.872C786.356 446.426 789.848 452.042 788.72 460.181C786.587 459.891 785.555 459.89 784.443 461.913C777.963 473.775 764.418 477.524 751.69 477.815L757.407 458.799L764.966 435.662L766.831 432.945V432.951Z" fill="#FFAD94"/>
<path d="M290.341 451.746L294.226 465.55C296.445 470.278 299.368 474.985 303.005 479.676C302.129 479.337 301.436 480.327 300.92 482.645C289.567 483.576 273.045 479.977 269.37 467.599L268.812 453.764L290.341 451.746Z" fill="#FFAD94"/>
<path d="M260.054 454.054L260.946 465.603C259.871 466.039 260.29 467.007 262.208 468.519L257.523 476.599C257.217 477.126 256.685 477.486 256.083 477.573C248.899 478.584 242.06 477.642 235.558 474.738C234.258 474.157 233.538 472.742 233.828 471.349L235.403 463.758C235.494 463.323 235.338 463.021 234.93 462.855L234.199 462.553L234.64 462.505C235.059 462.457 235.295 462.231 235.349 461.822L236.262 454.371L260.043 454.059L260.054 454.054Z" fill="#FFAD94"/>
<path d="M788.726 460.181C783.788 466.174 788.554 469.504 788.285 476.039C788.183 478.546 790.606 481.134 791.589 483.097C791.734 483.377 791.901 483.388 792.078 483.129L793.502 481.193C793.233 484.27 792.61 488.541 788.967 488.74C770.549 489.741 752.114 490.682 733.674 491.575L731.299 491.042C730.273 489.784 730.612 488.277 732.32 486.529L735.523 484.022C740.933 480.72 746.322 478.654 751.695 477.825C764.424 477.535 777.969 473.786 784.449 461.924C785.561 459.907 786.592 459.907 788.726 460.192V460.181Z" fill="#282444"/>
<path d="M313.369 464.511C317.163 466.324 320.51 468.487 323.401 471.01C327.146 473.968 332.771 477.443 334.684 481.946L322.149 482.005C315.54 481.951 309.157 481.171 303.005 479.67C299.373 474.98 296.445 470.273 294.226 465.544L313.369 464.511Z" fill="#312553"/>
<path d="M260.946 465.604C261.311 466.787 262.069 467.411 263.229 467.47L262.208 468.514C260.29 467.002 259.871 466.034 260.946 465.598V465.604Z" fill="#7586A6"/>
</g>
<defs>
<clipPath id="clip0_494_25906">
<rect width="1183.75" height="496.047" fill="white" transform="translate(0.126221 0.310547)"/>
</clipPath>
</defs>
</svg>
