<svg width="82" height="80" viewBox="0 0 82 80" fill="none" xmlns="http://www.w3.org/2000/svg">
<g clip-path="url(#clip0_481_4723)">
<path d="M14.4825 0.697266H67.3011C75.309 0.697266 81.7836 7.12009 81.7836 15.0641V65.4326C81.7836 73.3766 75.309 79.7994 67.3011 79.7994H14.4825C6.47453 79.7994 0 73.3766 0 65.4326V15.0641C0 7.12009 6.47453 0.697266 14.4825 0.697266Z" fill="#330000"/>
<path d="M39.6307 48.1585H26.9543L24.3644 56.1026C24.2963 56.4068 24.0237 56.6096 23.717 56.5758H17.3106C16.9358 56.5758 16.8335 56.373 16.9358 55.9673L27.9084 24.6307C28.0106 24.2927 28.1129 23.9208 28.2492 23.5152C28.3855 22.8053 28.4536 22.0616 28.4536 21.3179C28.4195 21.1489 28.5559 20.9798 28.7262 20.946H37.552C37.8247 20.946 37.961 21.0475 37.995 21.2165L50.433 56.0349C50.5352 56.4068 50.433 56.5758 50.0922 56.5758H42.9702C42.7317 56.6096 42.4931 56.4406 42.425 56.204L39.6307 48.1585ZM28.9307 41.2963H37.5861C37.3817 40.5864 37.109 39.7413 36.8024 38.8623C36.4957 37.9496 36.189 36.9693 35.8823 35.9552C35.5415 34.9072 35.2348 33.8931 34.8941 32.8452C34.5533 31.7972 34.2466 30.8169 33.974 29.8366C33.7014 28.8901 33.4629 28.0112 33.2243 27.1998H33.1562C32.8495 28.6534 32.4746 30.107 31.9976 31.5606C31.4864 33.1832 30.9753 34.8734 30.4301 36.5636C29.953 38.2877 29.4418 39.8765 28.9307 41.2963Z" fill="#FF9A00"/>
<path d="M57.8613 26.7266C56.7368 26.7604 55.6464 26.3209 54.8285 25.5434C54.0448 24.6983 53.6359 23.5828 53.6699 22.4334C53.6359 21.2841 54.0789 20.2024 54.8967 19.4249C55.7145 18.6474 56.805 18.2417 57.9295 18.2417C59.2585 18.2417 60.2808 18.6474 61.0305 19.4249C61.7801 20.2362 62.1891 21.3179 62.155 22.4334C62.1891 23.5828 61.7801 24.6983 60.9623 25.5434C60.1785 26.3547 59.0199 26.7942 57.8613 26.7266ZM54.0448 56.0688V30.0394C54.0448 29.7014 54.1811 29.5662 54.4878 29.5662H61.2349C61.5416 29.5662 61.6779 29.7352 61.6779 30.0394V56.0688C61.6779 56.4406 61.5416 56.6096 61.2349 56.6096H54.5559C54.2152 56.6096 54.0448 56.4068 54.0448 56.0688Z" fill="#FF9A00"/>
</g>
<defs>
<clipPath id="clip0_481_4723">
<rect width="81.7836" height="79.1021" fill="white" transform="translate(0 0.697266)"/>
</clipPath>
</defs>
</svg>
