<svg width="751" height="739" viewBox="0 0 751 739" fill="none" xmlns="http://www.w3.org/2000/svg">
<g clip-path="url(#clip0_425_4470)">
<path d="M375.715 738.459C582.979 738.459 751 734.568 751 729.767C751 724.966 582.979 721.075 375.715 721.075C168.451 721.075 0.429688 724.966 0.429688 729.767C0.429688 734.568 168.451 738.459 375.715 738.459Z" fill="#483193"/>
<path d="M372.432 728.163C372.463 727.093 372.458 726.013 372.411 724.928C371.372 700.034 350.342 680.692 325.442 681.731C313.241 682.239 302.381 687.551 294.595 695.761L294.605 695.735C279.065 712.092 251.625 704.993 245.938 683.205C242.432 669.159 229.442 659.029 214.41 659.657C198.117 660.337 185.272 673.412 184.587 689.41H184.581C184.062 701.151 175.949 711.193 164.569 714.169C160.159 715.316 156.145 717.409 152.737 720.202C152.457 719.693 152.15 719.195 151.813 718.707C147.58 712.611 140.183 710.02 133.364 711.609C127.027 713.089 120.452 710.352 117.034 704.812C116.868 704.547 116.696 704.282 116.515 704.017C110.978 696.036 100.018 694.058 92.0353 699.593C90.207 700.865 88.6956 702.418 87.5114 704.157C83.3094 710.342 75.2224 712.533 68.4755 709.319C60.4975 705.533 50.7744 705.995 42.999 711.385C37.1091 715.472 33.4889 721.604 32.4033 728.163H372.432Z" fill="#483193"/>
<path d="M93.7139 619.487C93.8229 618.734 94.467 618.152 95.2512 618.152C95.5888 618.152 95.9004 618.261 96.1549 618.443C96.4666 617.779 97.1366 617.317 97.9156 617.317C97.9624 617.317 98.0091 617.317 98.0559 617.322C98.3831 615.92 99.6348 614.871 101.141 614.871C102.865 614.871 104.262 616.247 104.304 617.96C105.421 617.986 106.387 618.594 106.932 619.482H93.7139V619.487Z" fill="#483193"/>
<path d="M77.8978 619.487C78.0744 618.251 79.1339 617.301 80.4219 617.301C80.9777 617.301 81.4867 617.477 81.9074 617.779C82.4164 616.688 83.5174 615.935 84.7951 615.935C84.873 615.935 84.9457 615.94 85.0236 615.946C85.5586 613.645 87.6153 611.927 90.0772 611.927C92.9026 611.927 95.1931 614.18 95.2658 616.989C97.094 617.036 98.6833 618.028 99.5714 619.487H77.8926H77.8978Z" fill="#483193"/>
<path d="M79.0195 623.158V677.634C79.0195 680.105 81.0244 682.115 83.5019 682.115H101.421C103.893 682.115 105.904 680.11 105.904 677.634V623.158H79.0247H79.0195Z" fill="#AE9AE3"/>
<path d="M88.6182 623.158V677.634C88.6182 680.105 90.623 682.115 93.1006 682.115H101.421C103.894 682.115 105.904 680.11 105.904 677.634V623.158H88.6234H88.6182Z" fill="#F5E1FF"/>
<path d="M108.215 619.451H76.7031V623.672H108.215V619.451Z" fill="#AE9AE3"/>
<path d="M85.875 619.451H80.1826V623.672H85.875V619.451Z" fill="#F5E1FF"/>
<path d="M103.634 597.668C103.634 599.205 104.88 600.451 106.418 600.451C107.955 600.451 109.202 599.205 109.202 597.668C109.202 596.131 107.955 594.885 106.418 594.885C104.88 594.885 103.634 596.131 103.634 597.668Z" fill="#483193"/>
<path d="M103.746 589.166C106.366 588.551 107.99 585.929 107.375 583.311C106.76 580.692 104.137 579.068 101.518 579.683C98.8988 580.298 97.2742 582.92 97.8895 585.538C98.5048 588.157 101.127 589.781 103.746 589.166Z" fill="#483193"/>
<path d="M98.9071 569.649C101.113 569.649 102.901 567.861 102.901 565.656C102.901 563.45 101.113 561.663 98.9071 561.663C96.7013 561.663 94.9131 563.45 94.9131 565.656C94.9131 567.861 96.7013 569.649 98.9071 569.649Z" fill="#483193"/>
<path d="M61.687 594.189C64.0879 594.189 66.0342 592.243 66.0342 589.843C66.0342 587.442 64.0879 585.497 61.687 585.497C59.2862 585.497 57.3398 587.442 57.3398 589.843C57.3398 592.243 59.2862 594.189 61.687 594.189Z" fill="#483193"/>
<path d="M85.9082 587.408C88.6142 586.737 90.2634 583.999 89.5917 581.294C88.92 578.589 86.1819 576.94 83.4758 577.612C80.7698 578.283 79.1207 581.021 79.7924 583.726C80.464 586.431 83.2022 588.08 85.9082 587.408Z" fill="#483193"/>
<path d="M71.2543 578.175C73.6093 578.175 75.5184 576.266 75.5184 573.912C75.5184 571.557 73.6093 569.649 71.2543 569.649C68.8993 569.649 66.9902 571.557 66.9902 573.912C66.9902 576.266 68.8993 578.175 71.2543 578.175Z" fill="#483193"/>
<path d="M80.9601 600.111C82.7326 599.824 83.9368 598.155 83.6497 596.383C83.3626 594.611 81.693 593.407 79.9204 593.694C78.1479 593.981 76.9437 595.65 77.2308 597.422C77.5179 599.194 79.1875 600.398 80.9601 600.111Z" fill="#483193"/>
<path d="M90.3111 614.268C93.7286 592.579 101.223 586.229 101.296 586.172L100.745 585.502C100.429 585.761 92.9184 592.127 89.4541 614.133L90.3111 614.268Z" fill="#483193"/>
<path d="M93.2564 615.701C96.4766 603.162 106.506 598.109 106.604 598.057L106.22 597.279C106.116 597.33 95.7339 602.564 92.415 615.483L93.2512 615.701H93.2564Z" fill="#483193"/>
<path d="M89.7242 616.694C94.6117 608.993 97.8528 600.565 99.359 591.65C100.87 582.698 100.294 571.991 99.5356 566.975L98.6786 567.105C99.4006 571.877 99.9927 582.719 98.5072 591.504C97.0218 600.306 93.8223 608.624 88.9971 616.231L89.7294 616.694H89.7242Z" fill="#483193"/>
<path d="M90.1087 618.366C92.6382 612.181 93.0226 606.89 91.2358 602.632C90.6126 601.147 89.8802 600.119 89.1063 599.023C88.2441 597.808 87.3507 596.557 86.5405 594.547C85.1693 591.157 84.7382 587.366 85.2628 583.279L84.4058 583.17C83.8604 587.402 84.3123 591.338 85.7406 594.874C86.5924 596.977 87.5118 598.276 88.4051 599.527C89.153 600.581 89.8594 601.578 90.4463 602.97C92.1344 607.004 91.7552 612.077 89.3141 618.038L90.1139 618.366H90.1087Z" fill="#483193"/>
<path d="M87.3556 617.851L87.8802 617.161C82.8836 613.386 74.085 605.036 71.3322 591.489C70.0909 585.367 70.2623 579.11 71.8516 572.889L71.0154 572.676C69.3949 579.027 69.2183 585.414 70.4856 591.665C73.2956 605.488 82.2655 614.009 87.3608 617.857L87.3556 617.851Z" fill="#483193"/>
<path d="M84.239 617.435L85.0804 617.227C83.5742 611.178 80.6553 605.461 76.6353 600.695C72.6361 595.954 67.5306 592.122 61.859 589.614L61.5059 590.404C67.058 592.86 72.0596 596.608 75.9705 601.25C79.9022 605.918 82.764 611.516 84.2339 617.435H84.239Z" fill="#483193"/>
<path d="M81.0432 598.604L80.2119 598.852L85.9638 618.165L86.7951 617.918L81.0432 598.604Z" fill="#483193"/>
<path d="M88.9238 636.649L88.8511 637.49L80.7952 724.595C80.7485 725.073 80.3486 725.436 79.8707 725.436H79.8655C79.6058 725.436 79.3565 725.327 79.1799 725.135C79.0033 724.943 78.915 724.684 78.941 724.424L86.9709 637.49L87.0696 636.483L88.9342 636.649H88.9238Z" fill="#483193"/>
<path d="M121.086 689.094H65.1104V690.958H121.086V689.094Z" fill="#483193"/>
<path d="M130.72 724.273C130.793 724.554 130.736 724.85 130.559 725.078C130.383 725.307 130.112 725.442 129.822 725.442C129.401 725.442 129.032 725.156 128.923 724.751L105.903 637.495H78.8064L58.2487 724.73C58.15 725.151 57.776 725.447 57.3449 725.447H57.3345C57.0488 725.447 56.784 725.317 56.6074 725.094C56.4308 724.87 56.3684 724.58 56.4308 724.304L77.3209 635.636H107.337L130.725 724.284L130.72 724.273Z" fill="#483193"/>
<path d="M35.161 409.965C35.0529 409.651 35.0889 409.765 35.161 409.965V409.965Z" fill="#F0EFFF"/>
<path d="M35.2295 410.164C35.2967 410.35 35.3328 410.448 35.2295 410.164V410.164Z" fill="#F0EFFF"/>
<path d="M35.1611 409.967C35.1714 410.003 35.1765 410.013 35.1919 410.054C35.1816 410.023 35.1714 409.998 35.1611 409.967Z" fill="#F0EFFF"/>
<path d="M35.2279 410.162C35.2177 410.126 35.2025 410.096 35.1924 410.06C35.2127 410.111 35.2177 410.126 35.2279 410.162Z" fill="#F0EFFF"/>
<path d="M729.17 375.545C735.626 371.983 740.358 365.949 742.295 358.836C744.233 351.722 743.204 344.13 739.449 337.785L708.072 284.842C697.435 273.049 699.705 261.459 703.689 253.598C708.628 243.872 710.773 232.937 709.89 222.053C699.378 93.2669 610.436 37.9609 545.434 14.6306C500.646 -1.44555 452.004 -4.04183 405.7 7.02353C391.635 10.3987 377.975 14.8851 365.426 20.7786C325.832 39.3213 295.406 70.1652 275.42 106.955C267.452 121.618 261.131 137.243 256.54 153.392C244.993 194.034 244.443 238.129 256.16 279.151C259.64 291.374 264.201 303.343 269.899 314.855C269.95 314.953 325.422 405.262 342.765 433.484C345.969 438.697 346.468 445.152 344.126 450.796L325.765 520.013L223.636 617.581C193.443 648.16 175.098 685.848 170.803 725.441H577.143L564.345 586.348C562.937 571.077 567.222 555.821 576.379 543.52C579.932 538.748 582.477 536.671 582.477 536.671C599.238 515.755 669.003 518.528 669.003 518.528C710.867 518.528 703.886 480.856 703.886 480.856C698.318 465.512 701.086 451.575 701.086 451.575C717.847 444.596 709.48 425.067 709.48 425.067C729.014 419.474 720.621 404.151 720.621 404.151L714.341 381.122C720.392 379.606 725.259 377.7 729.165 375.551L729.17 375.545Z" fill="#9B94F9"/>
<path d="M729.17 375.545C735.626 371.983 740.358 365.949 742.295 358.836C744.233 351.722 743.204 344.13 739.449 337.785L708.072 284.842C697.435 273.049 699.705 261.459 703.689 253.598C708.628 243.872 710.773 232.937 709.89 222.053C699.378 93.2669 610.436 37.9609 545.434 14.6306C500.646 -1.44555 452.004 -4.04183 405.7 7.02353C391.635 10.3987 377.975 14.8851 365.426 20.7786C325.832 39.3213 295.406 70.1652 275.42 106.955C267.452 121.618 261.131 137.243 256.54 153.392C244.993 194.034 244.443 238.129 256.16 279.151C259.64 291.374 264.201 303.343 269.899 314.855C269.95 314.953 325.422 405.262 342.765 433.484C345.969 438.697 346.468 445.152 344.126 450.796L325.765 520.013L223.636 617.581C193.443 648.16 175.098 685.848 170.803 725.441H577.143L564.345 586.348C562.937 571.077 567.222 555.821 576.379 543.52C579.932 538.748 582.477 536.671 582.477 536.671C599.238 515.755 669.003 518.528 669.003 518.528C710.867 518.528 703.886 480.856 703.886 480.856C698.318 465.512 701.086 451.575 701.086 451.575C717.847 444.596 709.48 425.067 709.48 425.067C729.014 419.474 720.621 404.151 720.621 404.151L714.341 381.122C720.392 379.606 725.259 377.7 729.165 375.551L729.17 375.545Z" fill="#AE9AE3"/>
<path d="M347.564 727.482H709.999C709.895 724.398 710.576 721.262 712.118 718.374C717.317 708.659 717.021 696.446 710.306 686.772C700.759 673.012 681.858 669.601 668.099 679.145C661.358 683.823 657.104 690.745 655.639 698.206V698.191C652.699 713.062 634.567 718.904 623.499 708.581C616.456 701.867 605.434 700.792 597.129 706.551C590.943 710.845 587.785 717.871 588.159 724.875C584.253 720.997 579.501 717.98 574.213 716.131C561.249 711.608 552.627 699.313 552.793 685.589C552.798 684.924 552.793 684.259 552.767 683.589C551.915 663.126 534.625 647.226 514.155 648.083C509.46 648.28 505.009 649.35 500.942 651.11C486.477 657.383 469.596 652.159 461.197 638.814V638.824C451.267 623.07 433.42 612.913 413.475 613.744C383.828 614.98 360.798 640.013 362.034 669.653C362.278 675.489 363.457 681.066 365.4 686.258C370.885 700.969 364.86 717.492 351.179 725.213H351.184C349.943 725.919 348.738 726.683 347.559 727.482H347.564Z" fill="#483193"/>
<path d="M474.857 95.8269H378.67V412.735H474.857V95.8269Z" fill="#1F005A"/>
<path d="M385.49 95.8269H378.67V412.735H385.49V95.8269Z" fill="#483193"/>
<path d="M427.607 453.782H329.104V466.203H427.607V453.782Z" fill="#483193"/>
<path d="M472.447 453.782H427.462V466.203H472.447V453.782Z" fill="#7751C7"/>
<path d="M370.879 506.185H272.375V518.606H370.879V506.185Z" fill="#483193"/>
<path d="M415.718 506.185H370.733V518.606H415.718V506.185Z" fill="#7751C7"/>
<path d="M314.15 558.589H215.646V571.009H314.15V558.589Z" fill="#483193"/>
<path d="M358.984 558.589H313.999V571.009H358.984V558.589Z" fill="#7751C7"/>
<path d="M257.417 610.992H158.913V623.413H257.417V610.992Z" fill="#483193"/>
<path d="M302.256 610.992H257.271V623.413H302.256V610.992Z" fill="#7751C7"/>
<path d="M200.688 663.396H102.185V675.816H200.688V663.396Z" fill="#483193"/>
<path d="M245.528 663.396H200.543V675.816H245.528V663.396Z" fill="#7751C7"/>
<path d="M377.252 193.806C375.689 196.147 373.216 197.757 370.432 198.266L344.358 202.965L339.959 203.755L293.052 212.213C291.089 212.561 289.079 211.928 287.672 210.521C286.264 209.098 285.63 207.088 286.009 205.125L297.353 144.237L303.035 142.783L302.672 193.395L364.007 176.79C367.155 175.938 370.526 176.411 373.325 178.119C376.125 179.827 378.088 182.595 378.784 185.788C379.387 188.556 378.831 191.448 377.247 193.806H377.252Z" fill="#F7E5FF"/>
<path d="M436.562 417.154L431.508 425.057L396.568 407.973L390.403 404.967L315.438 368.307C313.366 367.284 311.808 365.477 311.081 363.281C310.348 361.1 310.515 358.716 311.548 356.655L349.464 274.467L363.467 273.434L381.61 290.19L363.311 319.824L359.338 326.247L356.014 331.648L352.082 337.993L342.572 353.95C355.292 361.089 402.131 394.021 436.562 417.159V417.154Z" fill="#2A1968"/>
<path d="M396.564 407.972L390.404 404.961L389.988 388.039L396.564 407.972Z" fill="#1F005A"/>
<path d="M352.082 337.988L356.004 331.637L359.333 326.247L363.317 319.814L357.816 289.151L356.705 319.871L352.082 337.988Z" fill="#1F005A"/>
<path d="M355.951 273.839L367.009 378.484L379.008 500.292L388.767 500.364C390.476 456.222 392.299 390.137 390.429 376.335L394.003 302.164C397.477 290.979 398.002 285.132 396.947 278.278C396.615 276.118 396.122 273.859 395.519 271.305L355.946 273.839H355.951Z" fill="#483193"/>
<path d="M338.095 148.926L342.473 162.977L345.226 171.805L348.207 181.38L363.192 172.526L359.634 163.689L358.73 149.435L352.788 143.884L338.095 148.926Z" fill="#F38A98"/>
<path d="M342.474 162.977L345.232 171.809C350.701 168.076 345.694 159.488 345.694 159.488L342.479 162.982L342.474 162.977Z" fill="#DF5368"/>
<path d="M335.405 135.181L332.911 144.159C332.911 144.159 331.151 147.716 335.919 150.39L340.52 139.429L335.41 135.181H335.405Z" fill="#2A1968"/>
<path d="M335.404 135.181C336.604 131.173 340.826 128.898 344.836 130.098C345.2 130.207 345.532 130.368 345.865 130.524C351.469 129.412 355.764 133.016 358.953 137.253C360.491 139.299 361.644 139.06 363.82 140.01C364.963 140.509 365.913 141.475 366.547 142.529C367.809 144.637 367.944 147.415 366.734 149.575L366.131 150.65C365.498 151.792 364.646 152.743 363.669 153.48L363.264 155.884C362.761 158.854 361.488 161.404 359.639 163.694L357.276 155.126C356.414 154.986 355.567 154.7 354.767 154.259C354.658 154.202 354.559 154.134 354.466 154.072C355.068 152.535 354.487 151.367 353.853 150.629C353.136 149.819 352.092 149.482 351.085 149.643C350.399 147.457 350.612 144.938 351.869 142.7C351.947 142.565 352.04 142.467 352.118 142.331L348.737 141.854C346.893 144.346 343.642 145.561 340.494 144.621C336.484 143.422 334.209 139.2 335.404 135.192V135.181Z" fill="#2A1968"/>
<path d="M347.865 153.962L348.005 152.991C348.078 152.488 348.244 152 348.498 151.564C348.613 151.366 348.743 151.174 348.893 150.998C349.127 150.717 349.413 150.426 349.755 150.188C350.155 149.886 350.623 149.694 351.085 149.632C352.093 149.471 353.136 149.809 353.853 150.619C354.492 151.356 355.074 152.524 354.471 154.061C354.3 154.518 354.025 154.996 353.625 155.51C353.625 155.51 353.199 156.086 352.524 156.751L359.639 163.688C361.171 162.156 358.709 159.009 359.598 157.031C359.946 156.257 360.382 155.577 361.145 154.804C361.26 154.679 361.389 154.56 361.519 154.44L363.259 152.83C365.685 149.31 364.21 146.823 363.332 145.816C359.509 141.412 353.427 139.876 348.067 141.745C347.345 141.994 346.649 142.306 345.969 142.674C345.678 142.835 345.419 143.022 345.19 143.256C343.383 145.073 344.691 147.124 344.691 147.124C346.322 149.471 345.481 152.488 345.351 153.594L347.87 153.952L347.865 153.962Z" fill="#2A1968"/>
<path d="M333.696 155.406L334.158 165.09C334.21 166.154 334.708 167.136 335.524 167.8C336.666 168.74 338.193 168.725 339.58 168.47C341.107 168.19 342.899 167.863 344.213 167.006C345.782 165.983 346.498 163.719 346.95 162.001C347.495 159.939 347.573 157.831 347.734 155.718L347.864 153.958L345.267 152.286C345.267 152.286 344.888 154.238 342.499 155.344C341.803 155.676 340.946 155.92 339.866 156.04C338.297 156.201 336.282 156.066 333.69 155.406H333.696Z" fill="#2A1968"/>
<path d="M334.724 155.676L334.199 155.551L339.377 156.408C340.702 156.569 341.787 156.72 342.873 156.185C343.974 155.655 344.805 154.71 345.195 153.552C345.21 153.485 345.241 153.422 345.262 153.344C345.278 153.293 345.304 153.241 345.319 153.178C345.319 153.178 346.337 150.447 344.686 147.134C344.686 147.134 343.382 145.083 345.184 143.266C345.413 143.032 345.667 142.845 345.963 142.684C346.644 142.316 347.34 142.004 348.061 141.755L337.767 140.306L335.95 148.204L332.709 153.999C332.563 154.238 332.537 154.528 332.641 154.788C332.745 155.048 332.968 155.24 333.238 155.312L334.724 155.686V155.676Z" fill="#F38A98"/>
<path d="M345.419 175.408L344.998 214.134C344.998 215.064 345.029 215.999 345.097 216.938L349.465 274.467L395.53 271.294L394.637 259.466C394.637 259.388 394.637 259.31 394.632 259.232C394.652 258.811 394.694 257.28 394.767 255.067C394.99 247.954 395.421 233.84 395.52 227.459C395.541 225.787 395.535 224.639 395.504 224.291L394.86 217.525L394.481 213.532L392.912 196.843C392.497 192.565 390.274 188.701 386.773 186.235L366.184 172.786L362.876 168.476L345.419 175.398V175.408Z" fill="white"/>
<path d="M345.413 175.424L342.562 180.73C341.98 181.816 342.328 183.171 343.367 183.841L345.237 185.045L345.413 175.424Z" fill="#5A50EE"/>
<path d="M373.455 203.069L390.242 233.43L394.766 255.073C394.989 247.959 395.42 233.845 395.519 227.464L373.455 203.069Z" fill="#F7E5FF"/>
<path d="M377.174 272.561L396.952 278.278C396.62 276.118 396.126 273.859 395.524 271.305L377.169 272.561H377.174Z" fill="#2A1968"/>
<path d="M401.155 238.446C401.155 238.446 373.549 203.962 373.46 203.853C369.876 199.284 371.061 192.497 375.148 188.649C380.27 183.831 388.325 185.757 391.727 191.682L414.41 231.332C414.976 232.319 415.298 233.425 415.355 234.557L418.284 293.285L413.256 293.814L401.155 238.446Z" fill="white"/>
<path d="M402.625 245.503C402.469 245.503 402.329 245.394 402.293 245.233L400.844 238.592C399.15 236.473 373.284 204.165 373.196 204.056C369.701 199.601 370.474 192.57 374.921 188.39C375.056 188.26 375.274 188.265 375.404 188.405C375.533 188.54 375.528 188.758 375.388 188.888C371.196 192.835 370.454 199.45 373.736 203.635C373.871 203.806 401.15 237.885 401.431 238.228C401.462 238.27 401.488 238.316 401.498 238.368L402.968 245.087C403.01 245.269 402.89 245.456 402.708 245.492C402.682 245.492 402.656 245.498 402.636 245.498L402.625 245.503Z" fill="#D6ADEB"/>
<path d="M403.633 250.103C403.477 250.103 403.337 249.994 403.301 249.833L402.74 247.273C402.698 247.092 402.818 246.905 402.999 246.868C403.197 246.832 403.368 246.946 403.405 247.128L403.965 249.688C404.007 249.87 403.888 250.051 403.706 250.093C403.68 250.093 403.654 250.098 403.633 250.098V250.103Z" fill="#D6ADEB"/>
<path d="M401.155 238.784C401.02 238.784 400.895 238.706 400.838 238.576C400.765 238.399 400.848 238.202 401.02 238.129L404.832 236.535C405.003 236.463 405.206 236.546 405.279 236.717C405.351 236.888 405.268 237.091 405.097 237.164L401.285 238.758C401.243 238.778 401.196 238.784 401.155 238.784Z" fill="#D6ADEB"/>
<path d="M369.965 408.819C369.794 408.819 369.643 408.69 369.628 408.513L366.672 378.516L364.989 362.585C364.969 362.398 365.104 362.226 365.296 362.211C365.478 362.185 365.649 362.325 365.67 362.512L367.353 378.448L370.308 408.445C370.329 408.632 370.189 408.799 370.002 408.819C369.991 408.819 369.981 408.819 369.965 408.819Z" fill="white"/>
<path d="M364.958 359.36C364.786 359.36 364.636 359.23 364.62 359.054L364.246 355.528C364.225 355.341 364.36 355.17 364.553 355.154C364.734 355.123 364.906 355.268 364.927 355.455L365.301 358.981C365.321 359.168 365.186 359.339 364.994 359.355C364.984 359.355 364.968 359.355 364.958 359.355V359.36Z" fill="white"/>
<path d="M364.153 351.758C363.982 351.758 363.831 351.628 363.816 351.452L355.614 273.87C355.594 273.683 355.729 273.511 355.921 273.496C356.103 273.47 356.274 273.61 356.295 273.797L364.496 351.379C364.517 351.566 364.382 351.738 364.19 351.753C364.179 351.753 364.164 351.753 364.153 351.753V351.758Z" fill="white"/>
<path d="M407.044 317.393L404.992 310.108C404.509 308.4 405.512 306.619 407.221 306.136L420.138 302.502C420.963 302.268 421.836 302.372 422.584 302.792C423.332 303.213 423.877 303.898 424.106 304.724L426.157 312.009L407.044 317.388V317.393ZM421.01 304.828C420.943 304.828 420.87 304.838 420.802 304.859L407.885 308.494C407.475 308.608 407.236 309.034 407.35 309.444L408.737 314.377L423.14 310.321L421.753 305.394C421.696 305.196 421.566 305.03 421.389 304.932C421.275 304.864 421.145 304.833 421.015 304.833L421.01 304.828Z" fill="#2A1968"/>
<path d="M445.702 302.542L382.986 320.19C379.357 321.211 377.244 324.979 378.265 328.606L389.788 369.533C390.809 373.16 394.578 375.273 398.206 374.252L460.923 356.604C464.551 355.583 466.664 351.815 465.643 348.188L454.121 307.261C453.099 303.634 449.33 301.521 445.702 302.542Z" fill="#2A1968"/>
<path d="M384.503 351.078C384.332 351.078 384.171 350.964 384.124 350.787L377.896 328.682C376.816 324.85 379.06 320.857 382.893 319.777L397.446 315.68C397.659 315.613 397.872 315.743 397.935 315.955C397.992 316.163 397.872 316.381 397.659 316.444L383.106 320.541C379.693 321.501 377.699 325.058 378.66 328.475L384.887 350.58C384.945 350.787 384.825 351.005 384.612 351.068C384.576 351.078 384.539 351.083 384.503 351.083V351.078Z" fill="white"/>
<path d="M396.366 374.87C395.145 374.87 393.94 374.559 392.844 373.946C391.161 373.001 389.946 371.459 389.421 369.605L385.204 354.63C385.147 354.422 385.266 354.204 385.479 354.142C385.692 354.079 385.91 354.204 385.967 354.417L390.185 369.392C390.652 371.044 391.733 372.414 393.228 373.256C394.724 374.097 396.464 374.299 398.116 373.837L433.238 363.95C433.445 363.883 433.669 364.013 433.726 364.226C433.783 364.439 433.663 364.651 433.45 364.714L398.329 374.6C397.68 374.782 397.015 374.876 396.36 374.876L396.366 374.87Z" fill="white"/>
<path d="M437.065 363.68C436.894 363.68 436.733 363.566 436.686 363.39C436.629 363.182 436.748 362.964 436.961 362.902L440.711 361.842C440.924 361.78 441.137 361.905 441.2 362.117C441.257 362.325 441.137 362.543 440.924 362.606L437.174 363.665C437.138 363.675 437.102 363.68 437.065 363.68Z" fill="white"/>
<path d="M422.268 331.367C422.595 332.53 421.92 333.735 420.756 334.062C419.593 334.389 418.388 333.714 418.061 332.551L417.105 329.165C416.778 328.002 417.453 326.798 418.616 326.471C419.78 326.143 420.985 326.818 421.312 327.982L422.268 331.367Z" fill="white"/>
<path d="M290.513 140.281L289.625 148.993L304.51 150.515C304.51 150.515 304.547 150.515 304.562 150.52C305.731 150.639 306.879 148.786 307.123 146.382C307.367 143.977 306.619 141.927 305.456 141.807C305.435 141.807 305.419 141.807 305.399 141.807L290.513 140.281Z" fill="#F95DB7"/>
<path d="M270.033 134.75L268.449 150.271L294.97 152.982V152.971C295.001 152.971 295.032 152.987 295.068 152.992C297.151 153.205 299.192 149.902 299.629 145.619C300.065 141.335 298.735 137.684 296.652 137.477C296.621 137.477 296.585 137.477 296.554 137.477V137.466L270.033 134.756V134.75Z" fill="#F95DB7"/>
<path d="M243.602 156.45L270.808 155.718C274.272 156.071 277.669 150.577 278.396 143.443C279.123 136.308 276.911 130.243 273.446 129.89L246.952 123.675L243.602 156.45Z" fill="#F95DB7"/>
<path d="M246.952 123.675C251.284 124.116 254.047 131.811 253.122 140.862C252.198 149.913 247.933 156.891 243.602 156.45C239.27 156.009 236.507 148.313 237.431 139.263C238.356 130.212 242.62 123.233 246.952 123.675Z" fill="#2A1968"/>
<path d="M211.606 155.375L242.412 154.545C246.333 154.944 250.182 148.724 251.008 140.644C251.834 132.57 249.325 125.695 245.404 125.295L215.403 118.254L211.612 155.37L211.606 155.375Z" fill="#5A50EE"/>
<path d="M222.369 137.714C223.416 127.463 220.288 118.747 215.382 118.247C210.477 117.746 205.652 125.65 204.605 135.9C203.558 146.151 206.686 154.867 211.591 155.367C216.497 155.868 221.322 147.964 222.369 137.714Z" fill="#2A1968"/>
<path d="M215.954 120.035C219.527 120.403 221.813 127.195 221.361 135.612C221.34 135.986 221.314 136.365 221.283 136.744C221.262 137.03 221.236 137.316 221.205 137.606C220.254 146.917 216.359 154.145 212.51 153.75C210.453 153.537 208.822 151.195 207.898 147.644C207.815 147.316 207.732 146.974 207.659 146.626C207.041 143.687 206.864 140.057 207.259 136.184C208.21 126.873 212.105 119.645 215.954 120.04V120.035Z" fill="#F9EDFF"/>
<path d="M310.485 142.321L309.597 151.034L324.482 152.555C324.482 152.555 324.518 152.555 324.534 152.56C325.703 152.68 326.85 150.826 327.095 148.422C327.339 146.018 326.591 143.967 325.427 143.848C325.407 143.848 325.391 143.848 325.37 143.848L310.485 142.321Z" fill="#5A50EE"/>
<path d="M284.733 136.241L292.623 137.045L295.054 137.295L296.269 137.419L311.248 138.946C311.285 138.956 311.316 138.951 311.347 138.956C313.43 139.169 314.76 142.814 314.318 147.098C313.882 151.387 311.835 154.685 309.758 154.472C309.727 154.472 309.695 154.456 309.659 154.451V154.461L283.139 151.751L284.728 136.23L284.733 136.241Z" fill="#5A50EE"/>
<path d="M309.95 154.742C309.877 154.742 309.809 154.742 309.737 154.731C309.731 154.731 309.711 154.731 309.69 154.726C309.674 154.726 309.659 154.726 309.643 154.726L306.948 154.451C306.807 154.435 306.709 154.311 306.724 154.176C306.735 154.035 306.854 153.921 307 153.952L309.622 154.217C309.654 154.212 309.685 154.212 309.716 154.217C309.716 154.217 309.783 154.233 309.789 154.233C311.248 154.378 312.843 152.441 313.637 149.508C313.674 149.373 313.809 149.295 313.949 149.331C314.084 149.368 314.162 149.508 314.125 149.643C313.289 152.743 311.632 154.752 309.955 154.752L309.95 154.742Z" fill="white"/>
<path d="M314.12 148.739C314.12 148.739 314.089 148.739 314.073 148.739C313.938 148.713 313.845 148.578 313.876 148.443C313.959 148.002 314.027 147.545 314.073 147.083C314.089 146.943 314.198 146.834 314.349 146.86C314.489 146.875 314.588 147 314.572 147.135C314.525 147.612 314.453 148.085 314.364 148.542C314.344 148.661 314.235 148.744 314.115 148.744L314.12 148.739Z" fill="white"/>
<path d="M263.692 158.501L290.898 157.769C294.363 158.122 297.76 152.628 298.487 145.494C299.214 138.359 297.001 132.294 293.537 131.941L267.043 125.726L263.692 158.501Z" fill="#5A50EE"/>
<path d="M273.193 142.905C274.117 133.856 271.355 126.161 267.023 125.719C262.691 125.277 258.43 132.255 257.506 141.304C256.581 150.354 259.344 158.048 263.676 158.49C268.008 158.933 272.269 151.955 273.193 142.905Z" fill="#2A1968"/>
<path d="M231.697 157.426L262.503 156.596C266.424 156.995 270.273 150.775 271.099 142.695C271.925 134.621 269.416 127.746 265.494 127.346L235.494 120.305L231.702 157.421L231.697 157.426Z" fill="#5A50EE"/>
<path d="M245.103 157.369C244.963 157.369 244.854 157.26 244.849 157.12C244.849 156.98 244.958 156.865 245.098 156.865L262.83 156.642C262.97 156.642 263.079 156.751 263.084 156.891C263.084 157.032 262.975 157.146 262.835 157.146L245.103 157.369Z" fill="#2A1968"/>
<path d="M241.763 157.411C241.623 157.411 241.514 157.302 241.509 157.161C241.509 157.021 241.618 156.907 241.758 156.907L243.716 156.881C243.856 156.881 243.965 156.99 243.971 157.13C243.971 157.271 243.862 157.385 243.721 157.385L241.763 157.411Z" fill="#2A1968"/>
<path d="M242.459 139.765C243.506 129.515 240.378 120.799 235.472 120.298C230.567 119.798 225.741 127.701 224.694 137.952C223.648 148.203 226.776 156.918 231.681 157.419C236.587 157.92 241.412 150.016 242.459 139.765Z" fill="#2A1968"/>
<path d="M236.044 122.086C239.675 122.454 241.97 129.459 241.43 138.058C241.404 138.484 241.373 138.92 241.326 139.356C241.321 139.455 241.311 139.553 241.3 139.652C240.345 148.962 236.454 156.19 232.606 155.796C229.048 155.432 226.768 148.692 227.194 140.327C227.214 139.953 227.235 139.574 227.266 139.19C227.287 138.868 227.318 138.551 227.355 138.224C228.305 128.914 232.201 121.681 236.049 122.081L236.044 122.086Z" fill="#F9EDFF"/>
<path d="M288.748 131.074C288.748 131.074 288.711 131.074 288.69 131.069L287.501 130.789C287.366 130.757 287.283 130.622 287.314 130.487C287.345 130.352 287.475 130.264 287.615 130.3L288.805 130.581C288.94 130.612 289.023 130.747 288.992 130.882C288.966 130.996 288.862 131.074 288.748 131.074Z" fill="#2A1968"/>
<path d="M297.343 151.153C297.317 151.153 297.291 151.153 297.26 151.143C297.13 151.096 297.058 150.956 297.099 150.821C297.66 149.159 298.039 147.362 298.232 145.472C298.579 142.061 298.263 138.79 297.343 136.266C296.445 133.8 295.079 132.356 293.505 132.196L289.947 131.365C289.812 131.334 289.729 131.199 289.76 131.064C289.792 130.929 289.927 130.846 290.062 130.877L293.588 131.702C295.333 131.879 296.845 133.442 297.816 136.095C298.766 138.691 299.088 142.04 298.735 145.524C298.538 147.451 298.148 149.289 297.577 150.982C297.541 151.085 297.442 151.153 297.338 151.153H297.343Z" fill="#2A1968"/>
<path d="M314.794 140.55C314.612 141.189 314.134 141.698 313.495 141.921C313.35 141.978 313.189 142.014 313.049 142.051C312.399 142.207 311.724 142.212 311.07 142.087L307.263 141.339C305.725 141.308 304.23 139.745 304.23 139.745L302.438 138.011L298.6 137.663L301.565 134.537C301.633 134.465 301.705 134.397 301.778 134.33L301.996 134.127C302.157 133.982 302.308 133.816 302.438 133.644C303.388 132.383 305.445 132.959 305.445 132.959C307.185 132.071 307.886 132.595 309.049 133.26C309.6 133.193 310.156 133.416 310.499 133.842L311.626 135.233L314.42 138.681C314.835 139.2 314.981 139.891 314.794 140.54V140.55Z" fill="#F48B99"/>
<path d="M433.014 419.464L430.916 423.478L431.202 424.475L433.638 428.935L433.949 433.65C433.996 433.998 433.923 434.351 433.747 434.652C433.362 435.301 432.656 437.788 434.209 437.767C434.526 437.767 434.806 437.56 434.91 437.264L438.473 427.3L437.361 424.568L439.346 424.854L440.576 421.401L433.019 419.469L433.014 419.464Z" fill="#2A1968"/>
<path d="M385.022 498.661L380.534 498.038L379.693 498.641L376.317 502.436L371.985 504.321C371.674 504.482 371.321 504.534 370.973 504.466C370.23 504.326 367.654 504.498 368.194 505.951C368.303 506.247 368.589 506.445 368.905 506.439L379.49 506.429L381.687 504.461L382.087 506.429H385.754L385.022 498.661Z" fill="#483193"/>
<path d="M413.257 293.809V294.983C413.257 294.983 410.862 298.155 409.32 299.033C409.32 299.033 408.51 299.604 408.349 300.653L407.829 304.926C407.829 304.926 407.538 305.84 408.847 306.209L409.081 308.488C409.081 308.488 409.216 309.48 410.343 309.283L417.396 307.107C417.396 307.107 418.876 306.738 419.313 304.931C419.354 304.755 419.38 304.573 419.391 304.397L419.578 299.869C419.588 299.682 419.567 299.495 419.526 299.308L418.518 294.863L418.274 293.269L413.246 293.799L413.257 293.809Z" fill="#F38A98"/>
<path d="M344.364 202.965L339.965 203.754L343.112 193.032L344.364 202.965Z" fill="#2A1968"/>
<path d="M343.544 183.358C343.19 185.607 343.014 187.803 342.91 190.041C342.816 192.274 342.827 194.512 342.962 196.755C343.232 201.236 343.959 205.759 345.507 210.136C347.044 214.493 349.491 218.751 353.116 222.074C354.903 223.746 356.986 225.122 359.188 226.218C361.406 227.287 363.753 228.056 366.127 228.554C368.506 229.053 370.905 229.271 373.279 229.318C373.871 229.318 374.469 229.328 375.061 229.318L376.832 229.25L378.593 229.12L380.275 228.954C384.737 228.539 389.214 227.91 393.712 227.017C398.2 226.103 402.744 224.904 407.18 223.04C409.393 222.121 411.579 221.046 413.621 219.883C415.667 218.73 417.563 217.541 419.308 216.57L419.64 216.347L419.568 216.404L419.563 216.409C419.563 216.409 419.568 216.409 419.578 216.409L419.656 216.373L419.879 216.269C420.04 216.196 420.227 216.118 420.42 216.045C420.804 215.9 421.219 215.765 421.645 215.651C422.502 215.422 423.411 215.282 424.336 215.215C425.858 215.111 427.426 215.225 429 215.537C429.265 215.588 429.545 215.531 429.764 215.37C429.987 215.215 430.132 214.971 430.169 214.7L431.592 204.575C431.628 204.31 431.555 204.04 431.394 203.832C431.228 203.62 430.989 203.485 430.724 203.459C428.086 203.163 425.717 203.401 422.887 203.853C421.297 204.113 419.713 204.507 418.165 205.073C417.392 205.359 416.623 205.686 415.854 206.065C415.47 206.257 415.085 206.46 414.691 206.688C414.493 206.803 414.291 206.922 414.088 207.052L413.761 207.265L413.304 207.587L413.636 207.363C411.652 208.708 409.933 210.006 408.245 211.154C406.562 212.312 404.884 213.324 403.113 214.249C399.597 216.108 395.712 217.52 391.687 218.704C387.656 219.877 383.485 220.833 379.252 221.596L377.678 221.892L376.167 222.136L374.656 222.323C374.152 222.375 373.653 222.411 373.149 222.458C371.139 222.593 369.14 222.583 367.187 222.344C365.234 222.11 363.333 221.659 361.525 220.978C359.733 220.267 358.019 219.348 356.487 218.143C353.391 215.77 350.981 212.411 349.278 208.636C347.564 204.855 346.499 200.701 345.881 196.464C345.273 192.232 345.065 187.855 345.336 183.587L343.57 183.358H343.544Z" fill="#5A50EE"/>
<path d="M409.201 51.2176H354.02C353.641 51.2176 353.34 50.9113 353.34 50.5374C353.34 50.1635 353.646 49.8572 354.02 49.8572H409.201C409.58 49.8572 409.881 50.1635 409.881 50.5374C409.881 50.9113 409.575 51.2176 409.201 51.2176Z" fill="#7751C7"/>
<path d="M348.764 51.2176H342.703C342.324 51.2176 342.022 50.9112 342.022 50.5374C342.022 50.1635 342.329 49.8572 342.703 49.8572H348.764C349.143 49.8572 349.444 50.1635 349.444 50.5374C349.444 50.9112 349.138 51.2176 348.764 51.2176Z" fill="#7751C7"/>
<path d="M384.514 38.3037C384.514 33.8641 380.909 30.2656 376.473 30.2656C375.658 30.2656 374.879 30.3851 374.136 30.6136C374.131 30.6187 374.126 30.6187 374.121 30.6187C374.105 30.6239 374.089 30.6291 374.079 30.6291C372.697 31.0445 371.316 31.3042 369.929 31.434C367.716 31.3094 365.587 30.2864 364.107 28.5002C363.338 27.5759 362.377 26.823 361.281 26.3037C360.185 25.7793 358.959 25.4833 357.661 25.4833C357.552 25.4833 357.443 25.4937 357.334 25.4937H357.339C355.079 25.5768 352.95 24.7252 351.392 23.2453C350.457 22.0147 349.647 20.6646 348.992 19.2055H348.987C347.782 16.5365 345.097 14.6724 341.975 14.6724C338.853 14.6724 336.121 16.5677 334.927 19.2782C333.602 22.2847 330.642 24.1748 327.437 24.1748C327.011 24.1748 326.585 24.1384 326.149 24.0709L326.159 24.0813C325.624 23.9982 325.079 23.9411 324.518 23.9411C318.779 23.9411 314.125 28.5936 314.125 34.3314C314.125 40.0692 318.779 44.7218 324.518 44.7218H378.104C381.647 44.7218 384.519 41.8503 384.519 38.3141L384.514 38.3037Z" fill="#7751C7"/>
<path d="M366.351 57.2774H324.513C324.134 57.2774 323.833 56.9711 323.833 56.5972C323.833 56.2234 324.139 55.917 324.513 55.917H366.351C366.73 55.917 367.031 56.2234 367.031 56.5972C367.031 56.9711 366.725 57.2774 366.351 57.2774Z" fill="#7751C7"/>
<path d="M317.635 57.2774H294.393C294.014 57.2774 293.713 56.971 293.713 56.5972C293.713 56.2233 294.019 55.917 294.393 55.917H317.635C318.015 55.917 318.316 56.2233 318.316 56.5972C318.316 56.971 318.009 57.2774 317.635 57.2774Z" fill="#7751C7"/>
<path d="M248.177 390.542C249.761 390.542 251.049 389.259 251.049 387.675C251.049 386.092 249.771 384.804 248.182 384.799C246.655 384.799 245.195 385.079 243.85 385.593C239.061 387.421 233.66 385.484 231.125 381.029C229.588 378.334 227.344 376.086 224.653 374.533C221.714 372.674 218.234 371.584 214.499 371.578C209.331 371.563 204.641 373.609 201.192 376.932C198.19 379.819 193.827 380.748 189.9 379.352C187.537 378.51 185.366 376.937 183.73 374.725C181.471 371.672 181.268 367.767 178.91 364.776C176.391 361.577 172.48 359.672 168.408 359.661C164.497 359.651 160.721 361.391 158.181 364.361C154.317 368.889 155.703 375.078 150.057 378.526C145.352 381.403 139.202 380.748 135.234 376.932C131.785 373.609 127.095 371.563 121.927 371.578C118.192 371.589 114.712 372.674 111.773 374.533C109.082 376.086 106.838 378.329 105.301 381.029C102.766 385.484 97.3646 387.421 92.5758 385.593C91.2306 385.079 89.7711 384.793 88.244 384.799C86.6599 384.799 85.377 386.092 85.377 387.675C85.377 389.259 86.6651 390.542 88.2492 390.542H248.177Z" fill="#D3A840"/>
<path d="M177.061 398.476H98.097C97.7698 398.476 97.5049 398.211 97.5049 397.884C97.5049 397.557 97.7698 397.292 98.097 397.292H177.061C177.388 397.292 177.653 397.557 177.653 397.884C177.653 398.211 177.388 398.476 177.061 398.476Z" fill="#D3A840"/>
<path d="M93.199 398.476H88.4778C88.1506 398.476 87.8857 398.211 87.8857 397.884C87.8857 397.557 88.1506 397.292 88.4778 397.292H93.199C93.5262 397.292 93.7911 397.557 93.7911 397.884C93.7911 398.211 93.5262 398.476 93.199 398.476Z" fill="#D3A840"/>
<path d="M83.6673 398.476H55.3353C55.008 398.476 54.7432 398.211 54.7432 397.884C54.7432 397.557 55.008 397.292 55.3353 397.292H83.6673C83.9945 397.292 84.2594 397.557 84.2594 397.884C84.2594 398.211 83.9945 398.476 83.6673 398.476Z" fill="#D3A840"/>
<path d="M275.17 407.916H266.777C266.449 407.916 266.185 407.651 266.185 407.324C266.185 406.997 266.449 406.732 266.777 406.732H275.17C275.497 406.732 275.762 406.997 275.762 407.324C275.762 407.651 275.497 407.916 275.17 407.916Z" fill="#D3A840"/>
<path d="M258.908 407.916H205.389C205.062 407.916 204.797 407.651 204.797 407.324C204.797 406.997 205.062 406.732 205.389 406.732H258.908C259.235 406.732 259.5 406.997 259.5 407.324C259.5 407.651 259.235 407.916 258.908 407.916Z" fill="#D3A840"/>
<path d="M199.094 407.916H116.723C116.396 407.916 116.131 407.651 116.131 407.324C116.131 406.997 116.396 406.732 116.723 406.732H199.094C199.421 406.732 199.686 406.997 199.686 407.324C199.686 407.651 199.421 407.916 199.094 407.916Z" fill="#D3A840"/>
</g>
<defs>
<clipPath id="clip0_425_4470">
<rect width="750.57" height="738.176" fill="white" transform="translate(0.429688 0.283691)"/>
</clipPath>
</defs>
</svg>
