<svg width="833" height="705" viewBox="0 0 833 705" fill="none" xmlns="http://www.w3.org/2000/svg">
<g opacity="0.7">
<g clip-path="url(#clip0_740_2227)">
<path opacity="0.7" fill-rule="evenodd" clip-rule="evenodd" d="M832.017 322.459C832.017 241.062 772.122 163.686 682.07 142.726C584.56 120.027 570.139 0.644043 446.758 0.644043C375.166 0.644043 303.756 41.8555 267.073 86.8874C237.977 122.604 194.891 164.552 194.85 164.588C122.874 220.562 14.3447 213.711 1.9636 300.562C-3.8909 341.62 16.4731 380.62 41.3945 412.829C50.5447 424.656 51.9538 440.74 45.044 453.999C34.1486 474.917 28.1585 497.734 28.1585 521.618C28.1585 622.642 135.326 704.54 267.521 704.54C304.134 704.54 338.83 698.255 369.86 687.024C377.029 684.429 384.811 684.017 392.199 685.892C427.52 694.841 466.255 699.788 506.877 699.788C672.265 699.788 806.335 617.89 806.335 516.866C806.335 498.365 788.394 434.826 797.244 423.064C819.306 393.744 832.017 359.301 832.017 322.465V322.459Z" fill="#FCF7EA"/>
</g>
</g>
<defs>
<clipPath id="clip0_740_2227">
<rect width="831.068" height="703.89" fill="white" transform="translate(0.949219 0.644043)"/>
</clipPath>
</defs>
</svg>
