<svg width="217" height="329" viewBox="0 0 217 329" fill="none" xmlns="http://www.w3.org/2000/svg">
<path d="M214.18 5.36865H6.51204C4.992 5.36865 3.75977 6.60081 3.75977 8.12076V325.919C3.75977 327.439 4.992 328.671 6.51204 328.671H214.18C215.7 328.671 216.932 327.439 216.932 325.919V8.12076C216.932 6.60081 215.7 5.36865 214.18 5.36865Z" fill="#D5C7F4"/>
<path d="M210.766 0.816895H3.09798C1.57794 0.816895 0.345703 2.04906 0.345703 3.56901V321.367C0.345703 322.887 1.57794 324.12 3.09798 324.12H210.766C212.286 324.12 213.518 322.887 213.518 321.367V3.56901C213.518 2.04906 212.286 0.816895 210.766 0.816895Z" fill="white"/>
<path d="M185.973 12.0581H27.8937C25.8215 12.0581 24.1416 13.7379 24.1416 15.81V173.88C24.1416 175.952 25.8215 177.632 27.8937 177.632H185.973C188.045 177.632 189.725 175.952 189.725 173.88V15.81C189.725 13.7379 188.045 12.0581 185.973 12.0581Z" fill="#FFBD35"/>
<path d="M107.742 148.464C120.944 147.999 130.331 140.284 135.749 134.162C132.658 134.387 129.848 134.434 127.474 133.925C116.57 131.588 117.348 109.523 117.348 109.523C105.925 115.235 92.6867 110.563 92.6867 110.563C92.6867 110.563 92.9449 124.84 82.5611 132.278C80.0924 134.045 77.1038 135.263 73.8135 136.234C80.267 141.251 92.7413 148.995 107.742 148.464Z" fill="#F79556"/>
<path d="M169.35 177.636C167.652 162.163 164.766 148.071 159.966 141.978C150.699 130.203 137.628 133.329 128.746 134.143C124.409 140.266 118.151 148.002 107.579 148.468C95.5661 148.998 86.364 138.19 81.1939 133.173C72.7371 136.288 60.9391 139.848 52.6968 147.17C47.5086 151.78 45.5816 164.039 44.5127 177.636H169.347H169.35Z" fill="#3B4082"/>
<path d="M104.586 122.728C100.507 122.899 89.0398 122.459 81.3284 96.5628C71.9081 64.9226 85.7022 47.0356 98.4092 42.9202C111.116 38.8011 123.423 42.393 131.404 58.6876C131.404 58.6876 137.301 71.4157 131.298 95.3994C125.299 119.383 108.957 122.546 104.583 122.732L104.586 122.728Z" fill="#F79556"/>
<path d="M73.2503 87.3326C73.9374 91.052 76.7189 93.6588 79.4641 93.1535C82.2092 92.6481 83.8782 89.2196 83.191 85.5002C82.5038 81.7808 79.7223 79.174 76.9771 79.6794C74.232 80.1847 72.5631 83.6132 73.2503 87.3326Z" fill="#F79556"/>
<path d="M138.967 87.3326C138.28 91.052 135.499 93.6588 132.753 93.1535C130.008 92.6481 128.339 89.2196 129.027 85.5002C129.714 81.7808 132.495 79.174 135.24 79.6794C137.986 80.1847 139.655 83.6132 138.967 87.3326Z" fill="#F79556"/>
<path d="M91.8683 117.212C91.8683 117.212 102.539 126.207 117.795 117.649C117.795 117.649 110.065 127.952 90.9775 120.397L91.8683 117.216V117.212Z" fill="#1E1735"/>
<path d="M101.817 76.3208C100.886 75.2809 99.6242 74.6338 98.3334 74.2811C97.039 73.8957 95.6901 73.8266 94.3666 73.8848C93.0431 73.9903 91.7487 74.2702 90.527 74.7538C89.9125 74.9792 89.3308 75.3028 88.7599 75.6154C88.2182 76.0226 87.6582 76.3499 87.1674 76.837L87.1419 76.8625C87.1128 76.8916 87.1128 76.9425 87.1419 76.9716C87.1637 76.9934 87.1928 77.0007 87.2219 76.9897C88.4036 76.608 89.5926 76.2626 90.807 76.0117C92.0214 75.7718 93.2467 75.5754 94.4793 75.5136C95.7083 75.4227 96.9481 75.4155 98.1771 75.5573C99.3951 75.7063 100.631 75.9572 101.74 76.4662C101.78 76.4844 101.828 76.4662 101.846 76.4262C101.86 76.3971 101.853 76.3608 101.831 76.339L101.817 76.3208Z" fill="#1E1735"/>
<path d="M92.5703 82.2028C92.8357 83.6025 93.9301 84.5696 95.0137 84.366C96.0972 84.1588 96.7589 82.8572 96.4935 81.4574C96.2281 80.0577 95.1336 79.0906 94.0501 79.2942C92.9666 79.5014 92.3049 80.803 92.5703 82.2028Z" fill="#021927"/>
<path d="M95.1922 81.221C95.2504 81.53 95.7449 81.6973 96.2903 81.5918C96.8393 81.4864 97.2356 81.1519 97.1774 80.8429C97.1193 80.5338 96.6248 80.3666 96.0794 80.472C95.5303 80.5775 95.134 80.912 95.1922 81.221Z" fill="white"/>
<path d="M89.88 80.687C91.4617 80.1344 93.1197 79.7781 94.7886 79.6399C96.4466 79.4727 98.1627 79.56 99.7116 80.2108L99.7698 80.0799C99.1844 79.2727 98.3118 78.8037 97.4137 78.4983C96.5084 78.2038 95.5739 78.2293 94.6613 78.2002C93.7632 78.3783 92.8724 78.5201 92.0507 78.9092C91.2362 79.3018 90.4509 79.7708 89.8291 80.5489L89.8836 80.6834L89.88 80.687Z" fill="#021927"/>
<path d="M127.637 76.9129C126.798 75.8004 125.59 75.0514 124.336 74.5897C123.078 74.0988 121.74 73.9171 120.416 73.8625C119.089 73.8553 117.777 74.0298 116.519 74.4079C115.89 74.5824 115.282 74.8551 114.686 75.1169C114.112 75.4804 113.526 75.7567 112.995 76.2003L112.97 76.2221C112.937 76.2512 112.934 76.2985 112.959 76.3312C112.977 76.353 113.01 76.3639 113.035 76.3566C114.243 76.0731 115.461 75.8295 116.69 75.6804C117.919 75.5422 119.155 75.4477 120.391 75.4913C121.624 75.5022 122.86 75.6004 124.071 75.8404C125.274 76.0912 126.481 76.4403 127.547 77.0438C127.587 77.0656 127.634 77.0511 127.656 77.0147C127.67 76.9856 127.67 76.9529 127.648 76.9275L127.634 76.9093L127.637 76.9129Z" fill="#1E1735"/>
<path d="M117.933 82.0065C118.082 83.4244 119.092 84.4788 120.187 84.3661C121.281 84.2497 122.052 83.0099 121.903 81.592C121.754 80.174 120.747 79.1197 119.649 79.2324C118.554 79.3487 117.783 80.5885 117.933 82.0065Z" fill="#021927"/>
<path d="M120.63 81.2464C120.662 81.559 121.139 81.7663 121.695 81.7081C122.251 81.6499 122.673 81.3482 122.64 81.0355C122.608 80.7228 122.131 80.5156 121.575 80.5737C121.019 80.6319 120.597 80.9337 120.63 81.2464Z" fill="white"/>
<path d="M115.377 80.2725C116.998 79.8544 118.682 79.6363 120.354 79.6363C122.02 79.6072 123.725 79.8362 125.212 80.6143L125.281 80.487C124.765 79.6363 123.932 79.0945 123.063 78.7164C122.187 78.3456 121.252 78.2947 120.343 78.1929C119.434 78.2947 118.536 78.3638 117.685 78.6837C116.838 79.0073 116.02 79.4109 115.333 80.1344L115.377 80.2725Z" fill="#021927"/>
<path d="M107.829 80.4136C107.665 83.4494 107.847 86.8379 109.822 89.2957C110.094 89.572 110.378 89.8847 110.665 90.161C113.112 92.717 109.96 95.451 107.229 95.3674C106.815 95.3565 106.393 95.2729 106.029 95.0729L106.044 95.0475C106.793 95.382 107.658 95.302 108.425 95.0729C110.574 94.4512 112.385 92.3207 110.454 90.3574C110.167 90.0847 109.869 89.772 109.593 89.4848C107.622 86.9943 107.364 83.3985 107.822 80.4136H107.829Z" fill="#122045"/>
<path d="M80.4084 93.2143C80.4084 93.2143 70.4101 67.4928 73.8095 54.6738C77.2089 41.8585 90.974 37.5867 90.974 37.5867C90.974 37.5867 97.1729 18.4746 112.938 18.4746C128.702 18.4746 122.638 34.6637 122.638 34.6637C122.638 34.6637 137.246 31.9661 136.795 39.1609C136.345 46.3557 131.189 43.011 133.992 55.8117C136.795 68.6162 131.891 92.8835 131.891 92.8835C131.891 92.8835 129.822 73.1097 126.452 62.094C123.078 51.0783 114.766 64.1154 106.106 58.273C102.179 55.6227 98.5291 54.0558 94.2061 56.7679C90.2759 59.2328 87.4 63.0174 84.8513 66.8129C78.2161 76.7053 80.4048 93.2107 80.4048 93.2107L80.4084 93.2143Z" fill="#1E1735"/>
<path d="M131.473 100.297C131.833 96.1957 132.436 92.1275 132.658 88.0084C132.76 86.1325 132.8 84.2493 132.702 82.3733C132.636 81.1336 131.993 79.3813 132.153 78.1997C132.153 78.2142 129.451 98.1553 123.758 99.5768C118.061 100.995 111.614 96.9192 107.906 99.5768C107.906 99.5768 102.285 96.163 98.013 98.7479C93.741 101.333 78.8998 83.7948 78.8998 83.7948C78.6199 86.4451 78.489 89.1209 78.4453 91.7858C78.3763 95.8612 77.8491 100.264 79.7797 103.998C80.7468 105.863 82.0411 107.535 83.1973 109.291C84.0372 110.571 84.8116 111.927 85.2806 113.392C85.7532 114.864 85.5533 116.369 86.0005 117.816C87.2584 121.895 91.0905 124.211 95.0862 125.029C97.115 125.444 99.2237 125.516 101.278 125.28C103.536 125.022 105.495 123.917 107.695 123.586C109.753 123.277 111.883 123.851 113.894 124.208C119.893 125.266 125.492 121.67 128.321 116.515C130.506 112.534 131.044 107.939 131.255 103.481C131.306 102.416 131.382 101.358 131.473 100.297Z" fill="#1E1735"/>
<path d="M101.176 103.47C101.176 103.47 106.579 104.881 114.662 104.008C114.662 104.008 106.702 114.49 101.176 103.47Z" fill="white"/>
<path d="M71.4285 210.919L62.9863 206.622L54.6604 211.141L56.1402 201.787L49.2686 195.265L58.6234 193.781L62.7027 185.23L67.0074 193.669L76.3986 194.908L69.7052 201.609L71.4285 210.919Z" fill="#FFBD35"/>
<path d="M100.827 210.919L92.3847 206.622L84.0588 211.141L85.5386 201.787L78.667 195.265L88.0218 193.781L92.1011 185.23L96.4059 193.669L105.797 194.908L99.1036 201.609L100.827 210.919Z" fill="#FFBD35"/>
<path d="M130.226 210.919L121.784 206.622L113.462 211.141L114.938 201.787L108.066 195.265L117.421 193.781L121.501 185.23L125.805 193.669L135.196 194.908L128.503 201.609L130.226 210.919Z" fill="#FFBD35"/>
<path d="M159.625 210.919L151.183 206.622L142.861 211.141L144.337 201.787L137.469 195.265L146.82 193.781L150.899 185.23L155.204 193.669L164.595 194.908L157.902 201.609L159.625 210.919Z" fill="#FFBD35"/>
<path d="M187.155 245.137H28.6792C25.3125 245.137 22.582 242.407 22.582 239.04C22.582 235.674 25.3125 232.943 28.6792 232.943H187.155C190.522 232.943 193.252 235.674 193.252 239.04C193.252 242.407 190.522 245.137 187.155 245.137Z" fill="#D5C7F4"/>
<path d="M187.155 269.528H28.6792C25.3125 269.528 22.582 266.798 22.582 263.431C22.582 260.065 25.3125 257.334 28.6792 257.334H187.155C190.522 257.334 193.252 260.065 193.252 263.431C193.252 266.798 190.522 269.528 187.155 269.528Z" fill="#D5C7F4"/>
<path d="M187.155 293.919H28.6792C25.3125 293.919 22.582 291.188 22.582 287.822C22.582 284.455 25.3125 281.725 28.6792 281.725H187.155C190.522 281.725 193.252 284.455 193.252 287.822C193.252 291.188 190.522 293.919 187.155 293.919Z" fill="#D5C7F4"/>
</svg>
