<svg width="181" height="274" viewBox="0 0 181 274" fill="none" xmlns="http://www.w3.org/2000/svg">
<path d="M178.379 4.08643H5.52393C4.25891 4.08643 3.2334 5.11187 3.2334 6.37683V270.9C3.2334 272.165 4.25891 273.19 5.52393 273.19H178.379C179.644 273.19 180.67 272.165 180.67 270.9V6.37683C180.67 5.11187 179.644 4.08643 178.379 4.08643Z" fill="#D5C7F4"/>
<path d="M175.539 0.297852H2.68409C1.41906 0.297852 0.393555 1.3233 0.393555 2.58825V267.111C0.393555 268.376 1.41906 269.402 2.68409 269.402H175.539C176.804 269.402 177.83 268.376 177.83 267.111V2.58825C177.83 1.3233 176.804 0.297852 175.539 0.297852Z" fill="#F3F0FB"/>
<path d="M154.899 9.65576H23.3204C21.5955 9.65576 20.1973 11.054 20.1973 12.7787V144.349C20.1973 146.074 21.5955 147.472 23.3204 147.472H154.899C156.624 147.472 158.022 146.074 158.022 144.349V12.7787C158.022 11.054 156.624 9.65576 154.899 9.65576Z" fill="#D5C7F4"/>
<path d="M59.5585 175.179L52.5306 171.602L45.6044 175.364L46.8333 167.577L41.1143 162.149L48.9021 160.913L52.2979 153.798L55.8791 160.819L63.696 161.851L58.1224 167.428L59.5585 175.179Z" fill="#FFBD35"/>
<path d="M84.0275 175.179L77.0032 171.602L70.0735 175.364L71.3023 167.577L65.5869 162.149L73.3711 160.913L76.7669 153.798L80.3481 160.819L88.165 161.851L82.595 167.428L84.0275 175.179Z" fill="#FFBD35"/>
<path d="M108.5 175.179L101.472 171.602L94.5422 175.364L95.7747 167.577L90.0557 162.149L97.8435 160.913L101.239 153.798L104.82 160.819L112.637 161.851L107.064 167.428L108.5 175.179Z" fill="#FFBD35"/>
<path d="M132.969 175.179L125.944 171.602L119.015 175.364L120.243 167.577L114.524 162.149L122.312 160.913L125.708 153.798L129.289 160.819L137.106 161.851L131.533 167.428L132.969 175.179Z" fill="#D5C7F4"/>
<path d="M155.884 203.656H23.9789C21.1757 203.656 18.9033 201.384 18.9033 198.581C18.9033 195.778 21.1757 193.506 23.9789 193.506H155.884C158.687 193.506 160.96 195.778 160.96 198.581C160.96 201.384 158.687 203.656 155.884 203.656Z" fill="#D5C7F4"/>
<path d="M155.884 223.961H23.9789C21.1757 223.961 18.9033 221.689 18.9033 218.886C18.9033 216.083 21.1757 213.811 23.9789 213.811H155.884C158.687 213.811 160.96 216.083 160.96 218.886C160.96 221.689 158.687 223.961 155.884 223.961Z" fill="#D5C7F4"/>
<path d="M155.884 244.266H23.9789C21.1757 244.266 18.9033 241.993 18.9033 239.19C18.9033 236.387 21.1757 234.115 23.9789 234.115H155.884C158.687 234.115 160.96 236.387 160.96 239.19C160.96 241.993 158.687 244.266 155.884 244.266Z" fill="#D5C7F4"/>
<path d="M68.0804 33.054C68.0804 33.054 55.7407 31.0217 50.5161 44.3787C45.2878 57.7358 59.2274 85.4023 50.5161 97.4142C50.5161 97.4142 72.8506 93.2806 73.8613 70.5765" fill="#3B4082"/>
<path d="M89.8292 121.471C101.598 121.057 109.968 114.182 114.796 108.721C112.04 108.925 109.535 108.965 107.419 108.51C97.7006 106.427 98.3951 86.7588 98.3951 86.7588C88.2113 91.8486 76.4096 87.6859 76.4096 87.6859C76.4096 87.6859 76.6423 100.414 67.3856 107.042C65.186 108.616 62.521 109.703 59.5869 110.568C65.3423 115.04 76.4605 121.944 89.8328 121.471H89.8292Z" fill="#F79556"/>
<path d="M144.751 147.472C143.239 133.679 140.661 121.118 136.389 115.686C128.129 105.191 116.476 107.975 108.557 108.703C104.693 114.16 99.1117 121.056 89.6878 121.474C78.9805 121.947 70.7746 112.313 66.1681 107.841C58.6275 110.618 48.1129 113.792 40.765 120.318C36.1403 124.426 34.4206 135.355 33.4717 147.476H144.751V147.472Z" fill="#FFBCB0"/>
<path d="M87.0187 98.5271C83.3793 98.6798 73.1592 98.2871 66.2876 75.2014C57.889 46.9967 70.1888 31.0512 81.5142 27.3829C92.8396 23.711 103.816 26.9103 110.927 41.438C110.927 41.438 116.185 52.7845 110.833 74.1652C105.485 95.5459 90.9163 98.3635 87.0187 98.5271Z" fill="#F79556"/>
<path d="M59.0858 66.9745C59.6967 70.2903 62.1764 72.6135 64.6234 72.1627C67.0704 71.7119 68.5575 68.6578 67.943 65.3384C67.3322 62.0226 64.8524 59.6994 62.4054 60.1502C59.9584 60.601 58.4713 63.655 59.0858 66.9745Z" fill="#F79556"/>
<path d="M117.666 66.9745C117.055 70.2903 114.575 72.6135 112.128 72.1627C109.681 71.7119 108.194 68.6578 108.808 65.3384C109.419 62.0226 111.899 59.6994 114.346 60.1502C116.793 60.601 118.28 63.655 117.666 66.9745Z" fill="#F79556"/>
<path d="M84.5474 60.2953C83.7184 59.3682 82.5912 58.7937 81.4422 58.4774C80.286 58.132 79.0861 58.0702 77.9081 58.1211C76.73 58.2157 75.5738 58.4629 74.4867 58.8955C73.9413 59.0955 73.4213 59.3864 72.9087 59.6627C72.4251 60.0263 71.9269 60.3171 71.487 60.7498L71.4652 60.7716C71.4361 60.797 71.4361 60.8407 71.4652 60.8697C71.4834 60.8879 71.5124 60.8952 71.5343 60.8879C72.5887 60.5462 73.6504 60.2408 74.7303 60.0153C75.8138 59.8008 76.9046 59.6263 78.0026 59.5718C79.1007 59.4918 80.2024 59.4845 81.2968 59.6081C82.384 59.739 83.482 59.9644 84.4746 60.4189C84.511 60.4371 84.5546 60.4189 84.5692 60.3826C84.5801 60.3571 84.5764 60.3244 84.5583 60.3062L84.5437 60.2917L84.5474 60.2953Z" fill="#1E1735"/>
<path d="M76.3049 65.5411C76.5412 66.7882 77.5156 67.6535 78.4828 67.4681C79.45 67.2827 80.039 66.1229 79.8027 64.8758C79.5663 63.6287 78.5919 62.7634 77.6247 62.9488C76.6612 63.1306 76.0685 64.2941 76.3049 65.5411Z" fill="#021927"/>
<path d="M78.6461 64.6652C78.697 64.9415 79.137 65.0906 79.6279 64.996C80.1151 64.9015 80.4714 64.6034 80.4169 64.3271C80.3659 64.0507 79.926 63.9017 79.4351 63.9962C78.9479 64.0907 78.5916 64.3889 78.6461 64.6652Z" fill="white"/>
<path d="M73.9086 64.189C75.3193 63.6982 76.7992 63.3782 78.2827 63.2546C79.7589 63.1055 81.2896 63.1819 82.6713 63.7636L82.7258 63.6473C82.2059 62.9274 81.4241 62.5093 80.6242 62.2366C79.817 61.9712 78.9844 61.9966 78.1699 61.9712C77.37 62.1275 76.5774 62.2584 75.8429 62.6038C75.1157 62.9528 74.4176 63.3709 73.8613 64.0654L73.9086 64.1854V64.189Z" fill="#021927"/>
<path d="M107.565 60.826C106.816 59.8334 105.743 59.1645 104.624 58.7573C103.5 58.3173 102.307 58.1574 101.129 58.1101C99.9477 58.1028 98.7769 58.2592 97.657 58.5973C97.0935 58.7536 96.5553 58.9972 96.0209 59.2299C95.5082 59.5535 94.9882 59.8007 94.5156 60.197L94.4901 60.2188C94.461 60.2443 94.4574 60.2879 94.4828 60.317C94.501 60.3388 94.5265 60.3461 94.5519 60.3388C95.6282 60.0879 96.7117 59.8698 97.8097 59.7353C98.9042 59.6117 100.006 59.528 101.108 59.5644C102.206 59.5753 103.307 59.6589 104.387 59.8771C105.46 60.0989 106.536 60.4115 107.485 60.9496C107.518 60.9678 107.561 60.9569 107.583 60.9242C107.598 60.8987 107.594 60.866 107.58 60.8442L107.569 60.8296L107.565 60.826Z" fill="#1E1735"/>
<path d="M98.9145 65.3666C99.0454 66.6318 99.9471 67.5698 100.925 67.468C101.903 67.3662 102.587 66.2573 102.456 64.9957C102.325 63.7341 101.423 62.7925 100.445 62.8943C99.4672 62.9961 98.7836 64.105 98.9145 65.3666Z" fill="#021927"/>
<path d="M101.321 64.6905C101.35 64.9704 101.775 65.1522 102.27 65.1013C102.764 65.0504 103.143 64.7814 103.113 64.5014C103.084 64.2215 102.659 64.0397 102.164 64.0906C101.67 64.1415 101.292 64.4105 101.321 64.6905Z" fill="white"/>
<path d="M96.6386 63.8217C98.0857 63.4473 99.5838 63.2546 101.074 63.2546C102.558 63.2291 104.078 63.4327 105.405 64.1271L105.467 64.0144C105.009 63.2546 104.267 62.771 103.492 62.4329C102.711 62.102 101.878 62.0584 101.067 61.9639C100.256 62.0548 99.4565 62.1166 98.6966 62.4002C97.9439 62.6874 97.2131 63.0473 96.5986 63.6945L96.635 63.8181L96.6386 63.8217Z" fill="#021927"/>
<path d="M89.9092 63.9453C89.7529 66.6503 89.931 69.6753 91.6872 71.864C91.9308 72.1112 92.1817 72.3912 92.4398 72.6348C94.2615 74.5544 92.6107 76.5977 90.4837 77.1467C89.8001 77.3067 88.8766 77.383 88.3203 76.9904C88.9857 77.2885 89.7602 77.2158 90.4437 77.0122C92.3599 76.4596 93.9742 74.5581 92.2544 72.8093C91.9963 72.5657 91.7345 72.2857 91.4872 72.0312C89.7311 69.8098 89.4984 66.6067 89.9092 63.9453Z" fill="#122045"/>
<path d="M93.1825 84.5263C91.4227 85.9988 88.7648 86.1152 86.8232 84.9154C86.5178 84.719 86.2015 84.4718 85.8997 84.2609C85.2452 83.6901 84.6816 83.0139 84.1762 82.3122C83.9581 81.8832 83.5945 81.4323 83.46 81.0215C83.9472 81.7704 84.6271 82.7012 85.238 83.3375C87.5468 85.668 90.3501 86.2315 93.1789 84.5263H93.1825Z" fill="#122045"/>
<path d="M80.4201 41.4777C80.4201 41.4777 96.2793 57.925 114.342 60.1536C114.342 60.1536 118.225 20.2788 86.8372 20.2788C55.4497 20.2788 63.5101 60.957 63.5101 60.957L80.4164 41.4777H80.4201Z" fill="#3B4082"/>
<path d="M98.9007 93.9243C98.9007 93.9243 87.6371 99.9411 75.6827 93.6152L74.2139 98.2324C74.2139 98.2324 91.6001 99.403 98.9007 93.9279V93.9243Z" fill="#1E1735"/>
</svg>
