<svg width="674" height="484" viewBox="0 0 674 484" fill="none" xmlns="http://www.w3.org/2000/svg">
<g clip-path="url(#clip0_481_3565)">
<path d="M624.152 87.4455C624.152 160.185 593.389 219.146 555.456 219.146C537.467 219.146 521.094 205.889 508.842 184.186C497.116 163.406 489.175 134.878 487.235 102.85C487.05 99.7929 486.916 96.6975 486.847 93.5761C486.791 91.5412 486.77 89.4976 486.77 87.4369H624.156L624.152 87.4455Z" fill="#FFBC00"/>
<path d="M580.34 93.5847C580.34 135.99 562.406 170.364 540.291 170.364C529.802 170.364 520.258 162.634 513.119 149.985C506.281 137.87 501.656 121.241 500.522 102.569C500.414 100.789 500.337 98.9824 500.294 97.1631C500.263 95.9775 500.246 94.7876 500.246 93.5847H580.335H580.34Z" fill="#FBC922"/>
<path d="M595.946 272.683C595.963 273.446 595.829 274.149 595.558 274.796C591.104 285.518 549.667 279.965 549.667 279.965V279.607C535.911 280.396 516.098 279.995 516.287 271.161C516.287 271.161 556.656 253.929 532.708 208.221H562.566V209.743H579.525C577.309 213.977 575.641 217.969 574.443 221.729C562.721 258.504 595.95 272.683 595.95 272.683H595.946Z" fill="#FBC922"/>
<path d="M537.954 212.433C537.333 212.433 536.699 212.326 536.079 212.101L518.912 205.824C486.933 194.136 460.624 169.601 446.738 138.512L437.952 118.849C430.49 102.143 433.516 82.5048 445.66 68.8208L446.216 68.1914C449.337 64.6734 454.222 63.4145 458.653 64.9924C463.085 66.566 466.081 70.6229 466.288 75.3222L467.051 92.9768C467.176 95.8481 469.526 98.0986 472.401 98.0986H494.055C497.069 98.0986 499.513 100.543 499.513 103.557C499.513 106.57 497.069 109.015 494.055 109.015H472.401C463.663 109.015 456.524 102.177 456.144 93.4467L455.381 75.7921C455.377 75.6498 455.364 75.4041 455.002 75.2748C454.636 75.1454 454.476 75.3265 454.381 75.4343L453.825 76.0637C444.518 86.5487 442.203 101.591 447.919 114.391L456.705 134.055C469.396 162.466 493.439 184.884 522.663 195.568L539.829 201.845C542.661 202.88 544.114 206.014 543.08 208.846C542.269 211.058 540.178 212.433 537.954 212.433Z" fill="#FBC922"/>
<path d="M569.95 212.433C567.721 212.433 565.63 211.062 564.824 208.846C563.79 206.014 565.247 202.88 568.075 201.845L585.241 195.568C614.465 184.884 638.507 162.466 651.199 134.055L659.985 114.391C665.705 101.591 663.386 86.5444 654.079 76.0637L653.523 75.4343C653.428 75.3265 653.264 75.1454 652.902 75.2748C652.54 75.4041 652.527 75.6455 652.522 75.7921L651.759 93.4467C651.384 102.177 644.241 109.015 635.503 109.015H613.849C610.835 109.015 608.391 106.57 608.391 103.557C608.391 100.543 610.835 98.0986 613.849 98.0986H635.503C638.378 98.0986 640.728 95.8481 640.853 92.9768L641.616 75.3222C641.818 70.6229 644.814 66.566 649.246 64.9924C653.682 63.4145 658.562 64.6734 661.688 68.1914L662.244 68.8208C674.392 82.5048 677.418 102.143 669.952 118.853L661.166 138.517C647.276 169.605 620.97 194.141 588.992 205.829L571.825 212.106C571.209 212.33 570.575 212.438 569.95 212.438V212.433Z" fill="#FBC922"/>
<path d="M624.152 87.4455C624.152 160.185 593.389 219.146 555.456 219.146C537.467 219.146 521.094 205.889 508.842 184.186C586.172 188.234 579.076 116.71 572.993 87.4412H624.152V87.4455Z" fill="#FFA800"/>
<path d="M634.585 87.4455C634.585 89.1355 633.899 90.6746 632.792 91.7869C631.684 92.8949 630.149 93.5804 628.455 93.5804H482.459C479.066 93.5804 476.32 90.8341 476.32 87.4412C476.32 85.7468 477.006 84.2206 478.114 83.104C479.23 81.996 480.765 81.3105 482.455 81.3105H628.45C631.834 81.3105 634.581 84.0568 634.581 87.4412L634.585 87.4455Z" fill="#FBC922"/>
<path d="M634.585 87.4455C634.585 89.1355 633.9 90.6746 632.792 91.7869C631.684 92.8949 630.149 93.5804 628.455 93.5804H573.296C581.357 90.4849 585.53 85.0657 587.548 81.3148H628.455C631.839 81.3148 634.585 84.0611 634.585 87.4455Z" fill="#FFA800"/>
<path d="M595.945 272.683C595.962 273.446 595.829 274.149 595.557 274.796C581.598 278.654 556.095 284.841 560.281 277.227C564.803 269.01 562.828 247.803 561.802 239.271C561.341 235.434 562.104 231.515 564.173 228.256C568.277 221.806 574.438 221.724 574.438 221.724C562.716 258.499 595.945 272.679 595.945 272.679V272.683Z" fill="#FFA800"/>
<path d="M619.803 285.673V291.64H491.111V285.673C491.111 277.663 497.617 271.161 505.622 271.161H605.292C613.306 271.161 619.803 277.667 619.803 285.673Z" fill="#FBC922"/>
<path d="M619.802 285.673V291.64H558.862C579.149 280.59 554.31 271.161 554.31 271.161H605.291C613.305 271.161 619.802 277.667 619.802 285.673Z" fill="#FFA800"/>
<path d="M593.746 93.5847L487.231 102.858C487.045 99.8016 486.912 96.7061 486.843 93.5847H593.746Z" fill="#FFA800"/>
<path d="M491.878 116.706L491.128 115.335C489.843 112.99 487.916 111.063 485.571 109.782L484.2 109.032L485.571 108.282C487.916 107.001 489.843 105.07 491.128 102.725L491.878 101.354L492.628 102.725C493.908 105.07 495.84 106.997 498.185 108.282L499.556 109.032L498.185 109.782C495.84 111.063 493.913 112.994 492.628 115.335L491.878 116.706Z" fill="white"/>
<path d="M500.479 104.824L500.138 104.203C499.556 103.143 498.685 102.268 497.625 101.69L497.004 101.349L497.625 101.009C498.685 100.427 499.56 99.5558 500.138 98.4952L500.479 97.8744L500.819 98.4952C501.401 99.5558 502.272 100.431 503.332 101.009L503.953 101.349L503.332 101.69C502.272 102.272 501.397 103.143 500.819 104.203L500.479 104.824Z" fill="white"/>
<path d="M456.205 341.849H453.955V290.73L455.076 290.726L638.146 290.036L638.154 292.287L456.205 292.972V341.849Z" fill="#8C7BC6"/>
<path d="M334.338 372.261H332.088V392.765H334.338V372.261Z" fill="#8C7BC6"/>
<path d="M334.338 363.013H332.088V341.418L389.756 341.198L389.764 343.448L334.338 343.66V363.013Z" fill="#8C7BC6"/>
<path d="M516.256 340.758L424.722 341.109L424.73 343.36L516.265 343.008L516.256 340.758Z" fill="#8C7BC6"/>
<path d="M212.475 443.22H210.225V392.105L211.345 392.101L394.415 391.407L394.428 393.657L212.475 394.347V443.22Z" fill="#8C7BC6"/>
<path d="M2.59115 484H0.34082V442.789L130.235 442.457L130.239 444.707L2.59115 445.035V484Z" fill="#8C7BC6"/>
<path d="M272.563 442.083L166.298 442.361L166.304 444.612L272.569 444.334L272.563 442.083Z" fill="#8C7BC6"/>
<path d="M119.587 107.928C119.208 107.799 118.927 107.445 118.919 107.019C118.897 106.238 118.893 105.462 118.902 104.682C118.906 104.139 119.354 103.703 119.897 103.708C120.441 103.712 120.876 104.16 120.872 104.703C120.863 105.458 120.872 106.212 120.889 106.967C120.902 107.51 120.471 107.963 119.928 107.976C119.807 107.976 119.695 107.958 119.587 107.924V107.928Z" fill="#6737C2"/>
<path d="M119.781 101.013C119.363 100.871 119.079 100.461 119.113 99.9999C119.238 98.4564 119.415 96.8915 119.648 95.3437C119.73 94.8048 120.23 94.434 120.769 94.5159C121.303 94.5936 121.678 95.098 121.596 95.6369C121.372 97.1415 121.2 98.6634 121.079 100.159C121.036 100.703 120.562 101.108 120.018 101.065C119.937 101.056 119.855 101.043 119.781 101.017V101.013ZM121.135 91.8775C120.665 91.7179 120.381 91.2308 120.488 90.735C120.812 89.226 121.195 87.6998 121.618 86.1909C121.764 85.6649 122.312 85.3631 122.834 85.5097C123.364 85.6606 123.661 86.1995 123.515 86.7255C123.101 88.1913 122.73 89.683 122.415 91.1488C122.299 91.6791 121.777 92.0197 121.243 91.9033C121.204 91.8947 121.17 91.8861 121.135 91.8731V91.8775ZM123.644 82.9876C123.118 82.8022 122.851 82.2418 123.028 81.7287C123.541 80.2672 124.101 78.7971 124.705 77.3614C124.916 76.8613 125.493 76.6156 125.993 76.8311C126.494 77.0424 126.731 77.6201 126.524 78.1202C125.937 79.5214 125.386 80.9527 124.89 82.3797C124.713 82.8885 124.157 83.1601 123.644 82.9876ZM127.209 74.4686C127.17 74.4556 127.127 74.4384 127.088 74.4211C126.601 74.184 126.399 73.5934 126.636 73.1019C127.317 71.7094 128.05 70.3168 128.813 68.9631C129.08 68.4888 129.679 68.3207 130.154 68.588C130.628 68.8553 130.796 69.4546 130.529 69.9288C129.783 71.2524 129.072 72.6104 128.403 73.9685C128.183 74.4168 127.666 74.6238 127.205 74.4686H127.209ZM131.744 66.4194C131.671 66.3936 131.598 66.3591 131.529 66.316C131.072 66.0228 130.938 65.4106 131.231 64.9536C132.072 63.643 132.96 62.3453 133.87 61.0907C134.189 60.651 134.805 60.5518 135.245 60.8708C135.685 61.1899 135.784 61.8064 135.465 62.2461C134.577 63.4705 133.71 64.738 132.891 66.0142C132.641 66.4022 132.167 66.5574 131.749 66.4151L131.744 66.4194ZM137.172 58.9437C137.064 58.9049 136.956 58.8489 136.861 58.7712C136.439 58.4263 136.379 57.8055 136.724 57.383C137.711 56.1802 138.741 54.9903 139.797 53.8521C140.164 53.4511 140.789 53.4253 141.19 53.796C141.591 54.1668 141.616 54.7876 141.246 55.1886C140.22 56.3009 139.211 57.4606 138.25 58.6333C137.982 58.9609 137.551 59.0687 137.172 58.9437ZM143.44 52.1535C143.293 52.106 143.16 52.0198 143.043 51.9034C142.668 51.5111 142.677 50.8859 143.074 50.5109C144.199 49.4287 145.371 48.3725 146.548 47.3723C146.962 47.0187 147.587 47.0705 147.936 47.4843C148.29 47.8982 148.238 48.5234 147.824 48.8726C146.678 49.8469 145.535 50.8773 144.44 51.9293C144.164 52.1922 143.776 52.2655 143.44 52.1535ZM194.146 68.6527C193.878 68.5621 193.615 68.4673 193.353 68.3638C192.49 68.0318 191.654 67.6438 190.869 67.217C190.391 66.9583 190.214 66.3591 190.473 65.8805C190.731 65.402 191.335 65.2252 191.809 65.4839C192.525 65.8719 193.284 66.2211 194.068 66.5272C194.663 66.7557 195.262 66.9497 195.87 67.1135C196.4 67.2472 196.711 67.7904 196.573 68.3164C196.435 68.8424 195.896 69.1571 195.37 69.0191C194.961 68.9113 194.555 68.7906 194.15 68.6527H194.146ZM199.866 69.6098C199.474 69.4761 199.194 69.1053 199.198 68.6656C199.203 68.1224 199.647 67.6826 200.19 67.6869C201.651 67.6999 203.113 67.5317 204.527 67.1868C205.057 67.0575 205.587 67.3852 205.716 67.9111C205.846 68.4414 205.522 68.9717 204.992 69.101C203.419 69.4847 201.798 69.6701 200.172 69.6572C200.065 69.6572 199.961 69.6399 199.866 69.6055V69.6098ZM187.278 64.6087C187.149 64.5656 187.033 64.4966 186.925 64.3974C185.744 63.3024 184.692 62.0521 183.808 60.6768C183.515 60.2198 183.644 59.6076 184.101 59.3145C184.558 59.0213 185.17 59.1506 185.463 59.6119C186.261 60.8493 187.201 61.9702 188.261 62.9532C188.662 63.3239 188.684 63.9448 188.317 64.3457C188.046 64.6389 187.636 64.7294 187.278 64.6087ZM208.751 67.4412C208.523 67.3636 208.32 67.2041 208.2 66.9756C207.941 66.497 208.122 65.8978 208.6 65.6434C209.894 64.9493 211.075 64.0913 212.114 63.0954C212.506 62.7204 213.131 62.729 213.506 63.1256C213.881 63.5179 213.868 64.1431 213.476 64.5182C212.312 65.6348 210.984 66.6005 209.532 67.3808C209.282 67.5145 209.001 67.5317 208.751 67.4455V67.4412ZM182.299 56.9346C182.023 56.8398 181.79 56.6285 181.687 56.3311C181.161 54.8566 180.777 53.2873 180.545 51.662C180.467 51.1231 180.842 50.6229 181.377 50.5453C181.915 50.4677 182.416 50.8428 182.493 51.3774C182.709 52.8734 183.062 54.3177 183.545 55.6671C183.726 56.1802 183.459 56.7449 182.946 56.926C182.73 57.0036 182.502 56.9993 182.299 56.9303V56.9346ZM150.493 46.1737C150.307 46.1134 150.144 45.997 150.019 45.8288C149.695 45.3934 149.786 44.7769 150.221 44.4492C151.476 43.5137 152.773 42.6169 154.071 41.7762C154.528 41.4831 155.14 41.6124 155.433 42.0694C155.731 42.5264 155.597 43.1386 155.14 43.4318C153.877 44.2466 152.618 45.1218 151.394 46.0314C151.122 46.2298 150.786 46.2729 150.488 46.1737H150.493ZM215.326 61.1123C215.261 61.0907 215.201 61.0648 215.14 61.026C214.67 60.7501 214.515 60.1465 214.787 59.6766C215.377 58.6678 215.851 57.6417 216.196 56.6199C216.304 56.3052 216.395 55.9948 216.477 55.6844C216.615 55.1584 217.153 54.8437 217.679 54.9816C218.205 55.1153 218.52 55.6585 218.382 56.1845C218.287 56.538 218.184 56.8958 218.063 57.2537C217.675 58.4005 217.145 59.5516 216.485 60.6768C216.244 61.0864 215.752 61.2588 215.321 61.1123H215.326ZM158.257 41.164C158.033 41.0864 157.834 40.9312 157.709 40.707C157.446 40.2285 157.619 39.6292 158.093 39.3662C159.464 38.6074 160.874 37.8918 162.275 37.2451C162.77 37.0166 163.352 37.2322 163.581 37.7236C163.809 38.2151 163.594 38.8015 163.102 39.03C161.74 39.6594 160.374 40.3535 159.046 41.0907C158.796 41.2287 158.507 41.2459 158.253 41.164H158.257ZM180.946 47.8508C180.545 47.7172 180.264 47.3335 180.277 46.8894C180.325 45.3158 180.497 43.7206 180.795 42.147C180.894 41.6124 181.411 41.2589 181.946 41.3624C182.476 41.4615 182.834 41.9789 182.73 42.5135C182.45 43.9879 182.291 45.4796 182.247 46.9498C182.23 47.493 181.778 47.9198 181.234 47.9069C181.135 47.9069 181.036 47.8853 180.95 47.8551L180.946 47.8508ZM166.637 37.2882C166.366 37.1977 166.137 36.9907 166.03 36.7019C165.84 36.1931 166.094 35.6241 166.607 35.4344C168.073 34.8825 169.569 34.3867 171.06 33.9513C171.582 33.8004 172.13 34.1022 172.28 34.6238C172.431 35.1455 172.13 35.693 171.608 35.8439C170.168 36.2621 168.72 36.745 167.297 37.2753C167.077 37.3572 166.844 37.3572 166.637 37.2882ZM217.546 52.2957C217.184 52.175 216.908 51.843 216.878 51.4378C216.77 50.0366 216.425 48.6398 215.852 47.286C215.64 46.7859 215.873 46.2082 216.373 45.9926C216.873 45.7814 217.451 46.0142 217.666 46.5143C218.326 48.0707 218.723 49.6745 218.843 51.2869C218.886 51.8301 218.477 52.3043 217.938 52.3431C217.8 52.3518 217.671 52.3345 217.55 52.2957H217.546ZM182.648 38.8015C182.122 38.6161 181.851 38.0513 182.032 37.5383C182.566 36.0207 183.222 34.5549 183.972 33.1753C183.998 33.1321 184.024 33.089 184.054 33.0502C184.011 32.9424 183.985 32.8304 183.976 32.7053C183.955 32.1621 184.377 31.7051 184.92 31.6836C186.477 31.6232 188.059 31.6275 189.619 31.6965C190.162 31.718 190.585 32.1794 190.559 32.7226C190.533 33.2658 190.076 33.6883 189.533 33.6624C188.3 33.6064 187.054 33.5934 185.821 33.6236C185.821 33.7918 185.787 33.9599 185.701 34.1151C184.998 35.3999 184.39 36.7709 183.89 38.1893C183.709 38.698 183.157 38.9653 182.644 38.7928L182.648 38.8015ZM175.501 34.7187C175.182 34.6109 174.923 34.3393 174.85 33.9815C174.742 33.4469 175.083 32.9252 175.617 32.8174C177.148 32.5027 178.704 32.2483 180.247 32.0586C180.786 31.994 181.277 32.3777 181.346 32.9166C181.411 33.4555 181.027 33.947 180.489 34.016C179.001 34.197 177.497 34.4428 176.018 34.7489C175.841 34.7834 175.665 34.7704 175.505 34.7187H175.501ZM214.075 43.8801C213.899 43.8198 213.739 43.712 213.618 43.5568C212.743 42.4445 211.704 41.3839 210.536 40.4096C210.118 40.0603 210.062 39.4395 210.411 39.0213C210.76 38.6031 211.381 38.5471 211.799 38.8963C213.075 39.9612 214.209 41.1209 215.17 42.341C215.507 42.7678 215.433 43.3886 215.007 43.7249C214.735 43.9362 214.386 43.9879 214.08 43.8844L214.075 43.8801ZM193.861 34.0116C193.426 33.8651 193.141 33.4253 193.202 32.9554C193.271 32.4165 193.762 32.0328 194.305 32.1017C195.849 32.3001 197.405 32.5631 198.935 32.8864C199.465 32.9985 199.806 33.5202 199.694 34.0548C199.582 34.585 199.06 34.9256 198.526 34.8135C197.047 34.5031 195.542 34.2444 194.055 34.0548C193.991 34.0461 193.926 34.0332 193.866 34.0116H193.861ZM207.053 37.9608C206.992 37.9392 206.936 37.9133 206.88 37.8832C205.591 37.1502 204.233 36.5208 202.841 36.0078C202.328 35.8224 202.069 35.2533 202.255 34.7446C202.44 34.2315 202.988 33.9556 203.518 34.1582C205.014 34.7058 206.471 35.3826 207.855 36.1716C208.329 36.4389 208.493 37.0425 208.225 37.5167C207.988 37.9349 207.493 38.1117 207.053 37.9651V37.9608ZM186.925 30.6402C186.847 30.6144 186.77 30.5756 186.696 30.5281C186.244 30.2263 186.119 29.6185 186.42 29.1615C187.283 27.8552 188.205 26.5747 189.158 25.3503C189.494 24.9235 190.111 24.8459 190.542 25.1779C190.973 25.5098 191.05 26.1306 190.714 26.5618C189.796 27.7431 188.904 28.9847 188.067 30.2479C187.817 30.6273 187.343 30.7782 186.929 30.6402H186.925ZM192.589 23.3628C192.464 23.3197 192.344 23.2507 192.24 23.1559C191.839 22.7894 191.809 22.1643 192.176 21.7633C193.227 20.6122 194.335 19.487 195.474 18.4221C195.87 18.0513 196.495 18.0686 196.866 18.4695C197.237 18.8662 197.215 19.4913 196.819 19.8621C195.719 20.8925 194.65 21.9789 193.633 23.0912C193.361 23.3887 192.947 23.4835 192.589 23.3628ZM199.319 17.0597C199.146 16.9994 198.987 16.8959 198.866 16.7407C198.526 16.3139 198.595 15.6974 199.021 15.3568C200.237 14.3868 201.509 13.4469 202.802 12.5674C203.251 12.2613 203.867 12.3777 204.173 12.8261C204.479 13.2744 204.363 13.891 203.914 14.1971C202.66 15.0507 201.431 15.9561 200.259 16.8959C199.987 17.1115 199.634 17.1632 199.328 17.0597H199.319ZM206.949 11.8604C206.729 11.7871 206.535 11.6362 206.41 11.4206C206.139 10.9507 206.298 10.3471 206.773 10.0755C208.113 9.30377 209.506 8.56224 210.911 7.88106C211.403 7.64394 211.989 7.84657 212.23 8.33805C212.467 8.82953 212.265 9.41587 211.773 9.65299C210.407 10.3169 209.057 11.0326 207.755 11.7828C207.501 11.9293 207.208 11.9509 206.949 11.8647V11.8604ZM215.244 7.8207C214.981 7.73016 214.757 7.53615 214.644 7.25592C214.442 6.7515 214.683 6.17811 215.188 5.97117C216.615 5.39346 218.089 4.85024 219.576 4.35444C220.093 4.18199 220.65 4.46222 220.822 4.97957C220.994 5.49693 220.714 6.05308 220.197 6.22553C218.753 6.70839 217.313 7.23437 215.929 7.79914C215.701 7.88968 215.459 7.89399 215.244 7.8207ZM223.991 4.89766C223.689 4.79419 223.443 4.54845 223.353 4.22079C223.21 3.69482 223.525 3.15591 224.051 3.01364C225.534 2.617 227.064 2.25485 228.595 1.93582C229.129 1.82373 229.651 2.16863 229.759 2.69891C229.871 3.23351 229.526 3.75517 228.996 3.86296C227.5 4.17337 226.008 4.52689 224.564 4.9149C224.37 4.96664 224.172 4.95802 223.995 4.89766H223.991ZM233.022 3.01364C232.686 2.90154 232.419 2.60407 232.363 2.22899C232.281 1.69008 232.647 1.18997 233.186 1.10375C234.699 0.870937 236.255 0.672619 237.812 0.513102C238.35 0.457055 238.838 0.84938 238.894 1.3926C238.95 1.93582 238.557 2.41868 238.014 2.47473C236.492 2.62993 234.971 2.82394 233.488 3.05244C233.328 3.07831 233.169 3.06106 233.026 3.01364H233.022ZM323.018 30.235C322.893 30.1919 322.772 30.1229 322.669 30.028C321.548 29.0019 320.388 27.9888 319.224 27.0145C318.806 26.6652 318.75 26.0444 319.099 25.6262C319.449 25.208 320.069 25.152 320.488 25.5012C321.673 26.4928 322.854 27.5275 323.997 28.5708C324.398 28.9373 324.428 29.5624 324.057 29.9634C323.785 30.2608 323.372 30.3514 323.014 30.2307L323.018 30.235ZM242.2 2.06947C241.829 1.94444 241.554 1.60385 241.532 1.18997C241.502 0.646751 241.92 0.181134 242.463 0.150955C243.998 0.06473 245.567 0.0173061 247.123 6.10352e-05C247.667 6.10352e-05 248.115 0.431188 248.119 0.974407C248.123 1.51763 247.688 1.966 247.145 1.97031C245.619 1.98755 244.08 2.03498 242.575 2.11689C242.446 2.12552 242.321 2.10827 242.204 2.06516L242.2 2.06947ZM315.935 24.307C315.836 24.2725 315.741 24.2251 315.651 24.1561C314.448 23.2378 313.202 22.3281 311.952 21.4615C311.503 21.1511 311.396 20.5389 311.706 20.0906C312.016 19.6422 312.629 19.5344 313.077 19.8448C314.353 20.7286 315.62 21.6556 316.845 22.5911C317.276 22.9231 317.362 23.5396 317.03 23.9707C316.767 24.3156 316.323 24.4363 315.931 24.307H315.935ZM251.43 1.97462C251.029 1.84097 250.745 1.45296 250.762 1.0089C250.779 0.465678 251.236 0.0388624 251.779 0.0561075C253.318 0.107843 254.883 0.189757 256.435 0.306161C256.978 0.344962 257.383 0.819202 257.345 1.36242C257.306 1.90564 256.832 2.3109 256.288 2.2721C254.762 2.16001 253.223 2.07378 251.715 2.02636C251.615 2.02636 251.521 2.0048 251.43 1.97462ZM308.352 19.0343C308.279 19.0084 308.21 18.9783 308.141 18.9351C306.856 18.1246 305.537 17.3357 304.218 16.5812C303.744 16.3139 303.58 15.7103 303.851 15.2361C304.119 14.7618 304.722 14.5937 305.196 14.8696C306.542 15.637 307.891 16.4432 309.197 17.2667C309.658 17.5555 309.796 18.1634 309.503 18.6247C309.257 19.0171 308.775 19.1766 308.356 19.0343H308.352ZM260.647 2.66011C260.216 2.51353 259.931 2.0824 259.983 1.61247C260.043 1.07357 260.535 0.685552 261.074 0.74591C262.604 0.922672 264.16 1.12961 265.695 1.37104C266.234 1.45296 266.6 1.95738 266.518 2.49628C266.436 3.03519 265.932 3.40165 265.393 3.31974C263.88 3.08693 262.354 2.87999 260.845 2.70754C260.776 2.69891 260.707 2.68598 260.643 2.66011H260.647ZM300.325 14.46C300.278 14.4428 300.235 14.4256 300.191 14.404C298.846 13.7142 297.458 13.0416 296.074 12.4079C295.579 12.1794 295.363 11.5974 295.587 11.1016C295.811 10.6058 296.402 10.3902 296.894 10.6144C298.308 11.2611 299.717 11.9466 301.092 12.6493C301.575 12.8994 301.769 13.49 301.519 13.9772C301.295 14.4169 300.782 14.6153 300.329 14.46H300.325ZM269.79 4.0699C269.329 3.91469 269.045 3.44045 269.139 2.94897C269.243 2.41437 269.76 2.06516 270.295 2.16863C271.817 2.46179 273.347 2.79376 274.852 3.14297C275.382 3.268 275.709 3.79829 275.589 4.32857C275.464 4.85886 274.933 5.18651 274.403 5.0658C272.925 4.7209 271.416 4.39755 269.92 4.1087C269.877 4.10008 269.834 4.08714 269.79 4.07421V4.0699ZM291.923 10.6101C291.923 10.6101 291.884 10.5972 291.867 10.5885C291.091 10.2738 290.306 9.9634 289.517 9.66592C288.879 9.42449 288.237 9.18737 287.59 8.95456C287.077 8.76918 286.81 8.2044 286.996 7.69567C287.181 7.18263 287.737 6.91102 288.254 7.10072C288.914 7.33784 289.569 7.57927 290.216 7.82501C291.018 8.13111 291.815 8.44152 292.608 8.76486C293.113 8.97181 293.354 9.5452 293.152 10.0496C292.953 10.5368 292.414 10.7782 291.923 10.6101ZM278.796 6.17811C278.305 6.01428 278.024 5.4883 278.162 4.98388C278.305 4.45791 278.848 4.15181 279.374 4.29408C280.87 4.70365 282.374 5.14771 283.844 5.61333C284.366 5.75129 284.65 6.329 284.487 6.85066C284.323 7.36802 283.771 7.65687 283.249 7.49304C281.801 7.03605 280.322 6.60061 278.852 6.19535C278.835 6.19104 278.813 6.18242 278.796 6.17811Z" fill="#6737C2"/>
<path d="M328.079 35.18C327.933 35.1326 327.799 35.0463 327.683 34.9299C327.157 34.3781 326.626 33.8392 326.088 33.3003C325.704 32.9166 325.704 32.2914 326.088 31.9077C326.471 31.524 327.096 31.524 327.48 31.9077C328.027 32.4553 328.566 33.0071 329.101 33.5676C329.476 33.9599 329.463 34.585 329.071 34.9601C328.795 35.2231 328.411 35.2964 328.075 35.18H328.079Z" fill="#6737C2"/>
<path d="M324.707 36.9217L326.794 43.0524L385.763 32.5156L324.707 36.9217Z" fill="#765091"/>
<path d="M322.643 14.9645L326.044 23.9836L385.764 32.5156L322.643 14.9645Z" fill="#765091"/>
<path d="M322.643 14.9645L332.635 4.11301L385.764 32.5156L322.643 14.9645Z" fill="#AE9AE3"/>
<path d="M316.176 22.5739L301.622 39.0386L385.764 32.5156L316.176 22.5739Z" fill="#AE9AE3"/>
<path d="M503.803 277.978C505.411 277.439 507.023 277.107 508.631 276.839C510.239 276.581 511.851 276.4 513.459 276.288C515.067 276.175 516.68 276.184 518.288 276.305C519.896 276.43 521.508 276.581 523.116 276.663L527.944 276.917L532.773 277.227C535.993 277.456 539.213 277.68 542.429 277.978V278.353C539.209 278.65 535.989 278.874 532.773 279.103L527.944 279.413L523.116 279.668C521.508 279.75 519.896 279.896 518.288 280.025C516.68 280.146 515.067 280.155 513.459 280.043C511.851 279.935 510.239 279.754 508.631 279.491C507.023 279.224 505.411 278.892 503.803 278.353V277.978Z" fill="white"/>
<path d="M488.662 87.217C490.805 86.6522 492.947 86.3935 495.085 86.2168C496.154 86.1349 497.228 86.0788 498.297 86.0616C499.366 86.0271 500.44 86.0529 501.509 86.1564C503.647 86.3547 505.789 86.8505 507.928 86.9454C510.066 87.0532 512.208 86.9109 514.351 86.6263C515.42 86.4927 516.494 86.3461 517.563 86.2513C518.632 86.1478 519.705 86.1047 520.774 86.0486C522.917 85.9408 525.055 85.8288 527.198 85.8848C529.34 85.9452 531.479 86.0874 533.617 86.3202C534.686 86.4366 535.755 86.5703 536.828 86.7471C537.898 86.9152 538.967 87.1092 540.036 87.3722V87.674C538.962 87.9327 537.893 88.1224 536.82 88.2819C535.751 88.4543 534.677 88.5793 533.608 88.6914C531.466 88.9113 529.327 89.0407 527.185 89.0881C525.042 89.1312 522.904 89.0062 520.761 88.8854C519.692 88.8251 518.623 88.7734 517.55 88.6656C516.481 88.5621 515.412 88.4112 514.338 88.2689C512.2 87.9715 510.057 87.8163 507.919 87.9111C505.777 87.993 503.634 88.4716 501.496 88.6569C500.427 88.7518 499.353 88.769 498.284 88.7302C497.215 88.7044 496.141 88.644 495.072 88.5535C492.934 88.3681 490.792 88.0922 488.653 87.5145V87.2127L488.662 87.217Z" fill="white"/>
<path d="M268.652 181.129C288.396 185.51 287.051 220.254 268.018 224.617C261.379 226.139 254.632 223.957 248.519 221.491C245.079 220.103 241.738 218.478 238.492 216.68C238.147 216.49 234.526 214.779 234.552 214.361C234.552 214.361 237.246 174.167 268.647 181.134L268.652 181.129Z" fill="#1E1735"/>
<path d="M284.663 161.897C284.663 161.897 296.561 146.376 281.098 134.999C267.363 124.893 247.089 126.096 238.686 143.962C236.889 147.782 232.625 149.739 228.577 148.553C220.365 146.152 206.966 144.63 196.254 154.895C179.579 170.881 185.14 200.72 212.842 202.867C240.549 205.014 284.663 161.897 284.663 161.897Z" fill="#62280A"/>
<path d="M248.339 280.224C248.339 280.224 271.864 206.342 250.369 194.089C228.874 181.836 215.722 282.638 215.722 282.638L248.343 280.224H248.339Z" fill="#452B96"/>
<path d="M258.499 207.769C259.641 210.2 260.904 212.576 262.193 214.968C262.625 215.766 263.06 216.564 263.5 217.361C267.108 224.255 272.109 230.929 271.553 238.711C270.44 247.049 260.991 248.717 253.533 248.109C252.649 247.928 251.813 247.648 251.058 247.255C250.459 246.898 249.877 246.484 249.317 246.031C245.411 242.871 242.647 237.87 242.647 237.87C242.647 237.87 242.928 237.503 243.415 236.857C243.906 236.214 244.605 235.292 245.445 234.188C248.204 230.364 248.76 226.475 249.692 221.888C249.847 220.689 249.998 219.469 250.196 218.267C250.429 213.688 253.209 209.243 257.421 207.833C258.102 207.773 258.499 207.764 258.499 207.764V207.769Z" fill="white"/>
<path d="M135.18 292.808C136.219 292.274 137.111 291.575 137.952 290.795C138.788 290.01 139.534 289.114 140.185 288.109C140.831 287.1 141.37 285.966 141.711 284.682C142.051 283.405 142.168 281.953 141.905 280.461C141.642 278.973 140.935 277.512 139.969 276.387C139.499 275.8 138.952 275.339 138.404 274.899C138.124 274.701 137.835 274.516 137.551 274.33C137.266 274.141 136.973 274.011 136.684 273.852C136.098 273.537 135.512 273.347 134.925 273.114C134.343 272.92 133.761 272.752 133.188 272.597C132.05 272.33 130.895 272.084 129.696 271.955C127.325 271.683 124.7 271.847 122.363 272.968C121.216 273.533 120.169 274.283 119.307 275.162C118.449 276.046 117.759 277.029 117.199 278.042C116.099 280.09 115.513 282.25 115.164 284.384C114.832 286.531 114.75 288.661 114.914 290.795H115.526C115.668 289.79 115.884 288.769 116.134 287.777C116.384 286.781 116.673 285.802 117.022 284.854C117.72 282.966 118.587 281.155 119.764 279.702C120.341 278.973 120.979 278.335 121.673 277.822C122.372 277.314 123.126 276.96 123.898 276.732C125.437 276.236 127.144 276.344 128.855 276.77C129.282 276.861 129.713 277.046 130.136 277.171C130.563 277.318 130.985 277.534 131.403 277.71C131.804 277.913 132.196 278.124 132.567 278.34C132.912 278.581 133.291 278.788 133.576 279.047C134.223 279.508 134.701 280.017 135.081 280.474C135.46 280.939 135.736 281.371 135.96 281.909C136.426 282.966 136.49 284.63 136.184 286.466C135.895 288.312 135.322 290.291 134.718 292.407L135.18 292.808Z" fill="#452B96"/>
<path d="M144.288 272.498H130.161C130.161 272.498 140.434 276.788 139.68 284.686L149.871 275.037L144.288 272.502V272.498Z" fill="#FFADAE"/>
<path d="M251.326 190.131C251.326 190.131 267.432 196.258 258.775 212.166C250.119 228.075 228.775 199.913 251.326 190.131Z" fill="#452B96"/>
<path d="M65.3848 305.63C65.3848 305.63 98.2689 279.232 105.248 270.933L143.784 303.867C143.784 303.867 123.997 331.097 102.407 343.448C102.407 343.448 78.9428 324.457 65.3848 305.63Z" fill="#AC1548"/>
<path d="M65.8887 300.263C65.8887 300.263 98.7728 273.865 105.752 265.565L144.288 298.499C144.288 298.499 124.501 325.729 102.911 338.081C102.911 338.081 79.4467 319.09 65.8887 300.263Z" fill="#F96142"/>
<path d="M180.738 319.831C181.238 320.017 181.751 320.189 182.29 320.366C189.916 322.858 197.775 323.875 205.531 323.875C238.656 323.875 269.881 305.341 272.804 304.173C264.488 317.016 255.534 375.136 255.534 375.136L265.251 377.283C265.251 377.283 316.224 299.961 294.07 284.927C271.92 269.89 199.84 285.833 199.84 285.833C199.84 285.833 142.194 305.975 180.743 319.831H180.738Z" fill="#2E1D66"/>
<path d="M180.738 319.831C181.238 320.017 181.751 320.189 182.29 320.366C189.916 322.858 197.775 323.875 205.531 323.875C238.656 323.875 269.881 305.341 272.804 304.173C220.658 309.799 202.194 296.9 202.194 296.9L180.738 319.831Z" fill="#2E1D66"/>
<path d="M84.267 415.718L96.1567 417.891C98.1915 416.74 100.606 415.102 103.287 413.088H103.291C104.326 412.308 105.408 411.476 106.52 410.592L106.65 410.489H106.654C129.011 392.765 165.115 355.822 165.115 355.822C216.334 303.539 219.02 272.532 219.02 272.532L158.14 297.232L140.012 350.17C127.696 358.068 100.619 393.601 89.3496 408.79C88.8453 409.467 88.3754 410.101 87.9356 410.691C85.625 413.834 84.2627 415.718 84.2627 415.718H84.267Z" fill="#452B96"/>
<path d="M208.858 201.155L179.833 235.003L142.754 272.11L148.707 276.331L201.862 240.228L208.858 201.155Z" fill="#452B96"/>
<path d="M248.545 193.102C248.545 193.102 265.212 199.715 259.306 226.208C253.404 252.701 237.264 287.734 214.73 282.03C192.192 276.326 241.269 193.369 248.545 193.102Z" fill="white"/>
<path d="M265.302 183.276C265.302 183.276 259.344 184.044 254.77 193.994C253.541 196.676 252.408 200.017 251.52 204.19C247.338 223.863 232.4 188.195 232.4 188.195L243.32 173.77L259.555 167.441L262.172 174.658L265.302 183.276Z" fill="#FFADAE"/>
<path d="M265.302 183.276C265.302 183.276 259.344 184.044 254.77 193.994C249.438 186.553 256.426 171.851 256.426 171.851L262.172 174.654L265.302 183.272V183.276Z" fill="#FF9395"/>
<path d="M278.709 183.759C269.307 193.274 253.689 186.053 251.05 171.58C250.365 167.838 251.451 161.884 252.71 156.874C253.171 155.029 253.658 153.313 254.085 151.877C254.818 149.429 255.383 147.812 255.383 147.812L259.241 147.751C259.241 147.751 278.033 147.445 278.037 147.445C279.516 147.42 282.374 156.262 282.809 157.56C285.029 164.203 285.663 171.787 282.365 178.491C281.318 180.621 280.076 182.367 278.705 183.755L278.709 183.759Z" fill="#FFADAE"/>
<path d="M284.602 165.6C281.114 167.381 276.665 168.023 272.126 164.302C262.211 156.18 252.705 161.418 252.705 161.418V156.874L252.714 152.977L254.089 151.877L259.249 147.751L278.045 147.445C278.045 147.445 283.623 155.857 284.606 165.6H284.602Z" fill="#FF9395"/>
<path d="M300.945 237.965L315.706 227.04C315.706 227.04 324.336 228.635 328.82 234.908C333.307 241.181 323.767 245.38 323.767 245.38H303.773L300.94 237.969L300.945 237.965Z" fill="#FFADAE"/>
<path d="M65.3848 305.63L65.8891 300.263L68.812 304.138L67.1005 305.63H65.3848Z" fill="#AC1548"/>
<path d="M143.784 303.867L144.289 298.499L141.224 302.491L143.784 303.867Z" fill="#AC1548"/>
<path d="M87.7627 287.605C87.7627 287.605 113.478 318.051 127.467 318.133L124.699 320.909C124.699 320.909 108.839 318.077 87.7627 287.605Z" fill="#AC1548"/>
<path d="M104.071 305.302C101.678 307.695 99.1004 308.989 98.3072 308.2C97.514 307.411 98.8116 304.828 101.204 302.435C103.597 300.043 106.175 298.749 106.968 299.538C107.761 300.327 106.464 302.91 104.071 305.302Z" fill="#452B96"/>
<path d="M255.12 384.061L252.348 392.235L285.555 391.972C285.555 391.972 281.731 384.6 264.211 384.061H255.12Z" fill="#8C7BC6"/>
<path d="M79.9817 421.038L68.5706 430.165C68.5706 430.165 65.0787 435.804 69.2431 437.279C73.4032 438.758 76.895 437.775 82.1286 444.457H101.054C101.054 444.457 95.2555 435.028 84.1289 432.261L92.4922 423.647L79.9817 421.038Z" fill="#8C7BC6"/>
<path d="M256.912 375.438L255.119 384.061H264.211L265.25 377.279L256.912 375.438Z" fill="#FFADAE"/>
<path d="M80.3438 421.116L84.7582 415.718L96.1564 417.895L91.4661 423.435L80.3438 421.116Z" fill="#FFADAE"/>
<path d="M255.43 375.619L265.574 377.87C265.966 377.956 266.371 377.792 266.587 377.451L270.062 372.041C270.454 371.433 270.053 370.627 269.333 370.571L256.073 369.501C255.547 369.458 255.085 369.851 255.042 370.377L254.689 374.606C254.65 375.085 254.969 375.516 255.435 375.619H255.43Z" fill="#2E1D66"/>
<path d="M129.386 279.249L127.851 277.37C127.093 276.438 126.963 275.136 127.532 274.076C128.05 273.106 129.063 272.498 130.162 272.498H133.145C133.856 272.498 134.542 272.752 135.081 273.209L138.249 275.908L142.659 279.637C143.233 280.125 143.604 280.806 143.694 281.552L143.849 282.828C143.914 283.336 143.841 283.858 143.647 284.332L143.354 285.035C142.892 286.152 141.806 286.876 140.599 286.876H137.797C136.969 286.876 136.18 286.531 135.615 285.928L129.515 279.387C129.472 279.34 129.425 279.288 129.386 279.236V279.249Z" fill="#FFADAE"/>
<path d="M87.9399 410.696L103.287 413.093H103.291L106.52 410.596L106.649 410.493C97.8939 411.338 91.7335 409.635 89.3495 408.799C88.8452 409.476 88.3753 410.109 87.9355 410.7L87.9399 410.696Z" fill="#2E1D66"/>
<path d="M86.6593 410.493L102.976 412.899C103.399 412.959 103.524 413.502 103.179 413.748L96.6564 418.339C96.553 418.413 96.4193 418.443 96.2943 418.417L83.4045 415.861C83.0725 415.796 82.9173 415.408 83.1113 415.132L86.2066 410.696C86.3101 410.549 86.4825 410.471 86.6593 410.502V410.493Z" fill="#452B96"/>
<path d="M94.2596 411.679L124.566 383.871L139.719 369.967L147.293 363.017L149.186 361.28L150.134 360.409C150.302 360.249 150.423 360.155 150.647 359.922C150.841 359.706 151.005 359.465 151.13 359.202C151.384 358.676 151.471 358.077 151.389 357.499C151.35 357.21 151.264 356.925 151.139 356.663C151.083 356.537 150.988 356.382 150.94 356.3L150.772 356.024L149.427 353.834C149.354 353.722 149.358 353.701 149.324 353.653C149.311 353.606 149.285 353.558 149.281 353.511C149.259 353.416 149.259 353.317 149.281 353.222C149.319 353.028 149.453 352.851 149.613 352.752C149.694 352.709 149.785 352.675 149.88 352.662H149.953L149.992 352.657H150.074H150.397L151.682 352.67L154.251 352.696L154.893 352.705C155.079 352.709 155.411 352.705 155.669 352.666C156.217 352.588 156.752 352.399 157.226 352.114C157.7 351.825 158.118 351.442 158.441 350.989C158.601 350.773 158.752 350.493 158.847 350.29L159.127 349.713L160.248 347.398L162.489 342.772L171.461 324.268L189.399 287.255L186.381 285.833L169.197 323.198L160.606 341.883L158.459 346.553L157.385 348.889L157.118 349.471C157.032 349.657 156.98 349.756 156.889 349.89C156.721 350.14 156.501 350.351 156.247 350.51C155.993 350.674 155.704 350.782 155.406 350.829C155.161 350.872 154.682 350.855 154.255 350.868L151.686 350.894L150.401 350.907H150.078H149.996L149.876 350.916C149.794 350.92 149.712 350.929 149.63 350.937C149.302 350.989 148.983 351.11 148.699 351.286C148.138 351.648 147.742 352.231 147.621 352.882C147.556 353.205 147.561 353.545 147.638 353.869C147.668 354.033 147.733 354.184 147.793 354.339C147.862 354.477 147.961 354.649 148.009 354.714L149.397 356.878L149.569 357.15C149.634 357.249 149.651 357.279 149.686 357.348C149.746 357.469 149.789 357.598 149.811 357.732C149.854 357.999 149.824 358.284 149.707 358.534C149.651 358.659 149.578 358.775 149.488 358.878C149.419 358.956 149.216 359.146 149.074 359.279L148.142 360.168L146.284 361.944L138.852 369.049L123.984 383.259L94.251 411.674L94.2596 411.679Z" fill="#2E1D66"/>
<path d="M235.423 233.567C234.061 238.141 238.035 241.319 237.074 245.682C235.871 251.14 233.151 257.025 229.866 262.664C225.387 270.368 219.864 277.602 215.717 282.634C212.057 287.083 206.94 290.092 201.263 291.11C191.697 292.826 176.22 295.684 167.227 297.788C153.536 300.995 151.251 298.637 151.251 298.637C161.162 287.406 173.616 278.202 182.833 266.449C186.735 261.474 191.192 254.546 194.895 247.294C196.133 244.876 197.288 242.427 198.314 239.995C203.177 229.26 204.289 217.029 205.957 205.354C207.626 194.236 215.963 184.229 227.637 184.785C233.75 185.341 238.755 189.234 239.867 194.792C243.204 205.354 239.867 215.917 237.363 225.958C236.781 228.614 236.125 231.179 235.418 233.563L235.423 233.567Z" fill="#5652E5"/>
<path d="M240.785 232.222C239.423 236.796 238.035 241.319 237.073 245.682C235.87 251.14 233.15 257.025 229.865 262.664C212.802 241.668 220.049 214.322 220.049 214.322L240.789 232.222H240.785Z" fill="#452B96"/>
<path d="M220.386 225.932C225.84 235.632 234.005 251.722 236.389 256.447C237.044 257.736 238.044 258.827 239.29 259.56C242.282 261.327 248.683 263.5 260.819 261.474C269.807 259.969 280.145 256.236 288.439 252.778C290.655 251.856 292.737 250.95 294.604 250.11C300.2 247.592 303.881 245.686 303.881 245.686L300.829 237.697C300.829 237.697 298.523 237.603 294.604 237.684C293.686 237.706 292.69 237.736 291.608 237.775C283.779 238.085 269.501 239.948 256.439 243.112C256.167 243.177 255.896 243.242 255.628 243.306C254.904 243.492 254.184 243.668 253.473 243.858L252.805 242.164L252.098 240.383L236.828 201.72C236.828 201.72 242.058 190.959 225.991 190.153C209.915 189.347 213.946 214.468 220.386 225.936V225.932Z" fill="#5652E5"/>
<path d="M226.714 186.212C225.076 186.174 223.446 186.424 221.86 186.902C220.278 187.389 218.752 188.139 217.407 189.204C216.087 190.286 214.988 191.683 214.234 193.253C213.501 194.831 213.104 196.538 212.945 198.241C212.802 199.944 212.837 201.642 213.001 203.324C213.117 204.156 213.225 204.996 213.44 205.803C213.548 206.208 213.639 206.618 213.759 207.014L214.16 208.195C214.717 209.76 215.38 211.196 216.066 212.675C216.76 214.141 217.501 215.585 218.389 216.986L218.652 216.9C218.523 215.249 218.247 213.649 217.924 212.063C217.777 211.265 217.575 210.485 217.398 209.7C217.213 208.92 216.988 208.131 216.82 207.381C216.105 204.371 215.152 201.41 215.169 198.366C215.195 196.861 215.419 195.369 215.941 193.981C216.454 192.593 217.269 191.317 218.338 190.252C220.485 188.105 223.589 186.889 226.723 186.501V186.225L226.714 186.212Z" fill="white"/>
<path d="M250.688 245.522C250.688 245.522 252.3 241.159 254.313 241.763C256.326 242.367 255.99 246.661 255.99 246.661L250.688 245.518V245.522Z" fill="#5652E5"/>
<path d="M249.605 248.083L252.804 242.16L252.097 240.379L249.605 248.083Z" fill="#452B96"/>
<path d="M255.478 248.467L256.439 243.108C256.167 243.173 255.896 243.237 255.628 243.302L255.478 248.467Z" fill="#452B96"/>
<path d="M295.449 239.944V248.708C295.449 248.829 295.083 249.407 294.604 250.11C292.742 250.95 290.664 251.856 288.439 252.778C290.819 247.674 291.483 239.728 291.612 237.775C292.69 237.736 293.69 237.706 294.604 237.684L295.449 239.944Z" fill="#452B96"/>
<path d="M294.302 236.917L300.355 236.309C300.963 236.249 301.536 236.611 301.743 237.184L304.705 245.436C304.938 246.087 304.636 246.807 304.006 247.096L293.531 251.894C292.587 252.326 291.53 251.558 291.651 250.528L293.112 238.085C293.186 237.465 293.682 236.977 294.302 236.917Z" fill="#5652E5"/>
<path d="M279.442 144.531C279.442 144.531 282.554 151.438 274.872 156.008C267.19 160.577 261.34 156.107 256.352 164.565C251.365 173.024 248.23 153.283 248.23 153.283L255.137 143.462L268.264 142.293L279.446 144.531H279.442Z" fill="#62280A"/>
<path d="M251.981 167.756C254.667 167.376 254.65 186.781 254.318 188.657C253.343 194.136 250.446 199.594 245.566 202.526C244.592 203.112 243.562 203.6 242.488 203.975C234.134 207.35 227.133 202.099 220.714 197.43C215.493 193.636 209.91 200.263 204.517 199.383C201.452 198.883 199.025 196.201 198.279 193.192C196.758 187.053 200.762 182.155 205.168 178.512C208.324 175.904 211.73 173.524 215.553 172.058C221.278 169.86 227.486 169.86 233.526 169.692C239.751 169.515 245.829 168.627 251.985 167.76L251.981 167.756Z" fill="#62280A"/>
<path d="M262.97 177.003C263.03 177.723 263.151 178.577 263.379 179.383C263.755 180.698 264.414 181.884 265.587 182.173C267.997 182.763 269.742 181.953 270.975 180.595C271.497 180.017 271.924 179.344 272.269 178.637C272.454 178.258 272.618 177.87 272.756 177.482L262.918 175.244C262.918 175.244 262.888 175.999 262.974 177.008L262.97 177.003Z" fill="white"/>
<path d="M249.981 168.157C250.52 170.519 250.722 172.981 250.636 175.425C250.55 177.874 250.153 180.314 249.438 182.643C248.722 184.975 247.666 187.2 246.213 189.127C244.769 191.05 242.932 192.683 240.785 193.761C239.721 194.305 238.561 194.727 237.436 195.012C236.259 195.262 235.048 195.378 233.836 195.356C231.413 195.322 228.986 194.77 226.762 193.761C225.667 193.261 224.572 192.606 223.451 191.998C222.33 191.386 221.183 190.778 219.968 190.282C218.752 189.791 217.467 189.39 216.114 189.269C214.769 189.153 213.32 189.381 212.109 189.963C210.889 190.519 209.833 191.244 208.742 191.791C207.651 192.321 206.47 192.761 205.285 193.05C202.914 193.649 200.357 193.55 198.111 192.589C196.99 192.114 195.96 191.433 195.068 190.597C194.175 189.756 193.425 188.76 192.796 187.695C191.541 185.553 190.804 183.112 190.442 180.634C190.088 178.15 190.088 175.607 190.528 173.132C190.968 170.657 191.869 168.264 193.115 166.074C194.365 163.884 195.96 161.871 197.939 160.293C199.9 158.689 202.125 157.435 204.228 156.016C202.099 157.396 199.857 158.607 197.848 160.181C195.822 161.733 194.171 163.742 192.86 165.932C191.554 168.127 190.593 170.537 190.097 173.054C189.597 175.572 189.55 178.167 189.864 180.715C190.188 183.259 190.89 185.79 192.162 188.062C192.796 189.196 193.572 190.261 194.511 191.183C195.451 192.097 196.555 192.86 197.762 193.399C200.18 194.49 202.961 194.645 205.513 194.05C206.798 193.757 208.018 193.339 209.221 192.778C210.41 192.205 211.471 191.511 212.579 191.037C213.674 190.545 214.82 190.399 215.997 190.511C217.17 190.64 218.334 191.019 219.459 191.498C220.589 191.981 221.679 192.584 222.77 193.209C223.865 193.83 224.943 194.511 226.145 195.089C228.525 196.223 231.142 196.874 233.793 196.965C235.121 197.012 236.453 196.913 237.764 196.663C239.104 196.357 240.35 195.921 241.561 195.335C243.984 194.175 246.075 192.386 247.713 190.286C249.36 188.183 250.558 185.773 251.378 183.272C252.201 180.767 252.675 178.159 252.817 175.533C252.96 172.908 252.8 170.261 252.257 167.661L249.977 168.161L249.981 168.157Z" fill="#62280A"/>
<path d="M259.275 162.345C259.275 162.345 257.02 158.258 250.399 160.233C243.777 162.207 248.45 170.942 254.636 171.929C260.823 172.916 259.275 162.349 259.275 162.349V162.345Z" fill="#FFADAE"/>
<path d="M257.508 166.148C257.297 165.272 257.15 164.195 256.633 163.164C256.374 162.656 256.034 162.181 255.598 161.789C255.171 161.392 254.602 161.099 254.05 160.978C252.943 160.733 251.878 160.953 250.964 161.384C250.059 161.819 249.252 162.539 248.946 163.466C249.433 162.625 250.3 162.151 251.166 161.931C252.033 161.711 252.973 161.75 253.688 162.086C254.391 162.397 254.801 163.065 255.003 163.82C255.206 164.57 255.167 165.423 255.189 166.432V166.445C255.202 167.092 255.74 167.609 256.387 167.596C257.034 167.583 257.551 167.044 257.534 166.398C257.534 166.316 257.521 166.23 257.504 166.148H257.508Z" fill="#FF9395"/>
<path d="M258.909 153.761C258.849 153.895 258.823 153.981 258.788 154.067C258.754 154.158 258.728 154.249 258.702 154.33C258.65 154.503 258.599 154.671 258.56 154.839C258.469 155.171 258.405 155.503 258.34 155.835C258.223 156.495 258.154 157.159 258.124 157.814C258.068 159.129 258.193 160.435 258.512 161.673C258.827 162.91 259.284 164.091 259.939 165.134C260.224 165.673 260.616 166.152 260.97 166.635C261.336 167.109 261.771 167.527 262.159 167.963C261.905 167.424 261.616 166.919 261.409 166.376C261.215 165.829 260.991 165.303 260.879 164.742C260.577 163.651 260.5 162.53 260.543 161.453C260.586 160.375 260.797 159.319 261.142 158.336C261.314 157.844 261.517 157.366 261.746 156.913C261.866 156.689 261.983 156.465 262.112 156.258C262.172 156.15 262.241 156.055 262.306 155.956C262.34 155.904 262.371 155.861 262.401 155.822C262.431 155.779 262.47 155.732 262.478 155.736L258.9 153.766L258.909 153.761Z" fill="#62280A"/>
</g>
<defs>
<clipPath id="clip0_481_3565">
<rect width="673.659" height="484" fill="white" transform="translate(0.34082 6.10352e-05)"/>
</clipPath>
</defs>
</svg>
