<svg width="127" height="132" viewBox="0 0 127 132" fill="none" xmlns="http://www.w3.org/2000/svg">
<path d="M29.5547 66.3249C30.4156 66.9186 30.9974 67.2168 31.4469 67.6439C41.6502 77.3523 51.8407 87.0742 62.0313 96.7947C64.9971 99.6234 64.983 101.204 61.9764 104.071C59.253 106.668 56.5423 109.278 53.8005 111.857C51.5463 113.978 49.5217 113.99 47.2815 111.857C32.4148 97.7013 17.5593 83.5363 2.71091 69.3645C0.407358 67.1657 0.43131 65.2665 2.77431 63.0328C17.5847 48.9026 32.4007 34.7779 47.2252 20.6612C49.5471 18.4503 51.5308 18.4651 53.8724 20.6733C56.6507 23.2965 59.4094 25.9385 62.1722 28.5765C64.8999 31.1795 64.9139 32.9324 62.2173 35.5045C51.983 45.2627 41.746 55.0181 31.5018 64.7668C31.0482 65.198 30.5198 65.5566 29.5547 66.3235V66.3249Z" stroke="white" stroke-miterlimit="10"/>
<path d="M73.0085 124.201C73.3283 123.105 73.7722 121.497 74.2667 119.903C86.131 81.6053 98.001 43.3088 109.872 5.01239C110.07 4.37439 110.258 3.72698 110.54 3.12256C111.357 1.36703 112.811 0.503376 114.74 0.947965C117.623 1.61283 120.49 2.38516 123.285 3.32537C125.561 4.09098 126.234 5.87471 125.468 8.41061C124.225 12.5207 122.943 16.6187 121.672 20.7194C110.73 56.034 99.7889 91.3486 88.8404 126.662C88.6093 127.406 88.3937 128.173 88.0176 128.851C87.23 130.267 85.8718 131.077 84.2586 130.707C81.2055 130.009 78.1877 129.139 75.2177 128.164C73.6003 127.633 72.9141 126.31 73.0085 124.2V124.201Z" stroke="white" stroke-miterlimit="10"/>
</svg>
