<svg width="18" height="99" viewBox="0 0 18 99" fill="none" xmlns="http://www.w3.org/2000/svg">
<g clip-path="url(#clip0_494_25860)">
<path d="M15.0942 15.9519C18.5473 12.4988 18.5473 6.90033 15.0942 3.44727C11.6412 -0.00578379 6.04265 -0.00578412 2.58959 3.44727C-0.863464 6.90033 -0.863464 12.4988 2.58959 15.9519C6.04265 19.405 11.6412 19.405 15.0942 15.9519Z" fill="white"/>
<path d="M11.1073 10.3519L11.4124 8.35875H9.49565V7.06491C9.49565 6.51959 9.76253 5.98874 10.6176 5.98874H11.4929V4.29199C10.9823 4.20978 10.467 4.16463 9.95009 4.1571C8.37896 4.1571 7.34562 5.11113 7.34562 6.83914V8.35875H5.59503V10.3519H7.34562V15.2407H9.49565V10.3519H11.1067H11.1073Z" fill="black"/>
</g>
<g clip-path="url(#clip1_494_25860)">
<path d="M15.0942 42.9519C18.5473 39.4988 18.5473 33.9003 15.0942 30.4473C11.6412 26.9942 6.04265 26.9942 2.58959 30.4473C-0.863464 33.9003 -0.863464 39.4988 2.58959 42.9519C6.04265 46.405 11.6412 46.405 15.0942 42.9519Z" fill="white"/>
<path d="M8.54512 31.6093C7.16271 31.6093 6.98904 31.615 6.44604 31.6399C5.90419 31.6648 5.53427 31.7505 5.21066 31.8761C4.87606 32.0064 4.59182 32.18 4.30874 32.4631C4.02566 32.7462 3.85141 33.0299 3.72116 33.3645C3.59496 33.6881 3.50928 34.058 3.48497 34.5998C3.46065 35.1429 3.45428 35.3165 3.45428 36.6989C3.45428 38.0813 3.46065 38.2544 3.48497 38.7974C3.50986 39.3393 3.59554 39.7092 3.72174 40.0328C3.85199 40.3674 4.02566 40.6517 4.30874 40.9347C4.59182 41.2178 4.87548 41.3921 5.21009 41.5223C5.53369 41.6479 5.90419 41.7342 6.44546 41.7591C6.98846 41.784 7.16155 41.7898 8.54397 41.7898C9.92638 41.7898 10.0995 41.784 10.6425 41.7591C11.1843 41.7342 11.5548 41.6485 11.8784 41.5223C12.213 41.3921 12.4967 41.2178 12.7798 40.9347C13.0629 40.6517 13.2371 40.368 13.3674 40.0334C13.4924 39.7098 13.5787 39.3399 13.6035 38.798C13.6279 38.255 13.6342 38.0819 13.6342 36.6995C13.6342 35.3171 13.6279 35.1434 13.6035 34.6004C13.5781 34.0586 13.4924 33.6887 13.3674 33.3651C13.2371 33.0305 13.0629 32.7462 12.7798 32.4631C12.4967 32.18 12.2136 32.0058 11.8784 31.8761C11.5537 31.7505 11.1837 31.6642 10.6419 31.6399C10.0989 31.615 9.9258 31.6093 8.54339 31.6093H8.54512ZM8.08837 32.5268C8.22383 32.5268 8.37493 32.5268 8.54512 32.5268C9.90438 32.5268 10.0653 32.5314 10.602 32.5563C11.0981 32.5789 11.3678 32.6617 11.5473 32.7317C11.7846 32.8238 11.9543 32.9344 12.132 33.1127C12.3103 33.291 12.4203 33.4606 12.5129 33.6979C12.5824 33.8774 12.6657 34.1466 12.6883 34.6427C12.7126 35.1793 12.7178 35.3403 12.7178 36.6989C12.7178 38.0576 12.7126 38.2185 12.6883 38.7552C12.6657 39.2513 12.5829 39.5211 12.5129 39.6999C12.4209 39.9373 12.3103 40.1069 12.132 40.2846C11.9537 40.4629 11.7846 40.5729 11.5473 40.6656C11.3678 40.7356 11.0986 40.8184 10.602 40.841C10.0653 40.8653 9.90438 40.8705 8.54512 40.8705C7.18587 40.8705 7.02493 40.8653 6.4883 40.841C5.99218 40.8178 5.72241 40.735 5.54295 40.6656C5.3056 40.5735 5.13599 40.4629 4.95769 40.2846C4.77938 40.1063 4.66939 39.9373 4.57677 39.6994C4.5073 39.5199 4.42394 39.2507 4.40136 38.7546C4.37705 38.218 4.37184 38.057 4.37184 36.6978C4.37184 35.3385 4.37647 35.1782 4.40136 34.6415C4.42394 34.1454 4.50672 33.8756 4.57677 33.6962C4.66882 33.4588 4.77938 33.2892 4.95769 33.1109C5.13599 32.9326 5.3056 32.8226 5.54295 32.73C5.72241 32.66 5.9916 32.5772 6.4883 32.5546C6.95778 32.5332 7.13956 32.5268 8.08837 32.5262V32.5274V32.5268ZM11.2625 33.372C10.925 33.372 10.6517 33.6452 10.6517 33.9827C10.6517 34.3202 10.9256 34.5935 11.2625 34.5935C11.5994 34.5935 11.8732 34.3197 11.8732 33.9827C11.8732 33.6458 11.5994 33.372 11.2625 33.372ZM8.54512 34.0852C7.10135 34.0852 5.93081 35.2557 5.93081 36.6995C5.93081 38.1433 7.10135 39.3132 8.54512 39.3132C9.9889 39.3132 11.1589 38.1433 11.1589 36.6995C11.1589 35.2557 9.9889 34.0852 8.54512 34.0852ZM8.54512 35.0028C9.48236 35.0028 10.2419 35.7623 10.2419 36.6995C10.2419 37.6368 9.48236 38.3963 8.54512 38.3963C7.60789 38.3963 6.84837 37.6368 6.84837 36.6995C6.84837 35.7623 7.60789 35.0028 8.54512 35.0028Z" fill="black"/>
</g>
<g clip-path="url(#clip2_494_25860)">
<path d="M15.0942 56.7629C18.5473 60.216 18.5473 65.8145 15.0942 69.2676C11.6412 72.7206 6.04266 72.7206 2.5896 69.2676C-0.86346 65.8145 -0.86346 60.216 2.5896 56.7629C6.04266 53.3099 11.6412 53.3099 15.0942 56.7629Z" fill="white"/>
<path fill-rule="evenodd" clip-rule="evenodd" d="M13.3089 64.9627C13.3089 64.9627 13.2145 65.6296 12.9222 65.9283C12.5523 66.315 12.1366 66.3174 11.9473 66.3405C10.5869 66.436 8.53992 66.436 8.53992 66.436C8.53992 66.436 6.49872 66.436 5.13714 66.337C4.94727 66.3139 4.53277 66.3116 4.16228 65.9249C3.86993 65.6302 3.77673 64.9593 3.77673 64.9593C3.71652 64.4365 3.68411 63.9109 3.68005 63.3847V62.6466C3.68411 62.1203 3.71652 61.5947 3.77673 61.0719C3.77673 61.0719 3.87225 60.4051 4.16228 60.1063C4.53219 59.7196 5.01905 59.7318 5.23672 59.6907C6.01476 59.616 8.54397 59.594 8.54397 59.594C8.54397 59.594 10.5886 59.594 11.9491 59.6953C12.1389 59.7173 12.5534 59.7196 12.9233 60.1063C13.2157 60.401 13.3112 61.0719 13.3112 61.0719C13.3714 61.5953 13.4038 62.1209 13.4079 62.6477V63.3875C13.4021 63.9143 13.3691 64.44 13.3089 64.9633L13.3077 64.9622L13.3089 64.9627Z" fill="black"/>
<path fill-rule="evenodd" clip-rule="evenodd" d="M7.23102 61.6485V64.3821L9.85806 63.0095L7.23102 61.6485Z" fill="white"/>
</g>
<g clip-path="url(#clip3_494_25860)">
<path d="M15.0942 95.9519C18.5473 92.4988 18.5473 86.9003 15.0942 83.4473C11.6412 79.9942 6.04265 79.9942 2.58959 83.4473C-0.863464 86.9003 -0.863464 92.4988 2.58959 95.9519C6.04265 99.405 11.6412 99.405 15.0942 95.9519Z" fill="white"/>
<path fill-rule="evenodd" clip-rule="evenodd" d="M7.17719 88.1609H8.91215V89.0547H8.93646C9.17902 88.6211 9.76892 88.1609 10.6506 88.1609C12.4816 88.1609 12.8203 89.3007 12.8203 90.7833V93.918H11.0112V91.1318C11.0112 90.4938 10.9979 89.6729 10.0705 89.6729C9.14313 89.6729 8.98451 90.3665 8.98451 91.086V93.9238H7.17661V88.1609H7.17719ZM6.15022 86.4161C6.15022 86.9353 5.72878 87.3568 5.20951 87.3568C4.69024 87.3568 4.2688 86.9353 4.2688 86.4161C4.2688 85.8968 4.69024 85.4753 5.20951 85.4753C5.72878 85.4759 6.14964 85.8968 6.15022 86.4161ZM4.27111 88.1609H6.15022V93.918H4.27111V88.1609Z" fill="black"/>
</g>
<defs>
<clipPath id="clip0_494_25860">
<rect width="17.6842" height="17.6842" fill="white" transform="translate(0 0.857422)"/>
</clipPath>
<clipPath id="clip1_494_25860">
<rect width="17.6842" height="17.6842" fill="white" transform="translate(0 27.8574)"/>
</clipPath>
<clipPath id="clip2_494_25860">
<rect width="17.6842" height="17.6842" fill="white" transform="matrix(1 0 0 -1 0 71.8574)"/>
</clipPath>
<clipPath id="clip3_494_25860">
<rect width="17.6842" height="17.6842" fill="white" transform="translate(0 80.8574)"/>
</clipPath>
</defs>
</svg>
