<svg width="126" height="132" viewBox="0 0 126 132" fill="none" xmlns="http://www.w3.org/2000/svg">
<path d="M29.1661 66.2076C30.0269 66.8013 30.6088 67.0995 31.0582 67.5266C41.2615 77.2351 51.4521 86.9569 61.6427 96.6774C64.6084 99.5061 64.5943 101.087 61.5877 103.953C58.8643 106.551 56.1536 109.161 53.4119 111.74C51.1576 113.861 49.133 113.873 46.8929 111.74C32.0261 97.5841 17.1707 83.419 2.32224 69.2472C0.0186864 67.0485 0.0426379 65.1492 2.38564 62.9155C17.196 48.7854 32.012 34.6606 46.8365 20.5439C49.1584 18.3331 51.1421 18.3478 53.4837 20.556C56.2621 23.1792 59.0207 25.8212 61.7836 28.4592C64.5112 31.0623 64.5253 32.8151 61.8286 35.3873C51.5944 45.1454 41.3573 54.9008 31.1132 64.6496C30.6595 65.0807 30.1312 65.4394 29.1661 66.2063V66.2076Z" stroke="#AA76C2" stroke-miterlimit="10"/>
<path d="M72.6199 124.084C72.9397 122.988 73.3835 121.38 73.878 119.786C85.7424 81.4881 97.6124 43.1916 109.484 4.89521C109.681 4.2572 109.87 3.60979 110.152 3.00537C110.969 1.24985 112.423 0.386189 114.352 0.830778C117.234 1.49565 120.101 2.26797 122.897 3.20819C125.172 3.97379 125.845 5.75752 125.079 8.29342C123.836 12.4035 122.554 16.5015 121.283 20.6022C110.342 55.9168 99.4003 91.2314 88.4517 126.545C88.2206 127.289 88.0051 128.056 87.6289 128.734C86.8413 130.15 85.4831 130.96 83.8699 130.59C80.8168 129.892 77.799 129.021 74.829 128.046C73.2116 127.516 72.5255 126.193 72.6199 124.083V124.084Z" stroke="#AA76C2" stroke-miterlimit="10"/>
</svg>
