<svg width="126" height="20" viewBox="0 0 126 20" fill="none" xmlns="http://www.w3.org/2000/svg">
<path d="M115.994 19.7979H10.0155C4.75815 19.7979 0.457031 15.497 0.457031 10.24C0.457031 4.98299 4.75815 0.682129 10.0155 0.682129H115.994C121.252 0.682129 125.553 4.98299 125.553 10.24C125.553 15.497 121.252 19.7979 115.994 19.7979Z" fill="#FBFBFB"/>
<path d="M114.526 6.16818C116.351 7.99332 116.351 10.9492 114.526 12.7743C112.701 14.5995 109.745 14.5995 107.92 12.7743C106.094 10.9492 106.094 7.99332 107.92 6.16818C109.745 4.34303 112.701 4.34303 114.526 6.16818Z" stroke="#122045" stroke-linecap="round" stroke-linejoin="round"/>
<path d="M114.525 12.7739L118.35 16.5987" stroke="#122045" stroke-linecap="round" stroke-linejoin="round"/>
</svg>
