<svg width="88" height="86" viewBox="0 0 88 86" fill="none" xmlns="http://www.w3.org/2000/svg">
<g clip-path="url(#clip0_674_7113)">
<path d="M20.2248 8.14897C15.3831 10.6502 10.7416 15.2308 8.15504 20.1165C8.44449 20.3642 8.78116 20.623 9.08395 20.9161C10.2992 22.0952 11.5022 23.2854 12.7113 24.4696C14.4932 26.2146 15.3657 28.3302 15.379 30.7912C15.3862 32.0992 15.3667 33.4062 15.3852 34.7142C15.4088 36.3969 16.1848 37.6606 17.6803 38.4822C18.2889 38.8176 18.9366 39.0874 19.5402 39.4308C22.4634 41.0922 24.0246 43.5794 24.0995 46.9003C24.1509 49.179 24.0944 51.4598 24.116 53.7395C24.1334 55.6094 23.5976 57.3011 22.5435 58.8467C22.0426 59.5818 21.5437 60.3189 20.9792 61.1496C22.2468 61.6712 23.4488 62.219 24.6897 62.6661C27.263 63.5925 29.9245 64.1503 32.664 64.3416C34.1534 64.4454 35.0361 65.3184 34.9971 66.6093C34.9612 67.8176 33.9625 68.7712 32.6928 68.6433C30.8976 68.4631 29.0859 68.2859 27.3318 67.8921C14.2294 64.9508 4.07294 55.2298 1.02548 42.3791C-1.61346 31.2493 0.865358 21.1396 8.28847 12.3127C13.1671 6.51168 19.4437 2.78799 26.8945 1.0067C30.6717 0.104474 34.5013 -0.131151 38.3823 0.219266C51.9906 1.45076 63.5441 10.5123 68.0296 22.8736C68.8158 25.0395 69.3649 27.2608 69.7149 29.5305C69.8822 30.614 69.4963 31.4759 68.6536 31.9461C67.852 32.3932 66.882 32.3097 66.1635 31.7347C65.64 31.3148 65.4614 30.7408 65.3362 30.1155C65.0632 28.7561 64.7419 27.4048 64.4576 26.0475C64.3991 25.7665 64.2585 25.6769 63.9813 25.6437C61.9151 25.398 59.851 25.1331 57.7848 24.8814C56.0409 24.6689 54.3001 24.4303 52.551 24.2662C50.0527 24.0315 47.9393 24.8744 46.1338 26.564C45.1854 27.4521 44.2637 28.4067 43.1829 29.1136C38.0641 32.4597 30.9386 30.1347 28.9802 24.5421C28.5922 23.4334 28.4731 22.2946 28.4731 21.1315C28.4731 19.744 28.5573 18.3493 28.1211 16.994C27.7936 15.975 27.3656 14.9831 26.604 14.2319C24.5317 12.1899 22.3957 10.2102 20.2248 8.14797V8.14897Z" fill="#4599E4"/>
<path d="M39.4035 57.5912C39.0894 57.8359 38.881 58.003 38.6686 58.1631C37.6216 58.9536 36.3047 58.8307 35.5215 57.8711C34.764 56.9447 34.9077 55.6307 35.9003 54.8271C38.2436 52.927 40.6044 51.046 42.957 49.157C47.5841 45.4424 52.2143 41.7328 56.8353 38.0121C59.6405 35.7535 62.9097 35.7324 65.7128 37.9779C68.478 40.1932 71.2412 42.4105 74.0053 44.6257C74.1069 44.7073 74.2178 44.7788 74.4159 44.9198C74.4159 44.5059 74.4138 44.1777 74.4159 43.8494C74.4221 42.777 74.3882 41.7026 74.4487 40.6322C74.5083 39.5799 75.3766 38.7844 76.4534 38.6848C77.4151 38.5961 78.3954 39.2335 78.6869 40.1831C78.7833 40.4973 78.8018 40.8426 78.8028 41.1739C78.8121 43.3862 78.8254 45.5995 78.7946 47.8117C78.7874 48.3212 78.966 48.6314 79.3592 48.9425C81.7918 50.8678 84.2039 52.8173 86.6242 54.7587C87.3417 55.3336 87.702 56.0496 87.4977 56.9669C87.1446 58.5508 85.333 59.2013 84.0099 58.2246C83.7543 58.0363 83.5111 57.8319 83.1734 57.564C83.1734 57.8339 83.1734 58.0091 83.1734 58.1853C83.1734 65.242 83.1734 72.2987 83.1713 79.3553C83.1713 83.077 80.2973 85.9257 76.5088 85.9287C66.3769 85.9367 56.2441 85.9357 46.1122 85.9287C42.3031 85.9257 39.4096 83.0821 39.4045 79.3312C39.3942 72.3248 39.4025 65.3185 39.4025 58.3112C39.4025 58.1138 39.4025 57.9154 39.4025 57.5892L39.4035 57.5912ZM74.3595 81.623C75.1467 81.623 75.7913 81.627 76.4369 81.623C77.8729 81.6139 78.7782 80.7339 78.7782 79.3342C78.7803 71.0359 78.7813 62.7377 78.7649 54.4395C78.7649 54.2169 78.6181 53.9259 78.4426 53.7819C76.5139 52.204 74.5658 50.6493 72.6227 49.0895C69.3844 46.4886 66.146 43.8866 62.9056 41.2887C61.8719 40.46 60.8024 40.4066 59.8776 41.1478C54.6397 45.3467 49.407 49.5517 44.1651 53.7467C43.8859 53.9702 43.7873 54.2008 43.7884 54.5532C43.8007 58.8116 43.7956 63.069 43.7956 67.3274C43.7956 71.3169 43.7935 75.3074 43.7966 79.2969C43.7976 80.5415 44.5151 81.4508 45.7119 81.5847C46.5002 81.6723 47.307 81.6018 48.2143 81.6018C47.891 78.151 48.4976 74.959 50.9344 72.3198C53.3721 69.6806 56.4534 68.5639 60.0572 68.7331C54.6131 67.7402 52.0008 63.0478 52.6197 58.9486C53.2038 55.0738 56.4699 51.7499 61.0118 51.5697C65.3187 51.3985 69.2181 54.5029 69.9222 58.6435C70.3287 61.0339 69.837 63.2432 68.3764 65.2128C66.9281 67.1652 64.9481 68.292 62.5299 68.719C63.0698 68.7532 63.5994 68.728 64.126 68.7613C64.6525 68.7945 65.1781 68.866 65.6974 68.9576C70.2353 69.7602 73.9879 73.7849 74.3461 78.284C74.4323 79.3654 74.3584 80.459 74.3584 81.627L74.3595 81.623Z" fill="#4599E4"/>
</g>
<defs>
<clipPath id="clip0_674_7113">
<rect width="87.5552" height="85.8714" fill="white" transform="translate(0 0.064209)"/>
</clipPath>
</defs>
</svg>
