<svg width="394" height="421" viewBox="0 0 394 421" fill="none" xmlns="http://www.w3.org/2000/svg">
<g clip-path="url(#clip0_481_4638)">
<path d="M196.582 420.775C305.152 420.775 393.165 415.884 393.165 409.85C393.165 403.816 305.152 398.924 196.582 398.924C88.013 398.924 0 403.816 0 409.85C0 415.884 88.013 420.775 196.582 420.775Z" fill="#D7B257"/>
<path d="M390.484 171.933C390.484 212.5 366.045 247.378 331.049 262.722C318.824 268.082 305.3 271.06 291.084 271.06C284.579 271.06 278.218 270.433 272.055 269.243C226.265 260.392 191.687 220.185 191.687 171.933C191.687 117.184 236.192 72.8074 291.087 72.8074C345.982 72.8074 390.487 117.184 390.487 171.933H390.484Z" fill="#FFE197"/>
<path d="M102.253 405.107C157.622 405.107 202.507 360.345 202.507 305.129C202.507 249.913 157.622 205.151 102.253 205.151C46.8843 205.151 1.99902 249.913 1.99902 305.129C1.99902 360.345 46.8843 405.107 102.253 405.107Z" fill="#FFE197"/>
<path d="M319.497 132.821C319.497 155.946 315.027 175.319 306.1 190.961C297.168 206.597 282.127 223.834 260.965 242.687C246.01 256.09 236.935 266.239 233.734 273.137C230.528 280.037 228.932 292.712 228.932 311.164H158.493V298.059C158.493 273.795 159.813 256.383 162.481 245.804C165.143 235.225 175.339 221.392 193.082 204.31C207.864 190.139 218.068 177.961 223.686 167.769C229.296 157.582 232.112 145.404 232.112 131.225C232.112 118.224 228.649 108.521 221.749 102.118C216.901 97.6281 211.475 94.7072 205.471 93.3691C202.912 92.794 200.249 92.5065 197.48 92.5065C182.692 92.5065 171.699 98.8507 164.499 111.544C157.765 123.416 154.354 140.836 154.257 163.808H110.259L107.314 157.219L79.5791 153.326C80.3551 113.944 91.2624 82.0834 112.306 57.7278C133.342 33.3856 163.251 21.2051 202.02 21.2051C242.933 21.2051 272.737 32.3779 291.442 54.7155C310.147 77.0666 319.494 103.091 319.494 132.821H319.497Z" fill="#605093"/>
<path d="M228.929 340.217H158.282V409.852H228.929V340.217Z" fill="#605093"/>
<path d="M208.91 91.2892L205.472 93.369C202.912 92.794 200.25 92.5065 197.48 92.5065C182.693 92.5065 171.699 98.8507 164.499 111.544C154.842 104.601 130.985 92.6274 102.197 115.701L135.655 66.8799L208.91 91.2892Z" fill="#312553"/>
<path d="M114.288 340.217V409.85H184.935V340.217H114.288ZM247.447 54.7209C228.747 32.3806 198.938 21.2078 158.025 21.2078C119.254 21.2078 89.3473 33.3856 68.3114 57.7331C47.27 82.0861 36.3627 113.949 35.584 153.331L110.262 163.808C110.461 116.276 124.866 92.5065 153.484 92.5065C162.756 92.5065 170.85 95.7176 177.759 102.124C184.66 108.527 188.117 118.233 188.117 131.23C188.117 145.407 185.306 157.59 179.691 167.771C174.073 177.961 163.869 190.144 149.09 204.313C131.346 221.4 121.153 235.228 118.486 245.807C115.823 256.386 114.498 273.801 114.498 298.062V311.167H184.937C184.937 292.715 186.535 280.04 189.739 273.14C192.94 266.245 202.02 256.09 216.975 242.687C238.132 223.84 253.181 206.6 262.105 190.961C271.037 175.319 275.502 155.946 275.502 132.821C275.502 103.096 266.152 77.0666 247.447 54.7209Z" fill="#AE9AE3"/>
<g style="mix-blend-mode:multiply" opacity="0.35">
<path d="M249.998 104.327C278.694 104.327 301.956 81.1286 301.956 52.5121C301.956 23.8955 278.694 0.697266 249.998 0.697266C221.302 0.697266 198.04 23.8955 198.04 52.5121C198.04 81.1286 221.302 104.327 249.998 104.327Z" fill="#5C76CC"/>
</g>
<path d="M249.999 93.4872C272.691 93.4872 291.087 75.142 291.087 52.512C291.087 29.8821 272.691 11.5369 249.999 11.5369C227.306 11.5369 208.91 29.8821 208.91 52.512C208.91 75.142 227.306 93.4872 249.999 93.4872Z" fill="white"/>
<path d="M250.072 28.5891L261.865 31.7195L250.573 62.328L244.578 60.7372L250.072 28.5891ZM242.088 63.7602L251.252 66.192L248.611 76.0858L239.447 73.654L242.088 63.7602Z" fill="#FF8D40"/>
<path d="M193.401 162.825C198.078 158.161 198.078 150.6 193.401 145.937C188.725 141.274 181.143 141.274 176.467 145.937C171.791 150.6 171.791 158.161 176.467 162.825C181.143 167.488 188.725 167.488 193.401 162.825Z" fill="#FF8D40"/>
<path d="M192.853 51.5836L130.684 53.5969L130.865 59.1562L193.034 57.1429L192.853 51.5836Z" fill="#605093"/>
<g style="mix-blend-mode:multiply" opacity="0.35">
<path d="M190.153 59.9749L127.983 61.9883L128.164 67.5476L190.334 65.5342L190.153 59.9749Z" fill="#5C76CC"/>
</g>
<path d="M125.878 59.649C127.397 53.2303 123.411 46.7989 116.975 45.2839C110.538 43.769 104.089 47.7442 102.57 54.1629C101.051 60.5816 105.037 67.013 111.473 68.528C117.91 70.0429 124.359 66.0676 125.878 59.649Z" fill="white"/>
<g style="mix-blend-mode:multiply" opacity="0.35">
<path d="M219.711 102.699L193.414 143.863L198.118 146.852L224.415 105.687L219.711 102.699Z" fill="#5C76CC"/>
</g>
<g style="mix-blend-mode:multiply" opacity="0.35">
<path d="M154.452 311.167H143.415L153.088 254.902L154.452 311.167Z" fill="#5C76CC"/>
</g>
<g style="mix-blend-mode:multiply" opacity="0.35">
<path d="M156.845 409.85H126.445L138.42 340.217H155.158L156.845 409.85Z" fill="#5C76CC"/>
</g>
<path d="M217.189 98.7254L190.892 139.89L195.596 142.878L221.893 101.714L217.189 98.7254Z" fill="#605093"/>
<path d="M130.182 409.85H34.6192C33.1938 409.85 32.1888 408.697 32.3747 407.273L52.3598 254.902C52.5457 253.481 53.8552 252.325 55.2806 252.325H150.841C152.266 252.325 153.271 253.478 153.085 254.902L133.1 407.273C132.914 408.694 131.605 409.85 130.18 409.85H130.182Z" fill="white"/>
<path d="M132.17 331.089H61.1595C60.4051 331.089 59.8742 330.479 59.9739 329.729L67.4916 272.419C67.5913 271.667 68.2811 271.06 69.0355 271.06H140.046C140.801 271.06 141.332 271.67 141.232 272.419L133.714 329.729C133.615 330.481 132.925 331.089 132.17 331.089Z" fill="#F0EFFF"/>
<path d="M128.825 326.61H57.8138C57.0594 326.61 56.5285 326 56.6282 325.25L64.1459 267.94C64.2456 267.188 64.9354 266.58 65.6898 266.58H136.701C137.455 266.58 137.986 267.19 137.886 267.94L130.369 325.25C130.269 326.002 129.579 326.61 128.825 326.61Z" fill="#AE9AE3"/>
<g style="mix-blend-mode:multiply" opacity="0.35">
<path d="M111.687 315.216L101.184 303.165C106.382 297.436 107.063 289.146 102.483 283.893C97.5168 278.194 88.2181 278.196 81.7567 283.893C75.2953 289.592 74.0801 298.863 79.046 304.562C81.5303 307.41 85.0952 308.837 88.8486 308.837C92.0173 308.837 95.3154 307.819 98.212 305.787L108.715 317.839C109.03 318.202 109.483 318.382 109.957 318.382C110.432 318.382 110.933 318.202 111.342 317.839C112.164 317.116 112.318 315.942 111.687 315.219V315.216ZM82.0181 301.939C78.3104 297.686 79.2185 290.767 84.0416 286.513C86.4532 284.388 89.3929 283.323 92.1952 283.323C94.9974 283.323 97.6569 284.388 99.5107 286.513C103.216 290.767 102.31 297.686 97.4872 301.939C92.664 306.193 85.7257 306.193 82.0181 301.939Z" fill="#5C76CC"/>
</g>
<path d="M114.023 312.814L103.52 300.763C108.718 295.034 109.399 286.744 104.819 281.491C99.8527 275.792 90.554 275.794 84.0926 281.491C77.6312 287.19 76.416 296.461 81.382 302.16C83.8663 305.008 87.4311 306.435 91.1845 306.435C94.3533 306.435 97.6513 305.417 100.548 303.385L111.051 315.437C111.366 315.8 111.819 315.98 112.293 315.98C112.767 315.98 113.269 315.8 113.678 315.437C114.5 314.714 114.654 313.54 114.023 312.817V312.814ZM84.354 299.54C80.6464 295.286 81.5544 288.367 86.3776 284.114C88.7891 281.988 91.7288 280.924 94.5311 280.924C97.3334 280.924 99.9929 281.988 101.847 284.114C105.552 288.367 104.646 295.286 99.8231 299.54C95 303.794 88.0616 303.794 84.354 299.54Z" fill="#F5F5F5"/>
<path d="M122.715 358.656H55.5146C53.7093 358.656 52.4348 357.196 52.6719 355.393C52.9091 353.593 54.5635 352.131 56.3688 352.131H123.57C125.375 352.131 126.649 353.59 126.412 355.393C126.175 357.194 124.521 358.656 122.715 358.656Z" fill="#AE9AE3"/>
<path d="M120.382 376.449H53.1816C51.3763 376.449 50.1018 374.99 50.3389 373.187C50.5761 371.387 52.2305 369.925 54.0358 369.925H121.237C123.042 369.925 124.316 371.384 124.079 373.187C123.842 374.987 122.188 376.449 120.382 376.449Z" fill="#F0EFFF"/>
<path d="M118.049 394.246H50.8486C49.0433 394.246 47.7688 392.787 48.0059 390.984C48.243 389.183 49.8975 387.722 51.7028 387.722H118.904C120.709 387.722 121.983 389.181 121.746 390.984C121.509 392.784 119.855 394.246 118.049 394.246Z" fill="#F0EFFF"/>
<path d="M346.494 328.539C357.359 328.539 366.166 319.755 366.166 308.921C366.166 298.086 357.359 289.302 346.494 289.302C335.629 289.302 326.821 298.086 326.821 308.921C326.821 319.755 335.629 328.539 346.494 328.539Z" fill="#AE9AE3"/>
<path d="M87.2105 234.884C90.4635 234.884 93.1007 232.254 93.1007 229.01C93.1007 225.766 90.4635 223.136 87.2105 223.136C83.9574 223.136 81.3203 225.766 81.3203 229.01C81.3203 232.254 83.9574 234.884 87.2105 234.884Z" fill="#AE9AE3"/>
<path d="M32.2183 311.365C32.908 308.195 30.8899 305.067 27.7108 304.379C24.5317 303.691 21.3955 305.704 20.7058 308.874C20.0161 312.045 22.0342 315.172 25.2133 315.86C28.3924 316.548 31.5287 314.535 32.2183 311.365Z" fill="white"/>
</g>
<defs>
<clipPath id="clip0_481_4638">
<rect width="393.165" height="420.078" fill="white" transform="translate(0 0.697266)"/>
</clipPath>
</defs>
</svg>
