<svg width="126" height="132" viewBox="0 0 126 132" fill="none" xmlns="http://www.w3.org/2000/svg">
<path d="M29.2784 66.4923C30.1392 67.086 30.7211 67.3842 31.1705 67.8113C41.3738 77.5197 51.5644 87.2416 61.755 96.9621C64.7207 99.7908 64.7066 101.372 61.7 104.238C58.9766 106.836 56.2659 109.446 53.5242 112.024C51.2699 114.145 49.2453 114.157 47.0052 112.024C32.1384 97.8687 17.283 83.7037 2.43455 69.5319C0.130991 67.3331 0.154943 65.4339 2.49795 63.2002C17.3083 49.0701 32.1243 34.9453 46.9488 20.8286C49.2707 18.6177 51.2544 18.6325 53.596 20.8407C56.3744 23.4639 59.133 26.1059 61.8959 28.7439C64.6235 31.347 64.6376 33.0998 61.9409 35.672C51.7067 45.4301 41.4696 55.1855 31.2255 64.9342C30.7718 65.3654 30.2435 65.724 29.2784 66.491V66.4923Z" stroke="#515151" stroke-miterlimit="10"/>
<path d="M72.7322 124.369C73.052 123.273 73.4958 121.665 73.9903 120.071C85.8547 81.7727 97.7247 43.4763 109.596 5.17987C109.793 4.54187 109.982 3.89446 110.264 3.29004C111.081 1.53451 112.535 0.670857 114.464 1.11545C117.346 1.78031 120.214 2.55264 123.009 3.49285C125.284 4.25846 125.958 6.04219 125.191 8.57809C123.949 12.6882 122.666 16.7862 121.396 20.8869C110.454 56.2015 99.5126 91.5161 88.564 126.829C88.3329 127.573 88.1174 128.34 87.7412 129.019C86.9536 130.434 85.5954 131.244 83.9822 130.875C80.9292 130.177 77.9113 129.306 74.9413 128.331C73.3239 127.8 72.6378 126.477 72.7322 124.367V124.369Z" stroke="#515151" stroke-miterlimit="10"/>
</svg>
