<svg width="84" height="52" viewBox="0 0 84 52" fill="none" xmlns="http://www.w3.org/2000/svg">
<g clip-path="url(#clip0_481_3673)">
<path d="M54.1282 10.7381C55.2619 10.8956 56.1162 11.8981 56.0122 13.0323C55.9659 13.5364 55.7329 14.0429 55.1368 14.4298C53.3494 15.5899 48.2616 15.3225 46.3361 13.7165C44.4106 12.1106 43.3224 9.32762 43.8665 6.15771C43.8665 6.15771 45.965 10.4101 50.2398 10.4877C52.1052 10.5216 53.3347 10.629 54.1274 10.7389L54.1282 10.7381Z" fill="white"/>
<path d="M48.6859 7.29111C49.7448 7.29111 50.6033 6.4372 50.6033 5.38384C50.6033 4.33048 49.7448 3.47656 48.6859 3.47656C47.627 3.47656 46.7686 4.33048 46.7686 5.38384C46.7686 6.4372 47.627 7.29111 48.6859 7.29111Z" fill="white"/>
<path d="M53.1645 5.10413C52.7901 5.47654 52.1835 5.47654 51.8091 5.10413C51.4347 4.73172 51.4347 4.12828 51.8091 3.75587C52.1835 3.38346 52.7901 3.38346 53.1645 3.75587C53.5389 4.12828 53.5389 4.73172 53.1645 5.10413Z" fill="white"/>
<path d="M37.4913 2.65074C37.6497 1.52302 38.6575 0.673188 39.7977 0.77659C40.3044 0.822636 40.8136 1.05448 41.2026 1.64743C42.3688 3.42545 42.1 8.48647 40.4855 10.4018C38.8711 12.3172 36.0734 13.3997 32.8867 12.8584C32.8867 12.8584 37.1616 10.771 37.2396 6.51861C37.2737 4.66304 37.3817 3.43999 37.4921 2.65155L37.4913 2.65074Z" fill="white"/>
<path d="M32.1088 9.97129C33.1677 9.97129 34.0261 9.11737 34.0261 8.06401C34.0261 7.01065 33.1677 6.15674 32.1088 6.15674C31.0498 6.15674 30.1914 7.01065 30.1914 8.06401C30.1914 9.11737 31.0498 9.97129 32.1088 9.97129Z" fill="white"/>
<path d="M31.8276 4.7301C31.4532 5.10251 30.8466 5.10251 30.4722 4.7301C30.0978 4.3577 30.0978 3.75425 30.4722 3.38184C30.8466 3.00944 31.4532 3.00944 31.8276 3.38184C32.202 3.75425 32.202 4.3577 31.8276 4.7301Z" fill="white"/>
<path d="M45.9975 27.2863C45.8392 28.4141 44.8313 29.2639 43.6912 29.1605C43.1844 29.1145 42.6752 28.8826 42.2862 28.2897C41.1201 26.5116 41.3889 21.4506 43.0033 19.5353C44.6178 17.6199 47.4154 16.5374 50.6021 17.0787C50.6021 17.0787 46.3272 19.1661 46.2493 23.4185C46.2152 25.2741 46.1071 26.4971 45.9967 27.2855L45.9975 27.2863Z" fill="white"/>
<path d="M51.3969 23.7804C52.4558 23.7804 53.3142 22.9265 53.3142 21.8731C53.3142 20.8197 52.4558 19.9658 51.3969 19.9658C50.3379 19.9658 49.4795 20.8197 49.4795 21.8731C49.4795 22.9265 50.3379 23.7804 51.3969 23.7804Z" fill="white"/>
<path d="M52.3567 26.7756C52.886 26.7756 53.315 26.3488 53.315 25.8224C53.315 25.2959 52.886 24.8691 52.3567 24.8691C51.8275 24.8691 51.3984 25.2959 51.3984 25.8224C51.3984 26.3488 51.8275 26.7756 52.3567 26.7756Z" fill="white"/>
<path d="M34.8031 26.4605C35.862 26.4605 36.7205 25.6066 36.7205 24.5533C36.7205 23.4999 35.862 22.646 34.8031 22.646C33.7442 22.646 32.8857 23.4999 32.8857 24.5533C32.8857 25.6066 33.7442 26.4605 34.8031 26.4605Z" fill="white"/>
<path d="M31.4135 26.1808C31.0391 26.5532 30.4325 26.5532 30.0581 26.1808C29.6837 25.8084 29.6837 25.2049 30.0581 24.8325C30.4325 24.4601 31.0391 24.4601 31.4135 24.8325C31.7879 25.2049 31.7879 25.8084 31.4135 26.1808Z" fill="white"/>
<path d="M29.3614 19.1988C28.2277 19.0413 27.3734 18.0388 27.4773 16.9046C27.5236 16.4005 27.7567 15.894 28.3528 15.5071C30.1402 14.347 35.228 14.6144 37.1534 16.2204C39.0789 17.8263 40.1671 20.6093 39.623 23.7792C39.623 23.7792 37.5246 19.5268 33.2497 19.4493C31.3843 19.4153 30.1548 19.3079 29.3622 19.198L29.3614 19.1988Z" fill="white"/>
<path d="M42.537 9.04883C42.2812 10.0497 41.8913 10.9416 41.3789 11.5482C40.0292 13.1493 38.0306 14.0735 35.8047 14.1834C36.8068 14.4378 37.6985 14.8248 38.3076 15.3321C39.9196 16.6771 40.8462 18.6692 40.9542 20.8875C41.21 19.8866 41.5998 18.9948 42.1122 18.3873C43.4652 16.7829 45.4694 15.8612 47.7011 15.7546C46.6933 15.5001 45.7943 15.1132 45.1836 14.6034C43.5716 13.2584 42.645 11.2663 42.537 9.04883Z" fill="white"/>
<path d="M10.1748 42.7896V44.7995H0L6.46185 34.1168H0.855137V32.1069H10.1739L3.7129 42.7896H10.1739H10.1748Z" fill="white"/>
<path d="M18.0743 44.7995H15.7988V32.1255H18.0743V44.7995Z" fill="white"/>
<path d="M34.6729 32.1255V45.2341L26.3546 36.8877V44.7995H24.0791V31.6909L32.3974 40.0374V32.1255H34.6729Z" fill="white"/>
<path d="M53.3841 44.7997H51.1086V36.7247L47.0319 40.7622L42.9552 36.7247V44.7997H40.6797V31.6733L47.0319 37.8112L53.3841 31.6733V44.7997Z" fill="white"/>
<path d="M64.4679 31.6909L70.3654 44.7995H67.8357L64.4687 36.9781L61.1196 44.7995H58.5713L64.4687 31.6909H64.4679Z" fill="white"/>
<path d="M79.3384 39.6213V44.7995H77.0629V39.6213L72.9131 32.1255H75.4614L78.2096 37.1954L80.9577 32.1255H83.4874L79.3376 39.6213H79.3384Z" fill="white"/>
<path d="M11.2012 47.9758C11.3482 48.0622 11.4651 48.1785 11.552 48.3248C11.6389 48.471 11.682 48.6317 11.682 48.8078C11.682 48.9839 11.6381 49.1455 11.552 49.2933C11.4651 49.4412 11.3482 49.5575 11.2012 49.6447C11.0542 49.7312 10.8926 49.7748 10.7156 49.7748H9.83931V50.9777H9.27734V47.8481H10.7156C10.8926 47.8481 11.0542 47.891 11.2012 47.9774V47.9758ZM10.6522 49.2772C10.7813 49.2772 10.8918 49.2319 10.9852 49.1407C11.0778 49.0502 11.1249 48.9387 11.1249 48.8078C11.1249 48.677 11.0786 48.5695 10.9852 48.4766C10.8926 48.3845 10.7813 48.3377 10.6522 48.3377H9.8385V49.2764H10.6522V49.2772Z" fill="white"/>
<path d="M15.0063 47.963C15.2621 48.1117 15.4651 48.3144 15.6153 48.5713C15.7648 48.8274 15.8403 49.1077 15.8403 49.4123C15.8403 49.7168 15.7656 49.9923 15.6153 50.2484C15.4651 50.5044 15.2629 50.708 15.0063 50.8583C14.7505 51.0085 14.4703 51.0845 14.1682 51.0845C13.8661 51.0845 13.5851 51.0093 13.3277 50.8583C13.0702 50.708 12.8664 50.5044 12.7162 50.2484C12.5667 49.9923 12.4912 49.7136 12.4912 49.4123C12.4912 49.1109 12.5659 48.8282 12.7162 48.5713C12.8656 48.3152 13.0694 48.1125 13.3277 47.963C13.5851 47.8144 13.8653 47.7393 14.1682 47.7393C14.4711 47.7393 14.7505 47.8136 15.0063 47.963ZM14.7253 50.3752C14.8958 50.275 15.0314 50.1401 15.1321 49.968C15.2328 49.7968 15.2824 49.611 15.2824 49.4115C15.2824 49.2119 15.232 49.0221 15.1321 48.8524C15.0314 48.6828 14.8958 48.5479 14.7253 48.4477C14.5547 48.3475 14.3688 48.2983 14.1682 48.2983C13.9676 48.2983 13.7768 48.3484 13.6062 48.4477C13.4357 48.5479 13.3001 48.6828 13.1994 48.8524C13.0987 49.0221 13.0491 49.2087 13.0491 49.4115C13.0491 49.6142 13.0995 49.7968 13.1994 49.968C13.3001 50.1393 13.4357 50.275 13.6062 50.3752C13.7768 50.4754 13.9644 50.5246 14.1682 50.5246C14.372 50.5246 14.5547 50.4746 14.7253 50.3752Z" fill="white"/>
<path d="M20.3881 47.8469L19.2333 51.0838L18.3977 49.0449L17.5571 51.0838L16.4023 47.8469H16.9822L17.6067 49.6758L18.3977 47.7402L19.1846 49.6758L19.814 47.8469H20.3889H20.3881Z" fill="white"/>
<path d="M21.7856 48.3427V49.1255H23.1921V49.5908H21.7856V50.4802H23.2595V50.9762H21.2188V47.8467H23.2595V48.3427H21.7856Z" fill="white"/>
<path d="M26.1707 47.9758C26.3193 48.0622 26.4363 48.1793 26.5232 48.3264C26.61 48.4742 26.6539 48.6341 26.6539 48.807C26.6539 48.9799 26.6076 49.1495 26.5142 49.299C26.4216 49.4476 26.2982 49.5623 26.1455 49.6431L26.757 50.9752H26.1277L25.5706 49.7772H24.8559V50.9752H24.2939V47.8457H25.6826C25.8597 47.8457 26.0221 47.8885 26.1699 47.975L26.1707 47.9758ZM25.6152 49.2772C25.7468 49.2772 25.8589 49.2319 25.9498 49.1406C26.0416 49.0502 26.0871 48.9387 26.0871 48.8078C26.0871 48.677 26.0416 48.5695 25.9498 48.4766C25.858 48.3845 25.7468 48.3377 25.6152 48.3377H24.8559V49.2764H25.6152V49.2772Z" fill="white"/>
<path d="M28.2182 50.9762H27.6562V47.8467H28.2182V50.9762Z" fill="white"/>
<path d="M31.8677 47.8467V51.0837L29.8139 49.0221V50.9762H29.252V47.7393L31.3057 49.8V47.8459H31.8677V47.8467Z" fill="white"/>
<path d="M34.4836 49.2813H35.7375V50.6941C35.5694 50.8194 35.3786 50.9147 35.1642 50.9801C34.9498 51.0456 34.7232 51.0787 34.4836 51.0787C34.1807 51.0787 33.9014 51.0035 33.6455 50.8533C33.3897 50.703 33.1867 50.5003 33.0365 50.245C32.887 49.9905 32.8115 49.7118 32.8115 49.4113C32.8115 49.1108 32.8862 48.8313 33.0365 48.5752C33.1859 48.3191 33.3897 48.1164 33.648 47.9669C33.9054 47.8183 34.1856 47.7432 34.4885 47.7432C34.6745 47.7432 34.8483 47.7658 35.0099 47.8102V48.3644C34.9262 48.3313 34.845 48.3078 34.7671 48.2925C34.6891 48.2779 34.5973 48.2699 34.4926 48.2699C34.2887 48.2699 34.1011 48.3208 33.9306 48.4217C33.7601 48.5235 33.6244 48.6609 33.5237 48.8353C33.423 49.0098 33.3735 49.2013 33.3735 49.4097C33.3735 49.6181 33.4238 49.8055 33.5237 49.98C33.6244 50.1545 33.7601 50.2927 33.9306 50.3936C34.1011 50.4954 34.2887 50.5455 34.4926 50.5455C34.7922 50.5455 35.0383 50.4841 35.2299 50.3621V49.745H34.4836V49.2796V49.2813Z" fill="white"/>
<path d="M42.9155 47.8469L41.7607 51.0838L40.925 49.0449L40.0845 51.0838L38.9297 47.8469H39.5095L40.134 49.6758L40.925 47.7402L41.7119 49.6758L42.3413 47.8469H42.9163H42.9155Z" fill="white"/>
<path d="M46.0365 47.963C46.2924 48.1117 46.4954 48.3144 46.6456 48.5713C46.795 48.8274 46.8706 49.1077 46.8706 49.4123C46.8706 49.7168 46.7959 49.9923 46.6456 50.2484C46.4954 50.5044 46.2932 50.708 46.0365 50.8583C45.7807 51.0085 45.5006 51.0845 45.1985 51.0845C44.8964 51.0845 44.6154 51.0093 44.3579 50.8583C44.1005 50.708 43.8967 50.5044 43.7464 50.2484C43.597 49.9923 43.5215 49.7136 43.5215 49.4123C43.5215 49.1109 43.5962 48.8282 43.7464 48.5713C43.8959 48.3152 44.0997 48.1125 44.3579 47.963C44.6154 47.8144 44.8956 47.7393 45.1985 47.7393C45.5014 47.7393 45.7807 47.8136 46.0365 47.963ZM45.7556 50.3752C45.9261 50.275 46.0617 50.1401 46.1624 49.968C46.2631 49.7968 46.3127 49.611 46.3127 49.4115C46.3127 49.2119 46.2623 49.0221 46.1624 48.8524C46.0617 48.6828 45.9261 48.5479 45.7556 48.4477C45.585 48.3475 45.3991 48.2983 45.1985 48.2983C44.9979 48.2983 44.807 48.3484 44.6365 48.4477C44.466 48.5479 44.3303 48.6828 44.2296 48.8524C44.1289 49.0221 44.0794 49.2087 44.0794 49.4115C44.0794 49.6142 44.1297 49.7968 44.2296 49.968C44.3303 50.1393 44.466 50.275 44.6365 50.3752C44.807 50.4754 44.9946 50.5246 45.1985 50.5246C45.4023 50.5246 45.585 50.4746 45.7556 50.3752Z" fill="white"/>
<path d="M49.6902 47.9758C49.8388 48.0622 49.9558 48.1793 50.0427 48.3264C50.1296 48.4742 50.1734 48.6341 50.1734 48.807C50.1734 48.9799 50.1271 49.1495 50.0337 49.299C49.9412 49.4476 49.8177 49.5623 49.6651 49.6431L50.2766 50.9752H49.6472L49.0901 49.7772H48.3754V50.9752H47.8135V47.8457H49.2022C49.3792 47.8457 49.5416 47.8885 49.6894 47.975L49.6902 47.9758ZM49.1356 49.2772C49.2671 49.2772 49.3792 49.2319 49.4701 49.1406C49.5619 49.0502 49.6074 48.9387 49.6074 48.8078C49.6074 48.677 49.5619 48.5695 49.4701 48.4766C49.3784 48.3845 49.2671 48.3377 49.1356 48.3377H48.3763V49.2764H49.1356V49.2772Z" fill="white"/>
<path d="M51.7378 47.8467V50.9762H51.1758V47.8467H51.7378ZM52.8755 47.8467H53.5276L52.4037 49.3088L53.5276 50.9762H52.8755L51.7386 49.3088L52.8755 47.8467Z" fill="white"/>
<path d="M54.9469 48.3428V49.1256H56.4208V49.5909H54.9469V50.9812H54.3809V47.8428H56.4217V48.3436H54.9477L54.9469 48.3428Z" fill="white"/>
<path d="M59.8578 47.963C60.1136 48.1117 60.3167 48.3144 60.4669 48.5713C60.6171 48.8274 60.6919 49.1077 60.6919 49.4123C60.6919 49.7168 60.6171 49.9923 60.4669 50.2484C60.3167 50.5044 60.1145 50.708 59.8578 50.8583C59.602 51.0085 59.3219 51.0845 59.0198 51.0845C58.7177 51.0845 58.4367 51.0093 58.1792 50.8583C57.9218 50.708 57.718 50.5044 57.5677 50.2484C57.4175 49.9923 57.3428 49.7136 57.3428 49.4123C57.3428 49.1109 57.4175 48.8282 57.5677 48.5713C57.718 48.3152 57.921 48.1125 58.1792 47.963C58.4375 47.8136 58.7168 47.7393 59.0198 47.7393C59.3227 47.7393 59.602 47.8136 59.8578 47.963ZM59.5769 50.3752C59.7474 50.275 59.883 50.1401 59.9837 49.968C60.0844 49.7968 60.1339 49.611 60.1339 49.4115C60.1339 49.2119 60.0836 49.0221 59.9837 48.8524C59.883 48.6828 59.7474 48.5479 59.5769 48.4477C59.4063 48.3475 59.2203 48.2983 59.0198 48.2983C58.8192 48.2983 58.6283 48.3484 58.4578 48.4477C58.2872 48.5479 58.1516 48.6828 58.0509 48.8524C57.9502 49.0221 57.9007 49.2087 57.9007 49.4115C57.9007 49.6142 57.951 49.7968 58.0509 49.968C58.1508 50.1393 58.2872 50.275 58.4578 50.3752C58.6283 50.4754 58.8159 50.5246 59.0198 50.5246C59.2236 50.5246 59.4063 50.4746 59.5769 50.3752Z" fill="white"/>
<path d="M63.5114 47.9758C63.66 48.0622 63.7769 48.1793 63.8638 48.3264C63.9507 48.4742 63.9937 48.6341 63.9937 48.807C63.9937 48.9799 63.9474 49.1495 63.8541 49.299C63.7615 49.4476 63.638 49.5623 63.4854 49.6431L64.0969 50.9752H63.4675L62.9104 49.7772H62.1958V50.9752H61.6338V47.8457H63.0225C63.1995 47.8457 63.3619 47.8885 63.5105 47.975L63.5114 47.9758ZM62.9567 49.2772C63.0883 49.2772 63.2003 49.2319 63.2913 49.1406C63.3822 49.0502 63.4285 48.9387 63.4285 48.8078C63.4285 48.677 63.383 48.5695 63.2913 48.4766C63.1995 48.3845 63.0883 48.3377 62.9567 48.3377H62.1974V49.2764H62.9567V49.2772Z" fill="white"/>
<path d="M67.3644 50.867C67.1143 51.0084 66.8406 51.0795 66.5442 51.0795C66.2478 51.0795 65.9619 51.0052 65.7061 50.8557C65.4503 50.7071 65.2473 50.5043 65.097 50.2474C64.9468 49.9913 64.8721 49.7126 64.8721 49.4113C64.8721 49.11 64.9468 48.8313 65.097 48.5752C65.2473 48.3191 65.4503 48.1164 65.7061 47.9669C65.9619 47.8183 66.2413 47.7432 66.5442 47.7432C66.8471 47.7432 67.1143 47.8143 67.3644 47.9556C67.6145 48.097 67.8143 48.2876 67.9645 48.5259L67.4968 48.8168C67.3944 48.656 67.2604 48.5284 67.0948 48.4347C66.9283 48.341 66.7464 48.2941 66.549 48.2941C66.3517 48.2941 66.1625 48.3442 65.9919 48.4435C65.8214 48.5437 65.6858 48.6794 65.5851 48.8507C65.4844 49.022 65.4349 49.2094 65.4349 49.4121C65.4349 49.6149 65.4852 49.7975 65.5851 49.9687C65.6858 50.14 65.8214 50.2757 65.9919 50.3759C66.1625 50.476 66.3485 50.5253 66.549 50.5253C66.7496 50.5253 66.9291 50.4785 67.0948 50.3848C67.2613 50.291 67.3953 50.1634 67.4968 50.0026L67.9645 50.2935C67.8143 50.535 67.6145 50.7265 67.3644 50.8678V50.867Z" fill="white"/>
<path d="M69.4741 48.3427V49.1255H70.8806V49.5908H69.4741V50.4802H70.948V50.9762H68.9072V47.8467H70.948V48.3427H69.4741Z" fill="white"/>
<path d="M73.9077 49.5074C74.1099 49.6577 74.2114 49.8661 74.2114 50.1311C74.2114 50.3217 74.1578 50.4898 74.0498 50.6344C73.9418 50.779 73.794 50.8896 73.6072 50.9672C73.4196 51.0447 73.2109 51.0835 72.9803 51.0835C72.7253 51.0835 72.4938 51.0181 72.2859 50.8864C72.0772 50.7555 71.9164 50.5851 71.8027 50.3767L72.3062 50.144C72.372 50.2603 72.4687 50.3605 72.5962 50.4461C72.7237 50.531 72.856 50.5738 72.9941 50.5738C73.1711 50.5738 73.3238 50.5326 73.4521 50.451C73.5812 50.3694 73.6454 50.2547 73.6454 50.1093C73.6454 49.9897 73.5861 49.8928 73.4675 49.8168C73.349 49.7409 73.1955 49.6763 73.0071 49.6222C72.2762 49.4105 71.9099 49.1092 71.9099 48.719C71.9099 48.5372 71.9603 48.3716 72.0602 48.223C72.1601 48.0744 72.2989 47.9564 72.476 47.87C72.653 47.7835 72.8471 47.7407 73.0599 47.7407C73.3084 47.7407 73.5276 47.7965 73.716 47.9088C73.9053 48.0202 74.0425 48.164 74.1294 48.3401L73.6438 48.5639C73.5057 48.3522 73.3108 48.2464 73.059 48.2464C72.8999 48.2497 72.7643 48.2917 72.6498 48.3741C72.5361 48.4565 72.4792 48.5623 72.4792 48.694C72.4792 48.7949 72.5312 48.8773 72.6343 48.9395C72.7375 49.0025 72.882 49.0615 73.068 49.1181C73.4245 49.2287 73.7039 49.3588 73.9061 49.5091L73.9077 49.5074Z" fill="white"/>
</g>
<defs>
<clipPath id="clip0_481_3673">
<rect width="83.4884" height="50.5634" fill="white" transform="translate(0 0.767578)"/>
</clipPath>
</defs>
</svg>
