<svg width="196" height="35" viewBox="0 0 196 35" fill="none" xmlns="http://www.w3.org/2000/svg">
<path d="M24.5609 28.4715V33.6166H0.767578L15.8784 6.26965H2.76728V1.12451H24.559L9.45006 28.4715H24.559H24.5609Z" fill="white"/>
<path d="M43.0331 33.6164H37.7119V1.17188H43.0331V33.6164Z" fill="white"/>
<path d="M81.8494 1.17214V34.7292L62.3973 13.3629V33.6167H57.0762V0.0595703L76.5282 21.4259V1.17214H81.8494Z" fill="white"/>
<path d="M125.604 33.6168H120.283V12.9452L110.75 23.281L101.217 12.9452V33.6168H95.8955V0.0141602L110.75 15.7267L125.604 0.0141602V33.6168Z" fill="white"/>
<path d="M151.523 0.0595703L165.314 33.6167H159.399L151.525 13.5945L143.694 33.6167H137.734L151.525 0.0595703H151.523Z" fill="white"/>
<path d="M186.298 20.3607V33.6164H180.977V20.3607L171.272 1.17188H177.232L183.658 14.1505L190.085 1.17188H196L186.296 20.3607H186.298Z" fill="white"/>
</svg>
