<svg width="76" height="67" viewBox="0 0 76 67" fill="none" xmlns="http://www.w3.org/2000/svg">
<g clip-path="url(#clip0_705_8490)">
<path d="M75.8426 44.3329C69.541 49.05 63.2889 49.0353 56.9606 44.2961C56.8558 44.3853 56.7014 44.5259 56.5378 44.6555C53.4164 47.1317 49.8786 48.1703 45.9152 47.7145C43.1348 47.3946 40.6889 46.2944 38.551 44.5002C38.3396 44.3228 38.2036 44.2419 37.9416 44.4598C32.5076 48.9875 25.0634 48.9663 19.6469 44.4202C19.589 44.3715 19.5265 44.3274 19.4879 44.298C13.2018 49.0334 6.93417 49.0647 0.596657 44.321C0.596657 44.4882 0.596657 44.6491 0.596657 44.8099C0.596657 50.4259 0.596657 56.041 0.595741 61.657C0.595741 64.6433 2.61419 66.6627 5.6106 66.6636C14.1339 66.6654 22.6562 66.6645 31.1794 66.6645C44.3848 66.6645 57.5893 66.6608 70.7947 66.6663C72.7037 66.6663 74.2065 65.9512 75.2121 64.2959C75.6514 63.5734 75.8537 62.7728 75.8546 61.9355C75.8629 56.1513 75.8592 50.368 75.8583 44.5838C75.8583 44.4984 75.8481 44.4129 75.8426 44.332V44.3329Z" fill="#FE655B"/>
<path d="M59.4028 29.0384V19.6475H54.6857V29.0099H40.609V19.6539H35.8708V29.0016H21.795V19.6438H17.0586V29.0393C16.8132 29.0393 16.6339 29.0393 16.4538 29.0393C12.7965 29.0393 9.13922 29.0752 5.48285 29.0274C2.91016 28.9934 0.700531 30.9263 0.611374 33.6075C0.560822 35.136 0.592072 36.6673 0.604935 38.1977C0.606773 38.3613 0.69593 38.5562 0.806229 38.683C3.5122 41.7851 6.86617 43.4764 11.0391 43.0729C14.2818 42.7594 17.0338 41.3614 19.1405 38.8117C19.2259 38.7087 19.3151 38.6086 19.4052 38.5038C25.2179 45.5003 34.2365 43.7742 38.2265 38.4955C40.7018 41.3881 43.7653 43.1914 47.6386 43.1289C51.443 43.0683 54.6122 41.5167 56.9606 38.57C57.8981 39.377 58.764 40.2511 59.7511 40.9524C65.005 44.6832 71.6559 43.4975 75.6836 38.6398C75.7664 38.5405 75.8518 38.3999 75.8509 38.2795C75.838 36.5368 75.9042 34.7858 75.7618 33.0532C75.5834 30.8804 73.6054 29.0917 71.4215 29.0651C67.6429 29.0191 63.8634 29.0439 60.0839 29.0384C59.8743 29.0384 59.6647 29.0384 59.4037 29.0384H59.4028Z" fill="#FE655B"/>
<path d="M35.8671 14.9956C36.0197 13.0203 37.0142 11.6177 38.2257 10.2335C39.4389 11.5901 40.4243 13.002 40.5897 14.9653C40.9068 14.7005 41.2055 14.5167 41.4179 14.2612C42.9648 12.4008 43.3508 10.3272 42.4721 8.05694C41.9684 6.75727 41.1412 5.65889 40.2202 4.62669C38.9426 3.19466 37.4949 1.95932 35.8717 0.81958C35.6557 1.48137 35.4223 2.08984 35.2596 2.7167C34.6915 4.89876 34.061 7.0707 33.6226 9.27941C33.2604 11.103 33.7678 12.7979 35.0041 14.2263C35.2292 14.4873 35.5215 14.6904 35.8671 14.9947V14.9956Z" fill="#FE655B"/>
<path d="M57.0222 0.802189C54.8466 3.25539 52.9789 5.80786 52.4247 9.07359C52.1112 10.9211 52.5065 12.6335 53.7041 14.1105C53.955 14.4203 54.2942 14.6593 54.6665 14.9984C54.8255 13.036 55.8117 11.6224 57.0333 10.2317C58.2456 11.5902 59.2328 13.0112 59.3936 14.9102C60.0288 14.5839 60.4589 14.0949 60.7926 13.5287C61.7963 11.8246 62.0445 10.0681 61.2356 8.18937C60.2393 5.8768 58.9377 3.74254 57.5802 1.63494C57.4156 1.37941 57.2419 1.13032 57.0213 0.80127L57.0222 0.802189Z" fill="#FE655B"/>
<path d="M19.4162 0.796631C17.3077 3.16895 15.5245 5.62399 14.8729 8.72152C14.4831 10.5736 14.7809 12.3126 15.9023 13.8614C16.1964 14.2677 16.6073 14.5903 17.0531 15.0407C17.2176 13.0296 18.2038 11.6122 19.4226 10.2354C20.6433 11.6003 21.6194 13.0231 21.8961 14.9506C22.2674 14.5645 22.7077 14.2235 22.999 13.7842C24.1176 12.0994 24.4917 10.319 23.6535 8.36581C22.5156 5.71591 20.9999 3.2866 19.4162 0.796631Z" fill="#FE655B"/>
</g>
<defs>
<clipPath id="clip0_705_8490">
<rect width="75.2754" height="65.8707" fill="white" transform="matrix(-1 0 0 1 75.8601 0.796631)"/>
</clipPath>
</defs>
</svg>
