<svg width="60" height="10" viewBox="0 0 60 10" fill="none" xmlns="http://www.w3.org/2000/svg">
<path d="M0.947368 6.18115H56.2661L54.7251 7.87038C54.3556 8.27538 54.3556 8.93307 54.7251 9.33807C54.9114 9.5423 55.1514 9.64269 55.3946 9.64269C55.6377 9.64269 55.8809 9.5423 56.064 9.33807L59.2219 5.87654C59.5914 5.47154 59.5914 4.81384 59.2219 4.40884L56.064 0.947305C55.6946 0.542305 55.0946 0.542305 54.7251 0.947305C54.3556 1.3523 54.3556 2.01 54.7251 2.415L56.2661 4.10423H0.947368C0.423158 4.10423 0 4.56807 0 5.14269C0 5.7173 0.423158 6.18115 0.947368 6.18115Z" fill="white"/>
</svg>
