<svg width="36" height="10" viewBox="0 0 36 10" fill="none" xmlns="http://www.w3.org/2000/svg">
<g clip-path="url(#clip0_425_2355)">
<path d="M0.947368 5.55713H32.7663L31.2253 7.24636C30.8558 7.65136 30.8558 8.30905 31.2253 8.71405C31.4116 8.91828 31.6516 9.01867 31.8947 9.01867C32.1379 9.01867 32.3811 8.91828 32.5642 8.71405L35.7221 5.25251C36.0916 4.84751 36.0916 4.18982 35.7221 3.78482L32.5642 0.323281C32.1947 -0.0817187 31.5947 -0.0817187 31.2253 0.323281C30.8558 0.728281 30.8558 1.38597 31.2253 1.79097L32.7663 3.4802H0.947368C0.423158 3.4802 0 3.94405 0 4.51867C0 5.09328 0.423158 5.55713 0.947368 5.55713Z" fill="black"/>
</g>
<defs>
<clipPath id="clip0_425_2355">
<rect width="36" height="9" fill="white" transform="translate(0 0.0180664)"/>
</clipPath>
</defs>
</svg>
