<svg width="37" height="9" viewBox="0 0 37 9" fill="none" xmlns="http://www.w3.org/2000/svg">
<g clip-path="url(#clip0_425_4463)">
<path d="M1.7003 5.53882H33.5192L31.9782 7.22805C31.6087 7.63305 31.6087 8.29074 31.9782 8.69574C32.1645 8.89997 32.4045 9.00035 32.6477 9.00035C32.8908 9.00035 33.134 8.89997 33.3171 8.69574L36.475 5.2342C36.8445 4.8292 36.8445 4.17151 36.475 3.76651L33.3171 0.304971C32.9477 -0.100029 32.3477 -0.100029 31.9782 0.304971C31.6087 0.709971 31.6087 1.36766 31.9782 1.77266L33.5192 3.46189H1.7003C1.17609 3.46189 0.75293 3.92574 0.75293 4.50036C0.75293 5.07497 1.17609 5.53882 1.7003 5.53882Z" fill="white"/>
</g>
<defs>
<clipPath id="clip0_425_4463">
<rect width="36" height="9" fill="white" transform="translate(0.75293)"/>
</clipPath>
</defs>
</svg>
