<svg width="40" height="9" viewBox="0 0 40 9" fill="none" xmlns="http://www.w3.org/2000/svg">
<g clip-path="url(#clip0_425_4139)">
<path d="M1.04211 5.53882H36.0429L34.3478 7.22805C33.9414 7.63305 33.9414 8.29074 34.3478 8.69574C34.5527 8.89997 34.8167 9.00035 35.0842 9.00035C35.3517 9.00035 35.6192 8.89997 35.8206 8.69574L39.2943 5.2342C39.7007 4.8292 39.7007 4.17151 39.2943 3.76651L35.8206 0.304971C35.4142 -0.100029 34.7542 -0.100029 34.3478 0.304971C33.9414 0.709971 33.9414 1.36766 34.3478 1.77266L36.0429 3.46189H1.04211C0.465474 3.46189 0 3.92574 0 4.50036C0 5.07497 0.465474 5.53882 1.04211 5.53882Z" fill="white"/>
</g>
<defs>
<clipPath id="clip0_425_4139">
<rect width="39.6" height="9" fill="white"/>
</clipPath>
</defs>
</svg>
