<svg width="40" height="10" viewBox="0 0 40 10" fill="none" xmlns="http://www.w3.org/2000/svg">
<g clip-path="url(#clip0_481_4769)">
<path d="M1.04211 6.30664H36.0429L34.3478 7.99587C33.9414 8.40087 33.9414 9.05856 34.3478 9.46356C34.5527 9.66779 34.8167 9.76818 35.0842 9.76818C35.3517 9.76818 35.6192 9.66779 35.8206 9.46356L39.2943 6.00202C39.7007 5.59702 39.7007 4.93933 39.2943 4.53433L35.8206 1.07279C35.4142 0.667793 34.7542 0.667793 34.3478 1.07279C33.9414 1.47779 33.9414 2.13549 34.3478 2.54049L36.0429 4.22972H1.04211C0.465474 4.22972 0 4.69356 0 5.26818C0 5.84279 0.465474 6.30664 1.04211 6.30664Z" fill="white"/>
</g>
<defs>
<clipPath id="clip0_481_4769">
<rect width="39.6" height="9" fill="white" transform="translate(0 0.767578)"/>
</clipPath>
</defs>
</svg>
