<svg width="40" height="10" viewBox="0 0 40 10" fill="none" xmlns="http://www.w3.org/2000/svg">
<g clip-path="url(#clip0_740_1108)">
<path d="M1.04211 6.18249H36.0429L34.3478 7.87172C33.9414 8.27672 33.9414 8.93442 34.3478 9.33942C34.5527 9.54365 34.8167 9.64403 35.0842 9.64403C35.3517 9.64403 35.6192 9.54365 35.8206 9.33942L39.2943 5.87788C39.7007 5.47288 39.7007 4.81519 39.2943 4.41019L35.8206 0.948647C35.4142 0.543647 34.7542 0.543647 34.3478 0.948647C33.9414 1.35365 33.9414 2.01134 34.3478 2.41634L36.0429 4.10557H1.04211C0.465474 4.10557 0 4.56942 0 5.14403C0 5.71865 0.465474 6.18249 1.04211 6.18249Z" fill="black"/>
</g>
<defs>
<clipPath id="clip0_740_1108">
<rect width="39.6" height="9" fill="white" transform="translate(0 0.643555)"/>
</clipPath>
</defs>
</svg>
