<svg width="40" height="10" viewBox="0 0 40 10" fill="none" xmlns="http://www.w3.org/2000/svg">
<g clip-path="url(#clip0_425_4619)">
<path d="M1.04211 6.40613H36.0429L34.3478 8.09536C33.9414 8.50036 33.9414 9.15805 34.3478 9.56305C34.5527 9.76728 34.8167 9.86766 35.0842 9.86766C35.3517 9.86766 35.6192 9.76728 35.8206 9.56305L39.2943 6.10151C39.7007 5.69651 39.7007 5.03882 39.2943 4.63382L35.8206 1.17228C35.4142 0.76728 34.7542 0.76728 34.3478 1.17228C33.9414 1.57728 33.9414 2.23497 34.3478 2.63997L36.0429 4.3292H1.04211C0.465474 4.3292 0 4.79305 0 5.36766C0 5.94228 0.465474 6.40613 1.04211 6.40613Z" fill="white"/>
</g>
<defs>
<clipPath id="clip0_425_4619">
<rect width="39.6" height="9" fill="white" transform="translate(0 0.867188)"/>
</clipPath>
</defs>
</svg>
