<svg width="36" height="10" viewBox="0 0 36 10" fill="none" xmlns="http://www.w3.org/2000/svg">
<g clip-path="url(#clip0_425_2359)">
<path d="M0.947368 6.4126H32.7663L31.2253 8.10183C30.8558 8.50683 30.8558 9.16452 31.2253 9.56952C31.4116 9.77375 31.6516 9.87413 31.8947 9.87413C32.1379 9.87413 32.3811 9.77375 32.5642 9.56952L35.7221 6.10798C36.0916 5.70298 36.0916 5.04529 35.7221 4.64029L32.5642 1.17875C32.1947 0.77375 31.5947 0.77375 31.2253 1.17875C30.8558 1.58375 30.8558 2.24144 31.2253 2.64644L32.7663 4.33567H0.947368C0.423158 4.33567 0 4.79952 0 5.37413C0 5.94875 0.423158 6.4126 0.947368 6.4126Z" fill="black"/>
</g>
<defs>
<clipPath id="clip0_425_2359">
<rect width="36" height="9" fill="white" transform="translate(0 0.873535)"/>
</clipPath>
</defs>
</svg>
