<svg width="40" height="9" viewBox="0 0 40 9" fill="none" xmlns="http://www.w3.org/2000/svg">
<g clip-path="url(#clip0_425_2368)">
<path d="M1.04211 5.29847H36.0429L34.3478 6.80137C33.9414 7.16169 33.9414 7.74684 34.3478 8.10716C34.5527 8.28887 34.8167 8.37818 35.0842 8.37818C35.3517 8.37818 35.6192 8.28887 35.8206 8.10716L39.2943 5.02746C39.7007 4.66713 39.7007 4.08198 39.2943 3.72166L35.8206 0.641949C35.4142 0.281623 34.7542 0.281623 34.3478 0.641949C33.9414 1.00227 33.9414 1.58742 34.3478 1.94775L36.0429 3.45064H1.04211C0.465474 3.45064 0 3.86333 0 4.37456C0 4.88579 0.465474 5.29847 1.04211 5.29847Z" fill="white"/>
</g>
<defs>
<clipPath id="clip0_425_2368">
<rect width="39.6" height="8.00725" fill="white" transform="translate(0 0.370361)"/>
</clipPath>
</defs>
</svg>
