<svg width="297" height="90" viewBox="0 0 297 90" fill="none" xmlns="http://www.w3.org/2000/svg">
<g clip-path="url(#clip0_544_531)">
<path d="M39.6799 87.07C39.6799 88.6892 31.5531 90 21.5279 90C11.5027 90 3.37598 88.6892 3.37598 87.07C3.37598 85.4508 11.5027 84.14 21.531 84.14C31.5593 84.14 39.683 85.4508 39.683 87.07" fill="#CCCCCC"/>
<path d="M2.63574 56.6505V8.34891L3.05694 7.82151C4.75104 5.6965 12.3017 2.62463 21.5279 2.62463C30.7541 2.62463 38.3047 5.6965 39.9957 7.82151L40.4138 8.34891V56.6505L21.5248 76.6238L2.63574 56.6505Z" fill="black"/>
<path d="M33.4047 38.3921C35.6563 36.5539 37.9605 33.2168 37.9605 27.2581C37.9605 22.4992 35.4705 22.4406 32.138 22.4406H10.9138C7.58131 22.4406 5.09436 22.4992 5.09436 27.2581C5.09436 33.2168 7.39858 36.5539 9.65015 38.3921C6.46636 42.1486 4.57715 46.8706 4.57715 51.3827V58.3684L21.5305 75.8497L38.4808 58.3684V51.3827C38.4808 46.8706 36.5885 42.1486 33.4078 38.3921" fill="white"/>
<path d="M14.2842 68.3798L21.5251 75.8497L28.7692 68.3798H14.2842Z" fill="black"/>
<path d="M35.9384 2.46119C31.7171 0.875912 26.5977 0 21.5278 0C16.4578 0 11.3384 0.875912 7.11707 2.46119C3.86824 3.68253 0 5.7582 0 8.71903V56.7863C0 57.3661 0.222989 57.9243 0.622512 58.35L19.8615 78.6964C20.2951 79.1529 20.899 79.415 21.5278 79.415C22.1565 79.415 22.7604 79.156 23.194 78.6964L42.4361 58.35C42.8356 57.9243 43.0586 57.3661 43.0586 56.7863V8.71903C43.0586 5.7582 39.1842 3.67945 35.9415 2.45811M38.4811 55.8826L21.5308 73.808L4.57747 55.8826V9.02128C5.69552 7.61797 12.4967 4.55536 21.5308 4.55536C30.565 4.55536 37.3662 7.61797 38.4811 9.02128V55.8826Z" fill="black"/>
<path d="M21.528 59.4849C14.9715 59.4849 8.41185 58.7817 1.89871 57.3722C0.910743 57.1594 0.282037 56.1879 0.498832 55.204C0.71253 54.2202 1.69121 53.5972 2.67607 53.81C15.1883 56.5148 27.8708 56.5148 40.3767 53.81C41.3647 53.5972 42.3403 54.2202 42.554 55.204C42.7677 56.1879 42.1421 57.1594 41.1541 57.3722C34.641 58.7817 28.0845 59.4849 21.528 59.4849Z" fill="black"/>
<path d="M20.6146 39.413C20.6146 40.5449 19.6885 41.467 18.5519 41.467C17.4153 41.467 16.4893 40.5449 16.4893 39.413C16.4893 38.2811 17.4122 37.3589 18.5519 37.3589C19.6916 37.3589 20.6146 38.278 20.6146 39.413Z" fill="black"/>
<path d="M26.5669 39.413C26.5669 40.5449 25.6439 41.467 24.5042 41.467C23.3645 41.467 22.4385 40.5449 22.4385 39.413C22.4385 38.2811 23.3614 37.3589 24.5042 37.3589C25.6439 37.3589 26.5669 38.278 26.5669 39.413Z" fill="black"/>
<path d="M18.2729 32.27C18.0437 32.27 17.8083 32.2268 17.5822 32.1343C15.5629 31.3139 13.5994 31.3139 11.577 32.1343C10.6417 32.5136 9.57319 32.0664 9.19225 31.1319C8.81131 30.2005 9.26038 29.1364 10.1957 28.7571C13.1039 27.5758 16.0554 27.5758 18.9604 28.7571C19.8957 29.1364 20.3479 30.2005 19.967 31.1319C19.6789 31.8413 18.9945 32.2669 18.2698 32.2669" fill="black"/>
<path d="M32.1604 32.27C31.9312 32.27 31.6958 32.2268 31.4697 32.1343C29.4504 31.3139 27.4869 31.3139 25.4676 32.1343C24.5323 32.5136 23.4638 32.0664 23.0828 31.1319C22.7019 30.2005 23.151 29.1364 24.0894 28.7571C26.9975 27.5758 29.9459 27.5758 32.8541 28.7571C33.7894 29.1364 34.2416 30.2005 33.8575 31.1319C33.5695 31.8413 32.8851 32.2669 32.1604 32.2669" fill="black"/>
<path d="M78.9193 31.3293H69.4918V62.3779C69.4918 62.859 69.1542 63.3433 68.6246 63.3433H65.9643C65.4811 63.3433 65.094 62.9084 65.094 62.3779V31.3293H55.6665C55.1369 31.3293 54.7002 31.0856 54.7002 30.5582V28.4425C54.7002 27.9613 55.1369 27.5758 55.6665 27.5758H78.9193C79.4489 27.5758 79.836 27.912 79.836 28.4425V30.5582C79.836 31.0394 79.4489 31.3293 78.9193 31.3293Z" fill="black"/>
<path d="M104.39 51.4506H88.195V52.1229C88.195 57.8534 90.4652 59.9722 94.9157 59.9722C97.7154 59.9722 101.296 59.7779 103.519 59.4448H103.761C104.148 59.4448 104.532 59.6391 104.532 60.1203V61.7549C104.532 62.381 104.34 62.7172 103.566 62.8621C100.812 63.3926 98.1521 63.6794 94.9126 63.6794C89.3502 63.6794 83.9365 61.0795 83.9365 52.126V47.7927C83.9365 40.9119 87.7552 36.5292 94.6679 36.5292C101.581 36.5292 105.306 40.9612 105.306 47.7927V50.3958C105.306 51.0219 104.969 51.4537 104.39 51.4537M101.004 47.7927C101.004 42.3553 98.9264 40.2364 94.671 40.2364C90.4156 40.2364 88.195 42.5928 88.195 47.7927V48.2276H101.004V47.7927Z" fill="black"/>
<path d="M118.891 63.6795C117.1 63.6795 113.622 63.5345 111.253 62.9578C110.624 62.8128 110.237 62.526 110.237 61.9955V60.3084C110.237 59.8766 110.624 59.5867 111.108 59.5867H111.303C113.622 59.8766 117.153 60.1172 118.894 60.1172C122.037 60.1172 123.679 59.2999 123.679 56.6968C123.679 55.2534 122.808 54.3405 120.052 52.7028L115.171 49.8129C112.223 48.0302 110.237 45.9607 110.237 42.929C110.237 37.9233 114.01 36.5262 118.99 36.5262C121.696 36.5262 124.258 36.7668 126.531 37.1523C127.16 37.2479 127.448 37.5871 127.448 38.1145V39.7029C127.448 40.2827 127.11 40.5202 126.627 40.5202H126.481C124.794 40.3753 121.696 40.1347 118.99 40.1347C116.283 40.1347 114.493 40.4709 114.493 42.9259C114.493 44.3724 115.605 45.2853 117.825 46.5838L122.61 49.4243C126.621 51.7837 127.928 53.8532 127.928 56.6938C127.928 61.6069 124.301 63.6764 118.887 63.6764" fill="black"/>
<path d="M146.879 63.4389C145.913 63.5839 144.652 63.6795 143.735 63.6795C139.288 63.6795 137.163 62.526 137.163 57.2304V40.4277L132.471 39.9003C131.942 39.8509 131.555 39.5641 131.555 39.0336V37.7352C131.555 37.2047 131.942 36.8685 132.471 36.8685H137.163V32.1497C137.163 31.6686 137.501 31.283 138.031 31.1874L140.545 30.805H140.691C141.078 30.805 141.416 31.1412 141.416 31.6223V36.8685H146.637C147.17 36.8685 147.604 37.3034 147.604 37.8308V39.4654C147.604 39.9928 147.17 40.4277 146.637 40.4277H141.416V57.2304C141.416 59.8797 142.094 60.2622 144.027 60.2622H146.733C147.412 60.2622 147.749 60.4565 147.749 60.9376V62.6185C147.749 63.0472 147.508 63.3402 146.879 63.4358" fill="black"/>
<path d="M179.977 34.7003H179.832C177.512 34.6016 173.889 34.3148 169.779 34.3148C165.669 34.3148 163.445 36.19 163.445 42.4972V48.5175C163.445 55.1578 166.49 56.6999 168.859 56.6999C170.212 56.6999 171.423 56.6536 172.582 56.558V45.4827C172.582 44.9553 172.969 44.5204 173.498 44.5204H179.686C180.216 44.5204 180.653 44.9522 180.653 45.4827V61.6562C180.653 62.3316 180.411 62.6185 179.686 62.7665C177.075 63.2939 173.69 63.7781 168.859 63.7781C163.349 63.7781 155.08 60.6507 155.08 48.4682V42.4972C155.08 30.222 162.767 27.1409 169.776 27.1409C174.61 27.1409 178.091 27.8626 179.878 28.2482C180.361 28.3438 180.699 28.5381 180.699 28.9699V34.0711C180.699 34.6016 180.408 34.7003 179.974 34.7003" fill="black"/>
<path d="M198.101 63.7781C190.269 63.7781 185.967 58.9144 185.967 51.2594V47.8884C185.967 40.2334 190.269 35.3727 198.101 35.3727C205.934 35.3727 210.186 40.2334 210.186 47.8884V51.2594C210.186 58.9144 205.931 63.7781 198.101 63.7781ZM202.403 47.8884C202.403 43.9899 200.904 42.016 198.101 42.016C195.298 42.016 193.753 43.9899 193.753 47.8884V51.2594C193.753 55.1578 195.301 57.181 198.101 57.181C200.901 57.181 202.403 55.1578 202.403 51.2594V47.8884Z" fill="black"/>
<path d="M229.667 41.8217H229.28C226.911 41.8217 224.832 42.5434 223.045 43.5057V62.3285C223.045 62.8559 222.609 63.3402 222.079 63.3402H216.229C215.696 63.3402 215.213 62.859 215.213 62.3285V36.7174C215.213 36.1869 215.65 35.7551 216.179 35.7551H221.934C222.463 35.7551 222.9 36.1869 222.9 36.7174V37.6796C224.69 36.1869 227.106 35.3696 229.428 35.3696C229.958 35.3696 230.395 35.8014 230.395 36.3318V40.9057C230.395 41.3344 230.104 41.8186 229.667 41.8186" fill="black"/>
<path d="M241.606 32.6277H235.322C234.789 32.6277 234.355 32.1928 234.355 31.6654V27.1872C234.355 26.6598 234.789 26.2249 235.322 26.2249H241.606C242.135 26.2249 242.572 26.6598 242.572 27.1872V31.6654C242.572 32.1959 242.135 32.6277 241.606 32.6277ZM241.411 63.3432H235.514C234.984 63.3432 234.547 62.9084 234.547 62.3779V36.7174C234.547 36.19 234.984 35.7551 235.514 35.7551H241.411C241.94 35.7551 242.377 36.1869 242.377 36.7174V62.3748C242.377 62.9053 241.94 63.3402 241.411 63.3402" fill="black"/>
<path d="M255.283 63.3433H249.386C248.856 63.3433 248.37 62.8621 248.37 62.3317V27.3815C248.37 26.8541 248.853 26.4193 249.386 26.4193H255.283C255.815 26.4193 256.203 26.8541 256.203 27.3815V62.3317C256.203 62.8591 255.815 63.3433 255.283 63.3433Z" fill="black"/>
<path d="M268.915 63.3433H263.019C262.489 63.3433 262.006 62.8621 262.006 62.3317V27.3815C262.006 26.8541 262.489 26.4193 263.019 26.4193H268.915C269.448 26.4193 269.832 26.8541 269.832 27.3815V62.3317C269.832 62.8591 269.448 63.3433 268.915 63.3433Z" fill="black"/>
<path d="M296.037 63.3433H290.62C290.09 63.3433 289.654 62.9084 289.654 62.3779V61.6099C287.771 62.9577 285.835 63.7781 282.936 63.7781C278.73 63.7781 274.67 61.7549 274.67 55.494V55.0591C274.67 49.4273 278.297 46.923 286.56 46.923H289.174V45.1897C289.174 42.4447 287.82 41.8649 285.547 41.8649C282.453 41.8649 279.021 42.0592 277.522 42.2042H277.281C276.798 42.2042 276.41 41.9636 276.41 41.3375V37.4391C276.41 36.9117 276.751 36.5261 277.33 36.3781C279.12 35.9463 282.502 35.3696 285.692 35.3696C292.655 35.3696 297.006 38.1608 297.006 45.1897V62.3748C297.006 62.9053 296.569 63.3402 296.04 63.3402M289.319 51.5431H286.563C283.181 51.5431 282.31 52.6997 282.31 55.056V55.4909C282.31 57.5141 283.326 57.8996 285.358 57.8996C286.807 57.8996 288.161 57.4185 289.322 56.8387V51.5462L289.319 51.5431Z" fill="black"/>
</g>
<defs>
<clipPath id="clip0_544_531">
<rect width="297" height="90" fill="white"/>
</clipPath>
</defs>
</svg>
