<svg width="207" height="73" viewBox="0 0 207 73" fill="none" xmlns="http://www.w3.org/2000/svg">
<g clip-path="url(#clip0_701_48)">
<path d="M24.407 0.482422H35.7194V52.6339C29.9225 53.7355 25.6452 54.165 21.0114 54.165C7.18515 54.165 -0.0187607 47.9472 -0.0187607 36.0156C-0.0187607 24.0841 7.61664 17.0633 19.4543 17.0633C21.2928 17.0633 22.6811 17.2127 24.3695 17.6422V0.482422H24.407ZM24.407 26.7355C23.0938 26.2874 21.9869 26.1567 20.5799 26.1567C14.8393 26.1567 11.5375 29.6671 11.5375 35.8102C11.5375 41.9534 14.6892 45.109 20.5049 45.109C21.8181 45.109 23.1126 45.0156 24.407 44.8102V26.7355ZM53.7292 17.8849V44.0073C53.7292 53.0073 53.0726 57.3206 51.1028 61.055C49.2643 64.6401 46.8442 66.8994 41.8352 69.4015L31.3295 64.416C36.3385 62.082 38.7586 60.0281 40.2969 56.8725C41.9103 53.6608 42.4356 49.9264 42.4356 40.1235V17.9036H53.7292V17.8849ZM42.4168 0.538438H53.7292V12.1152H42.4168V0.538438ZM60.5767 20.443C65.5856 18.109 70.332 17.082 75.5661 17.082C81.3817 17.082 85.19 18.6131 86.8785 21.6194C87.8165 23.2998 88.1354 25.5032 88.1354 30.1899V53.1007C83.0701 53.8289 76.6729 54.3517 71.9641 54.3517C62.4902 54.3517 58.2129 51.0654 58.2129 43.7459C58.2129 35.8476 63.8785 32.1691 77.761 31.0115V28.5281C77.761 26.4741 76.7292 25.7272 73.8589 25.7272C69.6754 25.7272 64.9665 26.9036 60.5579 29.1629V20.4617L60.5767 20.443ZM78.2863 38.3683C70.7822 39.0965 68.3434 40.2729 68.3434 43.2044C68.3434 45.3891 69.7316 46.416 72.8458 46.416C74.5343 46.416 76.0726 46.2667 78.2863 45.9119V38.3683ZM93.6696 19.6401C100.348 17.8849 105.864 17.082 111.454 17.082C117.045 17.082 121.454 18.3891 123.949 20.9658C126.294 23.3745 127.025 26.0073 127.025 31.6463V53.7355H115.713V32.0758C115.713 27.7625 114.25 26.1567 110.197 26.1567C108.659 26.1567 107.252 26.3061 104.982 26.9596V53.7355H93.6509V19.6401H93.6696ZM131.434 59.8787C135.411 61.9326 139.369 62.8849 143.553 62.8849C150.982 62.8849 154.134 59.8787 154.134 52.7086V52.4845C151.92 53.5862 149.725 54.0156 146.78 54.0156C136.837 54.0156 130.533 47.499 130.533 37.192C130.533 24.3828 139.876 17.138 156.404 17.138C161.263 17.138 165.746 17.6422 171.187 18.7438L167.303 26.8662C164.283 26.2874 167.06 26.7915 164.79 26.5675V27.7438L164.94 32.5052L165.015 38.6484C165.09 40.1795 165.09 41.7293 165.165 43.2604V46.3413C165.165 55.9949 164.358 60.5322 161.938 64.2667C158.411 69.7563 152.314 72.4824 143.628 72.4824C139.219 72.4824 135.392 71.8289 131.434 70.2791V59.8974V59.8787ZM153.946 26.2314H152.764C150.551 26.1567 147.98 26.7355 146.217 27.8372C143.497 29.3683 142.108 32.1505 142.108 36.109C142.108 41.748 144.923 44.9596 149.894 44.9596C151.432 44.9596 152.708 44.6608 154.153 44.2314V40.3476C154.153 39.0405 154.077 37.5467 154.077 36.0343L154.002 30.8434L153.927 27.109V26.2314H153.946ZM188.765 16.9326C200.077 16.9326 207 24.0281 207 35.5115C207 46.9949 199.796 54.6878 188.334 54.6878C176.871 54.6878 170.024 47.5924 170.024 36.1837C170.024 24.775 177.228 16.9326 188.765 16.9326ZM188.54 45.6131C192.874 45.6131 195.444 42.0281 195.444 35.8102C195.444 29.5924 192.949 26.0073 188.615 26.0073C184.281 26.0073 181.561 29.5924 181.561 35.8102C181.561 42.0281 184.131 45.6131 188.54 45.6131Z" fill="#092E20"/>
</g>
<defs>
<clipPath id="clip0_701_48">
<rect width="207" height="72" fill="white" transform="translate(0 0.482422)"/>
</clipPath>
</defs>
</svg>
