<svg width="150" height="136" viewBox="0 0 150 136" fill="none" xmlns="http://www.w3.org/2000/svg">
<g clip-path="url(#clip0_701_37)">
<path d="M14.9682 49.9845C14.9682 47.4818 14.1262 45.7129 12.4423 44.6591C10.7584 43.6053 8.34478 43.0784 5.14532 43.0784V33.8576C6.7357 33.8576 8.13896 33.7446 9.37384 33.5188C10.6274 33.2554 11.6752 32.8602 12.5172 32.3145C13.3591 31.7499 13.9953 31.0349 14.4069 30.1504C14.8372 29.266 15.043 28.231 14.9869 26.989V14.7197C14.9869 12.8191 15.2301 11.2007 15.7353 9.86466C16.2218 8.50977 17.1386 7.34305 18.336 6.5527C19.6083 5.66825 21.3484 5.02844 23.5188 4.63327C25.6892 4.23809 28.4583 4.01227 31.8074 4.01227V12.6874C30.7784 12.7062 29.8428 12.8003 29.0009 12.9508C28.1776 13.1013 27.4854 13.3836 26.8866 13.7976C26.3253 14.174 25.895 14.7197 25.5769 15.416C25.2588 16.1122 25.1092 17.0155 25.1092 18.1257V29.6611C24.9595 34.4785 21.9658 37.3201 16.1282 38.2233V38.6938C19.0657 39.1266 21.3297 40.0487 22.8639 41.4788C24.3982 42.909 25.1653 44.8096 25.1092 47.2371V58.7725C25.1092 59.8828 25.2588 60.7861 25.5769 61.4823C25.895 62.1786 26.3253 62.7243 26.8866 63.1007C27.4666 63.5147 28.1963 63.7969 29.0009 63.9475C29.9177 64.1168 30.8719 64.1921 31.8074 64.2109V72.9425C28.4396 72.9425 25.6892 72.7543 23.5188 72.3215C21.3484 71.8886 19.6083 71.2677 18.336 70.3832C17.1199 69.5929 16.2031 68.4261 15.7166 67.0712C15.2301 65.7164 14.9682 64.0792 14.9682 62.1786V50.0222M36.8031 54.896C36.8031 53.6917 36.9902 52.6755 37.3082 51.8475C37.6824 51.0007 38.1502 50.3233 38.7676 49.7964C39.3851 49.2695 40.0773 48.9119 40.9193 48.6673C41.78 48.4227 42.6781 48.3097 43.5574 48.3097C44.4181 48.3097 45.2601 48.4227 46.0833 48.6673C46.9066 48.8931 47.6176 49.2695 48.235 49.7964C48.8524 50.3233 49.3389 51.0007 49.6944 51.8475C50.0686 52.6755 50.237 53.6917 50.237 54.896C50.237 56.1004 50.0499 57.0413 49.6944 57.8693C49.3389 58.6973 48.8524 59.3747 48.235 59.9204C47.6176 60.4661 46.8879 60.8613 46.0833 61.0871C45.2975 61.3506 44.4368 61.4823 43.5574 61.4823C42.6032 61.4823 41.7238 61.3506 40.9006 61.0871C40.1148 60.8613 39.3664 60.4661 38.7489 59.9204C38.1128 59.3559 37.6263 58.6596 37.2895 57.8693C36.9527 57.0413 36.7843 56.0627 36.7843 54.896M58.4508 79.4158C57.1785 79.4158 55.9062 79.3217 54.6526 79.1524C53.3429 78.9642 52.2577 78.7384 51.397 78.4561V69.1977C52.1267 69.4423 52.8751 69.6117 53.6236 69.7434C54.3158 69.8751 55.1017 69.9316 55.9623 69.9316C56.5798 69.9316 57.1785 69.8375 57.7585 69.6305C58.3573 69.4423 58.8811 69.0848 59.2553 68.5955C59.6857 68.1062 60.0412 67.4288 60.2844 66.582C60.5463 65.754 60.6773 64.6814 60.6773 63.3829V17.2601H72.3899V65.0577C72.3899 67.0336 72.128 68.8966 71.6415 70.609C71.1551 72.3591 70.3318 73.8833 69.2279 75.163C68.124 76.4802 66.702 77.4964 64.9245 78.2491C63.1471 79.0018 61.0141 79.3782 58.4882 79.3782M60.2096 6.10107C60.2096 4.99081 60.3967 4.08755 60.7147 3.35365C61.0141 2.65738 61.4819 2.05521 62.0619 1.58476C62.6606 1.11431 63.3529 0.794404 64.1013 0.625043C64.9058 0.436863 65.7291 0.342773 66.571 0.342773C67.3943 0.342773 68.2175 0.436863 69.0221 0.606225C69.7705 0.794404 70.4628 1.11431 71.0241 1.56594C71.6041 1.99875 72.0719 2.60093 72.4086 3.33483C72.7828 4.04991 72.9512 4.97199 72.9512 6.08225C72.9512 7.19251 72.7641 8.07695 72.4086 8.82967C72.0719 9.58239 71.6228 10.1846 71.0241 10.6362C70.4628 11.069 69.7892 11.3889 69.0221 11.5959C68.2737 11.7841 67.4317 11.8594 66.571 11.8594C65.7291 11.8594 64.8871 11.7653 64.0826 11.5959C63.3529 11.4077 62.6606 11.0878 62.0432 10.6362C61.4819 10.1657 61.0328 9.56357 60.696 8.82967C60.3592 8.09577 60.1908 7.17369 60.1908 6.08225M113.047 47.5947C113.047 49.8528 112.636 51.8475 111.812 53.5411C111.008 55.2159 109.81 56.6837 108.314 57.794C106.798 58.9231 104.983 59.7699 102.831 60.3344C100.68 60.899 98.2849 61.1812 95.628 61.1812C94.2248 61.1812 92.9151 61.1248 91.7176 61.0307C90.5763 60.9554 89.435 60.8237 88.2936 60.5979L85.1877 59.8452C84.1587 59.5252 83.1483 59.1301 82.1567 58.6784V48.9119C83.2232 49.4576 84.3645 49.9469 85.5432 50.3797L89.1169 51.5464L92.5409 52.2992C93.6635 52.4873 94.6925 52.5626 95.6468 52.5626C96.6945 52.5626 97.5926 52.4685 98.341 52.2992C98.9959 52.1486 99.5946 51.8663 100.137 51.49C100.586 51.1701 100.942 50.7561 101.166 50.248C101.391 49.7587 101.522 49.2506 101.522 48.7049C101.522 48.1592 101.428 47.6888 101.26 47.2748C101.11 46.8419 100.736 46.3903 100.137 45.9199C99.5572 45.4306 98.6778 44.8849 97.5178 44.3015L92.9525 42.0434L88.0878 39.5406C86.7407 38.6938 85.5994 37.7529 84.7013 36.7179C83.8219 35.6829 83.1857 34.5162 82.7367 33.1989C82.2876 31.8817 82.0818 30.2821 82.0818 28.4568C82.0818 26.4433 82.4747 24.6932 83.2419 23.1878C83.9903 21.6635 85.1129 20.4027 86.4974 19.4242C87.882 18.4456 89.5846 17.6741 91.5679 17.166C93.5699 16.6579 95.7777 16.4133 98.2101 16.4133C100.773 16.4133 103.206 16.7144 105.507 17.2978C107.808 17.8811 110.166 18.7844 112.598 19.9699L109.043 28.4003C107.228 27.5347 105.376 26.7632 103.486 26.1234C101.728 25.54 99.9501 25.2389 98.1913 25.2389C96.601 25.2389 95.4597 25.5212 94.73 26.0857C94.0377 26.6503 93.7009 27.403 93.7009 28.4003C93.7009 28.9084 93.7944 29.3789 93.9628 29.7929C94.1499 30.1692 94.5054 30.5832 95.0293 31.0349C95.5719 31.4489 96.339 31.9193 97.2746 32.4274L101.073 34.2339L105.975 36.6238C107.434 37.3765 108.688 38.2798 109.717 39.2959C110.746 40.3121 111.588 41.46 112.13 42.8149C112.673 44.1698 112.972 45.7693 112.972 47.6699M133.872 62.1409C133.872 64.0416 133.629 65.6787 133.123 67.0336C132.618 68.3885 131.758 69.4988 130.467 70.3456C129.213 71.23 127.492 71.8698 125.321 72.2838C123.151 72.6978 120.382 72.9048 117.033 72.9048V64.1545C117.968 64.1545 118.885 64.0416 119.802 63.891C120.625 63.7405 121.317 63.4582 121.879 63.0442C122.477 62.649 122.945 62.0845 123.226 61.4259C123.562 60.7296 123.731 59.8263 123.731 58.7161V47.1807C123.656 44.772 124.404 42.8525 125.976 41.4224C127.548 39.9922 129.774 39.0889 132.712 38.6373V38.1669C126.912 37.2636 123.918 34.4033 123.768 29.6047V18.0693C123.768 16.959 123.581 16.0558 123.263 15.3595C122.982 14.7009 122.515 14.1363 121.916 13.7412C121.355 13.3272 120.662 13.0449 119.839 12.8944C118.922 12.725 118.005 12.6497 117.07 12.6309V3.97464C120.438 3.97464 123.188 4.16282 125.359 4.59563C127.529 5.02844 129.25 5.64944 130.504 6.53388C131.776 7.38069 132.656 8.49095 133.161 9.84584C133.647 11.1631 133.909 12.8003 133.909 14.7009V26.9702C133.89 28.2122 134.096 29.266 134.489 30.1316C134.882 30.9972 135.518 31.7311 136.36 32.2957C137.202 32.8414 138.231 33.2366 139.466 33.5C140.72 33.7258 142.142 33.8387 143.732 33.8387V43.0595C140.551 43.0595 138.1 43.5864 136.398 44.6402C134.714 45.694 133.909 47.4629 133.909 49.9657V62.1221" fill="#555588"/>
<path d="M3.48008 132.708C2.91877 132.708 2.43231 132.671 2.02068 132.595C1.60905 132.52 1.23485 132.445 0.935486 132.313V129.66C1.3284 129.773 1.74003 129.848 2.13294 129.886C2.58199 129.961 3.04974 129.98 3.5175 129.98C3.92912 129.98 4.34075 129.923 4.73366 129.81C5.14529 129.716 5.5195 129.528 5.85628 129.246C6.19306 128.964 6.47372 128.587 6.67953 128.098C6.88534 127.609 6.9976 126.988 6.9976 126.254V102.073H10.0661V125.915C10.0661 127.063 9.89769 128.079 9.57962 128.926C9.29896 129.716 8.83121 130.431 8.23248 131.033C7.65246 131.598 6.94147 132.031 6.15564 132.275C5.3511 132.558 4.26591 132.689 3.29298 132.689M25.3524 123.751H25.2214C24.8846 124.203 24.5291 124.635 24.1362 125.049C23.7807 125.388 23.3878 125.689 22.9574 125.934C22.5084 126.178 22.0219 126.348 21.5355 126.442C21.0116 126.555 20.3941 126.611 19.7019 126.611C18.9534 126.611 18.2425 126.498 17.6063 126.273C16.9889 126.084 16.4089 125.746 15.9411 125.294C15.4733 124.842 15.1178 124.278 14.8559 123.6C14.594 122.923 14.4817 122.095 14.4817 121.192C14.4817 119.385 15.1178 117.993 16.3527 117.033C17.625 116.054 19.5335 115.527 22.1342 115.452L25.1652 115.339V114.191C25.1652 113.458 25.0904 112.837 24.922 112.347C24.7723 111.858 24.5478 111.463 24.2297 111.162C23.9304 110.842 23.5375 110.616 23.1071 110.503C22.6207 110.371 22.0968 110.296 21.5916 110.296C20.7309 110.296 19.8703 110.428 19.047 110.691C18.2799 110.955 17.5128 111.275 16.8018 111.651L15.754 109.393C16.5585 108.96 17.4753 108.584 18.467 108.264C19.4773 107.944 20.5438 107.793 21.6103 107.793C22.7329 107.793 23.6871 107.906 24.5104 108.132C25.3336 108.358 26.0072 108.715 26.5311 109.205C27.0737 109.713 27.504 110.353 27.7286 111.068C27.9905 111.82 28.1028 112.742 28.1028 113.834V126.273H25.9698L25.3711 123.751H25.3524ZM20.4877 124.165C21.1238 124.165 21.7413 124.071 22.34 123.845C22.9013 123.638 23.4065 123.318 23.8181 122.904C24.2297 122.471 24.5665 121.944 24.791 121.305C25.0343 120.646 25.1465 119.893 25.1465 119.028V117.39L22.789 117.503C21.7974 117.541 20.9742 117.654 20.3006 117.842C19.627 118.03 19.0844 118.275 18.6915 118.595C18.3173 118.896 18.0179 119.291 17.8308 119.743C17.6437 120.232 17.5502 120.74 17.5689 121.248C17.5689 122.264 17.8308 122.998 18.3547 123.488C18.8973 123.958 19.5896 124.203 20.4503 124.203M30.6286 108.113H33.7158L36.9901 118.218L37.4205 119.63L37.9069 121.38L38.356 123.074L38.6366 124.278H38.7489L39.0295 123.074L39.4786 121.38L39.9651 119.63L40.3954 118.218L43.6697 108.113H46.7569L40.5825 126.273H36.7843L30.6286 108.113ZM58.9934 123.751H58.8624C58.5256 124.203 58.1701 124.635 57.7772 125.049C57.0475 125.746 56.1494 126.235 55.1578 126.442C54.6339 126.555 54.0164 126.611 53.3242 126.611C52.5758 126.611 51.8648 126.498 51.2286 126.273C50.6112 126.084 50.0312 125.746 49.5634 125.294C49.0956 124.842 48.7402 124.278 48.4782 123.6C48.2163 122.923 48.104 122.095 48.104 121.192C48.104 119.385 48.7402 117.993 49.975 117.033C51.2473 116.054 53.1558 115.527 55.7565 115.452L58.7876 115.339V114.191C58.7876 113.458 58.7127 112.837 58.5443 112.347C58.3946 111.858 58.1514 111.463 57.852 111.162C57.5527 110.842 57.1598 110.616 56.7294 110.503C56.243 110.371 55.7191 110.296 55.2139 110.296C54.3532 110.296 53.4926 110.428 52.6693 110.691C51.9022 110.955 51.1351 111.275 50.4241 111.651L49.3763 109.393C50.1808 108.96 51.0976 108.584 52.0893 108.264C53.0996 107.944 54.1661 107.793 55.2326 107.793C56.3552 107.793 57.3094 107.906 58.1327 108.132C58.9559 108.358 59.6295 108.715 60.1534 109.205C60.696 109.713 61.1263 110.353 61.3509 111.068C61.6128 111.82 61.7251 112.742 61.7251 113.834V126.273H59.5734L58.9934 123.751ZM54.1287 124.165C54.7649 124.165 55.3823 124.071 55.981 123.845C56.5423 123.638 57.0475 123.318 57.4591 122.904C57.8708 122.471 58.2075 121.944 58.4321 121.305C58.6753 120.646 58.7876 119.893 58.7876 119.028V117.39L56.4301 117.503C55.4384 117.541 54.6152 117.654 53.9416 117.842C53.268 118.03 52.7254 118.275 52.3325 118.595C51.9583 118.896 51.659 119.291 51.4719 119.743C51.2847 120.232 51.1912 120.74 51.2099 121.248C51.2099 122.264 51.4719 122.998 51.9957 123.488C52.5383 123.958 53.2306 124.203 54.0913 124.203M80.1921 119.799C80.1921 120.872 80.005 121.832 79.6121 122.678C79.2566 123.506 78.6953 124.24 78.003 124.805C77.292 125.369 76.45 125.84 75.4397 126.141C74.4293 126.442 73.288 126.592 72.0344 126.592C70.8931 126.592 69.7518 126.498 68.6104 126.291C67.5627 126.103 66.6833 125.821 65.9536 125.445V122.509L67.2259 123.036L68.7227 123.488L70.3505 123.826C70.8931 123.901 71.4544 123.939 72.0157 123.939C73.7745 123.939 75.0655 123.6 75.8887 122.942C76.7307 122.283 77.161 121.323 77.161 120.1C77.161 119.573 77.0862 119.046 76.9178 118.538C76.7681 118.106 76.4874 117.692 76.0758 117.334C75.7016 116.958 75.159 116.581 74.4855 116.261C73.6622 115.829 72.8202 115.452 71.9596 115.114C71.0802 114.775 70.2195 114.361 69.415 113.853C68.704 113.382 68.1053 112.874 67.6375 112.291C67.1697 111.707 66.833 111.068 66.6084 110.334C66.3839 109.6 66.2717 108.772 66.2717 107.85C66.2717 106.928 66.44 106.024 66.7955 105.253C67.1323 104.5 67.6375 103.842 68.2737 103.333C68.9472 102.788 69.7143 102.374 70.5376 102.129C71.417 101.847 72.4086 101.715 73.4564 101.715C74.7661 101.715 75.9261 101.847 76.9739 102.091C78.0217 102.336 78.9385 102.656 79.7617 103.032L78.6391 105.61C77.9281 105.291 77.1236 105.008 76.2068 104.782C75.29 104.538 74.3545 104.425 73.419 104.425C72.0718 104.425 71.0428 104.745 70.3131 105.366C69.5647 105.987 69.153 106.909 69.1905 107.887C69.1905 108.508 69.2653 109.054 69.4337 109.525C69.6021 109.995 69.8827 110.428 70.2569 110.767C70.6498 111.124 71.1363 111.482 71.7538 111.802C72.3899 112.121 73.1757 112.46 74.0925 112.818C74.9906 113.175 75.87 113.57 76.712 114.041C77.4042 114.417 78.0404 114.888 78.6017 115.471C79.1069 115.998 79.4998 116.619 79.743 117.315C80.005 118.011 80.1547 118.858 80.1547 119.818M91.2498 126.611C90.1459 126.611 89.0982 126.423 88.1439 126.103C87.1897 125.764 86.329 125.181 85.618 124.447C84.9071 123.694 84.3457 122.716 83.9341 121.549C83.5225 120.364 83.3167 118.952 83.3167 117.296C83.3167 115.64 83.5038 114.097 83.9341 112.893C84.3457 111.689 84.9258 110.691 85.6368 109.957C86.3477 109.205 87.2271 108.64 88.2001 108.301C89.173 107.963 90.2208 107.793 91.3434 107.793C92.1853 107.793 93.0273 107.887 93.8505 108.076C94.5615 108.226 95.2538 108.452 95.9087 108.772L95.0293 111.312C94.7861 111.199 94.5054 111.105 94.1873 110.992C93.888 110.879 93.5699 110.785 93.2518 110.71C92.915 110.616 92.597 110.56 92.2789 110.503C91.9795 110.447 91.6802 110.428 91.3808 110.428C89.6595 110.428 88.3872 110.992 87.62 112.103C86.8342 113.213 86.4413 114.925 86.4413 117.259C86.4413 119.592 86.8155 121.286 87.62 122.377C88.4246 123.45 89.6407 123.977 91.2498 123.977C92.0544 123.977 92.8589 123.883 93.6447 123.676C94.3183 123.487 94.9732 123.243 95.628 122.942V125.614C95.0293 125.934 94.3932 126.178 93.7196 126.348C93.046 126.517 92.1853 126.592 91.2124 126.592M107.64 107.775L108.706 107.831C109.043 107.831 109.38 107.887 109.717 107.944L109.343 110.729L108.407 110.597C108.089 110.56 107.79 110.522 107.509 110.522C106.817 110.522 106.181 110.672 105.638 110.955C105.058 111.237 104.553 111.651 104.16 112.159C103.73 112.724 103.411 113.363 103.224 114.041C103 114.831 102.888 115.659 102.888 116.468V126.254H99.894V108.094H102.326L102.682 111.425H102.813L103.692 110.051C103.992 109.619 104.347 109.242 104.74 108.904C105.133 108.565 105.582 108.283 106.05 108.094C106.592 107.887 107.172 107.775 107.752 107.775M116.041 126.273H113.047V108.113H116.041V126.273ZM113.309 101.772C113.665 101.47 114.095 101.32 114.563 101.32C114.787 101.32 115.012 101.358 115.236 101.433C115.442 101.489 115.648 101.602 115.798 101.772C115.966 101.941 116.097 102.148 116.172 102.374C116.265 102.6 116.322 102.882 116.322 103.221C116.322 103.86 116.153 104.35 115.798 104.651C115.461 104.952 115.049 105.121 114.563 105.121C114.076 105.121 113.646 104.895 113.29 104.575C112.954 104.274 112.804 103.785 112.804 103.183C112.804 102.562 112.991 102.073 113.29 101.79L113.309 101.772ZM129.774 126.611C129.175 126.611 128.595 126.555 128.015 126.404C127.492 126.254 127.005 126.066 126.593 125.84C126.182 125.614 125.808 125.332 125.471 124.993C125.153 124.673 124.872 124.334 124.61 123.977H124.404L124.498 125.049L124.573 125.934L124.61 126.649V134.402H121.617V108.113H124.049L124.479 110.56H124.61C124.853 110.183 125.153 109.807 125.471 109.487C125.789 109.148 126.163 108.847 126.575 108.602C127.024 108.339 127.51 108.132 127.997 108C128.577 107.831 129.175 107.756 129.774 107.775C130.803 107.775 131.739 107.982 132.581 108.377C133.423 108.772 134.134 109.374 134.732 110.164C135.331 110.955 135.799 111.914 136.136 113.1C136.472 114.286 136.622 115.622 136.622 117.165C136.622 118.708 136.454 120.081 136.136 121.267C135.799 122.434 135.331 123.412 134.732 124.203C134.134 124.993 133.423 125.595 132.581 126.009C131.739 126.385 130.597 126.611 129.568 126.611M129.213 110.277C128.39 110.277 127.679 110.409 127.099 110.654C126.519 110.917 126.07 111.293 125.695 111.802C125.321 112.31 125.078 112.968 124.91 113.74C124.741 114.643 124.648 115.546 124.629 116.468V117.146C124.629 118.143 124.685 119.141 124.835 120.119C124.984 120.985 125.246 121.7 125.583 122.302C125.939 122.866 126.425 123.337 127.005 123.638C127.604 123.939 128.334 124.09 129.232 124.09C130.728 124.09 131.795 123.488 132.487 122.283C133.179 121.079 133.535 119.348 133.535 117.108C133.535 114.812 133.179 113.1 132.487 111.971C131.795 110.842 130.691 110.277 129.194 110.277M146.613 124.146C146.819 124.146 147.025 124.127 147.268 124.108L147.998 124.033L148.615 123.92L149.064 123.807V126.084C148.915 126.16 148.746 126.216 148.503 126.291C148.26 126.367 148.017 126.423 147.773 126.461C147.512 126.517 147.231 126.555 146.95 126.574C146.67 126.611 146.389 126.63 146.108 126.63C145.435 126.63 144.799 126.536 144.237 126.367C143.657 126.197 143.152 125.877 142.722 125.463C142.31 125.031 141.973 124.447 141.73 123.732C141.487 122.998 141.375 122.057 141.375 120.947V110.409H138.83V109.073L141.375 107.775L142.666 103.973H144.387V108.132H148.971V110.39H144.424V120.928C144.424 122.001 144.611 122.81 144.93 123.337C145.248 123.864 145.846 124.146 146.632 124.146" fill="black"/>
<path d="M3.48008 132.708C2.91877 132.708 2.43231 132.671 2.02068 132.595C1.60905 132.52 1.23485 132.445 0.935486 132.313V129.66C1.3284 129.773 1.74003 129.848 2.13294 129.886C2.58199 129.961 3.04974 129.98 3.5175 129.98C3.92912 129.98 4.34075 129.923 4.73367 129.81C5.14529 129.716 5.5195 129.528 5.85628 129.246C6.19306 128.964 6.47372 128.587 6.67953 128.098C6.88534 127.609 6.9976 126.988 6.9976 126.254V102.073H10.0661V125.915C10.0661 127.063 9.89769 128.079 9.57962 128.926C9.29896 129.716 8.83121 130.431 8.23248 131.033C7.65246 131.598 6.94147 132.031 6.15564 132.275C5.3511 132.558 4.26591 132.689 3.29298 132.689M20.4877 124.165C21.1238 124.165 21.7413 124.071 22.34 123.845C22.9013 123.638 23.4065 123.318 23.8181 122.904C24.2297 122.471 24.5665 121.944 24.791 121.305C25.0343 120.646 25.1465 119.893 25.1465 119.028V117.39L22.789 117.503C21.7974 117.541 20.9742 117.654 20.3006 117.842C19.627 118.03 19.0844 118.275 18.6915 118.595C18.3173 118.896 18.0179 119.291 17.8308 119.743C17.6437 120.232 17.5502 120.74 17.5689 121.248C17.5689 122.264 17.8308 122.998 18.3547 123.488C18.8973 123.958 19.5896 124.203 20.4503 124.203M54.1287 124.165C54.7649 124.165 55.3823 124.071 55.981 123.845C56.5423 123.638 57.0475 123.318 57.4591 122.904C57.8708 122.471 58.2075 121.944 58.4321 121.305C58.6753 120.646 58.7876 119.893 58.7876 119.028V117.39L56.4301 117.503C55.4384 117.541 54.6152 117.654 53.9416 117.842C53.268 118.03 52.7254 118.275 52.3325 118.595C51.9583 118.896 51.659 119.291 51.4719 119.743C51.2847 120.232 51.1912 120.74 51.2099 121.248C51.2099 122.264 51.4719 122.998 51.9957 123.488C52.5383 123.958 53.2306 124.203 54.0913 124.203M80.1921 119.799C80.1921 120.872 80.005 121.832 79.6121 122.678C79.2566 123.506 78.6953 124.24 78.003 124.805C77.292 125.369 76.45 125.84 75.4397 126.141C74.4293 126.442 73.288 126.592 72.0344 126.592C70.8931 126.592 69.7518 126.498 68.6104 126.291C67.5627 126.103 66.6833 125.821 65.9536 125.445V122.509L67.2259 123.036L68.7227 123.488L70.3505 123.826C70.8931 123.901 71.4544 123.939 72.0157 123.939C73.7745 123.939 75.0655 123.6 75.8887 122.942C76.7307 122.283 77.161 121.323 77.161 120.1C77.161 119.573 77.0862 119.046 76.9178 118.538C76.7681 118.106 76.4874 117.692 76.0758 117.334C75.7016 116.958 75.159 116.581 74.4855 116.261C73.6622 115.829 72.8202 115.452 71.9596 115.114C71.0802 114.775 70.2195 114.361 69.415 113.853C68.704 113.382 68.1053 112.874 67.6375 112.291C67.1697 111.707 66.833 111.068 66.6084 110.334C66.3839 109.6 66.2716 108.772 66.2716 107.85C66.2716 106.928 66.44 106.024 66.7955 105.253C67.1323 104.5 67.6375 103.842 68.2737 103.333C68.9472 102.788 69.7143 102.374 70.5376 102.129C71.417 101.847 72.4086 101.715 73.4564 101.715C74.7661 101.715 75.9261 101.847 76.9739 102.091C78.0217 102.336 78.9385 102.656 79.7617 103.032L78.6391 105.61C77.9281 105.291 77.1236 105.008 76.2068 104.782C75.29 104.538 74.3545 104.425 73.419 104.425C72.0718 104.425 71.0428 104.745 70.3131 105.366C69.5647 105.987 69.153 106.909 69.1904 107.887C69.1904 108.508 69.2653 109.054 69.4337 109.525C69.6021 109.995 69.8827 110.428 70.2569 110.767C70.6498 111.124 71.1363 111.482 71.7538 111.802C72.3899 112.121 73.1757 112.46 74.0925 112.818C74.9906 113.175 75.87 113.57 76.712 114.041C77.4042 114.417 78.0404 114.888 78.6017 115.471C79.1069 115.998 79.4998 116.619 79.743 117.315C80.005 118.011 80.1547 118.858 80.1547 119.818M91.2498 126.611C90.1459 126.611 89.0981 126.423 88.1439 126.103C87.1897 125.764 86.329 125.181 85.618 124.447C84.9071 123.694 84.3457 122.716 83.9341 121.549C83.5225 120.364 83.3167 118.952 83.3167 117.296C83.3167 115.64 83.5038 114.097 83.9341 112.893C84.3457 111.689 84.9258 110.691 85.6368 109.957C86.3477 109.205 87.2271 108.64 88.2001 108.301C89.173 107.963 90.2208 107.793 91.3434 107.793C92.1853 107.793 93.0273 107.887 93.8505 108.076C94.5615 108.226 95.2538 108.452 95.9087 108.772L95.0293 111.312C94.7861 111.199 94.5054 111.105 94.1873 110.992C93.888 110.879 93.5699 110.785 93.2518 110.71C92.915 110.616 92.597 110.56 92.2789 110.503C91.9795 110.447 91.6802 110.428 91.3808 110.428C89.6595 110.428 88.3872 110.992 87.62 112.103C86.8342 113.213 86.4413 114.925 86.4413 117.259C86.4413 119.592 86.8155 121.286 87.62 122.377C88.4246 123.45 89.6407 123.977 91.2498 123.977C92.0544 123.977 92.8589 123.883 93.6447 123.676C94.3183 123.487 94.9732 123.243 95.628 122.942V125.614C95.0293 125.934 94.3931 126.178 93.7196 126.348C93.046 126.517 92.1853 126.592 91.2124 126.592M107.64 107.775L108.706 107.831C109.043 107.831 109.38 107.887 109.717 107.944L109.343 110.729L108.407 110.597C108.089 110.56 107.79 110.522 107.509 110.522C106.817 110.522 106.181 110.672 105.638 110.955C105.058 111.237 104.553 111.651 104.16 112.159C103.73 112.724 103.411 113.363 103.224 114.041C103 114.831 102.888 115.659 102.888 116.468V126.254H99.894V108.094H102.326L102.682 111.425H102.813L103.692 110.051C103.991 109.619 104.347 109.242 104.74 108.904C105.133 108.565 105.582 108.283 106.05 108.094C106.592 107.887 107.172 107.775 107.752 107.775M129.774 126.611C129.175 126.611 128.595 126.555 128.015 126.404C127.492 126.254 127.005 126.066 126.593 125.84C126.182 125.614 125.808 125.332 125.471 124.993C125.153 124.673 124.872 124.334 124.61 123.977H124.404L124.498 125.049L124.573 125.934L124.61 126.649V134.402H121.617V108.113H124.049L124.479 110.56H124.61C124.853 110.183 125.153 109.807 125.471 109.487C125.789 109.148 126.163 108.847 126.575 108.602C127.024 108.339 127.51 108.132 127.997 108C128.577 107.831 129.175 107.756 129.774 107.775C130.803 107.775 131.739 107.982 132.581 108.377C133.423 108.772 134.134 109.374 134.732 110.164C135.331 110.955 135.799 111.914 136.136 113.1C136.472 114.286 136.622 115.622 136.622 117.165C136.622 118.708 136.454 120.081 136.136 121.267C135.799 122.434 135.331 123.412 134.732 124.203C134.134 124.993 133.423 125.595 132.581 126.009C131.739 126.385 130.597 126.611 129.568 126.611M129.213 110.277C128.39 110.277 127.679 110.409 127.099 110.654C126.519 110.917 126.07 111.293 125.695 111.802C125.321 112.31 125.078 112.968 124.91 113.74C124.741 114.643 124.648 115.546 124.629 116.468V117.146C124.629 118.143 124.685 119.141 124.835 120.119C124.984 120.985 125.246 121.7 125.583 122.302C125.939 122.866 126.425 123.337 127.005 123.638C127.604 123.939 128.334 124.09 129.232 124.09C130.728 124.09 131.795 123.488 132.487 122.283C133.179 121.079 133.535 119.348 133.535 117.108C133.535 114.812 133.179 113.1 132.487 111.971C131.795 110.842 130.691 110.277 129.194 110.277M146.613 124.146C146.819 124.146 147.025 124.127 147.268 124.108L147.998 124.033L148.615 123.92L149.064 123.807V126.084C148.915 126.16 148.746 126.216 148.503 126.291C148.26 126.367 148.017 126.423 147.773 126.461C147.512 126.517 147.231 126.555 146.95 126.574C146.67 126.611 146.389 126.63 146.108 126.63C145.435 126.63 144.799 126.536 144.237 126.367C143.657 126.197 143.152 125.877 142.722 125.463C142.31 125.031 141.973 124.447 141.73 123.732C141.487 122.998 141.375 122.057 141.375 120.947V110.409H138.83V109.073L141.375 107.775L142.666 103.973H144.387V108.132H148.971V110.39H144.424V120.928C144.424 122.001 144.611 122.81 144.93 123.337C145.248 123.864 145.846 124.146 146.632 124.146M25.3524 123.751H25.2214C24.8846 124.203 24.5291 124.635 24.1362 125.049C23.7807 125.388 23.3878 125.689 22.9574 125.934C22.5084 126.178 22.0219 126.348 21.5355 126.442C21.0116 126.555 20.3941 126.611 19.7019 126.611C18.9534 126.611 18.2425 126.498 17.6063 126.273C16.9889 126.084 16.4089 125.746 15.9411 125.294C15.4733 124.842 15.1178 124.278 14.8559 123.6C14.594 122.923 14.4817 122.095 14.4817 121.192C14.4817 119.385 15.1178 117.993 16.3527 117.033C17.625 116.054 19.5335 115.527 22.1342 115.452L25.1652 115.339V114.191C25.1652 113.458 25.0904 112.837 24.922 112.347C24.7723 111.858 24.5478 111.463 24.2297 111.162C23.9304 110.842 23.5375 110.616 23.1071 110.503C22.6207 110.371 22.0968 110.296 21.5916 110.296C20.7309 110.296 19.8703 110.428 19.047 110.691C18.2799 110.955 17.5128 111.275 16.8018 111.651L15.754 109.393C16.5585 108.96 17.4753 108.584 18.467 108.264C19.4773 107.944 20.5438 107.793 21.6103 107.793C22.7329 107.793 23.6871 107.906 24.5104 108.132C25.3336 108.358 26.0072 108.715 26.5311 109.205C27.0737 109.713 27.504 110.353 27.7286 111.068C27.9905 111.82 28.1028 112.742 28.1028 113.834V126.273H25.9698L25.3711 123.751H25.3524ZM30.6286 108.113H33.7158L36.9901 118.218L37.4205 119.63L37.9069 121.38L38.356 123.074L38.6366 124.278H38.7489L39.0295 123.074L39.4786 121.38L39.9651 119.63L40.3954 118.218L43.6697 108.113H46.7569L40.5825 126.273H36.7843L30.6286 108.113ZM58.9934 123.751H58.8624C58.5256 124.203 58.1701 124.635 57.7772 125.049C57.0475 125.746 56.1494 126.235 55.1578 126.442C54.6339 126.555 54.0164 126.611 53.3242 126.611C52.5758 126.611 51.8648 126.498 51.2286 126.273C50.6112 126.084 50.0312 125.746 49.5634 125.294C49.0956 124.842 48.7402 124.278 48.4782 123.6C48.2163 122.923 48.104 122.095 48.104 121.192C48.104 119.385 48.7402 117.993 49.975 117.033C51.2473 116.054 53.1558 115.527 55.7565 115.452L58.7876 115.339V114.191C58.7876 113.458 58.7127 112.837 58.5443 112.347C58.3946 111.858 58.1514 111.463 57.852 111.162C57.5527 110.842 57.1598 110.616 56.7294 110.503C56.243 110.371 55.7191 110.296 55.2139 110.296C54.3532 110.296 53.4926 110.428 52.6693 110.691C51.9022 110.955 51.1351 111.275 50.4241 111.651L49.3763 109.393C50.1808 108.96 51.0976 108.584 52.0893 108.264C53.0996 107.944 54.1661 107.793 55.2326 107.793C56.3552 107.793 57.3094 107.906 58.1327 108.132C58.9559 108.358 59.6295 108.715 60.1534 109.205C60.696 109.713 61.1263 110.353 61.3509 111.068C61.6128 111.82 61.7251 112.742 61.7251 113.834V126.273H59.5734L58.9934 123.751ZM116.041 126.273H113.047V108.113H116.041V126.273ZM113.309 101.772C113.665 101.47 114.095 101.32 114.563 101.32C114.787 101.32 115.012 101.358 115.236 101.433C115.442 101.489 115.648 101.602 115.798 101.772C115.966 101.941 116.097 102.148 116.172 102.374C116.265 102.6 116.322 102.882 116.322 103.221C116.322 103.86 116.153 104.35 115.798 104.651C115.461 104.952 115.049 105.121 114.563 105.121C114.076 105.121 113.646 104.895 113.29 104.575C112.954 104.274 112.804 103.785 112.804 103.183C112.804 102.562 112.991 102.073 113.29 101.79L113.309 101.772Z" stroke="black"/>
</g>
<defs>
<clipPath id="clip0_701_37">
<rect width="150" height="135" fill="white" transform="translate(0 0.342773)"/>
</clipPath>
</defs>
</svg>
