<svg width="208" height="47" viewBox="0 0 208 47" fill="none" xmlns="http://www.w3.org/2000/svg">
<g clip-path="url(#clip0_701_40)">
<path d="M64.5149 46.2325V1.13289H66.9834V8.21885C67.2796 7.90566 67.5363 7.57289 67.793 7.22055C69.8468 2.97289 74.211 0.310764 78.9503 0.349913C84.5784 0.193317 89.1598 2.24864 91.8454 7.22055C95.321 13.4844 95.5185 21.0206 92.3786 27.441C89.8707 33.0001 83.6897 35.7797 77.0743 34.7618C72.8879 34.4095 69.1753 31.9823 67.2006 28.3023V46.252H64.5347L64.5149 46.2325ZM66.9834 17.0861L67.5363 22.3908C68.5039 28.4197 72.098 31.9823 77.7458 32.6478C83.2158 33.5482 88.5476 30.475 90.5026 25.3269C92.6946 20.1397 92.5366 14.2674 90.0682 9.19757C87.9947 4.59757 83.1171 1.93544 78.0815 2.64013C73.3816 2.97289 69.4123 6.24183 68.188 10.744C67.6548 12.8384 67.2598 14.9525 66.9834 17.0665V17.0861ZM144.986 23.2129C144.216 29.7899 138.647 34.7618 131.972 34.8793C121.625 35.3882 116.767 28.5763 115.997 20.7269C115.463 16.4597 116.155 12.1142 118.011 8.23843C120.657 2.75757 126.581 -0.393917 132.644 0.467359C138.41 0.956721 143.209 5.04779 144.571 10.6069C145.104 13.0733 145.48 15.5789 145.736 18.104H118.544C118.05 25.2291 121.901 30.9644 127.391 32.3542C134.223 34.018 140.049 31.0818 142.162 24.6614C142.636 23.0171 143.485 22.7823 145.006 23.252L144.986 23.2129ZM118.524 15.8137H142.833C142.675 8.21885 137.916 2.69885 131.439 2.64013C124.133 2.52268 118.84 7.82736 118.524 15.8137ZM150.002 23.3891H152.391C152.569 26.932 154.741 30.0835 157.999 31.5516C162.067 33.372 166.767 33.2546 170.737 31.2189C172.928 30.2401 174.271 28.0086 174.094 25.6401C174.212 23.3499 172.79 21.2359 170.598 20.492C167.972 19.5329 165.188 18.9848 162.522 18.1431C159.737 17.3601 157.032 16.3814 154.386 15.1874C150.081 13.1125 149.804 4.98906 154.682 2.42481C159.757 -0.413492 165.918 -0.511364 171.092 2.17034C174.232 3.89289 175.97 7.37715 175.456 10.9006H173.422C173.422 10.9006 173.244 10.7244 173.244 10.6069C172.988 4.14736 167.518 2.13119 161.633 2.69885C159.856 2.89459 158.177 3.4231 156.597 4.20608C154.642 5.08693 153.477 7.08353 153.675 9.19757C153.675 11.3116 155.018 13.1908 157.032 13.8954C159.599 14.835 162.324 15.4223 164.99 16.1661L171.408 17.8299C174.39 18.8086 176.463 21.4903 176.621 24.6027C177.135 28.0282 175.377 31.3754 172.277 32.9218C166.669 36.0733 157.427 35.2316 153.3 31.258C151.187 29.1635 150.021 26.3057 150.041 23.3499L150.002 23.3891ZM206.835 10.9006H204.603C204.603 10.6069 204.485 10.3133 204.445 10.0784C204.366 6.65289 201.898 3.75587 198.501 3.10991C195.401 2.22906 192.084 2.38566 189.082 3.56013C186.633 4.24523 184.955 6.45715 184.935 8.98225C184.856 11.4682 186.535 13.6606 188.963 14.2478L199.173 16.8512C200.279 17.1057 201.365 17.4384 202.431 17.8299C205.69 19.0044 207.901 21.9993 208 25.4248C208.099 28.8503 206.065 32.0018 202.866 33.3329C198.067 35.4861 192.577 35.5448 187.739 33.4895C183.711 31.7669 181.183 27.7346 181.42 23.3891H183.612C184.441 27.304 187.147 30.5925 190.879 32.1193C194.611 33.6461 198.877 33.2937 202.253 31.1014C204.327 30.0248 205.591 27.852 205.472 25.5423C205.571 23.252 204.129 21.1576 201.918 20.4333C199.291 19.4742 196.507 18.9457 193.841 18.0844C191.037 17.321 188.312 16.3423 185.666 15.1678C181.459 13.1125 181.124 5.06736 185.922 2.5031C191.057 -0.452641 197.396 -0.530938 202.589 2.32693C205.571 4.08864 207.23 7.45545 206.815 10.881H206.835V10.9006ZM60.447 34.0572C58.6302 34.7423 56.5765 33.9593 55.6681 32.2563L46.9792 20.355L45.7154 18.6912L35.6244 32.2759C34.7753 33.9201 32.84 34.664 31.0825 34.0376L44.0763 16.7533L32.0106 1.17204C33.8076 0.526083 35.8021 1.23076 36.7895 2.83587L45.7944 14.8937L54.8584 2.87502C55.7076 1.26991 57.6428 0.545657 59.3609 1.21119L54.6807 7.37715L48.322 15.5789C47.6309 16.1857 47.5716 17.2427 48.1838 17.9278C48.2233 17.9669 48.2628 18.0257 48.322 18.0648L60.4272 34.0767H60.447V34.0572ZM115.602 0.99587V3.34481C108.887 2.91417 103.082 7.94481 102.647 14.6001C102.628 15.0112 102.608 15.4027 102.647 15.8137C102.647 21.2946 102.647 26.795 102.647 32.2759V34.1354H100.238V1.15247H102.608V7.90566C105.511 2.97289 109.993 1.15247 115.641 1.01544L115.602 0.99587ZM0 16.5576L1.06636 11.3703C3.96924 1.13289 15.8177 -3.13434 23.9734 3.20779C28.7523 6.92693 29.9371 12.1925 29.7002 18.1235H2.80414C2.3697 28.7133 10.0712 35.1142 19.9449 31.8452C23.2033 30.6708 25.652 27.9891 26.4418 24.6614C26.9553 22.9976 27.8242 22.704 29.404 23.1933C28.8708 27.304 26.4616 30.9448 22.8873 33.0784C16.8841 36.3278 9.45903 35.3882 4.48267 30.7491C2.07348 28.0674 0.631919 24.7006 0.355454 21.1184C0.355454 20.5312 0.15798 19.9831 0.0197475 19.4546C0.0197475 18.4759 0 17.4971 0 16.5576ZM2.84363 15.8529H27.1528C26.9948 8.1797 22.1172 2.71842 15.6005 2.67927C8.33343 2.5814 3.13985 7.90566 2.82389 15.8333V15.8725L2.84363 15.8529Z" fill="black"/>
</g>
<defs>
<clipPath id="clip0_701_40">
<rect width="208" height="46" fill="white" transform="translate(0 0.232422)"/>
</clipPath>
</defs>
</svg>
