<svg width="108" height="106" viewBox="0 0 108 106" fill="none" xmlns="http://www.w3.org/2000/svg">
<g clip-path="url(#clip0_701_57)">
<path d="M4.4982 4.71777H103.48V100.747H4.4982V4.71777Z" fill="url(#paint0_radial_701_57)"/>
<path d="M4.4982 4.7177H103.48V100.747H4.4982V4.7177ZM0 105.232H108V0.232178H0V105.232ZM70.7385 37.669C70.7385 37.3024 70.8682 37.1299 71.2791 37.1299H78.3508C78.7185 37.1299 78.8915 37.2593 78.8915 37.669V73.0788C78.8915 73.4454 78.805 73.6179 78.3508 73.6179H71.3656C70.9115 73.6179 70.7817 73.4022 70.7817 73.0356V37.669H70.7385ZM70.2411 27.4688C70.2411 24.6006 72.2739 22.897 74.8258 22.897C77.5723 22.897 79.4105 24.73 79.4105 27.4688C79.4105 30.4232 77.4858 32.0406 74.7393 32.0406C72.1442 32.0621 70.2411 30.4447 70.2411 27.4688ZM49.9992 52.4195C48.7449 47.438 45.7605 36.5908 44.636 31.3289H44.5495C43.5979 36.5692 41.2191 45.454 39.3376 52.4195H49.9992ZM37.4994 59.6869L33.9527 73.1435C33.8662 73.5101 33.7365 73.5963 33.2823 73.5963H26.6648C26.2107 73.5963 26.1241 73.4669 26.2107 72.9278L38.9916 28.3314C39.2079 27.5335 39.3592 26.8003 39.4457 24.6006C39.4457 24.2772 39.5755 24.1478 39.8134 24.1478H49.2639C49.5883 24.1478 49.7181 24.234 49.8046 24.6006L64.1209 73.0141C64.2075 73.3807 64.1209 73.5963 63.7533 73.5963H56.2923C55.9247 73.5963 55.7085 73.5101 55.6219 73.1866L51.9239 59.6869H37.4994Z" fill="#FF7F18"/>
</g>
<defs>
<radialGradient id="paint0_radial_701_57" cx="0" cy="0" r="1" gradientUnits="userSpaceOnUse" gradientTransform="translate(37.7149 26.5991) scale(75.524 72.9152)">
<stop stop-color="#423325" stop-opacity="0.98"/>
<stop offset="1" stop-color="#1C0A00"/>
</radialGradient>
<clipPath id="clip0_701_57">
<rect width="108" height="105" fill="white" transform="translate(0 0.232178)"/>
</clipPath>
</defs>
</svg>
