<svg width="230" height="62" viewBox="0 0 230 62" fill="none" xmlns="http://www.w3.org/2000/svg">
<g clip-path="url(#clip0_701_23)">
<path fill-rule="evenodd" clip-rule="evenodd" d="M34.6075 33.4035C34.6075 32.744 34.2553 32.1397 33.673 31.8122L18.2313 23.0854C17.9683 22.9332 17.6771 22.8548 17.3813 22.8456H17.2216C16.9257 22.8594 16.6345 22.9378 16.3668 23.0854L0.934578 31.8076C0.356924 32.1351 0 32.7393 0 33.3989L0.0328746 56.8995C0.0328746 57.227 0.20664 57.5314 0.497815 57.6882C0.784294 57.8589 1.13652 57.8589 1.423 57.6882L10.5997 52.5269C11.1821 52.1902 11.5343 51.5905 11.5343 50.9356V39.9579C11.5343 39.3029 11.8865 38.6987 12.4642 38.3712L16.3715 36.1618C16.6627 35.9957 16.9821 35.9173 17.3061 35.9173C17.6302 35.9173 17.9495 36.0004 18.2313 36.1618L22.1387 38.3712C22.7163 38.6987 23.0733 39.3029 23.0733 39.9579V50.9356C23.0733 51.5905 23.4302 52.1902 24.0078 52.5269L33.1799 57.6882C33.4663 57.8589 33.8279 57.8589 34.1144 57.6882C34.4009 57.5268 34.5794 57.2224 34.5794 56.8995L34.6075 33.3989V33.4035Z" fill="#333333"/>
<path fill-rule="evenodd" clip-rule="evenodd" d="M117.052 1.0977C116.761 0.940878 116.409 0.94549 116.127 1.10693C115.841 1.27298 115.667 1.57279 115.667 1.89566V25.1656C115.667 25.3962 115.54 25.6084 115.343 25.7191C115.141 25.8344 114.892 25.8344 114.69 25.7191L110.825 23.5328C110.247 23.2053 109.538 23.2053 108.961 23.5328L93.5142 32.2873C92.9365 32.6148 92.5796 33.219 92.5796 33.874V51.3875C92.5796 52.0425 92.9365 52.6467 93.5142 52.9742L108.961 61.7333C109.538 62.0608 110.247 62.0608 110.825 61.7333L126.271 52.9742C126.849 52.6467 127.206 52.0425 127.206 51.3875V7.73505C127.206 7.07086 126.84 6.4574 126.248 6.13453L117.052 1.0977ZM115.62 45.6358C115.62 45.7972 115.531 45.9494 115.385 46.0324L110.083 49.0352C109.937 49.1182 109.764 49.1182 109.618 49.0352L104.316 46.0324C104.17 45.9494 104.081 45.8018 104.081 45.6358V39.6211C104.081 39.4597 104.17 39.3075 104.316 39.2244L109.618 36.2171C109.764 36.1341 109.942 36.1341 110.083 36.2171L115.385 39.2244C115.531 39.3075 115.62 39.4597 115.62 39.6211V45.6358Z" fill="#333333"/>
<path fill-rule="evenodd" clip-rule="evenodd" d="M172.31 39.4643C172.883 39.1368 173.24 38.5326 173.24 37.8822V33.6387C173.24 32.9884 172.887 32.3841 172.31 32.0567L156.962 23.3068C156.384 22.9793 155.671 22.9747 155.093 23.3068L139.651 32.0613C139.074 32.3888 138.717 32.993 138.717 33.648V51.1569C138.717 51.8165 139.078 52.4207 139.661 52.7482L155.004 61.3367C155.567 61.6549 156.262 61.6595 156.831 61.3459L166.111 56.2814C166.406 56.1199 166.59 55.8155 166.59 55.488C166.59 55.1559 166.411 54.8515 166.12 54.6855L150.58 45.9264C150.289 45.7649 150.11 45.4605 150.11 45.133V39.6442C150.11 39.3167 150.289 39.0123 150.575 38.8508L155.412 36.111C155.699 35.9496 156.056 35.9496 156.342 36.111L161.179 38.8508C161.471 39.0123 161.644 39.3167 161.644 39.6442V43.9615C161.644 44.2889 161.823 44.5934 162.114 44.7548C162.405 44.9209 162.757 44.9162 163.049 44.7548L172.296 39.4735L172.31 39.4643Z" fill="#333333"/>
<path fill-rule="evenodd" clip-rule="evenodd" d="M62.6918 23.2053C63.2694 22.8778 63.9786 22.8778 64.5563 23.2053L79.9979 31.9598C80.5756 32.2873 80.9325 32.8915 80.9325 33.5465V51.0647C80.9325 51.7197 80.5756 52.3239 79.9979 52.6514L64.5563 61.4105C63.9786 61.738 63.2694 61.738 62.6918 61.4105L47.2501 52.6514C46.6725 52.3239 46.3156 51.7197 46.3156 51.0647V33.5465C46.3156 32.8915 46.6725 32.2873 47.2501 31.9598L62.6918 23.2053Z" fill="#80BD01"/>
<path d="M202.296 61.6641C201.765 61.6641 201.235 61.5258 200.77 61.2628L195.909 58.4354C195.181 58.0341 195.538 57.8957 195.778 57.8127C196.745 57.4806 196.942 57.4068 197.975 56.8303C198.083 56.7703 198.224 56.7934 198.337 56.8579L202.071 59.035C202.207 59.1088 202.399 59.1088 202.521 59.035L217.085 50.7787C217.221 50.7049 217.306 50.5481 217.306 50.3912V33.8832C217.306 33.7217 217.216 33.5695 217.08 33.4911L202.521 25.244C202.385 25.1656 202.207 25.1656 202.071 25.244L187.517 33.4957C187.376 33.5741 187.286 33.731 187.286 33.8878V50.3959C187.286 50.5527 187.376 50.7049 187.517 50.7787L191.504 53.0434C193.669 54.1043 194.993 52.8543 194.993 51.5951V35.2992C194.993 35.0686 195.181 34.8887 195.416 34.8887H197.262C197.492 34.8887 197.684 35.0686 197.684 35.2992V51.5951C197.684 54.4318 196.111 56.06 193.373 56.06C192.532 56.06 191.87 56.06 190.02 55.1652L186.202 53.0065C185.258 52.4715 184.675 51.4706 184.675 50.3959V33.8878C184.675 32.8131 185.258 31.8122 186.202 31.2817L200.765 23.0162C201.686 22.5042 202.911 22.5042 203.827 23.0162L218.391 31.2817C219.334 31.8168 219.922 32.8177 219.922 33.8878V50.3959C219.922 51.4706 219.334 52.4669 218.391 53.0065L203.827 61.2628C203.362 61.5258 202.831 61.6641 202.296 61.6641Z" fill="#80BD01"/>
<path d="M206.795 50.2898C200.422 50.2898 199.089 47.4162 199.089 45.0085C199.089 44.7779 199.276 44.598 199.511 44.598H201.394C201.606 44.598 201.78 44.7456 201.812 44.9485C202.099 46.8304 202.944 47.7806 206.8 47.7806C209.867 47.7806 211.172 47.0979 211.172 45.502C211.172 44.5795 210.801 43.8969 206.034 43.4356C202.052 43.0482 199.586 42.1857 199.586 39.0538C199.586 36.1664 202.061 34.4459 206.218 34.4459C210.881 34.4459 213.192 36.0372 213.483 39.4505C213.492 39.5658 213.45 39.6811 213.37 39.7687C213.29 39.8517 213.178 39.9025 213.06 39.9025H211.172C210.975 39.9025 210.801 39.7641 210.764 39.5796C210.308 37.6009 209.209 36.9643 206.218 36.9643C202.869 36.9643 202.479 38.1082 202.479 38.9708C202.479 40.0132 202.94 40.313 207.462 40.9034C211.938 41.4846 214.065 42.3056 214.065 45.3959C214.065 48.4863 211.421 50.299 206.805 50.299L206.795 50.2898Z" fill="#80BD01"/>
<path fill-rule="evenodd" clip-rule="evenodd" d="M155.802 38.6433C155.915 38.5787 156.051 38.5787 156.159 38.6433L159.122 40.3222C159.235 40.3868 159.301 40.5021 159.301 40.6266V43.9891C159.301 44.1137 159.23 44.229 159.122 44.2936L156.159 45.9725C156.046 46.0371 155.91 46.0371 155.802 45.9725L152.839 44.2936C152.726 44.229 152.66 44.1137 152.66 43.9891V40.6266C152.66 40.5021 152.731 40.3868 152.839 40.3222L155.802 38.6433Z" fill="#80BD01"/>
<path d="M230 27.4903C230 29.0078 228.737 30.2486 227.192 30.2486C225.647 30.2486 224.383 29.0217 224.383 27.4903C224.383 25.959 225.689 24.7321 227.192 24.7321C228.694 24.7321 230 25.9267 230 27.4903ZM224.843 27.4811C224.843 28.7634 225.9 29.8012 227.192 29.8012C228.483 29.8012 229.554 28.7449 229.554 27.4811C229.554 26.2173 228.483 25.1749 227.192 25.1749C225.9 25.1749 224.843 26.1804 224.843 27.4811ZM226.14 25.9451H227.224C227.595 25.9451 228.323 25.9451 228.323 26.7615C228.323 27.3289 227.952 27.4488 227.727 27.518C228.159 27.5457 228.187 27.8224 228.248 28.2191C228.276 28.4682 228.323 28.8879 228.413 29.0355H227.746C227.732 28.8879 227.628 28.1038 227.628 28.0577C227.586 27.8824 227.525 27.7947 227.3 27.7947H226.75V29.0355H226.14V25.9451ZM226.736 27.3012H227.224C227.624 27.3012 227.699 27.0245 227.699 26.863C227.699 26.4387 227.403 26.4387 227.239 26.4387H226.736V27.3012Z" fill="#80BD01"/>
</g>
<defs>
<clipPath id="clip0_701_23">
<rect width="230" height="61" fill="white" transform="translate(0 0.982422)"/>
</clipPath>
</defs>
</svg>
