<svg width="282" height="83" viewBox="0 0 282 83" fill="none" xmlns="http://www.w3.org/2000/svg">
<g clip-path="url(#clip0_701_42)">
<path d="M105.977 35.464C105.977 26.7979 103.521 22.3389 98.6105 22.1122C96.6561 22.0114 94.7519 22.3137 92.8978 23.0695C91.4195 23.5985 90.4172 24.1276 89.8911 24.6566V45.3393C93.023 47.3294 95.8293 48.2615 98.2597 48.1104C103.421 47.7577 105.977 43.5758 105.977 35.4892V35.464ZM112.04 35.8167C112.04 40.2253 111.013 43.8781 108.958 46.7752C106.653 50.0753 103.471 51.7632 99.3872 51.8388C96.3053 51.9396 93.1483 50.9571 89.8911 48.9417V67.7349L84.6294 65.8456V24.1276C85.5063 23.0695 86.6088 22.1374 87.9618 21.3565C91.0937 19.5174 94.9022 18.5601 99.4122 18.5349L99.4874 18.6105C103.597 18.5601 106.754 20.248 108.958 23.6741C111.038 26.8231 112.065 30.8538 112.065 35.7915L112.04 35.8167ZM144.237 48.1608C144.237 54.0557 143.661 58.162 142.483 60.4293C141.305 62.6965 139.05 64.5104 135.718 65.8707C133.012 66.9288 130.106 67.5082 126.974 67.609L126.097 64.2585C129.279 63.8302 131.509 63.3767 132.812 62.9485C135.367 62.0667 137.121 60.7568 138.073 58.9681C138.85 57.507 139.226 54.7359 139.226 50.6296V49.244C135.668 50.8815 131.809 51.7128 127.901 51.7128C125.295 51.7128 123.015 50.9067 121.035 49.244C118.83 47.4554 117.703 45.1881 117.703 42.417V20.374L122.965 18.5601V40.7795C122.965 43.1475 123.716 44.9866 125.245 46.2714C126.773 47.5561 128.753 48.1608 131.158 48.1104C133.563 48.06 136.169 47.1279 138.925 45.2889V19.3411H144.187V48.1608H144.237ZM164.833 51.5617L163.104 51.6373C160.122 51.6373 157.792 50.9319 156.138 49.4959C154.485 48.06 153.658 46.095 153.658 43.5506V22.6664H150.05V19.3411H153.658V10.4987L158.92 8.6093V19.3411H164.833V22.6664H158.92V43.3995C158.92 45.3896 159.446 46.8004 160.523 47.6317C161.45 48.3119 162.878 48.6898 164.858 48.7906V51.5617H164.833ZM196.754 51.1334H191.492V30.6775C191.492 28.5866 191.016 26.7979 190.039 25.3116C188.936 23.6237 187.383 22.7672 185.404 22.7672C182.998 22.7672 179.966 24.052 176.333 26.6216V51.1586H171.072V2.21052L176.333 0.547852V22.8176C179.691 20.3488 183.374 19.1144 187.383 19.1144C190.164 19.1144 192.444 20.0717 194.173 21.9359C195.902 23.8253 196.779 26.1681 196.779 28.9644V51.1082L196.754 51.1334ZM224.791 34.6326C224.791 31.3073 224.165 28.5614 222.912 26.3697C221.434 23.7245 219.103 22.3138 215.997 22.1878C210.209 22.5153 207.327 26.6972 207.327 34.6578C207.327 38.3107 207.929 41.3841 209.131 43.8277C210.685 46.9515 212.99 48.4883 216.097 48.4379C221.91 48.3875 224.791 43.7773 224.791 34.6075V34.6326ZM230.554 34.6578C230.554 39.3939 229.351 43.3491 226.946 46.4981C224.29 50.025 220.632 51.7884 215.972 51.7884C211.311 51.7884 207.728 50.025 205.147 46.4981C202.792 43.3491 201.615 39.3939 201.615 34.6578C201.615 30.1989 202.892 26.4452 205.448 23.397C208.154 20.1724 211.687 18.5349 216.072 18.5349C220.456 18.5349 224.014 20.1472 226.771 23.397C229.326 26.4452 230.604 30.1989 230.604 34.6578H230.554ZM260.796 51.1334H255.535V29.5187C255.535 27.1506 254.833 25.2864 253.405 23.9512C252.002 22.6161 250.097 21.9863 247.742 22.0366C245.237 22.087 242.856 22.9184 240.601 24.5055V51.1334H235.34V23.8505C238.371 21.6336 241.178 20.1724 243.708 19.4922C246.114 18.8624 248.218 18.5349 250.072 18.5349C251.325 18.5349 252.503 18.6609 253.605 18.8876C255.685 19.3663 257.364 20.2732 258.666 21.5832C260.12 23.0443 260.846 24.7826 260.846 26.7979V51.1082L260.796 51.1334Z" fill="#646464"/>
<path d="M32.5135 2.41211C29.8074 2.41211 27.2016 2.66403 24.9216 3.0671C18.2066 4.25113 16.9789 6.74514 16.9789 11.3553V17.4265H32.8392V19.4419H11.0407C6.43044 19.4419 2.39647 22.2382 1.11863 27.5285C-0.334605 33.5998 -0.409772 37.4038 1.11863 43.7522C2.24613 48.4883 4.95215 51.8388 9.56241 51.8388H15.0246V44.5583C15.0246 39.2932 19.5596 34.6579 24.9466 34.6579H40.8069C45.2167 34.6579 48.7496 31.005 48.7496 26.5461V11.3553C48.7496 7.02225 45.1165 3.77248 40.8069 3.0671C38.0758 2.61365 35.2445 2.41211 32.5385 2.41211H32.5135ZM23.9444 7.29936C25.573 7.29936 26.926 8.65973 26.926 10.3476C26.926 12.0355 25.5981 13.3706 23.9444 13.3706C22.2907 13.3706 20.9628 12.0103 20.9628 10.3476C20.9628 8.68492 22.2907 7.29936 23.9444 7.29936Z" fill="url(#paint0_linear_701_42)"/>
<path d="M50.7039 19.467V26.546C50.7039 32.0379 46.0686 36.6732 40.7818 36.6732H24.9216C20.5869 36.6732 16.9789 40.4016 16.9789 44.785V59.9758C16.9789 64.3088 20.7122 66.8532 24.9216 68.0876C29.9327 69.574 34.7685 69.8511 40.7818 68.0876C44.7657 66.9288 48.7245 64.5859 48.7245 59.9758V53.9045H32.8642V51.8892H56.6421C61.2524 51.8892 62.9812 48.6646 64.5848 43.8025C66.2385 38.8145 66.1633 34.0028 64.5848 27.5789C63.4573 22.9687 61.2774 19.4922 56.6421 19.4922H50.6789L50.7039 19.467ZM41.8091 57.9352C43.4628 57.9352 44.7908 59.2956 44.7908 60.9583C44.7908 62.621 43.4628 64.0065 41.8091 64.0065C40.1555 64.0065 38.8275 62.6461 38.8275 60.9583C38.8275 59.2704 40.1555 57.9352 41.8091 57.9352Z" fill="url(#paint1_linear_701_42)"/>
<path d="M271.044 14.6302H271.971V8.81085H274.151V8.10547H268.839V8.81085H271.019V14.6302M274.978 14.6302H275.78V9.31469L277.483 14.6302H278.36L280.139 9.31469V14.6302H280.991V8.10547H279.864L277.909 13.6981L276.256 8.10547H274.978V14.6302Z" fill="#646464"/>
<path opacity="0.44" d="M54.3119 78.3912C54.3119 80.6837 44.7908 82.5479 33.0396 82.5479C21.2885 82.5479 11.7673 80.6837 11.7673 78.3912C11.7673 76.0987 21.2885 74.2345 33.0396 74.2345C44.7908 74.2345 54.3119 76.0987 54.3119 78.3912Z" fill="url(#paint2_radial_701_42)"/>
</g>
<defs>
<linearGradient id="paint0_linear_701_42" x1="-5.71157" y1="0.418917" x2="30.4956" y2="31.7054" gradientUnits="userSpaceOnUse">
<stop stop-color="#5A9FD4"/>
<stop offset="1" stop-color="#306998"/>
</linearGradient>
<linearGradient id="paint1_linear_701_42" x1="44.3307" y1="51.0226" x2="31.3703" y2="32.6078" gradientUnits="userSpaceOnUse">
<stop stop-color="#FFD43B"/>
<stop offset="1" stop-color="#FFE873"/>
</linearGradient>
<radialGradient id="paint2_radial_701_42" cx="0" cy="0" r="1" gradientUnits="userSpaceOnUse" gradientTransform="translate(35.1819 129.065) rotate(-90) scale(4.38946 18.1905)">
<stop stop-color="#B8B8B8" stop-opacity="0.5"/>
<stop offset="1" stop-color="#7F7F7F" stop-opacity="0"/>
</radialGradient>
<clipPath id="clip0_701_42">
<rect width="281" height="82" fill="white" transform="translate(0.0161743 0.547852)"/>
</clipPath>
</defs>
</svg>
