<svg width="60" height="10" viewBox="0 0 60 10" fill="none" xmlns="http://www.w3.org/2000/svg">
<path d="M0.947368 5.82959H56.2661L54.7251 7.51882C54.3556 7.92382 54.3556 8.58151 54.7251 8.98651C54.9114 9.19074 55.1514 9.29113 55.3946 9.29113C55.6377 9.29113 55.8809 9.19074 56.064 8.98651L59.2219 5.52497C59.5914 5.11997 59.5914 4.46228 59.2219 4.05728L56.064 0.595742C55.6946 0.190742 55.0946 0.190742 54.7251 0.595742C54.3556 1.00074 54.3556 1.65843 54.7251 2.06343L56.2661 3.75267H0.947368C0.423158 3.75267 0 4.21651 0 4.79113C0 5.36574 0.423158 5.82959 0.947368 5.82959Z" fill="#F5AF02"/>
</svg>
