<svg width="252" height="720" viewBox="0 0 252 720" fill="none" xmlns="http://www.w3.org/2000/svg">
<path d="M120.575 368.166C112.209 364.484 104.495 360.29 95.95 357.1C99.0356 356.036 102.161 355.012 105.306 354.126C131.672 346.664 150.086 330.025 161.855 305.706C171.191 286.409 174.573 265.714 174.87 244.606C175.345 211.505 175.048 178.385 175.048 145.265C175.048 132.407 176.393 119.785 180.804 107.557C188.3 86.8029 202.601 74.4568 224.853 71.8773C233.555 70.873 242.278 70.2429 251.851 69.3765C251.654 46.0428 252.643 23.3392 251.199 0.281213C228.551 -0.388277 207.15 -0.211059 186.184 4.79042C135.034 17.0382 102.062 48.071 90.3524 99.5232C87.0493 114.075 86.001 129.355 85.6647 144.34C84.9526 176.121 85.6054 207.941 85.2889 239.742C85.1702 249.863 84.4977 260.102 82.7769 270.066C78.6826 293.951 65.1534 310.038 40.9434 315.611C30.4208 318.033 19.5421 318.998 8.80184 320.553C5.97339 320.967 3.08559 321.124 0 321.42V397.781C4.60861 398.116 8.52493 398.214 12.3819 398.726C21.5002 399.947 30.7966 400.597 39.6577 402.881C62.1865 408.709 77.6738 422.296 82.144 445.768C84.1021 456.007 84.9724 466.581 85.1109 477.017C85.5263 510.452 85.1109 543.907 85.5856 577.342C85.7636 589.747 86.5943 602.31 88.8096 614.499C94.961 648.446 110.666 676.84 140.434 696.078C174.079 717.817 211.62 721.558 251.179 719.51V649.608C246.096 649.608 241.566 649.746 237.037 649.588C208.792 648.603 189.526 633.914 180.665 607.056C176.274 593.764 175.147 580.158 175.147 566.315C175.167 538.118 175.206 509.921 175.107 481.723C175.048 462.328 173.347 443.109 167.65 424.403C159.936 399.041 145.537 379.134 120.575 368.166Z" fill="#373737"/>
</svg>
