<svg width="252" height="721" viewBox="0 0 252 721" fill="none" xmlns="http://www.w3.org/2000/svg">
<path d="M120.575 368.934C112.209 365.251 104.495 361.057 95.95 357.867C99.0356 356.804 102.161 355.78 105.306 354.894C131.672 347.431 150.086 330.792 161.855 306.474C171.191 287.177 174.573 266.482 174.87 245.373C175.345 212.273 175.048 179.153 175.048 146.033C175.048 133.175 176.393 120.553 180.804 108.325C188.3 87.5705 202.601 75.2243 224.853 72.6448C233.555 71.6406 242.278 71.0105 251.851 70.1441C251.654 46.8104 252.643 24.1068 251.199 1.04879C228.551 0.379301 207.15 0.556519 186.184 5.558C135.034 17.8057 102.062 48.8386 90.3524 100.291C87.0493 114.842 86.001 130.122 85.6647 145.107C84.9526 176.888 85.6054 208.709 85.2889 240.51C85.1702 250.631 84.4977 260.87 82.7769 270.834C78.6826 294.719 65.1534 310.806 40.9434 316.379C30.4208 318.801 19.5421 319.765 8.80184 321.321C5.97339 321.734 3.08559 321.892 0 322.187V398.549C4.60861 398.883 8.52493 398.982 12.3819 399.494C21.5002 400.715 30.7966 401.364 39.6577 403.648C62.1865 409.477 77.6738 423.064 82.144 446.535C84.1021 456.775 84.9724 467.349 85.1109 477.785C85.5263 511.22 85.1109 544.675 85.5856 578.11C85.7636 590.515 86.5943 603.078 88.8096 615.266C94.961 649.214 110.666 677.608 140.434 696.846C174.079 718.584 211.62 722.326 251.179 720.278V650.375C246.096 650.375 241.566 650.513 237.037 650.356C208.792 649.371 189.526 634.682 180.665 607.823C176.274 594.532 175.147 580.925 175.147 567.083C175.167 538.885 175.206 510.688 175.107 482.491C175.048 463.095 173.347 443.877 167.65 425.171C159.936 399.809 145.537 379.901 120.575 368.934Z" fill="#373737" fill-opacity="0.5"/>
</svg>
