<svg width="252" height="641" viewBox="0 0 252 641" fill="none" xmlns="http://www.w3.org/2000/svg">
<path d="M120.575 327.875C112.209 324.599 104.495 320.868 95.95 318.03C99.0356 317.084 102.161 316.173 105.306 315.385C131.672 308.745 150.086 293.941 161.855 272.306C171.191 255.137 174.573 236.725 174.87 217.945C175.345 188.495 175.048 159.029 175.048 129.562C175.048 118.122 176.393 106.893 180.804 96.0134C188.3 77.5485 202.601 66.5642 224.853 64.2692C233.555 63.3757 242.278 62.8151 251.851 62.0443C251.654 41.2845 252.643 21.0852 251.199 0.570628C228.551 -0.0250132 207.15 0.132657 186.184 4.58245C135.034 15.4792 102.062 43.0889 90.3524 88.8657C87.0493 101.812 86.001 115.407 85.6647 128.739C84.9526 157.014 85.6054 185.325 85.2889 213.617C85.1702 222.622 84.4977 231.732 82.7769 240.596C78.6826 261.847 65.1534 276.16 40.9434 281.118C30.4208 283.272 19.5421 284.131 8.80184 285.515C5.97339 285.883 3.08559 286.023 0 286.286V354.224C4.60861 354.522 8.52493 354.609 12.3819 355.065C21.5002 356.151 30.7966 356.729 39.6577 358.761C62.1865 363.947 77.6738 376.035 82.144 396.917C84.1021 406.027 84.9724 415.435 85.1109 424.72C85.5263 454.467 85.1109 484.231 85.5856 513.978C85.7636 525.015 86.5943 536.192 88.8096 547.036C94.961 577.239 110.666 602.501 140.434 619.617C174.079 638.958 211.62 642.286 251.179 640.464V578.273C246.096 578.273 241.566 578.395 237.037 578.255C208.792 577.379 189.526 564.31 180.665 540.414C176.274 528.589 175.147 516.483 175.147 504.168C175.167 479.081 175.206 453.994 175.107 428.907C175.048 411.651 173.347 394.552 167.65 377.909C159.936 355.345 145.537 337.633 120.575 327.875Z" fill="#373737"/>
</svg>
