<svg width="252" height="721" viewBox="0 0 252 721" fill="none" xmlns="http://www.w3.org/2000/svg">
<path d="M120.575 368.458C112.209 364.776 104.495 360.582 95.95 357.392C99.0356 356.328 102.161 355.304 105.306 354.418C131.672 346.956 150.086 330.317 161.855 305.998C171.191 286.701 174.573 266.006 174.87 244.898C175.345 211.797 175.048 178.677 175.048 145.557C175.048 132.699 176.393 120.077 180.804 107.849C188.3 87.0949 202.601 74.7487 224.853 72.1693C233.555 71.165 242.278 70.5349 251.851 69.6685C251.654 46.3348 252.643 23.6312 251.199 0.573205C228.551 -0.0962849 207.15 0.0809332 186.184 5.08242C135.034 17.3301 102.062 48.363 90.3524 99.8152C87.0493 114.367 86.001 129.647 85.6647 144.632C84.9526 176.413 85.6054 208.233 85.2889 240.034C85.1702 250.155 84.4977 260.394 82.7769 270.358C78.6826 294.243 65.1534 310.33 40.9434 315.903C30.4208 318.325 19.5421 319.29 8.80184 320.845C5.97339 321.259 3.08559 321.416 0 321.712V398.073C4.60861 398.408 8.52493 398.506 12.3819 399.018C21.5002 400.239 30.7966 400.889 39.6577 403.173C62.1865 409.001 77.6738 422.588 82.144 446.06C84.1021 456.299 84.9724 466.873 85.1109 477.309C85.5263 510.744 85.1109 544.199 85.5856 577.634C85.7636 590.039 86.5943 602.602 88.8096 614.791C94.961 648.738 110.666 677.132 140.434 696.37C174.079 718.109 211.62 721.85 251.179 719.802V649.9C246.096 649.9 241.566 650.038 237.037 649.88C208.792 648.895 189.526 634.206 180.665 607.348C176.274 594.056 175.147 580.45 175.147 566.607C175.167 538.41 175.206 510.213 175.107 482.015C175.048 462.62 173.347 443.401 167.65 424.695C159.936 399.333 145.537 379.426 120.575 368.458Z" fill="#373737" fill-opacity="0.5"/>
</svg>
